ISO-10303-21;
HEADER;
/* Generated by software containing ST-Developer
 * from STEP Tools, Inc. (www.steptools.com) 
 */

FILE_DESCRIPTION(
/* description */ (''),
/* implementation_level */ '2;1');

FILE_NAME(
/* name */ 'Neck.step',
/* time_stamp */ '2026-07-07T18:35:28+07:00',
/* author */ (''),
/* organization */ (''),
/* preprocessor_version */ 'ST-DEVELOPER v20.1',
/* originating_system */ 'Autodesk Translation Framework v15.8.0.0',
/* authorisation */ '');

FILE_SCHEMA (('AUTOMOTIVE_DESIGN { 1 0 10303 214 3 1 1 }'));
ENDSEC;

DATA;
#10=MECHANICAL_DESIGN_GEOMETRIC_PRESENTATION_REPRESENTATION('',(#13),#975);
#11=SHAPE_REPRESENTATION_RELATIONSHIP('SRR','None',#982,#12);
#12=ADVANCED_BREP_SHAPE_REPRESENTATION('',(#14),#974);
#13=STYLED_ITEM('',(#992),#14);
#14=MANIFOLD_SOLID_BREP('Body1',#563);
#15=FACE_BOUND('',#88,.T.);
#16=FACE_BOUND('',#89,.T.);
#17=FACE_BOUND('',#90,.T.);
#18=FACE_BOUND('',#91,.T.);
#19=FACE_BOUND('',#92,.T.);
#20=FACE_BOUND('',#104,.T.);
#21=FACE_BOUND('',#107,.T.);
#22=FACE_BOUND('',#110,.T.);
#23=FACE_BOUND('',#113,.T.);
#24=FACE_BOUND('',#116,.T.);
#25=FACE_BOUND('',#119,.T.);
#26=FACE_BOUND('',#122,.T.);
#27=FACE_BOUND('',#125,.T.);
#28=FACE_BOUND('',#132,.T.);
#29=FACE_BOUND('',#133,.T.);
#30=FACE_BOUND('',#134,.T.);
#31=FACE_BOUND('',#135,.T.);
#32=FACE_BOUND('',#136,.T.);
#33=PLANE('',#580);
#34=PLANE('',#581);
#35=PLANE('',#591);
#36=PLANE('',#594);
#37=PLANE('',#612);
#38=PLANE('',#616);
#39=PLANE('',#620);
#40=PLANE('',#624);
#41=PLANE('',#627);
#42=PLANE('',#630);
#43=PLANE('',#633);
#44=PLANE('',#636);
#45=PLANE('',#637);
#46=PLANE('',#638);
#47=PLANE('',#639);
#48=PLANE('',#640);
#49=PLANE('',#641);
#50=PLANE('',#642);
#51=FACE_OUTER_BOUND('',#85,.T.);
#52=FACE_OUTER_BOUND('',#86,.T.);
#53=FACE_OUTER_BOUND('',#87,.T.);
#54=FACE_OUTER_BOUND('',#93,.T.);
#55=FACE_OUTER_BOUND('',#94,.T.);
#56=FACE_OUTER_BOUND('',#95,.T.);
#57=FACE_OUTER_BOUND('',#96,.T.);
#58=FACE_OUTER_BOUND('',#97,.T.);
#59=FACE_OUTER_BOUND('',#98,.T.);
#60=FACE_OUTER_BOUND('',#99,.T.);
#61=FACE_OUTER_BOUND('',#100,.T.);
#62=FACE_OUTER_BOUND('',#101,.T.);
#63=FACE_OUTER_BOUND('',#102,.T.);
#64=FACE_OUTER_BOUND('',#103,.T.);
#65=FACE_OUTER_BOUND('',#105,.T.);
#66=FACE_OUTER_BOUND('',#106,.T.);
#67=FACE_OUTER_BOUND('',#108,.T.);
#68=FACE_OUTER_BOUND('',#109,.T.);
#69=FACE_OUTER_BOUND('',#111,.T.);
#70=FACE_OUTER_BOUND('',#112,.T.);
#71=FACE_OUTER_BOUND('',#114,.T.);
#72=FACE_OUTER_BOUND('',#115,.T.);
#73=FACE_OUTER_BOUND('',#117,.T.);
#74=FACE_OUTER_BOUND('',#118,.T.);
#75=FACE_OUTER_BOUND('',#120,.T.);
#76=FACE_OUTER_BOUND('',#121,.T.);
#77=FACE_OUTER_BOUND('',#123,.T.);
#78=FACE_OUTER_BOUND('',#124,.T.);
#79=FACE_OUTER_BOUND('',#126,.T.);
#80=FACE_OUTER_BOUND('',#127,.T.);
#81=FACE_OUTER_BOUND('',#128,.T.);
#82=FACE_OUTER_BOUND('',#129,.T.);
#83=FACE_OUTER_BOUND('',#130,.T.);
#84=FACE_OUTER_BOUND('',#131,.T.);
#85=EDGE_LOOP('',(#369,#370,#371,#372));
#86=EDGE_LOOP('',(#373,#374,#375,#376));
#87=EDGE_LOOP('',(#377,#378,#379,#380,#381,#382,#383,#384));
#88=EDGE_LOOP('',(#385,#386,#387,#388));
#89=EDGE_LOOP('',(#389));
#90=EDGE_LOOP('',(#390));
#91=EDGE_LOOP('',(#391));
#92=EDGE_LOOP('',(#392));
#93=EDGE_LOOP('',(#393,#394,#395,#396));
#94=EDGE_LOOP('',(#397,#398,#399,#400));
#95=EDGE_LOOP('',(#401,#402,#403,#404));
#96=EDGE_LOOP('',(#405,#406,#407,#408));
#97=EDGE_LOOP('',(#409,#410,#411,#412));
#98=EDGE_LOOP('',(#413,#414,#415,#416));
#99=EDGE_LOOP('',(#417,#418,#419,#420));
#100=EDGE_LOOP('',(#421,#422,#423,#424));
#101=EDGE_LOOP('',(#425,#426,#427,#428));
#102=EDGE_LOOP('',(#429,#430,#431,#432));
#103=EDGE_LOOP('',(#433));
#104=EDGE_LOOP('',(#434));
#105=EDGE_LOOP('',(#435,#436,#437,#438));
#106=EDGE_LOOP('',(#439));
#107=EDGE_LOOP('',(#440));
#108=EDGE_LOOP('',(#441,#442,#443,#444));
#109=EDGE_LOOP('',(#445));
#110=EDGE_LOOP('',(#446));
#111=EDGE_LOOP('',(#447,#448,#449,#450));
#112=EDGE_LOOP('',(#451));
#113=EDGE_LOOP('',(#452));
#114=EDGE_LOOP('',(#453,#454,#455,#456));
#115=EDGE_LOOP('',(#457));
#116=EDGE_LOOP('',(#458));
#117=EDGE_LOOP('',(#459,#460,#461,#462));
#118=EDGE_LOOP('',(#463));
#119=EDGE_LOOP('',(#464));
#120=EDGE_LOOP('',(#465,#466,#467,#468));
#121=EDGE_LOOP('',(#469));
#122=EDGE_LOOP('',(#470));
#123=EDGE_LOOP('',(#471,#472,#473,#474));
#124=EDGE_LOOP('',(#475));
#125=EDGE_LOOP('',(#476));
#126=EDGE_LOOP('',(#477,#478,#479,#480));
#127=EDGE_LOOP('',(#481,#482,#483,#484));
#128=EDGE_LOOP('',(#485,#486,#487,#488));
#129=EDGE_LOOP('',(#489,#490,#491,#492));
#130=EDGE_LOOP('',(#493,#494,#495,#496));
#131=EDGE_LOOP('',(#497,#498,#499,#500,#501,#502,#503,#504));
#132=EDGE_LOOP('',(#505,#506,#507,#508));
#133=EDGE_LOOP('',(#509));
#134=EDGE_LOOP('',(#510));
#135=EDGE_LOOP('',(#511));
#136=EDGE_LOOP('',(#512));
#137=LINE('',#823,#177);
#138=LINE('',#826,#178);
#139=LINE('',#829,#179);
#140=LINE('',#831,#180);
#141=LINE('',#832,#181);
#142=LINE('',#835,#182);
#143=LINE('',#839,#183);
#144=LINE('',#843,#184);
#145=LINE('',#847,#185);
#146=LINE('',#849,#186);
#147=LINE('',#851,#187);
#148=LINE('',#852,#188);
#149=LINE('',#864,#189);
#150=LINE('',#867,#190);
#151=LINE('',#868,#191);
#152=LINE('',#872,#192);
#153=LINE('',#875,#193);
#154=LINE('',#876,#194);
#155=LINE('',#880,#195);
#156=LINE('',#885,#196);
#157=LINE('',#891,#197);
#158=LINE('',#897,#198);
#159=LINE('',#903,#199);
#160=LINE('',#909,#200);
#161=LINE('',#916,#201);
#162=LINE('',#923,#202);
#163=LINE('',#930,#203);
#164=LINE('',#935,#204);
#165=LINE('',#940,#205);
#166=LINE('',#945,#206);
#167=LINE('',#950,#207);
#168=LINE('',#955,#208);
#169=LINE('',#957,#209);
#170=LINE('',#958,#210);
#171=LINE('',#961,#211);
#172=LINE('',#962,#212);
#173=LINE('',#965,#213);
#174=LINE('',#966,#214);
#175=LINE('',#968,#215);
#176=LINE('',#970,#216);
#177=VECTOR('',#649,10.);
#178=VECTOR('',#652,10.);
#179=VECTOR('',#655,10.);
#180=VECTOR('',#656,10.);
#181=VECTOR('',#657,10.);
#182=VECTOR('',#660,10.);
#183=VECTOR('',#663,10.);
#184=VECTOR('',#666,10.);
#185=VECTOR('',#669,10.);
#186=VECTOR('',#670,10.);
#187=VECTOR('',#671,10.);
#188=VECTOR('',#672,10.);
#189=VECTOR('',#685,10.);
#190=VECTOR('',#688,10.);
#191=VECTOR('',#689,10.);
#192=VECTOR('',#694,10.);
#193=VECTOR('',#697,10.);
#194=VECTOR('',#698,10.);
#195=VECTOR('',#703,10.);
#196=VECTOR('',#708,1.7);
#197=VECTOR('',#715,1.7);
#198=VECTOR('',#722,1.7);
#199=VECTOR('',#729,1.7);
#200=VECTOR('',#736,2.75);
#201=VECTOR('',#745,2.75);
#202=VECTOR('',#754,2.75);
#203=VECTOR('',#763,2.75);
#204=VECTOR('',#770,2.75);
#205=VECTOR('',#777,2.75);
#206=VECTOR('',#784,2.75);
#207=VECTOR('',#791,2.75);
#208=VECTOR('',#798,10.);
#209=VECTOR('',#799,10.);
#210=VECTOR('',#800,10.);
#211=VECTOR('',#803,10.);
#212=VECTOR('',#804,10.);
#213=VECTOR('',#807,10.);
#214=VECTOR('',#808,10.);
#215=VECTOR('',#811,10.);
#216=VECTOR('',#814,10.);
#217=CIRCLE('',#578,6.);
#218=CIRCLE('',#579,6.);
#219=CIRCLE('',#582,6.);
#220=CIRCLE('',#583,6.);
#221=CIRCLE('',#584,6.);
#222=CIRCLE('',#585,2.75);
#223=CIRCLE('',#586,2.75);
#224=CIRCLE('',#587,2.75);
#225=CIRCLE('',#588,2.75);
#226=CIRCLE('',#590,6.);
#227=CIRCLE('',#593,6.);
#228=CIRCLE('',#596,6.);
#229=CIRCLE('',#598,1.7);
#230=CIRCLE('',#599,1.7);
#231=CIRCLE('',#601,1.7);
#232=CIRCLE('',#602,1.7);
#233=CIRCLE('',#604,1.7);
#234=CIRCLE('',#605,1.7);
#235=CIRCLE('',#607,1.7);
#236=CIRCLE('',#608,1.7);
#237=CIRCLE('',#610,2.75);
#238=CIRCLE('',#611,2.75);
#239=CIRCLE('',#614,2.75);
#240=CIRCLE('',#615,2.75);
#241=CIRCLE('',#618,2.75);
#242=CIRCLE('',#619,2.75);
#243=CIRCLE('',#622,2.75);
#244=CIRCLE('',#623,2.75);
#245=CIRCLE('',#626,2.75);
#246=CIRCLE('',#629,2.75);
#247=CIRCLE('',#632,2.75);
#248=CIRCLE('',#635,2.75);
#249=VERTEX_POINT('',#819);
#250=VERTEX_POINT('',#820);
#251=VERTEX_POINT('',#822);
#252=VERTEX_POINT('',#824);
#253=VERTEX_POINT('',#828);
#254=VERTEX_POINT('',#830);
#255=VERTEX_POINT('',#834);
#256=VERTEX_POINT('',#836);
#257=VERTEX_POINT('',#838);
#258=VERTEX_POINT('',#840);
#259=VERTEX_POINT('',#842);
#260=VERTEX_POINT('',#845);
#261=VERTEX_POINT('',#846);
#262=VERTEX_POINT('',#848);
#263=VERTEX_POINT('',#850);
#264=VERTEX_POINT('',#853);
#265=VERTEX_POINT('',#855);
#266=VERTEX_POINT('',#857);
#267=VERTEX_POINT('',#859);
#268=VERTEX_POINT('',#862);
#269=VERTEX_POINT('',#866);
#270=VERTEX_POINT('',#870);
#271=VERTEX_POINT('',#874);
#272=VERTEX_POINT('',#878);
#273=VERTEX_POINT('',#882);
#274=VERTEX_POINT('',#884);
#275=VERTEX_POINT('',#888);
#276=VERTEX_POINT('',#890);
#277=VERTEX_POINT('',#894);
#278=VERTEX_POINT('',#896);
#279=VERTEX_POINT('',#900);
#280=VERTEX_POINT('',#902);
#281=VERTEX_POINT('',#906);
#282=VERTEX_POINT('',#908);
#283=VERTEX_POINT('',#913);
#284=VERTEX_POINT('',#915);
#285=VERTEX_POINT('',#920);
#286=VERTEX_POINT('',#922);
#287=VERTEX_POINT('',#927);
#288=VERTEX_POINT('',#929);
#289=VERTEX_POINT('',#934);
#290=VERTEX_POINT('',#939);
#291=VERTEX_POINT('',#944);
#292=VERTEX_POINT('',#949);
#293=VERTEX_POINT('',#954);
#294=VERTEX_POINT('',#956);
#295=VERTEX_POINT('',#960);
#296=VERTEX_POINT('',#964);
#297=EDGE_CURVE('',#249,#250,#217,.T.);
#298=EDGE_CURVE('',#250,#251,#137,.T.);
#299=EDGE_CURVE('',#251,#252,#218,.T.);
#300=EDGE_CURVE('',#252,#249,#138,.T.);
#301=EDGE_CURVE('',#253,#252,#139,.T.);
#302=EDGE_CURVE('',#254,#253,#140,.T.);
#303=EDGE_CURVE('',#249,#254,#141,.T.);
#304=EDGE_CURVE('',#251,#255,#142,.T.);
#305=EDGE_CURVE('',#256,#255,#219,.T.);
#306=EDGE_CURVE('',#256,#257,#143,.T.);
#307=EDGE_CURVE('',#258,#257,#220,.T.);
#308=EDGE_CURVE('',#258,#259,#144,.T.);
#309=EDGE_CURVE('',#253,#259,#221,.T.);
#310=EDGE_CURVE('',#260,#261,#145,.T.);
#311=EDGE_CURVE('',#262,#260,#146,.T.);
#312=EDGE_CURVE('',#263,#262,#147,.T.);
#313=EDGE_CURVE('',#261,#263,#148,.T.);
#314=EDGE_CURVE('',#264,#264,#222,.T.);
#315=EDGE_CURVE('',#265,#265,#223,.T.);
#316=EDGE_CURVE('',#266,#266,#224,.T.);
#317=EDGE_CURVE('',#267,#267,#225,.T.);
#318=EDGE_CURVE('',#268,#254,#226,.T.);
#319=EDGE_CURVE('',#259,#268,#149,.T.);
#320=EDGE_CURVE('',#269,#258,#150,.T.);
#321=EDGE_CURVE('',#268,#269,#151,.T.);
#322=EDGE_CURVE('',#270,#269,#227,.T.);
#323=EDGE_CURVE('',#257,#270,#152,.T.);
#324=EDGE_CURVE('',#271,#256,#153,.T.);
#325=EDGE_CURVE('',#270,#271,#154,.T.);
#326=EDGE_CURVE('',#272,#271,#228,.T.);
#327=EDGE_CURVE('',#255,#272,#155,.T.);
#328=EDGE_CURVE('',#273,#273,#229,.T.);
#329=EDGE_CURVE('',#273,#274,#156,.T.);
#330=EDGE_CURVE('',#274,#274,#230,.T.);
#331=EDGE_CURVE('',#275,#275,#231,.T.);
#332=EDGE_CURVE('',#275,#276,#157,.T.);
#333=EDGE_CURVE('',#276,#276,#232,.T.);
#334=EDGE_CURVE('',#277,#277,#233,.T.);
#335=EDGE_CURVE('',#277,#278,#158,.T.);
#336=EDGE_CURVE('',#278,#278,#234,.T.);
#337=EDGE_CURVE('',#279,#279,#235,.T.);
#338=EDGE_CURVE('',#279,#280,#159,.T.);
#339=EDGE_CURVE('',#280,#280,#236,.T.);
#340=EDGE_CURVE('',#281,#281,#237,.T.);
#341=EDGE_CURVE('',#281,#282,#160,.T.);
#342=EDGE_CURVE('',#282,#282,#238,.T.);
#343=EDGE_CURVE('',#283,#283,#239,.T.);
#344=EDGE_CURVE('',#283,#284,#161,.T.);
#345=EDGE_CURVE('',#284,#284,#240,.T.);
#346=EDGE_CURVE('',#285,#285,#241,.T.);
#347=EDGE_CURVE('',#285,#286,#162,.T.);
#348=EDGE_CURVE('',#286,#286,#242,.T.);
#349=EDGE_CURVE('',#287,#287,#243,.T.);
#350=EDGE_CURVE('',#287,#288,#163,.T.);
#351=EDGE_CURVE('',#288,#288,#244,.T.);
#352=EDGE_CURVE('',#267,#289,#164,.T.);
#353=EDGE_CURVE('',#289,#289,#245,.T.);
#354=EDGE_CURVE('',#266,#290,#165,.T.);
#355=EDGE_CURVE('',#290,#290,#246,.T.);
#356=EDGE_CURVE('',#265,#291,#166,.T.);
#357=EDGE_CURVE('',#291,#291,#247,.T.);
#358=EDGE_CURVE('',#264,#292,#167,.T.);
#359=EDGE_CURVE('',#292,#292,#248,.T.);
#360=EDGE_CURVE('',#260,#293,#168,.T.);
#361=EDGE_CURVE('',#294,#293,#169,.T.);
#362=EDGE_CURVE('',#262,#294,#170,.T.);
#363=EDGE_CURVE('',#295,#294,#171,.T.);
#364=EDGE_CURVE('',#263,#295,#172,.T.);
#365=EDGE_CURVE('',#296,#295,#173,.T.);
#366=EDGE_CURVE('',#261,#296,#174,.T.);
#367=EDGE_CURVE('',#293,#296,#175,.T.);
#368=EDGE_CURVE('',#272,#250,#176,.T.);
#369=ORIENTED_EDGE('',*,*,#297,.T.);
#370=ORIENTED_EDGE('',*,*,#298,.T.);
#371=ORIENTED_EDGE('',*,*,#299,.T.);
#372=ORIENTED_EDGE('',*,*,#300,.T.);
#373=ORIENTED_EDGE('',*,*,#300,.F.);
#374=ORIENTED_EDGE('',*,*,#301,.F.);
#375=ORIENTED_EDGE('',*,*,#302,.F.);
#376=ORIENTED_EDGE('',*,*,#303,.F.);
#377=ORIENTED_EDGE('',*,*,#299,.F.);
#378=ORIENTED_EDGE('',*,*,#304,.T.);
#379=ORIENTED_EDGE('',*,*,#305,.F.);
#380=ORIENTED_EDGE('',*,*,#306,.T.);
#381=ORIENTED_EDGE('',*,*,#307,.F.);
#382=ORIENTED_EDGE('',*,*,#308,.T.);
#383=ORIENTED_EDGE('',*,*,#309,.F.);
#384=ORIENTED_EDGE('',*,*,#301,.T.);
#385=ORIENTED_EDGE('',*,*,#310,.F.);
#386=ORIENTED_EDGE('',*,*,#311,.F.);
#387=ORIENTED_EDGE('',*,*,#312,.F.);
#388=ORIENTED_EDGE('',*,*,#313,.F.);
#389=ORIENTED_EDGE('',*,*,#314,.T.);
#390=ORIENTED_EDGE('',*,*,#315,.T.);
#391=ORIENTED_EDGE('',*,*,#316,.T.);
#392=ORIENTED_EDGE('',*,*,#317,.T.);
#393=ORIENTED_EDGE('',*,*,#318,.T.);
#394=ORIENTED_EDGE('',*,*,#302,.T.);
#395=ORIENTED_EDGE('',*,*,#309,.T.);
#396=ORIENTED_EDGE('',*,*,#319,.T.);
#397=ORIENTED_EDGE('',*,*,#319,.F.);
#398=ORIENTED_EDGE('',*,*,#308,.F.);
#399=ORIENTED_EDGE('',*,*,#320,.F.);
#400=ORIENTED_EDGE('',*,*,#321,.F.);
#401=ORIENTED_EDGE('',*,*,#322,.T.);
#402=ORIENTED_EDGE('',*,*,#320,.T.);
#403=ORIENTED_EDGE('',*,*,#307,.T.);
#404=ORIENTED_EDGE('',*,*,#323,.T.);
#405=ORIENTED_EDGE('',*,*,#323,.F.);
#406=ORIENTED_EDGE('',*,*,#306,.F.);
#407=ORIENTED_EDGE('',*,*,#324,.F.);
#408=ORIENTED_EDGE('',*,*,#325,.F.);
#409=ORIENTED_EDGE('',*,*,#326,.T.);
#410=ORIENTED_EDGE('',*,*,#324,.T.);
#411=ORIENTED_EDGE('',*,*,#305,.T.);
#412=ORIENTED_EDGE('',*,*,#327,.T.);
#413=ORIENTED_EDGE('',*,*,#328,.F.);
#414=ORIENTED_EDGE('',*,*,#329,.T.);
#415=ORIENTED_EDGE('',*,*,#330,.F.);
#416=ORIENTED_EDGE('',*,*,#329,.F.);
#417=ORIENTED_EDGE('',*,*,#331,.F.);
#418=ORIENTED_EDGE('',*,*,#332,.T.);
#419=ORIENTED_EDGE('',*,*,#333,.F.);
#420=ORIENTED_EDGE('',*,*,#332,.F.);
#421=ORIENTED_EDGE('',*,*,#334,.F.);
#422=ORIENTED_EDGE('',*,*,#335,.T.);
#423=ORIENTED_EDGE('',*,*,#336,.F.);
#424=ORIENTED_EDGE('',*,*,#335,.F.);
#425=ORIENTED_EDGE('',*,*,#337,.F.);
#426=ORIENTED_EDGE('',*,*,#338,.T.);
#427=ORIENTED_EDGE('',*,*,#339,.F.);
#428=ORIENTED_EDGE('',*,*,#338,.F.);
#429=ORIENTED_EDGE('',*,*,#340,.F.);
#430=ORIENTED_EDGE('',*,*,#341,.T.);
#431=ORIENTED_EDGE('',*,*,#342,.T.);
#432=ORIENTED_EDGE('',*,*,#341,.F.);
#433=ORIENTED_EDGE('',*,*,#342,.F.);
#434=ORIENTED_EDGE('',*,*,#337,.T.);
#435=ORIENTED_EDGE('',*,*,#343,.F.);
#436=ORIENTED_EDGE('',*,*,#344,.T.);
#437=ORIENTED_EDGE('',*,*,#345,.T.);
#438=ORIENTED_EDGE('',*,*,#344,.F.);
#439=ORIENTED_EDGE('',*,*,#345,.F.);
#440=ORIENTED_EDGE('',*,*,#334,.T.);
#441=ORIENTED_EDGE('',*,*,#346,.F.);
#442=ORIENTED_EDGE('',*,*,#347,.T.);
#443=ORIENTED_EDGE('',*,*,#348,.T.);
#444=ORIENTED_EDGE('',*,*,#347,.F.);
#445=ORIENTED_EDGE('',*,*,#348,.F.);
#446=ORIENTED_EDGE('',*,*,#331,.T.);
#447=ORIENTED_EDGE('',*,*,#349,.F.);
#448=ORIENTED_EDGE('',*,*,#350,.T.);
#449=ORIENTED_EDGE('',*,*,#351,.T.);
#450=ORIENTED_EDGE('',*,*,#350,.F.);
#451=ORIENTED_EDGE('',*,*,#351,.F.);
#452=ORIENTED_EDGE('',*,*,#328,.T.);
#453=ORIENTED_EDGE('',*,*,#317,.F.);
#454=ORIENTED_EDGE('',*,*,#352,.T.);
#455=ORIENTED_EDGE('',*,*,#353,.T.);
#456=ORIENTED_EDGE('',*,*,#352,.F.);
#457=ORIENTED_EDGE('',*,*,#353,.F.);
#458=ORIENTED_EDGE('',*,*,#330,.T.);
#459=ORIENTED_EDGE('',*,*,#316,.F.);
#460=ORIENTED_EDGE('',*,*,#354,.T.);
#461=ORIENTED_EDGE('',*,*,#355,.T.);
#462=ORIENTED_EDGE('',*,*,#354,.F.);
#463=ORIENTED_EDGE('',*,*,#355,.F.);
#464=ORIENTED_EDGE('',*,*,#333,.T.);
#465=ORIENTED_EDGE('',*,*,#315,.F.);
#466=ORIENTED_EDGE('',*,*,#356,.T.);
#467=ORIENTED_EDGE('',*,*,#357,.T.);
#468=ORIENTED_EDGE('',*,*,#356,.F.);
#469=ORIENTED_EDGE('',*,*,#357,.F.);
#470=ORIENTED_EDGE('',*,*,#336,.T.);
#471=ORIENTED_EDGE('',*,*,#314,.F.);
#472=ORIENTED_EDGE('',*,*,#358,.T.);
#473=ORIENTED_EDGE('',*,*,#359,.T.);
#474=ORIENTED_EDGE('',*,*,#358,.F.);
#475=ORIENTED_EDGE('',*,*,#359,.F.);
#476=ORIENTED_EDGE('',*,*,#339,.T.);
#477=ORIENTED_EDGE('',*,*,#311,.T.);
#478=ORIENTED_EDGE('',*,*,#360,.T.);
#479=ORIENTED_EDGE('',*,*,#361,.F.);
#480=ORIENTED_EDGE('',*,*,#362,.F.);
#481=ORIENTED_EDGE('',*,*,#312,.T.);
#482=ORIENTED_EDGE('',*,*,#362,.T.);
#483=ORIENTED_EDGE('',*,*,#363,.F.);
#484=ORIENTED_EDGE('',*,*,#364,.F.);
#485=ORIENTED_EDGE('',*,*,#313,.T.);
#486=ORIENTED_EDGE('',*,*,#364,.T.);
#487=ORIENTED_EDGE('',*,*,#365,.F.);
#488=ORIENTED_EDGE('',*,*,#366,.F.);
#489=ORIENTED_EDGE('',*,*,#310,.T.);
#490=ORIENTED_EDGE('',*,*,#366,.T.);
#491=ORIENTED_EDGE('',*,*,#367,.F.);
#492=ORIENTED_EDGE('',*,*,#360,.F.);
#493=ORIENTED_EDGE('',*,*,#298,.F.);
#494=ORIENTED_EDGE('',*,*,#368,.F.);
#495=ORIENTED_EDGE('',*,*,#327,.F.);
#496=ORIENTED_EDGE('',*,*,#304,.F.);
#497=ORIENTED_EDGE('',*,*,#297,.F.);
#498=ORIENTED_EDGE('',*,*,#303,.T.);
#499=ORIENTED_EDGE('',*,*,#318,.F.);
#500=ORIENTED_EDGE('',*,*,#321,.T.);
#501=ORIENTED_EDGE('',*,*,#322,.F.);
#502=ORIENTED_EDGE('',*,*,#325,.T.);
#503=ORIENTED_EDGE('',*,*,#326,.F.);
#504=ORIENTED_EDGE('',*,*,#368,.T.);
#505=ORIENTED_EDGE('',*,*,#367,.T.);
#506=ORIENTED_EDGE('',*,*,#365,.T.);
#507=ORIENTED_EDGE('',*,*,#363,.T.);
#508=ORIENTED_EDGE('',*,*,#361,.T.);
#509=ORIENTED_EDGE('',*,*,#349,.T.);
#510=ORIENTED_EDGE('',*,*,#346,.T.);
#511=ORIENTED_EDGE('',*,*,#343,.T.);
#512=ORIENTED_EDGE('',*,*,#340,.T.);
#513=CYLINDRICAL_SURFACE('',#577,6.);
#514=CYLINDRICAL_SURFACE('',#589,6.);
#515=CYLINDRICAL_SURFACE('',#592,6.);
#516=CYLINDRICAL_SURFACE('',#595,6.);
#517=CYLINDRICAL_SURFACE('',#597,1.7);
#518=CYLINDRICAL_SURFACE('',#600,1.7);
#519=CYLINDRICAL_SURFACE('',#603,1.7);
#520=CYLINDRICAL_SURFACE('',#606,1.7);
#521=CYLINDRICAL_SURFACE('',#609,2.75);
#522=CYLINDRICAL_SURFACE('',#613,2.75);
#523=CYLINDRICAL_SURFACE('',#617,2.75);
#524=CYLINDRICAL_SURFACE('',#621,2.75);
#525=CYLINDRICAL_SURFACE('',#625,2.75);
#526=CYLINDRICAL_SURFACE('',#628,2.75);
#527=CYLINDRICAL_SURFACE('',#631,2.75);
#528=CYLINDRICAL_SURFACE('',#634,2.75);
#529=ADVANCED_FACE('',(#51),#513,.T.);
#530=ADVANCED_FACE('',(#52),#33,.T.);
#531=ADVANCED_FACE('',(#53,#15,#16,#17,#18,#19),#34,.F.);
#532=ADVANCED_FACE('',(#54),#514,.T.);
#533=ADVANCED_FACE('',(#55),#35,.T.);
#534=ADVANCED_FACE('',(#56),#515,.T.);
#535=ADVANCED_FACE('',(#57),#36,.T.);
#536=ADVANCED_FACE('',(#58),#516,.T.);
#537=ADVANCED_FACE('',(#59),#517,.F.);
#538=ADVANCED_FACE('',(#60),#518,.F.);
#539=ADVANCED_FACE('',(#61),#519,.F.);
#540=ADVANCED_FACE('',(#62),#520,.F.);
#541=ADVANCED_FACE('',(#63),#521,.F.);
#542=ADVANCED_FACE('',(#64,#20),#37,.T.);
#543=ADVANCED_FACE('',(#65),#522,.F.);
#544=ADVANCED_FACE('',(#66,#21),#38,.T.);
#545=ADVANCED_FACE('',(#67),#523,.F.);
#546=ADVANCED_FACE('',(#68,#22),#39,.T.);
#547=ADVANCED_FACE('',(#69),#524,.F.);
#548=ADVANCED_FACE('',(#70,#23),#40,.T.);
#549=ADVANCED_FACE('',(#71),#525,.F.);
#550=ADVANCED_FACE('',(#72,#24),#41,.F.);
#551=ADVANCED_FACE('',(#73),#526,.F.);
#552=ADVANCED_FACE('',(#74,#25),#42,.F.);
#553=ADVANCED_FACE('',(#75),#527,.F.);
#554=ADVANCED_FACE('',(#76,#26),#43,.F.);
#555=ADVANCED_FACE('',(#77),#528,.F.);
#556=ADVANCED_FACE('',(#78,#27),#44,.F.);
#557=ADVANCED_FACE('',(#79),#45,.T.);
#558=ADVANCED_FACE('',(#80),#46,.T.);
#559=ADVANCED_FACE('',(#81),#47,.T.);
#560=ADVANCED_FACE('',(#82),#48,.T.);
#561=ADVANCED_FACE('',(#83),#49,.T.);
#562=ADVANCED_FACE('',(#84,#28,#29,#30,#31,#32),#50,.T.);
#563=CLOSED_SHELL('',(#529,#530,#531,#532,#533,#534,#535,#536,#537,#538,
#539,#540,#541,#542,#543,#544,#545,#546,#547,#548,#549,#550,#551,#552,#553,
#554,#555,#556,#557,#558,#559,#560,#561,#562));
#564=DERIVED_UNIT_ELEMENT(#566,1.);
#565=DERIVED_UNIT_ELEMENT(#977,-3.);
#566=(
MASS_UNIT()
NAMED_UNIT(*)
SI_UNIT(.KILO.,.GRAM.)
);
#567=DERIVED_UNIT((#564,#565));
#568=MEASURE_REPRESENTATION_ITEM('density measure',
POSITIVE_RATIO_MEASURE(7850.),#567);
#569=PROPERTY_DEFINITION_REPRESENTATION(#574,#571);
#570=PROPERTY_DEFINITION_REPRESENTATION(#575,#572);
#571=REPRESENTATION('material name',(#573),#974);
#572=REPRESENTATION('density',(#568),#974);
#573=DESCRIPTIVE_REPRESENTATION_ITEM('Steel','Steel');
#574=PROPERTY_DEFINITION('material property','material name',#984);
#575=PROPERTY_DEFINITION('material property','density of part',#984);
#576=AXIS2_PLACEMENT_3D('',#817,#643,#644);
#577=AXIS2_PLACEMENT_3D('',#818,#645,#646);
#578=AXIS2_PLACEMENT_3D('',#821,#647,#648);
#579=AXIS2_PLACEMENT_3D('',#825,#650,#651);
#580=AXIS2_PLACEMENT_3D('',#827,#653,#654);
#581=AXIS2_PLACEMENT_3D('',#833,#658,#659);
#582=AXIS2_PLACEMENT_3D('',#837,#661,#662);
#583=AXIS2_PLACEMENT_3D('',#841,#664,#665);
#584=AXIS2_PLACEMENT_3D('',#844,#667,#668);
#585=AXIS2_PLACEMENT_3D('',#854,#673,#674);
#586=AXIS2_PLACEMENT_3D('',#856,#675,#676);
#587=AXIS2_PLACEMENT_3D('',#858,#677,#678);
#588=AXIS2_PLACEMENT_3D('',#860,#679,#680);
#589=AXIS2_PLACEMENT_3D('',#861,#681,#682);
#590=AXIS2_PLACEMENT_3D('',#863,#683,#684);
#591=AXIS2_PLACEMENT_3D('',#865,#686,#687);
#592=AXIS2_PLACEMENT_3D('',#869,#690,#691);
#593=AXIS2_PLACEMENT_3D('',#871,#692,#693);
#594=AXIS2_PLACEMENT_3D('',#873,#695,#696);
#595=AXIS2_PLACEMENT_3D('',#877,#699,#700);
#596=AXIS2_PLACEMENT_3D('',#879,#701,#702);
#597=AXIS2_PLACEMENT_3D('',#881,#704,#705);
#598=AXIS2_PLACEMENT_3D('',#883,#706,#707);
#599=AXIS2_PLACEMENT_3D('',#886,#709,#710);
#600=AXIS2_PLACEMENT_3D('',#887,#711,#712);
#601=AXIS2_PLACEMENT_3D('',#889,#713,#714);
#602=AXIS2_PLACEMENT_3D('',#892,#716,#717);
#603=AXIS2_PLACEMENT_3D('',#893,#718,#719);
#604=AXIS2_PLACEMENT_3D('',#895,#720,#721);
#605=AXIS2_PLACEMENT_3D('',#898,#723,#724);
#606=AXIS2_PLACEMENT_3D('',#899,#725,#726);
#607=AXIS2_PLACEMENT_3D('',#901,#727,#728);
#608=AXIS2_PLACEMENT_3D('',#904,#730,#731);
#609=AXIS2_PLACEMENT_3D('',#905,#732,#733);
#610=AXIS2_PLACEMENT_3D('',#907,#734,#735);
#611=AXIS2_PLACEMENT_3D('',#910,#737,#738);
#612=AXIS2_PLACEMENT_3D('',#911,#739,#740);
#613=AXIS2_PLACEMENT_3D('',#912,#741,#742);
#614=AXIS2_PLACEMENT_3D('',#914,#743,#744);
#615=AXIS2_PLACEMENT_3D('',#917,#746,#747);
#616=AXIS2_PLACEMENT_3D('',#918,#748,#749);
#617=AXIS2_PLACEMENT_3D('',#919,#750,#751);
#618=AXIS2_PLACEMENT_3D('',#921,#752,#753);
#619=AXIS2_PLACEMENT_3D('',#924,#755,#756);
#620=AXIS2_PLACEMENT_3D('',#925,#757,#758);
#621=AXIS2_PLACEMENT_3D('',#926,#759,#760);
#622=AXIS2_PLACEMENT_3D('',#928,#761,#762);
#623=AXIS2_PLACEMENT_3D('',#931,#764,#765);
#624=AXIS2_PLACEMENT_3D('',#932,#766,#767);
#625=AXIS2_PLACEMENT_3D('',#933,#768,#769);
#626=AXIS2_PLACEMENT_3D('',#936,#771,#772);
#627=AXIS2_PLACEMENT_3D('',#937,#773,#774);
#628=AXIS2_PLACEMENT_3D('',#938,#775,#776);
#629=AXIS2_PLACEMENT_3D('',#941,#778,#779);
#630=AXIS2_PLACEMENT_3D('',#942,#780,#781);
#631=AXIS2_PLACEMENT_3D('',#943,#782,#783);
#632=AXIS2_PLACEMENT_3D('',#946,#785,#786);
#633=AXIS2_PLACEMENT_3D('',#947,#787,#788);
#634=AXIS2_PLACEMENT_3D('',#948,#789,#790);
#635=AXIS2_PLACEMENT_3D('',#951,#792,#793);
#636=AXIS2_PLACEMENT_3D('',#952,#794,#795);
#637=AXIS2_PLACEMENT_3D('',#953,#796,#797);
#638=AXIS2_PLACEMENT_3D('',#959,#801,#802);
#639=AXIS2_PLACEMENT_3D('',#963,#805,#806);
#640=AXIS2_PLACEMENT_3D('',#967,#809,#810);
#641=AXIS2_PLACEMENT_3D('',#969,#812,#813);
#642=AXIS2_PLACEMENT_3D('',#971,#815,#816);
#643=DIRECTION('axis',(0.,0.,1.));
#644=DIRECTION('refdir',(1.,0.,0.));
#645=DIRECTION('center_axis',(0.,1.,0.));
#646=DIRECTION('ref_axis',(-0.707106781186548,0.,-0.707106781186547));
#647=DIRECTION('center_axis',(0.,-1.,0.));
#648=DIRECTION('ref_axis',(-0.707106781186548,0.,-0.707106781186547));
#649=DIRECTION('',(0.,-1.,0.));
#650=DIRECTION('center_axis',(0.,1.,0.));
#651=DIRECTION('ref_axis',(-0.707106781186548,0.,-0.707106781186547));
#652=DIRECTION('',(0.,1.,0.));
#653=DIRECTION('center_axis',(-1.,0.,0.));
#654=DIRECTION('ref_axis',(0.,0.,1.));
#655=DIRECTION('',(0.,0.,-1.));
#656=DIRECTION('',(0.,-1.,0.));
#657=DIRECTION('',(0.,0.,1.));
#658=DIRECTION('center_axis',(0.,1.,0.));
#659=DIRECTION('ref_axis',(1.,0.,0.));
#660=DIRECTION('',(1.,0.,0.));
#661=DIRECTION('center_axis',(0.,1.,0.));
#662=DIRECTION('ref_axis',(0.707106781186547,0.,-0.707106781186547));
#663=DIRECTION('',(0.,0.,1.));
#664=DIRECTION('center_axis',(0.,1.,0.));
#665=DIRECTION('ref_axis',(0.707106781186547,0.,0.707106781186548));
#666=DIRECTION('',(-1.,0.,0.));
#667=DIRECTION('center_axis',(0.,1.,0.));
#668=DIRECTION('ref_axis',(-0.707106781186548,0.,0.707106781186548));
#669=DIRECTION('',(0.,0.,-1.));
#670=DIRECTION('',(-1.,0.,0.));
#671=DIRECTION('',(0.,0.,1.));
#672=DIRECTION('',(1.,0.,0.));
#673=DIRECTION('center_axis',(0.,1.,0.));
#674=DIRECTION('ref_axis',(1.,0.,0.));
#675=DIRECTION('center_axis',(0.,1.,0.));
#676=DIRECTION('ref_axis',(1.,0.,0.));
#677=DIRECTION('center_axis',(0.,1.,0.));
#678=DIRECTION('ref_axis',(1.,0.,0.));
#679=DIRECTION('center_axis',(0.,1.,0.));
#680=DIRECTION('ref_axis',(1.,0.,0.));
#681=DIRECTION('center_axis',(0.,1.,0.));
#682=DIRECTION('ref_axis',(-0.707106781186548,0.,0.707106781186548));
#683=DIRECTION('center_axis',(0.,-1.,0.));
#684=DIRECTION('ref_axis',(-0.707106781186548,0.,0.707106781186548));
#685=DIRECTION('',(0.,1.,0.));
#686=DIRECTION('center_axis',(0.,0.,1.));
#687=DIRECTION('ref_axis',(1.,0.,0.));
#688=DIRECTION('',(0.,-1.,0.));
#689=DIRECTION('',(1.,0.,0.));
#690=DIRECTION('center_axis',(0.,1.,0.));
#691=DIRECTION('ref_axis',(0.707106781186547,0.,0.707106781186548));
#692=DIRECTION('center_axis',(0.,-1.,0.));
#693=DIRECTION('ref_axis',(0.707106781186547,0.,0.707106781186548));
#694=DIRECTION('',(0.,1.,0.));
#695=DIRECTION('center_axis',(1.,0.,0.));
#696=DIRECTION('ref_axis',(0.,0.,-1.));
#697=DIRECTION('',(0.,-1.,0.));
#698=DIRECTION('',(0.,0.,-1.));
#699=DIRECTION('center_axis',(0.,1.,0.));
#700=DIRECTION('ref_axis',(0.707106781186547,0.,-0.707106781186547));
#701=DIRECTION('center_axis',(0.,-1.,0.));
#702=DIRECTION('ref_axis',(0.707106781186547,0.,-0.707106781186547));
#703=DIRECTION('',(0.,1.,0.));
#704=DIRECTION('center_axis',(0.,-1.,0.));
#705=DIRECTION('ref_axis',(1.,0.,0.));
#706=DIRECTION('center_axis',(0.,-1.,0.));
#707=DIRECTION('ref_axis',(1.,0.,0.));
#708=DIRECTION('',(0.,-1.,0.));
#709=DIRECTION('center_axis',(0.,1.,0.));
#710=DIRECTION('ref_axis',(1.,0.,0.));
#711=DIRECTION('center_axis',(0.,-1.,0.));
#712=DIRECTION('ref_axis',(1.,0.,0.));
#713=DIRECTION('center_axis',(0.,-1.,0.));
#714=DIRECTION('ref_axis',(1.,0.,0.));
#715=DIRECTION('',(0.,-1.,0.));
#716=DIRECTION('center_axis',(0.,1.,0.));
#717=DIRECTION('ref_axis',(1.,0.,0.));
#718=DIRECTION('center_axis',(0.,-1.,0.));
#719=DIRECTION('ref_axis',(1.,0.,0.));
#720=DIRECTION('center_axis',(0.,-1.,0.));
#721=DIRECTION('ref_axis',(1.,0.,0.));
#722=DIRECTION('',(0.,-1.,0.));
#723=DIRECTION('center_axis',(0.,1.,0.));
#724=DIRECTION('ref_axis',(1.,0.,0.));
#725=DIRECTION('center_axis',(0.,-1.,0.));
#726=DIRECTION('ref_axis',(1.,0.,0.));
#727=DIRECTION('center_axis',(0.,-1.,0.));
#728=DIRECTION('ref_axis',(1.,0.,0.));
#729=DIRECTION('',(0.,-1.,0.));
#730=DIRECTION('center_axis',(0.,1.,0.));
#731=DIRECTION('ref_axis',(1.,0.,0.));
#732=DIRECTION('center_axis',(0.,-1.,0.));
#733=DIRECTION('ref_axis',(1.,0.,0.));
#734=DIRECTION('center_axis',(0.,-1.,0.));
#735=DIRECTION('ref_axis',(1.,0.,0.));
#736=DIRECTION('',(0.,-1.,0.));
#737=DIRECTION('center_axis',(0.,-1.,0.));
#738=DIRECTION('ref_axis',(1.,0.,0.));
#739=DIRECTION('center_axis',(0.,1.,0.));
#740=DIRECTION('ref_axis',(1.,0.,0.));
#741=DIRECTION('center_axis',(0.,-1.,0.));
#742=DIRECTION('ref_axis',(1.,0.,0.));
#743=DIRECTION('center_axis',(0.,-1.,0.));
#744=DIRECTION('ref_axis',(1.,0.,0.));
#745=DIRECTION('',(0.,-1.,0.));
#746=DIRECTION('center_axis',(0.,-1.,0.));
#747=DIRECTION('ref_axis',(1.,0.,0.));
#748=DIRECTION('center_axis',(0.,1.,0.));
#749=DIRECTION('ref_axis',(1.,0.,0.));
#750=DIRECTION('center_axis',(0.,-1.,0.));
#751=DIRECTION('ref_axis',(1.,0.,0.));
#752=DIRECTION('center_axis',(0.,-1.,0.));
#753=DIRECTION('ref_axis',(1.,0.,0.));
#754=DIRECTION('',(0.,-1.,0.));
#755=DIRECTION('center_axis',(0.,-1.,0.));
#756=DIRECTION('ref_axis',(1.,0.,0.));
#757=DIRECTION('center_axis',(0.,1.,0.));
#758=DIRECTION('ref_axis',(1.,0.,0.));
#759=DIRECTION('center_axis',(0.,-1.,0.));
#760=DIRECTION('ref_axis',(1.,0.,0.));
#761=DIRECTION('center_axis',(0.,-1.,0.));
#762=DIRECTION('ref_axis',(1.,0.,0.));
#763=DIRECTION('',(0.,-1.,0.));
#764=DIRECTION('center_axis',(0.,-1.,0.));
#765=DIRECTION('ref_axis',(1.,0.,0.));
#766=DIRECTION('center_axis',(0.,1.,0.));
#767=DIRECTION('ref_axis',(1.,0.,0.));
#768=DIRECTION('center_axis',(0.,1.,0.));
#769=DIRECTION('ref_axis',(1.,0.,0.));
#770=DIRECTION('',(0.,1.,0.));
#771=DIRECTION('center_axis',(0.,1.,0.));
#772=DIRECTION('ref_axis',(1.,0.,0.));
#773=DIRECTION('center_axis',(0.,1.,0.));
#774=DIRECTION('ref_axis',(1.,0.,0.));
#775=DIRECTION('center_axis',(0.,1.,0.));
#776=DIRECTION('ref_axis',(1.,0.,0.));
#777=DIRECTION('',(0.,1.,0.));
#778=DIRECTION('center_axis',(0.,1.,0.));
#779=DIRECTION('ref_axis',(1.,0.,0.));
#780=DIRECTION('center_axis',(0.,1.,0.));
#781=DIRECTION('ref_axis',(1.,0.,0.));
#782=DIRECTION('center_axis',(0.,1.,0.));
#783=DIRECTION('ref_axis',(1.,0.,0.));
#784=DIRECTION('',(0.,1.,0.));
#785=DIRECTION('center_axis',(0.,1.,0.));
#786=DIRECTION('ref_axis',(1.,0.,0.));
#787=DIRECTION('center_axis',(0.,1.,0.));
#788=DIRECTION('ref_axis',(1.,0.,0.));
#789=DIRECTION('center_axis',(0.,1.,0.));
#790=DIRECTION('ref_axis',(1.,0.,0.));
#791=DIRECTION('',(0.,1.,0.));
#792=DIRECTION('center_axis',(0.,1.,0.));
#793=DIRECTION('ref_axis',(1.,0.,0.));
#794=DIRECTION('center_axis',(0.,1.,0.));
#795=DIRECTION('ref_axis',(1.,0.,0.));
#796=DIRECTION('center_axis',(0.,0.,-1.));
#797=DIRECTION('ref_axis',(-1.,0.,0.));
#798=DIRECTION('',(0.,1.,0.));
#799=DIRECTION('',(-1.,0.,0.));
#800=DIRECTION('',(0.,1.,0.));
#801=DIRECTION('center_axis',(-1.,0.,0.));
#802=DIRECTION('ref_axis',(0.,0.,1.));
#803=DIRECTION('',(0.,0.,1.));
#804=DIRECTION('',(0.,1.,0.));
#805=DIRECTION('center_axis',(0.,0.,1.));
#806=DIRECTION('ref_axis',(1.,0.,0.));
#807=DIRECTION('',(1.,0.,0.));
#808=DIRECTION('',(0.,1.,0.));
#809=DIRECTION('center_axis',(1.,0.,0.));
#810=DIRECTION('ref_axis',(0.,0.,-1.));
#811=DIRECTION('',(0.,0.,-1.));
#812=DIRECTION('center_axis',(0.,0.,-1.));
#813=DIRECTION('ref_axis',(-1.,0.,0.));
#814=DIRECTION('',(-1.,0.,0.));
#815=DIRECTION('center_axis',(0.,1.,0.));
#816=DIRECTION('ref_axis',(0.,0.,1.));
#817=CARTESIAN_POINT('',(0.,0.,0.));
#818=CARTESIAN_POINT('Origin',(-4.,0.,-24.));
#819=CARTESIAN_POINT('',(-10.,12.,-24.));
#820=CARTESIAN_POINT('',(-4.,12.,-30.));
#821=CARTESIAN_POINT('Origin',(-4.,12.,-24.));
#822=CARTESIAN_POINT('',(-4.,0.,-30.));
#823=CARTESIAN_POINT('',(-4.,0.,-30.));
#824=CARTESIAN_POINT('',(-10.,0.,-24.));
#825=CARTESIAN_POINT('Origin',(-4.,0.,-24.));
#826=CARTESIAN_POINT('',(-10.,0.,-24.));
#827=CARTESIAN_POINT('Origin',(-10.,0.,-30.));
#828=CARTESIAN_POINT('',(-10.,0.,-1.));
#829=CARTESIAN_POINT('',(-10.,0.,5.));
#830=CARTESIAN_POINT('',(-10.,12.,-1.));
#831=CARTESIAN_POINT('',(-10.,0.,-1.));
#832=CARTESIAN_POINT('',(-10.,12.,5.));
#833=CARTESIAN_POINT('Origin',(17.5,0.,-12.5));
#834=CARTESIAN_POINT('',(39.,0.,-30.));
#835=CARTESIAN_POINT('',(-10.,0.,-30.));
#836=CARTESIAN_POINT('',(45.,0.,-24.));
#837=CARTESIAN_POINT('Origin',(39.,0.,-24.));
#838=CARTESIAN_POINT('',(45.,0.,-1.));
#839=CARTESIAN_POINT('',(45.,0.,-30.));
#840=CARTESIAN_POINT('',(39.,0.,5.));
#841=CARTESIAN_POINT('Origin',(39.,0.,-1.));
#842=CARTESIAN_POINT('',(-4.,0.,5.));
#843=CARTESIAN_POINT('',(45.,0.,5.));
#844=CARTESIAN_POINT('Origin',(-4.,0.,-1.));
#845=CARTESIAN_POINT('',(0.,0.,0.));
#846=CARTESIAN_POINT('',(0.,0.,-25.));
#847=CARTESIAN_POINT('',(0.,0.,-25.));
#848=CARTESIAN_POINT('',(35.,0.,0.));
#849=CARTESIAN_POINT('',(0.,0.,0.));
#850=CARTESIAN_POINT('',(35.,0.,-25.));
#851=CARTESIAN_POINT('',(35.,0.,0.));
#852=CARTESIAN_POINT('',(35.,0.,-25.));
#853=CARTESIAN_POINT('',(-7.75,0.,3.36777869765522E-16));
#854=CARTESIAN_POINT('Origin',(-5.,0.,0.));
#855=CARTESIAN_POINT('',(37.25,0.,3.36777869765523E-16));
#856=CARTESIAN_POINT('Origin',(40.,0.,0.));
#857=CARTESIAN_POINT('',(-7.75,0.,-25.));
#858=CARTESIAN_POINT('Origin',(-5.,0.,-25.));
#859=CARTESIAN_POINT('',(37.25,0.,-25.));
#860=CARTESIAN_POINT('Origin',(40.,0.,-25.));
#861=CARTESIAN_POINT('Origin',(-4.,0.,-1.));
#862=CARTESIAN_POINT('',(-4.,12.,5.));
#863=CARTESIAN_POINT('Origin',(-4.,12.,-1.));
#864=CARTESIAN_POINT('',(-4.,0.,5.));
#865=CARTESIAN_POINT('Origin',(-10.,0.,5.));
#866=CARTESIAN_POINT('',(39.,12.,5.));
#867=CARTESIAN_POINT('',(39.,0.,5.));
#868=CARTESIAN_POINT('',(45.,12.,5.));
#869=CARTESIAN_POINT('Origin',(39.,0.,-1.));
#870=CARTESIAN_POINT('',(45.,12.,-1.));
#871=CARTESIAN_POINT('Origin',(39.,12.,-1.));
#872=CARTESIAN_POINT('',(45.,0.,-1.));
#873=CARTESIAN_POINT('Origin',(45.,0.,5.));
#874=CARTESIAN_POINT('',(45.,12.,-24.));
#875=CARTESIAN_POINT('',(45.,0.,-24.));
#876=CARTESIAN_POINT('',(45.,12.,-30.));
#877=CARTESIAN_POINT('Origin',(39.,0.,-24.));
#878=CARTESIAN_POINT('',(39.,12.,-30.));
#879=CARTESIAN_POINT('Origin',(39.,12.,-24.));
#880=CARTESIAN_POINT('',(39.,0.,-30.));
#881=CARTESIAN_POINT('Origin',(40.0000005960464,12.,-25.000000372529));
#882=CARTESIAN_POINT('',(38.3000005960464,7.5,-25.000000372529));
#883=CARTESIAN_POINT('Origin',(40.0000005960464,7.5,-25.000000372529));
#884=CARTESIAN_POINT('',(38.3000005960464,4.5,-25.000000372529));
#885=CARTESIAN_POINT('',(38.3000005960464,12.,-25.000000372529));
#886=CARTESIAN_POINT('Origin',(40.0000005960464,4.5,-25.000000372529));
#887=CARTESIAN_POINT('Origin',(-5.00000007450581,12.,-25.000000372529));
#888=CARTESIAN_POINT('',(-6.70000007450581,7.5,-25.000000372529));
#889=CARTESIAN_POINT('Origin',(-5.00000007450581,7.5,-25.000000372529));
#890=CARTESIAN_POINT('',(-6.70000007450581,4.5,-25.000000372529));
#891=CARTESIAN_POINT('',(-6.70000007450581,12.,-25.000000372529));
#892=CARTESIAN_POINT('Origin',(-5.00000007450581,4.5,-25.000000372529));
#893=CARTESIAN_POINT('Origin',(40.0000005960464,12.,0.));
#894=CARTESIAN_POINT('',(38.3000005960464,7.5,-2.0818995585505E-16));
#895=CARTESIAN_POINT('Origin',(40.0000005960464,7.5,0.));
#896=CARTESIAN_POINT('',(38.3000005960464,4.5,2.0818995585505E-16));
#897=CARTESIAN_POINT('',(38.3000005960464,12.,-2.0818995585505E-16));
#898=CARTESIAN_POINT('Origin',(40.0000005960464,4.5,0.));
#899=CARTESIAN_POINT('Origin',(-5.00000007450581,12.,0.));
#900=CARTESIAN_POINT('',(-6.70000007450581,7.5,-2.0818995585505E-16));
#901=CARTESIAN_POINT('Origin',(-5.00000007450581,7.5,0.));
#902=CARTESIAN_POINT('',(-6.70000007450581,4.5,2.0818995585505E-16));
#903=CARTESIAN_POINT('',(-6.70000007450581,12.,-2.0818995585505E-16));
#904=CARTESIAN_POINT('Origin',(-5.00000007450581,4.5,0.));
#905=CARTESIAN_POINT('Origin',(-5.00000007450581,12.,0.));
#906=CARTESIAN_POINT('',(-7.75000007450581,12.,3.36777869765522E-16));
#907=CARTESIAN_POINT('Origin',(-5.00000007450581,12.,0.));
#908=CARTESIAN_POINT('',(-7.75000007450581,7.5,3.36777869765522E-16));
#909=CARTESIAN_POINT('',(-7.75000007450581,12.,-3.36777869765522E-16));
#910=CARTESIAN_POINT('Origin',(-5.00000007450581,7.5,0.));
#911=CARTESIAN_POINT('Origin',(-5.00000007450581,7.5,0.));
#912=CARTESIAN_POINT('Origin',(40.0000005960464,12.,0.));
#913=CARTESIAN_POINT('',(37.2500005960464,12.,3.36777869765523E-16));
#914=CARTESIAN_POINT('Origin',(40.0000005960464,12.,0.));
#915=CARTESIAN_POINT('',(37.2500005960464,7.5,3.36777869765523E-16));
#916=CARTESIAN_POINT('',(37.2500005960464,12.,-3.36777869765523E-16));
#917=CARTESIAN_POINT('Origin',(40.0000005960464,7.5,0.));
#918=CARTESIAN_POINT('Origin',(40.0000005960464,7.5,0.));
#919=CARTESIAN_POINT('Origin',(-5.00000007450581,12.,-25.000000372529));
#920=CARTESIAN_POINT('',(-7.75000007450581,12.,-25.000000372529));
#921=CARTESIAN_POINT('Origin',(-5.00000007450581,12.,-25.000000372529));
#922=CARTESIAN_POINT('',(-7.75000007450581,7.5,-25.000000372529));
#923=CARTESIAN_POINT('',(-7.75000007450581,12.,-25.000000372529));
#924=CARTESIAN_POINT('Origin',(-5.00000007450581,7.5,-25.000000372529));
#925=CARTESIAN_POINT('Origin',(-5.00000007450581,7.5,-25.000000372529));
#926=CARTESIAN_POINT('Origin',(40.0000005960464,12.,-25.000000372529));
#927=CARTESIAN_POINT('',(37.2500005960464,12.,-25.000000372529));
#928=CARTESIAN_POINT('Origin',(40.0000005960464,12.,-25.000000372529));
#929=CARTESIAN_POINT('',(37.2500005960464,7.5,-25.000000372529));
#930=CARTESIAN_POINT('',(37.2500005960464,12.,-25.000000372529));
#931=CARTESIAN_POINT('Origin',(40.0000005960464,7.5,-25.000000372529));
#932=CARTESIAN_POINT('Origin',(40.0000005960464,7.5,-25.000000372529));
#933=CARTESIAN_POINT('Origin',(40.,0.,-25.));
#934=CARTESIAN_POINT('',(37.25,4.5,-25.));
#935=CARTESIAN_POINT('',(37.25,0.,-25.));
#936=CARTESIAN_POINT('Origin',(40.,4.5,-25.));
#937=CARTESIAN_POINT('Origin',(40.,4.5,-25.));
#938=CARTESIAN_POINT('Origin',(-5.,0.,-25.));
#939=CARTESIAN_POINT('',(-7.75,4.5,-25.));
#940=CARTESIAN_POINT('',(-7.75,0.,-25.));
#941=CARTESIAN_POINT('Origin',(-5.,4.5,-25.));
#942=CARTESIAN_POINT('Origin',(-5.,4.5,-25.));
#943=CARTESIAN_POINT('Origin',(40.,0.,0.));
#944=CARTESIAN_POINT('',(37.25,4.5,3.36777869765523E-16));
#945=CARTESIAN_POINT('',(37.25,0.,3.36777869765523E-16));
#946=CARTESIAN_POINT('Origin',(40.,4.5,0.));
#947=CARTESIAN_POINT('Origin',(40.,4.5,0.));
#948=CARTESIAN_POINT('Origin',(-5.,0.,0.));
#949=CARTESIAN_POINT('',(-7.75,4.5,3.36777869765522E-16));
#950=CARTESIAN_POINT('',(-7.75,0.,3.36777869765522E-16));
#951=CARTESIAN_POINT('Origin',(-5.,4.5,0.));
#952=CARTESIAN_POINT('Origin',(-5.,4.5,0.));
#953=CARTESIAN_POINT('Origin',(35.,0.,0.));
#954=CARTESIAN_POINT('',(0.,12.,0.));
#955=CARTESIAN_POINT('',(0.,0.,0.));
#956=CARTESIAN_POINT('',(35.,12.,0.));
#957=CARTESIAN_POINT('',(0.,12.,0.));
#958=CARTESIAN_POINT('',(35.,0.,0.));
#959=CARTESIAN_POINT('Origin',(35.,0.,-25.));
#960=CARTESIAN_POINT('',(35.,12.,-25.));
#961=CARTESIAN_POINT('',(35.,12.,0.));
#962=CARTESIAN_POINT('',(35.,0.,-25.));
#963=CARTESIAN_POINT('Origin',(0.,0.,-25.));
#964=CARTESIAN_POINT('',(0.,12.,-25.));
#965=CARTESIAN_POINT('',(35.,12.,-25.));
#966=CARTESIAN_POINT('',(0.,0.,-25.));
#967=CARTESIAN_POINT('Origin',(0.,0.,0.));
#968=CARTESIAN_POINT('',(0.,12.,-25.));
#969=CARTESIAN_POINT('Origin',(45.,0.,-30.));
#970=CARTESIAN_POINT('',(-10.,12.,-30.));
#971=CARTESIAN_POINT('Origin',(17.5,12.,-12.5));
#972=UNCERTAINTY_MEASURE_WITH_UNIT(LENGTH_MEASURE(0.01),#976,
'DISTANCE_ACCURACY_VALUE',
'Maximum model space distance between geometric entities at asserted c
onnectivities');
#973=UNCERTAINTY_MEASURE_WITH_UNIT(LENGTH_MEASURE(0.01),#976,
'DISTANCE_ACCURACY_VALUE',
'Maximum model space distance between geometric entities at asserted c
onnectivities');
#974=(
GEOMETRIC_REPRESENTATION_CONTEXT(3)
GLOBAL_UNCERTAINTY_ASSIGNED_CONTEXT((#972))
GLOBAL_UNIT_ASSIGNED_CONTEXT((#976,#978,#979))
REPRESENTATION_CONTEXT('','3D')
);
#975=(
GEOMETRIC_REPRESENTATION_CONTEXT(3)
GLOBAL_UNCERTAINTY_ASSIGNED_CONTEXT((#973))
GLOBAL_UNIT_ASSIGNED_CONTEXT((#976,#978,#979))
REPRESENTATION_CONTEXT('','3D')
);
#976=(
LENGTH_UNIT()
NAMED_UNIT(*)
SI_UNIT(.MILLI.,.METRE.)
);
#977=(
LENGTH_UNIT()
NAMED_UNIT(*)
SI_UNIT($,.METRE.)
);
#978=(
NAMED_UNIT(*)
PLANE_ANGLE_UNIT()
SI_UNIT($,.RADIAN.)
);
#979=(
NAMED_UNIT(*)
SI_UNIT($,.STERADIAN.)
SOLID_ANGLE_UNIT()
);
#980=SHAPE_DEFINITION_REPRESENTATION(#981,#982);
#981=PRODUCT_DEFINITION_SHAPE('',$,#984);
#982=SHAPE_REPRESENTATION('',(#576),#974);
#983=PRODUCT_DEFINITION_CONTEXT('part definition',#988,'design');
#984=PRODUCT_DEFINITION('2026-07-06-11-28-03-272','Neck',#985,#983);
#985=PRODUCT_DEFINITION_FORMATION('',$,#990);
#986=PRODUCT_RELATED_PRODUCT_CATEGORY('Neck','Neck',(#990));
#987=APPLICATION_PROTOCOL_DEFINITION('international standard',
'automotive_design',2009,#988);
#988=APPLICATION_CONTEXT(
'Core Data for Automotive Mechanical Design Process');
#989=PRODUCT_CONTEXT('part definition',#988,'mechanical');
#990=PRODUCT('2026-07-06-11-28-03-272','Neck',$,(#989));
#991=PRESENTATION_STYLE_ASSIGNMENT((#993));
#992=PRESENTATION_STYLE_ASSIGNMENT((#994));
#993=SURFACE_STYLE_USAGE(.BOTH.,#995);
#994=SURFACE_STYLE_USAGE(.BOTH.,#996);
#995=SURFACE_SIDE_STYLE('',(#997));
#996=SURFACE_SIDE_STYLE('',(#998));
#997=SURFACE_STYLE_FILL_AREA(#999);
#998=SURFACE_STYLE_FILL_AREA(#1000);
#999=FILL_AREA_STYLE('Steel - Satin',(#1001));
#1000=FILL_AREA_STYLE('Powder Coat (White)',(#1002));
#1001=FILL_AREA_STYLE_COLOUR('Steel - Satin',#1003);
#1002=FILL_AREA_STYLE_COLOUR('Powder Coat (White)',#1004);
#1003=COLOUR_RGB('Steel - Satin',0.627450980392157,0.627450980392157,0.627450980392157);
#1004=COLOUR_RGB('Powder Coat (White)',0.964705882352941,0.964705882352941,
0.952941176470588);
ENDSEC;
END-ISO-10303-21;
