%TF.GenerationSoftware,KiCad,Pcbnew,9.0.2*%
%TF.CreationDate,2026-07-07T18:50:56+07:00*%
%TF.ProjectId,Self Balancing Robot,53656c66-2042-4616-9c61-6e63696e6720,rev?*%
%TF.SameCoordinates,Original*%
%TF.FileFunction,Copper,L1,Top*%
%TF.FilePolarity,Positive*%
%FSLAX46Y46*%
G04 Gerber Fmt 4.6, Leading zero omitted, Abs format (unit mm)*
G04 Created by KiCad (PCBNEW 9.0.2) date 2026-07-07 18:50:56*
%MOMM*%
%LPD*%
G01*
G04 APERTURE LIST*
G04 Aperture macros list*
%AMRoundRect*
0 Rectangle with rounded corners*
0 $1 Rounding radius*
0 $2 $3 $4 $5 $6 $7 $8 $9 X,Y pos of 4 corners*
0 Add a 4 corners polygon primitive as box body*
4,1,4,$2,$3,$4,$5,$6,$7,$8,$9,$2,$3,0*
0 Add four circle primitives for the rounded corners*
1,1,$1+$1,$2,$3*
1,1,$1+$1,$4,$5*
1,1,$1+$1,$6,$7*
1,1,$1+$1,$8,$9*
0 Add four rect primitives between the rounded corners*
20,1,$1+$1,$2,$3,$4,$5,0*
20,1,$1+$1,$4,$5,$6,$7,0*
20,1,$1+$1,$6,$7,$8,$9,0*
20,1,$1+$1,$8,$9,$2,$3,0*%
G04 Aperture macros list end*
%TA.AperFunction,ComponentPad*%
%ADD10R,1.700000X1.700000*%
%TD*%
%TA.AperFunction,ComponentPad*%
%ADD11C,1.700000*%
%TD*%
%TA.AperFunction,ComponentPad*%
%ADD12R,1.905000X2.000000*%
%TD*%
%TA.AperFunction,ComponentPad*%
%ADD13O,1.905000X2.000000*%
%TD*%
%TA.AperFunction,ComponentPad*%
%ADD14RoundRect,0.760000X-1.140000X-1.140000X1.140000X-1.140000X1.140000X1.140000X-1.140000X1.140000X0*%
%TD*%
%TA.AperFunction,ComponentPad*%
%ADD15C,3.800000*%
%TD*%
%TA.AperFunction,ComponentPad*%
%ADD16R,1.800000X1.800000*%
%TD*%
%TA.AperFunction,ComponentPad*%
%ADD17C,1.800000*%
%TD*%
%TA.AperFunction,ComponentPad*%
%ADD18R,1.600000X1.600000*%
%TD*%
%TA.AperFunction,ComponentPad*%
%ADD19O,1.600000X1.600000*%
%TD*%
%TA.AperFunction,ComponentPad*%
%ADD20R,1.530000X1.530000*%
%TD*%
%TA.AperFunction,ComponentPad*%
%ADD21C,1.530000*%
%TD*%
%TA.AperFunction,ComponentPad*%
%ADD22RoundRect,0.250000X-0.550000X-0.550000X0.550000X-0.550000X0.550000X0.550000X-0.550000X0.550000X0*%
%TD*%
%TA.AperFunction,ComponentPad*%
%ADD23C,1.600000*%
%TD*%
%TA.AperFunction,ComponentPad*%
%ADD24RoundRect,0.250000X-0.550000X0.550000X-0.550000X-0.550000X0.550000X-0.550000X0.550000X0.550000X0*%
%TD*%
%TA.AperFunction,ComponentPad*%
%ADD25RoundRect,0.250000X0.550000X0.550000X-0.550000X0.550000X-0.550000X-0.550000X0.550000X-0.550000X0*%
%TD*%
%TA.AperFunction,ComponentPad*%
%ADD26C,1.905000*%
%TD*%
%TA.AperFunction,Conductor*%
%ADD27C,1.000000*%
%TD*%
%TA.AperFunction,Conductor*%
%ADD28C,0.200000*%
%TD*%
%TA.AperFunction,Conductor*%
%ADD29C,2.000000*%
%TD*%
G04 APERTURE END LIST*
D10*
%TO.P,J5,1,Pin_1*%
%TO.N,+3V3*%
X166280000Y-107490000D03*
D11*
%TO.P,J5,2,Pin_2*%
%TO.N,GND*%
X168820000Y-107490000D03*
%TO.P,J5,3,Pin_3*%
%TO.N,/SCL1*%
X171360000Y-107490000D03*
%TO.P,J5,4,Pin_4*%
%TO.N,/SDA1*%
X173900000Y-107490000D03*
%TD*%
D12*
%TO.P,U5,1,VI*%
%TO.N,+15V*%
X143270000Y-94650000D03*
D13*
%TO.P,U5,2,GND*%
%TO.N,GND*%
X140730000Y-94650000D03*
%TO.P,U5,3,VO*%
%TO.N,+5V*%
X138190000Y-94650000D03*
%TD*%
D14*
%TO.P,J3,1,Pin_1*%
%TO.N,GND*%
X138680000Y-55870000D03*
D15*
%TO.P,J3,2,Pin_2*%
%TO.N,Net-(J3-Pin_2)*%
X143680000Y-55870000D03*
%TD*%
D16*
%TO.P,D2,1,K*%
%TO.N,GND*%
X140940000Y-102900000D03*
D17*
%TO.P,D2,2,A*%
%TO.N,Net-(D2-A)*%
X143480000Y-102900000D03*
%TD*%
D10*
%TO.P,J8,1,Pin_1*%
%TO.N,+5V*%
X139550000Y-61380000D03*
%TD*%
D18*
%TO.P,A1,1,GND*%
%TO.N,GND*%
X169560000Y-72670000D03*
D19*
%TO.P,A1,2,VDD*%
%TO.N,+5V*%
X169560000Y-70130000D03*
%TO.P,A1,3,1B*%
%TO.N,Net-(A1-1B)*%
X169560000Y-67590000D03*
%TO.P,A1,4,1A*%
%TO.N,Net-(A1-1A)*%
X169560000Y-65050000D03*
%TO.P,A1,5,2A*%
%TO.N,Net-(A1-2A)*%
X169560000Y-62510000D03*
%TO.P,A1,6,2B*%
%TO.N,Net-(A1-2B)*%
X169560000Y-59970000D03*
%TO.P,A1,7,GND*%
%TO.N,GND*%
X169560000Y-57430000D03*
%TO.P,A1,8,VMOT*%
%TO.N,+15V*%
X169560000Y-54890000D03*
%TO.P,A1,9,~{ENABLE}*%
%TO.N,unconnected-(A1-~{ENABLE}-Pad9)*%
X156860000Y-54890000D03*
%TO.P,A1,10,MS1*%
%TO.N,+5V*%
X156860000Y-57430000D03*
%TO.P,A1,11,MS2*%
X156860000Y-59970000D03*
%TO.P,A1,12,MS3*%
X156860000Y-62510000D03*
%TO.P,A1,13,~{RESET}*%
%TO.N,Net-(A1-~{RESET})*%
X156860000Y-65050000D03*
%TO.P,A1,14,~{SLEEP}*%
X156860000Y-67590000D03*
%TO.P,A1,15,STEP*%
%TO.N,/MDSTEP1*%
X156860000Y-70130000D03*
%TO.P,A1,16,DIR*%
%TO.N,/MDDIR1*%
X156860000Y-72670000D03*
%TD*%
D10*
%TO.P,J10,1,Pin_1*%
%TO.N,/IO17*%
X127550000Y-49240000D03*
D11*
%TO.P,J10,2,Pin_2*%
%TO.N,GND*%
X130090000Y-49240000D03*
%TD*%
D10*
%TO.P,J1,1,Pin_1*%
%TO.N,Net-(A1-1A)*%
X176820000Y-75810000D03*
D11*
%TO.P,J1,2,Pin_2*%
%TO.N,Net-(A1-1B)*%
X176820000Y-73270000D03*
%TO.P,J1,3,Pin_3*%
%TO.N,Net-(A1-2A)*%
X176820000Y-70730000D03*
%TO.P,J1,4,Pin_4*%
%TO.N,Net-(A1-2B)*%
X176820000Y-68190000D03*
%TD*%
D20*
%TO.P,U2,1,3V3*%
%TO.N,+3V3*%
X99410000Y-54890000D03*
D21*
%TO.P,U2,2,EN*%
%TO.N,unconnected-(U2-EN-Pad2)*%
X99410000Y-57430000D03*
%TO.P,U2,3,SENSOR_VP*%
%TO.N,unconnected-(U2-SENSOR_VP-Pad3)*%
X99410000Y-59970000D03*
%TO.P,U2,4,SENSOR_VN*%
%TO.N,unconnected-(U2-SENSOR_VN-Pad4)*%
X99410000Y-62510000D03*
%TO.P,U2,5,IO34*%
%TO.N,unconnected-(U2-IO34-Pad5)*%
X99410000Y-65050000D03*
%TO.P,U2,6,IO35*%
%TO.N,unconnected-(U2-IO35-Pad6)*%
X99410000Y-67590000D03*
%TO.P,U2,7,IO32*%
%TO.N,unconnected-(U2-IO32-Pad7)*%
X99410000Y-70130000D03*
%TO.P,U2,8,IO33*%
%TO.N,/SDA1*%
X99410000Y-72670000D03*
%TO.P,U2,9,IO25*%
%TO.N,/SCL1*%
X99410000Y-75210000D03*
%TO.P,U2,10,IO26*%
%TO.N,/SDA2*%
X99410000Y-77750000D03*
%TO.P,U2,11,IO27*%
%TO.N,/SCL2*%
X99410000Y-80290000D03*
%TO.P,U2,12,IO14*%
%TO.N,unconnected-(U2-IO14-Pad12)*%
X99410000Y-82830000D03*
%TO.P,U2,13,IO12*%
%TO.N,unconnected-(U2-IO12-Pad13)*%
X99410000Y-85370000D03*
%TO.P,U2,14,GND1*%
%TO.N,GND*%
X99410000Y-87910000D03*
%TO.P,U2,15,IO13*%
%TO.N,unconnected-(U2-IO13-Pad15)*%
X99410000Y-90450000D03*
%TO.P,U2,16,SD2*%
%TO.N,unconnected-(U2-SD2-Pad16)*%
X99410000Y-92990000D03*
%TO.P,U2,17,SD3*%
%TO.N,unconnected-(U2-SD3-Pad17)*%
X99410000Y-95530000D03*
%TO.P,U2,18,CMD*%
%TO.N,unconnected-(U2-CMD-Pad18)*%
X99410000Y-98070000D03*
%TO.P,U2,19,EXT_5V*%
%TO.N,+5V*%
X99410000Y-100610000D03*
%TO.P,U2,20,CLK*%
%TO.N,unconnected-(U2-CLK-Pad20)*%
X124810000Y-100610000D03*
%TO.P,U2,21,SD0*%
%TO.N,unconnected-(U2-SD0-Pad21)*%
X124810000Y-98070000D03*
%TO.P,U2,22,SD1*%
%TO.N,unconnected-(U2-SD1-Pad22)*%
X124810000Y-95530000D03*
%TO.P,U2,23,IO15*%
%TO.N,/MDDIR2*%
X124810000Y-92990000D03*
%TO.P,U2,24,IO2*%
%TO.N,/MDSTEP2*%
X124810000Y-90450000D03*
%TO.P,U2,25,IO0*%
%TO.N,/MDDIR1*%
X124810000Y-87910000D03*
%TO.P,U2,26,IO4*%
%TO.N,/MDSTEP1*%
X124810000Y-85370000D03*
%TO.P,U2,27,IO16*%
%TO.N,unconnected-(U2-IO16-Pad27)*%
X124810000Y-82830000D03*
%TO.P,U2,28,IO17*%
%TO.N,/IO17*%
X124810000Y-80290000D03*
%TO.P,U2,29,IO5*%
%TO.N,unconnected-(U2-IO5-Pad29)*%
X124810000Y-77750000D03*
%TO.P,U2,30,IO18*%
%TO.N,unconnected-(U2-IO18-Pad30)*%
X124810000Y-75210000D03*
%TO.P,U2,31,IO19*%
%TO.N,unconnected-(U2-IO19-Pad31)*%
X124810000Y-72670000D03*
%TO.P,U2,32,GND2*%
%TO.N,GND*%
X124810000Y-70130000D03*
%TO.P,U2,33,IO21*%
%TO.N,/SDA*%
X124810000Y-67590000D03*
%TO.P,U2,34,RXD0*%
%TO.N,unconnected-(U2-RXD0-Pad34)*%
X124810000Y-65050000D03*
%TO.P,U2,35,TXD0*%
%TO.N,unconnected-(U2-TXD0-Pad35)*%
X124810000Y-62510000D03*
%TO.P,U2,36,IO22*%
%TO.N,/SCL*%
X124810000Y-59970000D03*
%TO.P,U2,37,IO23*%
%TO.N,unconnected-(U2-IO23-Pad37)*%
X124810000Y-57430000D03*
%TO.P,U2,38,GND3*%
%TO.N,GND*%
X124810000Y-54890000D03*
%TD*%
D18*
%TO.P,A2,1,GND*%
%TO.N,GND*%
X169340000Y-99750000D03*
D19*
%TO.P,A2,2,VDD*%
%TO.N,+5V*%
X169340000Y-97210000D03*
%TO.P,A2,3,1B*%
%TO.N,Net-(A2-1B)*%
X169340000Y-94670000D03*
%TO.P,A2,4,1A*%
%TO.N,Net-(A2-1A)*%
X169340000Y-92130000D03*
%TO.P,A2,5,2A*%
%TO.N,Net-(A2-2A)*%
X169340000Y-89590000D03*
%TO.P,A2,6,2B*%
%TO.N,Net-(A2-2B)*%
X169340000Y-87050000D03*
%TO.P,A2,7,GND*%
%TO.N,GND*%
X169340000Y-84510000D03*
%TO.P,A2,8,VMOT*%
%TO.N,+15V*%
X169340000Y-81970000D03*
%TO.P,A2,9,~{ENABLE}*%
%TO.N,unconnected-(A2-~{ENABLE}-Pad9)*%
X156640000Y-81970000D03*
%TO.P,A2,10,MS1*%
%TO.N,+5V*%
X156640000Y-84510000D03*
%TO.P,A2,11,MS2*%
X156640000Y-87050000D03*
%TO.P,A2,12,MS3*%
X156640000Y-89590000D03*
%TO.P,A2,13,~{RESET}*%
%TO.N,Net-(A2-~{RESET})*%
X156640000Y-92130000D03*
%TO.P,A2,14,~{SLEEP}*%
X156640000Y-94670000D03*
%TO.P,A2,15,STEP*%
%TO.N,/MDSTEP2*%
X156640000Y-97210000D03*
%TO.P,A2,16,DIR*%
%TO.N,/MDDIR2*%
X156640000Y-99750000D03*
%TD*%
D10*
%TO.P,J6,1,Pin_1*%
%TO.N,+3V3*%
X128530000Y-107680000D03*
D11*
%TO.P,J6,2,Pin_2*%
%TO.N,GND*%
X131070000Y-107680000D03*
%TO.P,J6,3,Pin_3*%
%TO.N,/SCL2*%
X133610000Y-107680000D03*
%TO.P,J6,4,Pin_4*%
%TO.N,/SDA2*%
X136150000Y-107680000D03*
%TD*%
D22*
%TO.P,C2,1*%
%TO.N,+5V*%
X102380000Y-104990000D03*
D23*
%TO.P,C2,2*%
%TO.N,GND*%
X104380000Y-104990000D03*
%TD*%
D10*
%TO.P,J7,1,Pin_1*%
%TO.N,+15V*%
X146910000Y-61370000D03*
%TD*%
D23*
%TO.P,R3,1*%
%TO.N,Net-(D1-A)*%
X148290000Y-107680000D03*
%TO.P,R3,2*%
%TO.N,Net-(D2-A)*%
X140670000Y-107680000D03*
%TD*%
D24*
%TO.P,C4,1*%
%TO.N,+15V*%
X175650000Y-98637621D03*
D23*
%TO.P,C4,2*%
%TO.N,GND*%
X175650000Y-101137621D03*
%TD*%
D25*
%TO.P,C6,1*%
%TO.N,+15V*%
X150745113Y-97590000D03*
D23*
%TO.P,C6,2*%
%TO.N,GND*%
X148745113Y-97590000D03*
%TD*%
D10*
%TO.P,J2,1,Pin_1*%
%TO.N,Net-(A2-1A)*%
X177250000Y-93510000D03*
D11*
%TO.P,J2,2,Pin_2*%
%TO.N,Net-(A2-1B)*%
X177250000Y-90970000D03*
%TO.P,J2,3,Pin_3*%
%TO.N,Net-(A2-2A)*%
X177250000Y-88430000D03*
%TO.P,J2,4,Pin_4*%
%TO.N,Net-(A2-2B)*%
X177250000Y-85890000D03*
%TD*%
D25*
%TO.P,D1,1,K*%
%TO.N,+15V*%
X161720000Y-107570000D03*
D23*
%TO.P,D1,2,A*%
%TO.N,Net-(D1-A)*%
X151560000Y-107570000D03*
%TD*%
D24*
%TO.P,C3,1*%
%TO.N,+15V*%
X177210000Y-56980000D03*
D23*
%TO.P,C3,2*%
%TO.N,GND*%
X177210000Y-59480000D03*
%TD*%
D22*
%TO.P,C5,1*%
%TO.N,+5V*%
X130504888Y-97500000D03*
D23*
%TO.P,C5,2*%
%TO.N,GND*%
X132504888Y-97500000D03*
%TD*%
D10*
%TO.P,J9,1,Pin_1*%
%TO.N,GND*%
X135900000Y-61380000D03*
%TD*%
D26*
%TO.P,U1,AD0,AD0*%
%TO.N,unconnected-(U1-PadAD0)*%
X146640000Y-85190000D03*
%TO.P,U1,GND,GND*%
%TO.N,GND*%
X133940000Y-85190000D03*
%TO.P,U1,INT,INT*%
%TO.N,unconnected-(U1-PadINT)*%
X149180000Y-85190000D03*
%TO.P,U1,SCL,SCL*%
%TO.N,/SDA*%
X136480000Y-85190000D03*
%TO.P,U1,SDA,SDA*%
%TO.N,/SCL*%
X139020000Y-85190000D03*
%TO.P,U1,VCC,VCC*%
%TO.N,+5V*%
X131400000Y-85190000D03*
%TO.P,U1,XCL,XCL*%
%TO.N,unconnected-(U1-PadXCL)*%
X144100000Y-85190000D03*
%TO.P,U1,XDA,XDA*%
%TO.N,unconnected-(U1-PadXDA)*%
X141560000Y-85190000D03*
%TD*%
D10*
%TO.P,J4,1,Pin_1*%
%TO.N,Net-(J3-Pin_2)*%
X143230000Y-61380000D03*
%TD*%
D27*
%TO.N,+5V*%
X99410000Y-100610000D02*
X99410000Y-102020000D01*
X138190000Y-94650000D02*
X141760000Y-91080000D01*
X156860000Y-59970000D02*
X156860000Y-62510000D01*
X156640000Y-84510000D02*
X161960000Y-79190000D01*
X141890000Y-63720000D02*
X155650000Y-63720000D01*
X130504888Y-97500000D02*
X130504888Y-94650000D01*
X155650000Y-63720000D02*
X156860000Y-62510000D01*
X156860000Y-57430000D02*
X156860000Y-59970000D01*
X139550000Y-61380000D02*
X141890000Y-63720000D01*
X138190000Y-94650000D02*
X131400000Y-87860000D01*
X141760000Y-91080000D02*
X155150000Y-91080000D01*
X130504888Y-94650000D02*
X138190000Y-94650000D01*
X155150000Y-91080000D02*
X156640000Y-89590000D01*
X156640000Y-89590000D02*
X159350000Y-89590000D01*
X156640000Y-89590000D02*
X156640000Y-87050000D01*
X161960000Y-79190000D02*
X161960000Y-75430000D01*
X156640000Y-87050000D02*
X156640000Y-84510000D01*
X166970000Y-97210000D02*
X169340000Y-97210000D01*
X99410000Y-102020000D02*
X102380000Y-104990000D01*
X167260000Y-70130000D02*
X169560000Y-70130000D01*
X159350000Y-89590000D02*
X166970000Y-97210000D01*
X131400000Y-87860000D02*
X131400000Y-85190000D01*
X161960000Y-75430000D02*
X167260000Y-70130000D01*
X164480000Y-70130000D02*
X156860000Y-62510000D01*
X169560000Y-70130000D02*
X164480000Y-70130000D01*
%TO.N,Net-(A1-1A)*%
X172840000Y-68330000D02*
X172840000Y-71830000D01*
X172840000Y-71830000D02*
X176820000Y-75810000D01*
X169560000Y-65050000D02*
X172840000Y-68330000D01*
%TO.N,Net-(A1-2B)*%
X172280000Y-59970000D02*
X176820000Y-64510000D01*
X176820000Y-64510000D02*
X176820000Y-68190000D01*
X169560000Y-59970000D02*
X172280000Y-59970000D01*
D28*
%TO.N,Net-(A1-~{RESET})*%
X156860000Y-65050000D02*
X156860000Y-67590000D01*
D29*
%TO.N,+15V*%
X177210000Y-56790000D02*
X177210000Y-56980000D01*
X146910000Y-61360000D02*
X149340000Y-58930000D01*
X175310000Y-54890000D02*
X177210000Y-56790000D01*
X149340000Y-58930000D02*
X149340000Y-55320000D01*
X183650000Y-54030000D02*
X179110000Y-54030000D01*
X183620000Y-94230000D02*
X179212379Y-98637621D01*
X179212379Y-98637621D02*
X175782379Y-98637621D01*
X183650000Y-81990000D02*
X183650000Y-54030000D01*
X154050000Y-50610000D02*
X165280000Y-50610000D01*
X150745113Y-94650000D02*
X150745113Y-97590000D01*
D28*
X175650000Y-98637621D02*
X175782379Y-98637621D01*
D29*
X169360000Y-81990000D02*
X183650000Y-81990000D01*
X183620000Y-82020000D02*
X183620000Y-94230000D01*
X169560000Y-54890000D02*
X175310000Y-54890000D01*
X165280000Y-50610000D02*
X169560000Y-54890000D01*
X175782379Y-98637621D02*
X178260000Y-98637621D01*
X179110000Y-54030000D02*
X177210000Y-55930000D01*
X149340000Y-55320000D02*
X154050000Y-50610000D01*
X177210000Y-55930000D02*
X177210000Y-56980000D01*
X146910000Y-61370000D02*
X146910000Y-61360000D01*
D28*
X169340000Y-81970000D02*
X169360000Y-81990000D01*
D29*
X143270000Y-94650000D02*
X150745113Y-94650000D01*
D27*
%TO.N,Net-(A1-2A)*%
X174330000Y-68240000D02*
X176820000Y-70730000D01*
X171540000Y-62510000D02*
X174330000Y-65300000D01*
X174330000Y-65300000D02*
X174330000Y-68240000D01*
X169560000Y-62510000D02*
X171540000Y-62510000D01*
D29*
%TO.N,GND*%
X173720000Y-57430000D02*
X169560000Y-57430000D01*
X175770000Y-59480000D02*
X173720000Y-57430000D01*
X165790000Y-83500000D02*
X165790000Y-79720000D01*
X130090000Y-50802000D02*
X130090000Y-49240000D01*
D27*
X132504888Y-97500000D02*
X140730000Y-97500000D01*
D29*
X170720000Y-101130000D02*
X175642379Y-101130000D01*
X169280000Y-84570000D02*
X166860000Y-84570000D01*
D28*
X99410000Y-87910000D02*
X101080000Y-89580000D01*
D27*
X140730000Y-97500000D02*
X140820000Y-97590000D01*
D29*
X169560000Y-75950000D02*
X169560000Y-72670000D01*
X177210000Y-59480000D02*
X175770000Y-59480000D01*
D28*
X175642379Y-101130000D02*
X175650000Y-101137621D01*
D29*
X166860000Y-84570000D02*
X165790000Y-83500000D01*
X165790000Y-79720000D02*
X169560000Y-75950000D01*
D27*
X140730000Y-97500000D02*
X140730000Y-94650000D01*
D29*
X124810000Y-54890000D02*
X126002000Y-54890000D01*
X169340000Y-84510000D02*
X169280000Y-84570000D01*
X126002000Y-54890000D02*
X130090000Y-50802000D01*
D28*
X101080000Y-89580000D02*
X101080000Y-98860000D01*
D29*
X169340000Y-99750000D02*
X170720000Y-101130000D01*
D27*
X140820000Y-97590000D02*
X148745113Y-97590000D01*
D28*
%TO.N,/MDDIR2*%
X156040000Y-100350000D02*
X156640000Y-99750000D01*
X131150000Y-100350000D02*
X156040000Y-100350000D01*
X124810000Y-92990000D02*
X124810000Y-94010000D01*
X124810000Y-94010000D02*
X131150000Y-100350000D01*
%TO.N,Net-(A2-~{RESET})*%
X156640000Y-94670000D02*
X156640000Y-92130000D01*
D27*
%TO.N,Net-(A2-2B)*%
X176090000Y-87050000D02*
X177250000Y-85890000D01*
X169340000Y-87050000D02*
X176090000Y-87050000D01*
%TO.N,Net-(A2-1A)*%
X169340000Y-92130000D02*
X175870000Y-92130000D01*
X175870000Y-92130000D02*
X177250000Y-93510000D01*
%TO.N,Net-(A2-2A)*%
X176090000Y-89590000D02*
X177250000Y-88430000D01*
X169340000Y-89590000D02*
X176090000Y-89590000D01*
D28*
%TO.N,Net-(J3-Pin_2)*%
X143230000Y-56320000D02*
X143680000Y-55870000D01*
D29*
X143230000Y-61380000D02*
X143230000Y-56320000D01*
D28*
%TO.N,/SDA1*%
X173900000Y-107490000D02*
X170770000Y-104360000D01*
X107670000Y-88760000D02*
X107670000Y-80930000D01*
X170770000Y-104360000D02*
X123270000Y-104360000D01*
X107670000Y-80930000D02*
X99410000Y-72670000D01*
X123270000Y-104360000D02*
X107670000Y-88760000D01*
%TO.N,/SCL1*%
X168740000Y-104870000D02*
X120200000Y-104870000D01*
X105720000Y-90390000D02*
X105720000Y-81520000D01*
X105720000Y-81520000D02*
X99410000Y-75210000D01*
X171360000Y-107490000D02*
X168740000Y-104870000D01*
X120200000Y-104870000D02*
X105720000Y-90390000D01*
%TO.N,/SCL2*%
X99410000Y-80290000D02*
X102690000Y-83570000D01*
X102690000Y-83570000D02*
X102690000Y-92910000D01*
X132040000Y-106110000D02*
X115890000Y-106110000D01*
X133610000Y-107680000D02*
X132040000Y-106110000D01*
X115890000Y-106110000D02*
X102690000Y-92910000D01*
%TO.N,/SDA2*%
X99410000Y-77750000D02*
X104010000Y-82350000D01*
X104010000Y-82350000D02*
X104010000Y-91690000D01*
X117830000Y-105510000D02*
X133980000Y-105510000D01*
X104010000Y-91690000D02*
X117830000Y-105510000D01*
X133980000Y-105510000D02*
X136150000Y-107680000D01*
%TO.N,/SCL*%
X124810000Y-59970000D02*
X135350000Y-70510000D01*
X135350000Y-81520000D02*
X139020000Y-85190000D01*
X135350000Y-70510000D02*
X135350000Y-81520000D01*
%TO.N,/SDA*%
X128130000Y-76840000D02*
X136480000Y-85190000D01*
X128130000Y-70910000D02*
X128130000Y-76840000D01*
X124810000Y-67590000D02*
X128130000Y-70910000D01*
%TO.N,/IO17*%
X119130000Y-77190000D02*
X122230000Y-80290000D01*
X127550000Y-49240000D02*
X119130000Y-57660000D01*
X119130000Y-57660000D02*
X119130000Y-77190000D01*
X122230000Y-80290000D02*
X124810000Y-80290000D01*
%TD*%
%TA.AperFunction,Conductor*%
%TO.N,GND*%
G36*
X155224185Y-92083050D02*
G01*
X155233147Y-92081762D01*
X155257187Y-92092740D01*
X155282539Y-92100185D01*
X155288466Y-92107025D01*
X155296703Y-92110787D01*
X155310992Y-92133021D01*
X155328294Y-92152989D01*
X155330581Y-92163503D01*
X155334477Y-92169565D01*
X155339500Y-92204500D01*
X155339500Y-92232351D01*
X155371522Y-92434534D01*
X155434781Y-92629223D01*
X155527715Y-92811613D01*
X155648028Y-92977213D01*
X155648034Y-92977219D01*
X155792781Y-93121966D01*
X155958390Y-93242287D01*
X155971793Y-93249116D01*
X155982856Y-93259564D01*
X155996703Y-93265888D01*
X156007744Y-93283068D01*
X156022589Y-93297088D01*
X156026830Y-93312768D01*
X156034477Y-93324666D01*
X156039500Y-93359601D01*
X156039500Y-93440397D01*
X156019815Y-93507436D01*
X155971800Y-93550879D01*
X155958389Y-93557712D01*
X155792786Y-93678028D01*
X155648028Y-93822786D01*
X155527715Y-93988386D01*
X155434781Y-94170776D01*
X155371522Y-94365465D01*
X155339500Y-94567648D01*
X155339500Y-94772351D01*
X155371522Y-94974534D01*
X155434781Y-95169223D01*
X155527715Y-95351613D01*
X155648028Y-95517213D01*
X155792786Y-95661971D01*
X155924250Y-95757483D01*
X155958390Y-95782287D01*
X156044847Y-95826339D01*
X156051080Y-95829515D01*
X156101876Y-95877490D01*
X156118671Y-95945311D01*
X156096134Y-96011446D01*
X156051080Y-96050485D01*
X155958386Y-96097715D01*
X155792786Y-96218028D01*
X155648028Y-96362786D01*
X155527715Y-96528386D01*
X155434781Y-96710776D01*
X155371522Y-96905465D01*
X155342142Y-97090968D01*
X155339500Y-97107648D01*
X155339500Y-97312352D01*
X155343836Y-97339725D01*
X155371522Y-97514534D01*
X155434781Y-97709223D01*
X155498691Y-97834653D01*
X155505381Y-97847782D01*
X155527715Y-97891613D01*
X155648028Y-98057213D01*
X155792786Y-98201971D01*
X155908793Y-98286253D01*
X155958390Y-98322287D01*
X156049840Y-98368883D01*
X156051080Y-98369515D01*
X156101876Y-98417490D01*
X156118671Y-98485311D01*
X156096134Y-98551446D01*
X156051080Y-98590485D01*
X155958386Y-98637715D01*
X155792786Y-98758028D01*
X155648028Y-98902786D01*
X155527715Y-99068386D01*
X155434781Y-99250776D01*
X155371523Y-99445465D01*
X155339936Y-99644898D01*
X155310007Y-99708033D01*
X155250695Y-99744964D01*
X155217463Y-99749500D01*
X131450097Y-99749500D01*
X131383058Y-99729815D01*
X131362416Y-99713181D01*
X130661415Y-99012180D01*
X130627930Y-98950857D01*
X130632914Y-98881165D01*
X130674786Y-98825232D01*
X130740250Y-98800815D01*
X130749096Y-98800499D01*
X131104890Y-98800499D01*
X131104896Y-98800499D01*
X131207685Y-98789999D01*
X131374222Y-98734814D01*
X131523544Y-98642712D01*
X131592767Y-98573489D01*
X131654090Y-98540004D01*
X131723782Y-98544988D01*
X131753334Y-98560853D01*
X131823534Y-98611857D01*
X132005856Y-98704755D01*
X132200470Y-98767990D01*
X132402571Y-98800000D01*
X132607205Y-98800000D01*
X132809305Y-98767990D01*
X133003919Y-98704755D01*
X133186237Y-98611859D01*
X133230809Y-98579474D01*
X132551335Y-97900000D01*
X132557549Y-97900000D01*
X132659282Y-97872741D01*
X132750494Y-97820080D01*
X132824968Y-97745606D01*
X132877629Y-97654394D01*
X132904888Y-97552661D01*
X132904888Y-97546447D01*
X133584362Y-98225921D01*
X133616747Y-98181349D01*
X133709643Y-97999031D01*
X133772878Y-97804417D01*
X133804888Y-97602317D01*
X133804888Y-97397682D01*
X133772878Y-97195582D01*
X133709643Y-97000968D01*
X133616747Y-96818650D01*
X133584362Y-96774077D01*
X133584362Y-96774076D01*
X132904888Y-97453551D01*
X132904888Y-97447339D01*
X132877629Y-97345606D01*
X132824968Y-97254394D01*
X132750494Y-97179920D01*
X132659282Y-97127259D01*
X132557549Y-97100000D01*
X132551334Y-97100000D01*
X133230810Y-96420524D01*
X133230809Y-96420523D01*
X133186247Y-96388147D01*
X133186238Y-96388141D01*
X133003919Y-96295244D01*
X132809305Y-96232009D01*
X132607205Y-96200000D01*
X132402571Y-96200000D01*
X132200470Y-96232009D01*
X132005856Y-96295244D01*
X131823539Y-96388139D01*
X131753332Y-96439148D01*
X131721205Y-96450610D01*
X131689292Y-96462513D01*
X131688392Y-96462317D01*
X131687525Y-96462627D01*
X131654325Y-96454906D01*
X131621019Y-96447661D01*
X131620050Y-96446935D01*
X131619471Y-96446801D01*
X131592765Y-96426509D01*
X131541706Y-96375449D01*
X131508222Y-96314126D01*
X131505388Y-96287769D01*
X131505388Y-95774500D01*
X131525073Y-95707461D01*
X131577877Y-95661706D01*
X131629388Y-95650500D01*
X137036786Y-95650500D01*
X137103825Y-95670185D01*
X137124467Y-95686819D01*
X137243434Y-95805786D01*
X137428462Y-95940217D01*
X137560599Y-96007544D01*
X137632244Y-96044049D01*
X137849751Y-96114721D01*
X137849752Y-96114721D01*
X137849755Y-96114722D01*
X138075646Y-96150500D01*
X138075647Y-96150500D01*
X138304353Y-96150500D01*
X138304354Y-96150500D01*
X138530245Y-96114722D01*
X138530248Y-96114721D01*
X138530249Y-96114721D01*
X138747755Y-96044049D01*
X138747755Y-96044048D01*
X138747758Y-96044048D01*
X138951538Y-95940217D01*
X139136566Y-95805786D01*
X139298286Y-95644066D01*
X139359992Y-95559134D01*
X139415319Y-95516470D01*
X139484932Y-95510491D01*
X139546727Y-95543096D01*
X139560626Y-95559135D01*
X139622097Y-95643741D01*
X139622097Y-95643742D01*
X139783757Y-95805402D01*
X139968723Y-95939788D01*
X140172429Y-96043582D01*
X140389871Y-96114234D01*
X140480000Y-96128509D01*
X140480000Y-95140747D01*
X140517708Y-95162518D01*
X140657591Y-95200000D01*
X140802409Y-95200000D01*
X140942292Y-95162518D01*
X140980000Y-95140747D01*
X140980000Y-96128508D01*
X141070128Y-96114234D01*
X141287570Y-96043582D01*
X141491276Y-95939788D01*
X141674059Y-95806988D01*
X141739865Y-95783508D01*
X141807919Y-95799333D01*
X141856614Y-95849439D01*
X141863127Y-95863974D01*
X141873701Y-95892326D01*
X141873706Y-95892335D01*
X141959952Y-96007544D01*
X141959955Y-96007547D01*
X142075164Y-96093793D01*
X142075171Y-96093797D01*
X142210017Y-96144091D01*
X142210016Y-96144091D01*
X142216944Y-96144835D01*
X142269627Y-96150500D01*
X143141905Y-96150499D01*
X143141919Y-96150500D01*
X143151908Y-96150500D01*
X148190297Y-96150500D01*
X148257336Y-96170185D01*
X148303091Y-96222989D01*
X148313035Y-96292147D01*
X148284010Y-96355703D01*
X148246592Y-96384985D01*
X148063757Y-96478143D01*
X148019190Y-96510523D01*
X148019190Y-96510524D01*
X148698666Y-97190000D01*
X148692452Y-97190000D01*
X148590719Y-97217259D01*
X148499507Y-97269920D01*
X148425033Y-97344394D01*
X148372372Y-97435606D01*
X148345113Y-97537339D01*
X148345113Y-97543553D01*
X147665637Y-96864077D01*
X147665636Y-96864077D01*
X147633256Y-96908644D01*
X147540357Y-97090968D01*
X147477122Y-97285582D01*
X147445113Y-97487682D01*
X147445113Y-97692317D01*
X147477122Y-97894417D01*
X147540357Y-98089031D01*
X147633254Y-98271350D01*
X147633260Y-98271359D01*
X147665636Y-98315921D01*
X147665637Y-98315922D01*
X148345113Y-97636446D01*
X148345113Y-97642661D01*
X148372372Y-97744394D01*
X148425033Y-97835606D01*
X148499507Y-97910080D01*
X148590719Y-97962741D01*
X148692452Y-97990000D01*
X148698665Y-97990000D01*
X148019189Y-98669474D01*
X148063763Y-98701859D01*
X148246081Y-98794755D01*
X148440695Y-98857990D01*
X148642796Y-98890000D01*
X148847430Y-98890000D01*
X149049530Y-98857990D01*
X149244144Y-98794755D01*
X149426454Y-98701863D01*
X149426462Y-98701858D01*
X149496665Y-98650852D01*
X149562471Y-98627371D01*
X149630525Y-98643196D01*
X149657233Y-98663488D01*
X149726457Y-98732712D01*
X149836356Y-98800498D01*
X149875781Y-98824815D01*
X149875785Y-98824816D01*
X149887097Y-98828565D01*
X149920980Y-98845953D01*
X149954921Y-98870612D01*
X149958680Y-98873343D01*
X150092772Y-98941666D01*
X150169116Y-98980566D01*
X150169118Y-98980566D01*
X150169121Y-98980568D01*
X150289525Y-99019689D01*
X150393744Y-99053553D01*
X150627016Y-99090500D01*
X150627021Y-99090500D01*
X150863210Y-99090500D01*
X151096481Y-99053553D01*
X151152762Y-99035266D01*
X151321105Y-98980568D01*
X151531546Y-98873343D01*
X151569244Y-98845952D01*
X151603129Y-98828564D01*
X151613185Y-98825232D01*
X151614447Y-98824814D01*
X151763769Y-98732712D01*
X151887825Y-98608656D01*
X151979927Y-98459334D01*
X151983677Y-98448015D01*
X152001065Y-98414131D01*
X152028456Y-98376433D01*
X152135681Y-98165992D01*
X152208666Y-97941368D01*
X152209702Y-97934824D01*
X152245613Y-97708097D01*
X152245613Y-94531902D01*
X152208666Y-94298631D01*
X152168846Y-94176079D01*
X152135681Y-94074008D01*
X152135679Y-94074005D01*
X152135679Y-94074003D01*
X152060722Y-93926892D01*
X152028456Y-93863567D01*
X151889630Y-93672490D01*
X151722623Y-93505483D01*
X151531546Y-93366657D01*
X151474303Y-93337490D01*
X151321109Y-93259433D01*
X151096481Y-93186446D01*
X150863210Y-93149500D01*
X150863205Y-93149500D01*
X143151908Y-93149500D01*
X143151904Y-93149500D01*
X142269629Y-93149500D01*
X142269623Y-93149501D01*
X142210016Y-93155908D01*
X142075171Y-93206202D01*
X142075164Y-93206206D01*
X141959955Y-93292452D01*
X141959952Y-93292455D01*
X141873706Y-93407664D01*
X141873702Y-93407671D01*
X141863127Y-93436026D01*
X141821256Y-93491960D01*
X141755791Y-93516377D01*
X141687518Y-93501525D01*
X141674060Y-93493011D01*
X141491279Y-93360213D01*
X141287566Y-93256415D01*
X141261835Y-93248055D01*
X141204160Y-93208617D01*
X141176963Y-93144258D01*
X141188878Y-93075412D01*
X141212467Y-93042453D01*
X142138102Y-92116819D01*
X142199425Y-92083334D01*
X142225783Y-92080500D01*
X155215500Y-92080500D01*
X155224185Y-92083050D01*
G37*
%TD.AperFunction*%
%TA.AperFunction,Conductor*%
G36*
X126261327Y-69895119D02*
G01*
X126283466Y-69912701D01*
X127493181Y-71122416D01*
X127526666Y-71183739D01*
X127529500Y-71210097D01*
X127529500Y-76753330D01*
X127529499Y-76753348D01*
X127529499Y-76919054D01*
X127529498Y-76919054D01*
X127546794Y-76983602D01*
X127570423Y-77071785D01*
X127573924Y-77077850D01*
X127579052Y-77086732D01*
X127579054Y-77086734D01*
X127649477Y-77208712D01*
X127649481Y-77208717D01*
X127768349Y-77327585D01*
X127768355Y-77327590D01*
X133966584Y-83525819D01*
X134000069Y-83587142D01*
X133995085Y-83656834D01*
X133953213Y-83712767D01*
X133887749Y-83737184D01*
X133878903Y-83737500D01*
X133825687Y-83737500D01*
X133599875Y-83773265D01*
X133599874Y-83773265D01*
X133382431Y-83843917D01*
X133178719Y-83947713D01*
X133104900Y-84001346D01*
X133104899Y-84001347D01*
X133703992Y-84600439D01*
X133639215Y-84627271D01*
X133535211Y-84696764D01*
X133446764Y-84785211D01*
X133377271Y-84889215D01*
X133350439Y-84953991D01*
X132751347Y-84354899D01*
X132734490Y-84356226D01*
X132715293Y-84371029D01*
X132645679Y-84377007D01*
X132583885Y-84344399D01*
X132569990Y-84328362D01*
X132508288Y-84243437D01*
X132508283Y-84243431D01*
X132346568Y-84081716D01*
X132346566Y-84081714D01*
X132161538Y-83947283D01*
X132010052Y-83870097D01*
X131957755Y-83843450D01*
X131740248Y-83772778D01*
X131570826Y-83745944D01*
X131514354Y-83737000D01*
X131285646Y-83737000D01*
X131210349Y-83748926D01*
X131059753Y-83772778D01*
X131059750Y-83772778D01*
X130842244Y-83843450D01*
X130638461Y-83947283D01*
X130532896Y-84023980D01*
X130453434Y-84081714D01*
X130453432Y-84081716D01*
X130453431Y-84081716D01*
X130291716Y-84243431D01*
X130291716Y-84243432D01*
X130291714Y-84243434D01*
X130233980Y-84322896D01*
X130157283Y-84428461D01*
X130053450Y-84632244D01*
X129982778Y-84849750D01*
X129982778Y-84849753D01*
X129977319Y-84884219D01*
X129947000Y-85075646D01*
X129947000Y-85304354D01*
X129957649Y-85371588D01*
X129982778Y-85530246D01*
X129982778Y-85530249D01*
X130053450Y-85747755D01*
X130102887Y-85844780D01*
X130157283Y-85951538D01*
X130291714Y-86136566D01*
X130291716Y-86136568D01*
X130363181Y-86208033D01*
X130396666Y-86269356D01*
X130399500Y-86295714D01*
X130399500Y-87958544D01*
X130437947Y-88151828D01*
X130437950Y-88151840D01*
X130442278Y-88162287D01*
X130513366Y-88333911D01*
X130513371Y-88333920D01*
X130622860Y-88497781D01*
X130622863Y-88497785D01*
X130766537Y-88641459D01*
X130766559Y-88641479D01*
X135562899Y-93437819D01*
X135596384Y-93499142D01*
X135591400Y-93568834D01*
X135549528Y-93624767D01*
X135484064Y-93649184D01*
X135475218Y-93649500D01*
X130406345Y-93649500D01*
X130213058Y-93687947D01*
X130213048Y-93687950D01*
X130030980Y-93763364D01*
X130030967Y-93763371D01*
X129867106Y-93872860D01*
X129867102Y-93872863D01*
X129727751Y-94012214D01*
X129727748Y-94012218D01*
X129618259Y-94176079D01*
X129618252Y-94176092D01*
X129542838Y-94358160D01*
X129542835Y-94358170D01*
X129504388Y-94551456D01*
X129504388Y-96287769D01*
X129484703Y-96354808D01*
X129468070Y-96375450D01*
X129362175Y-96481345D01*
X129270075Y-96630663D01*
X129270074Y-96630666D01*
X129214889Y-96797203D01*
X129214889Y-96797204D01*
X129214888Y-96797204D01*
X129204388Y-96899983D01*
X129204388Y-97255791D01*
X129184703Y-97322830D01*
X129131899Y-97368585D01*
X129062741Y-97378529D01*
X128999185Y-97349504D01*
X128992707Y-97343472D01*
X125707142Y-94057907D01*
X125673657Y-93996584D01*
X125678641Y-93926892D01*
X125707142Y-93882545D01*
X125726121Y-93863566D01*
X125775269Y-93814418D01*
X125892353Y-93653266D01*
X125982785Y-93475783D01*
X126007903Y-93398477D01*
X126044338Y-93286343D01*
X126044338Y-93286342D01*
X126044339Y-93286339D01*
X126075500Y-93089597D01*
X126075500Y-92890403D01*
X126044339Y-92693661D01*
X126044338Y-92693657D01*
X126044338Y-92693656D01*
X125982786Y-92504219D01*
X125947280Y-92434534D01*
X125892353Y-92326734D01*
X125775269Y-92165582D01*
X125634418Y-92024731D01*
X125473266Y-91907647D01*
X125321827Y-91830485D01*
X125271031Y-91782510D01*
X125254236Y-91714689D01*
X125276773Y-91648554D01*
X125321827Y-91609515D01*
X125331116Y-91604781D01*
X125473266Y-91532353D01*
X125634418Y-91415269D01*
X125775269Y-91274418D01*
X125892353Y-91113266D01*
X125982785Y-90935783D01*
X126040317Y-90758717D01*
X126044338Y-90746343D01*
X126044338Y-90746342D01*
X126044339Y-90746339D01*
X126075500Y-90549597D01*
X126075500Y-90350403D01*
X126044339Y-90153661D01*
X126044338Y-90153657D01*
X126044338Y-90153656D01*
X125982786Y-89964219D01*
X125892352Y-89786733D01*
X125775269Y-89625582D01*
X125634418Y-89484731D01*
X125473266Y-89367647D01*
X125321827Y-89290485D01*
X125271031Y-89242510D01*
X125254236Y-89174689D01*
X125276773Y-89108554D01*
X125321827Y-89069515D01*
X125331116Y-89064781D01*
X125473266Y-88992353D01*
X125634418Y-88875269D01*
X125775269Y-88734418D01*
X125892353Y-88573266D01*
X125982785Y-88395783D01*
X125994275Y-88360421D01*
X126044338Y-88206343D01*
X126044338Y-88206342D01*
X126044339Y-88206339D01*
X126075500Y-88009597D01*
X126075500Y-87810403D01*
X126044339Y-87613661D01*
X126044338Y-87613657D01*
X126044338Y-87613656D01*
X125982786Y-87424219D01*
X125892352Y-87246733D01*
X125775269Y-87085582D01*
X125634418Y-86944731D01*
X125473266Y-86827647D01*
X125359707Y-86769786D01*
X125321827Y-86750485D01*
X125271031Y-86702510D01*
X125254236Y-86634689D01*
X125276773Y-86568554D01*
X125321827Y-86529515D01*
X125331116Y-86524781D01*
X125473266Y-86452353D01*
X125634418Y-86335269D01*
X125775269Y-86194418D01*
X125892353Y-86033266D01*
X125982785Y-85855783D01*
X126000716Y-85800597D01*
X126044338Y-85666343D01*
X126044338Y-85666342D01*
X126044339Y-85666339D01*
X126075500Y-85469597D01*
X126075500Y-85270403D01*
X126044339Y-85073661D01*
X126044338Y-85073657D01*
X126044338Y-85073656D01*
X125982786Y-84884219D01*
X125892352Y-84706733D01*
X125885109Y-84696764D01*
X125775269Y-84545582D01*
X125634418Y-84404731D01*
X125473266Y-84287647D01*
X125321827Y-84210485D01*
X125271031Y-84162510D01*
X125254236Y-84094689D01*
X125276773Y-84028554D01*
X125321827Y-83989515D01*
X125331116Y-83984781D01*
X125473266Y-83912353D01*
X125634418Y-83795269D01*
X125775269Y-83654418D01*
X125892353Y-83493266D01*
X125982785Y-83315783D01*
X126044339Y-83126339D01*
X126075500Y-82929597D01*
X126075500Y-82730403D01*
X126044339Y-82533661D01*
X126044338Y-82533657D01*
X126044338Y-82533656D01*
X125982786Y-82344219D01*
X125963956Y-82307263D01*
X125892353Y-82166734D01*
X125775269Y-82005582D01*
X125634418Y-81864731D01*
X125473266Y-81747647D01*
X125335569Y-81677487D01*
X125321827Y-81670485D01*
X125271031Y-81622510D01*
X125254236Y-81554689D01*
X125276773Y-81488554D01*
X125321827Y-81449515D01*
X125353556Y-81433348D01*
X125473266Y-81372353D01*
X125634418Y-81255269D01*
X125775269Y-81114418D01*
X125892353Y-80953266D01*
X125982785Y-80775783D01*
X126007989Y-80698213D01*
X126044338Y-80586343D01*
X126044338Y-80586342D01*
X126044339Y-80586339D01*
X126075500Y-80389597D01*
X126075500Y-80190403D01*
X126044339Y-79993661D01*
X126044338Y-79993657D01*
X126044338Y-79993656D01*
X125982786Y-79804219D01*
X125918050Y-79677167D01*
X125892353Y-79626734D01*
X125775269Y-79465582D01*
X125634418Y-79324731D01*
X125473266Y-79207647D01*
X125321827Y-79130485D01*
X125271031Y-79082510D01*
X125254236Y-79014689D01*
X125276773Y-78948554D01*
X125321827Y-78909515D01*
X125331116Y-78904781D01*
X125473266Y-78832353D01*
X125634418Y-78715269D01*
X125775269Y-78574418D01*
X125892353Y-78413266D01*
X125982785Y-78235783D01*
X126044339Y-78046339D01*
X126075500Y-77849597D01*
X126075500Y-77650403D01*
X126044339Y-77453661D01*
X126044338Y-77453657D01*
X126044338Y-77453656D01*
X125982786Y-77264219D01*
X125949338Y-77198573D01*
X125892353Y-77086734D01*
X125775269Y-76925582D01*
X125634418Y-76784731D01*
X125473266Y-76667647D01*
X125321827Y-76590485D01*
X125271031Y-76542510D01*
X125254236Y-76474689D01*
X125276773Y-76408554D01*
X125321827Y-76369515D01*
X125331116Y-76364781D01*
X125473266Y-76292353D01*
X125634418Y-76175269D01*
X125775269Y-76034418D01*
X125892353Y-75873266D01*
X125982785Y-75695783D01*
X126044339Y-75506339D01*
X126075500Y-75309597D01*
X126075500Y-75110403D01*
X126044339Y-74913661D01*
X126044338Y-74913657D01*
X126044338Y-74913656D01*
X125982786Y-74724219D01*
X125946367Y-74652743D01*
X125892353Y-74546734D01*
X125775269Y-74385582D01*
X125634418Y-74244731D01*
X125473266Y-74127647D01*
X125321827Y-74050485D01*
X125271031Y-74002510D01*
X125254236Y-73934689D01*
X125276773Y-73868554D01*
X125321827Y-73829515D01*
X125395868Y-73791789D01*
X125473266Y-73752353D01*
X125634418Y-73635269D01*
X125775269Y-73494418D01*
X125892353Y-73333266D01*
X125982785Y-73155783D01*
X126011239Y-73068211D01*
X126044338Y-72966343D01*
X126044338Y-72966342D01*
X126044339Y-72966339D01*
X126075500Y-72769597D01*
X126075500Y-72570403D01*
X126044339Y-72373661D01*
X126044338Y-72373657D01*
X126044338Y-72373656D01*
X125982786Y-72184219D01*
X125920773Y-72062512D01*
X125892353Y-72006734D01*
X125775269Y-71845582D01*
X125634418Y-71704731D01*
X125473266Y-71587647D01*
X125457277Y-71579500D01*
X125321277Y-71510204D01*
X125270481Y-71462229D01*
X125253686Y-71394408D01*
X125276224Y-71328273D01*
X125321277Y-71289234D01*
X125473005Y-71211924D01*
X125510863Y-71184418D01*
X125510863Y-71184417D01*
X124947574Y-70621128D01*
X125006853Y-70605245D01*
X125123147Y-70538102D01*
X125218102Y-70443147D01*
X125285245Y-70326853D01*
X125301128Y-70267574D01*
X125864417Y-70830863D01*
X125864418Y-70830863D01*
X125891924Y-70793005D01*
X125982320Y-70615594D01*
X126043852Y-70426222D01*
X126075000Y-70229563D01*
X126075000Y-70030437D01*
X126073312Y-70019781D01*
X126082266Y-69950488D01*
X126127262Y-69897035D01*
X126194013Y-69876395D01*
X126261327Y-69895119D01*
G37*
%TD.AperFunction*%
%TA.AperFunction,Conductor*%
G36*
X182092539Y-55550185D02*
G01*
X182138294Y-55602989D01*
X182149500Y-55654500D01*
X182149500Y-80365500D01*
X182129815Y-80432539D01*
X182077011Y-80478294D01*
X182025500Y-80489500D01*
X169241903Y-80489500D01*
X169008631Y-80526446D01*
X168784003Y-80599433D01*
X168573566Y-80706657D01*
X168464550Y-80785862D01*
X168382490Y-80845483D01*
X168382488Y-80845485D01*
X168382487Y-80845485D01*
X168215485Y-81012487D01*
X168215485Y-81012488D01*
X168215483Y-81012490D01*
X168155862Y-81094550D01*
X168076657Y-81203566D01*
X167969433Y-81414003D01*
X167896446Y-81638631D01*
X167859500Y-81871902D01*
X167859500Y-82108097D01*
X167896446Y-82341368D01*
X167969433Y-82565996D01*
X168076657Y-82776433D01*
X168215483Y-82967510D01*
X168382490Y-83134517D01*
X168474387Y-83201284D01*
X168563917Y-83266332D01*
X168606582Y-83321662D01*
X168612561Y-83391276D01*
X168579955Y-83453071D01*
X168563917Y-83466967D01*
X168493113Y-83518410D01*
X168493104Y-83518417D01*
X168348417Y-83663104D01*
X168348417Y-83663105D01*
X168228140Y-83828650D01*
X168135244Y-84010970D01*
X168072009Y-84205586D01*
X168063391Y-84260000D01*
X169024314Y-84260000D01*
X169019920Y-84264394D01*
X168967259Y-84355606D01*
X168940000Y-84457339D01*
X168940000Y-84562661D01*
X168967259Y-84664394D01*
X169019920Y-84755606D01*
X169024314Y-84760000D01*
X168063391Y-84760000D01*
X168072009Y-84814413D01*
X168135244Y-85009029D01*
X168228140Y-85191349D01*
X168348417Y-85356894D01*
X168348417Y-85356895D01*
X168493104Y-85501582D01*
X168658652Y-85621861D01*
X168751628Y-85669234D01*
X168802425Y-85717208D01*
X168819220Y-85785029D01*
X168796683Y-85851164D01*
X168751630Y-85890203D01*
X168658388Y-85937713D01*
X168492786Y-86058028D01*
X168348028Y-86202786D01*
X168227715Y-86368386D01*
X168134781Y-86550776D01*
X168071522Y-86745465D01*
X168039500Y-86947648D01*
X168039500Y-87152351D01*
X168071522Y-87354534D01*
X168134781Y-87549223D01*
X168198691Y-87674653D01*
X168222910Y-87722184D01*
X168227715Y-87731613D01*
X168348028Y-87897213D01*
X168492786Y-88041971D01*
X168629552Y-88141335D01*
X168658390Y-88162287D01*
X168744617Y-88206222D01*
X168751080Y-88209515D01*
X168801876Y-88257490D01*
X168818671Y-88325311D01*
X168796134Y-88391446D01*
X168751080Y-88430485D01*
X168658386Y-88477715D01*
X168492786Y-88598028D01*
X168348028Y-88742786D01*
X168227715Y-88908386D01*
X168134781Y-89090776D01*
X168071522Y-89285465D01*
X168039500Y-89487648D01*
X168039500Y-89692351D01*
X168071522Y-89894534D01*
X168134781Y-90089223D01*
X168187848Y-90193371D01*
X168222910Y-90262184D01*
X168227715Y-90271613D01*
X168348028Y-90437213D01*
X168492786Y-90581971D01*
X168647749Y-90694556D01*
X168658390Y-90702287D01*
X168744847Y-90746339D01*
X168751080Y-90749515D01*
X168801876Y-90797490D01*
X168818671Y-90865311D01*
X168796134Y-90931446D01*
X168751080Y-90970485D01*
X168658386Y-91017715D01*
X168492786Y-91138028D01*
X168348028Y-91282786D01*
X168227715Y-91448386D01*
X168134781Y-91630776D01*
X168071522Y-91825465D01*
X168039500Y-92027648D01*
X168039500Y-92232351D01*
X168071522Y-92434534D01*
X168134781Y-92629223D01*
X168227715Y-92811613D01*
X168348028Y-92977213D01*
X168492786Y-93121971D01*
X168647749Y-93234556D01*
X168658390Y-93242287D01*
X168729878Y-93278712D01*
X168751080Y-93289515D01*
X168801876Y-93337490D01*
X168818671Y-93405311D01*
X168796134Y-93471446D01*
X168751080Y-93510485D01*
X168658386Y-93557715D01*
X168492786Y-93678028D01*
X168348028Y-93822786D01*
X168227715Y-93988386D01*
X168134781Y-94170776D01*
X168071522Y-94365465D01*
X168039500Y-94567648D01*
X168039500Y-94772351D01*
X168071522Y-94974534D01*
X168134781Y-95169223D01*
X168227715Y-95351613D01*
X168348028Y-95517213D01*
X168492786Y-95661971D01*
X168624250Y-95757483D01*
X168658390Y-95782287D01*
X168744847Y-95826339D01*
X168751080Y-95829515D01*
X168801876Y-95877490D01*
X168818671Y-95945311D01*
X168796134Y-96011446D01*
X168751080Y-96050485D01*
X168658386Y-96097715D01*
X168537123Y-96185818D01*
X168471317Y-96209298D01*
X168464238Y-96209500D01*
X167435783Y-96209500D01*
X167368744Y-96189815D01*
X167348102Y-96173181D01*
X160134209Y-88959289D01*
X160134206Y-88959285D01*
X160134206Y-88959286D01*
X160127139Y-88952219D01*
X160127139Y-88952218D01*
X159987782Y-88812861D01*
X159987781Y-88812860D01*
X159987780Y-88812859D01*
X159823920Y-88703371D01*
X159823907Y-88703364D01*
X159672520Y-88640658D01*
X159672514Y-88640656D01*
X159664022Y-88637139D01*
X159641836Y-88627949D01*
X159545188Y-88608724D01*
X159542252Y-88608140D01*
X159542248Y-88608139D01*
X159448544Y-88589500D01*
X159448541Y-88589500D01*
X157764500Y-88589500D01*
X157697461Y-88569815D01*
X157651706Y-88517011D01*
X157640500Y-88465500D01*
X157640500Y-87925761D01*
X157660185Y-87858722D01*
X157664165Y-87852899D01*
X157752287Y-87731610D01*
X157845220Y-87549219D01*
X157908477Y-87354534D01*
X157940500Y-87152352D01*
X157940500Y-86947648D01*
X157908477Y-86745466D01*
X157845220Y-86550781D01*
X157845218Y-86550778D01*
X157845218Y-86550776D01*
X157785063Y-86432717D01*
X157752287Y-86368390D01*
X157701352Y-86298283D01*
X157664182Y-86247122D01*
X157640702Y-86181316D01*
X157640500Y-86174237D01*
X157640500Y-85385761D01*
X157660185Y-85318722D01*
X157664165Y-85312899D01*
X157752287Y-85191610D01*
X157845220Y-85009219D01*
X157908477Y-84814534D01*
X157931925Y-84666483D01*
X157961854Y-84603350D01*
X157966699Y-84598219D01*
X162597778Y-79967141D01*
X162597782Y-79967139D01*
X162737139Y-79827782D01*
X162846632Y-79663914D01*
X162922051Y-79481835D01*
X162953301Y-79324733D01*
X162960500Y-79288543D01*
X162960500Y-75895782D01*
X162980185Y-75828743D01*
X162996819Y-75808101D01*
X167638101Y-71166819D01*
X167699424Y-71133334D01*
X167725782Y-71130500D01*
X168629295Y-71130500D01*
X168696334Y-71150185D01*
X168742089Y-71202989D01*
X168752033Y-71272147D01*
X168723008Y-71335703D01*
X168664230Y-71373477D01*
X168657806Y-71375178D01*
X168652620Y-71376403D01*
X168517913Y-71426645D01*
X168517906Y-71426649D01*
X168402812Y-71512809D01*
X168402809Y-71512812D01*
X168316649Y-71627906D01*
X168316645Y-71627913D01*
X168266403Y-71762620D01*
X168266401Y-71762627D01*
X168260000Y-71822155D01*
X168260000Y-72420000D01*
X169244314Y-72420000D01*
X169239920Y-72424394D01*
X169187259Y-72515606D01*
X169160000Y-72617339D01*
X169160000Y-72722661D01*
X169187259Y-72824394D01*
X169239920Y-72915606D01*
X169244314Y-72920000D01*
X168260000Y-72920000D01*
X168260000Y-73517844D01*
X168266401Y-73577372D01*
X168266403Y-73577379D01*
X168316645Y-73712086D01*
X168316649Y-73712093D01*
X168402809Y-73827187D01*
X168402812Y-73827190D01*
X168517906Y-73913350D01*
X168517913Y-73913354D01*
X168652620Y-73963596D01*
X168652627Y-73963598D01*
X168712155Y-73969999D01*
X168712172Y-73970000D01*
X169310000Y-73970000D01*
X169310000Y-72985686D01*
X169314394Y-72990080D01*
X169405606Y-73042741D01*
X169507339Y-73070000D01*
X169612661Y-73070000D01*
X169714394Y-73042741D01*
X169805606Y-72990080D01*
X169810000Y-72985686D01*
X169810000Y-73970000D01*
X170407828Y-73970000D01*
X170407844Y-73969999D01*
X170467372Y-73963598D01*
X170467379Y-73963596D01*
X170602086Y-73913354D01*
X170602093Y-73913350D01*
X170717187Y-73827190D01*
X170717190Y-73827187D01*
X170803350Y-73712093D01*
X170803354Y-73712086D01*
X170853596Y-73577379D01*
X170853598Y-73577372D01*
X170859999Y-73517844D01*
X170860000Y-73517827D01*
X170860000Y-72920000D01*
X169875686Y-72920000D01*
X169880080Y-72915606D01*
X169932741Y-72824394D01*
X169960000Y-72722661D01*
X169960000Y-72617339D01*
X169932741Y-72515606D01*
X169880080Y-72424394D01*
X169875686Y-72420000D01*
X170860000Y-72420000D01*
X170860000Y-71822172D01*
X170859999Y-71822155D01*
X170853598Y-71762627D01*
X170853596Y-71762620D01*
X170803354Y-71627913D01*
X170803350Y-71627906D01*
X170717190Y-71512812D01*
X170717187Y-71512809D01*
X170602093Y-71426649D01*
X170602086Y-71426645D01*
X170467379Y-71376403D01*
X170467373Y-71376401D01*
X170429953Y-71372378D01*
X170365402Y-71345639D01*
X170325555Y-71288246D01*
X170323062Y-71218421D01*
X170358716Y-71158333D01*
X170370326Y-71148770D01*
X170407215Y-71121969D01*
X170407215Y-71121968D01*
X170407219Y-71121966D01*
X170551966Y-70977219D01*
X170551968Y-70977215D01*
X170551971Y-70977213D01*
X170654358Y-70836287D01*
X170672287Y-70811610D01*
X170765220Y-70629219D01*
X170828477Y-70434534D01*
X170860500Y-70232352D01*
X170860500Y-70027648D01*
X170839509Y-69895119D01*
X170828477Y-69825465D01*
X170787675Y-69699890D01*
X170765220Y-69630781D01*
X170765218Y-69630778D01*
X170765218Y-69630776D01*
X170710054Y-69522512D01*
X170672287Y-69448390D01*
X170635490Y-69397743D01*
X170551971Y-69282786D01*
X170407213Y-69138028D01*
X170241614Y-69017715D01*
X170235006Y-69014348D01*
X170148917Y-68970483D01*
X170098123Y-68922511D01*
X170081328Y-68854690D01*
X170103865Y-68788555D01*
X170148917Y-68749516D01*
X170241610Y-68702287D01*
X170282812Y-68672352D01*
X170407213Y-68581971D01*
X170407215Y-68581968D01*
X170407219Y-68581966D01*
X170551966Y-68437219D01*
X170551968Y-68437215D01*
X170551971Y-68437213D01*
X170654358Y-68296287D01*
X170672287Y-68271610D01*
X170765220Y-68089219D01*
X170805465Y-67965357D01*
X170844901Y-67907684D01*
X170909260Y-67880485D01*
X170978106Y-67892400D01*
X171011076Y-67915996D01*
X171803181Y-68708101D01*
X171836666Y-68769424D01*
X171839500Y-68795782D01*
X171839500Y-71928541D01*
X171839500Y-71928543D01*
X171839499Y-71928543D01*
X171877947Y-72121829D01*
X171877950Y-72121839D01*
X171953364Y-72303907D01*
X171953371Y-72303920D01*
X172062860Y-72467781D01*
X172062863Y-72467785D01*
X172206537Y-72611459D01*
X172206559Y-72611479D01*
X175433181Y-75838101D01*
X175466666Y-75899424D01*
X175469500Y-75925782D01*
X175469500Y-76707870D01*
X175469501Y-76707876D01*
X175475908Y-76767483D01*
X175526202Y-76902328D01*
X175526206Y-76902335D01*
X175612452Y-77017544D01*
X175612455Y-77017547D01*
X175727664Y-77103793D01*
X175727671Y-77103797D01*
X175862517Y-77154091D01*
X175862516Y-77154091D01*
X175869444Y-77154835D01*
X175922127Y-77160500D01*
X177717872Y-77160499D01*
X177777483Y-77154091D01*
X177912331Y-77103796D01*
X178027546Y-77017546D01*
X178113796Y-76902331D01*
X178164091Y-76767483D01*
X178170500Y-76707873D01*
X178170499Y-74912128D01*
X178164091Y-74852517D01*
X178141601Y-74792219D01*
X178113797Y-74717671D01*
X178113793Y-74717664D01*
X178027547Y-74602455D01*
X178027544Y-74602452D01*
X177912335Y-74516206D01*
X177912328Y-74516202D01*
X177780917Y-74467189D01*
X177724983Y-74425318D01*
X177700566Y-74359853D01*
X177715418Y-74291580D01*
X177736563Y-74263332D01*
X177850104Y-74149792D01*
X177975051Y-73977816D01*
X178071557Y-73788412D01*
X178137246Y-73586243D01*
X178170500Y-73376287D01*
X178170500Y-73163713D01*
X178137246Y-72953757D01*
X178071557Y-72751588D01*
X177975051Y-72562184D01*
X177975049Y-72562181D01*
X177975048Y-72562179D01*
X177850109Y-72390213D01*
X177699786Y-72239890D01*
X177527820Y-72114951D01*
X177527115Y-72114591D01*
X177519054Y-72110485D01*
X177468259Y-72062512D01*
X177451463Y-71994692D01*
X177473999Y-71928556D01*
X177519054Y-71889515D01*
X177527816Y-71885051D01*
X177613524Y-71822781D01*
X177699786Y-71760109D01*
X177699788Y-71760106D01*
X177699792Y-71760104D01*
X177850104Y-71609792D01*
X177850106Y-71609788D01*
X177850109Y-71609786D01*
X177975048Y-71437820D01*
X177975047Y-71437820D01*
X177975051Y-71437816D01*
X178071557Y-71248412D01*
X178137246Y-71046243D01*
X178170500Y-70836287D01*
X178170500Y-70623713D01*
X178165011Y-70589060D01*
X178141901Y-70443147D01*
X178137246Y-70413757D01*
X178071557Y-70211588D01*
X177975051Y-70022184D01*
X177975049Y-70022181D01*
X177975048Y-70022179D01*
X177850109Y-69850213D01*
X177699786Y-69699890D01*
X177527820Y-69574951D01*
X177527115Y-69574591D01*
X177519054Y-69570485D01*
X177468259Y-69522512D01*
X177451463Y-69454692D01*
X177473999Y-69388556D01*
X177519054Y-69349515D01*
X177527816Y-69345051D01*
X177613524Y-69282781D01*
X177699786Y-69220109D01*
X177699788Y-69220106D01*
X177699792Y-69220104D01*
X177850104Y-69069792D01*
X177850106Y-69069788D01*
X177850109Y-69069786D01*
X177975048Y-68897820D01*
X177975047Y-68897820D01*
X177975051Y-68897816D01*
X178071557Y-68708412D01*
X178137246Y-68506243D01*
X178170500Y-68296287D01*
X178170500Y-68083713D01*
X178137246Y-67873757D01*
X178071557Y-67671588D01*
X177975051Y-67482184D01*
X177975049Y-67482181D01*
X177975048Y-67482179D01*
X177847241Y-67306266D01*
X177848108Y-67305635D01*
X177821641Y-67246581D01*
X177820500Y-67229800D01*
X177820500Y-64614675D01*
X177820501Y-64614654D01*
X177820501Y-64411457D01*
X177820500Y-64411455D01*
X177809824Y-64357782D01*
X177782052Y-64218165D01*
X177706632Y-64036086D01*
X177706631Y-64036085D01*
X177706628Y-64036079D01*
X177597140Y-63872219D01*
X177597137Y-63872215D01*
X174324817Y-60599896D01*
X173185417Y-59460497D01*
X173064209Y-59339289D01*
X173064207Y-59339286D01*
X173064206Y-59339285D01*
X173064206Y-59339286D01*
X173057139Y-59332219D01*
X173057139Y-59332218D01*
X172917782Y-59192861D01*
X172917781Y-59192860D01*
X172917780Y-59192859D01*
X172753920Y-59083371D01*
X172753911Y-59083366D01*
X172668751Y-59048092D01*
X172625165Y-59030038D01*
X172571836Y-59007949D01*
X172571832Y-59007948D01*
X172571828Y-59007946D01*
X172475188Y-58988724D01*
X172378544Y-58969500D01*
X172378541Y-58969500D01*
X170435762Y-58969500D01*
X170368723Y-58949815D01*
X170362877Y-58945818D01*
X170241611Y-58857713D01*
X170148369Y-58810203D01*
X170097574Y-58762229D01*
X170080779Y-58694407D01*
X170103317Y-58628273D01*
X170148371Y-58589234D01*
X170241347Y-58541861D01*
X170406894Y-58421582D01*
X170406895Y-58421582D01*
X170551582Y-58276895D01*
X170551582Y-58276894D01*
X170671859Y-58111349D01*
X170764755Y-57929029D01*
X170827990Y-57734413D01*
X170836609Y-57680000D01*
X169875686Y-57680000D01*
X169880080Y-57675606D01*
X169932741Y-57584394D01*
X169960000Y-57482661D01*
X169960000Y-57377339D01*
X169932741Y-57275606D01*
X169880080Y-57184394D01*
X169875686Y-57180000D01*
X170836609Y-57180000D01*
X170827990Y-57125586D01*
X170764755Y-56930970D01*
X170671859Y-56748650D01*
X170554693Y-56587386D01*
X170531213Y-56521580D01*
X170547038Y-56453526D01*
X170597144Y-56404831D01*
X170655011Y-56390500D01*
X174637111Y-56390500D01*
X174704150Y-56410185D01*
X174724792Y-56426819D01*
X175781760Y-57483788D01*
X175812009Y-57533148D01*
X175819432Y-57555993D01*
X175880378Y-57675606D01*
X175926657Y-57766433D01*
X175954047Y-57804132D01*
X175971433Y-57838010D01*
X175975184Y-57849331D01*
X175975186Y-57849334D01*
X176067288Y-57998656D01*
X176191344Y-58122712D01*
X176323297Y-58204101D01*
X176340668Y-58214815D01*
X176340672Y-58214816D01*
X176351984Y-58218565D01*
X176352834Y-58218995D01*
X176353327Y-58219018D01*
X176369058Y-58227205D01*
X176384727Y-58235134D01*
X176385316Y-58235552D01*
X176423567Y-58263343D01*
X176426851Y-58265016D01*
X176433758Y-58269916D01*
X176452919Y-58294192D01*
X176473675Y-58317131D01*
X176474502Y-58321536D01*
X176477047Y-58324760D01*
X176479131Y-58346178D01*
X176485631Y-58380782D01*
X176484077Y-58400524D01*
X177163554Y-59080000D01*
X177157339Y-59080000D01*
X177055606Y-59107259D01*
X176964394Y-59159920D01*
X176889920Y-59234394D01*
X176837259Y-59325606D01*
X176810000Y-59427339D01*
X176810000Y-59433553D01*
X176130524Y-58754077D01*
X176130523Y-58754077D01*
X176098143Y-58798644D01*
X176005244Y-58980968D01*
X175942009Y-59175582D01*
X175910000Y-59377682D01*
X175910000Y-59582317D01*
X175942009Y-59784417D01*
X176005244Y-59979031D01*
X176098141Y-60161350D01*
X176098147Y-60161359D01*
X176130523Y-60205921D01*
X176130524Y-60205922D01*
X176810000Y-59526446D01*
X176810000Y-59532661D01*
X176837259Y-59634394D01*
X176889920Y-59725606D01*
X176964394Y-59800080D01*
X177055606Y-59852741D01*
X177157339Y-59880000D01*
X177163553Y-59880000D01*
X176484076Y-60559474D01*
X176528650Y-60591859D01*
X176710968Y-60684755D01*
X176905582Y-60747990D01*
X177107683Y-60780000D01*
X177312317Y-60780000D01*
X177514417Y-60747990D01*
X177709031Y-60684755D01*
X177891349Y-60591859D01*
X177935921Y-60559474D01*
X177256447Y-59880000D01*
X177262661Y-59880000D01*
X177364394Y-59852741D01*
X177455606Y-59800080D01*
X177530080Y-59725606D01*
X177582741Y-59634394D01*
X177610000Y-59532661D01*
X177610000Y-59526447D01*
X178289474Y-60205921D01*
X178321859Y-60161349D01*
X178414755Y-59979031D01*
X178477990Y-59784417D01*
X178510000Y-59582317D01*
X178510000Y-59377682D01*
X178477990Y-59175582D01*
X178414755Y-58980968D01*
X178321859Y-58798650D01*
X178289474Y-58754077D01*
X178289474Y-58754076D01*
X177610000Y-59433551D01*
X177610000Y-59427339D01*
X177582741Y-59325606D01*
X177530080Y-59234394D01*
X177455606Y-59159920D01*
X177364394Y-59107259D01*
X177262661Y-59080000D01*
X177256446Y-59080000D01*
X177935921Y-58400525D01*
X177934368Y-58380782D01*
X177936647Y-58369932D01*
X177934569Y-58359045D01*
X177943701Y-58336350D01*
X177948732Y-58312405D01*
X177957196Y-58302816D01*
X177960653Y-58294227D01*
X177979751Y-58277267D01*
X177986240Y-58269917D01*
X177993146Y-58265017D01*
X177996433Y-58263343D01*
X178034718Y-58235526D01*
X178035270Y-58235135D01*
X178036650Y-58234659D01*
X178068016Y-58218564D01*
X178079334Y-58214814D01*
X178228656Y-58122712D01*
X178352712Y-57998656D01*
X178444814Y-57849334D01*
X178448564Y-57838015D01*
X178465952Y-57804131D01*
X178493343Y-57766433D01*
X178600568Y-57555992D01*
X178673553Y-57331368D01*
X178682599Y-57274252D01*
X178710500Y-57098097D01*
X178710500Y-56602889D01*
X178730185Y-56535850D01*
X178746819Y-56515208D01*
X179695209Y-55566819D01*
X179756532Y-55533334D01*
X179782890Y-55530500D01*
X182025500Y-55530500D01*
X182092539Y-55550185D01*
G37*
%TD.AperFunction*%
%TA.AperFunction,Conductor*%
G36*
X123633595Y-54108153D02*
G01*
X123689528Y-54150025D01*
X123713945Y-54215489D01*
X123700746Y-54280630D01*
X123637679Y-54404405D01*
X123576147Y-54593777D01*
X123545000Y-54790436D01*
X123545000Y-54989563D01*
X123576147Y-55186222D01*
X123637679Y-55375594D01*
X123728077Y-55553008D01*
X123755580Y-55590863D01*
X123755581Y-55590864D01*
X124318871Y-55027574D01*
X124334755Y-55086853D01*
X124401898Y-55203147D01*
X124496853Y-55298102D01*
X124613147Y-55365245D01*
X124672425Y-55381128D01*
X124109134Y-55944417D01*
X124146994Y-55971924D01*
X124298722Y-56049234D01*
X124349518Y-56097209D01*
X124366313Y-56165030D01*
X124343776Y-56231165D01*
X124298723Y-56270203D01*
X124146735Y-56347645D01*
X124068027Y-56404831D01*
X123985582Y-56464731D01*
X123985580Y-56464733D01*
X123985579Y-56464733D01*
X123844733Y-56605579D01*
X123844733Y-56605580D01*
X123844731Y-56605582D01*
X123794447Y-56674790D01*
X123727647Y-56766733D01*
X123637213Y-56944219D01*
X123575661Y-57133656D01*
X123575661Y-57133659D01*
X123567251Y-57186758D01*
X123544500Y-57330403D01*
X123544500Y-57529597D01*
X123552633Y-57580945D01*
X123575661Y-57726340D01*
X123575661Y-57726343D01*
X123637213Y-57915780D01*
X123679441Y-57998656D01*
X123727647Y-58093266D01*
X123844731Y-58254418D01*
X123985582Y-58395269D01*
X124146734Y-58512353D01*
X124204647Y-58541861D01*
X124298172Y-58589515D01*
X124348968Y-58637490D01*
X124365763Y-58705311D01*
X124343225Y-58771446D01*
X124298172Y-58810485D01*
X124146733Y-58887647D01*
X124066669Y-58945818D01*
X123985582Y-59004731D01*
X123985580Y-59004733D01*
X123985579Y-59004733D01*
X123844733Y-59145579D01*
X123844733Y-59145580D01*
X123844731Y-59145582D01*
X123822935Y-59175582D01*
X123727647Y-59306733D01*
X123637213Y-59484219D01*
X123575661Y-59673656D01*
X123575661Y-59673659D01*
X123558119Y-59784417D01*
X123544500Y-59870403D01*
X123544500Y-60069597D01*
X123545547Y-60076206D01*
X123575661Y-60266340D01*
X123575661Y-60266343D01*
X123637213Y-60455780D01*
X123690048Y-60559474D01*
X123727647Y-60633266D01*
X123844731Y-60794418D01*
X123985582Y-60935269D01*
X124146734Y-61052353D01*
X124205477Y-61082284D01*
X124298172Y-61129515D01*
X124348968Y-61177490D01*
X124365763Y-61245311D01*
X124343225Y-61311446D01*
X124298172Y-61350485D01*
X124146733Y-61427647D01*
X124066669Y-61485818D01*
X123985582Y-61544731D01*
X123985580Y-61544733D01*
X123985579Y-61544733D01*
X123844733Y-61685579D01*
X123844733Y-61685580D01*
X123844731Y-61685582D01*
X123810381Y-61732861D01*
X123727647Y-61846733D01*
X123637213Y-62024219D01*
X123575661Y-62213656D01*
X123575661Y-62213659D01*
X123553510Y-62353515D01*
X123544500Y-62410403D01*
X123544500Y-62609597D01*
X123550426Y-62647011D01*
X123575661Y-62806340D01*
X123575661Y-62806343D01*
X123637213Y-62995780D01*
X123637215Y-62995783D01*
X123727647Y-63173266D01*
X123844731Y-63334418D01*
X123985582Y-63475269D01*
X124146734Y-63592353D01*
X124205477Y-63622284D01*
X124298172Y-63669515D01*
X124348968Y-63717490D01*
X124365763Y-63785311D01*
X124343225Y-63851446D01*
X124298172Y-63890485D01*
X124146733Y-63967647D01*
X124054790Y-64034447D01*
X123985582Y-64084731D01*
X123985580Y-64084733D01*
X123985579Y-64084733D01*
X123844733Y-64225579D01*
X123844733Y-64225580D01*
X123844731Y-64225582D01*
X123794447Y-64294790D01*
X123727647Y-64386733D01*
X123637213Y-64564219D01*
X123575661Y-64753656D01*
X123575661Y-64753659D01*
X123552408Y-64900474D01*
X123544500Y-64950403D01*
X123544500Y-65149597D01*
X123552714Y-65201456D01*
X123575661Y-65346340D01*
X123575661Y-65346343D01*
X123637213Y-65535780D01*
X123727647Y-65713266D01*
X123844731Y-65874418D01*
X123985582Y-66015269D01*
X124146734Y-66132353D01*
X124205477Y-66162284D01*
X124298172Y-66209515D01*
X124348968Y-66257490D01*
X124365763Y-66325311D01*
X124343225Y-66391446D01*
X124298172Y-66430485D01*
X124146733Y-66507647D01*
X124054790Y-66574447D01*
X123985582Y-66624731D01*
X123985580Y-66624733D01*
X123985579Y-66624733D01*
X123844733Y-66765579D01*
X123844733Y-66765580D01*
X123844731Y-66765582D01*
X123794447Y-66834790D01*
X123727647Y-66926733D01*
X123637213Y-67104219D01*
X123575661Y-67293656D01*
X123575661Y-67293659D01*
X123573040Y-67310208D01*
X123544500Y-67490403D01*
X123544500Y-67689597D01*
X123550028Y-67724499D01*
X123575661Y-67886340D01*
X123575661Y-67886343D01*
X123637213Y-68075780D01*
X123644061Y-68089219D01*
X123727647Y-68253266D01*
X123844731Y-68414418D01*
X123985582Y-68555269D01*
X124146734Y-68672353D01*
X124217504Y-68708412D01*
X124298722Y-68749795D01*
X124349518Y-68797770D01*
X124366313Y-68865591D01*
X124343776Y-68931726D01*
X124298723Y-68970764D01*
X124146993Y-69048075D01*
X124109135Y-69075580D01*
X124109135Y-69075581D01*
X124672425Y-69638871D01*
X124613147Y-69654755D01*
X124496853Y-69721898D01*
X124401898Y-69816853D01*
X124334755Y-69933147D01*
X124318871Y-69992425D01*
X123755581Y-69429135D01*
X123755580Y-69429135D01*
X123728077Y-69466990D01*
X123637679Y-69644405D01*
X123576147Y-69833777D01*
X123545000Y-70030436D01*
X123545000Y-70229563D01*
X123576147Y-70426222D01*
X123637679Y-70615594D01*
X123728077Y-70793008D01*
X123755580Y-70830863D01*
X123755581Y-70830864D01*
X124318871Y-70267574D01*
X124334755Y-70326853D01*
X124401898Y-70443147D01*
X124496853Y-70538102D01*
X124613147Y-70605245D01*
X124672425Y-70621128D01*
X124109134Y-71184417D01*
X124146994Y-71211924D01*
X124298722Y-71289234D01*
X124349518Y-71337209D01*
X124366313Y-71405030D01*
X124343776Y-71471165D01*
X124298723Y-71510203D01*
X124146735Y-71587645D01*
X124033997Y-71669555D01*
X123985582Y-71704731D01*
X123985580Y-71704733D01*
X123985579Y-71704733D01*
X123844733Y-71845579D01*
X123844733Y-71845580D01*
X123844731Y-71845582D01*
X123812811Y-71889516D01*
X123727647Y-72006733D01*
X123637213Y-72184219D01*
X123575661Y-72373656D01*
X123575661Y-72373659D01*
X123560753Y-72467785D01*
X123544500Y-72570403D01*
X123544500Y-72769597D01*
X123553179Y-72824394D01*
X123575661Y-72966340D01*
X123575661Y-72966343D01*
X123637213Y-73155780D01*
X123644061Y-73169219D01*
X123727647Y-73333266D01*
X123844731Y-73494418D01*
X123985582Y-73635269D01*
X124146734Y-73752353D01*
X124205477Y-73782284D01*
X124298172Y-73829515D01*
X124348968Y-73877490D01*
X124365763Y-73945311D01*
X124343225Y-74011446D01*
X124298172Y-74050485D01*
X124146733Y-74127647D01*
X124054790Y-74194447D01*
X123985582Y-74244731D01*
X123985580Y-74244733D01*
X123985579Y-74244733D01*
X123844733Y-74385579D01*
X123844733Y-74385580D01*
X123844731Y-74385582D01*
X123816055Y-74425051D01*
X123727647Y-74546733D01*
X123637213Y-74724219D01*
X123575661Y-74913656D01*
X123575661Y-74913659D01*
X123544500Y-75110403D01*
X123544500Y-75309596D01*
X123575661Y-75506340D01*
X123575661Y-75506343D01*
X123637213Y-75695780D01*
X123712949Y-75844420D01*
X123727647Y-75873266D01*
X123844731Y-76034418D01*
X123985582Y-76175269D01*
X124146734Y-76292353D01*
X124216453Y-76327877D01*
X124298172Y-76369515D01*
X124348968Y-76417490D01*
X124365763Y-76485311D01*
X124343225Y-76551446D01*
X124298172Y-76590485D01*
X124146733Y-76667647D01*
X124091354Y-76707883D01*
X123985582Y-76784731D01*
X123985580Y-76784733D01*
X123985579Y-76784733D01*
X123844733Y-76925579D01*
X123844733Y-76925580D01*
X123844731Y-76925582D01*
X123833337Y-76941265D01*
X123727647Y-77086733D01*
X123637213Y-77264219D01*
X123575661Y-77453656D01*
X123575661Y-77453659D01*
X123544500Y-77650403D01*
X123544500Y-77849596D01*
X123575661Y-78046340D01*
X123575661Y-78046343D01*
X123637213Y-78235780D01*
X123637215Y-78235783D01*
X123727647Y-78413266D01*
X123844731Y-78574418D01*
X123985582Y-78715269D01*
X124146734Y-78832353D01*
X124216453Y-78867877D01*
X124298172Y-78909515D01*
X124348968Y-78957490D01*
X124365763Y-79025311D01*
X124343225Y-79091446D01*
X124298172Y-79130485D01*
X124146733Y-79207647D01*
X124054790Y-79274447D01*
X123985582Y-79324731D01*
X123985580Y-79324733D01*
X123985579Y-79324733D01*
X123844733Y-79465579D01*
X123844733Y-79465580D01*
X123844731Y-79465582D01*
X123832920Y-79481839D01*
X123727647Y-79626733D01*
X123725466Y-79630293D01*
X123673652Y-79677167D01*
X123619740Y-79689500D01*
X122530097Y-79689500D01*
X122463058Y-79669815D01*
X122442416Y-79653181D01*
X119766819Y-76977584D01*
X119733334Y-76916261D01*
X119730500Y-76889903D01*
X119730500Y-57960096D01*
X119750185Y-57893057D01*
X119766814Y-57872420D01*
X123502581Y-54136653D01*
X123563903Y-54103169D01*
X123633595Y-54108153D01*
G37*
%TD.AperFunction*%
%TA.AperFunction,Conductor*%
G36*
X164674150Y-52130185D02*
G01*
X164694792Y-52146819D01*
X168582490Y-56034517D01*
X168773566Y-56173343D01*
X168773572Y-56173347D01*
X168777718Y-56175888D01*
X168776947Y-56177145D01*
X168822967Y-56220592D01*
X168839774Y-56288410D01*
X168817248Y-56354549D01*
X168788773Y-56383439D01*
X168713113Y-56438410D01*
X168713104Y-56438417D01*
X168568417Y-56583104D01*
X168568417Y-56583105D01*
X168448140Y-56748650D01*
X168355244Y-56930970D01*
X168292009Y-57125586D01*
X168283391Y-57180000D01*
X169244314Y-57180000D01*
X169239920Y-57184394D01*
X169187259Y-57275606D01*
X169160000Y-57377339D01*
X169160000Y-57482661D01*
X169187259Y-57584394D01*
X169239920Y-57675606D01*
X169244314Y-57680000D01*
X168283391Y-57680000D01*
X168292009Y-57734413D01*
X168355244Y-57929029D01*
X168448140Y-58111349D01*
X168568417Y-58276894D01*
X168568417Y-58276895D01*
X168713104Y-58421582D01*
X168878652Y-58541861D01*
X168971628Y-58589234D01*
X169022425Y-58637208D01*
X169039220Y-58705029D01*
X169016683Y-58771164D01*
X168971630Y-58810203D01*
X168878388Y-58857713D01*
X168712786Y-58978028D01*
X168568028Y-59122786D01*
X168447715Y-59288386D01*
X168354781Y-59470776D01*
X168291522Y-59665465D01*
X168270202Y-59800080D01*
X168259500Y-59867648D01*
X168259500Y-60072352D01*
X168263878Y-60099995D01*
X168291522Y-60274534D01*
X168354781Y-60469223D01*
X168400767Y-60559474D01*
X168438366Y-60633266D01*
X168447715Y-60651613D01*
X168568028Y-60817213D01*
X168712786Y-60961971D01*
X168837189Y-61052353D01*
X168878390Y-61082287D01*
X168969840Y-61128883D01*
X168971080Y-61129515D01*
X169021876Y-61177490D01*
X169038671Y-61245311D01*
X169016134Y-61311446D01*
X168971080Y-61350485D01*
X168878386Y-61397715D01*
X168712786Y-61518028D01*
X168568028Y-61662786D01*
X168447715Y-61828386D01*
X168354781Y-62010776D01*
X168291522Y-62205465D01*
X168259500Y-62407648D01*
X168259500Y-62612351D01*
X168291522Y-62814534D01*
X168354781Y-63009223D01*
X168418691Y-63134653D01*
X168438366Y-63173266D01*
X168447715Y-63191613D01*
X168568028Y-63357213D01*
X168712786Y-63501971D01*
X168837189Y-63592353D01*
X168878390Y-63622287D01*
X168969840Y-63668883D01*
X168971080Y-63669515D01*
X169021876Y-63717490D01*
X169038671Y-63785311D01*
X169016134Y-63851446D01*
X168971080Y-63890485D01*
X168878386Y-63937715D01*
X168712786Y-64058028D01*
X168568028Y-64202786D01*
X168447715Y-64368386D01*
X168354781Y-64550776D01*
X168291522Y-64745465D01*
X168259500Y-64947648D01*
X168259500Y-65152351D01*
X168291522Y-65354534D01*
X168354781Y-65549223D01*
X168418691Y-65674653D01*
X168438954Y-65714420D01*
X168447715Y-65731613D01*
X168568028Y-65897213D01*
X168712786Y-66041971D01*
X168837189Y-66132353D01*
X168878390Y-66162287D01*
X168958427Y-66203068D01*
X168971080Y-66209515D01*
X169021876Y-66257490D01*
X169038671Y-66325311D01*
X169016134Y-66391446D01*
X168971080Y-66430485D01*
X168878386Y-66477715D01*
X168712786Y-66598028D01*
X168568028Y-66742786D01*
X168447715Y-66908386D01*
X168354781Y-67090776D01*
X168291522Y-67285465D01*
X168259500Y-67487648D01*
X168259500Y-67692351D01*
X168291522Y-67894534D01*
X168354781Y-68089223D01*
X168418691Y-68214653D01*
X168438366Y-68253266D01*
X168447715Y-68271613D01*
X168568028Y-68437213D01*
X168712786Y-68581971D01*
X168837189Y-68672353D01*
X168878390Y-68702287D01*
X168961081Y-68744420D01*
X168971080Y-68749515D01*
X169021876Y-68797490D01*
X169038671Y-68865311D01*
X169016134Y-68931446D01*
X168971080Y-68970485D01*
X168878386Y-69017715D01*
X168757123Y-69105818D01*
X168691317Y-69129298D01*
X168684238Y-69129500D01*
X164945783Y-69129500D01*
X164878744Y-69109815D01*
X164858102Y-69093181D01*
X158186717Y-62421797D01*
X158153232Y-62360474D01*
X158151925Y-62353513D01*
X158148373Y-62331089D01*
X158128477Y-62205466D01*
X158121141Y-62182889D01*
X158079392Y-62054399D01*
X158065220Y-62010781D01*
X158065218Y-62010778D01*
X158065218Y-62010776D01*
X158012326Y-61906971D01*
X157972287Y-61828390D01*
X157937202Y-61780099D01*
X157884182Y-61707122D01*
X157860702Y-61641316D01*
X157860500Y-61634237D01*
X157860500Y-60845761D01*
X157880185Y-60778722D01*
X157884165Y-60772899D01*
X157972287Y-60651610D01*
X158065220Y-60469219D01*
X158128477Y-60274534D01*
X158160500Y-60072352D01*
X158160500Y-59867648D01*
X158147317Y-59784417D01*
X158128477Y-59665465D01*
X158069586Y-59484219D01*
X158065220Y-59470781D01*
X158065218Y-59470778D01*
X158065218Y-59470776D01*
X158031503Y-59404607D01*
X157972287Y-59288390D01*
X157902882Y-59192861D01*
X157884182Y-59167122D01*
X157860702Y-59101316D01*
X157860500Y-59094237D01*
X157860500Y-58305761D01*
X157880185Y-58238722D01*
X157884165Y-58232899D01*
X157972287Y-58111610D01*
X158065220Y-57929219D01*
X158128477Y-57734534D01*
X158160500Y-57532352D01*
X158160500Y-57327648D01*
X158141535Y-57207912D01*
X158128477Y-57125465D01*
X158069586Y-56944219D01*
X158065220Y-56930781D01*
X158065218Y-56930778D01*
X158065218Y-56930776D01*
X157993530Y-56790082D01*
X157972287Y-56748390D01*
X157964556Y-56737749D01*
X157851971Y-56582786D01*
X157707213Y-56438028D01*
X157541614Y-56317715D01*
X157501239Y-56297143D01*
X157448917Y-56270483D01*
X157398123Y-56222511D01*
X157381328Y-56154690D01*
X157403865Y-56088555D01*
X157448917Y-56049516D01*
X157541610Y-56002287D01*
X157577451Y-55976247D01*
X157707213Y-55881971D01*
X157707215Y-55881968D01*
X157707219Y-55881966D01*
X157851966Y-55737219D01*
X157851968Y-55737215D01*
X157851971Y-55737213D01*
X157937130Y-55620000D01*
X157972287Y-55571610D01*
X158065220Y-55389219D01*
X158128477Y-55194534D01*
X158160500Y-54992352D01*
X158160500Y-54787648D01*
X158141121Y-54665293D01*
X158128477Y-54585465D01*
X158094826Y-54481898D01*
X158065220Y-54390781D01*
X158065218Y-54390778D01*
X158065218Y-54390776D01*
X158009095Y-54280630D01*
X157972287Y-54208390D01*
X157929883Y-54150025D01*
X157851971Y-54042786D01*
X157707213Y-53898028D01*
X157541613Y-53777715D01*
X157541612Y-53777714D01*
X157541610Y-53777713D01*
X157478355Y-53745483D01*
X157359223Y-53684781D01*
X157164534Y-53621522D01*
X156989995Y-53593878D01*
X156962352Y-53589500D01*
X156757648Y-53589500D01*
X156733329Y-53593351D01*
X156555465Y-53621522D01*
X156360776Y-53684781D01*
X156178386Y-53777715D01*
X156012786Y-53898028D01*
X155868028Y-54042786D01*
X155747715Y-54208386D01*
X155654781Y-54390776D01*
X155591522Y-54585465D01*
X155559500Y-54787648D01*
X155559500Y-54992351D01*
X155591522Y-55194534D01*
X155654781Y-55389223D01*
X155708421Y-55494496D01*
X155738233Y-55553005D01*
X155747715Y-55571613D01*
X155868028Y-55737213D01*
X156012786Y-55881971D01*
X156165455Y-55992889D01*
X156178390Y-56002287D01*
X156241641Y-56034515D01*
X156271080Y-56049515D01*
X156321876Y-56097490D01*
X156338671Y-56165311D01*
X156316134Y-56231446D01*
X156271080Y-56270485D01*
X156178386Y-56317715D01*
X156012786Y-56438028D01*
X155868028Y-56582786D01*
X155747715Y-56748386D01*
X155654781Y-56930776D01*
X155591522Y-57125465D01*
X155559500Y-57327648D01*
X155559500Y-57532351D01*
X155591522Y-57734534D01*
X155654781Y-57929223D01*
X155690160Y-57998657D01*
X155747713Y-58111610D01*
X155835819Y-58232877D01*
X155859298Y-58298681D01*
X155859500Y-58305761D01*
X155859500Y-59094237D01*
X155839815Y-59161276D01*
X155835818Y-59167122D01*
X155747715Y-59288386D01*
X155654781Y-59470776D01*
X155591522Y-59665465D01*
X155570202Y-59800080D01*
X155559500Y-59867648D01*
X155559500Y-60072352D01*
X155563878Y-60099995D01*
X155591522Y-60274534D01*
X155654781Y-60469223D01*
X155700767Y-60559474D01*
X155747713Y-60651610D01*
X155835819Y-60772877D01*
X155859298Y-60838681D01*
X155859500Y-60845761D01*
X155859500Y-61634237D01*
X155839815Y-61701276D01*
X155835818Y-61707122D01*
X155747715Y-61828386D01*
X155654781Y-62010778D01*
X155591522Y-62205468D01*
X155568073Y-62353515D01*
X155538143Y-62416649D01*
X155533282Y-62421797D01*
X155271897Y-62683182D01*
X155210577Y-62716666D01*
X155184218Y-62719500D01*
X148259001Y-62719500D01*
X148191962Y-62699815D01*
X148146207Y-62647011D01*
X148136263Y-62577853D01*
X148159734Y-62521189D01*
X148203796Y-62462331D01*
X148254091Y-62327483D01*
X148260500Y-62267873D01*
X148260499Y-62182887D01*
X148280183Y-62115850D01*
X148296813Y-62095212D01*
X150484517Y-59907510D01*
X150623343Y-59716434D01*
X150730568Y-59505992D01*
X150803553Y-59281368D01*
X150817571Y-59192861D01*
X150840500Y-59048097D01*
X150840500Y-55992889D01*
X150860185Y-55925850D01*
X150876819Y-55905208D01*
X154635208Y-52146819D01*
X154696531Y-52113334D01*
X154722889Y-52110500D01*
X164607111Y-52110500D01*
X164674150Y-52130185D01*
G37*
%TD.AperFunction*%
%TA.AperFunction,Conductor*%
G36*
X181804596Y-45426760D02*
G01*
X181805069Y-45426789D01*
X182158677Y-45448486D01*
X182170039Y-45449711D01*
X182519640Y-45503861D01*
X182530858Y-45506134D01*
X182873948Y-45592298D01*
X182884912Y-45595597D01*
X183218594Y-45713048D01*
X183229209Y-45717345D01*
X183550627Y-45865076D01*
X183560801Y-45870334D01*
X183867230Y-46047094D01*
X183876863Y-46053260D01*
X183925351Y-46087555D01*
X184165681Y-46257538D01*
X184174715Y-46264576D01*
X184443439Y-46494613D01*
X184451785Y-46502453D01*
X184588829Y-46643663D01*
X184698156Y-46756314D01*
X184705734Y-46764880D01*
X184922554Y-47034083D01*
X184927630Y-47040385D01*
X184934394Y-47049626D01*
X185129929Y-47344428D01*
X185135811Y-47354254D01*
X185303306Y-47665822D01*
X185308257Y-47676148D01*
X185446300Y-48001852D01*
X185450277Y-48012591D01*
X185557680Y-48349631D01*
X185560650Y-48360691D01*
X185636505Y-48706219D01*
X185638441Y-48717506D01*
X185682094Y-49068542D01*
X185682981Y-49079960D01*
X185694128Y-49435623D01*
X185694189Y-49439461D01*
X185694190Y-49442156D01*
X185694176Y-49444043D01*
X185693268Y-49505147D01*
X185693393Y-49506215D01*
X185694226Y-49520505D01*
X185721070Y-108008412D01*
X185721093Y-108058313D01*
X185720367Y-108061163D01*
X185721123Y-108124115D01*
X185721124Y-108124843D01*
X185721124Y-108125933D01*
X185721052Y-108130153D01*
X185707938Y-108515272D01*
X185707024Y-108526655D01*
X185658867Y-108906330D01*
X185656911Y-108917580D01*
X185574027Y-109291239D01*
X185571043Y-109302262D01*
X185454139Y-109666699D01*
X185450154Y-109677400D01*
X185300223Y-110029534D01*
X185295271Y-110039823D01*
X185113577Y-110376680D01*
X185107699Y-110386470D01*
X184895790Y-110705180D01*
X184889036Y-110714388D01*
X184648705Y-111012254D01*
X184641133Y-111020801D01*
X184374428Y-111295289D01*
X184366101Y-111303104D01*
X184075268Y-111551899D01*
X184066259Y-111558915D01*
X183753767Y-111779904D01*
X183744149Y-111786061D01*
X183412665Y-111977359D01*
X183402523Y-111982605D01*
X183054838Y-112142603D01*
X183044255Y-112146894D01*
X182683328Y-112274227D01*
X182672396Y-112277526D01*
X182301294Y-112371115D01*
X182290105Y-112373395D01*
X181911959Y-112432450D01*
X181900607Y-112433691D01*
X181614408Y-112451686D01*
X181606681Y-112451930D01*
X167167499Y-112458251D01*
X167167447Y-112458251D01*
X96892817Y-112459494D01*
X96892817Y-112459495D01*
X96878627Y-112459495D01*
X96870263Y-112457556D01*
X96812941Y-112459496D01*
X96810840Y-112459497D01*
X96810839Y-112459496D01*
X96810837Y-112459497D01*
X96797719Y-112459497D01*
X96793628Y-112459430D01*
X96564189Y-112451857D01*
X96547703Y-112450205D01*
X96318879Y-112411700D01*
X96302760Y-112407865D01*
X96081103Y-112339192D01*
X96065646Y-112333245D01*
X95935623Y-112272957D01*
X95855122Y-112235632D01*
X95840591Y-112227674D01*
X95713972Y-112146894D01*
X95644963Y-112102868D01*
X95631626Y-112093046D01*
X95454389Y-111943274D01*
X95442476Y-111931758D01*
X95379285Y-111861920D01*
X95286782Y-111759685D01*
X95276517Y-111746691D01*
X95145157Y-111555400D01*
X95136711Y-111541145D01*
X95032032Y-111334058D01*
X95025562Y-111318805D01*
X94949425Y-111099607D01*
X94945046Y-111083627D01*
X94939818Y-111057912D01*
X94898812Y-110856229D01*
X94896604Y-110839811D01*
X94895412Y-110822007D01*
X94880776Y-110603444D01*
X94880500Y-110595211D01*
X94880500Y-110534108D01*
X94880480Y-110534034D01*
X94880073Y-109148711D01*
X96259500Y-109148711D01*
X96259500Y-109391288D01*
X96291161Y-109631785D01*
X96353947Y-109866104D01*
X96421642Y-110029534D01*
X96446776Y-110090212D01*
X96568064Y-110300289D01*
X96568066Y-110300292D01*
X96568067Y-110300293D01*
X96715733Y-110492736D01*
X96715739Y-110492743D01*
X96887256Y-110664260D01*
X96887263Y-110664266D01*
X96952584Y-110714388D01*
X97079711Y-110811936D01*
X97289788Y-110933224D01*
X97513900Y-111026054D01*
X97748211Y-111088838D01*
X97928586Y-111112584D01*
X97988711Y-111120500D01*
X97988712Y-111120500D01*
X98231289Y-111120500D01*
X98279388Y-111114167D01*
X98471789Y-111088838D01*
X98706100Y-111026054D01*
X98930212Y-110933224D01*
X99140289Y-110811936D01*
X99332738Y-110664265D01*
X99504265Y-110492738D01*
X99651936Y-110300289D01*
X99773224Y-110090212D01*
X99866054Y-109866100D01*
X99928838Y-109631789D01*
X99960500Y-109391288D01*
X99960500Y-109148712D01*
X99928838Y-108908211D01*
X99866054Y-108673900D01*
X99773224Y-108449788D01*
X99651936Y-108239711D01*
X99504265Y-108047262D01*
X99504260Y-108047256D01*
X99332743Y-107875739D01*
X99332736Y-107875733D01*
X99140293Y-107728067D01*
X99140292Y-107728066D01*
X99140289Y-107728064D01*
X98930212Y-107606776D01*
X98930205Y-107606773D01*
X98706104Y-107513947D01*
X98471785Y-107451161D01*
X98231289Y-107419500D01*
X98231288Y-107419500D01*
X97988712Y-107419500D01*
X97988711Y-107419500D01*
X97748214Y-107451161D01*
X97513895Y-107513947D01*
X97289794Y-107606773D01*
X97289785Y-107606777D01*
X97079706Y-107728067D01*
X96887263Y-107875733D01*
X96887256Y-107875739D01*
X96715739Y-108047256D01*
X96715733Y-108047263D01*
X96568067Y-108239706D01*
X96446777Y-108449785D01*
X96446773Y-108449794D01*
X96353947Y-108673895D01*
X96291161Y-108908214D01*
X96259500Y-109148711D01*
X94880073Y-109148711D01*
X94863886Y-54077135D01*
X98144500Y-54077135D01*
X98144500Y-55702870D01*
X98144501Y-55702876D01*
X98150908Y-55762483D01*
X98201202Y-55897328D01*
X98201206Y-55897335D01*
X98287452Y-56012544D01*
X98287455Y-56012547D01*
X98402664Y-56098793D01*
X98402671Y-56098797D01*
X98537517Y-56149091D01*
X98537516Y-56149091D01*
X98544444Y-56149835D01*
X98597127Y-56155500D01*
X98629568Y-56155499D01*
X98696605Y-56175182D01*
X98742361Y-56227984D01*
X98752306Y-56297143D01*
X98723283Y-56360699D01*
X98702455Y-56379816D01*
X98585582Y-56464730D01*
X98444733Y-56605579D01*
X98444733Y-56605580D01*
X98444731Y-56605582D01*
X98394447Y-56674790D01*
X98327647Y-56766733D01*
X98237213Y-56944219D01*
X98175661Y-57133656D01*
X98175661Y-57133659D01*
X98167251Y-57186758D01*
X98144500Y-57330403D01*
X98144500Y-57529597D01*
X98152633Y-57580945D01*
X98175661Y-57726340D01*
X98175661Y-57726343D01*
X98237213Y-57915780D01*
X98279441Y-57998656D01*
X98327647Y-58093266D01*
X98444731Y-58254418D01*
X98585582Y-58395269D01*
X98746734Y-58512353D01*
X98804647Y-58541861D01*
X98898172Y-58589515D01*
X98948968Y-58637490D01*
X98965763Y-58705311D01*
X98943225Y-58771446D01*
X98898172Y-58810485D01*
X98746733Y-58887647D01*
X98666669Y-58945818D01*
X98585582Y-59004731D01*
X98585580Y-59004733D01*
X98585579Y-59004733D01*
X98444733Y-59145579D01*
X98444733Y-59145580D01*
X98444731Y-59145582D01*
X98422935Y-59175582D01*
X98327647Y-59306733D01*
X98237213Y-59484219D01*
X98175661Y-59673656D01*
X98175661Y-59673659D01*
X98158119Y-59784417D01*
X98144500Y-59870403D01*
X98144500Y-60069597D01*
X98145547Y-60076206D01*
X98175661Y-60266340D01*
X98175661Y-60266343D01*
X98237213Y-60455780D01*
X98290048Y-60559474D01*
X98327647Y-60633266D01*
X98444731Y-60794418D01*
X98585582Y-60935269D01*
X98746734Y-61052353D01*
X98805477Y-61082284D01*
X98898172Y-61129515D01*
X98948968Y-61177490D01*
X98965763Y-61245311D01*
X98943225Y-61311446D01*
X98898172Y-61350485D01*
X98746733Y-61427647D01*
X98666669Y-61485818D01*
X98585582Y-61544731D01*
X98585580Y-61544733D01*
X98585579Y-61544733D01*
X98444733Y-61685579D01*
X98444733Y-61685580D01*
X98444731Y-61685582D01*
X98410381Y-61732861D01*
X98327647Y-61846733D01*
X98237213Y-62024219D01*
X98175661Y-62213656D01*
X98175661Y-62213659D01*
X98153510Y-62353515D01*
X98144500Y-62410403D01*
X98144500Y-62609597D01*
X98150426Y-62647011D01*
X98175661Y-62806340D01*
X98175661Y-62806343D01*
X98237213Y-62995780D01*
X98237215Y-62995783D01*
X98327647Y-63173266D01*
X98444731Y-63334418D01*
X98585582Y-63475269D01*
X98746734Y-63592353D01*
X98805477Y-63622284D01*
X98898172Y-63669515D01*
X98948968Y-63717490D01*
X98965763Y-63785311D01*
X98943225Y-63851446D01*
X98898172Y-63890485D01*
X98746733Y-63967647D01*
X98654790Y-64034447D01*
X98585582Y-64084731D01*
X98585580Y-64084733D01*
X98585579Y-64084733D01*
X98444733Y-64225579D01*
X98444733Y-64225580D01*
X98444731Y-64225582D01*
X98394447Y-64294790D01*
X98327647Y-64386733D01*
X98237213Y-64564219D01*
X98175661Y-64753656D01*
X98175661Y-64753659D01*
X98152408Y-64900474D01*
X98144500Y-64950403D01*
X98144500Y-65149597D01*
X98152714Y-65201456D01*
X98175661Y-65346340D01*
X98175661Y-65346343D01*
X98237213Y-65535780D01*
X98327647Y-65713266D01*
X98444731Y-65874418D01*
X98585582Y-66015269D01*
X98746734Y-66132353D01*
X98805477Y-66162284D01*
X98898172Y-66209515D01*
X98948968Y-66257490D01*
X98965763Y-66325311D01*
X98943225Y-66391446D01*
X98898172Y-66430485D01*
X98746733Y-66507647D01*
X98654790Y-66574447D01*
X98585582Y-66624731D01*
X98585580Y-66624733D01*
X98585579Y-66624733D01*
X98444733Y-66765579D01*
X98444733Y-66765580D01*
X98444731Y-66765582D01*
X98394447Y-66834790D01*
X98327647Y-66926733D01*
X98237213Y-67104219D01*
X98175661Y-67293656D01*
X98175661Y-67293659D01*
X98173040Y-67310208D01*
X98144500Y-67490403D01*
X98144500Y-67689597D01*
X98150028Y-67724499D01*
X98175661Y-67886340D01*
X98175661Y-67886343D01*
X98237213Y-68075780D01*
X98244061Y-68089219D01*
X98327647Y-68253266D01*
X98444731Y-68414418D01*
X98585582Y-68555269D01*
X98746734Y-68672353D01*
X98805477Y-68702284D01*
X98898172Y-68749515D01*
X98948968Y-68797490D01*
X98965763Y-68865311D01*
X98943225Y-68931446D01*
X98898172Y-68970485D01*
X98746733Y-69047647D01*
X98708286Y-69075581D01*
X98585582Y-69164731D01*
X98585580Y-69164733D01*
X98585579Y-69164733D01*
X98444733Y-69305579D01*
X98444733Y-69305580D01*
X98444731Y-69305582D01*
X98411015Y-69351988D01*
X98327647Y-69466733D01*
X98237213Y-69644219D01*
X98175661Y-69833656D01*
X98175661Y-69833659D01*
X98163142Y-69912701D01*
X98144500Y-70030403D01*
X98144500Y-70229597D01*
X98152200Y-70278214D01*
X98175661Y-70426340D01*
X98175661Y-70426343D01*
X98237213Y-70615780D01*
X98291547Y-70722416D01*
X98327647Y-70793266D01*
X98444731Y-70954418D01*
X98585582Y-71095269D01*
X98746734Y-71212353D01*
X98805477Y-71242284D01*
X98898172Y-71289515D01*
X98948968Y-71337490D01*
X98965763Y-71405311D01*
X98943225Y-71471446D01*
X98898172Y-71510485D01*
X98746733Y-71587647D01*
X98654790Y-71654447D01*
X98585582Y-71704731D01*
X98585580Y-71704733D01*
X98585579Y-71704733D01*
X98444733Y-71845579D01*
X98444733Y-71845580D01*
X98444731Y-71845582D01*
X98412811Y-71889516D01*
X98327647Y-72006733D01*
X98237213Y-72184219D01*
X98175661Y-72373656D01*
X98175661Y-72373659D01*
X98160753Y-72467785D01*
X98144500Y-72570403D01*
X98144500Y-72769597D01*
X98153179Y-72824394D01*
X98175661Y-72966340D01*
X98175661Y-72966343D01*
X98237213Y-73155780D01*
X98244061Y-73169219D01*
X98327647Y-73333266D01*
X98444731Y-73494418D01*
X98585582Y-73635269D01*
X98746734Y-73752353D01*
X98805477Y-73782284D01*
X98898172Y-73829515D01*
X98948968Y-73877490D01*
X98965763Y-73945311D01*
X98943225Y-74011446D01*
X98898172Y-74050485D01*
X98746733Y-74127647D01*
X98654790Y-74194447D01*
X98585582Y-74244731D01*
X98585580Y-74244733D01*
X98585579Y-74244733D01*
X98444733Y-74385579D01*
X98444733Y-74385580D01*
X98444731Y-74385582D01*
X98416055Y-74425051D01*
X98327647Y-74546733D01*
X98237213Y-74724219D01*
X98175661Y-74913656D01*
X98175661Y-74913659D01*
X98144500Y-75110403D01*
X98144500Y-75309596D01*
X98175661Y-75506340D01*
X98175661Y-75506343D01*
X98237213Y-75695780D01*
X98312949Y-75844420D01*
X98327647Y-75873266D01*
X98444731Y-76034418D01*
X98585582Y-76175269D01*
X98746734Y-76292353D01*
X98816453Y-76327877D01*
X98898172Y-76369515D01*
X98948968Y-76417490D01*
X98965763Y-76485311D01*
X98943225Y-76551446D01*
X98898172Y-76590485D01*
X98746733Y-76667647D01*
X98691354Y-76707883D01*
X98585582Y-76784731D01*
X98585580Y-76784733D01*
X98585579Y-76784733D01*
X98444733Y-76925579D01*
X98444733Y-76925580D01*
X98444731Y-76925582D01*
X98433337Y-76941265D01*
X98327647Y-77086733D01*
X98237213Y-77264219D01*
X98175661Y-77453656D01*
X98175661Y-77453659D01*
X98144500Y-77650403D01*
X98144500Y-77849596D01*
X98175661Y-78046340D01*
X98175661Y-78046343D01*
X98237213Y-78235780D01*
X98237215Y-78235783D01*
X98327647Y-78413266D01*
X98444731Y-78574418D01*
X98585582Y-78715269D01*
X98746734Y-78832353D01*
X98816453Y-78867877D01*
X98898172Y-78909515D01*
X98948968Y-78957490D01*
X98965763Y-79025311D01*
X98943225Y-79091446D01*
X98898172Y-79130485D01*
X98746733Y-79207647D01*
X98654790Y-79274447D01*
X98585582Y-79324731D01*
X98585580Y-79324733D01*
X98585579Y-79324733D01*
X98444733Y-79465579D01*
X98444733Y-79465580D01*
X98444731Y-79465582D01*
X98432920Y-79481839D01*
X98327647Y-79626733D01*
X98237213Y-79804219D01*
X98175661Y-79993656D01*
X98175661Y-79993659D01*
X98144500Y-80190403D01*
X98144500Y-80389596D01*
X98175661Y-80586340D01*
X98175661Y-80586343D01*
X98237213Y-80775780D01*
X98237215Y-80775783D01*
X98327647Y-80953266D01*
X98444731Y-81114418D01*
X98585582Y-81255269D01*
X98746734Y-81372353D01*
X98816453Y-81407877D01*
X98898172Y-81449515D01*
X98948968Y-81497490D01*
X98965763Y-81565311D01*
X98943225Y-81631446D01*
X98898172Y-81670485D01*
X98746733Y-81747647D01*
X98683294Y-81793739D01*
X98585582Y-81864731D01*
X98585580Y-81864733D01*
X98585579Y-81864733D01*
X98444733Y-82005579D01*
X98444733Y-82005580D01*
X98444731Y-82005582D01*
X98396220Y-82072351D01*
X98327647Y-82166733D01*
X98237213Y-82344219D01*
X98175661Y-82533656D01*
X98175661Y-82533659D01*
X98144500Y-82730403D01*
X98144500Y-82929596D01*
X98175661Y-83126340D01*
X98175661Y-83126343D01*
X98237213Y-83315780D01*
X98278960Y-83397713D01*
X98327647Y-83493266D01*
X98444731Y-83654418D01*
X98585582Y-83795269D01*
X98746734Y-83912353D01*
X98815288Y-83947283D01*
X98898172Y-83989515D01*
X98948968Y-84037490D01*
X98965763Y-84105311D01*
X98943225Y-84171446D01*
X98898172Y-84210485D01*
X98746733Y-84287647D01*
X98669204Y-84343976D01*
X98585582Y-84404731D01*
X98585580Y-84404733D01*
X98585579Y-84404733D01*
X98444733Y-84545579D01*
X98444733Y-84545580D01*
X98444731Y-84545582D01*
X98420159Y-84579403D01*
X98327647Y-84706733D01*
X98237213Y-84884219D01*
X98175661Y-85073656D01*
X98175661Y-85073659D01*
X98144500Y-85270403D01*
X98144500Y-85469596D01*
X98175661Y-85666340D01*
X98175661Y-85666343D01*
X98237213Y-85855780D01*
X98308805Y-85996286D01*
X98327647Y-86033266D01*
X98444731Y-86194418D01*
X98585582Y-86335269D01*
X98746734Y-86452353D01*
X98836909Y-86498299D01*
X98898722Y-86529795D01*
X98949518Y-86577770D01*
X98966313Y-86645591D01*
X98943776Y-86711726D01*
X98898723Y-86750764D01*
X98746993Y-86828075D01*
X98709135Y-86855580D01*
X98709135Y-86855581D01*
X99272425Y-87418871D01*
X99213147Y-87434755D01*
X99096853Y-87501898D01*
X99001898Y-87596853D01*
X98934755Y-87713147D01*
X98918871Y-87772425D01*
X98355581Y-87209135D01*
X98355580Y-87209135D01*
X98328077Y-87246990D01*
X98237679Y-87424405D01*
X98176147Y-87613777D01*
X98145000Y-87810436D01*
X98145000Y-88009563D01*
X98176147Y-88206222D01*
X98237679Y-88395594D01*
X98328077Y-88573008D01*
X98355580Y-88610863D01*
X98355581Y-88610864D01*
X98918871Y-88047574D01*
X98934755Y-88106853D01*
X99001898Y-88223147D01*
X99096853Y-88318102D01*
X99213147Y-88385245D01*
X99272425Y-88401128D01*
X98709134Y-88964417D01*
X98746994Y-88991924D01*
X98898722Y-89069234D01*
X98949518Y-89117209D01*
X98966313Y-89185030D01*
X98943776Y-89251165D01*
X98898723Y-89290203D01*
X98746735Y-89367645D01*
X98633997Y-89449555D01*
X98585582Y-89484731D01*
X98585580Y-89484733D01*
X98585579Y-89484733D01*
X98444733Y-89625579D01*
X98444733Y-89625580D01*
X98444731Y-89625582D01*
X98404063Y-89681557D01*
X98327647Y-89786733D01*
X98237213Y-89964219D01*
X98175661Y-90153656D01*
X98175661Y-90153659D01*
X98150750Y-90310943D01*
X98144500Y-90350403D01*
X98144500Y-90549597D01*
X98154096Y-90610185D01*
X98175661Y-90746340D01*
X98175661Y-90746343D01*
X98237213Y-90935780D01*
X98308805Y-91076286D01*
X98327647Y-91113266D01*
X98444731Y-91274418D01*
X98585582Y-91415269D01*
X98746734Y-91532353D01*
X98816453Y-91567877D01*
X98898172Y-91609515D01*
X98948968Y-91657490D01*
X98965763Y-91725311D01*
X98943225Y-91791446D01*
X98898172Y-91830485D01*
X98746733Y-91907647D01*
X98670100Y-91963325D01*
X98585582Y-92024731D01*
X98585580Y-92024733D01*
X98585579Y-92024733D01*
X98444733Y-92165579D01*
X98444733Y-92165580D01*
X98444731Y-92165582D01*
X98396220Y-92232351D01*
X98327647Y-92326733D01*
X98237213Y-92504219D01*
X98175661Y-92693656D01*
X98175661Y-92693659D01*
X98144500Y-92890403D01*
X98144500Y-93089597D01*
X98153192Y-93144477D01*
X98175661Y-93286340D01*
X98175661Y-93286343D01*
X98237213Y-93475780D01*
X98300213Y-93599424D01*
X98327647Y-93653266D01*
X98444731Y-93814418D01*
X98585582Y-93955269D01*
X98746734Y-94072353D01*
X98806827Y-94102972D01*
X98898172Y-94149515D01*
X98948968Y-94197490D01*
X98965763Y-94265311D01*
X98943225Y-94331446D01*
X98898172Y-94370485D01*
X98746733Y-94447647D01*
X98654790Y-94514447D01*
X98585582Y-94564731D01*
X98585580Y-94564733D01*
X98585579Y-94564733D01*
X98444733Y-94705579D01*
X98444733Y-94705580D01*
X98444731Y-94705582D01*
X98399315Y-94768092D01*
X98327647Y-94866733D01*
X98237213Y-95044219D01*
X98175661Y-95233656D01*
X98175661Y-95233659D01*
X98175661Y-95233661D01*
X98144500Y-95430403D01*
X98144500Y-95629597D01*
X98160080Y-95727968D01*
X98175661Y-95826340D01*
X98175661Y-95826343D01*
X98237213Y-96015780D01*
X98276965Y-96093797D01*
X98327647Y-96193266D01*
X98444731Y-96354418D01*
X98585582Y-96495269D01*
X98746734Y-96612353D01*
X98816453Y-96647877D01*
X98898172Y-96689515D01*
X98948968Y-96737490D01*
X98965763Y-96805311D01*
X98943225Y-96871446D01*
X98898172Y-96910485D01*
X98746733Y-96987647D01*
X98654790Y-97054447D01*
X98585582Y-97104731D01*
X98585580Y-97104733D01*
X98585579Y-97104733D01*
X98444733Y-97245579D01*
X98444733Y-97245580D01*
X98444731Y-97245582D01*
X98415669Y-97285582D01*
X98327647Y-97406733D01*
X98237213Y-97584219D01*
X98175661Y-97773656D01*
X98175661Y-97773659D01*
X98169888Y-97810110D01*
X98144500Y-97970403D01*
X98144500Y-98169597D01*
X98150983Y-98210527D01*
X98175661Y-98366340D01*
X98175661Y-98366343D01*
X98237213Y-98555780D01*
X98265786Y-98611857D01*
X98327647Y-98733266D01*
X98444731Y-98894418D01*
X98585582Y-99035269D01*
X98746734Y-99152353D01*
X98816453Y-99187877D01*
X98898172Y-99229515D01*
X98948968Y-99277490D01*
X98965763Y-99345311D01*
X98943225Y-99411446D01*
X98898172Y-99450485D01*
X98746733Y-99527647D01*
X98654790Y-99594447D01*
X98585582Y-99644731D01*
X98585580Y-99644733D01*
X98585579Y-99644733D01*
X98444733Y-99785579D01*
X98444733Y-99785580D01*
X98444731Y-99785582D01*
X98396220Y-99852351D01*
X98327647Y-99946733D01*
X98237213Y-100124219D01*
X98175661Y-100313656D01*
X98175661Y-100313659D01*
X98144500Y-100510403D01*
X98144500Y-100709596D01*
X98175661Y-100906340D01*
X98175661Y-100906343D01*
X98237213Y-101095780D01*
X98327647Y-101273266D01*
X98385818Y-101353331D01*
X98409298Y-101419136D01*
X98409500Y-101426216D01*
X98409500Y-102118544D01*
X98444418Y-102294089D01*
X98447948Y-102311832D01*
X98447950Y-102311840D01*
X98523364Y-102493907D01*
X98523371Y-102493920D01*
X98632859Y-102657780D01*
X98632860Y-102657781D01*
X98632861Y-102657782D01*
X98772218Y-102797139D01*
X98772219Y-102797139D01*
X98779286Y-102804206D01*
X98779285Y-102804206D01*
X98779289Y-102804209D01*
X101043181Y-105068102D01*
X101076666Y-105129425D01*
X101079500Y-105155783D01*
X101079500Y-105590001D01*
X101079501Y-105590019D01*
X101090000Y-105692796D01*
X101090001Y-105692799D01*
X101145185Y-105859331D01*
X101145186Y-105859334D01*
X101237288Y-106008656D01*
X101361344Y-106132712D01*
X101510666Y-106224814D01*
X101677203Y-106279999D01*
X101779991Y-106290500D01*
X102980008Y-106290499D01*
X103082797Y-106279999D01*
X103249334Y-106224814D01*
X103398656Y-106132712D01*
X103467879Y-106063489D01*
X103529202Y-106030004D01*
X103598894Y-106034988D01*
X103628446Y-106050853D01*
X103698646Y-106101857D01*
X103880968Y-106194755D01*
X104075582Y-106257990D01*
X104277683Y-106290000D01*
X104482317Y-106290000D01*
X104684417Y-106257990D01*
X104879031Y-106194755D01*
X105061349Y-106101859D01*
X105105921Y-106069474D01*
X104426447Y-105390000D01*
X104432661Y-105390000D01*
X104534394Y-105362741D01*
X104625606Y-105310080D01*
X104700080Y-105235606D01*
X104752741Y-105144394D01*
X104780000Y-105042661D01*
X104780000Y-105036447D01*
X105459474Y-105715921D01*
X105491859Y-105671349D01*
X105584755Y-105489031D01*
X105647990Y-105294417D01*
X105680000Y-105092317D01*
X105680000Y-104887682D01*
X105647990Y-104685582D01*
X105584755Y-104490968D01*
X105491859Y-104308650D01*
X105459474Y-104264077D01*
X105459474Y-104264076D01*
X104780000Y-104943551D01*
X104780000Y-104937339D01*
X104752741Y-104835606D01*
X104700080Y-104744394D01*
X104625606Y-104669920D01*
X104534394Y-104617259D01*
X104432661Y-104590000D01*
X104426446Y-104590000D01*
X105105922Y-103910524D01*
X105105921Y-103910523D01*
X105061359Y-103878147D01*
X105061350Y-103878141D01*
X104879031Y-103785244D01*
X104684417Y-103722009D01*
X104482317Y-103690000D01*
X104277683Y-103690000D01*
X104075582Y-103722009D01*
X103880968Y-103785244D01*
X103698651Y-103878139D01*
X103628444Y-103929148D01*
X103562637Y-103952627D01*
X103494583Y-103936801D01*
X103467878Y-103916510D01*
X103398657Y-103847289D01*
X103398656Y-103847288D01*
X103249334Y-103755186D01*
X103082797Y-103700001D01*
X103082795Y-103700000D01*
X102980016Y-103689500D01*
X102980009Y-103689500D01*
X102545783Y-103689500D01*
X102478744Y-103669815D01*
X102458102Y-103653181D01*
X100446819Y-101641898D01*
X100432115Y-101614970D01*
X100415523Y-101589152D01*
X100414631Y-101582951D01*
X100413334Y-101580575D01*
X100410500Y-101554217D01*
X100410500Y-101426216D01*
X100430185Y-101359177D01*
X100434172Y-101353343D01*
X100492353Y-101273266D01*
X100582785Y-101095783D01*
X100616066Y-100993354D01*
X100644338Y-100906343D01*
X100644338Y-100906342D01*
X100644339Y-100906339D01*
X100675500Y-100709597D01*
X100675500Y-100510403D01*
X100644339Y-100313661D01*
X100644338Y-100313657D01*
X100644338Y-100313656D01*
X100582786Y-100124219D01*
X100555201Y-100070080D01*
X100492353Y-99946734D01*
X100375269Y-99785582D01*
X100234418Y-99644731D01*
X100073266Y-99527647D01*
X99921827Y-99450485D01*
X99871031Y-99402510D01*
X99854236Y-99334689D01*
X99876773Y-99268554D01*
X99921827Y-99229515D01*
X99931116Y-99224781D01*
X100073266Y-99152353D01*
X100234418Y-99035269D01*
X100375269Y-98894418D01*
X100492353Y-98733266D01*
X100582785Y-98555783D01*
X100614123Y-98459334D01*
X100644338Y-98366343D01*
X100644338Y-98366342D01*
X100644339Y-98366339D01*
X100675500Y-98169597D01*
X100675500Y-97970403D01*
X100644339Y-97773661D01*
X100644338Y-97773657D01*
X100644338Y-97773656D01*
X100582786Y-97584219D01*
X100507064Y-97435606D01*
X100492353Y-97406734D01*
X100375269Y-97245582D01*
X100234418Y-97104731D01*
X100073266Y-96987647D01*
X99921827Y-96910485D01*
X99871031Y-96862510D01*
X99854236Y-96794689D01*
X99876773Y-96728554D01*
X99921827Y-96689515D01*
X99931116Y-96684781D01*
X100073266Y-96612353D01*
X100234418Y-96495269D01*
X100375269Y-96354418D01*
X100492353Y-96193266D01*
X100582785Y-96015783D01*
X100632111Y-95863974D01*
X100644338Y-95826343D01*
X100644338Y-95826342D01*
X100644339Y-95826339D01*
X100675500Y-95629597D01*
X100675500Y-95430403D01*
X100644339Y-95233661D01*
X100644338Y-95233657D01*
X100644338Y-95233656D01*
X100582786Y-95044219D01*
X100492352Y-94866733D01*
X100375269Y-94705582D01*
X100234418Y-94564731D01*
X100073266Y-94447647D01*
X99995187Y-94407864D01*
X99921827Y-94370485D01*
X99871031Y-94322510D01*
X99854236Y-94254689D01*
X99876773Y-94188554D01*
X99921827Y-94149515D01*
X99964692Y-94127674D01*
X100073266Y-94072353D01*
X100234418Y-93955269D01*
X100375269Y-93814418D01*
X100492353Y-93653266D01*
X100582785Y-93475783D01*
X100607903Y-93398477D01*
X100644338Y-93286343D01*
X100644338Y-93286342D01*
X100644339Y-93286339D01*
X100675500Y-93089597D01*
X100675500Y-92890403D01*
X100644339Y-92693661D01*
X100644338Y-92693657D01*
X100644338Y-92693656D01*
X100582786Y-92504219D01*
X100547280Y-92434534D01*
X100492353Y-92326734D01*
X100375269Y-92165582D01*
X100234418Y-92024731D01*
X100073266Y-91907647D01*
X99921827Y-91830485D01*
X99871031Y-91782510D01*
X99854236Y-91714689D01*
X99876773Y-91648554D01*
X99921827Y-91609515D01*
X99931116Y-91604781D01*
X100073266Y-91532353D01*
X100234418Y-91415269D01*
X100375269Y-91274418D01*
X100492353Y-91113266D01*
X100582785Y-90935783D01*
X100640317Y-90758717D01*
X100644338Y-90746343D01*
X100644338Y-90746342D01*
X100644339Y-90746339D01*
X100675500Y-90549597D01*
X100675500Y-90350403D01*
X100644339Y-90153661D01*
X100644338Y-90153657D01*
X100644338Y-90153656D01*
X100582786Y-89964219D01*
X100492352Y-89786733D01*
X100375269Y-89625582D01*
X100234418Y-89484731D01*
X100073266Y-89367647D01*
X100073262Y-89367645D01*
X99921277Y-89290204D01*
X99870481Y-89242229D01*
X99853686Y-89174408D01*
X99876224Y-89108273D01*
X99921277Y-89069234D01*
X100073005Y-88991924D01*
X100110863Y-88964418D01*
X100110863Y-88964417D01*
X99547574Y-88401128D01*
X99606853Y-88385245D01*
X99723147Y-88318102D01*
X99818102Y-88223147D01*
X99885245Y-88106853D01*
X99901128Y-88047574D01*
X100464417Y-88610863D01*
X100464418Y-88610863D01*
X100491924Y-88573005D01*
X100582320Y-88395594D01*
X100643852Y-88206222D01*
X100675000Y-88009563D01*
X100675000Y-87810436D01*
X100643852Y-87613777D01*
X100582320Y-87424405D01*
X100491924Y-87246994D01*
X100464417Y-87209135D01*
X100464417Y-87209134D01*
X99901128Y-87772424D01*
X99885245Y-87713147D01*
X99818102Y-87596853D01*
X99723147Y-87501898D01*
X99606853Y-87434755D01*
X99547574Y-87418871D01*
X100110864Y-86855581D01*
X100110863Y-86855580D01*
X100073008Y-86828077D01*
X99921277Y-86750765D01*
X99870481Y-86702790D01*
X99853686Y-86634969D01*
X99876224Y-86568834D01*
X99921277Y-86529795D01*
X99921827Y-86529515D01*
X100073266Y-86452353D01*
X100234418Y-86335269D01*
X100375269Y-86194418D01*
X100492353Y-86033266D01*
X100582785Y-85855783D01*
X100600716Y-85800597D01*
X100644338Y-85666343D01*
X100644338Y-85666342D01*
X100644339Y-85666339D01*
X100675500Y-85469597D01*
X100675500Y-85270403D01*
X100644339Y-85073661D01*
X100644338Y-85073657D01*
X100644338Y-85073656D01*
X100582786Y-84884219D01*
X100492352Y-84706733D01*
X100485109Y-84696764D01*
X100375269Y-84545582D01*
X100234418Y-84404731D01*
X100073266Y-84287647D01*
X99921827Y-84210485D01*
X99871031Y-84162510D01*
X99854236Y-84094689D01*
X99876773Y-84028554D01*
X99921827Y-83989515D01*
X99931116Y-83984781D01*
X100073266Y-83912353D01*
X100234418Y-83795269D01*
X100375269Y-83654418D01*
X100492353Y-83493266D01*
X100582785Y-83315783D01*
X100644339Y-83126339D01*
X100675500Y-82929597D01*
X100675500Y-82730403D01*
X100673912Y-82720379D01*
X100682865Y-82651089D01*
X100727860Y-82597636D01*
X100794611Y-82576995D01*
X100861926Y-82595718D01*
X100884066Y-82613301D01*
X102053181Y-83782416D01*
X102086666Y-83843739D01*
X102089500Y-83870097D01*
X102089500Y-92823330D01*
X102089499Y-92823348D01*
X102089499Y-92989054D01*
X102089498Y-92989054D01*
X102089499Y-92989057D01*
X102130423Y-93141785D01*
X102134878Y-93149501D01*
X102134879Y-93149502D01*
X102134879Y-93149503D01*
X102209477Y-93278712D01*
X102209481Y-93278717D01*
X102328349Y-93397585D01*
X102328355Y-93397590D01*
X115405139Y-106474374D01*
X115405149Y-106474385D01*
X115409479Y-106478715D01*
X115409480Y-106478716D01*
X115521284Y-106590520D01*
X115588020Y-106629049D01*
X115608095Y-106640639D01*
X115608097Y-106640641D01*
X115646151Y-106662611D01*
X115658215Y-106669577D01*
X115810943Y-106710501D01*
X115810946Y-106710501D01*
X115976653Y-106710501D01*
X115976669Y-106710500D01*
X127055500Y-106710500D01*
X127122539Y-106730185D01*
X127168294Y-106782989D01*
X127179500Y-106834500D01*
X127179500Y-108577870D01*
X127179501Y-108577876D01*
X127185908Y-108637483D01*
X127236202Y-108772328D01*
X127236206Y-108772335D01*
X127322452Y-108887544D01*
X127322455Y-108887547D01*
X127437664Y-108973793D01*
X127437671Y-108973797D01*
X127572517Y-109024091D01*
X127572516Y-109024091D01*
X127579444Y-109024835D01*
X127632127Y-109030500D01*
X129427872Y-109030499D01*
X129487483Y-109024091D01*
X129622331Y-108973796D01*
X129737546Y-108887546D01*
X129823796Y-108772331D01*
X129874091Y-108637483D01*
X129880500Y-108577873D01*
X129880499Y-108553979D01*
X129883330Y-108540963D01*
X129893940Y-108521525D01*
X129900179Y-108500275D01*
X129916803Y-108479643D01*
X129916808Y-108479636D01*
X129916811Y-108479634D01*
X129916818Y-108479626D01*
X130587036Y-107809407D01*
X130604075Y-107872993D01*
X130669901Y-107987007D01*
X130762993Y-108080099D01*
X130877007Y-108145925D01*
X130940590Y-108162962D01*
X130308282Y-108795269D01*
X130308282Y-108795270D01*
X130362449Y-108834624D01*
X130551782Y-108931095D01*
X130753870Y-108996757D01*
X130963754Y-109030000D01*
X131176246Y-109030000D01*
X131386127Y-108996757D01*
X131386130Y-108996757D01*
X131588217Y-108931095D01*
X131777554Y-108834622D01*
X131831716Y-108795270D01*
X131831717Y-108795270D01*
X131199408Y-108162962D01*
X131262993Y-108145925D01*
X131377007Y-108080099D01*
X131470099Y-107987007D01*
X131535925Y-107872993D01*
X131552962Y-107809409D01*
X132185270Y-108441717D01*
X132185270Y-108441716D01*
X132224622Y-108387555D01*
X132229232Y-108378507D01*
X132277205Y-108327709D01*
X132345025Y-108310912D01*
X132411161Y-108333447D01*
X132450204Y-108378504D01*
X132454949Y-108387817D01*
X132579890Y-108559786D01*
X132730213Y-108710109D01*
X132902179Y-108835048D01*
X132902181Y-108835049D01*
X132902184Y-108835051D01*
X133091588Y-108931557D01*
X133293757Y-108997246D01*
X133503713Y-109030500D01*
X133503714Y-109030500D01*
X133716286Y-109030500D01*
X133716287Y-109030500D01*
X133926243Y-108997246D01*
X134128412Y-108931557D01*
X134317816Y-108835051D01*
X134404138Y-108772335D01*
X134489786Y-108710109D01*
X134489788Y-108710106D01*
X134489792Y-108710104D01*
X134640104Y-108559792D01*
X134640106Y-108559788D01*
X134640109Y-108559786D01*
X134765007Y-108387876D01*
X134765051Y-108387816D01*
X134769514Y-108379054D01*
X134817488Y-108328259D01*
X134885308Y-108311463D01*
X134951444Y-108333999D01*
X134990486Y-108379056D01*
X134994951Y-108387820D01*
X135119890Y-108559786D01*
X135270213Y-108710109D01*
X135442179Y-108835048D01*
X135442181Y-108835049D01*
X135442184Y-108835051D01*
X135631588Y-108931557D01*
X135833757Y-108997246D01*
X136043713Y-109030500D01*
X136043714Y-109030500D01*
X136256286Y-109030500D01*
X136256287Y-109030500D01*
X136466243Y-108997246D01*
X136668412Y-108931557D01*
X136857816Y-108835051D01*
X136944138Y-108772335D01*
X137029786Y-108710109D01*
X137029788Y-108710106D01*
X137029792Y-108710104D01*
X137180104Y-108559792D01*
X137180106Y-108559788D01*
X137180109Y-108559786D01*
X137305007Y-108387876D01*
X137305051Y-108387816D01*
X137401557Y-108198412D01*
X137467246Y-107996243D01*
X137500500Y-107786287D01*
X137500500Y-107577648D01*
X139369500Y-107577648D01*
X139369500Y-107782351D01*
X139401522Y-107984534D01*
X139464781Y-108179223D01*
X139512459Y-108272795D01*
X139543644Y-108333999D01*
X139557715Y-108361613D01*
X139678028Y-108527213D01*
X139822786Y-108671971D01*
X139960928Y-108772335D01*
X139988390Y-108792287D01*
X140104607Y-108851503D01*
X140170776Y-108885218D01*
X140170778Y-108885218D01*
X140170781Y-108885220D01*
X140253232Y-108912010D01*
X140365465Y-108948477D01*
X140466557Y-108964488D01*
X140567648Y-108980500D01*
X140567649Y-108980500D01*
X140772351Y-108980500D01*
X140772352Y-108980500D01*
X140974534Y-108948477D01*
X141169219Y-108885220D01*
X141351610Y-108792287D01*
X141460751Y-108712992D01*
X141517213Y-108671971D01*
X141517215Y-108671968D01*
X141517219Y-108671966D01*
X141661966Y-108527219D01*
X141661968Y-108527215D01*
X141661971Y-108527213D01*
X141741889Y-108417213D01*
X141782287Y-108361610D01*
X141875220Y-108179219D01*
X141938477Y-107984534D01*
X141970500Y-107782352D01*
X141970500Y-107577648D01*
X146989500Y-107577648D01*
X146989500Y-107782351D01*
X147021522Y-107984534D01*
X147084781Y-108179223D01*
X147132459Y-108272795D01*
X147163644Y-108333999D01*
X147177715Y-108361613D01*
X147298028Y-108527213D01*
X147442786Y-108671971D01*
X147580928Y-108772335D01*
X147608390Y-108792287D01*
X147724607Y-108851503D01*
X147790776Y-108885218D01*
X147790778Y-108885218D01*
X147790781Y-108885220D01*
X147873232Y-108912010D01*
X147985465Y-108948477D01*
X148086557Y-108964488D01*
X148187648Y-108980500D01*
X148187649Y-108980500D01*
X148392351Y-108980500D01*
X148392352Y-108980500D01*
X148594534Y-108948477D01*
X148789219Y-108885220D01*
X148971610Y-108792287D01*
X149080751Y-108712992D01*
X149137213Y-108671971D01*
X149137215Y-108671968D01*
X149137219Y-108671966D01*
X149281966Y-108527219D01*
X149281968Y-108527215D01*
X149281971Y-108527213D01*
X149361889Y-108417213D01*
X149402287Y-108361610D01*
X149495220Y-108179219D01*
X149558477Y-107984534D01*
X149590500Y-107782352D01*
X149590500Y-107577648D01*
X149573077Y-107467648D01*
X150259500Y-107467648D01*
X150259500Y-107672351D01*
X150291522Y-107874534D01*
X150354781Y-108069223D01*
X150406135Y-108170009D01*
X150441650Y-108239711D01*
X150447715Y-108251613D01*
X150568028Y-108417213D01*
X150712786Y-108561971D01*
X150864184Y-108671966D01*
X150878390Y-108682287D01*
X150993807Y-108741095D01*
X151060776Y-108775218D01*
X151060778Y-108775218D01*
X151060781Y-108775220D01*
X151122489Y-108795270D01*
X151255465Y-108838477D01*
X151356557Y-108854488D01*
X151457648Y-108870500D01*
X151457649Y-108870500D01*
X151662351Y-108870500D01*
X151662352Y-108870500D01*
X151864534Y-108838477D01*
X152059219Y-108775220D01*
X152241610Y-108682287D01*
X152370482Y-108588657D01*
X152407213Y-108561971D01*
X152407215Y-108561968D01*
X152407219Y-108561966D01*
X152551966Y-108417219D01*
X152551968Y-108417215D01*
X152551971Y-108417213D01*
X152616998Y-108327709D01*
X152672287Y-108251610D01*
X152765220Y-108069219D01*
X152828477Y-107874534D01*
X152860500Y-107672352D01*
X152860500Y-107467648D01*
X152845508Y-107372993D01*
X152828477Y-107265465D01*
X152771432Y-107089901D01*
X152765220Y-107070781D01*
X152765218Y-107070778D01*
X152765218Y-107070776D01*
X152740940Y-107023129D01*
X152714982Y-106972184D01*
X152713861Y-106969983D01*
X160419500Y-106969983D01*
X160419500Y-108170001D01*
X160419501Y-108170018D01*
X160430000Y-108272796D01*
X160430001Y-108272799D01*
X160468115Y-108387817D01*
X160485186Y-108439334D01*
X160577288Y-108588656D01*
X160701344Y-108712712D01*
X160850666Y-108804814D01*
X161017203Y-108859999D01*
X161119991Y-108870500D01*
X162320008Y-108870499D01*
X162422797Y-108859999D01*
X162589334Y-108804814D01*
X162738656Y-108712712D01*
X162862712Y-108588656D01*
X162954814Y-108439334D01*
X163009999Y-108272797D01*
X163020500Y-108170009D01*
X163020499Y-106969992D01*
X163009999Y-106867203D01*
X162954814Y-106700666D01*
X162862712Y-106551344D01*
X162738656Y-106427288D01*
X162634029Y-106362754D01*
X162589336Y-106335187D01*
X162589331Y-106335185D01*
X162572175Y-106329500D01*
X162422797Y-106280001D01*
X162422795Y-106280000D01*
X162320010Y-106269500D01*
X161119998Y-106269500D01*
X161119981Y-106269501D01*
X161017203Y-106280000D01*
X161017200Y-106280001D01*
X160850668Y-106335185D01*
X160850663Y-106335187D01*
X160701342Y-106427289D01*
X160577289Y-106551342D01*
X160485187Y-106700663D01*
X160485185Y-106700668D01*
X160480191Y-106715739D01*
X160430001Y-106867203D01*
X160430001Y-106867204D01*
X160430000Y-106867204D01*
X160419500Y-106969983D01*
X152713861Y-106969983D01*
X152672287Y-106888390D01*
X152672285Y-106888387D01*
X152672284Y-106888385D01*
X152551971Y-106722786D01*
X152407213Y-106578028D01*
X152241613Y-106457715D01*
X152241612Y-106457714D01*
X152241610Y-106457713D01*
X152181898Y-106427288D01*
X152059223Y-106364781D01*
X151864534Y-106301522D01*
X151689995Y-106273878D01*
X151662352Y-106269500D01*
X151457648Y-106269500D01*
X151433329Y-106273351D01*
X151255465Y-106301522D01*
X151060776Y-106364781D01*
X150878386Y-106457715D01*
X150712786Y-106578028D01*
X150568028Y-106722786D01*
X150447715Y-106888386D01*
X150354781Y-107070776D01*
X150291522Y-107265465D01*
X150259500Y-107467648D01*
X149573077Y-107467648D01*
X149558477Y-107375466D01*
X149495220Y-107180781D01*
X149495218Y-107180778D01*
X149495218Y-107180776D01*
X149443722Y-107079711D01*
X149402287Y-106998390D01*
X149394556Y-106987749D01*
X149281971Y-106832786D01*
X149137213Y-106688028D01*
X148971613Y-106567715D01*
X148971612Y-106567714D01*
X148971610Y-106567713D01*
X148887681Y-106524949D01*
X148789223Y-106474781D01*
X148594534Y-106411522D01*
X148419995Y-106383878D01*
X148392352Y-106379500D01*
X148187648Y-106379500D01*
X148163329Y-106383351D01*
X147985465Y-106411522D01*
X147790776Y-106474781D01*
X147608386Y-106567715D01*
X147442786Y-106688028D01*
X147298028Y-106832786D01*
X147177715Y-106998386D01*
X147084781Y-107180776D01*
X147021522Y-107375465D01*
X146989500Y-107577648D01*
X141970500Y-107577648D01*
X141955378Y-107482174D01*
X141938477Y-107375465D01*
X141902736Y-107265466D01*
X141875220Y-107180781D01*
X141875218Y-107180778D01*
X141875218Y-107180776D01*
X141823722Y-107079711D01*
X141782287Y-106998390D01*
X141774556Y-106987749D01*
X141661971Y-106832786D01*
X141517213Y-106688028D01*
X141351613Y-106567715D01*
X141351612Y-106567714D01*
X141351610Y-106567713D01*
X141267681Y-106524949D01*
X141169223Y-106474781D01*
X140974534Y-106411522D01*
X140799995Y-106383878D01*
X140772352Y-106379500D01*
X140567648Y-106379500D01*
X140543329Y-106383351D01*
X140365465Y-106411522D01*
X140170776Y-106474781D01*
X139988386Y-106567715D01*
X139822786Y-106688028D01*
X139678028Y-106832786D01*
X139557715Y-106998386D01*
X139464781Y-107180776D01*
X139401522Y-107375465D01*
X139369500Y-107577648D01*
X137500500Y-107577648D01*
X137500500Y-107573713D01*
X137467246Y-107363757D01*
X137401557Y-107161588D01*
X137305051Y-106972184D01*
X137305049Y-106972181D01*
X137305048Y-106972179D01*
X137180109Y-106800213D01*
X137029786Y-106649890D01*
X136857820Y-106524951D01*
X136668414Y-106428444D01*
X136668413Y-106428443D01*
X136668412Y-106428443D01*
X136466243Y-106362754D01*
X136466241Y-106362753D01*
X136466240Y-106362753D01*
X136304957Y-106337208D01*
X136256287Y-106329500D01*
X136043713Y-106329500D01*
X136015006Y-106334046D01*
X135833757Y-106362753D01*
X135791473Y-106376492D01*
X135721632Y-106378486D01*
X135665476Y-106346241D01*
X135001416Y-105682181D01*
X134967931Y-105620858D01*
X134972915Y-105551166D01*
X135014787Y-105495233D01*
X135080251Y-105470816D01*
X135089097Y-105470500D01*
X168439903Y-105470500D01*
X168506942Y-105490185D01*
X168527584Y-105506819D01*
X168949084Y-105928319D01*
X168982569Y-105989642D01*
X168977585Y-106059334D01*
X168935713Y-106115267D01*
X168870249Y-106139684D01*
X168861403Y-106140000D01*
X168713754Y-106140000D01*
X168503872Y-106173242D01*
X168503869Y-106173242D01*
X168301782Y-106238904D01*
X168112439Y-106335380D01*
X168058282Y-106374727D01*
X168058282Y-106374728D01*
X168690591Y-107007037D01*
X168627007Y-107024075D01*
X168512993Y-107089901D01*
X168419901Y-107182993D01*
X168354075Y-107297007D01*
X168337037Y-107360591D01*
X167666818Y-106690372D01*
X167633333Y-106629049D01*
X167630499Y-106602691D01*
X167630499Y-106592129D01*
X167630498Y-106592123D01*
X167630497Y-106592116D01*
X167624091Y-106532517D01*
X167621268Y-106524949D01*
X167573797Y-106397671D01*
X167573793Y-106397664D01*
X167487547Y-106282455D01*
X167487544Y-106282452D01*
X167372335Y-106196206D01*
X167372328Y-106196202D01*
X167237482Y-106145908D01*
X167237483Y-106145908D01*
X167177883Y-106139501D01*
X167177881Y-106139500D01*
X167177873Y-106139500D01*
X167177864Y-106139500D01*
X165382129Y-106139500D01*
X165382123Y-106139501D01*
X165322516Y-106145908D01*
X165187671Y-106196202D01*
X165187664Y-106196206D01*
X165072455Y-106282452D01*
X165072452Y-106282455D01*
X164986206Y-106397664D01*
X164986202Y-106397671D01*
X164935908Y-106532517D01*
X164931015Y-106578034D01*
X164929501Y-106592123D01*
X164929500Y-106592135D01*
X164929500Y-108387870D01*
X164929501Y-108387876D01*
X164935908Y-108447483D01*
X164986202Y-108582328D01*
X164986206Y-108582335D01*
X165072452Y-108697544D01*
X165072455Y-108697547D01*
X165187664Y-108783793D01*
X165187671Y-108783797D01*
X165322517Y-108834091D01*
X165322516Y-108834091D01*
X165327456Y-108834622D01*
X165382127Y-108840500D01*
X167177872Y-108840499D01*
X167237483Y-108834091D01*
X167372331Y-108783796D01*
X167487546Y-108697546D01*
X167573796Y-108582331D01*
X167624091Y-108447483D01*
X167630500Y-108387873D01*
X167630499Y-108363979D01*
X167633330Y-108350963D01*
X167643940Y-108331525D01*
X167650179Y-108310275D01*
X167666803Y-108289643D01*
X167666808Y-108289636D01*
X167666811Y-108289634D01*
X167666818Y-108289626D01*
X168337036Y-107619407D01*
X168354075Y-107682993D01*
X168419901Y-107797007D01*
X168512993Y-107890099D01*
X168627007Y-107955925D01*
X168690590Y-107972962D01*
X168058282Y-108605269D01*
X168058282Y-108605270D01*
X168112449Y-108644624D01*
X168301782Y-108741095D01*
X168503870Y-108806757D01*
X168713754Y-108840000D01*
X168926246Y-108840000D01*
X169136127Y-108806757D01*
X169136130Y-108806757D01*
X169338217Y-108741095D01*
X169527554Y-108644622D01*
X169581716Y-108605270D01*
X169581717Y-108605270D01*
X168949408Y-107972962D01*
X169012993Y-107955925D01*
X169127007Y-107890099D01*
X169220099Y-107797007D01*
X169285925Y-107682993D01*
X169302962Y-107619408D01*
X169935270Y-108251717D01*
X169935270Y-108251716D01*
X169974622Y-108197555D01*
X169979232Y-108188507D01*
X170027205Y-108137709D01*
X170095025Y-108120912D01*
X170161161Y-108143447D01*
X170200204Y-108188504D01*
X170204949Y-108197817D01*
X170329890Y-108369786D01*
X170480213Y-108520109D01*
X170652179Y-108645048D01*
X170652181Y-108645049D01*
X170652184Y-108645051D01*
X170841588Y-108741557D01*
X171043757Y-108807246D01*
X171253713Y-108840500D01*
X171253714Y-108840500D01*
X171466286Y-108840500D01*
X171466287Y-108840500D01*
X171676243Y-108807246D01*
X171878412Y-108741557D01*
X172067816Y-108645051D01*
X172122572Y-108605269D01*
X172239786Y-108520109D01*
X172239788Y-108520106D01*
X172239792Y-108520104D01*
X172390104Y-108369792D01*
X172390106Y-108369788D01*
X172390109Y-108369786D01*
X172499086Y-108219789D01*
X172515051Y-108197816D01*
X172519514Y-108189054D01*
X172567488Y-108138259D01*
X172635308Y-108121463D01*
X172701444Y-108143999D01*
X172740486Y-108189056D01*
X172744951Y-108197820D01*
X172869890Y-108369786D01*
X173020213Y-108520109D01*
X173192179Y-108645048D01*
X173192181Y-108645049D01*
X173192184Y-108645051D01*
X173381588Y-108741557D01*
X173583757Y-108807246D01*
X173793713Y-108840500D01*
X173793714Y-108840500D01*
X174006286Y-108840500D01*
X174006287Y-108840500D01*
X174216243Y-108807246D01*
X174418412Y-108741557D01*
X174607816Y-108645051D01*
X174662572Y-108605269D01*
X174779786Y-108520109D01*
X174779788Y-108520106D01*
X174779792Y-108520104D01*
X174930104Y-108369792D01*
X174930106Y-108369788D01*
X174930109Y-108369786D01*
X175039086Y-108219789D01*
X175055051Y-108197816D01*
X175151557Y-108008412D01*
X175157958Y-107988711D01*
X180109500Y-107988711D01*
X180109500Y-108231288D01*
X180138265Y-108449788D01*
X180141162Y-108471789D01*
X180148795Y-108500275D01*
X180203947Y-108706104D01*
X180296773Y-108930205D01*
X180296777Y-108930214D01*
X180307321Y-108948477D01*
X180418064Y-109140289D01*
X180418066Y-109140292D01*
X180418067Y-109140293D01*
X180565733Y-109332736D01*
X180565739Y-109332743D01*
X180737256Y-109504260D01*
X180737262Y-109504265D01*
X180929711Y-109651936D01*
X181139788Y-109773224D01*
X181363900Y-109866054D01*
X181598211Y-109928838D01*
X181778586Y-109952584D01*
X181838711Y-109960500D01*
X181838712Y-109960500D01*
X182081289Y-109960500D01*
X182129388Y-109954167D01*
X182321789Y-109928838D01*
X182556100Y-109866054D01*
X182780212Y-109773224D01*
X182990289Y-109651936D01*
X183182738Y-109504265D01*
X183354265Y-109332738D01*
X183501936Y-109140289D01*
X183623224Y-108930212D01*
X183716054Y-108706100D01*
X183778838Y-108471789D01*
X183810500Y-108231288D01*
X183810500Y-107988712D01*
X183778838Y-107748211D01*
X183716054Y-107513900D01*
X183623224Y-107289788D01*
X183501936Y-107079711D01*
X183419424Y-106972179D01*
X183354266Y-106887263D01*
X183354260Y-106887256D01*
X183182743Y-106715739D01*
X183182736Y-106715733D01*
X182990293Y-106568067D01*
X182990292Y-106568066D01*
X182990289Y-106568064D01*
X182799159Y-106457715D01*
X182780214Y-106446777D01*
X182780205Y-106446773D01*
X182556104Y-106353947D01*
X182321785Y-106291161D01*
X182081289Y-106259500D01*
X182081288Y-106259500D01*
X181838712Y-106259500D01*
X181838711Y-106259500D01*
X181598214Y-106291161D01*
X181363895Y-106353947D01*
X181139794Y-106446773D01*
X181139785Y-106446777D01*
X181004388Y-106524949D01*
X180930316Y-106567715D01*
X180929706Y-106568067D01*
X180737263Y-106715733D01*
X180737256Y-106715739D01*
X180565739Y-106887256D01*
X180565733Y-106887263D01*
X180418067Y-107079706D01*
X180296777Y-107289785D01*
X180296773Y-107289794D01*
X180203947Y-107513895D01*
X180141161Y-107748214D01*
X180109500Y-107988711D01*
X175157958Y-107988711D01*
X175217246Y-107806243D01*
X175250500Y-107596287D01*
X175250500Y-107383713D01*
X175217246Y-107173757D01*
X175151557Y-106971588D01*
X175055051Y-106782184D01*
X175055049Y-106782181D01*
X175055048Y-106782179D01*
X174930109Y-106610213D01*
X174779786Y-106459890D01*
X174607820Y-106334951D01*
X174418414Y-106238444D01*
X174418413Y-106238443D01*
X174418412Y-106238443D01*
X174216243Y-106172754D01*
X174216241Y-106172753D01*
X174216240Y-106172753D01*
X174054957Y-106147208D01*
X174006287Y-106139500D01*
X173793713Y-106139500D01*
X173765006Y-106144046D01*
X173583757Y-106172753D01*
X173541473Y-106186492D01*
X173471632Y-106188486D01*
X173415476Y-106156241D01*
X171257590Y-103998355D01*
X171257588Y-103998352D01*
X171138717Y-103879481D01*
X171138712Y-103879477D01*
X171025254Y-103813973D01*
X171001785Y-103800423D01*
X170849057Y-103759499D01*
X170690943Y-103759499D01*
X170683347Y-103759499D01*
X170683331Y-103759500D01*
X144816231Y-103759500D01*
X144749192Y-103739815D01*
X144703437Y-103687011D01*
X144693493Y-103617853D01*
X144705746Y-103579205D01*
X144777895Y-103437606D01*
X144777896Y-103437603D01*
X144806359Y-103350000D01*
X144846015Y-103227951D01*
X144880500Y-103010222D01*
X144880500Y-102789778D01*
X144846015Y-102572049D01*
X144811955Y-102467221D01*
X144777896Y-102362396D01*
X144777895Y-102362393D01*
X144708465Y-102226131D01*
X144708464Y-102226129D01*
X144677814Y-102165976D01*
X144548247Y-101987641D01*
X144548243Y-101987636D01*
X144392363Y-101831756D01*
X144392358Y-101831752D01*
X144214025Y-101702187D01*
X144214024Y-101702186D01*
X144214022Y-101702185D01*
X144151096Y-101670122D01*
X144017606Y-101602104D01*
X144017603Y-101602103D01*
X143807952Y-101533985D01*
X143699086Y-101516742D01*
X143590222Y-101499500D01*
X143369778Y-101499500D01*
X143301198Y-101510362D01*
X143152047Y-101533985D01*
X142942396Y-101602103D01*
X142942393Y-101602104D01*
X142745974Y-101702187D01*
X142567641Y-101831752D01*
X142567636Y-101831756D01*
X142517075Y-101882317D01*
X142455752Y-101915801D01*
X142386060Y-101910816D01*
X142330127Y-101868945D01*
X142313213Y-101837968D01*
X142283354Y-101757913D01*
X142283350Y-101757906D01*
X142197190Y-101642812D01*
X142197187Y-101642809D01*
X142082093Y-101556649D01*
X142082086Y-101556645D01*
X141947379Y-101506403D01*
X141947372Y-101506401D01*
X141887844Y-101500000D01*
X141190000Y-101500000D01*
X141190000Y-102524722D01*
X141113694Y-102480667D01*
X140999244Y-102450000D01*
X140880756Y-102450000D01*
X140766306Y-102480667D01*
X140690000Y-102524722D01*
X140690000Y-101500000D01*
X139992155Y-101500000D01*
X139932627Y-101506401D01*
X139932620Y-101506403D01*
X139797913Y-101556645D01*
X139797906Y-101556649D01*
X139682812Y-101642809D01*
X139682809Y-101642812D01*
X139596649Y-101757906D01*
X139596645Y-101757913D01*
X139546403Y-101892620D01*
X139546401Y-101892627D01*
X139540000Y-101952155D01*
X139540000Y-102650000D01*
X140564722Y-102650000D01*
X140520667Y-102726306D01*
X140490000Y-102840756D01*
X140490000Y-102959244D01*
X140520667Y-103073694D01*
X140564722Y-103150000D01*
X139540000Y-103150000D01*
X139540000Y-103635500D01*
X139520315Y-103702539D01*
X139467511Y-103748294D01*
X139416000Y-103759500D01*
X123570098Y-103759500D01*
X123503059Y-103739815D01*
X123482417Y-103723181D01*
X108306819Y-88547583D01*
X108273334Y-88486260D01*
X108270500Y-88459902D01*
X108270500Y-81019059D01*
X108270501Y-81019046D01*
X108270501Y-80850945D01*
X108270501Y-80850943D01*
X108229577Y-80698215D01*
X108189865Y-80629432D01*
X108150520Y-80561284D01*
X108038716Y-80449480D01*
X108038715Y-80449479D01*
X108034385Y-80445149D01*
X108034374Y-80445139D01*
X104858289Y-77269054D01*
X118529498Y-77269054D01*
X118545181Y-77327585D01*
X118570423Y-77421785D01*
X118588827Y-77453661D01*
X118649479Y-77558714D01*
X118649481Y-77558717D01*
X118768349Y-77677585D01*
X118768355Y-77677590D01*
X121745139Y-80654374D01*
X121745149Y-80654385D01*
X121749479Y-80658715D01*
X121749480Y-80658716D01*
X121861284Y-80770520D01*
X121948095Y-80820639D01*
X121948097Y-80820641D01*
X121986151Y-80842611D01*
X121998215Y-80849577D01*
X122150943Y-80890501D01*
X122150946Y-80890501D01*
X122316653Y-80890501D01*
X122316669Y-80890500D01*
X123619740Y-80890500D01*
X123686779Y-80910185D01*
X123725466Y-80949707D01*
X123727647Y-80953266D01*
X123844731Y-81114418D01*
X123985582Y-81255269D01*
X124146734Y-81372353D01*
X124216453Y-81407877D01*
X124298172Y-81449515D01*
X124348968Y-81497490D01*
X124365763Y-81565311D01*
X124343225Y-81631446D01*
X124298172Y-81670485D01*
X124146733Y-81747647D01*
X124083294Y-81793739D01*
X123985582Y-81864731D01*
X123985580Y-81864733D01*
X123985579Y-81864733D01*
X123844733Y-82005579D01*
X123844733Y-82005580D01*
X123844731Y-82005582D01*
X123796220Y-82072351D01*
X123727647Y-82166733D01*
X123637213Y-82344219D01*
X123575661Y-82533656D01*
X123575661Y-82533659D01*
X123544500Y-82730403D01*
X123544500Y-82929596D01*
X123575661Y-83126340D01*
X123575661Y-83126343D01*
X123637213Y-83315780D01*
X123678960Y-83397713D01*
X123727647Y-83493266D01*
X123844731Y-83654418D01*
X123985582Y-83795269D01*
X124146734Y-83912353D01*
X124215288Y-83947283D01*
X124298172Y-83989515D01*
X124348968Y-84037490D01*
X124365763Y-84105311D01*
X124343225Y-84171446D01*
X124298172Y-84210485D01*
X124146733Y-84287647D01*
X124069204Y-84343976D01*
X123985582Y-84404731D01*
X123985580Y-84404733D01*
X123985579Y-84404733D01*
X123844733Y-84545579D01*
X123844733Y-84545580D01*
X123844731Y-84545582D01*
X123820159Y-84579403D01*
X123727647Y-84706733D01*
X123637213Y-84884219D01*
X123575661Y-85073656D01*
X123575661Y-85073659D01*
X123544500Y-85270403D01*
X123544500Y-85469596D01*
X123575661Y-85666340D01*
X123575661Y-85666343D01*
X123637213Y-85855780D01*
X123708805Y-85996286D01*
X123727647Y-86033266D01*
X123844731Y-86194418D01*
X123985582Y-86335269D01*
X124146734Y-86452353D01*
X124216453Y-86487877D01*
X124298172Y-86529515D01*
X124348968Y-86577490D01*
X124365763Y-86645311D01*
X124343225Y-86711446D01*
X124298172Y-86750485D01*
X124146733Y-86827647D01*
X124108286Y-86855581D01*
X123985582Y-86944731D01*
X123985580Y-86944733D01*
X123985579Y-86944733D01*
X123844733Y-87085579D01*
X123844733Y-87085580D01*
X123844731Y-87085582D01*
X123804063Y-87141557D01*
X123727647Y-87246733D01*
X123637213Y-87424219D01*
X123575661Y-87613656D01*
X123575661Y-87613659D01*
X123556980Y-87731610D01*
X123544500Y-87810403D01*
X123544500Y-88009597D01*
X123551805Y-88055721D01*
X123575661Y-88206340D01*
X123575661Y-88206343D01*
X123637213Y-88395780D01*
X123696055Y-88511264D01*
X123727647Y-88573266D01*
X123844731Y-88734418D01*
X123985582Y-88875269D01*
X124146734Y-88992353D01*
X124216453Y-89027877D01*
X124298172Y-89069515D01*
X124348968Y-89117490D01*
X124365763Y-89185311D01*
X124343225Y-89251446D01*
X124298172Y-89290485D01*
X124146733Y-89367647D01*
X124056075Y-89433515D01*
X123985582Y-89484731D01*
X123985580Y-89484733D01*
X123985579Y-89484733D01*
X123844733Y-89625579D01*
X123844733Y-89625580D01*
X123844731Y-89625582D01*
X123804063Y-89681557D01*
X123727647Y-89786733D01*
X123637213Y-89964219D01*
X123575661Y-90153656D01*
X123575661Y-90153659D01*
X123550750Y-90310943D01*
X123544500Y-90350403D01*
X123544500Y-90549597D01*
X123554096Y-90610185D01*
X123575661Y-90746340D01*
X123575661Y-90746343D01*
X123637213Y-90935780D01*
X123708805Y-91076286D01*
X123727647Y-91113266D01*
X123844731Y-91274418D01*
X123985582Y-91415269D01*
X124146734Y-91532353D01*
X124216453Y-91567877D01*
X124298172Y-91609515D01*
X124348968Y-91657490D01*
X124365763Y-91725311D01*
X124343225Y-91791446D01*
X124298172Y-91830485D01*
X124146733Y-91907647D01*
X124070100Y-91963325D01*
X123985582Y-92024731D01*
X123985580Y-92024733D01*
X123985579Y-92024733D01*
X123844733Y-92165579D01*
X123844733Y-92165580D01*
X123844731Y-92165582D01*
X123796220Y-92232351D01*
X123727647Y-92326733D01*
X123637213Y-92504219D01*
X123575661Y-92693656D01*
X123575661Y-92693659D01*
X123544500Y-92890403D01*
X123544500Y-93089597D01*
X123553192Y-93144477D01*
X123575661Y-93286340D01*
X123575661Y-93286343D01*
X123637213Y-93475780D01*
X123700213Y-93599424D01*
X123727647Y-93653266D01*
X123844731Y-93814418D01*
X123985582Y-93955269D01*
X124146734Y-94072353D01*
X124165046Y-94081683D01*
X124187588Y-94102972D01*
X124211491Y-94122735D01*
X124213744Y-94127674D01*
X124215842Y-94129655D01*
X124226891Y-94154492D01*
X124227775Y-94157264D01*
X124250423Y-94241785D01*
X124260044Y-94258449D01*
X124264108Y-94271191D01*
X124264618Y-94293286D01*
X124269830Y-94314766D01*
X124265410Y-94327534D01*
X124265723Y-94341042D01*
X124254206Y-94359906D01*
X124246978Y-94380793D01*
X124235317Y-94390848D01*
X124229317Y-94400678D01*
X124216984Y-94406658D01*
X124202266Y-94419351D01*
X124146736Y-94447645D01*
X124119432Y-94467483D01*
X123985582Y-94564731D01*
X123985580Y-94564733D01*
X123985579Y-94564733D01*
X123844733Y-94705579D01*
X123844733Y-94705580D01*
X123844731Y-94705582D01*
X123799315Y-94768092D01*
X123727647Y-94866733D01*
X123637213Y-95044219D01*
X123575661Y-95233656D01*
X123575661Y-95233659D01*
X123575661Y-95233661D01*
X123544500Y-95430403D01*
X123544500Y-95629597D01*
X123560080Y-95727968D01*
X123575661Y-95826340D01*
X123575661Y-95826343D01*
X123637213Y-96015780D01*
X123676965Y-96093797D01*
X123727647Y-96193266D01*
X123844731Y-96354418D01*
X123985582Y-96495269D01*
X124146734Y-96612353D01*
X124216453Y-96647877D01*
X124298172Y-96689515D01*
X124348968Y-96737490D01*
X124365763Y-96805311D01*
X124343225Y-96871446D01*
X124298172Y-96910485D01*
X124146733Y-96987647D01*
X124054790Y-97054447D01*
X123985582Y-97104731D01*
X123985580Y-97104733D01*
X123985579Y-97104733D01*
X123844733Y-97245579D01*
X123844733Y-97245580D01*
X123844731Y-97245582D01*
X123815669Y-97285582D01*
X123727647Y-97406733D01*
X123637213Y-97584219D01*
X123575661Y-97773656D01*
X123575661Y-97773659D01*
X123569888Y-97810110D01*
X123544500Y-97970403D01*
X123544500Y-98169597D01*
X123550983Y-98210527D01*
X123575661Y-98366340D01*
X123575661Y-98366343D01*
X123637213Y-98555780D01*
X123665786Y-98611857D01*
X123727647Y-98733266D01*
X123844731Y-98894418D01*
X123985582Y-99035269D01*
X124146734Y-99152353D01*
X124216453Y-99187877D01*
X124298172Y-99229515D01*
X124348968Y-99277490D01*
X124365763Y-99345311D01*
X124343225Y-99411446D01*
X124298172Y-99450485D01*
X124146733Y-99527647D01*
X124054790Y-99594447D01*
X123985582Y-99644731D01*
X123985580Y-99644733D01*
X123985579Y-99644733D01*
X123844733Y-99785579D01*
X123844733Y-99785580D01*
X123844731Y-99785582D01*
X123796220Y-99852351D01*
X123727647Y-99946733D01*
X123637213Y-100124219D01*
X123575661Y-100313656D01*
X123575661Y-100313659D01*
X123544500Y-100510403D01*
X123544500Y-100709596D01*
X123575661Y-100906340D01*
X123575661Y-100906343D01*
X123637213Y-101095780D01*
X123727647Y-101273266D01*
X123844731Y-101434418D01*
X123985582Y-101575269D01*
X124146734Y-101692353D01*
X124275389Y-101757906D01*
X124324219Y-101782786D01*
X124513657Y-101844338D01*
X124513658Y-101844338D01*
X124513661Y-101844339D01*
X124710403Y-101875500D01*
X124710404Y-101875500D01*
X124909596Y-101875500D01*
X124909597Y-101875500D01*
X125106339Y-101844339D01*
X125106342Y-101844338D01*
X125106343Y-101844338D01*
X125147641Y-101830920D01*
X125295780Y-101782786D01*
X125295780Y-101782785D01*
X125295783Y-101782785D01*
X125473266Y-101692353D01*
X125634418Y-101575269D01*
X125775269Y-101434418D01*
X125892353Y-101273266D01*
X125982785Y-101095783D01*
X126016066Y-100993354D01*
X126044338Y-100906343D01*
X126044338Y-100906342D01*
X126044339Y-100906339D01*
X126075500Y-100709597D01*
X126075500Y-100510403D01*
X126044339Y-100313661D01*
X126044338Y-100313657D01*
X126044338Y-100313656D01*
X125982786Y-100124219D01*
X125955201Y-100070080D01*
X125892353Y-99946734D01*
X125775269Y-99785582D01*
X125634418Y-99644731D01*
X125473266Y-99527647D01*
X125321827Y-99450485D01*
X125271031Y-99402510D01*
X125254236Y-99334689D01*
X125276773Y-99268554D01*
X125321827Y-99229515D01*
X125331116Y-99224781D01*
X125473266Y-99152353D01*
X125634418Y-99035269D01*
X125775269Y-98894418D01*
X125892353Y-98733266D01*
X125982785Y-98555783D01*
X126014123Y-98459334D01*
X126044338Y-98366343D01*
X126044338Y-98366342D01*
X126044339Y-98366339D01*
X126075500Y-98169597D01*
X126075500Y-97970403D01*
X126044339Y-97773661D01*
X126044338Y-97773657D01*
X126044338Y-97773656D01*
X125982786Y-97584219D01*
X125907064Y-97435606D01*
X125892353Y-97406734D01*
X125775269Y-97245582D01*
X125634418Y-97104731D01*
X125473266Y-96987647D01*
X125321827Y-96910485D01*
X125271031Y-96862510D01*
X125254236Y-96794689D01*
X125276773Y-96728554D01*
X125321827Y-96689515D01*
X125331116Y-96684781D01*
X125473266Y-96612353D01*
X125634418Y-96495269D01*
X125775269Y-96354418D01*
X125892353Y-96193266D01*
X125899821Y-96178608D01*
X125947793Y-96127813D01*
X126015614Y-96111017D01*
X126081749Y-96133553D01*
X126097987Y-96147222D01*
X130665139Y-100714374D01*
X130665149Y-100714385D01*
X130669479Y-100718715D01*
X130669480Y-100718716D01*
X130781284Y-100830520D01*
X130781286Y-100830521D01*
X130836307Y-100862287D01*
X130836306Y-100862287D01*
X130836309Y-100862288D01*
X130918209Y-100909574D01*
X130918210Y-100909575D01*
X130918212Y-100909575D01*
X130918215Y-100909577D01*
X131070943Y-100950501D01*
X131070946Y-100950501D01*
X131236653Y-100950501D01*
X131236669Y-100950500D01*
X155953332Y-100950500D01*
X155960939Y-100950500D01*
X155960943Y-100950501D01*
X156106620Y-100950501D01*
X156106621Y-100950501D01*
X156144933Y-100956569D01*
X156274551Y-100998684D01*
X156335465Y-101018477D01*
X156436557Y-101034488D01*
X156537648Y-101050500D01*
X156537649Y-101050500D01*
X156742351Y-101050500D01*
X156742352Y-101050500D01*
X156944534Y-101018477D01*
X157139219Y-100955220D01*
X157321610Y-100862287D01*
X157418234Y-100792086D01*
X157487213Y-100741971D01*
X157487215Y-100741968D01*
X157487219Y-100741966D01*
X157631966Y-100597219D01*
X157631968Y-100597215D01*
X157631971Y-100597213D01*
X157695041Y-100510403D01*
X157752287Y-100431610D01*
X157845220Y-100249219D01*
X157908477Y-100054534D01*
X157913893Y-100020340D01*
X157928322Y-99929240D01*
X157940500Y-99852351D01*
X157940500Y-99647648D01*
X157908477Y-99445465D01*
X157874345Y-99340418D01*
X157845220Y-99250781D01*
X157845218Y-99250778D01*
X157845218Y-99250776D01*
X157795068Y-99152352D01*
X157752287Y-99068390D01*
X157741507Y-99053553D01*
X157631971Y-98902786D01*
X157487213Y-98758028D01*
X157321614Y-98637715D01*
X157301313Y-98627371D01*
X157228917Y-98590483D01*
X157178123Y-98542511D01*
X157161328Y-98474690D01*
X157183865Y-98408555D01*
X157228917Y-98369516D01*
X157321610Y-98322287D01*
X157371207Y-98286253D01*
X157487213Y-98201971D01*
X157487215Y-98201968D01*
X157487219Y-98201966D01*
X157631966Y-98057219D01*
X157631968Y-98057215D01*
X157631971Y-98057213D01*
X157716136Y-97941368D01*
X157752287Y-97891610D01*
X157845220Y-97709219D01*
X157908477Y-97514534D01*
X157940500Y-97312352D01*
X157940500Y-97107648D01*
X157909272Y-96910485D01*
X157908477Y-96905465D01*
X157875671Y-96804500D01*
X157845220Y-96710781D01*
X157845218Y-96710778D01*
X157845218Y-96710776D01*
X157795068Y-96612352D01*
X157752287Y-96528390D01*
X157739306Y-96510523D01*
X157631971Y-96362786D01*
X157487213Y-96218028D01*
X157321614Y-96097715D01*
X157313917Y-96093793D01*
X157228917Y-96050483D01*
X157178123Y-96002511D01*
X157161328Y-95934690D01*
X157183865Y-95868555D01*
X157228917Y-95829516D01*
X157321610Y-95782287D01*
X157424600Y-95707461D01*
X157487213Y-95661971D01*
X157487215Y-95661968D01*
X157487219Y-95661966D01*
X157631966Y-95517219D01*
X157631968Y-95517215D01*
X157631971Y-95517213D01*
X157695041Y-95430403D01*
X157752287Y-95351610D01*
X157845220Y-95169219D01*
X157908477Y-94974534D01*
X157940500Y-94772352D01*
X157940500Y-94567648D01*
X157908477Y-94365466D01*
X157906670Y-94359906D01*
X157872483Y-94254689D01*
X157845220Y-94170781D01*
X157845218Y-94170778D01*
X157845218Y-94170776D01*
X157799822Y-94081682D01*
X157752287Y-93988390D01*
X157737369Y-93967857D01*
X157631971Y-93822786D01*
X157487213Y-93678028D01*
X157321610Y-93557712D01*
X157308200Y-93550879D01*
X157297138Y-93540431D01*
X157283297Y-93534110D01*
X157272255Y-93516928D01*
X157257406Y-93502903D01*
X157253165Y-93487223D01*
X157245523Y-93475332D01*
X157240500Y-93440397D01*
X157240500Y-93359601D01*
X157260185Y-93292562D01*
X157308206Y-93249116D01*
X157321610Y-93242287D01*
X157487219Y-93121966D01*
X157631966Y-92977219D01*
X157631968Y-92977215D01*
X157631971Y-92977213D01*
X157695041Y-92890403D01*
X157752287Y-92811610D01*
X157845220Y-92629219D01*
X157908477Y-92434534D01*
X157940500Y-92232352D01*
X157940500Y-92027648D01*
X157908477Y-91825466D01*
X157845220Y-91630781D01*
X157845218Y-91630778D01*
X157845218Y-91630776D01*
X157772679Y-91488412D01*
X157752287Y-91448390D01*
X157728944Y-91416261D01*
X157631971Y-91282786D01*
X157487213Y-91138028D01*
X157321614Y-91017715D01*
X157315006Y-91014348D01*
X157228917Y-90970483D01*
X157178123Y-90922511D01*
X157161328Y-90854690D01*
X157183865Y-90788555D01*
X157228917Y-90749516D01*
X157321610Y-90702287D01*
X157442877Y-90614181D01*
X157508683Y-90590702D01*
X157515762Y-90590500D01*
X158884218Y-90590500D01*
X158951257Y-90610185D01*
X158971898Y-90626818D01*
X166192860Y-97847781D01*
X166192861Y-97847782D01*
X166279903Y-97934824D01*
X166332219Y-97987140D01*
X166407744Y-98037604D01*
X166496086Y-98096632D01*
X166595432Y-98137782D01*
X166678164Y-98172051D01*
X166832734Y-98202797D01*
X166871454Y-98210499D01*
X166871457Y-98210500D01*
X166871459Y-98210500D01*
X167068540Y-98210500D01*
X168409295Y-98210500D01*
X168476334Y-98230185D01*
X168522089Y-98282989D01*
X168532033Y-98352147D01*
X168503008Y-98415703D01*
X168444230Y-98453477D01*
X168437806Y-98455178D01*
X168432620Y-98456403D01*
X168297913Y-98506645D01*
X168297906Y-98506649D01*
X168182812Y-98592809D01*
X168182809Y-98592812D01*
X168096649Y-98707906D01*
X168096645Y-98707913D01*
X168046403Y-98842620D01*
X168046401Y-98842627D01*
X168040000Y-98902155D01*
X168040000Y-99500000D01*
X169024314Y-99500000D01*
X169019920Y-99504394D01*
X168967259Y-99595606D01*
X168940000Y-99697339D01*
X168940000Y-99802661D01*
X168967259Y-99904394D01*
X169019920Y-99995606D01*
X169024314Y-100000000D01*
X168040000Y-100000000D01*
X168040000Y-100597844D01*
X168046401Y-100657372D01*
X168046403Y-100657379D01*
X168096645Y-100792086D01*
X168096649Y-100792093D01*
X168182809Y-100907187D01*
X168182812Y-100907190D01*
X168297906Y-100993350D01*
X168297913Y-100993354D01*
X168432620Y-101043596D01*
X168432627Y-101043598D01*
X168492155Y-101049999D01*
X168492172Y-101050000D01*
X169090000Y-101050000D01*
X169090000Y-100065686D01*
X169094394Y-100070080D01*
X169185606Y-100122741D01*
X169287339Y-100150000D01*
X169392661Y-100150000D01*
X169494394Y-100122741D01*
X169585606Y-100070080D01*
X169590000Y-100065686D01*
X169590000Y-101050000D01*
X170187828Y-101050000D01*
X170187844Y-101049999D01*
X170247372Y-101043598D01*
X170247379Y-101043596D01*
X170382086Y-100993354D01*
X170382093Y-100993350D01*
X170465154Y-100931171D01*
X170497187Y-100907190D01*
X170497190Y-100907187D01*
X170583350Y-100792093D01*
X170583354Y-100792086D01*
X170633596Y-100657379D01*
X170633598Y-100657372D01*
X170639999Y-100597844D01*
X170640000Y-100597827D01*
X170640000Y-100000000D01*
X169655686Y-100000000D01*
X169660080Y-99995606D01*
X169712741Y-99904394D01*
X169740000Y-99802661D01*
X169740000Y-99697339D01*
X169712741Y-99595606D01*
X169660080Y-99504394D01*
X169655686Y-99500000D01*
X170640000Y-99500000D01*
X170640000Y-98902172D01*
X170639999Y-98902155D01*
X170633598Y-98842627D01*
X170633596Y-98842620D01*
X170583354Y-98707913D01*
X170583350Y-98707906D01*
X170497190Y-98592812D01*
X170497187Y-98592809D01*
X170382093Y-98506649D01*
X170382086Y-98506645D01*
X170247379Y-98456403D01*
X170247373Y-98456401D01*
X170209953Y-98452378D01*
X170145402Y-98425639D01*
X170105555Y-98368246D01*
X170103062Y-98298421D01*
X170138716Y-98238333D01*
X170150326Y-98228770D01*
X170154248Y-98225921D01*
X170187219Y-98201966D01*
X170331966Y-98057219D01*
X170331968Y-98057215D01*
X170331971Y-98057213D01*
X170416136Y-97941368D01*
X170452287Y-97891610D01*
X170545220Y-97709219D01*
X170608477Y-97514534D01*
X170640500Y-97312352D01*
X170640500Y-97107648D01*
X170609272Y-96910485D01*
X170608477Y-96905465D01*
X170575671Y-96804500D01*
X170545220Y-96710781D01*
X170545218Y-96710778D01*
X170545218Y-96710776D01*
X170495068Y-96612352D01*
X170452287Y-96528390D01*
X170439306Y-96510523D01*
X170331971Y-96362786D01*
X170187213Y-96218028D01*
X170021614Y-96097715D01*
X170013917Y-96093793D01*
X169928917Y-96050483D01*
X169878123Y-96002511D01*
X169861328Y-95934690D01*
X169883865Y-95868555D01*
X169928917Y-95829516D01*
X170021610Y-95782287D01*
X170124600Y-95707461D01*
X170187213Y-95661971D01*
X170187215Y-95661968D01*
X170187219Y-95661966D01*
X170331966Y-95517219D01*
X170331968Y-95517215D01*
X170331971Y-95517213D01*
X170395041Y-95430403D01*
X170452287Y-95351610D01*
X170545220Y-95169219D01*
X170608477Y-94974534D01*
X170640500Y-94772352D01*
X170640500Y-94567648D01*
X170608477Y-94365466D01*
X170606670Y-94359906D01*
X170572483Y-94254689D01*
X170545220Y-94170781D01*
X170545218Y-94170778D01*
X170545218Y-94170776D01*
X170499822Y-94081682D01*
X170452287Y-93988390D01*
X170437369Y-93967857D01*
X170331971Y-93822786D01*
X170187213Y-93678028D01*
X170021614Y-93557715D01*
X170015006Y-93554348D01*
X169928917Y-93510483D01*
X169878123Y-93462511D01*
X169861328Y-93394690D01*
X169883865Y-93328555D01*
X169928917Y-93289516D01*
X170021610Y-93242287D01*
X170142877Y-93154181D01*
X170208683Y-93130702D01*
X170215762Y-93130500D01*
X175404218Y-93130500D01*
X175471257Y-93150185D01*
X175491898Y-93166818D01*
X175863182Y-93538103D01*
X175896666Y-93599424D01*
X175899500Y-93625782D01*
X175899500Y-94407870D01*
X175899501Y-94407876D01*
X175905908Y-94467483D01*
X175956202Y-94602328D01*
X175956206Y-94602335D01*
X176042452Y-94717544D01*
X176042455Y-94717547D01*
X176157664Y-94803793D01*
X176157671Y-94803797D01*
X176292517Y-94854091D01*
X176292516Y-94854091D01*
X176299444Y-94854835D01*
X176352127Y-94860500D01*
X178147872Y-94860499D01*
X178207483Y-94854091D01*
X178342331Y-94803796D01*
X178457546Y-94717546D01*
X178543796Y-94602331D01*
X178594091Y-94467483D01*
X178600500Y-94407873D01*
X178600499Y-92612128D01*
X178594091Y-92552517D01*
X178576076Y-92504217D01*
X178543797Y-92417671D01*
X178543793Y-92417664D01*
X178457547Y-92302455D01*
X178457544Y-92302452D01*
X178342335Y-92216206D01*
X178342328Y-92216202D01*
X178210917Y-92167189D01*
X178154983Y-92125318D01*
X178130566Y-92059853D01*
X178145418Y-91991580D01*
X178166563Y-91963332D01*
X178280104Y-91849792D01*
X178297779Y-91825465D01*
X178405048Y-91677820D01*
X178405047Y-91677820D01*
X178405051Y-91677816D01*
X178501557Y-91488412D01*
X178567246Y-91286243D01*
X178600500Y-91076287D01*
X178600500Y-90863713D01*
X178567246Y-90653757D01*
X178501557Y-90451588D01*
X178405051Y-90262184D01*
X178405049Y-90262181D01*
X178405048Y-90262179D01*
X178280109Y-90090213D01*
X178129786Y-89939890D01*
X177957820Y-89814951D01*
X177957115Y-89814591D01*
X177949054Y-89810485D01*
X177898259Y-89762512D01*
X177881463Y-89694692D01*
X177903999Y-89628556D01*
X177949054Y-89589515D01*
X177957816Y-89585051D01*
X177979789Y-89569086D01*
X178129786Y-89460109D01*
X178129788Y-89460106D01*
X178129792Y-89460104D01*
X178280104Y-89309792D01*
X178280106Y-89309788D01*
X178280109Y-89309786D01*
X178405048Y-89137820D01*
X178405047Y-89137820D01*
X178405051Y-89137816D01*
X178501557Y-88948412D01*
X178567246Y-88746243D01*
X178600500Y-88536287D01*
X178600500Y-88323713D01*
X178567246Y-88113757D01*
X178501557Y-87911588D01*
X178405051Y-87722184D01*
X178405049Y-87722181D01*
X178405048Y-87722179D01*
X178280109Y-87550213D01*
X178129786Y-87399890D01*
X177957820Y-87274951D01*
X177957115Y-87274591D01*
X177949054Y-87270485D01*
X177898259Y-87222512D01*
X177881463Y-87154692D01*
X177903999Y-87088556D01*
X177949054Y-87049515D01*
X177957816Y-87045051D01*
X178091881Y-86947648D01*
X178129786Y-86920109D01*
X178129788Y-86920106D01*
X178129792Y-86920104D01*
X178280104Y-86769792D01*
X178280106Y-86769788D01*
X178280109Y-86769786D01*
X178405048Y-86597820D01*
X178405047Y-86597820D01*
X178405051Y-86597816D01*
X178501557Y-86408412D01*
X178567246Y-86206243D01*
X178600500Y-85996287D01*
X178600500Y-85783713D01*
X178567246Y-85573757D01*
X178501557Y-85371588D01*
X178405051Y-85182184D01*
X178405049Y-85182181D01*
X178405048Y-85182179D01*
X178280109Y-85010213D01*
X178129786Y-84859890D01*
X177957820Y-84734951D01*
X177768414Y-84638444D01*
X177768413Y-84638443D01*
X177768412Y-84638443D01*
X177566243Y-84572754D01*
X177566241Y-84572753D01*
X177566240Y-84572753D01*
X177394668Y-84545579D01*
X177356287Y-84539500D01*
X177143713Y-84539500D01*
X177105332Y-84545579D01*
X176933760Y-84572753D01*
X176933757Y-84572754D01*
X176750667Y-84632244D01*
X176731585Y-84638444D01*
X176542179Y-84734951D01*
X176370213Y-84859890D01*
X176219890Y-85010213D01*
X176094951Y-85182179D01*
X175998444Y-85371585D01*
X175932753Y-85573760D01*
X175898738Y-85788525D01*
X175897684Y-85788358D01*
X175890252Y-85807850D01*
X175884728Y-85833247D01*
X175876251Y-85844569D01*
X175874620Y-85848850D01*
X175863577Y-85861502D01*
X175711897Y-86013182D01*
X175650577Y-86046666D01*
X175624218Y-86049500D01*
X170215762Y-86049500D01*
X170148723Y-86029815D01*
X170142877Y-86025818D01*
X170141887Y-86025099D01*
X170040639Y-85951538D01*
X170021611Y-85937713D01*
X169928369Y-85890203D01*
X169877574Y-85842229D01*
X169860779Y-85774407D01*
X169883317Y-85708273D01*
X169928371Y-85669234D01*
X170021347Y-85621861D01*
X170186894Y-85501582D01*
X170186895Y-85501582D01*
X170331582Y-85356895D01*
X170331582Y-85356894D01*
X170451859Y-85191349D01*
X170544755Y-85009029D01*
X170607990Y-84814413D01*
X170616609Y-84760000D01*
X169655686Y-84760000D01*
X169660080Y-84755606D01*
X169712741Y-84664394D01*
X169740000Y-84562661D01*
X169740000Y-84457339D01*
X169712741Y-84355606D01*
X169660080Y-84264394D01*
X169655686Y-84260000D01*
X170616609Y-84260000D01*
X170607990Y-84205586D01*
X170544755Y-84010970D01*
X170451859Y-83828650D01*
X170349224Y-83687386D01*
X170325744Y-83621580D01*
X170341569Y-83553526D01*
X170391675Y-83504831D01*
X170449542Y-83490500D01*
X181995500Y-83490500D01*
X182062539Y-83510185D01*
X182108294Y-83562989D01*
X182119500Y-83614500D01*
X182119500Y-93557111D01*
X182099815Y-93624150D01*
X182083181Y-93644792D01*
X178627171Y-97100802D01*
X178565848Y-97134287D01*
X178539490Y-97137121D01*
X175664282Y-97137121D01*
X175431010Y-97174067D01*
X175206379Y-97247055D01*
X175045149Y-97329206D01*
X175001458Y-97342079D01*
X174947201Y-97347622D01*
X174780668Y-97402806D01*
X174780663Y-97402808D01*
X174631342Y-97494910D01*
X174507289Y-97618963D01*
X174415187Y-97768284D01*
X174415185Y-97768289D01*
X174401327Y-97810110D01*
X174360001Y-97934824D01*
X174360001Y-97934825D01*
X174360000Y-97934825D01*
X174349500Y-98037604D01*
X174349500Y-98172208D01*
X174343431Y-98210527D01*
X174318825Y-98286252D01*
X174281879Y-98519523D01*
X174281879Y-98755718D01*
X174318825Y-98988989D01*
X174343431Y-99064716D01*
X174349500Y-99103033D01*
X174349500Y-99237621D01*
X174349501Y-99237640D01*
X174360000Y-99340417D01*
X174360001Y-99340420D01*
X174412881Y-99500000D01*
X174415186Y-99506955D01*
X174507288Y-99656277D01*
X174631344Y-99780333D01*
X174780666Y-99872435D01*
X174842440Y-99892905D01*
X174899884Y-99932676D01*
X174926707Y-99997192D01*
X174927053Y-100020340D01*
X174924077Y-100058145D01*
X175603554Y-100737621D01*
X175597339Y-100737621D01*
X175495606Y-100764880D01*
X175404394Y-100817541D01*
X175329920Y-100892015D01*
X175277259Y-100983227D01*
X175250000Y-101084960D01*
X175250000Y-101091174D01*
X174570524Y-100411698D01*
X174570523Y-100411698D01*
X174538143Y-100456265D01*
X174445244Y-100638589D01*
X174382009Y-100833203D01*
X174350000Y-101035303D01*
X174350000Y-101239938D01*
X174382009Y-101442038D01*
X174445244Y-101636652D01*
X174538141Y-101818971D01*
X174538147Y-101818980D01*
X174570523Y-101863542D01*
X174570524Y-101863543D01*
X175250000Y-101184067D01*
X175250000Y-101190282D01*
X175277259Y-101292015D01*
X175329920Y-101383227D01*
X175404394Y-101457701D01*
X175495606Y-101510362D01*
X175597339Y-101537621D01*
X175603553Y-101537621D01*
X174924076Y-102217095D01*
X174968650Y-102249480D01*
X175150968Y-102342376D01*
X175345582Y-102405611D01*
X175547683Y-102437621D01*
X175752317Y-102437621D01*
X175954417Y-102405611D01*
X176149031Y-102342376D01*
X176331349Y-102249480D01*
X176375921Y-102217095D01*
X175696447Y-101537621D01*
X175702661Y-101537621D01*
X175804394Y-101510362D01*
X175895606Y-101457701D01*
X175970080Y-101383227D01*
X176022741Y-101292015D01*
X176050000Y-101190282D01*
X176050000Y-101184067D01*
X176729474Y-101863542D01*
X176761859Y-101818970D01*
X176854755Y-101636652D01*
X176917990Y-101442038D01*
X176950000Y-101239938D01*
X176950000Y-101035303D01*
X176917990Y-100833203D01*
X176854755Y-100638589D01*
X176761859Y-100456271D01*
X176673755Y-100335007D01*
X176650275Y-100269201D01*
X176666100Y-100201147D01*
X176716206Y-100152452D01*
X176774073Y-100138121D01*
X179330476Y-100138121D01*
X179563747Y-100101174D01*
X179788371Y-100028189D01*
X179998813Y-99920964D01*
X180189889Y-99782138D01*
X184764517Y-95207510D01*
X184903343Y-95016434D01*
X185010568Y-94805992D01*
X185011283Y-94803793D01*
X185074087Y-94610500D01*
X185083553Y-94581368D01*
X185104732Y-94447647D01*
X185120500Y-94348097D01*
X185120500Y-82307263D01*
X185122027Y-82287865D01*
X185150500Y-82108097D01*
X185150500Y-53911902D01*
X185113553Y-53678631D01*
X185055410Y-53499688D01*
X185040568Y-53454008D01*
X185040566Y-53454005D01*
X185040566Y-53454003D01*
X184933342Y-53243566D01*
X184794517Y-53052490D01*
X184627510Y-52885483D01*
X184436433Y-52746657D01*
X184225996Y-52639433D01*
X184001368Y-52566446D01*
X183768097Y-52529500D01*
X183768092Y-52529500D01*
X179228092Y-52529500D01*
X178991908Y-52529500D01*
X178991903Y-52529500D01*
X178758631Y-52566446D01*
X178534003Y-52639433D01*
X178323563Y-52746659D01*
X178132496Y-52885476D01*
X178132491Y-52885480D01*
X176867680Y-54150291D01*
X176806357Y-54183776D01*
X176736665Y-54178792D01*
X176692318Y-54150291D01*
X176287511Y-53745484D01*
X176239028Y-53710259D01*
X176096434Y-53606657D01*
X175885996Y-53499433D01*
X175661368Y-53426446D01*
X175428097Y-53389500D01*
X175428092Y-53389500D01*
X170232889Y-53389500D01*
X170165850Y-53369815D01*
X170145208Y-53353181D01*
X166257511Y-49465484D01*
X166236166Y-49449976D01*
X166066434Y-49326657D01*
X166025551Y-49305826D01*
X165855996Y-49219433D01*
X165681033Y-49162584D01*
X165681032Y-49162583D01*
X165631370Y-49146447D01*
X165398097Y-49109500D01*
X165398092Y-49109500D01*
X154168092Y-49109500D01*
X153931908Y-49109500D01*
X153931903Y-49109500D01*
X153698631Y-49146446D01*
X153474003Y-49219433D01*
X153263566Y-49326657D01*
X153201448Y-49371789D01*
X153072490Y-49465483D01*
X153072488Y-49465485D01*
X153072487Y-49465485D01*
X148195484Y-54342488D01*
X148056657Y-54533565D01*
X147968287Y-54707003D01*
X147949433Y-54744003D01*
X147876446Y-54968631D01*
X147839500Y-55201902D01*
X147839500Y-58257110D01*
X147819815Y-58324149D01*
X147803181Y-58344791D01*
X146164790Y-59983181D01*
X146103467Y-60016666D01*
X146077111Y-60019500D01*
X146012130Y-60019500D01*
X146012123Y-60019501D01*
X145952516Y-60025908D01*
X145817671Y-60076202D01*
X145817664Y-60076206D01*
X145702455Y-60162452D01*
X145702452Y-60162455D01*
X145616206Y-60277664D01*
X145616202Y-60277671D01*
X145565908Y-60412517D01*
X145559501Y-60472116D01*
X145559500Y-60472135D01*
X145559500Y-60675599D01*
X145556379Y-60688598D01*
X145557371Y-60698479D01*
X145545988Y-60731887D01*
X145538222Y-60747131D01*
X145538218Y-60747139D01*
X145519432Y-60784008D01*
X145519432Y-60784009D01*
X145446446Y-61008631D01*
X145409500Y-61241902D01*
X145409500Y-61488097D01*
X145446447Y-61721369D01*
X145446447Y-61721372D01*
X145519430Y-61945988D01*
X145519430Y-61945989D01*
X145545985Y-61998106D01*
X145559500Y-62054399D01*
X145559500Y-62267869D01*
X145559501Y-62267876D01*
X145565908Y-62327483D01*
X145616202Y-62462328D01*
X145616204Y-62462331D01*
X145660265Y-62521189D01*
X145684683Y-62586652D01*
X145669832Y-62654925D01*
X145620427Y-62704331D01*
X145560999Y-62719500D01*
X144586488Y-62719500D01*
X144519449Y-62699815D01*
X144473694Y-62647011D01*
X144463750Y-62577853D01*
X144487221Y-62521189D01*
X144491152Y-62515937D01*
X144523796Y-62472331D01*
X144574091Y-62337483D01*
X144580500Y-62277873D01*
X144580499Y-62064399D01*
X144594014Y-62008105D01*
X144620568Y-61955992D01*
X144693553Y-61731368D01*
X144710658Y-61623371D01*
X144730500Y-61498097D01*
X144730500Y-58106373D01*
X144750185Y-58039334D01*
X144800699Y-57994652D01*
X144842997Y-57974284D01*
X145071289Y-57830838D01*
X145282085Y-57662734D01*
X145472734Y-57472085D01*
X145640838Y-57261289D01*
X145784284Y-57032997D01*
X145901267Y-56790079D01*
X145990316Y-56535591D01*
X146050312Y-56272732D01*
X146080500Y-56004809D01*
X146080500Y-55735191D01*
X146050312Y-55467268D01*
X145990316Y-55204409D01*
X145989874Y-55203147D01*
X145916114Y-54992352D01*
X145901267Y-54949921D01*
X145784284Y-54707003D01*
X145640838Y-54478711D01*
X145472734Y-54267915D01*
X145282085Y-54077266D01*
X145277791Y-54073842D01*
X145207161Y-54017516D01*
X145071289Y-53909162D01*
X144845760Y-53767452D01*
X144842994Y-53765714D01*
X144600082Y-53648734D01*
X144345602Y-53559687D01*
X144345594Y-53559684D01*
X144148446Y-53514687D01*
X144082732Y-53499688D01*
X144082728Y-53499687D01*
X144082719Y-53499686D01*
X143814813Y-53469500D01*
X143814809Y-53469500D01*
X143545191Y-53469500D01*
X143545186Y-53469500D01*
X143277280Y-53499686D01*
X143277268Y-53499688D01*
X143014405Y-53559684D01*
X143014397Y-53559687D01*
X142759917Y-53648734D01*
X142517005Y-53765714D01*
X142288712Y-53909161D01*
X142077915Y-54077265D01*
X141887265Y-54267915D01*
X141719161Y-54478712D01*
X141575716Y-54707003D01*
X141458734Y-54949917D01*
X141369687Y-55204397D01*
X141369684Y-55204405D01*
X141324891Y-55400660D01*
X141290782Y-55461638D01*
X141229121Y-55494496D01*
X141159484Y-55488801D01*
X141103980Y-55446361D01*
X141080232Y-55380651D01*
X141080000Y-55373067D01*
X141080000Y-54665293D01*
X141079999Y-54665280D01*
X141069517Y-54532093D01*
X141069516Y-54532087D01*
X141014101Y-54312170D01*
X141014100Y-54312167D01*
X140920304Y-54105669D01*
X140920301Y-54105663D01*
X140791148Y-53919241D01*
X140791138Y-53919229D01*
X140630770Y-53758861D01*
X140630758Y-53758851D01*
X140444336Y-53629698D01*
X140444330Y-53629695D01*
X140237832Y-53535899D01*
X140237829Y-53535898D01*
X140017912Y-53480483D01*
X140017906Y-53480482D01*
X139884719Y-53470000D01*
X138930000Y-53470000D01*
X138930000Y-54542768D01*
X138786247Y-54520000D01*
X138573753Y-54520000D01*
X138430000Y-54542768D01*
X138430000Y-53470000D01*
X137475280Y-53470000D01*
X137342093Y-53480482D01*
X137342087Y-53480483D01*
X137122170Y-53535898D01*
X137122167Y-53535899D01*
X136915669Y-53629695D01*
X136915663Y-53629698D01*
X136729241Y-53758851D01*
X136729229Y-53758861D01*
X136568861Y-53919229D01*
X136568851Y-53919241D01*
X136439698Y-54105663D01*
X136439695Y-54105669D01*
X136345899Y-54312167D01*
X136345898Y-54312170D01*
X136290483Y-54532087D01*
X136290482Y-54532093D01*
X136280000Y-54665280D01*
X136280000Y-55620000D01*
X137352769Y-55620000D01*
X137330000Y-55763753D01*
X137330000Y-55976247D01*
X137352769Y-56120000D01*
X136280000Y-56120000D01*
X136280000Y-57074719D01*
X136290482Y-57207906D01*
X136290483Y-57207912D01*
X136345898Y-57427829D01*
X136345899Y-57427832D01*
X136439695Y-57634330D01*
X136439698Y-57634336D01*
X136568851Y-57820758D01*
X136568861Y-57820770D01*
X136729229Y-57981138D01*
X136729241Y-57981148D01*
X136915663Y-58110301D01*
X136915669Y-58110304D01*
X137122167Y-58204100D01*
X137122170Y-58204101D01*
X137342087Y-58259516D01*
X137342093Y-58259517D01*
X137475280Y-58269999D01*
X137475294Y-58270000D01*
X138430000Y-58270000D01*
X138430000Y-57197231D01*
X138573753Y-57220000D01*
X138786247Y-57220000D01*
X138930000Y-57197231D01*
X138930000Y-58270000D01*
X139884706Y-58270000D01*
X139884719Y-58269999D01*
X140017906Y-58259517D01*
X140017912Y-58259516D01*
X140237829Y-58204101D01*
X140237832Y-58204100D01*
X140444330Y-58110304D01*
X140444336Y-58110301D01*
X140630758Y-57981148D01*
X140630770Y-57981138D01*
X140791138Y-57820770D01*
X140791148Y-57820758D01*
X140920301Y-57634336D01*
X140920304Y-57634330D01*
X141014100Y-57427832D01*
X141014101Y-57427829D01*
X141069516Y-57207912D01*
X141069517Y-57207906D01*
X141079999Y-57074719D01*
X141080000Y-57074706D01*
X141080000Y-56366932D01*
X141099685Y-56299893D01*
X141152489Y-56254138D01*
X141221647Y-56244194D01*
X141285203Y-56273219D01*
X141322977Y-56331997D01*
X141324890Y-56339336D01*
X141326787Y-56347647D01*
X141369683Y-56535590D01*
X141369687Y-56535602D01*
X141458734Y-56790082D01*
X141575715Y-57032997D01*
X141638966Y-57133659D01*
X141710493Y-57247493D01*
X141729500Y-57313464D01*
X141729500Y-61498097D01*
X141766447Y-61731369D01*
X141766447Y-61731372D01*
X141823503Y-61906971D01*
X141825498Y-61976812D01*
X141789418Y-62036645D01*
X141726717Y-62067473D01*
X141657302Y-62059508D01*
X141617891Y-62032970D01*
X140936818Y-61351897D01*
X140903333Y-61290574D01*
X140900499Y-61264216D01*
X140900499Y-60482129D01*
X140900498Y-60482123D01*
X140900497Y-60482116D01*
X140894091Y-60422517D01*
X140890361Y-60412517D01*
X140843797Y-60287671D01*
X140843793Y-60287664D01*
X140757547Y-60172455D01*
X140757544Y-60172452D01*
X140642335Y-60086206D01*
X140642328Y-60086202D01*
X140507482Y-60035908D01*
X140507483Y-60035908D01*
X140447883Y-60029501D01*
X140447881Y-60029500D01*
X140447873Y-60029500D01*
X140447864Y-60029500D01*
X138652129Y-60029500D01*
X138652123Y-60029501D01*
X138592516Y-60035908D01*
X138457671Y-60086202D01*
X138457664Y-60086206D01*
X138342455Y-60172452D01*
X138342452Y-60172455D01*
X138256206Y-60287664D01*
X138256202Y-60287671D01*
X138205908Y-60422517D01*
X138200887Y-60469223D01*
X138199501Y-60482123D01*
X138199500Y-60482135D01*
X138199500Y-62277870D01*
X138199501Y-62277876D01*
X138205908Y-62337483D01*
X138256202Y-62472328D01*
X138256206Y-62472335D01*
X138342452Y-62587544D01*
X138342455Y-62587547D01*
X138457664Y-62673793D01*
X138457671Y-62673797D01*
X138592517Y-62724091D01*
X138592516Y-62724091D01*
X138599444Y-62724835D01*
X138652127Y-62730500D01*
X139434217Y-62730499D01*
X139501256Y-62750183D01*
X139521897Y-62766817D01*
X141112860Y-64357781D01*
X141112861Y-64357782D01*
X141252218Y-64497139D01*
X141252219Y-64497140D01*
X141416079Y-64606628D01*
X141416092Y-64606635D01*
X141544833Y-64659961D01*
X141587744Y-64677735D01*
X141598164Y-64682051D01*
X141694812Y-64701275D01*
X141743135Y-64710887D01*
X141791458Y-64720500D01*
X141791459Y-64720500D01*
X141791460Y-64720500D01*
X141988540Y-64720500D01*
X155450292Y-64720500D01*
X155517331Y-64740185D01*
X155563086Y-64792989D01*
X155573030Y-64862147D01*
X155572766Y-64863885D01*
X155568074Y-64893513D01*
X155559500Y-64947648D01*
X155559500Y-65152351D01*
X155591522Y-65354534D01*
X155654781Y-65549223D01*
X155718691Y-65674653D01*
X155738954Y-65714420D01*
X155747715Y-65731613D01*
X155868028Y-65897213D01*
X155868034Y-65897219D01*
X156012781Y-66041966D01*
X156178390Y-66162287D01*
X156191793Y-66169116D01*
X156202856Y-66179564D01*
X156216703Y-66185888D01*
X156227744Y-66203068D01*
X156242589Y-66217088D01*
X156246830Y-66232768D01*
X156254477Y-66244666D01*
X156259500Y-66279601D01*
X156259500Y-66360397D01*
X156239815Y-66427436D01*
X156191800Y-66470879D01*
X156178389Y-66477712D01*
X156012786Y-66598028D01*
X155868028Y-66742786D01*
X155747715Y-66908386D01*
X155654781Y-67090776D01*
X155591522Y-67285465D01*
X155559500Y-67487648D01*
X155559500Y-67692351D01*
X155591522Y-67894534D01*
X155654781Y-68089223D01*
X155718691Y-68214653D01*
X155738366Y-68253266D01*
X155747715Y-68271613D01*
X155868028Y-68437213D01*
X156012786Y-68581971D01*
X156137189Y-68672353D01*
X156178390Y-68702287D01*
X156261081Y-68744420D01*
X156271080Y-68749515D01*
X156321876Y-68797490D01*
X156338671Y-68865311D01*
X156316134Y-68931446D01*
X156271080Y-68970485D01*
X156178386Y-69017715D01*
X156012786Y-69138028D01*
X155868028Y-69282786D01*
X155747715Y-69448386D01*
X155654781Y-69630776D01*
X155591522Y-69825465D01*
X155559500Y-70027648D01*
X155559500Y-70232351D01*
X155591522Y-70434534D01*
X155654781Y-70629223D01*
X155702266Y-70722416D01*
X155746942Y-70810097D01*
X155747715Y-70811613D01*
X155868028Y-70977213D01*
X156012786Y-71121971D01*
X156137189Y-71212353D01*
X156178390Y-71242287D01*
X156269840Y-71288883D01*
X156271080Y-71289515D01*
X156321876Y-71337490D01*
X156338671Y-71405311D01*
X156316134Y-71471446D01*
X156271080Y-71510485D01*
X156178386Y-71557715D01*
X156012786Y-71678028D01*
X155868028Y-71822786D01*
X155747715Y-71988386D01*
X155654781Y-72170776D01*
X155591522Y-72365465D01*
X155559500Y-72567648D01*
X155559500Y-72772351D01*
X155591522Y-72974534D01*
X155654781Y-73169223D01*
X155718691Y-73294653D01*
X155738366Y-73333266D01*
X155747715Y-73351613D01*
X155868028Y-73517213D01*
X156012786Y-73661971D01*
X156137189Y-73752353D01*
X156178390Y-73782287D01*
X156266517Y-73827190D01*
X156360776Y-73875218D01*
X156360778Y-73875218D01*
X156360781Y-73875220D01*
X156450400Y-73904339D01*
X156555465Y-73938477D01*
X156598613Y-73945311D01*
X156757648Y-73970500D01*
X156757649Y-73970500D01*
X156962351Y-73970500D01*
X156962352Y-73970500D01*
X157164534Y-73938477D01*
X157359219Y-73875220D01*
X157541610Y-73782287D01*
X157638234Y-73712086D01*
X157707213Y-73661971D01*
X157707215Y-73661968D01*
X157707219Y-73661966D01*
X157851966Y-73517219D01*
X157851968Y-73517215D01*
X157851971Y-73517213D01*
X157954358Y-73376287D01*
X157972287Y-73351610D01*
X158065220Y-73169219D01*
X158128477Y-72974534D01*
X158160500Y-72772352D01*
X158160500Y-72567648D01*
X158144682Y-72467781D01*
X158128477Y-72365465D01*
X158087675Y-72239890D01*
X158065220Y-72170781D01*
X158065218Y-72170778D01*
X158065218Y-72170776D01*
X158031503Y-72104607D01*
X157972287Y-71988390D01*
X157935307Y-71937491D01*
X157851971Y-71822786D01*
X157707213Y-71678028D01*
X157541614Y-71557715D01*
X157535006Y-71554348D01*
X157448917Y-71510483D01*
X157398123Y-71462511D01*
X157381328Y-71394690D01*
X157403865Y-71328555D01*
X157448917Y-71289516D01*
X157541610Y-71242287D01*
X157582812Y-71212352D01*
X157707213Y-71121971D01*
X157707215Y-71121968D01*
X157707219Y-71121966D01*
X157851966Y-70977219D01*
X157851968Y-70977215D01*
X157851971Y-70977213D01*
X157954358Y-70836287D01*
X157972287Y-70811610D01*
X158065220Y-70629219D01*
X158128477Y-70434534D01*
X158160500Y-70232352D01*
X158160500Y-70027648D01*
X158139509Y-69895119D01*
X158128477Y-69825465D01*
X158087675Y-69699890D01*
X158065220Y-69630781D01*
X158065218Y-69630778D01*
X158065218Y-69630776D01*
X158010054Y-69522512D01*
X157972287Y-69448390D01*
X157935490Y-69397743D01*
X157851971Y-69282786D01*
X157707213Y-69138028D01*
X157541614Y-69017715D01*
X157535006Y-69014348D01*
X157448917Y-68970483D01*
X157398123Y-68922511D01*
X157381328Y-68854690D01*
X157403865Y-68788555D01*
X157448917Y-68749516D01*
X157541610Y-68702287D01*
X157582812Y-68672352D01*
X157707213Y-68581971D01*
X157707215Y-68581968D01*
X157707219Y-68581966D01*
X157851966Y-68437219D01*
X157851968Y-68437215D01*
X157851971Y-68437213D01*
X157954358Y-68296287D01*
X157972287Y-68271610D01*
X158065220Y-68089219D01*
X158128477Y-67894534D01*
X158160500Y-67692352D01*
X158160500Y-67487648D01*
X158132262Y-67309365D01*
X158128477Y-67285465D01*
X158091693Y-67172256D01*
X158065220Y-67090781D01*
X158065218Y-67090778D01*
X158065218Y-67090776D01*
X158031503Y-67024607D01*
X157972287Y-66908390D01*
X157964556Y-66897749D01*
X157851971Y-66742786D01*
X157707213Y-66598028D01*
X157541610Y-66477712D01*
X157528200Y-66470879D01*
X157517138Y-66460431D01*
X157503297Y-66454110D01*
X157492255Y-66436928D01*
X157477406Y-66422903D01*
X157473165Y-66407223D01*
X157465523Y-66395332D01*
X157460500Y-66360397D01*
X157460500Y-66279601D01*
X157480185Y-66212562D01*
X157528206Y-66169116D01*
X157541610Y-66162287D01*
X157707219Y-66041966D01*
X157851966Y-65897219D01*
X157851968Y-65897215D01*
X157851971Y-65897213D01*
X157904732Y-65824590D01*
X157972287Y-65731610D01*
X158065220Y-65549219D01*
X158105465Y-65425357D01*
X158144901Y-65367684D01*
X158209260Y-65340485D01*
X158278106Y-65352400D01*
X158311075Y-65375995D01*
X163702860Y-70767781D01*
X163702861Y-70767782D01*
X163842218Y-70907139D01*
X163842219Y-70907140D01*
X163979767Y-70999046D01*
X164006086Y-71016632D01*
X164077574Y-71046243D01*
X164188164Y-71092051D01*
X164381454Y-71130499D01*
X164381457Y-71130500D01*
X164381459Y-71130500D01*
X164545218Y-71130500D01*
X164612257Y-71150185D01*
X164658012Y-71202989D01*
X164667956Y-71272147D01*
X164638931Y-71335703D01*
X164632899Y-71342180D01*
X161322221Y-74652858D01*
X161322218Y-74652861D01*
X161257415Y-74717664D01*
X161182859Y-74792219D01*
X161073371Y-74956079D01*
X161073364Y-74956092D01*
X160997950Y-75138160D01*
X160997947Y-75138170D01*
X160959500Y-75331456D01*
X160959500Y-78724217D01*
X160939815Y-78791256D01*
X160923181Y-78811898D01*
X158091076Y-81644002D01*
X158029753Y-81677487D01*
X157960061Y-81672503D01*
X157904128Y-81630631D01*
X157885464Y-81594639D01*
X157882197Y-81584584D01*
X157845220Y-81470781D01*
X157752287Y-81288390D01*
X157739844Y-81271264D01*
X157631971Y-81122786D01*
X157487213Y-80978028D01*
X157321613Y-80857715D01*
X157321612Y-80857714D01*
X157321610Y-80857713D01*
X157248852Y-80820641D01*
X157139223Y-80764781D01*
X156944534Y-80701522D01*
X156769995Y-80673878D01*
X156742352Y-80669500D01*
X156537648Y-80669500D01*
X156513329Y-80673351D01*
X156335465Y-80701522D01*
X156140776Y-80764781D01*
X155958386Y-80857715D01*
X155792786Y-80978028D01*
X155648028Y-81122786D01*
X155527715Y-81288386D01*
X155434781Y-81470776D01*
X155371522Y-81665465D01*
X155339500Y-81867648D01*
X155339500Y-82072351D01*
X155371522Y-82274534D01*
X155434781Y-82469223D01*
X155482266Y-82562416D01*
X155526942Y-82650097D01*
X155527715Y-82651613D01*
X155648028Y-82817213D01*
X155792786Y-82961971D01*
X155947749Y-83074556D01*
X155958390Y-83082287D01*
X156044847Y-83126339D01*
X156051080Y-83129515D01*
X156101876Y-83177490D01*
X156118671Y-83245311D01*
X156096134Y-83311446D01*
X156051080Y-83350485D01*
X155958386Y-83397715D01*
X155792786Y-83518028D01*
X155648028Y-83662786D01*
X155527715Y-83828386D01*
X155434781Y-84010776D01*
X155371522Y-84205465D01*
X155339500Y-84407648D01*
X155339500Y-84612351D01*
X155371522Y-84814534D01*
X155434781Y-85009223D01*
X155468626Y-85075646D01*
X155527713Y-85191610D01*
X155615819Y-85312877D01*
X155639298Y-85378681D01*
X155639500Y-85385761D01*
X155639500Y-86174237D01*
X155619815Y-86241276D01*
X155615818Y-86247122D01*
X155527715Y-86368386D01*
X155434781Y-86550776D01*
X155371522Y-86745465D01*
X155339500Y-86947648D01*
X155339500Y-87152351D01*
X155371522Y-87354534D01*
X155434781Y-87549223D01*
X155518306Y-87713147D01*
X155527713Y-87731610D01*
X155615819Y-87852877D01*
X155639298Y-87918681D01*
X155639500Y-87925761D01*
X155639500Y-88714237D01*
X155619815Y-88781276D01*
X155615818Y-88787122D01*
X155527715Y-88908386D01*
X155434781Y-89090778D01*
X155371522Y-89285468D01*
X155348073Y-89433515D01*
X155318143Y-89496649D01*
X155313281Y-89501797D01*
X154771899Y-90043181D01*
X154710576Y-90076666D01*
X154684218Y-90079500D01*
X141661456Y-90079500D01*
X141468171Y-90117946D01*
X141468167Y-90117948D01*
X141468165Y-90117948D01*
X141468164Y-90117949D01*
X141392745Y-90149188D01*
X141373044Y-90157348D01*
X141286089Y-90193366D01*
X141286079Y-90193371D01*
X141142268Y-90289464D01*
X141142267Y-90289465D01*
X141122215Y-90302862D01*
X141122214Y-90302863D01*
X138311899Y-93113181D01*
X138284971Y-93127884D01*
X138259153Y-93144477D01*
X138252952Y-93145368D01*
X138250576Y-93146666D01*
X138224218Y-93149500D01*
X138155782Y-93149500D01*
X138088743Y-93129815D01*
X138068101Y-93113181D01*
X132436819Y-87481899D01*
X132403334Y-87420576D01*
X132400500Y-87394218D01*
X132400500Y-86295714D01*
X132420185Y-86228675D01*
X132436819Y-86208033D01*
X132470615Y-86174237D01*
X132508286Y-86136566D01*
X132569991Y-86051635D01*
X132625321Y-86008970D01*
X132694934Y-86002991D01*
X132734290Y-86023756D01*
X132751347Y-86025099D01*
X133350439Y-85426007D01*
X133377271Y-85490785D01*
X133446764Y-85594789D01*
X133535211Y-85683236D01*
X133639215Y-85752729D01*
X133703991Y-85779560D01*
X133104899Y-86378651D01*
X133178725Y-86432288D01*
X133178731Y-86432292D01*
X133382431Y-86536082D01*
X133599875Y-86606734D01*
X133825687Y-86642500D01*
X134054313Y-86642500D01*
X134280124Y-86606734D01*
X134280125Y-86606734D01*
X134497568Y-86536082D01*
X134701276Y-86432288D01*
X134775098Y-86378651D01*
X134176007Y-85779560D01*
X134240785Y-85752729D01*
X134344789Y-85683236D01*
X134433236Y-85594789D01*
X134502729Y-85490785D01*
X134529561Y-85426007D01*
X135128651Y-86025098D01*
X135145503Y-86023772D01*
X135164699Y-86008970D01*
X135234312Y-86002989D01*
X135296107Y-86035594D01*
X135310007Y-86051634D01*
X135310317Y-86052061D01*
X135371714Y-86136566D01*
X135533434Y-86298286D01*
X135718462Y-86432717D01*
X135921327Y-86536082D01*
X135922244Y-86536549D01*
X136139751Y-86607221D01*
X136139752Y-86607221D01*
X136139755Y-86607222D01*
X136365646Y-86643000D01*
X136365647Y-86643000D01*
X136594353Y-86643000D01*
X136594354Y-86643000D01*
X136820245Y-86607222D01*
X136820248Y-86607221D01*
X136820249Y-86607221D01*
X137037755Y-86536549D01*
X137037755Y-86536548D01*
X137037758Y-86536548D01*
X137241538Y-86432717D01*
X137426566Y-86298286D01*
X137588286Y-86136566D01*
X137649683Y-86052059D01*
X137705012Y-86009396D01*
X137774625Y-86003417D01*
X137836420Y-86036023D01*
X137850314Y-86052056D01*
X137911714Y-86136566D01*
X138073434Y-86298286D01*
X138258462Y-86432717D01*
X138461327Y-86536082D01*
X138462244Y-86536549D01*
X138679751Y-86607221D01*
X138679752Y-86607221D01*
X138679755Y-86607222D01*
X138905646Y-86643000D01*
X138905647Y-86643000D01*
X139134353Y-86643000D01*
X139134354Y-86643000D01*
X139360245Y-86607222D01*
X139360248Y-86607221D01*
X139360249Y-86607221D01*
X139577755Y-86536549D01*
X139577755Y-86536548D01*
X139577758Y-86536548D01*
X139781538Y-86432717D01*
X139966566Y-86298286D01*
X140128286Y-86136566D01*
X140189683Y-86052059D01*
X140245012Y-86009396D01*
X140314625Y-86003417D01*
X140376420Y-86036023D01*
X140390314Y-86052056D01*
X140451714Y-86136566D01*
X140613434Y-86298286D01*
X140798462Y-86432717D01*
X141001327Y-86536082D01*
X141002244Y-86536549D01*
X141219751Y-86607221D01*
X141219752Y-86607221D01*
X141219755Y-86607222D01*
X141445646Y-86643000D01*
X141445647Y-86643000D01*
X141674353Y-86643000D01*
X141674354Y-86643000D01*
X141900245Y-86607222D01*
X141900248Y-86607221D01*
X141900249Y-86607221D01*
X142117755Y-86536549D01*
X142117755Y-86536548D01*
X142117758Y-86536548D01*
X142321538Y-86432717D01*
X142506566Y-86298286D01*
X142668286Y-86136566D01*
X142729683Y-86052059D01*
X142785012Y-86009396D01*
X142854625Y-86003417D01*
X142916420Y-86036023D01*
X142930314Y-86052056D01*
X142991714Y-86136566D01*
X143153434Y-86298286D01*
X143338462Y-86432717D01*
X143541327Y-86536082D01*
X143542244Y-86536549D01*
X143759751Y-86607221D01*
X143759752Y-86607221D01*
X143759755Y-86607222D01*
X143985646Y-86643000D01*
X143985647Y-86643000D01*
X144214353Y-86643000D01*
X144214354Y-86643000D01*
X144440245Y-86607222D01*
X144440248Y-86607221D01*
X144440249Y-86607221D01*
X144657755Y-86536549D01*
X144657755Y-86536548D01*
X144657758Y-86536548D01*
X144861538Y-86432717D01*
X145046566Y-86298286D01*
X145208286Y-86136566D01*
X145269683Y-86052059D01*
X145325012Y-86009396D01*
X145394625Y-86003417D01*
X145456420Y-86036023D01*
X145470314Y-86052056D01*
X145531714Y-86136566D01*
X145693434Y-86298286D01*
X145878462Y-86432717D01*
X146081327Y-86536082D01*
X146082244Y-86536549D01*
X146299751Y-86607221D01*
X146299752Y-86607221D01*
X146299755Y-86607222D01*
X146525646Y-86643000D01*
X146525647Y-86643000D01*
X146754353Y-86643000D01*
X146754354Y-86643000D01*
X146980245Y-86607222D01*
X146980248Y-86607221D01*
X146980249Y-86607221D01*
X147197755Y-86536549D01*
X147197755Y-86536548D01*
X147197758Y-86536548D01*
X147401538Y-86432717D01*
X147586566Y-86298286D01*
X147748286Y-86136566D01*
X147809683Y-86052059D01*
X147865012Y-86009396D01*
X147934625Y-86003417D01*
X147996420Y-86036023D01*
X148010314Y-86052056D01*
X148071714Y-86136566D01*
X148233434Y-86298286D01*
X148418462Y-86432717D01*
X148621327Y-86536082D01*
X148622244Y-86536549D01*
X148839751Y-86607221D01*
X148839752Y-86607221D01*
X148839755Y-86607222D01*
X149065646Y-86643000D01*
X149065647Y-86643000D01*
X149294353Y-86643000D01*
X149294354Y-86643000D01*
X149520245Y-86607222D01*
X149520248Y-86607221D01*
X149520249Y-86607221D01*
X149737755Y-86536549D01*
X149737755Y-86536548D01*
X149737758Y-86536548D01*
X149941538Y-86432717D01*
X150126566Y-86298286D01*
X150288286Y-86136566D01*
X150422717Y-85951538D01*
X150526548Y-85747758D01*
X150567454Y-85621861D01*
X150597221Y-85530249D01*
X150597221Y-85530248D01*
X150597222Y-85530245D01*
X150633000Y-85304354D01*
X150633000Y-85075646D01*
X150597222Y-84849755D01*
X150597221Y-84849751D01*
X150597221Y-84849750D01*
X150526549Y-84632244D01*
X150523720Y-84626691D01*
X150422717Y-84428462D01*
X150288286Y-84243434D01*
X150126566Y-84081714D01*
X149941538Y-83947283D01*
X149790052Y-83870097D01*
X149737755Y-83843450D01*
X149520248Y-83772778D01*
X149350826Y-83745944D01*
X149294354Y-83737000D01*
X149065646Y-83737000D01*
X148990349Y-83748926D01*
X148839753Y-83772778D01*
X148839750Y-83772778D01*
X148622244Y-83843450D01*
X148418461Y-83947283D01*
X148312896Y-84023980D01*
X148233434Y-84081714D01*
X148233432Y-84081716D01*
X148233431Y-84081716D01*
X148071715Y-84243432D01*
X148010318Y-84327938D01*
X147954987Y-84370603D01*
X147885374Y-84376582D01*
X147823579Y-84343976D01*
X147809682Y-84327938D01*
X147798773Y-84312923D01*
X147748286Y-84243434D01*
X147586566Y-84081714D01*
X147401538Y-83947283D01*
X147250052Y-83870097D01*
X147197755Y-83843450D01*
X146980248Y-83772778D01*
X146810826Y-83745944D01*
X146754354Y-83737000D01*
X146525646Y-83737000D01*
X146450349Y-83748926D01*
X146299753Y-83772778D01*
X146299750Y-83772778D01*
X146082244Y-83843450D01*
X145878461Y-83947283D01*
X145772896Y-84023980D01*
X145693434Y-84081714D01*
X145693432Y-84081716D01*
X145693431Y-84081716D01*
X145531715Y-84243432D01*
X145470318Y-84327938D01*
X145414987Y-84370603D01*
X145345374Y-84376582D01*
X145283579Y-84343976D01*
X145269682Y-84327938D01*
X145258773Y-84312923D01*
X145208286Y-84243434D01*
X145046566Y-84081714D01*
X144861538Y-83947283D01*
X144710052Y-83870097D01*
X144657755Y-83843450D01*
X144440248Y-83772778D01*
X144270826Y-83745944D01*
X144214354Y-83737000D01*
X143985646Y-83737000D01*
X143910349Y-83748926D01*
X143759753Y-83772778D01*
X143759750Y-83772778D01*
X143542244Y-83843450D01*
X143338461Y-83947283D01*
X143232896Y-84023980D01*
X143153434Y-84081714D01*
X143153432Y-84081716D01*
X143153431Y-84081716D01*
X142991715Y-84243432D01*
X142930318Y-84327938D01*
X142874987Y-84370603D01*
X142805374Y-84376582D01*
X142743579Y-84343976D01*
X142729682Y-84327938D01*
X142718773Y-84312923D01*
X142668286Y-84243434D01*
X142506566Y-84081714D01*
X142321538Y-83947283D01*
X142170052Y-83870097D01*
X142117755Y-83843450D01*
X141900248Y-83772778D01*
X141730826Y-83745944D01*
X141674354Y-83737000D01*
X141445646Y-83737000D01*
X141370349Y-83748926D01*
X141219753Y-83772778D01*
X141219750Y-83772778D01*
X141002244Y-83843450D01*
X140798461Y-83947283D01*
X140692896Y-84023980D01*
X140613434Y-84081714D01*
X140613432Y-84081716D01*
X140613431Y-84081716D01*
X140451715Y-84243432D01*
X140390318Y-84327938D01*
X140334987Y-84370603D01*
X140265374Y-84376582D01*
X140203579Y-84343976D01*
X140189682Y-84327938D01*
X140178773Y-84312923D01*
X140128286Y-84243434D01*
X139966566Y-84081714D01*
X139781538Y-83947283D01*
X139630052Y-83870097D01*
X139577755Y-83843450D01*
X139360248Y-83772778D01*
X139190826Y-83745944D01*
X139134354Y-83737000D01*
X138905646Y-83737000D01*
X138860467Y-83744155D01*
X138679751Y-83772778D01*
X138580130Y-83805146D01*
X138510288Y-83807141D01*
X138454132Y-83774896D01*
X135986819Y-81307583D01*
X135953334Y-81246260D01*
X135950500Y-81219902D01*
X135950500Y-73308711D01*
X146499500Y-73308711D01*
X146499500Y-73551288D01*
X146531161Y-73791785D01*
X146593947Y-74026104D01*
X146686773Y-74250205D01*
X146686776Y-74250212D01*
X146808064Y-74460289D01*
X146808066Y-74460292D01*
X146808067Y-74460293D01*
X146955733Y-74652736D01*
X146955739Y-74652743D01*
X147127256Y-74824260D01*
X147127262Y-74824265D01*
X147319711Y-74971936D01*
X147529788Y-75093224D01*
X147753900Y-75186054D01*
X147988211Y-75248838D01*
X148168586Y-75272584D01*
X148228711Y-75280500D01*
X148228712Y-75280500D01*
X148471289Y-75280500D01*
X148519388Y-75274167D01*
X148711789Y-75248838D01*
X148946100Y-75186054D01*
X149170212Y-75093224D01*
X149380289Y-74971936D01*
X149572738Y-74824265D01*
X149744265Y-74652738D01*
X149891936Y-74460289D01*
X150013224Y-74250212D01*
X150106054Y-74026100D01*
X150168838Y-73791789D01*
X150200500Y-73551288D01*
X150200500Y-73308712D01*
X150168838Y-73068211D01*
X150106054Y-72833900D01*
X150102116Y-72824394D01*
X150059977Y-72722661D01*
X150013224Y-72609788D01*
X149891936Y-72399711D01*
X149813322Y-72297259D01*
X149744266Y-72207263D01*
X149744260Y-72207256D01*
X149572743Y-72035739D01*
X149572736Y-72035733D01*
X149380293Y-71888067D01*
X149380292Y-71888066D01*
X149380289Y-71888064D01*
X149170212Y-71766776D01*
X149170205Y-71766773D01*
X148946104Y-71673947D01*
X148711785Y-71611161D01*
X148471289Y-71579500D01*
X148471288Y-71579500D01*
X148228712Y-71579500D01*
X148228711Y-71579500D01*
X147988214Y-71611161D01*
X147753895Y-71673947D01*
X147529794Y-71766773D01*
X147529785Y-71766777D01*
X147393297Y-71845579D01*
X147324932Y-71885050D01*
X147319706Y-71888067D01*
X147127263Y-72035733D01*
X147127256Y-72035739D01*
X146955739Y-72207256D01*
X146955733Y-72207263D01*
X146808067Y-72399706D01*
X146686777Y-72609785D01*
X146686773Y-72609794D01*
X146593947Y-72833895D01*
X146531161Y-73068214D01*
X146499500Y-73308711D01*
X135950500Y-73308711D01*
X135950500Y-70599059D01*
X135950501Y-70599046D01*
X135950501Y-70430945D01*
X135950501Y-70430943D01*
X135909577Y-70278215D01*
X135880639Y-70228095D01*
X135830520Y-70141284D01*
X135718716Y-70029480D01*
X135718715Y-70029479D01*
X135714385Y-70025149D01*
X135714374Y-70025139D01*
X126171390Y-60482155D01*
X134550000Y-60482155D01*
X134550000Y-61130000D01*
X135466988Y-61130000D01*
X135434075Y-61187007D01*
X135400000Y-61314174D01*
X135400000Y-61445826D01*
X135434075Y-61572993D01*
X135466988Y-61630000D01*
X134550000Y-61630000D01*
X134550000Y-62277844D01*
X134556401Y-62337372D01*
X134556403Y-62337379D01*
X134606645Y-62472086D01*
X134606649Y-62472093D01*
X134692809Y-62587187D01*
X134692812Y-62587190D01*
X134807906Y-62673350D01*
X134807913Y-62673354D01*
X134942620Y-62723596D01*
X134942627Y-62723598D01*
X135002155Y-62729999D01*
X135002172Y-62730000D01*
X135650000Y-62730000D01*
X135650000Y-61813012D01*
X135707007Y-61845925D01*
X135834174Y-61880000D01*
X135965826Y-61880000D01*
X136092993Y-61845925D01*
X136150000Y-61813012D01*
X136150000Y-62730000D01*
X136797828Y-62730000D01*
X136797844Y-62729999D01*
X136857372Y-62723598D01*
X136857379Y-62723596D01*
X136992086Y-62673354D01*
X136992093Y-62673350D01*
X137107187Y-62587190D01*
X137107190Y-62587187D01*
X137193350Y-62472093D01*
X137193354Y-62472086D01*
X137243596Y-62337379D01*
X137243598Y-62337372D01*
X137249999Y-62277844D01*
X137250000Y-62277824D01*
X137250000Y-61630000D01*
X136333012Y-61630000D01*
X136365925Y-61572993D01*
X136400000Y-61445826D01*
X136400000Y-61314174D01*
X136365925Y-61187007D01*
X136333012Y-61130000D01*
X137250000Y-61130000D01*
X137250000Y-60482172D01*
X137249999Y-60482155D01*
X137243598Y-60422627D01*
X137243596Y-60422620D01*
X137193354Y-60287913D01*
X137193350Y-60287906D01*
X137107190Y-60172812D01*
X137107187Y-60172809D01*
X136992093Y-60086649D01*
X136992086Y-60086645D01*
X136857379Y-60036403D01*
X136857372Y-60036401D01*
X136797844Y-60030000D01*
X136150000Y-60030000D01*
X136150000Y-60946988D01*
X136092993Y-60914075D01*
X135965826Y-60880000D01*
X135834174Y-60880000D01*
X135707007Y-60914075D01*
X135650000Y-60946988D01*
X135650000Y-60030000D01*
X135002155Y-60030000D01*
X134942627Y-60036401D01*
X134942620Y-60036403D01*
X134807913Y-60086645D01*
X134807906Y-60086649D01*
X134692812Y-60172809D01*
X134692809Y-60172812D01*
X134606649Y-60287906D01*
X134606645Y-60287913D01*
X134556403Y-60422620D01*
X134556401Y-60422627D01*
X134550000Y-60482155D01*
X126171390Y-60482155D01*
X126076257Y-60387022D01*
X126042772Y-60325699D01*
X126043368Y-60270378D01*
X126044332Y-60266358D01*
X126044339Y-60266339D01*
X126075500Y-60069597D01*
X126075500Y-59870403D01*
X126044339Y-59673661D01*
X126044338Y-59673657D01*
X126044338Y-59673656D01*
X125982786Y-59484219D01*
X125953804Y-59427339D01*
X125892353Y-59306734D01*
X125775269Y-59145582D01*
X125634418Y-59004731D01*
X125473266Y-58887647D01*
X125321827Y-58810485D01*
X125271031Y-58762510D01*
X125254236Y-58694689D01*
X125276773Y-58628554D01*
X125321827Y-58589515D01*
X125331116Y-58584781D01*
X125473266Y-58512353D01*
X125634418Y-58395269D01*
X125775269Y-58254418D01*
X125892353Y-58093266D01*
X125982785Y-57915783D01*
X126013657Y-57820770D01*
X126044338Y-57726343D01*
X126044338Y-57726342D01*
X126044339Y-57726339D01*
X126075500Y-57529597D01*
X126075500Y-57330403D01*
X126044339Y-57133661D01*
X126044338Y-57133657D01*
X126044338Y-57133656D01*
X125982786Y-56944219D01*
X125904249Y-56790082D01*
X125892353Y-56766734D01*
X125775269Y-56605582D01*
X125634418Y-56464731D01*
X125473266Y-56347647D01*
X125427812Y-56324487D01*
X125321277Y-56270204D01*
X125312691Y-56262095D01*
X125301697Y-56257795D01*
X125287759Y-56238547D01*
X125270481Y-56222229D01*
X125267642Y-56210767D01*
X125260718Y-56201205D01*
X125259398Y-56177476D01*
X125253686Y-56154408D01*
X125257494Y-56143232D01*
X125256839Y-56131443D01*
X125268558Y-56110766D01*
X125276224Y-56088273D01*
X125286340Y-56079393D01*
X125291292Y-56070658D01*
X125318189Y-56051439D01*
X125319878Y-56049958D01*
X125485221Y-55963048D01*
X125510863Y-55944418D01*
X125510863Y-55944417D01*
X124947574Y-55381128D01*
X125006853Y-55365245D01*
X125123147Y-55298102D01*
X125218102Y-55203147D01*
X125285245Y-55086853D01*
X125301128Y-55027574D01*
X125864417Y-55590863D01*
X125864418Y-55590863D01*
X125891924Y-55553005D01*
X125982320Y-55375594D01*
X126043852Y-55186222D01*
X126075000Y-54989563D01*
X126075000Y-54790436D01*
X126057865Y-54682249D01*
X126043852Y-54593777D01*
X125982320Y-54404405D01*
X125891924Y-54226994D01*
X125864417Y-54189135D01*
X125864417Y-54189134D01*
X125301128Y-54752424D01*
X125285245Y-54693147D01*
X125218102Y-54576853D01*
X125123147Y-54481898D01*
X125006853Y-54414755D01*
X124947574Y-54398871D01*
X125510864Y-53835581D01*
X125510863Y-53835580D01*
X125473008Y-53808077D01*
X125295594Y-53717679D01*
X125106222Y-53656147D01*
X124909563Y-53625000D01*
X124710437Y-53625000D01*
X124513777Y-53656147D01*
X124324405Y-53717679D01*
X124200629Y-53780746D01*
X124131959Y-53793642D01*
X124067219Y-53767365D01*
X124026962Y-53710259D01*
X124023970Y-53640453D01*
X124056651Y-53582583D01*
X127012416Y-50626817D01*
X127073739Y-50593333D01*
X127100097Y-50590499D01*
X128447871Y-50590499D01*
X128447872Y-50590499D01*
X128507483Y-50584091D01*
X128642331Y-50533796D01*
X128757546Y-50447546D01*
X128843796Y-50332331D01*
X128894091Y-50197483D01*
X128900500Y-50137873D01*
X128900499Y-50113979D01*
X128903330Y-50100963D01*
X128913940Y-50081525D01*
X128920179Y-50060275D01*
X128936803Y-50039643D01*
X128936808Y-50039636D01*
X128936811Y-50039634D01*
X128936818Y-50039626D01*
X129607037Y-49369408D01*
X129624075Y-49432993D01*
X129689901Y-49547007D01*
X129782993Y-49640099D01*
X129897007Y-49705925D01*
X129960590Y-49722962D01*
X129328282Y-50355269D01*
X129328282Y-50355270D01*
X129382449Y-50394624D01*
X129571782Y-50491095D01*
X129773870Y-50556757D01*
X129983754Y-50590000D01*
X130196246Y-50590000D01*
X130406127Y-50556757D01*
X130406130Y-50556757D01*
X130608217Y-50491095D01*
X130797554Y-50394622D01*
X130851716Y-50355270D01*
X130851717Y-50355270D01*
X130219408Y-49722962D01*
X130282993Y-49705925D01*
X130397007Y-49640099D01*
X130490099Y-49547007D01*
X130555925Y-49432993D01*
X130572962Y-49369409D01*
X131205270Y-50001717D01*
X131205270Y-50001716D01*
X131244622Y-49947554D01*
X131341095Y-49758217D01*
X131406757Y-49556130D01*
X131406757Y-49556127D01*
X131440000Y-49346246D01*
X131440000Y-49133753D01*
X131426530Y-49048711D01*
X179829500Y-49048711D01*
X179829500Y-49291288D01*
X179861161Y-49531785D01*
X179923947Y-49766104D01*
X180016773Y-49990205D01*
X180016776Y-49990212D01*
X180138064Y-50200289D01*
X180138066Y-50200292D01*
X180138067Y-50200293D01*
X180285733Y-50392736D01*
X180285739Y-50392743D01*
X180457256Y-50564260D01*
X180457263Y-50564266D01*
X180491451Y-50590499D01*
X180649711Y-50711936D01*
X180859788Y-50833224D01*
X181083900Y-50926054D01*
X181318211Y-50988838D01*
X181498586Y-51012584D01*
X181558711Y-51020500D01*
X181558712Y-51020500D01*
X181801289Y-51020500D01*
X181849388Y-51014167D01*
X182041789Y-50988838D01*
X182276100Y-50926054D01*
X182500212Y-50833224D01*
X182710289Y-50711936D01*
X182902738Y-50564265D01*
X183074265Y-50392738D01*
X183221936Y-50200289D01*
X183343224Y-49990212D01*
X183436054Y-49766100D01*
X183498838Y-49531789D01*
X183530500Y-49291288D01*
X183530500Y-49048712D01*
X183498838Y-48808211D01*
X183436054Y-48573900D01*
X183343224Y-48349788D01*
X183221936Y-48139711D01*
X183139635Y-48032454D01*
X183074266Y-47947263D01*
X183074260Y-47947256D01*
X182902743Y-47775739D01*
X182902736Y-47775733D01*
X182710293Y-47628067D01*
X182710292Y-47628066D01*
X182710289Y-47628064D01*
X182500212Y-47506776D01*
X182500205Y-47506773D01*
X182276104Y-47413947D01*
X182041785Y-47351161D01*
X181801289Y-47319500D01*
X181801288Y-47319500D01*
X181558712Y-47319500D01*
X181558711Y-47319500D01*
X181318214Y-47351161D01*
X181083895Y-47413947D01*
X180859794Y-47506773D01*
X180859785Y-47506777D01*
X180783392Y-47550883D01*
X180671066Y-47615735D01*
X180649706Y-47628067D01*
X180457263Y-47775733D01*
X180457256Y-47775739D01*
X180285739Y-47947256D01*
X180285733Y-47947263D01*
X180138067Y-48139706D01*
X180138064Y-48139710D01*
X180138064Y-48139711D01*
X180133468Y-48147671D01*
X180016777Y-48349785D01*
X180016773Y-48349794D01*
X179923947Y-48573895D01*
X179861161Y-48808214D01*
X179829500Y-49048711D01*
X131426530Y-49048711D01*
X131406757Y-48923872D01*
X131406757Y-48923869D01*
X131341095Y-48721782D01*
X131244624Y-48532449D01*
X131205270Y-48478282D01*
X131205269Y-48478282D01*
X130572962Y-49110590D01*
X130555925Y-49047007D01*
X130490099Y-48932993D01*
X130397007Y-48839901D01*
X130282993Y-48774075D01*
X130219409Y-48757037D01*
X130851716Y-48124728D01*
X130797550Y-48085375D01*
X130608217Y-47988904D01*
X130406129Y-47923242D01*
X130196246Y-47890000D01*
X129983754Y-47890000D01*
X129773872Y-47923242D01*
X129773869Y-47923242D01*
X129571782Y-47988904D01*
X129382439Y-48085380D01*
X129328282Y-48124727D01*
X129328282Y-48124728D01*
X129960591Y-48757037D01*
X129897007Y-48774075D01*
X129782993Y-48839901D01*
X129689901Y-48932993D01*
X129624075Y-49047007D01*
X129607037Y-49110591D01*
X128936818Y-48440372D01*
X128903333Y-48379049D01*
X128903330Y-48379036D01*
X128900499Y-48366015D01*
X128900499Y-48342128D01*
X128894091Y-48282517D01*
X128859508Y-48189794D01*
X128843798Y-48147673D01*
X128843793Y-48147664D01*
X128757547Y-48032455D01*
X128757544Y-48032452D01*
X128642335Y-47946206D01*
X128642328Y-47946202D01*
X128507482Y-47895908D01*
X128507483Y-47895908D01*
X128447883Y-47889501D01*
X128447881Y-47889500D01*
X128447873Y-47889500D01*
X128447864Y-47889500D01*
X126652129Y-47889500D01*
X126652123Y-47889501D01*
X126592516Y-47895908D01*
X126457671Y-47946202D01*
X126457664Y-47946206D01*
X126342455Y-48032452D01*
X126342452Y-48032455D01*
X126256206Y-48147664D01*
X126256202Y-48147671D01*
X126205908Y-48282517D01*
X126199501Y-48342116D01*
X126199500Y-48342135D01*
X126199500Y-49689902D01*
X126179815Y-49756941D01*
X126163181Y-49777583D01*
X118649481Y-57291282D01*
X118649477Y-57291287D01*
X118606348Y-57365991D01*
X118606348Y-57365992D01*
X118570423Y-57428214D01*
X118570423Y-57428215D01*
X118529499Y-57580943D01*
X118529499Y-57739057D01*
X118529499Y-57739059D01*
X118529500Y-57749053D01*
X118529500Y-77103330D01*
X118529499Y-77103348D01*
X118529499Y-77269054D01*
X118529498Y-77269054D01*
X104858289Y-77269054D01*
X100676257Y-73087022D01*
X100642772Y-73025699D01*
X100643368Y-72970378D01*
X100644332Y-72966358D01*
X100644339Y-72966339D01*
X100675500Y-72769597D01*
X100675500Y-72570403D01*
X100644339Y-72373661D01*
X100644338Y-72373657D01*
X100644338Y-72373656D01*
X100582786Y-72184219D01*
X100520773Y-72062512D01*
X100492353Y-72006734D01*
X100375269Y-71845582D01*
X100234418Y-71704731D01*
X100073266Y-71587647D01*
X99921827Y-71510485D01*
X99871031Y-71462510D01*
X99854236Y-71394689D01*
X99876773Y-71328554D01*
X99921827Y-71289515D01*
X99931116Y-71284781D01*
X100073266Y-71212353D01*
X100234418Y-71095269D01*
X100375269Y-70954418D01*
X100492353Y-70793266D01*
X100582785Y-70615783D01*
X100638878Y-70443147D01*
X100644338Y-70426343D01*
X100644338Y-70426342D01*
X100644339Y-70426339D01*
X100675500Y-70229597D01*
X100675500Y-70030403D01*
X100644339Y-69833661D01*
X100644338Y-69833657D01*
X100644338Y-69833656D01*
X100582786Y-69644219D01*
X100492352Y-69466733D01*
X100375269Y-69305582D01*
X100234418Y-69164731D01*
X100073266Y-69047647D01*
X100014517Y-69017713D01*
X99921827Y-68970485D01*
X99871031Y-68922510D01*
X99854236Y-68854689D01*
X99876773Y-68788554D01*
X99921827Y-68749515D01*
X99931826Y-68744420D01*
X100073266Y-68672353D01*
X100234418Y-68555269D01*
X100375269Y-68414418D01*
X100492353Y-68253266D01*
X100582785Y-68075783D01*
X100637404Y-67907684D01*
X100644338Y-67886343D01*
X100644338Y-67886342D01*
X100644339Y-67886339D01*
X100675500Y-67689597D01*
X100675500Y-67490403D01*
X100644339Y-67293661D01*
X100644338Y-67293657D01*
X100644338Y-67293656D01*
X100582786Y-67104219D01*
X100492352Y-66926733D01*
X100479022Y-66908386D01*
X100375269Y-66765582D01*
X100234418Y-66624731D01*
X100073266Y-66507647D01*
X99921827Y-66430485D01*
X99871031Y-66382510D01*
X99854236Y-66314689D01*
X99876773Y-66248554D01*
X99921827Y-66209515D01*
X99934480Y-66203068D01*
X100073266Y-66132353D01*
X100234418Y-66015269D01*
X100375269Y-65874418D01*
X100492353Y-65713266D01*
X100582785Y-65535783D01*
X100637404Y-65367684D01*
X100644338Y-65346343D01*
X100644338Y-65346342D01*
X100644339Y-65346339D01*
X100675500Y-65149597D01*
X100675500Y-64950403D01*
X100644339Y-64753661D01*
X100644338Y-64753657D01*
X100644338Y-64753656D01*
X100582786Y-64564219D01*
X100561713Y-64522861D01*
X100492353Y-64386734D01*
X100375269Y-64225582D01*
X100234418Y-64084731D01*
X100073266Y-63967647D01*
X99921827Y-63890485D01*
X99871031Y-63842510D01*
X99854236Y-63774689D01*
X99876773Y-63708554D01*
X99921827Y-63669515D01*
X99931116Y-63664781D01*
X100073266Y-63592353D01*
X100234418Y-63475269D01*
X100375269Y-63334418D01*
X100492353Y-63173266D01*
X100582785Y-62995783D01*
X100582786Y-62995780D01*
X100644338Y-62806343D01*
X100644338Y-62806342D01*
X100644339Y-62806339D01*
X100675500Y-62609597D01*
X100675500Y-62410403D01*
X100644339Y-62213661D01*
X100644338Y-62213657D01*
X100644338Y-62213656D01*
X100582786Y-62024219D01*
X100549337Y-61958572D01*
X100492353Y-61846734D01*
X100375269Y-61685582D01*
X100234418Y-61544731D01*
X100073266Y-61427647D01*
X99921827Y-61350485D01*
X99871031Y-61302510D01*
X99854236Y-61234689D01*
X99876773Y-61168554D01*
X99921827Y-61129515D01*
X99931116Y-61124781D01*
X100073266Y-61052353D01*
X100234418Y-60935269D01*
X100375269Y-60794418D01*
X100492353Y-60633266D01*
X100582785Y-60455783D01*
X100637329Y-60287913D01*
X100644338Y-60266343D01*
X100644338Y-60266342D01*
X100644339Y-60266339D01*
X100675500Y-60069597D01*
X100675500Y-59870403D01*
X100644339Y-59673661D01*
X100644338Y-59673657D01*
X100644338Y-59673656D01*
X100582786Y-59484219D01*
X100553804Y-59427339D01*
X100492353Y-59306734D01*
X100375269Y-59145582D01*
X100234418Y-59004731D01*
X100073266Y-58887647D01*
X99921827Y-58810485D01*
X99871031Y-58762510D01*
X99854236Y-58694689D01*
X99876773Y-58628554D01*
X99921827Y-58589515D01*
X99931116Y-58584781D01*
X100073266Y-58512353D01*
X100234418Y-58395269D01*
X100375269Y-58254418D01*
X100492353Y-58093266D01*
X100582785Y-57915783D01*
X100613657Y-57820770D01*
X100644338Y-57726343D01*
X100644338Y-57726342D01*
X100644339Y-57726339D01*
X100675500Y-57529597D01*
X100675500Y-57330403D01*
X100644339Y-57133661D01*
X100644338Y-57133657D01*
X100644338Y-57133656D01*
X100582786Y-56944219D01*
X100504249Y-56790082D01*
X100492353Y-56766734D01*
X100375269Y-56605582D01*
X100234418Y-56464731D01*
X100117543Y-56379816D01*
X100074878Y-56324487D01*
X100068899Y-56254874D01*
X100101505Y-56193079D01*
X100162343Y-56158722D01*
X100190428Y-56155499D01*
X100222872Y-56155499D01*
X100282483Y-56149091D01*
X100417331Y-56098796D01*
X100532546Y-56012546D01*
X100618796Y-55897331D01*
X100669091Y-55762483D01*
X100675500Y-55702873D01*
X100675499Y-54077128D01*
X100669091Y-54017517D01*
X100632436Y-53919241D01*
X100618797Y-53882671D01*
X100618793Y-53882664D01*
X100532547Y-53767455D01*
X100532544Y-53767452D01*
X100417335Y-53681206D01*
X100417328Y-53681202D01*
X100282482Y-53630908D01*
X100282483Y-53630908D01*
X100222883Y-53624501D01*
X100222881Y-53624500D01*
X100222873Y-53624500D01*
X100222864Y-53624500D01*
X98597129Y-53624500D01*
X98597123Y-53624501D01*
X98537516Y-53630908D01*
X98402671Y-53681202D01*
X98402664Y-53681206D01*
X98287455Y-53767452D01*
X98287452Y-53767455D01*
X98201206Y-53882664D01*
X98201202Y-53882671D01*
X98150908Y-54017517D01*
X98148192Y-54042786D01*
X98144501Y-54077123D01*
X98144500Y-54077135D01*
X94863886Y-54077135D01*
X94862362Y-48890527D01*
X94862462Y-48888711D01*
X96759500Y-48888711D01*
X96759500Y-49131288D01*
X96791161Y-49371785D01*
X96853947Y-49606104D01*
X96924976Y-49777583D01*
X96946776Y-49830212D01*
X97068064Y-50040289D01*
X97068066Y-50040292D01*
X97068067Y-50040293D01*
X97215733Y-50232736D01*
X97215739Y-50232743D01*
X97387256Y-50404260D01*
X97387262Y-50404265D01*
X97579711Y-50551936D01*
X97789788Y-50673224D01*
X98013900Y-50766054D01*
X98248211Y-50828838D01*
X98428586Y-50852584D01*
X98488711Y-50860500D01*
X98488712Y-50860500D01*
X98731289Y-50860500D01*
X98779388Y-50854167D01*
X98971789Y-50828838D01*
X99206100Y-50766054D01*
X99430212Y-50673224D01*
X99640289Y-50551936D01*
X99832738Y-50404265D01*
X100004265Y-50232738D01*
X100151936Y-50040289D01*
X100273224Y-49830212D01*
X100366054Y-49606100D01*
X100428838Y-49371789D01*
X100460500Y-49131288D01*
X100460500Y-48888712D01*
X100458346Y-48872354D01*
X100440922Y-48740000D01*
X100428838Y-48648211D01*
X100366054Y-48413900D01*
X100273224Y-48189788D01*
X100151936Y-47979711D01*
X100004265Y-47787262D01*
X100004260Y-47787256D01*
X99832743Y-47615739D01*
X99832736Y-47615733D01*
X99640293Y-47468067D01*
X99640292Y-47468066D01*
X99640289Y-47468064D01*
X99430212Y-47346776D01*
X99430205Y-47346773D01*
X99206104Y-47253947D01*
X98971785Y-47191161D01*
X98731289Y-47159500D01*
X98731288Y-47159500D01*
X98488712Y-47159500D01*
X98488711Y-47159500D01*
X98248214Y-47191161D01*
X98013895Y-47253947D01*
X97789794Y-47346773D01*
X97789785Y-47346777D01*
X97579706Y-47468067D01*
X97387263Y-47615733D01*
X97387256Y-47615739D01*
X97215739Y-47787256D01*
X97215733Y-47787263D01*
X97068067Y-47979706D01*
X96946777Y-48189785D01*
X96946773Y-48189794D01*
X96853947Y-48413895D01*
X96791161Y-48648214D01*
X96759500Y-48888711D01*
X94862462Y-48888711D01*
X94863112Y-48876885D01*
X94863611Y-48872364D01*
X94863614Y-48872354D01*
X94862364Y-48812865D01*
X94862338Y-48810419D01*
X94862337Y-48805088D01*
X94862400Y-48801145D01*
X94863263Y-48774075D01*
X94873154Y-48463571D01*
X94874262Y-48450527D01*
X94875668Y-48440372D01*
X94920389Y-48117200D01*
X94922866Y-48104342D01*
X94927572Y-48085375D01*
X95003900Y-47777711D01*
X95007719Y-47765191D01*
X95040106Y-47676148D01*
X95122747Y-47448937D01*
X95127853Y-47436916D01*
X95275606Y-47134535D01*
X95281952Y-47123118D01*
X95460772Y-46838011D01*
X95468291Y-46827322D01*
X95676181Y-46562667D01*
X95684782Y-46552834D01*
X95919425Y-46311585D01*
X95929023Y-46302706D01*
X96187813Y-46087541D01*
X96198275Y-46079739D01*
X96478300Y-45893079D01*
X96489551Y-45886409D01*
X96787692Y-45730329D01*
X96799598Y-45724877D01*
X96829508Y-45713048D01*
X97112544Y-45601109D01*
X97124938Y-45596951D01*
X97449197Y-45506880D01*
X97461949Y-45504053D01*
X97793900Y-45448684D01*
X97806888Y-45447217D01*
X98145517Y-45427007D01*
X98152838Y-45426788D01*
X181797002Y-45426527D01*
X181804596Y-45426760D01*
G37*
%TD.AperFunction*%
%TD*%
M02*
