%TF.GenerationSoftware,KiCad,Pcbnew,9.0.2*%
%TF.CreationDate,2026-07-07T18:50:56+07:00*%
%TF.ProjectId,Self Balancing Robot,53656c66-2042-4616-9c61-6e63696e6720,rev?*%
%TF.SameCoordinates,Original*%
%TF.FileFunction,Soldermask,Top*%
%TF.FilePolarity,Negative*%
%FSLAX46Y46*%
G04 Gerber Fmt 4.6, Leading zero omitted, Abs format (unit mm)*
G04 Created by KiCad (PCBNEW 9.0.2) date 2026-07-07 18:50:56*
%MOMM*%
%LPD*%
G01*
G04 APERTURE LIST*
G04 Aperture macros list*
%AMRoundRect*
0 Rectangle with rounded corners*
0 $1 Rounding radius*
0 $2 $3 $4 $5 $6 $7 $8 $9 X,Y pos of 4 corners*
0 Add a 4 corners polygon primitive as box body*
4,1,4,$2,$3,$4,$5,$6,$7,$8,$9,$2,$3,0*
0 Add four circle primitives for the rounded corners*
1,1,$1+$1,$2,$3*
1,1,$1+$1,$4,$5*
1,1,$1+$1,$6,$7*
1,1,$1+$1,$8,$9*
0 Add four rect primitives between the rounded corners*
20,1,$1+$1,$2,$3,$4,$5,0*
20,1,$1+$1,$4,$5,$6,$7,0*
20,1,$1+$1,$6,$7,$8,$9,0*
20,1,$1+$1,$8,$9,$2,$3,0*%
G04 Aperture macros list end*
%ADD10R,1.700000X1.700000*%
%ADD11C,1.700000*%
%ADD12R,1.905000X2.000000*%
%ADD13O,1.905000X2.000000*%
%ADD14RoundRect,0.760000X-1.140000X-1.140000X1.140000X-1.140000X1.140000X1.140000X-1.140000X1.140000X0*%
%ADD15C,3.800000*%
%ADD16R,1.800000X1.800000*%
%ADD17C,1.800000*%
%ADD18R,1.600000X1.600000*%
%ADD19O,1.600000X1.600000*%
%ADD20C,3.200000*%
%ADD21RoundRect,0.102000X-0.765000X-0.765000X0.765000X-0.765000X0.765000X0.765000X-0.765000X0.765000X0*%
%ADD22C,1.734000*%
%ADD23RoundRect,0.250000X-0.550000X-0.550000X0.550000X-0.550000X0.550000X0.550000X-0.550000X0.550000X0*%
%ADD24C,1.600000*%
%ADD25RoundRect,0.250000X-0.550000X0.550000X-0.550000X-0.550000X0.550000X-0.550000X0.550000X0.550000X0*%
%ADD26RoundRect,0.250000X0.550000X0.550000X-0.550000X0.550000X-0.550000X-0.550000X0.550000X-0.550000X0*%
%ADD27C,2.109000*%
G04 APERTURE END LIST*
D10*
%TO.C,J5*%
X166280000Y-107490000D03*
D11*
X168820000Y-107490000D03*
X171360000Y-107490000D03*
X173900000Y-107490000D03*
%TD*%
D12*
%TO.C,U5*%
X143270000Y-94650000D03*
D13*
X140730000Y-94650000D03*
X138190000Y-94650000D03*
%TD*%
D14*
%TO.C,J3*%
X138680000Y-55870000D03*
D15*
X143680000Y-55870000D03*
%TD*%
D16*
%TO.C,D2*%
X140940000Y-102900000D03*
D17*
X143480000Y-102900000D03*
%TD*%
D10*
%TO.C,J8*%
X139550000Y-61380000D03*
%TD*%
D18*
%TO.C,A1*%
X169560000Y-72670000D03*
D19*
X169560000Y-70130000D03*
X169560000Y-67590000D03*
X169560000Y-65050000D03*
X169560000Y-62510000D03*
X169560000Y-59970000D03*
X169560000Y-57430000D03*
X169560000Y-54890000D03*
X156860000Y-54890000D03*
X156860000Y-57430000D03*
X156860000Y-59970000D03*
X156860000Y-62510000D03*
X156860000Y-65050000D03*
X156860000Y-67590000D03*
X156860000Y-70130000D03*
X156860000Y-72670000D03*
%TD*%
D10*
%TO.C,J10*%
X127550000Y-49240000D03*
D11*
X130090000Y-49240000D03*
%TD*%
D10*
%TO.C,J1*%
X176820000Y-75810000D03*
D11*
X176820000Y-73270000D03*
X176820000Y-70730000D03*
X176820000Y-68190000D03*
%TD*%
D20*
%TO.C,H2*%
X98610000Y-49010000D03*
%TD*%
D21*
%TO.C,U2*%
X99410000Y-54890000D03*
D22*
X99410000Y-57430000D03*
X99410000Y-59970000D03*
X99410000Y-62510000D03*
X99410000Y-65050000D03*
X99410000Y-67590000D03*
X99410000Y-70130000D03*
X99410000Y-72670000D03*
X99410000Y-75210000D03*
X99410000Y-77750000D03*
X99410000Y-80290000D03*
X99410000Y-82830000D03*
X99410000Y-85370000D03*
X99410000Y-87910000D03*
X99410000Y-90450000D03*
X99410000Y-92990000D03*
X99410000Y-95530000D03*
X99410000Y-98070000D03*
X99410000Y-100610000D03*
X124810000Y-100610000D03*
X124810000Y-98070000D03*
X124810000Y-95530000D03*
X124810000Y-92990000D03*
X124810000Y-90450000D03*
X124810000Y-87910000D03*
X124810000Y-85370000D03*
X124810000Y-82830000D03*
X124810000Y-80290000D03*
X124810000Y-77750000D03*
X124810000Y-75210000D03*
X124810000Y-72670000D03*
X124810000Y-70130000D03*
X124810000Y-67590000D03*
X124810000Y-65050000D03*
X124810000Y-62510000D03*
X124810000Y-59970000D03*
X124810000Y-57430000D03*
X124810000Y-54890000D03*
%TD*%
D18*
%TO.C,A2*%
X169340000Y-99750000D03*
D19*
X169340000Y-97210000D03*
X169340000Y-94670000D03*
X169340000Y-92130000D03*
X169340000Y-89590000D03*
X169340000Y-87050000D03*
X169340000Y-84510000D03*
X169340000Y-81970000D03*
X156640000Y-81970000D03*
X156640000Y-84510000D03*
X156640000Y-87050000D03*
X156640000Y-89590000D03*
X156640000Y-92130000D03*
X156640000Y-94670000D03*
X156640000Y-97210000D03*
X156640000Y-99750000D03*
%TD*%
D10*
%TO.C,J6*%
X128530000Y-107680000D03*
D11*
X131070000Y-107680000D03*
X133610000Y-107680000D03*
X136150000Y-107680000D03*
%TD*%
D23*
%TO.C,C2*%
X102380000Y-104990000D03*
D24*
X104380000Y-104990000D03*
%TD*%
D10*
%TO.C,J7*%
X146910000Y-61370000D03*
%TD*%
D24*
%TO.C,R3*%
X148290000Y-107680000D03*
X140670000Y-107680000D03*
%TD*%
D20*
%TO.C,H4*%
X181960000Y-108110000D03*
%TD*%
D25*
%TO.C,C4*%
X175650000Y-98637621D03*
D24*
X175650000Y-101137621D03*
%TD*%
D20*
%TO.C,H3*%
X181680000Y-49170000D03*
%TD*%
%TO.C,H1*%
X98110000Y-109270000D03*
%TD*%
D26*
%TO.C,C6*%
X150745113Y-97590000D03*
D24*
X148745113Y-97590000D03*
%TD*%
D10*
%TO.C,J2*%
X177250000Y-93510000D03*
D11*
X177250000Y-90970000D03*
X177250000Y-88430000D03*
X177250000Y-85890000D03*
%TD*%
D26*
%TO.C,D1*%
X161720000Y-107570000D03*
D24*
X151560000Y-107570000D03*
%TD*%
D25*
%TO.C,C3*%
X177210000Y-56980000D03*
D24*
X177210000Y-59480000D03*
%TD*%
D23*
%TO.C,C5*%
X130504888Y-97500000D03*
D24*
X132504888Y-97500000D03*
%TD*%
D10*
%TO.C,J9*%
X135900000Y-61380000D03*
%TD*%
D20*
%TO.C,U1*%
X132230000Y-73430000D03*
X148350000Y-73430000D03*
D27*
X146640000Y-85190000D03*
X133940000Y-85190000D03*
X149180000Y-85190000D03*
X136480000Y-85190000D03*
X139020000Y-85190000D03*
X131400000Y-85190000D03*
X144100000Y-85190000D03*
X141560000Y-85190000D03*
%TD*%
D10*
%TO.C,J4*%
X143230000Y-61380000D03*
%TD*%
M02*
