%TF.GenerationSoftware,KiCad,Pcbnew,9.0.2*%
%TF.CreationDate,2026-07-07T18:50:56+07:00*%
%TF.ProjectId,Self Balancing Robot,53656c66-2042-4616-9c61-6e63696e6720,rev?*%
%TF.SameCoordinates,Original*%
%TF.FileFunction,Copper,L2,Bot*%
%TF.FilePolarity,Positive*%
%FSLAX46Y46*%
G04 Gerber Fmt 4.6, Leading zero omitted, Abs format (unit mm)*
G04 Created by KiCad (PCBNEW 9.0.2) date 2026-07-07 18:50:56*
%MOMM*%
%LPD*%
G01*
G04 APERTURE LIST*
G04 Aperture macros list*
%AMRoundRect*
0 Rectangle with rounded corners*
0 $1 Rounding radius*
0 $2 $3 $4 $5 $6 $7 $8 $9 X,Y pos of 4 corners*
0 Add a 4 corners polygon primitive as box body*
4,1,4,$2,$3,$4,$5,$6,$7,$8,$9,$2,$3,0*
0 Add four circle primitives for the rounded corners*
1,1,$1+$1,$2,$3*
1,1,$1+$1,$4,$5*
1,1,$1+$1,$6,$7*
1,1,$1+$1,$8,$9*
0 Add four rect primitives between the rounded corners*
20,1,$1+$1,$2,$3,$4,$5,0*
20,1,$1+$1,$4,$5,$6,$7,0*
20,1,$1+$1,$6,$7,$8,$9,0*
20,1,$1+$1,$8,$9,$2,$3,0*%
G04 Aperture macros list end*
%TA.AperFunction,ComponentPad*%
%ADD10R,1.700000X1.700000*%
%TD*%
%TA.AperFunction,ComponentPad*%
%ADD11C,1.700000*%
%TD*%
%TA.AperFunction,ComponentPad*%
%ADD12R,1.905000X2.000000*%
%TD*%
%TA.AperFunction,ComponentPad*%
%ADD13O,1.905000X2.000000*%
%TD*%
%TA.AperFunction,ComponentPad*%
%ADD14RoundRect,0.760000X-1.140000X-1.140000X1.140000X-1.140000X1.140000X1.140000X-1.140000X1.140000X0*%
%TD*%
%TA.AperFunction,ComponentPad*%
%ADD15C,3.800000*%
%TD*%
%TA.AperFunction,ComponentPad*%
%ADD16R,1.800000X1.800000*%
%TD*%
%TA.AperFunction,ComponentPad*%
%ADD17C,1.800000*%
%TD*%
%TA.AperFunction,ComponentPad*%
%ADD18R,1.600000X1.600000*%
%TD*%
%TA.AperFunction,ComponentPad*%
%ADD19O,1.600000X1.600000*%
%TD*%
%TA.AperFunction,ComponentPad*%
%ADD20R,1.530000X1.530000*%
%TD*%
%TA.AperFunction,ComponentPad*%
%ADD21C,1.530000*%
%TD*%
%TA.AperFunction,ComponentPad*%
%ADD22RoundRect,0.250000X-0.550000X-0.550000X0.550000X-0.550000X0.550000X0.550000X-0.550000X0.550000X0*%
%TD*%
%TA.AperFunction,ComponentPad*%
%ADD23C,1.600000*%
%TD*%
%TA.AperFunction,ComponentPad*%
%ADD24RoundRect,0.250000X-0.550000X0.550000X-0.550000X-0.550000X0.550000X-0.550000X0.550000X0.550000X0*%
%TD*%
%TA.AperFunction,ComponentPad*%
%ADD25RoundRect,0.250000X0.550000X0.550000X-0.550000X0.550000X-0.550000X-0.550000X0.550000X-0.550000X0*%
%TD*%
%TA.AperFunction,ComponentPad*%
%ADD26C,1.905000*%
%TD*%
%TA.AperFunction,Conductor*%
%ADD27C,0.200000*%
%TD*%
%TA.AperFunction,Conductor*%
%ADD28C,1.000000*%
%TD*%
%TA.AperFunction,Conductor*%
%ADD29C,2.000000*%
%TD*%
%TA.AperFunction,Conductor*%
%ADD30C,1.500000*%
%TD*%
%TA.AperFunction,Conductor*%
%ADD31C,0.500000*%
%TD*%
G04 APERTURE END LIST*
D10*
%TO.P,J5,1,Pin_1*%
%TO.N,+3V3*%
X166280000Y-107490000D03*
D11*
%TO.P,J5,2,Pin_2*%
%TO.N,GND*%
X168820000Y-107490000D03*
%TO.P,J5,3,Pin_3*%
%TO.N,/SCL1*%
X171360000Y-107490000D03*
%TO.P,J5,4,Pin_4*%
%TO.N,/SDA1*%
X173900000Y-107490000D03*
%TD*%
D12*
%TO.P,U5,1,VI*%
%TO.N,+15V*%
X143270000Y-94650000D03*
D13*
%TO.P,U5,2,GND*%
%TO.N,GND*%
X140730000Y-94650000D03*
%TO.P,U5,3,VO*%
%TO.N,+5V*%
X138190000Y-94650000D03*
%TD*%
D14*
%TO.P,J3,1,Pin_1*%
%TO.N,GND*%
X138680000Y-55870000D03*
D15*
%TO.P,J3,2,Pin_2*%
%TO.N,Net-(J3-Pin_2)*%
X143680000Y-55870000D03*
%TD*%
D16*
%TO.P,D2,1,K*%
%TO.N,GND*%
X140940000Y-102900000D03*
D17*
%TO.P,D2,2,A*%
%TO.N,Net-(D2-A)*%
X143480000Y-102900000D03*
%TD*%
D10*
%TO.P,J8,1,Pin_1*%
%TO.N,+5V*%
X139550000Y-61380000D03*
%TD*%
D18*
%TO.P,A1,1,GND*%
%TO.N,GND*%
X169560000Y-72670000D03*
D19*
%TO.P,A1,2,VDD*%
%TO.N,+5V*%
X169560000Y-70130000D03*
%TO.P,A1,3,1B*%
%TO.N,Net-(A1-1B)*%
X169560000Y-67590000D03*
%TO.P,A1,4,1A*%
%TO.N,Net-(A1-1A)*%
X169560000Y-65050000D03*
%TO.P,A1,5,2A*%
%TO.N,Net-(A1-2A)*%
X169560000Y-62510000D03*
%TO.P,A1,6,2B*%
%TO.N,Net-(A1-2B)*%
X169560000Y-59970000D03*
%TO.P,A1,7,GND*%
%TO.N,GND*%
X169560000Y-57430000D03*
%TO.P,A1,8,VMOT*%
%TO.N,+15V*%
X169560000Y-54890000D03*
%TO.P,A1,9,~{ENABLE}*%
%TO.N,unconnected-(A1-~{ENABLE}-Pad9)*%
X156860000Y-54890000D03*
%TO.P,A1,10,MS1*%
%TO.N,+5V*%
X156860000Y-57430000D03*
%TO.P,A1,11,MS2*%
X156860000Y-59970000D03*
%TO.P,A1,12,MS3*%
X156860000Y-62510000D03*
%TO.P,A1,13,~{RESET}*%
%TO.N,Net-(A1-~{RESET})*%
X156860000Y-65050000D03*
%TO.P,A1,14,~{SLEEP}*%
X156860000Y-67590000D03*
%TO.P,A1,15,STEP*%
%TO.N,/MDSTEP1*%
X156860000Y-70130000D03*
%TO.P,A1,16,DIR*%
%TO.N,/MDDIR1*%
X156860000Y-72670000D03*
%TD*%
D10*
%TO.P,J10,1,Pin_1*%
%TO.N,/IO17*%
X127550000Y-49240000D03*
D11*
%TO.P,J10,2,Pin_2*%
%TO.N,GND*%
X130090000Y-49240000D03*
%TD*%
D10*
%TO.P,J1,1,Pin_1*%
%TO.N,Net-(A1-1A)*%
X176820000Y-75810000D03*
D11*
%TO.P,J1,2,Pin_2*%
%TO.N,Net-(A1-1B)*%
X176820000Y-73270000D03*
%TO.P,J1,3,Pin_3*%
%TO.N,Net-(A1-2A)*%
X176820000Y-70730000D03*
%TO.P,J1,4,Pin_4*%
%TO.N,Net-(A1-2B)*%
X176820000Y-68190000D03*
%TD*%
D20*
%TO.P,U2,1,3V3*%
%TO.N,+3V3*%
X99410000Y-54890000D03*
D21*
%TO.P,U2,2,EN*%
%TO.N,unconnected-(U2-EN-Pad2)*%
X99410000Y-57430000D03*
%TO.P,U2,3,SENSOR_VP*%
%TO.N,unconnected-(U2-SENSOR_VP-Pad3)*%
X99410000Y-59970000D03*
%TO.P,U2,4,SENSOR_VN*%
%TO.N,unconnected-(U2-SENSOR_VN-Pad4)*%
X99410000Y-62510000D03*
%TO.P,U2,5,IO34*%
%TO.N,unconnected-(U2-IO34-Pad5)*%
X99410000Y-65050000D03*
%TO.P,U2,6,IO35*%
%TO.N,unconnected-(U2-IO35-Pad6)*%
X99410000Y-67590000D03*
%TO.P,U2,7,IO32*%
%TO.N,unconnected-(U2-IO32-Pad7)*%
X99410000Y-70130000D03*
%TO.P,U2,8,IO33*%
%TO.N,/SDA1*%
X99410000Y-72670000D03*
%TO.P,U2,9,IO25*%
%TO.N,/SCL1*%
X99410000Y-75210000D03*
%TO.P,U2,10,IO26*%
%TO.N,/SDA2*%
X99410000Y-77750000D03*
%TO.P,U2,11,IO27*%
%TO.N,/SCL2*%
X99410000Y-80290000D03*
%TO.P,U2,12,IO14*%
%TO.N,unconnected-(U2-IO14-Pad12)*%
X99410000Y-82830000D03*
%TO.P,U2,13,IO12*%
%TO.N,unconnected-(U2-IO12-Pad13)*%
X99410000Y-85370000D03*
%TO.P,U2,14,GND1*%
%TO.N,GND*%
X99410000Y-87910000D03*
%TO.P,U2,15,IO13*%
%TO.N,unconnected-(U2-IO13-Pad15)*%
X99410000Y-90450000D03*
%TO.P,U2,16,SD2*%
%TO.N,unconnected-(U2-SD2-Pad16)*%
X99410000Y-92990000D03*
%TO.P,U2,17,SD3*%
%TO.N,unconnected-(U2-SD3-Pad17)*%
X99410000Y-95530000D03*
%TO.P,U2,18,CMD*%
%TO.N,unconnected-(U2-CMD-Pad18)*%
X99410000Y-98070000D03*
%TO.P,U2,19,EXT_5V*%
%TO.N,+5V*%
X99410000Y-100610000D03*
%TO.P,U2,20,CLK*%
%TO.N,unconnected-(U2-CLK-Pad20)*%
X124810000Y-100610000D03*
%TO.P,U2,21,SD0*%
%TO.N,unconnected-(U2-SD0-Pad21)*%
X124810000Y-98070000D03*
%TO.P,U2,22,SD1*%
%TO.N,unconnected-(U2-SD1-Pad22)*%
X124810000Y-95530000D03*
%TO.P,U2,23,IO15*%
%TO.N,/MDDIR2*%
X124810000Y-92990000D03*
%TO.P,U2,24,IO2*%
%TO.N,/MDSTEP2*%
X124810000Y-90450000D03*
%TO.P,U2,25,IO0*%
%TO.N,/MDDIR1*%
X124810000Y-87910000D03*
%TO.P,U2,26,IO4*%
%TO.N,/MDSTEP1*%
X124810000Y-85370000D03*
%TO.P,U2,27,IO16*%
%TO.N,unconnected-(U2-IO16-Pad27)*%
X124810000Y-82830000D03*
%TO.P,U2,28,IO17*%
%TO.N,/IO17*%
X124810000Y-80290000D03*
%TO.P,U2,29,IO5*%
%TO.N,unconnected-(U2-IO5-Pad29)*%
X124810000Y-77750000D03*
%TO.P,U2,30,IO18*%
%TO.N,unconnected-(U2-IO18-Pad30)*%
X124810000Y-75210000D03*
%TO.P,U2,31,IO19*%
%TO.N,unconnected-(U2-IO19-Pad31)*%
X124810000Y-72670000D03*
%TO.P,U2,32,GND2*%
%TO.N,GND*%
X124810000Y-70130000D03*
%TO.P,U2,33,IO21*%
%TO.N,/SDA*%
X124810000Y-67590000D03*
%TO.P,U2,34,RXD0*%
%TO.N,unconnected-(U2-RXD0-Pad34)*%
X124810000Y-65050000D03*
%TO.P,U2,35,TXD0*%
%TO.N,unconnected-(U2-TXD0-Pad35)*%
X124810000Y-62510000D03*
%TO.P,U2,36,IO22*%
%TO.N,/SCL*%
X124810000Y-59970000D03*
%TO.P,U2,37,IO23*%
%TO.N,unconnected-(U2-IO23-Pad37)*%
X124810000Y-57430000D03*
%TO.P,U2,38,GND3*%
%TO.N,GND*%
X124810000Y-54890000D03*
%TD*%
D18*
%TO.P,A2,1,GND*%
%TO.N,GND*%
X169340000Y-99750000D03*
D19*
%TO.P,A2,2,VDD*%
%TO.N,+5V*%
X169340000Y-97210000D03*
%TO.P,A2,3,1B*%
%TO.N,Net-(A2-1B)*%
X169340000Y-94670000D03*
%TO.P,A2,4,1A*%
%TO.N,Net-(A2-1A)*%
X169340000Y-92130000D03*
%TO.P,A2,5,2A*%
%TO.N,Net-(A2-2A)*%
X169340000Y-89590000D03*
%TO.P,A2,6,2B*%
%TO.N,Net-(A2-2B)*%
X169340000Y-87050000D03*
%TO.P,A2,7,GND*%
%TO.N,GND*%
X169340000Y-84510000D03*
%TO.P,A2,8,VMOT*%
%TO.N,+15V*%
X169340000Y-81970000D03*
%TO.P,A2,9,~{ENABLE}*%
%TO.N,unconnected-(A2-~{ENABLE}-Pad9)*%
X156640000Y-81970000D03*
%TO.P,A2,10,MS1*%
%TO.N,+5V*%
X156640000Y-84510000D03*
%TO.P,A2,11,MS2*%
X156640000Y-87050000D03*
%TO.P,A2,12,MS3*%
X156640000Y-89590000D03*
%TO.P,A2,13,~{RESET}*%
%TO.N,Net-(A2-~{RESET})*%
X156640000Y-92130000D03*
%TO.P,A2,14,~{SLEEP}*%
X156640000Y-94670000D03*
%TO.P,A2,15,STEP*%
%TO.N,/MDSTEP2*%
X156640000Y-97210000D03*
%TO.P,A2,16,DIR*%
%TO.N,/MDDIR2*%
X156640000Y-99750000D03*
%TD*%
D10*
%TO.P,J6,1,Pin_1*%
%TO.N,+3V3*%
X128530000Y-107680000D03*
D11*
%TO.P,J6,2,Pin_2*%
%TO.N,GND*%
X131070000Y-107680000D03*
%TO.P,J6,3,Pin_3*%
%TO.N,/SCL2*%
X133610000Y-107680000D03*
%TO.P,J6,4,Pin_4*%
%TO.N,/SDA2*%
X136150000Y-107680000D03*
%TD*%
D22*
%TO.P,C2,1*%
%TO.N,+5V*%
X102380000Y-104990000D03*
D23*
%TO.P,C2,2*%
%TO.N,GND*%
X104380000Y-104990000D03*
%TD*%
D10*
%TO.P,J7,1,Pin_1*%
%TO.N,+15V*%
X146910000Y-61370000D03*
%TD*%
D23*
%TO.P,R3,1*%
%TO.N,Net-(D1-A)*%
X148290000Y-107680000D03*
%TO.P,R3,2*%
%TO.N,Net-(D2-A)*%
X140670000Y-107680000D03*
%TD*%
D24*
%TO.P,C4,1*%
%TO.N,+15V*%
X175650000Y-98637621D03*
D23*
%TO.P,C4,2*%
%TO.N,GND*%
X175650000Y-101137621D03*
%TD*%
D25*
%TO.P,C6,1*%
%TO.N,+15V*%
X150745113Y-97590000D03*
D23*
%TO.P,C6,2*%
%TO.N,GND*%
X148745113Y-97590000D03*
%TD*%
D10*
%TO.P,J2,1,Pin_1*%
%TO.N,Net-(A2-1A)*%
X177250000Y-93510000D03*
D11*
%TO.P,J2,2,Pin_2*%
%TO.N,Net-(A2-1B)*%
X177250000Y-90970000D03*
%TO.P,J2,3,Pin_3*%
%TO.N,Net-(A2-2A)*%
X177250000Y-88430000D03*
%TO.P,J2,4,Pin_4*%
%TO.N,Net-(A2-2B)*%
X177250000Y-85890000D03*
%TD*%
D25*
%TO.P,D1,1,K*%
%TO.N,+15V*%
X161720000Y-107570000D03*
D23*
%TO.P,D1,2,A*%
%TO.N,Net-(D1-A)*%
X151560000Y-107570000D03*
%TD*%
D24*
%TO.P,C3,1*%
%TO.N,+15V*%
X177210000Y-56980000D03*
D23*
%TO.P,C3,2*%
%TO.N,GND*%
X177210000Y-59480000D03*
%TD*%
D22*
%TO.P,C5,1*%
%TO.N,+5V*%
X130504888Y-97500000D03*
D23*
%TO.P,C5,2*%
%TO.N,GND*%
X132504888Y-97500000D03*
%TD*%
D10*
%TO.P,J9,1,Pin_1*%
%TO.N,GND*%
X135900000Y-61380000D03*
%TD*%
D26*
%TO.P,U1,AD0,AD0*%
%TO.N,unconnected-(U1-PadAD0)*%
X146640000Y-85190000D03*
%TO.P,U1,GND,GND*%
%TO.N,GND*%
X133940000Y-85190000D03*
%TO.P,U1,INT,INT*%
%TO.N,unconnected-(U1-PadINT)*%
X149180000Y-85190000D03*
%TO.P,U1,SCL,SCL*%
%TO.N,/SDA*%
X136480000Y-85190000D03*
%TO.P,U1,SDA,SDA*%
%TO.N,/SCL*%
X139020000Y-85190000D03*
%TO.P,U1,VCC,VCC*%
%TO.N,+5V*%
X131400000Y-85190000D03*
%TO.P,U1,XCL,XCL*%
%TO.N,unconnected-(U1-PadXCL)*%
X144100000Y-85190000D03*
%TO.P,U1,XDA,XDA*%
%TO.N,unconnected-(U1-PadXDA)*%
X141560000Y-85190000D03*
%TD*%
D10*
%TO.P,J4,1,Pin_1*%
%TO.N,Net-(J3-Pin_2)*%
X143230000Y-61380000D03*
%TD*%
D27*
%TO.N,/MDDIR1*%
X153300000Y-72670000D02*
X156860000Y-72670000D01*
X124810000Y-87910000D02*
X131910000Y-80810000D01*
X153300000Y-72790000D02*
X153300000Y-72670000D01*
X131910000Y-80810000D02*
X145280000Y-80810000D01*
X145280000Y-80810000D02*
X153300000Y-72790000D01*
D28*
%TO.N,Net-(A1-1B)*%
X175750000Y-73270000D02*
X176820000Y-73270000D01*
X169560000Y-67590000D02*
X170070000Y-67590000D01*
X170070000Y-67590000D02*
X175750000Y-73270000D01*
%TO.N,+5V*%
X104487265Y-102760000D02*
X125244888Y-102760000D01*
X125244888Y-102760000D02*
X130504888Y-97500000D01*
X102380000Y-104867265D02*
X104487265Y-102760000D01*
X102380000Y-104990000D02*
X102380000Y-104867265D01*
D29*
%TO.N,+15V*%
X161720000Y-107570000D02*
X165669000Y-103621000D01*
D27*
X175650000Y-98910000D02*
X175650000Y-98637621D01*
D29*
X161720000Y-107570000D02*
X160725113Y-107570000D01*
X173600000Y-98910000D02*
X175650000Y-98910000D01*
X168889000Y-103621000D02*
X173600000Y-98910000D01*
X160725113Y-107570000D02*
X150745113Y-97590000D01*
X165669000Y-103621000D02*
X168889000Y-103621000D01*
%TO.N,GND*%
X135900000Y-61380000D02*
X135900000Y-58650000D01*
X132504888Y-97500000D02*
X132504888Y-99145112D01*
D28*
X132504888Y-97500000D02*
X132504888Y-106245112D01*
D29*
X129410000Y-54890000D02*
X124810000Y-54890000D01*
X168208630Y-84510000D02*
X169340000Y-84510000D01*
D30*
X174672379Y-101137621D02*
X168820000Y-106990000D01*
D27*
X169560000Y-72670000D02*
X168720000Y-72670000D01*
D28*
X132504888Y-106245112D02*
X131070000Y-107680000D01*
D29*
X124810000Y-70130000D02*
X127880000Y-70130000D01*
X140730000Y-94650000D02*
X140730000Y-91680000D01*
X126518578Y-105131422D02*
X104521421Y-105131422D01*
X135900000Y-58650000D02*
X138680000Y-55870000D01*
X127880000Y-70130000D02*
X127880000Y-61380000D01*
X169340000Y-99750000D02*
X166540000Y-99750000D01*
D28*
X148745113Y-97590000D02*
X146250000Y-97590000D01*
D30*
X168820000Y-106990000D02*
X168820000Y-107490000D01*
D29*
X127880000Y-61380000D02*
X135900000Y-61380000D01*
D27*
X168720000Y-72670000D02*
X166040000Y-69990000D01*
D29*
X165980000Y-86738630D02*
X168208630Y-84510000D01*
X133940000Y-88670000D02*
X133940000Y-85190000D01*
X132504888Y-99145112D02*
X126518578Y-105131422D01*
X165980000Y-99190000D02*
X165980000Y-86738630D01*
X136950000Y-91680000D02*
X133940000Y-88670000D01*
D30*
X175650000Y-101137621D02*
X174672379Y-101137621D01*
D29*
X140730000Y-91680000D02*
X136950000Y-91680000D01*
D27*
X166040000Y-69990000D02*
X166040000Y-60950000D01*
D28*
X146250000Y-97590000D02*
X140940000Y-102900000D01*
D29*
X135900000Y-61380000D02*
X129410000Y-54890000D01*
X166540000Y-99750000D02*
X165980000Y-99190000D01*
D27*
X166040000Y-60950000D02*
X169560000Y-57430000D01*
%TO.N,/MDSTEP1*%
X144010000Y-70130000D02*
X156860000Y-70130000D01*
X134900000Y-79240000D02*
X144010000Y-70130000D01*
X124810000Y-85370000D02*
X130940000Y-79240000D01*
X130940000Y-79240000D02*
X134900000Y-79240000D01*
%TO.N,/MDDIR2*%
X124810000Y-92990000D02*
X125640000Y-92990000D01*
%TO.N,/MDSTEP2*%
X155450000Y-96020000D02*
X156640000Y-97210000D01*
X130380000Y-96020000D02*
X155450000Y-96020000D01*
X124810000Y-90450000D02*
X130380000Y-96020000D01*
D28*
%TO.N,Net-(A2-1B)*%
X170940000Y-94670000D02*
X174640000Y-90970000D01*
X169340000Y-94670000D02*
X170940000Y-94670000D01*
X174640000Y-90970000D02*
X177250000Y-90970000D01*
%TO.N,Net-(D1-A)*%
X151560000Y-107570000D02*
X148400000Y-107570000D01*
D27*
X148400000Y-107570000D02*
X148290000Y-107680000D01*
D28*
%TO.N,Net-(D2-A)*%
X143480000Y-104070000D02*
X143480000Y-102900000D01*
X140670000Y-106880000D02*
X143480000Y-104070000D01*
X140670000Y-107680000D02*
X140670000Y-106880000D01*
D31*
%TO.N,+3V3*%
X104000000Y-109140000D02*
X96620000Y-101760000D01*
X131440000Y-110590000D02*
X128530000Y-107680000D01*
X96620000Y-101760000D02*
X96620000Y-57680000D01*
X166280000Y-108480000D02*
X164170000Y-110590000D01*
X128530000Y-107680000D02*
X127070000Y-109140000D01*
X127070000Y-109140000D02*
X104000000Y-109140000D01*
X166280000Y-107490000D02*
X166280000Y-108480000D01*
X164170000Y-110590000D02*
X131440000Y-110590000D01*
X96620000Y-57680000D02*
X99410000Y-54890000D01*
%TD*%
%TA.AperFunction,Conductor*%
%TO.N,GND*%
G36*
X147666282Y-96640185D02*
G01*
X147712037Y-96692989D01*
X147721981Y-96762147D01*
X147699561Y-96817385D01*
X147633255Y-96908647D01*
X147540357Y-97090968D01*
X147477122Y-97285582D01*
X147445113Y-97487682D01*
X147445113Y-97692317D01*
X147477122Y-97894417D01*
X147540357Y-98089031D01*
X147633254Y-98271350D01*
X147633260Y-98271359D01*
X147665636Y-98315921D01*
X147665637Y-98315922D01*
X148345113Y-97636446D01*
X148345113Y-97642661D01*
X148372372Y-97744394D01*
X148425033Y-97835606D01*
X148499507Y-97910080D01*
X148590719Y-97962741D01*
X148692452Y-97990000D01*
X148698665Y-97990000D01*
X148019189Y-98669474D01*
X148063763Y-98701859D01*
X148246081Y-98794755D01*
X148440695Y-98857990D01*
X148642796Y-98890000D01*
X148847430Y-98890000D01*
X149049530Y-98857990D01*
X149244144Y-98794755D01*
X149426454Y-98701863D01*
X149426462Y-98701858D01*
X149496665Y-98650852D01*
X149522008Y-98641809D01*
X149545904Y-98629445D01*
X149554416Y-98630245D01*
X149562471Y-98627371D01*
X149588678Y-98633465D01*
X149615467Y-98635983D01*
X149624179Y-98641720D01*
X149630525Y-98643196D01*
X149646059Y-98653584D01*
X149651938Y-98658193D01*
X149726457Y-98732712D01*
X149822720Y-98792087D01*
X149828196Y-98796380D01*
X149829949Y-98798835D01*
X149839370Y-98806284D01*
X159747603Y-108714517D01*
X159938679Y-108853343D01*
X160125391Y-108948477D01*
X160149116Y-108960566D01*
X160149118Y-108960566D01*
X160149121Y-108960568D01*
X160260499Y-108996757D01*
X160373744Y-109033553D01*
X160607016Y-109070500D01*
X160607021Y-109070500D01*
X161838097Y-109070500D01*
X162071368Y-109033553D01*
X162080767Y-109030499D01*
X162295992Y-108960568D01*
X162506434Y-108853343D01*
X162544132Y-108825952D01*
X162578017Y-108808564D01*
X162589331Y-108804815D01*
X162589331Y-108804814D01*
X162589334Y-108804814D01*
X162738656Y-108712712D01*
X162862712Y-108588656D01*
X162918430Y-108498319D01*
X162936280Y-108475745D01*
X164717821Y-106694204D01*
X164779142Y-106660721D01*
X164848834Y-106665705D01*
X164904767Y-106707577D01*
X164929184Y-106773041D01*
X164929500Y-106781887D01*
X164929500Y-108387870D01*
X164929501Y-108387876D01*
X164935908Y-108447483D01*
X164986205Y-108582336D01*
X164987668Y-108585015D01*
X164988316Y-108587995D01*
X164989303Y-108590641D01*
X164988922Y-108590782D01*
X165002517Y-108653288D01*
X164978096Y-108718751D01*
X164966514Y-108732117D01*
X163895451Y-109803181D01*
X163834128Y-109836666D01*
X163807770Y-109839500D01*
X131802229Y-109839500D01*
X131735190Y-109819815D01*
X131714548Y-109803181D01*
X131145565Y-109234198D01*
X131112080Y-109172875D01*
X131117064Y-109103183D01*
X131158936Y-109047250D01*
X131213848Y-109024044D01*
X131386127Y-108996757D01*
X131386130Y-108996757D01*
X131588217Y-108931095D01*
X131777554Y-108834622D01*
X131831716Y-108795270D01*
X131831717Y-108795270D01*
X131199408Y-108162962D01*
X131262993Y-108145925D01*
X131377007Y-108080099D01*
X131470099Y-107987007D01*
X131535925Y-107872993D01*
X131552962Y-107809408D01*
X132185270Y-108441717D01*
X132185270Y-108441716D01*
X132224622Y-108387555D01*
X132229232Y-108378507D01*
X132277205Y-108327709D01*
X132345025Y-108310912D01*
X132411161Y-108333447D01*
X132450204Y-108378504D01*
X132454949Y-108387817D01*
X132579890Y-108559786D01*
X132730213Y-108710109D01*
X132902179Y-108835048D01*
X132902181Y-108835049D01*
X132902184Y-108835051D01*
X133091588Y-108931557D01*
X133293757Y-108997246D01*
X133503713Y-109030500D01*
X133503714Y-109030500D01*
X133716286Y-109030500D01*
X133716287Y-109030500D01*
X133926243Y-108997246D01*
X134128412Y-108931557D01*
X134317816Y-108835051D01*
X134345929Y-108814626D01*
X134489786Y-108710109D01*
X134489788Y-108710106D01*
X134489792Y-108710104D01*
X134640104Y-108559792D01*
X134640106Y-108559788D01*
X134640109Y-108559786D01*
X134749086Y-108409789D01*
X134765051Y-108387816D01*
X134769514Y-108379054D01*
X134817488Y-108328259D01*
X134885308Y-108311463D01*
X134951444Y-108333999D01*
X134990486Y-108379056D01*
X134994951Y-108387820D01*
X135119890Y-108559786D01*
X135270213Y-108710109D01*
X135442179Y-108835048D01*
X135442181Y-108835049D01*
X135442184Y-108835051D01*
X135631588Y-108931557D01*
X135833757Y-108997246D01*
X136043713Y-109030500D01*
X136043714Y-109030500D01*
X136256286Y-109030500D01*
X136256287Y-109030500D01*
X136466243Y-108997246D01*
X136668412Y-108931557D01*
X136857816Y-108835051D01*
X136885929Y-108814626D01*
X137029786Y-108710109D01*
X137029788Y-108710106D01*
X137029792Y-108710104D01*
X137180104Y-108559792D01*
X137180106Y-108559788D01*
X137180109Y-108559786D01*
X137289086Y-108409789D01*
X137305051Y-108387816D01*
X137401557Y-108198412D01*
X137467246Y-107996243D01*
X137500500Y-107786287D01*
X137500500Y-107577648D01*
X139369500Y-107577648D01*
X139369500Y-107782351D01*
X139401522Y-107984534D01*
X139464781Y-108179223D01*
X139521035Y-108289626D01*
X139553418Y-108353181D01*
X139557715Y-108361613D01*
X139678028Y-108527213D01*
X139822786Y-108671971D01*
X139953928Y-108767249D01*
X139988390Y-108792287D01*
X140103236Y-108850804D01*
X140170776Y-108885218D01*
X140170778Y-108885218D01*
X140170781Y-108885220D01*
X140235751Y-108906330D01*
X140365465Y-108948477D01*
X140441804Y-108960568D01*
X140567648Y-108980500D01*
X140567649Y-108980500D01*
X140772351Y-108980500D01*
X140772352Y-108980500D01*
X140974534Y-108948477D01*
X141169219Y-108885220D01*
X141351610Y-108792287D01*
X141444590Y-108724732D01*
X141517213Y-108671971D01*
X141517215Y-108671968D01*
X141517219Y-108671966D01*
X141661966Y-108527219D01*
X141661968Y-108527215D01*
X141661971Y-108527213D01*
X141741889Y-108417213D01*
X141782287Y-108361610D01*
X141875220Y-108179219D01*
X141938477Y-107984534D01*
X141970500Y-107782352D01*
X141970500Y-107577648D01*
X146989500Y-107577648D01*
X146989500Y-107782351D01*
X147021522Y-107984534D01*
X147084781Y-108179223D01*
X147141035Y-108289626D01*
X147173418Y-108353181D01*
X147177715Y-108361613D01*
X147298028Y-108527213D01*
X147442786Y-108671971D01*
X147573928Y-108767249D01*
X147608390Y-108792287D01*
X147723236Y-108850804D01*
X147790776Y-108885218D01*
X147790778Y-108885218D01*
X147790781Y-108885220D01*
X147855751Y-108906330D01*
X147985465Y-108948477D01*
X148061804Y-108960568D01*
X148187648Y-108980500D01*
X148187649Y-108980500D01*
X148392351Y-108980500D01*
X148392352Y-108980500D01*
X148594534Y-108948477D01*
X148789219Y-108885220D01*
X148971610Y-108792287D01*
X149064590Y-108724732D01*
X149137213Y-108671971D01*
X149137215Y-108671968D01*
X149137219Y-108671966D01*
X149202366Y-108606819D01*
X149263689Y-108573334D01*
X149290047Y-108570500D01*
X150684238Y-108570500D01*
X150751277Y-108590185D01*
X150757119Y-108594179D01*
X150878390Y-108682287D01*
X150949955Y-108718751D01*
X151060776Y-108775218D01*
X151060778Y-108775218D01*
X151060781Y-108775220D01*
X151113299Y-108792284D01*
X151255465Y-108838477D01*
X151333294Y-108850804D01*
X151457648Y-108870500D01*
X151457649Y-108870500D01*
X151662351Y-108870500D01*
X151662352Y-108870500D01*
X151864534Y-108838477D01*
X152059219Y-108775220D01*
X152241610Y-108682287D01*
X152368379Y-108590185D01*
X152407213Y-108561971D01*
X152407215Y-108561968D01*
X152407219Y-108561966D01*
X152551966Y-108417219D01*
X152551968Y-108417215D01*
X152551971Y-108417213D01*
X152616998Y-108327709D01*
X152672287Y-108251610D01*
X152765220Y-108069219D01*
X152828477Y-107874534D01*
X152860500Y-107672352D01*
X152860500Y-107467648D01*
X152845508Y-107372993D01*
X152828477Y-107265465D01*
X152771432Y-107089901D01*
X152765220Y-107070781D01*
X152765218Y-107070778D01*
X152765218Y-107070776D01*
X152714981Y-106972182D01*
X152672287Y-106888390D01*
X152634622Y-106836548D01*
X152551971Y-106722786D01*
X152407213Y-106578028D01*
X152241613Y-106457715D01*
X152241612Y-106457714D01*
X152241610Y-106457713D01*
X152184164Y-106428443D01*
X152059223Y-106364781D01*
X151864534Y-106301522D01*
X151689995Y-106273878D01*
X151662352Y-106269500D01*
X151457648Y-106269500D01*
X151433329Y-106273351D01*
X151255465Y-106301522D01*
X151060776Y-106364781D01*
X150878386Y-106457715D01*
X150757123Y-106545818D01*
X150691317Y-106569298D01*
X150684238Y-106569500D01*
X149004887Y-106569500D01*
X148948593Y-106555985D01*
X148888527Y-106525380D01*
X148789223Y-106474781D01*
X148594534Y-106411522D01*
X148419995Y-106383878D01*
X148392352Y-106379500D01*
X148187648Y-106379500D01*
X148163329Y-106383351D01*
X147985465Y-106411522D01*
X147790776Y-106474781D01*
X147608386Y-106567715D01*
X147442786Y-106688028D01*
X147298028Y-106832786D01*
X147177715Y-106998386D01*
X147084781Y-107180776D01*
X147021522Y-107375465D01*
X146989500Y-107577648D01*
X141970500Y-107577648D01*
X141956144Y-107487007D01*
X141938477Y-107375465D01*
X141910640Y-107289794D01*
X141876363Y-107184301D01*
X141874369Y-107114462D01*
X141906612Y-107058306D01*
X144117778Y-104847141D01*
X144117782Y-104847139D01*
X144257139Y-104707782D01*
X144366632Y-104543914D01*
X144430388Y-104389992D01*
X144442051Y-104361836D01*
X144461275Y-104265188D01*
X144480500Y-104168541D01*
X144480500Y-103931469D01*
X144500185Y-103864430D01*
X144516819Y-103843788D01*
X144548242Y-103812365D01*
X144677815Y-103634022D01*
X144777895Y-103437606D01*
X144846015Y-103227951D01*
X144880500Y-103010222D01*
X144880500Y-102789778D01*
X144846015Y-102572049D01*
X144811955Y-102467221D01*
X144777896Y-102362396D01*
X144777895Y-102362393D01*
X144714723Y-102238414D01*
X144677815Y-102165978D01*
X144661260Y-102143192D01*
X144548247Y-101987641D01*
X144548243Y-101987636D01*
X144392363Y-101831756D01*
X144392358Y-101831752D01*
X144214025Y-101702187D01*
X144214024Y-101702186D01*
X144214022Y-101702185D01*
X144151096Y-101670122D01*
X144017606Y-101602104D01*
X144017603Y-101602103D01*
X143807952Y-101533985D01*
X143699086Y-101516742D01*
X143590222Y-101499500D01*
X143369778Y-101499500D01*
X143301198Y-101510362D01*
X143152047Y-101533985D01*
X142942396Y-101602103D01*
X142942393Y-101602104D01*
X142745974Y-101702187D01*
X142567641Y-101831752D01*
X142567636Y-101831756D01*
X142517075Y-101882317D01*
X142455752Y-101915801D01*
X142386060Y-101910816D01*
X142330127Y-101868945D01*
X142313213Y-101837968D01*
X142283354Y-101757913D01*
X142283350Y-101757906D01*
X142197190Y-101642812D01*
X142197187Y-101642809D01*
X142082093Y-101556649D01*
X142082086Y-101556645D01*
X141947379Y-101506403D01*
X141947372Y-101506401D01*
X141887844Y-101500000D01*
X141190000Y-101500000D01*
X141190000Y-102524722D01*
X141113694Y-102480667D01*
X140999244Y-102450000D01*
X140880756Y-102450000D01*
X140766306Y-102480667D01*
X140690000Y-102524722D01*
X140690000Y-101500000D01*
X139992155Y-101500000D01*
X139932627Y-101506401D01*
X139932620Y-101506403D01*
X139797913Y-101556645D01*
X139797906Y-101556649D01*
X139682812Y-101642809D01*
X139682809Y-101642812D01*
X139596649Y-101757906D01*
X139596645Y-101757913D01*
X139546403Y-101892620D01*
X139546401Y-101892627D01*
X139540000Y-101952155D01*
X139540000Y-102650000D01*
X140564722Y-102650000D01*
X140520667Y-102726306D01*
X140490000Y-102840756D01*
X140490000Y-102959244D01*
X140520667Y-103073694D01*
X140564722Y-103150000D01*
X139540000Y-103150000D01*
X139540000Y-103847844D01*
X139546401Y-103907372D01*
X139546403Y-103907379D01*
X139596645Y-104042086D01*
X139596649Y-104042093D01*
X139682809Y-104157187D01*
X139682812Y-104157190D01*
X139797906Y-104243350D01*
X139797913Y-104243354D01*
X139932620Y-104293596D01*
X139932627Y-104293598D01*
X139992155Y-104299999D01*
X139992172Y-104300000D01*
X140690000Y-104300000D01*
X140690000Y-103275277D01*
X140766306Y-103319333D01*
X140880756Y-103350000D01*
X140999244Y-103350000D01*
X141113694Y-103319333D01*
X141190000Y-103275277D01*
X141190000Y-104300000D01*
X141535717Y-104300000D01*
X141602756Y-104319685D01*
X141648511Y-104372489D01*
X141658455Y-104441647D01*
X141629430Y-104505203D01*
X141623398Y-104511681D01*
X140032221Y-106102858D01*
X140032218Y-106102861D01*
X139995579Y-106139500D01*
X139892859Y-106242219D01*
X139783371Y-106406079D01*
X139783364Y-106406092D01*
X139707950Y-106588160D01*
X139707947Y-106588170D01*
X139669500Y-106781456D01*
X139669500Y-106804237D01*
X139649815Y-106871276D01*
X139645818Y-106877122D01*
X139557715Y-106998386D01*
X139464781Y-107180776D01*
X139401522Y-107375465D01*
X139369500Y-107577648D01*
X137500500Y-107577648D01*
X137500500Y-107573713D01*
X137467246Y-107363757D01*
X137401557Y-107161588D01*
X137305051Y-106972184D01*
X137305049Y-106972181D01*
X137305048Y-106972179D01*
X137180109Y-106800213D01*
X137029786Y-106649890D01*
X136857820Y-106524951D01*
X136668414Y-106428444D01*
X136668413Y-106428443D01*
X136668412Y-106428443D01*
X136466243Y-106362754D01*
X136466241Y-106362753D01*
X136466240Y-106362753D01*
X136304957Y-106337208D01*
X136256287Y-106329500D01*
X136043713Y-106329500D01*
X135995042Y-106337208D01*
X135833760Y-106362753D01*
X135631585Y-106428444D01*
X135442179Y-106524951D01*
X135270213Y-106649890D01*
X135119890Y-106800213D01*
X134994949Y-106972182D01*
X134990484Y-106980946D01*
X134942509Y-107031742D01*
X134874688Y-107048536D01*
X134808553Y-107025998D01*
X134769516Y-106980946D01*
X134765050Y-106972182D01*
X134640109Y-106800213D01*
X134489786Y-106649890D01*
X134317820Y-106524951D01*
X134128414Y-106428444D01*
X134128413Y-106428443D01*
X134128412Y-106428443D01*
X133926243Y-106362754D01*
X133926241Y-106362753D01*
X133926240Y-106362753D01*
X133764957Y-106337208D01*
X133716287Y-106329500D01*
X133503713Y-106329500D01*
X133455042Y-106337208D01*
X133293760Y-106362753D01*
X133091585Y-106428444D01*
X132902179Y-106524951D01*
X132730213Y-106649890D01*
X132579890Y-106800213D01*
X132454949Y-106972182D01*
X132450202Y-106981499D01*
X132402227Y-107032293D01*
X132334405Y-107049087D01*
X132268271Y-107026548D01*
X132229234Y-106981495D01*
X132224626Y-106972452D01*
X132185270Y-106918282D01*
X132185269Y-106918282D01*
X131552962Y-107550590D01*
X131535925Y-107487007D01*
X131470099Y-107372993D01*
X131377007Y-107279901D01*
X131262993Y-107214075D01*
X131199409Y-107197037D01*
X131831716Y-106564728D01*
X131777550Y-106525375D01*
X131588217Y-106428904D01*
X131386129Y-106363242D01*
X131176246Y-106330000D01*
X130963754Y-106330000D01*
X130753872Y-106363242D01*
X130753869Y-106363242D01*
X130551782Y-106428904D01*
X130362439Y-106525380D01*
X130308282Y-106564727D01*
X130308282Y-106564728D01*
X130940591Y-107197037D01*
X130877007Y-107214075D01*
X130762993Y-107279901D01*
X130669901Y-107372993D01*
X130604075Y-107487007D01*
X130587037Y-107550591D01*
X129916818Y-106880372D01*
X129883333Y-106819049D01*
X129883330Y-106819036D01*
X129880499Y-106806015D01*
X129880499Y-106782128D01*
X129874091Y-106722517D01*
X129839225Y-106629036D01*
X129823798Y-106587673D01*
X129823793Y-106587664D01*
X129737547Y-106472455D01*
X129737544Y-106472452D01*
X129622335Y-106386206D01*
X129622328Y-106386202D01*
X129487482Y-106335908D01*
X129487483Y-106335908D01*
X129427883Y-106329501D01*
X129427881Y-106329500D01*
X129427873Y-106329500D01*
X129427864Y-106329500D01*
X127632129Y-106329500D01*
X127632123Y-106329501D01*
X127572516Y-106335908D01*
X127437671Y-106386202D01*
X127437664Y-106386206D01*
X127322455Y-106472452D01*
X127322452Y-106472455D01*
X127236206Y-106587664D01*
X127236202Y-106587671D01*
X127185908Y-106722517D01*
X127179501Y-106782116D01*
X127179500Y-106782135D01*
X127179500Y-107917769D01*
X127159815Y-107984808D01*
X127143181Y-108005450D01*
X126795451Y-108353181D01*
X126734128Y-108386666D01*
X126707770Y-108389500D01*
X104362229Y-108389500D01*
X104295190Y-108369815D01*
X104274548Y-108353181D01*
X102423547Y-106502180D01*
X102390062Y-106440857D01*
X102395046Y-106371165D01*
X102436918Y-106315232D01*
X102502382Y-106290815D01*
X102511228Y-106290499D01*
X102980002Y-106290499D01*
X102980008Y-106290499D01*
X103082797Y-106279999D01*
X103249334Y-106224814D01*
X103398656Y-106132712D01*
X103467879Y-106063489D01*
X103529202Y-106030004D01*
X103598894Y-106034988D01*
X103628446Y-106050853D01*
X103698646Y-106101857D01*
X103880968Y-106194755D01*
X104075582Y-106257990D01*
X104277683Y-106290000D01*
X104482317Y-106290000D01*
X104684417Y-106257990D01*
X104879031Y-106194755D01*
X105061349Y-106101859D01*
X105105921Y-106069474D01*
X104426447Y-105390000D01*
X104432661Y-105390000D01*
X104534394Y-105362741D01*
X104625606Y-105310080D01*
X104700080Y-105235606D01*
X104752741Y-105144394D01*
X104780000Y-105042661D01*
X104780000Y-105036447D01*
X105459474Y-105715921D01*
X105491859Y-105671349D01*
X105584755Y-105489031D01*
X105647990Y-105294417D01*
X105680000Y-105092317D01*
X105680000Y-104887682D01*
X105647990Y-104685582D01*
X105584755Y-104490968D01*
X105491859Y-104308650D01*
X105459474Y-104264077D01*
X105459474Y-104264076D01*
X104780000Y-104943551D01*
X104780000Y-104937339D01*
X104752741Y-104835606D01*
X104700080Y-104744394D01*
X104625606Y-104669920D01*
X104534394Y-104617259D01*
X104432661Y-104590000D01*
X104426446Y-104590000D01*
X105105922Y-103910524D01*
X105104640Y-103894228D01*
X105119005Y-103825851D01*
X105168056Y-103776094D01*
X105228258Y-103760500D01*
X125343431Y-103760500D01*
X125370149Y-103755185D01*
X125451053Y-103739092D01*
X125536724Y-103722051D01*
X125615306Y-103689501D01*
X125718802Y-103646632D01*
X125882670Y-103537139D01*
X126022027Y-103397782D01*
X126022027Y-103397780D01*
X126032235Y-103387573D01*
X126032236Y-103387570D01*
X130582990Y-98836818D01*
X130644313Y-98803333D01*
X130670671Y-98800499D01*
X131104890Y-98800499D01*
X131104896Y-98800499D01*
X131207685Y-98789999D01*
X131374222Y-98734814D01*
X131523544Y-98642712D01*
X131592767Y-98573489D01*
X131654090Y-98540004D01*
X131723782Y-98544988D01*
X131753334Y-98560853D01*
X131823534Y-98611857D01*
X132005856Y-98704755D01*
X132200470Y-98767990D01*
X132402571Y-98800000D01*
X132607205Y-98800000D01*
X132809305Y-98767990D01*
X133003919Y-98704755D01*
X133186237Y-98611859D01*
X133230809Y-98579474D01*
X132551335Y-97900000D01*
X132557549Y-97900000D01*
X132659282Y-97872741D01*
X132750494Y-97820080D01*
X132824968Y-97745606D01*
X132877629Y-97654394D01*
X132904888Y-97552661D01*
X132904888Y-97546447D01*
X133584362Y-98225921D01*
X133616747Y-98181349D01*
X133709643Y-97999031D01*
X133772878Y-97804417D01*
X133804888Y-97602317D01*
X133804888Y-97397682D01*
X133772878Y-97195582D01*
X133709643Y-97000968D01*
X133616746Y-96818647D01*
X133615828Y-96817384D01*
X133615626Y-96816820D01*
X133614202Y-96814495D01*
X133614690Y-96814195D01*
X133592349Y-96751577D01*
X133608175Y-96683524D01*
X133658282Y-96634830D01*
X133716147Y-96620500D01*
X147599243Y-96620500D01*
X147666282Y-96640185D01*
G37*
%TD.AperFunction*%
%TA.AperFunction,Conductor*%
G36*
X181804596Y-45426760D02*
G01*
X181805069Y-45426789D01*
X182158677Y-45448486D01*
X182170039Y-45449711D01*
X182519640Y-45503861D01*
X182530858Y-45506134D01*
X182873948Y-45592298D01*
X182884912Y-45595597D01*
X183218594Y-45713048D01*
X183229209Y-45717345D01*
X183550627Y-45865076D01*
X183560801Y-45870334D01*
X183867230Y-46047094D01*
X183876863Y-46053260D01*
X183925351Y-46087555D01*
X184165681Y-46257538D01*
X184174715Y-46264576D01*
X184443439Y-46494613D01*
X184451785Y-46502453D01*
X184588829Y-46643663D01*
X184698156Y-46756314D01*
X184705734Y-46764880D01*
X184922554Y-47034083D01*
X184927630Y-47040385D01*
X184934394Y-47049626D01*
X185129929Y-47344428D01*
X185135811Y-47354254D01*
X185303306Y-47665822D01*
X185308257Y-47676148D01*
X185446300Y-48001852D01*
X185450277Y-48012591D01*
X185557680Y-48349631D01*
X185560650Y-48360691D01*
X185636505Y-48706219D01*
X185638441Y-48717506D01*
X185682094Y-49068542D01*
X185682981Y-49079960D01*
X185694128Y-49435623D01*
X185694189Y-49439461D01*
X185694190Y-49442156D01*
X185694176Y-49444043D01*
X185693268Y-49505147D01*
X185693393Y-49506215D01*
X185694226Y-49520505D01*
X185721069Y-108005450D01*
X185721093Y-108058313D01*
X185720367Y-108061163D01*
X185721123Y-108124115D01*
X185721124Y-108124843D01*
X185721124Y-108125933D01*
X185721052Y-108130153D01*
X185707938Y-108515272D01*
X185707024Y-108526655D01*
X185658867Y-108906330D01*
X185656911Y-108917580D01*
X185574027Y-109291239D01*
X185571043Y-109302262D01*
X185454139Y-109666699D01*
X185450154Y-109677400D01*
X185300223Y-110029534D01*
X185295271Y-110039823D01*
X185113577Y-110376680D01*
X185107699Y-110386470D01*
X184895790Y-110705180D01*
X184889036Y-110714388D01*
X184648705Y-111012254D01*
X184641133Y-111020801D01*
X184374428Y-111295289D01*
X184366101Y-111303104D01*
X184075268Y-111551899D01*
X184066259Y-111558915D01*
X183753767Y-111779904D01*
X183744149Y-111786061D01*
X183412665Y-111977359D01*
X183402523Y-111982605D01*
X183054838Y-112142603D01*
X183044255Y-112146894D01*
X182683328Y-112274227D01*
X182672396Y-112277526D01*
X182301294Y-112371115D01*
X182290105Y-112373395D01*
X181911959Y-112432450D01*
X181900607Y-112433691D01*
X181614408Y-112451686D01*
X181606681Y-112451930D01*
X167167499Y-112458251D01*
X167167447Y-112458251D01*
X96892817Y-112459494D01*
X96892817Y-112459495D01*
X96878627Y-112459495D01*
X96870263Y-112457556D01*
X96812941Y-112459496D01*
X96810840Y-112459497D01*
X96810839Y-112459496D01*
X96810837Y-112459497D01*
X96797719Y-112459497D01*
X96793628Y-112459430D01*
X96564189Y-112451857D01*
X96547703Y-112450205D01*
X96318879Y-112411700D01*
X96302760Y-112407865D01*
X96081103Y-112339192D01*
X96065646Y-112333245D01*
X95935623Y-112272957D01*
X95855122Y-112235632D01*
X95840591Y-112227674D01*
X95713972Y-112146894D01*
X95644963Y-112102868D01*
X95631626Y-112093046D01*
X95454389Y-111943274D01*
X95442476Y-111931758D01*
X95379285Y-111861920D01*
X95286782Y-111759685D01*
X95276517Y-111746691D01*
X95145157Y-111555400D01*
X95136711Y-111541145D01*
X95032032Y-111334058D01*
X95025562Y-111318805D01*
X94949425Y-111099607D01*
X94945046Y-111083627D01*
X94939818Y-111057912D01*
X94898812Y-110856229D01*
X94896604Y-110839811D01*
X94895412Y-110822007D01*
X94880776Y-110603444D01*
X94880500Y-110595211D01*
X94880500Y-110534108D01*
X94880480Y-110534034D01*
X94880073Y-109148711D01*
X96259500Y-109148711D01*
X96259500Y-109391288D01*
X96291161Y-109631785D01*
X96353947Y-109866104D01*
X96421642Y-110029534D01*
X96446776Y-110090212D01*
X96568064Y-110300289D01*
X96568066Y-110300292D01*
X96568067Y-110300293D01*
X96715733Y-110492736D01*
X96715739Y-110492743D01*
X96887256Y-110664260D01*
X96887263Y-110664266D01*
X96952584Y-110714388D01*
X97079711Y-110811936D01*
X97289788Y-110933224D01*
X97513900Y-111026054D01*
X97748211Y-111088838D01*
X97928586Y-111112584D01*
X97988711Y-111120500D01*
X97988712Y-111120500D01*
X98231289Y-111120500D01*
X98279388Y-111114167D01*
X98471789Y-111088838D01*
X98706100Y-111026054D01*
X98930212Y-110933224D01*
X99140289Y-110811936D01*
X99332738Y-110664265D01*
X99504265Y-110492738D01*
X99651936Y-110300289D01*
X99773224Y-110090212D01*
X99866054Y-109866100D01*
X99928838Y-109631789D01*
X99960500Y-109391288D01*
X99960500Y-109148712D01*
X99928838Y-108908211D01*
X99866054Y-108673900D01*
X99773224Y-108449788D01*
X99651936Y-108239711D01*
X99504265Y-108047262D01*
X99504260Y-108047256D01*
X99332743Y-107875739D01*
X99332736Y-107875733D01*
X99140293Y-107728067D01*
X99140292Y-107728066D01*
X99140289Y-107728064D01*
X98930212Y-107606776D01*
X98930205Y-107606773D01*
X98706104Y-107513947D01*
X98471785Y-107451161D01*
X98231289Y-107419500D01*
X98231288Y-107419500D01*
X97988712Y-107419500D01*
X97988711Y-107419500D01*
X97748214Y-107451161D01*
X97513895Y-107513947D01*
X97289794Y-107606773D01*
X97289785Y-107606777D01*
X97079706Y-107728067D01*
X96887263Y-107875733D01*
X96887256Y-107875739D01*
X96715739Y-108047256D01*
X96715733Y-108047263D01*
X96568067Y-108239706D01*
X96446777Y-108449785D01*
X96446773Y-108449794D01*
X96353947Y-108673895D01*
X96335941Y-108741095D01*
X96291162Y-108908211D01*
X96284269Y-108960568D01*
X96259500Y-109148711D01*
X94880073Y-109148711D01*
X94877923Y-101833920D01*
X95869499Y-101833920D01*
X95898340Y-101978907D01*
X95898343Y-101978917D01*
X95954913Y-102115490D01*
X95954914Y-102115492D01*
X95954915Y-102115494D01*
X95954916Y-102115495D01*
X95959405Y-102122213D01*
X95959407Y-102122219D01*
X95959408Y-102122219D01*
X96037046Y-102238414D01*
X96037052Y-102238421D01*
X103417049Y-109618416D01*
X103470773Y-109672140D01*
X103521585Y-109722952D01*
X103644498Y-109805080D01*
X103644511Y-109805087D01*
X103781082Y-109861656D01*
X103781087Y-109861658D01*
X103781091Y-109861658D01*
X103781092Y-109861659D01*
X103926079Y-109890500D01*
X103926082Y-109890500D01*
X127143920Y-109890500D01*
X127241462Y-109871096D01*
X127288913Y-109861658D01*
X127425495Y-109805084D01*
X127474729Y-109772186D01*
X127548416Y-109722952D01*
X128204549Y-109066817D01*
X128265872Y-109033333D01*
X128292230Y-109030499D01*
X128767769Y-109030499D01*
X128834808Y-109050184D01*
X128855450Y-109066818D01*
X130857048Y-111068415D01*
X130857049Y-111068416D01*
X130961583Y-111172950D01*
X130961585Y-111172952D01*
X131084498Y-111255080D01*
X131084511Y-111255087D01*
X131221082Y-111311656D01*
X131221087Y-111311658D01*
X131221091Y-111311658D01*
X131221092Y-111311659D01*
X131366079Y-111340500D01*
X131366082Y-111340500D01*
X164243920Y-111340500D01*
X164352983Y-111318805D01*
X164388913Y-111311658D01*
X164525495Y-111255084D01*
X164574729Y-111222186D01*
X164648416Y-111172952D01*
X166862952Y-108958415D01*
X166896497Y-108908211D01*
X166904917Y-108895608D01*
X166958528Y-108850804D01*
X167008020Y-108840499D01*
X167177871Y-108840499D01*
X167177872Y-108840499D01*
X167237483Y-108834091D01*
X167372331Y-108783796D01*
X167487546Y-108697546D01*
X167573796Y-108582331D01*
X167624091Y-108447483D01*
X167630500Y-108387873D01*
X167630499Y-108363979D01*
X167633330Y-108350963D01*
X167643940Y-108331525D01*
X167650179Y-108310275D01*
X167666803Y-108289643D01*
X167666808Y-108289636D01*
X167666811Y-108289634D01*
X167666818Y-108289626D01*
X168337036Y-107619407D01*
X168354075Y-107682993D01*
X168419901Y-107797007D01*
X168512993Y-107890099D01*
X168627007Y-107955925D01*
X168690590Y-107972962D01*
X168058282Y-108605269D01*
X168058282Y-108605270D01*
X168112449Y-108644624D01*
X168301782Y-108741095D01*
X168503870Y-108806757D01*
X168713754Y-108840000D01*
X168926246Y-108840000D01*
X169136127Y-108806757D01*
X169136130Y-108806757D01*
X169338217Y-108741095D01*
X169527554Y-108644622D01*
X169581716Y-108605270D01*
X169581717Y-108605270D01*
X168949408Y-107972962D01*
X169012993Y-107955925D01*
X169127007Y-107890099D01*
X169220099Y-107797007D01*
X169285925Y-107682993D01*
X169302962Y-107619408D01*
X169935270Y-108251717D01*
X169935270Y-108251716D01*
X169974622Y-108197555D01*
X169979232Y-108188507D01*
X170027205Y-108137709D01*
X170095025Y-108120912D01*
X170161161Y-108143447D01*
X170200204Y-108188504D01*
X170204949Y-108197817D01*
X170329890Y-108369786D01*
X170480213Y-108520109D01*
X170652179Y-108645048D01*
X170652181Y-108645049D01*
X170652184Y-108645051D01*
X170841588Y-108741557D01*
X171043757Y-108807246D01*
X171253713Y-108840500D01*
X171253714Y-108840500D01*
X171466286Y-108840500D01*
X171466287Y-108840500D01*
X171676243Y-108807246D01*
X171878412Y-108741557D01*
X172067816Y-108645051D01*
X172137832Y-108594182D01*
X172239786Y-108520109D01*
X172239788Y-108520106D01*
X172239792Y-108520104D01*
X172390104Y-108369792D01*
X172390106Y-108369788D01*
X172390109Y-108369786D01*
X172499086Y-108219789D01*
X172515051Y-108197816D01*
X172519514Y-108189054D01*
X172567488Y-108138259D01*
X172635308Y-108121463D01*
X172701444Y-108143999D01*
X172740486Y-108189056D01*
X172744951Y-108197820D01*
X172869890Y-108369786D01*
X173020213Y-108520109D01*
X173192179Y-108645048D01*
X173192181Y-108645049D01*
X173192184Y-108645051D01*
X173381588Y-108741557D01*
X173583757Y-108807246D01*
X173793713Y-108840500D01*
X173793714Y-108840500D01*
X174006286Y-108840500D01*
X174006287Y-108840500D01*
X174216243Y-108807246D01*
X174418412Y-108741557D01*
X174607816Y-108645051D01*
X174677832Y-108594182D01*
X174779786Y-108520109D01*
X174779788Y-108520106D01*
X174779792Y-108520104D01*
X174930104Y-108369792D01*
X174930106Y-108369788D01*
X174930109Y-108369786D01*
X175039086Y-108219789D01*
X175055051Y-108197816D01*
X175151557Y-108008412D01*
X175157958Y-107988711D01*
X180109500Y-107988711D01*
X180109500Y-108231288D01*
X180138265Y-108449788D01*
X180141162Y-108471789D01*
X180148273Y-108498327D01*
X180203947Y-108706104D01*
X180296773Y-108930205D01*
X180296777Y-108930214D01*
X180307321Y-108948477D01*
X180418064Y-109140289D01*
X180418066Y-109140292D01*
X180418067Y-109140293D01*
X180565733Y-109332736D01*
X180565739Y-109332743D01*
X180737256Y-109504260D01*
X180737262Y-109504265D01*
X180929711Y-109651936D01*
X181139788Y-109773224D01*
X181252269Y-109819815D01*
X181353289Y-109861659D01*
X181363900Y-109866054D01*
X181598211Y-109928838D01*
X181778586Y-109952584D01*
X181838711Y-109960500D01*
X181838712Y-109960500D01*
X182081289Y-109960500D01*
X182129388Y-109954167D01*
X182321789Y-109928838D01*
X182556100Y-109866054D01*
X182780212Y-109773224D01*
X182990289Y-109651936D01*
X183182738Y-109504265D01*
X183354265Y-109332738D01*
X183501936Y-109140289D01*
X183623224Y-108930212D01*
X183716054Y-108706100D01*
X183778838Y-108471789D01*
X183810500Y-108231288D01*
X183810500Y-107988712D01*
X183778838Y-107748211D01*
X183716054Y-107513900D01*
X183623224Y-107289788D01*
X183501936Y-107079711D01*
X183426151Y-106980946D01*
X183354266Y-106887263D01*
X183354260Y-106887256D01*
X183182743Y-106715739D01*
X183182736Y-106715733D01*
X182990293Y-106568067D01*
X182990292Y-106568066D01*
X182990289Y-106568064D01*
X182799159Y-106457715D01*
X182780214Y-106446777D01*
X182780205Y-106446773D01*
X182556104Y-106353947D01*
X182321785Y-106291161D01*
X182081289Y-106259500D01*
X182081288Y-106259500D01*
X181838712Y-106259500D01*
X181838711Y-106259500D01*
X181598214Y-106291161D01*
X181363895Y-106353947D01*
X181139794Y-106446773D01*
X181139785Y-106446777D01*
X181003642Y-106525380D01*
X180930316Y-106567715D01*
X180929706Y-106568067D01*
X180737263Y-106715733D01*
X180737256Y-106715739D01*
X180565739Y-106887256D01*
X180565733Y-106887263D01*
X180418067Y-107079706D01*
X180296777Y-107289785D01*
X180296773Y-107289794D01*
X180203947Y-107513895D01*
X180141161Y-107748214D01*
X180109500Y-107988711D01*
X175157958Y-107988711D01*
X175217246Y-107806243D01*
X175250500Y-107596287D01*
X175250500Y-107383713D01*
X175217246Y-107173757D01*
X175151557Y-106971588D01*
X175055051Y-106782184D01*
X175055049Y-106782181D01*
X175055048Y-106782179D01*
X174930109Y-106610213D01*
X174779786Y-106459890D01*
X174607820Y-106334951D01*
X174418414Y-106238444D01*
X174418413Y-106238443D01*
X174418412Y-106238443D01*
X174216243Y-106172754D01*
X174216241Y-106172753D01*
X174216240Y-106172753D01*
X174054957Y-106147208D01*
X174006287Y-106139500D01*
X173793713Y-106139500D01*
X173745042Y-106147208D01*
X173583760Y-106172753D01*
X173381585Y-106238444D01*
X173192179Y-106334951D01*
X173020213Y-106459890D01*
X172869890Y-106610213D01*
X172744949Y-106782182D01*
X172740484Y-106790946D01*
X172692509Y-106841742D01*
X172624688Y-106858536D01*
X172558553Y-106835998D01*
X172519516Y-106790946D01*
X172515050Y-106782182D01*
X172390109Y-106610213D01*
X172239786Y-106459890D01*
X172067820Y-106334951D01*
X171878414Y-106238444D01*
X171878413Y-106238443D01*
X171878412Y-106238443D01*
X171676243Y-106172754D01*
X171676241Y-106172753D01*
X171676240Y-106172753D01*
X171514957Y-106147208D01*
X171466287Y-106139500D01*
X171253713Y-106139500D01*
X171205042Y-106147208D01*
X171043760Y-106172753D01*
X170841585Y-106238444D01*
X170652179Y-106334951D01*
X170480213Y-106459890D01*
X170329890Y-106610213D01*
X170204949Y-106782182D01*
X170200202Y-106791499D01*
X170152227Y-106842293D01*
X170084405Y-106859087D01*
X170018271Y-106836548D01*
X169979234Y-106791495D01*
X169974626Y-106782452D01*
X169935270Y-106728282D01*
X169935269Y-106728282D01*
X169302962Y-107360590D01*
X169285925Y-107297007D01*
X169220099Y-107182993D01*
X169127007Y-107089901D01*
X169012993Y-107024075D01*
X168949409Y-107007037D01*
X169581716Y-106374728D01*
X169527550Y-106335375D01*
X169338217Y-106238904D01*
X169136129Y-106173242D01*
X168926246Y-106140000D01*
X168713754Y-106140000D01*
X168503872Y-106173242D01*
X168503869Y-106173242D01*
X168301782Y-106238904D01*
X168112439Y-106335380D01*
X168058282Y-106374727D01*
X168058282Y-106374728D01*
X168690591Y-107007037D01*
X168627007Y-107024075D01*
X168512993Y-107089901D01*
X168419901Y-107182993D01*
X168354075Y-107297007D01*
X168337037Y-107360591D01*
X167666818Y-106690372D01*
X167633333Y-106629049D01*
X167633330Y-106629036D01*
X167630499Y-106616015D01*
X167630499Y-106592128D01*
X167624091Y-106532517D01*
X167585446Y-106428904D01*
X167573798Y-106397673D01*
X167573793Y-106397664D01*
X167487547Y-106282455D01*
X167487544Y-106282452D01*
X167372335Y-106196206D01*
X167372328Y-106196202D01*
X167237482Y-106145908D01*
X167237483Y-106145908D01*
X167177883Y-106139501D01*
X167177881Y-106139500D01*
X167177873Y-106139500D01*
X167177865Y-106139500D01*
X165571887Y-106139500D01*
X165504848Y-106119815D01*
X165459093Y-106067011D01*
X165449149Y-105997853D01*
X165478174Y-105934297D01*
X165484189Y-105927836D01*
X166254208Y-105157819D01*
X166315531Y-105124334D01*
X166341889Y-105121500D01*
X169007097Y-105121500D01*
X169240368Y-105084553D01*
X169257169Y-105079094D01*
X169464992Y-105011568D01*
X169675434Y-104904343D01*
X169866510Y-104765517D01*
X174185208Y-100446819D01*
X174212135Y-100432115D01*
X174237954Y-100415523D01*
X174244154Y-100414631D01*
X174246531Y-100413334D01*
X174272889Y-100410500D01*
X174359113Y-100410500D01*
X174426152Y-100430185D01*
X174471907Y-100482989D01*
X174481851Y-100552147D01*
X174469598Y-100590795D01*
X174445244Y-100638590D01*
X174382009Y-100833203D01*
X174350000Y-101035303D01*
X174350000Y-101239938D01*
X174382009Y-101442038D01*
X174445244Y-101636652D01*
X174538141Y-101818971D01*
X174538147Y-101818980D01*
X174570523Y-101863542D01*
X174570524Y-101863543D01*
X175250000Y-101184067D01*
X175250000Y-101190282D01*
X175277259Y-101292015D01*
X175329920Y-101383227D01*
X175404394Y-101457701D01*
X175495606Y-101510362D01*
X175597339Y-101537621D01*
X175603553Y-101537621D01*
X174924076Y-102217095D01*
X174968650Y-102249480D01*
X175150968Y-102342376D01*
X175345582Y-102405611D01*
X175547683Y-102437621D01*
X175752317Y-102437621D01*
X175954417Y-102405611D01*
X176149031Y-102342376D01*
X176331349Y-102249480D01*
X176375921Y-102217095D01*
X175696447Y-101537621D01*
X175702661Y-101537621D01*
X175804394Y-101510362D01*
X175895606Y-101457701D01*
X175970080Y-101383227D01*
X176022741Y-101292015D01*
X176050000Y-101190282D01*
X176050000Y-101184068D01*
X176729474Y-101863542D01*
X176761859Y-101818970D01*
X176854755Y-101636652D01*
X176917990Y-101442038D01*
X176950000Y-101239938D01*
X176950000Y-101035303D01*
X176917990Y-100833203D01*
X176854755Y-100638589D01*
X176761859Y-100456271D01*
X176729474Y-100411698D01*
X176729474Y-100411697D01*
X176050000Y-101091172D01*
X176050000Y-101084960D01*
X176022741Y-100983227D01*
X175970080Y-100892015D01*
X175895606Y-100817541D01*
X175804394Y-100764880D01*
X175702661Y-100737621D01*
X175696446Y-100737621D01*
X176067931Y-100366135D01*
X176117291Y-100335886D01*
X176225992Y-100300568D01*
X176436433Y-100193343D01*
X176627510Y-100054517D01*
X176794517Y-99887510D01*
X176933343Y-99696433D01*
X177040568Y-99485992D01*
X177113553Y-99261368D01*
X177118598Y-99229515D01*
X177150500Y-99028097D01*
X177150500Y-98791900D01*
X177113553Y-98558631D01*
X177089729Y-98485311D01*
X177040568Y-98334008D01*
X176973291Y-98201969D01*
X176964014Y-98183761D01*
X176950499Y-98127466D01*
X176950499Y-98037619D01*
X176950498Y-98037602D01*
X176939999Y-97934824D01*
X176939998Y-97934821D01*
X176925679Y-97891610D01*
X176884814Y-97768287D01*
X176792712Y-97618965D01*
X176668656Y-97494909D01*
X176550284Y-97421897D01*
X176519336Y-97402808D01*
X176519331Y-97402806D01*
X176467340Y-97385578D01*
X176352797Y-97347622D01*
X176352795Y-97347621D01*
X176250010Y-97337121D01*
X175049998Y-97337121D01*
X175049981Y-97337122D01*
X174947203Y-97347621D01*
X174947200Y-97347622D01*
X174824468Y-97388292D01*
X174780666Y-97402807D01*
X174780664Y-97402807D01*
X174779463Y-97403206D01*
X174740459Y-97409500D01*
X173481903Y-97409500D01*
X173248631Y-97446446D01*
X173024003Y-97519433D01*
X172813565Y-97626657D01*
X172622488Y-97765484D01*
X172622487Y-97765485D01*
X170851681Y-99536292D01*
X170790358Y-99569777D01*
X170720666Y-99564793D01*
X170664733Y-99522921D01*
X170640316Y-99457457D01*
X170640000Y-99448611D01*
X170640000Y-98902172D01*
X170639999Y-98902155D01*
X170633598Y-98842627D01*
X170633596Y-98842620D01*
X170583354Y-98707913D01*
X170583350Y-98707906D01*
X170497190Y-98592812D01*
X170497187Y-98592809D01*
X170382093Y-98506649D01*
X170382086Y-98506645D01*
X170247379Y-98456403D01*
X170247373Y-98456401D01*
X170209953Y-98452378D01*
X170145402Y-98425639D01*
X170105555Y-98368246D01*
X170103062Y-98298421D01*
X170138716Y-98238333D01*
X170150326Y-98228770D01*
X170154248Y-98225921D01*
X170187219Y-98201966D01*
X170331966Y-98057219D01*
X170331968Y-98057215D01*
X170331971Y-98057213D01*
X170420890Y-97934824D01*
X170452287Y-97891610D01*
X170545220Y-97709219D01*
X170608477Y-97514534D01*
X170640500Y-97312352D01*
X170640500Y-97107648D01*
X170608477Y-96905466D01*
X170606698Y-96899992D01*
X170575368Y-96803566D01*
X170545220Y-96710781D01*
X170545218Y-96710778D01*
X170545218Y-96710776D01*
X170495068Y-96612352D01*
X170452287Y-96528390D01*
X170444556Y-96517749D01*
X170331971Y-96362786D01*
X170187213Y-96218028D01*
X170021614Y-96097715D01*
X170015006Y-96094348D01*
X169928917Y-96050483D01*
X169878123Y-96002511D01*
X169861328Y-95934690D01*
X169883865Y-95868555D01*
X169928917Y-95829516D01*
X170021610Y-95782287D01*
X170142877Y-95694181D01*
X170208683Y-95670702D01*
X170215762Y-95670500D01*
X171038542Y-95670500D01*
X171069566Y-95664328D01*
X171135188Y-95651275D01*
X171231836Y-95632051D01*
X171285165Y-95609961D01*
X171413914Y-95556632D01*
X171577782Y-95447139D01*
X171717139Y-95307782D01*
X171717140Y-95307779D01*
X171724206Y-95300714D01*
X171724208Y-95300710D01*
X175018101Y-92006819D01*
X175079424Y-91973334D01*
X175105782Y-91970500D01*
X176129140Y-91970500D01*
X176196179Y-91990185D01*
X176241934Y-92042989D01*
X176251878Y-92112147D01*
X176222853Y-92175703D01*
X176172473Y-92210682D01*
X176157671Y-92216202D01*
X176157664Y-92216206D01*
X176042455Y-92302452D01*
X176042452Y-92302455D01*
X175956206Y-92417664D01*
X175956202Y-92417671D01*
X175905908Y-92552517D01*
X175899501Y-92612116D01*
X175899501Y-92612123D01*
X175899500Y-92612135D01*
X175899500Y-94407870D01*
X175899501Y-94407876D01*
X175905908Y-94467483D01*
X175956202Y-94602328D01*
X175956206Y-94602335D01*
X176042452Y-94717544D01*
X176042455Y-94717547D01*
X176157664Y-94803793D01*
X176157671Y-94803797D01*
X176292517Y-94854091D01*
X176292516Y-94854091D01*
X176299444Y-94854835D01*
X176352127Y-94860500D01*
X178147872Y-94860499D01*
X178207483Y-94854091D01*
X178342331Y-94803796D01*
X178457546Y-94717546D01*
X178543796Y-94602331D01*
X178594091Y-94467483D01*
X178600500Y-94407873D01*
X178600499Y-92612128D01*
X178594091Y-92552517D01*
X178578039Y-92509480D01*
X178543797Y-92417671D01*
X178543793Y-92417664D01*
X178457547Y-92302455D01*
X178457544Y-92302452D01*
X178342335Y-92216206D01*
X178342328Y-92216202D01*
X178210917Y-92167189D01*
X178154983Y-92125318D01*
X178130566Y-92059853D01*
X178145418Y-91991580D01*
X178166563Y-91963332D01*
X178280104Y-91849792D01*
X178297779Y-91825465D01*
X178405048Y-91677820D01*
X178405047Y-91677820D01*
X178405051Y-91677816D01*
X178501557Y-91488412D01*
X178567246Y-91286243D01*
X178600500Y-91076287D01*
X178600500Y-90863713D01*
X178567246Y-90653757D01*
X178501557Y-90451588D01*
X178405051Y-90262184D01*
X178405049Y-90262181D01*
X178405048Y-90262179D01*
X178280109Y-90090213D01*
X178129786Y-89939890D01*
X177957820Y-89814951D01*
X177957115Y-89814591D01*
X177949054Y-89810485D01*
X177898259Y-89762512D01*
X177881463Y-89694692D01*
X177903999Y-89628556D01*
X177949054Y-89589515D01*
X177957816Y-89585051D01*
X178091881Y-89487648D01*
X178129786Y-89460109D01*
X178129788Y-89460106D01*
X178129792Y-89460104D01*
X178280104Y-89309792D01*
X178280106Y-89309788D01*
X178280109Y-89309786D01*
X178405048Y-89137820D01*
X178405047Y-89137820D01*
X178405051Y-89137816D01*
X178501557Y-88948412D01*
X178567246Y-88746243D01*
X178600500Y-88536287D01*
X178600500Y-88323713D01*
X178567246Y-88113757D01*
X178501557Y-87911588D01*
X178405051Y-87722184D01*
X178405049Y-87722181D01*
X178405048Y-87722179D01*
X178280109Y-87550213D01*
X178129786Y-87399890D01*
X177957820Y-87274951D01*
X177957115Y-87274591D01*
X177949054Y-87270485D01*
X177898259Y-87222512D01*
X177881463Y-87154692D01*
X177903999Y-87088556D01*
X177949054Y-87049515D01*
X177957816Y-87045051D01*
X178091881Y-86947648D01*
X178129786Y-86920109D01*
X178129788Y-86920106D01*
X178129792Y-86920104D01*
X178280104Y-86769792D01*
X178280106Y-86769788D01*
X178280109Y-86769786D01*
X178405048Y-86597820D01*
X178405047Y-86597820D01*
X178405051Y-86597816D01*
X178501557Y-86408412D01*
X178567246Y-86206243D01*
X178600500Y-85996287D01*
X178600500Y-85783713D01*
X178567246Y-85573757D01*
X178501557Y-85371588D01*
X178405051Y-85182184D01*
X178405049Y-85182181D01*
X178405048Y-85182179D01*
X178280109Y-85010213D01*
X178129786Y-84859890D01*
X177957820Y-84734951D01*
X177768414Y-84638444D01*
X177768413Y-84638443D01*
X177768412Y-84638443D01*
X177566243Y-84572754D01*
X177566241Y-84572753D01*
X177566240Y-84572753D01*
X177394668Y-84545579D01*
X177356287Y-84539500D01*
X177143713Y-84539500D01*
X177105332Y-84545579D01*
X176933760Y-84572753D01*
X176933757Y-84572754D01*
X176750667Y-84632244D01*
X176731585Y-84638444D01*
X176542179Y-84734951D01*
X176370213Y-84859890D01*
X176219890Y-85010213D01*
X176094951Y-85182179D01*
X175998444Y-85371585D01*
X175932753Y-85573760D01*
X175911404Y-85708555D01*
X175899500Y-85783713D01*
X175899500Y-85996287D01*
X175908334Y-86052061D01*
X175932205Y-86202781D01*
X175932754Y-86206243D01*
X175974677Y-86335269D01*
X175998444Y-86408414D01*
X176094951Y-86597820D01*
X176219890Y-86769786D01*
X176370213Y-86920109D01*
X176542182Y-87045050D01*
X176550946Y-87049516D01*
X176601742Y-87097491D01*
X176618536Y-87165312D01*
X176595998Y-87231447D01*
X176550946Y-87270484D01*
X176542182Y-87274949D01*
X176370213Y-87399890D01*
X176219890Y-87550213D01*
X176094951Y-87722179D01*
X175998444Y-87911585D01*
X175932753Y-88113760D01*
X175899500Y-88323713D01*
X175899500Y-88536286D01*
X175932205Y-88742781D01*
X175932754Y-88746243D01*
X175974677Y-88875269D01*
X175998444Y-88948414D01*
X176094951Y-89137820D01*
X176219890Y-89309786D01*
X176370213Y-89460109D01*
X176542182Y-89585050D01*
X176550946Y-89589516D01*
X176601742Y-89637491D01*
X176618536Y-89705312D01*
X176595998Y-89771447D01*
X176550946Y-89810484D01*
X176542182Y-89814949D01*
X176366266Y-89942759D01*
X176365635Y-89941891D01*
X176306581Y-89968359D01*
X176289800Y-89969500D01*
X174541456Y-89969500D01*
X174532167Y-89971348D01*
X174532162Y-89971349D01*
X174348171Y-90007947D01*
X174348164Y-90007949D01*
X174327404Y-90016548D01*
X174166088Y-90083366D01*
X174166079Y-90083371D01*
X174002219Y-90192859D01*
X173932900Y-90262179D01*
X173862861Y-90332218D01*
X173862858Y-90332221D01*
X172194976Y-92000104D01*
X170561899Y-93633181D01*
X170500576Y-93666666D01*
X170474218Y-93669500D01*
X170215762Y-93669500D01*
X170148723Y-93649815D01*
X170142877Y-93645818D01*
X170021613Y-93557715D01*
X170021612Y-93557714D01*
X170021610Y-93557713D01*
X169928917Y-93510483D01*
X169878123Y-93462511D01*
X169861328Y-93394690D01*
X169883865Y-93328555D01*
X169928917Y-93289516D01*
X170021610Y-93242287D01*
X170071272Y-93206206D01*
X170187213Y-93121971D01*
X170187215Y-93121968D01*
X170187219Y-93121966D01*
X170331966Y-92977219D01*
X170331968Y-92977215D01*
X170331971Y-92977213D01*
X170395041Y-92890403D01*
X170452287Y-92811610D01*
X170545220Y-92629219D01*
X170608477Y-92434534D01*
X170640500Y-92232352D01*
X170640500Y-92027648D01*
X170631897Y-91973334D01*
X170608477Y-91825465D01*
X170560504Y-91677820D01*
X170545220Y-91630781D01*
X170545218Y-91630778D01*
X170545218Y-91630776D01*
X170472679Y-91488412D01*
X170452287Y-91448390D01*
X170444556Y-91437749D01*
X170331971Y-91282786D01*
X170187213Y-91138028D01*
X170021614Y-91017715D01*
X170015006Y-91014348D01*
X169928917Y-90970483D01*
X169878123Y-90922511D01*
X169861328Y-90854690D01*
X169883865Y-90788555D01*
X169928917Y-90749516D01*
X170021610Y-90702287D01*
X170042770Y-90686913D01*
X170187213Y-90581971D01*
X170187215Y-90581968D01*
X170187219Y-90581966D01*
X170331966Y-90437219D01*
X170331968Y-90437215D01*
X170331971Y-90437213D01*
X170408253Y-90332218D01*
X170452287Y-90271610D01*
X170545220Y-90089219D01*
X170608477Y-89894534D01*
X170640500Y-89692352D01*
X170640500Y-89487648D01*
X170609272Y-89290485D01*
X170608477Y-89285465D01*
X170560504Y-89137820D01*
X170545220Y-89090781D01*
X170545218Y-89090778D01*
X170545218Y-89090776D01*
X170495068Y-88992352D01*
X170452287Y-88908390D01*
X170444556Y-88897749D01*
X170331971Y-88742786D01*
X170187213Y-88598028D01*
X170021614Y-88477715D01*
X170015006Y-88474348D01*
X169928917Y-88430483D01*
X169878123Y-88382511D01*
X169861328Y-88314690D01*
X169883865Y-88248555D01*
X169928917Y-88209516D01*
X170021610Y-88162287D01*
X170042770Y-88146913D01*
X170187213Y-88041971D01*
X170187215Y-88041968D01*
X170187219Y-88041966D01*
X170331966Y-87897219D01*
X170331968Y-87897215D01*
X170331971Y-87897213D01*
X170395041Y-87810403D01*
X170452287Y-87731610D01*
X170545220Y-87549219D01*
X170608477Y-87354534D01*
X170640500Y-87152352D01*
X170640500Y-86947648D01*
X170608477Y-86745466D01*
X170545220Y-86550781D01*
X170545218Y-86550778D01*
X170545218Y-86550776D01*
X170485063Y-86432717D01*
X170452287Y-86368390D01*
X170444556Y-86357749D01*
X170331971Y-86202786D01*
X170187213Y-86058028D01*
X170021611Y-85937713D01*
X169928369Y-85890203D01*
X169877574Y-85842229D01*
X169860779Y-85774407D01*
X169883317Y-85708273D01*
X169928371Y-85669234D01*
X170021347Y-85621861D01*
X170186894Y-85501582D01*
X170186895Y-85501582D01*
X170331582Y-85356895D01*
X170331582Y-85356894D01*
X170451859Y-85191349D01*
X170544755Y-85009029D01*
X170607990Y-84814413D01*
X170616609Y-84760000D01*
X169655686Y-84760000D01*
X169660080Y-84755606D01*
X169712741Y-84664394D01*
X169740000Y-84562661D01*
X169740000Y-84457339D01*
X169712741Y-84355606D01*
X169660080Y-84264394D01*
X169655686Y-84260000D01*
X170616609Y-84260000D01*
X170607990Y-84205586D01*
X170544755Y-84010970D01*
X170451859Y-83828650D01*
X170331582Y-83663105D01*
X170331582Y-83663104D01*
X170186895Y-83518417D01*
X170021349Y-83398140D01*
X169928370Y-83350765D01*
X169877574Y-83302790D01*
X169860779Y-83234969D01*
X169883316Y-83168835D01*
X169928370Y-83129795D01*
X169935153Y-83126339D01*
X170021610Y-83082287D01*
X170089000Y-83033326D01*
X170187213Y-82961971D01*
X170187215Y-82961968D01*
X170187219Y-82961966D01*
X170331966Y-82817219D01*
X170331968Y-82817215D01*
X170331971Y-82817213D01*
X170395041Y-82730403D01*
X170452287Y-82651610D01*
X170545220Y-82469219D01*
X170608477Y-82274534D01*
X170640500Y-82072352D01*
X170640500Y-81867648D01*
X170608477Y-81665466D01*
X170545220Y-81470781D01*
X170545218Y-81470778D01*
X170545218Y-81470776D01*
X170493653Y-81369576D01*
X170452287Y-81288390D01*
X170444556Y-81277749D01*
X170331971Y-81122786D01*
X170187213Y-80978028D01*
X170021613Y-80857715D01*
X170021612Y-80857714D01*
X170021610Y-80857713D01*
X169964653Y-80828691D01*
X169839223Y-80764781D01*
X169644534Y-80701522D01*
X169469995Y-80673878D01*
X169442352Y-80669500D01*
X169237648Y-80669500D01*
X169213329Y-80673351D01*
X169035465Y-80701522D01*
X168840776Y-80764781D01*
X168658386Y-80857715D01*
X168492786Y-80978028D01*
X168348028Y-81122786D01*
X168227715Y-81288386D01*
X168134781Y-81470776D01*
X168071522Y-81665465D01*
X168039500Y-81867648D01*
X168039500Y-82072351D01*
X168071522Y-82274534D01*
X168134781Y-82469223D01*
X168227715Y-82651613D01*
X168348028Y-82817213D01*
X168492786Y-82961971D01*
X168591000Y-83033326D01*
X168658390Y-83082287D01*
X168730424Y-83118990D01*
X168751629Y-83129795D01*
X168802425Y-83177770D01*
X168819220Y-83245591D01*
X168796682Y-83311726D01*
X168751629Y-83350765D01*
X168658650Y-83398140D01*
X168493105Y-83518417D01*
X168493104Y-83518417D01*
X168348417Y-83663104D01*
X168348417Y-83663105D01*
X168228140Y-83828650D01*
X168135244Y-84010970D01*
X168072009Y-84205586D01*
X168063391Y-84260000D01*
X169024314Y-84260000D01*
X169019920Y-84264394D01*
X168967259Y-84355606D01*
X168940000Y-84457339D01*
X168940000Y-84562661D01*
X168967259Y-84664394D01*
X169019920Y-84755606D01*
X169024314Y-84760000D01*
X168063391Y-84760000D01*
X168072009Y-84814413D01*
X168135244Y-85009029D01*
X168228140Y-85191349D01*
X168348417Y-85356894D01*
X168348417Y-85356895D01*
X168493104Y-85501582D01*
X168658652Y-85621861D01*
X168751628Y-85669234D01*
X168802425Y-85717208D01*
X168819220Y-85785029D01*
X168796683Y-85851164D01*
X168751630Y-85890203D01*
X168658388Y-85937713D01*
X168492786Y-86058028D01*
X168348028Y-86202786D01*
X168227715Y-86368386D01*
X168134781Y-86550776D01*
X168071522Y-86745465D01*
X168039500Y-86947648D01*
X168039500Y-87152351D01*
X168071522Y-87354534D01*
X168134781Y-87549223D01*
X168198691Y-87674653D01*
X168222910Y-87722184D01*
X168227715Y-87731613D01*
X168348028Y-87897213D01*
X168492786Y-88041971D01*
X168647749Y-88154556D01*
X168658390Y-88162287D01*
X168744617Y-88206222D01*
X168751080Y-88209515D01*
X168801876Y-88257490D01*
X168818671Y-88325311D01*
X168796134Y-88391446D01*
X168751080Y-88430485D01*
X168658386Y-88477715D01*
X168492786Y-88598028D01*
X168348028Y-88742786D01*
X168227715Y-88908386D01*
X168134781Y-89090776D01*
X168071522Y-89285465D01*
X168039500Y-89487648D01*
X168039500Y-89692351D01*
X168071522Y-89894534D01*
X168134781Y-90089223D01*
X168187587Y-90192859D01*
X168222910Y-90262184D01*
X168227715Y-90271613D01*
X168348028Y-90437213D01*
X168492786Y-90581971D01*
X168647749Y-90694556D01*
X168658390Y-90702287D01*
X168744825Y-90746328D01*
X168751080Y-90749515D01*
X168801876Y-90797490D01*
X168818671Y-90865311D01*
X168796134Y-90931446D01*
X168751080Y-90970485D01*
X168658386Y-91017715D01*
X168492786Y-91138028D01*
X168348028Y-91282786D01*
X168227715Y-91448386D01*
X168134781Y-91630776D01*
X168071522Y-91825465D01*
X168039500Y-92027648D01*
X168039500Y-92232351D01*
X168071522Y-92434534D01*
X168134781Y-92629223D01*
X168227715Y-92811613D01*
X168348028Y-92977213D01*
X168492786Y-93121971D01*
X168608728Y-93206206D01*
X168658390Y-93242287D01*
X168744847Y-93286339D01*
X168751080Y-93289515D01*
X168801876Y-93337490D01*
X168818671Y-93405311D01*
X168796134Y-93471446D01*
X168751080Y-93510485D01*
X168658386Y-93557715D01*
X168492786Y-93678028D01*
X168348028Y-93822786D01*
X168227715Y-93988386D01*
X168134781Y-94170776D01*
X168071522Y-94365465D01*
X168039500Y-94567648D01*
X168039500Y-94772351D01*
X168071522Y-94974534D01*
X168134781Y-95169223D01*
X168178619Y-95255258D01*
X168215185Y-95327023D01*
X168227715Y-95351613D01*
X168348028Y-95517213D01*
X168492786Y-95661971D01*
X168647749Y-95774556D01*
X168658390Y-95782287D01*
X168744847Y-95826339D01*
X168751080Y-95829515D01*
X168801876Y-95877490D01*
X168818671Y-95945311D01*
X168796134Y-96011446D01*
X168751080Y-96050485D01*
X168658386Y-96097715D01*
X168492786Y-96218028D01*
X168348028Y-96362786D01*
X168227715Y-96528386D01*
X168134781Y-96710776D01*
X168071522Y-96905465D01*
X168039500Y-97107648D01*
X168039500Y-97312351D01*
X168071522Y-97514534D01*
X168134781Y-97709223D01*
X168198691Y-97834653D01*
X168199177Y-97835606D01*
X168227715Y-97891613D01*
X168348028Y-98057213D01*
X168348034Y-98057219D01*
X168492781Y-98201966D01*
X168529674Y-98228770D01*
X168572340Y-98284100D01*
X168578319Y-98353714D01*
X168545714Y-98415509D01*
X168484875Y-98449866D01*
X168470046Y-98452378D01*
X168432626Y-98456401D01*
X168432620Y-98456403D01*
X168297913Y-98506645D01*
X168297906Y-98506649D01*
X168182812Y-98592809D01*
X168182809Y-98592812D01*
X168096649Y-98707906D01*
X168096645Y-98707913D01*
X168046403Y-98842620D01*
X168046401Y-98842627D01*
X168040000Y-98902155D01*
X168040000Y-99500000D01*
X169024314Y-99500000D01*
X169019920Y-99504394D01*
X168967259Y-99595606D01*
X168940000Y-99697339D01*
X168940000Y-99802661D01*
X168967259Y-99904394D01*
X169019920Y-99995606D01*
X169024314Y-100000000D01*
X168040000Y-100000000D01*
X168040000Y-100597844D01*
X168046401Y-100657372D01*
X168046403Y-100657379D01*
X168096645Y-100792086D01*
X168096649Y-100792093D01*
X168182809Y-100907187D01*
X168182812Y-100907190D01*
X168297906Y-100993350D01*
X168297913Y-100993354D01*
X168432620Y-101043596D01*
X168432627Y-101043598D01*
X168492155Y-101049999D01*
X168492172Y-101050000D01*
X169038611Y-101050000D01*
X169105650Y-101069685D01*
X169151405Y-101122489D01*
X169161349Y-101191647D01*
X169132324Y-101255203D01*
X169126292Y-101261681D01*
X168303792Y-102084181D01*
X168242469Y-102117666D01*
X168216111Y-102120500D01*
X165550903Y-102120500D01*
X165317631Y-102157446D01*
X165093003Y-102230433D01*
X164882565Y-102337657D01*
X164691488Y-102476484D01*
X161310237Y-105857735D01*
X161248914Y-105891220D01*
X161179222Y-105886236D01*
X161134875Y-105857735D01*
X156539321Y-101262181D01*
X156505836Y-101200858D01*
X156510820Y-101131166D01*
X156552692Y-101075233D01*
X156618156Y-101050816D01*
X156627002Y-101050500D01*
X156742351Y-101050500D01*
X156742352Y-101050500D01*
X156944534Y-101018477D01*
X157139219Y-100955220D01*
X157321610Y-100862287D01*
X157418234Y-100792086D01*
X157487213Y-100741971D01*
X157487215Y-100741968D01*
X157487219Y-100741966D01*
X157631966Y-100597219D01*
X157631968Y-100597215D01*
X157631971Y-100597213D01*
X157714958Y-100482989D01*
X157752287Y-100431610D01*
X157845220Y-100249219D01*
X157908477Y-100054534D01*
X157940500Y-99852352D01*
X157940500Y-99647648D01*
X157920232Y-99519685D01*
X157908477Y-99445465D01*
X157853898Y-99277490D01*
X157845220Y-99250781D01*
X157845218Y-99250778D01*
X157845218Y-99250776D01*
X157795068Y-99152352D01*
X157752287Y-99068390D01*
X157744556Y-99057749D01*
X157631971Y-98902786D01*
X157487213Y-98758028D01*
X157321614Y-98637715D01*
X157301313Y-98627371D01*
X157228917Y-98590483D01*
X157178123Y-98542511D01*
X157161328Y-98474690D01*
X157183865Y-98408555D01*
X157228917Y-98369516D01*
X157321610Y-98322287D01*
X157354459Y-98298421D01*
X157487213Y-98201971D01*
X157487215Y-98201968D01*
X157487219Y-98201966D01*
X157631966Y-98057219D01*
X157631968Y-98057215D01*
X157631971Y-98057213D01*
X157720890Y-97934824D01*
X157752287Y-97891610D01*
X157845220Y-97709219D01*
X157908477Y-97514534D01*
X157940500Y-97312352D01*
X157940500Y-97107648D01*
X157908477Y-96905466D01*
X157906698Y-96899992D01*
X157875368Y-96803566D01*
X157845220Y-96710781D01*
X157845218Y-96710778D01*
X157845218Y-96710776D01*
X157795068Y-96612352D01*
X157752287Y-96528390D01*
X157744556Y-96517749D01*
X157631971Y-96362786D01*
X157487213Y-96218028D01*
X157321614Y-96097715D01*
X157315006Y-96094348D01*
X157228917Y-96050483D01*
X157178123Y-96002511D01*
X157161328Y-95934690D01*
X157183865Y-95868555D01*
X157228917Y-95829516D01*
X157321610Y-95782287D01*
X157342770Y-95766913D01*
X157487213Y-95661971D01*
X157487215Y-95661968D01*
X157487219Y-95661966D01*
X157631966Y-95517219D01*
X157631968Y-95517215D01*
X157631971Y-95517213D01*
X157726679Y-95386856D01*
X157752287Y-95351610D01*
X157845220Y-95169219D01*
X157908477Y-94974534D01*
X157940500Y-94772352D01*
X157940500Y-94567648D01*
X157940038Y-94564731D01*
X157908477Y-94365465D01*
X157853898Y-94197490D01*
X157845220Y-94170781D01*
X157845218Y-94170778D01*
X157845218Y-94170776D01*
X157795068Y-94072352D01*
X157752287Y-93988390D01*
X157744556Y-93977749D01*
X157631971Y-93822786D01*
X157487213Y-93678028D01*
X157321614Y-93557715D01*
X157252041Y-93522266D01*
X157228917Y-93510483D01*
X157178123Y-93462511D01*
X157161328Y-93394690D01*
X157183865Y-93328555D01*
X157228917Y-93289516D01*
X157321610Y-93242287D01*
X157371272Y-93206206D01*
X157487213Y-93121971D01*
X157487215Y-93121968D01*
X157487219Y-93121966D01*
X157631966Y-92977219D01*
X157631968Y-92977215D01*
X157631971Y-92977213D01*
X157695041Y-92890403D01*
X157752287Y-92811610D01*
X157845220Y-92629219D01*
X157908477Y-92434534D01*
X157940500Y-92232352D01*
X157940500Y-92027648D01*
X157931897Y-91973334D01*
X157908477Y-91825465D01*
X157860504Y-91677820D01*
X157845220Y-91630781D01*
X157845218Y-91630778D01*
X157845218Y-91630776D01*
X157772679Y-91488412D01*
X157752287Y-91448390D01*
X157744556Y-91437749D01*
X157631971Y-91282786D01*
X157487213Y-91138028D01*
X157321614Y-91017715D01*
X157315006Y-91014348D01*
X157228917Y-90970483D01*
X157178123Y-90922511D01*
X157161328Y-90854690D01*
X157183865Y-90788555D01*
X157228917Y-90749516D01*
X157321610Y-90702287D01*
X157342770Y-90686913D01*
X157487213Y-90581971D01*
X157487215Y-90581968D01*
X157487219Y-90581966D01*
X157631966Y-90437219D01*
X157631968Y-90437215D01*
X157631971Y-90437213D01*
X157708253Y-90332218D01*
X157752287Y-90271610D01*
X157845220Y-90089219D01*
X157908477Y-89894534D01*
X157940500Y-89692352D01*
X157940500Y-89487648D01*
X157909272Y-89290485D01*
X157908477Y-89285465D01*
X157860504Y-89137820D01*
X157845220Y-89090781D01*
X157845218Y-89090778D01*
X157845218Y-89090776D01*
X157795068Y-88992352D01*
X157752287Y-88908390D01*
X157744556Y-88897749D01*
X157631971Y-88742786D01*
X157487213Y-88598028D01*
X157321614Y-88477715D01*
X157315006Y-88474348D01*
X157228917Y-88430483D01*
X157178123Y-88382511D01*
X157161328Y-88314690D01*
X157183865Y-88248555D01*
X157228917Y-88209516D01*
X157321610Y-88162287D01*
X157342770Y-88146913D01*
X157487213Y-88041971D01*
X157487215Y-88041968D01*
X157487219Y-88041966D01*
X157631966Y-87897219D01*
X157631968Y-87897215D01*
X157631971Y-87897213D01*
X157695041Y-87810403D01*
X157752287Y-87731610D01*
X157845220Y-87549219D01*
X157908477Y-87354534D01*
X157940500Y-87152352D01*
X157940500Y-86947648D01*
X157908477Y-86745466D01*
X157845220Y-86550781D01*
X157845218Y-86550778D01*
X157845218Y-86550776D01*
X157785063Y-86432717D01*
X157752287Y-86368390D01*
X157744556Y-86357749D01*
X157631971Y-86202786D01*
X157487213Y-86058028D01*
X157321614Y-85937715D01*
X157289647Y-85921427D01*
X157228917Y-85890483D01*
X157178123Y-85842511D01*
X157161328Y-85774690D01*
X157183865Y-85708555D01*
X157228917Y-85669516D01*
X157321610Y-85622287D01*
X157370596Y-85586697D01*
X157487213Y-85501971D01*
X157487215Y-85501968D01*
X157487219Y-85501966D01*
X157631966Y-85357219D01*
X157631968Y-85357215D01*
X157631971Y-85357213D01*
X157695041Y-85270403D01*
X157752287Y-85191610D01*
X157845220Y-85009219D01*
X157908477Y-84814534D01*
X157940500Y-84612352D01*
X157940500Y-84407648D01*
X157930415Y-84343976D01*
X157908477Y-84205465D01*
X157868268Y-84081716D01*
X157845220Y-84010781D01*
X157845218Y-84010778D01*
X157845218Y-84010776D01*
X157752419Y-83828650D01*
X157752287Y-83828390D01*
X157744556Y-83817749D01*
X157631971Y-83662786D01*
X157487213Y-83518028D01*
X157321614Y-83397715D01*
X157289647Y-83381427D01*
X157228917Y-83350483D01*
X157178123Y-83302511D01*
X157161328Y-83234690D01*
X157183865Y-83168555D01*
X157228917Y-83129516D01*
X157321610Y-83082287D01*
X157389000Y-83033326D01*
X157487213Y-82961971D01*
X157487215Y-82961968D01*
X157487219Y-82961966D01*
X157631966Y-82817219D01*
X157631968Y-82817215D01*
X157631971Y-82817213D01*
X157695041Y-82730403D01*
X157752287Y-82651610D01*
X157845220Y-82469219D01*
X157908477Y-82274534D01*
X157940500Y-82072352D01*
X157940500Y-81867648D01*
X157908477Y-81665466D01*
X157845220Y-81470781D01*
X157845218Y-81470778D01*
X157845218Y-81470776D01*
X157793653Y-81369576D01*
X157752287Y-81288390D01*
X157744556Y-81277749D01*
X157631971Y-81122786D01*
X157487213Y-80978028D01*
X157321613Y-80857715D01*
X157321612Y-80857714D01*
X157321610Y-80857713D01*
X157264653Y-80828691D01*
X157139223Y-80764781D01*
X156944534Y-80701522D01*
X156769995Y-80673878D01*
X156742352Y-80669500D01*
X156537648Y-80669500D01*
X156513329Y-80673351D01*
X156335465Y-80701522D01*
X156140776Y-80764781D01*
X155958386Y-80857715D01*
X155792786Y-80978028D01*
X155648028Y-81122786D01*
X155527715Y-81288386D01*
X155434781Y-81470776D01*
X155371522Y-81665465D01*
X155339500Y-81867648D01*
X155339500Y-82072351D01*
X155371522Y-82274534D01*
X155434781Y-82469223D01*
X155527715Y-82651613D01*
X155648028Y-82817213D01*
X155792786Y-82961971D01*
X155891000Y-83033326D01*
X155958390Y-83082287D01*
X156044847Y-83126339D01*
X156051080Y-83129515D01*
X156101876Y-83177490D01*
X156118671Y-83245311D01*
X156096134Y-83311446D01*
X156051080Y-83350485D01*
X155958386Y-83397715D01*
X155792786Y-83518028D01*
X155648028Y-83662786D01*
X155527715Y-83828386D01*
X155434781Y-84010776D01*
X155371522Y-84205465D01*
X155339500Y-84407648D01*
X155339500Y-84612351D01*
X155371522Y-84814534D01*
X155434781Y-85009223D01*
X155467622Y-85073675D01*
X155526893Y-85190001D01*
X155527715Y-85191613D01*
X155648028Y-85357213D01*
X155792786Y-85501971D01*
X155909404Y-85586697D01*
X155958390Y-85622287D01*
X156044847Y-85666339D01*
X156051080Y-85669515D01*
X156101876Y-85717490D01*
X156118671Y-85785311D01*
X156096134Y-85851446D01*
X156051080Y-85890485D01*
X155958386Y-85937715D01*
X155792786Y-86058028D01*
X155648028Y-86202786D01*
X155527715Y-86368386D01*
X155434781Y-86550776D01*
X155371522Y-86745465D01*
X155339500Y-86947648D01*
X155339500Y-87152351D01*
X155371522Y-87354534D01*
X155434781Y-87549223D01*
X155498691Y-87674653D01*
X155522910Y-87722184D01*
X155527715Y-87731613D01*
X155648028Y-87897213D01*
X155792786Y-88041971D01*
X155947749Y-88154556D01*
X155958390Y-88162287D01*
X156044617Y-88206222D01*
X156051080Y-88209515D01*
X156101876Y-88257490D01*
X156118671Y-88325311D01*
X156096134Y-88391446D01*
X156051080Y-88430485D01*
X155958386Y-88477715D01*
X155792786Y-88598028D01*
X155648028Y-88742786D01*
X155527715Y-88908386D01*
X155434781Y-89090776D01*
X155371522Y-89285465D01*
X155339500Y-89487648D01*
X155339500Y-89692351D01*
X155371522Y-89894534D01*
X155434781Y-90089223D01*
X155487587Y-90192859D01*
X155522910Y-90262184D01*
X155527715Y-90271613D01*
X155648028Y-90437213D01*
X155792786Y-90581971D01*
X155947749Y-90694556D01*
X155958390Y-90702287D01*
X156044825Y-90746328D01*
X156051080Y-90749515D01*
X156101876Y-90797490D01*
X156118671Y-90865311D01*
X156096134Y-90931446D01*
X156051080Y-90970485D01*
X155958386Y-91017715D01*
X155792786Y-91138028D01*
X155648028Y-91282786D01*
X155527715Y-91448386D01*
X155434781Y-91630776D01*
X155371522Y-91825465D01*
X155339500Y-92027648D01*
X155339500Y-92232351D01*
X155371522Y-92434534D01*
X155434781Y-92629223D01*
X155527715Y-92811613D01*
X155648028Y-92977213D01*
X155792786Y-93121971D01*
X155908728Y-93206206D01*
X155958390Y-93242287D01*
X156044847Y-93286339D01*
X156051080Y-93289515D01*
X156101876Y-93337490D01*
X156118671Y-93405311D01*
X156096134Y-93471446D01*
X156051080Y-93510485D01*
X155958386Y-93557715D01*
X155792786Y-93678028D01*
X155648028Y-93822786D01*
X155527715Y-93988386D01*
X155434781Y-94170776D01*
X155371522Y-94365465D01*
X155339500Y-94567648D01*
X155339500Y-94772351D01*
X155371522Y-94974534D01*
X155434781Y-95169223D01*
X155462512Y-95223647D01*
X155467612Y-95233656D01*
X155470440Y-95239205D01*
X155483336Y-95307874D01*
X155457060Y-95372614D01*
X155399954Y-95412872D01*
X155359955Y-95419500D01*
X144847000Y-95419500D01*
X144779961Y-95399815D01*
X144734206Y-95347011D01*
X144723000Y-95295500D01*
X144722999Y-93602129D01*
X144722998Y-93602123D01*
X144718224Y-93557713D01*
X144716591Y-93542517D01*
X144706841Y-93516377D01*
X144666297Y-93407671D01*
X144666293Y-93407664D01*
X144580047Y-93292455D01*
X144580044Y-93292452D01*
X144464835Y-93206206D01*
X144464828Y-93206202D01*
X144329982Y-93155908D01*
X144329983Y-93155908D01*
X144270383Y-93149501D01*
X144270381Y-93149500D01*
X144270373Y-93149500D01*
X144270364Y-93149500D01*
X142269629Y-93149500D01*
X142269623Y-93149501D01*
X142210016Y-93155908D01*
X142075171Y-93206202D01*
X142075164Y-93206206D01*
X141959955Y-93292452D01*
X141959952Y-93292455D01*
X141873706Y-93407664D01*
X141873702Y-93407671D01*
X141863127Y-93436026D01*
X141821256Y-93491960D01*
X141755791Y-93516377D01*
X141687518Y-93501525D01*
X141674060Y-93493011D01*
X141491279Y-93360213D01*
X141287568Y-93256417D01*
X141070124Y-93185765D01*
X140980000Y-93171490D01*
X140980000Y-94159252D01*
X140942292Y-94137482D01*
X140802409Y-94100000D01*
X140657591Y-94100000D01*
X140517708Y-94137482D01*
X140480000Y-94159252D01*
X140480000Y-93171490D01*
X140479999Y-93171490D01*
X140389875Y-93185765D01*
X140172431Y-93256417D01*
X139968723Y-93360211D01*
X139783757Y-93494597D01*
X139622097Y-93656257D01*
X139560627Y-93740864D01*
X139505297Y-93783529D01*
X139435684Y-93789508D01*
X139373889Y-93756902D01*
X139359991Y-93740864D01*
X139298286Y-93655934D01*
X139136566Y-93494214D01*
X138951538Y-93359783D01*
X138949430Y-93358709D01*
X138747755Y-93255950D01*
X138530248Y-93185278D01*
X138344812Y-93155908D01*
X138304354Y-93149500D01*
X138075646Y-93149500D01*
X138035188Y-93155908D01*
X137849753Y-93185278D01*
X137849750Y-93185278D01*
X137632244Y-93255950D01*
X137428461Y-93359783D01*
X137362550Y-93407671D01*
X137243434Y-93494214D01*
X137243432Y-93494216D01*
X137243431Y-93494216D01*
X137081716Y-93655931D01*
X137081716Y-93655932D01*
X137081714Y-93655934D01*
X137023980Y-93735396D01*
X136947283Y-93840961D01*
X136843450Y-94044744D01*
X136772778Y-94262250D01*
X136772778Y-94262253D01*
X136737000Y-94488146D01*
X136737000Y-94811853D01*
X136772778Y-95037746D01*
X136772778Y-95037749D01*
X136844077Y-95257182D01*
X136846072Y-95327023D01*
X136809992Y-95386856D01*
X136747291Y-95417684D01*
X136726146Y-95419500D01*
X130680098Y-95419500D01*
X130613059Y-95399815D01*
X130592417Y-95383181D01*
X128358736Y-93149500D01*
X126076256Y-90867021D01*
X126042772Y-90805699D01*
X126043368Y-90750378D01*
X126044332Y-90746358D01*
X126044339Y-90746339D01*
X126075500Y-90549597D01*
X126075500Y-90350403D01*
X126044339Y-90153661D01*
X126044338Y-90153657D01*
X126044338Y-90153656D01*
X125982786Y-89964219D01*
X125892352Y-89786733D01*
X125881246Y-89771447D01*
X125775269Y-89625582D01*
X125634418Y-89484731D01*
X125473266Y-89367647D01*
X125321827Y-89290485D01*
X125271031Y-89242510D01*
X125254236Y-89174689D01*
X125276773Y-89108554D01*
X125321827Y-89069515D01*
X125331116Y-89064781D01*
X125473266Y-88992353D01*
X125634418Y-88875269D01*
X125775269Y-88734418D01*
X125892353Y-88573266D01*
X125982785Y-88395783D01*
X126044339Y-88206339D01*
X126075500Y-88009597D01*
X126075500Y-87810403D01*
X126044339Y-87613661D01*
X126044333Y-87613644D01*
X126043366Y-87609614D01*
X126046851Y-87539831D01*
X126076255Y-87492978D01*
X128493588Y-85075646D01*
X129947000Y-85075646D01*
X129947000Y-85304354D01*
X129957649Y-85371588D01*
X129982778Y-85530246D01*
X129982778Y-85530249D01*
X130053450Y-85747755D01*
X130108492Y-85855780D01*
X130157283Y-85951538D01*
X130291714Y-86136566D01*
X130453434Y-86298286D01*
X130638462Y-86432717D01*
X130841327Y-86536082D01*
X130842244Y-86536549D01*
X131059751Y-86607221D01*
X131059752Y-86607221D01*
X131059755Y-86607222D01*
X131285646Y-86643000D01*
X131285647Y-86643000D01*
X131514353Y-86643000D01*
X131514354Y-86643000D01*
X131740245Y-86607222D01*
X131740248Y-86607221D01*
X131740249Y-86607221D01*
X131957755Y-86536549D01*
X131957755Y-86536548D01*
X131957758Y-86536548D01*
X132161538Y-86432717D01*
X132346566Y-86298286D01*
X132508286Y-86136566D01*
X132569991Y-86051635D01*
X132625321Y-86008970D01*
X132694934Y-86002991D01*
X132734290Y-86023756D01*
X132751347Y-86025099D01*
X133350439Y-85426007D01*
X133377271Y-85490785D01*
X133446764Y-85594789D01*
X133535211Y-85683236D01*
X133639215Y-85752729D01*
X133703991Y-85779560D01*
X133104899Y-86378651D01*
X133178725Y-86432288D01*
X133178731Y-86432292D01*
X133382431Y-86536082D01*
X133599875Y-86606734D01*
X133825687Y-86642500D01*
X134054313Y-86642500D01*
X134280124Y-86606734D01*
X134280125Y-86606734D01*
X134497568Y-86536082D01*
X134701276Y-86432288D01*
X134775098Y-86378651D01*
X134176007Y-85779560D01*
X134240785Y-85752729D01*
X134344789Y-85683236D01*
X134433236Y-85594789D01*
X134502729Y-85490785D01*
X134529560Y-85426007D01*
X135128651Y-86025098D01*
X135145503Y-86023772D01*
X135164699Y-86008970D01*
X135234312Y-86002989D01*
X135296107Y-86035594D01*
X135310007Y-86051634D01*
X135310317Y-86052061D01*
X135371714Y-86136566D01*
X135533434Y-86298286D01*
X135718462Y-86432717D01*
X135921327Y-86536082D01*
X135922244Y-86536549D01*
X136139751Y-86607221D01*
X136139752Y-86607221D01*
X136139755Y-86607222D01*
X136365646Y-86643000D01*
X136365647Y-86643000D01*
X136594353Y-86643000D01*
X136594354Y-86643000D01*
X136820245Y-86607222D01*
X136820248Y-86607221D01*
X136820249Y-86607221D01*
X137037755Y-86536549D01*
X137037755Y-86536548D01*
X137037758Y-86536548D01*
X137241538Y-86432717D01*
X137426566Y-86298286D01*
X137588286Y-86136566D01*
X137649683Y-86052059D01*
X137705012Y-86009396D01*
X137774625Y-86003417D01*
X137836420Y-86036023D01*
X137850314Y-86052056D01*
X137911714Y-86136566D01*
X138073434Y-86298286D01*
X138258462Y-86432717D01*
X138461327Y-86536082D01*
X138462244Y-86536549D01*
X138679751Y-86607221D01*
X138679752Y-86607221D01*
X138679755Y-86607222D01*
X138905646Y-86643000D01*
X138905647Y-86643000D01*
X139134353Y-86643000D01*
X139134354Y-86643000D01*
X139360245Y-86607222D01*
X139360248Y-86607221D01*
X139360249Y-86607221D01*
X139577755Y-86536549D01*
X139577755Y-86536548D01*
X139577758Y-86536548D01*
X139781538Y-86432717D01*
X139966566Y-86298286D01*
X140128286Y-86136566D01*
X140189683Y-86052059D01*
X140245012Y-86009396D01*
X140314625Y-86003417D01*
X140376420Y-86036023D01*
X140390314Y-86052056D01*
X140451714Y-86136566D01*
X140613434Y-86298286D01*
X140798462Y-86432717D01*
X141001327Y-86536082D01*
X141002244Y-86536549D01*
X141219751Y-86607221D01*
X141219752Y-86607221D01*
X141219755Y-86607222D01*
X141445646Y-86643000D01*
X141445647Y-86643000D01*
X141674353Y-86643000D01*
X141674354Y-86643000D01*
X141900245Y-86607222D01*
X141900248Y-86607221D01*
X141900249Y-86607221D01*
X142117755Y-86536549D01*
X142117755Y-86536548D01*
X142117758Y-86536548D01*
X142321538Y-86432717D01*
X142506566Y-86298286D01*
X142668286Y-86136566D01*
X142729683Y-86052059D01*
X142785012Y-86009396D01*
X142854625Y-86003417D01*
X142916420Y-86036023D01*
X142930314Y-86052056D01*
X142991714Y-86136566D01*
X143153434Y-86298286D01*
X143338462Y-86432717D01*
X143541327Y-86536082D01*
X143542244Y-86536549D01*
X143759751Y-86607221D01*
X143759752Y-86607221D01*
X143759755Y-86607222D01*
X143985646Y-86643000D01*
X143985647Y-86643000D01*
X144214353Y-86643000D01*
X144214354Y-86643000D01*
X144440245Y-86607222D01*
X144440248Y-86607221D01*
X144440249Y-86607221D01*
X144657755Y-86536549D01*
X144657755Y-86536548D01*
X144657758Y-86536548D01*
X144861538Y-86432717D01*
X145046566Y-86298286D01*
X145208286Y-86136566D01*
X145269683Y-86052059D01*
X145325012Y-86009396D01*
X145394625Y-86003417D01*
X145456420Y-86036023D01*
X145470314Y-86052056D01*
X145531714Y-86136566D01*
X145693434Y-86298286D01*
X145878462Y-86432717D01*
X146081327Y-86536082D01*
X146082244Y-86536549D01*
X146299751Y-86607221D01*
X146299752Y-86607221D01*
X146299755Y-86607222D01*
X146525646Y-86643000D01*
X146525647Y-86643000D01*
X146754353Y-86643000D01*
X146754354Y-86643000D01*
X146980245Y-86607222D01*
X146980248Y-86607221D01*
X146980249Y-86607221D01*
X147197755Y-86536549D01*
X147197755Y-86536548D01*
X147197758Y-86536548D01*
X147401538Y-86432717D01*
X147586566Y-86298286D01*
X147748286Y-86136566D01*
X147809683Y-86052059D01*
X147865012Y-86009396D01*
X147934625Y-86003417D01*
X147996420Y-86036023D01*
X148010314Y-86052056D01*
X148071714Y-86136566D01*
X148233434Y-86298286D01*
X148418462Y-86432717D01*
X148621327Y-86536082D01*
X148622244Y-86536549D01*
X148839751Y-86607221D01*
X148839752Y-86607221D01*
X148839755Y-86607222D01*
X149065646Y-86643000D01*
X149065647Y-86643000D01*
X149294353Y-86643000D01*
X149294354Y-86643000D01*
X149520245Y-86607222D01*
X149520248Y-86607221D01*
X149520249Y-86607221D01*
X149737755Y-86536549D01*
X149737755Y-86536548D01*
X149737758Y-86536548D01*
X149941538Y-86432717D01*
X150126566Y-86298286D01*
X150288286Y-86136566D01*
X150422717Y-85951538D01*
X150526548Y-85747758D01*
X150569619Y-85615198D01*
X150597221Y-85530249D01*
X150597221Y-85530248D01*
X150597222Y-85530245D01*
X150633000Y-85304354D01*
X150633000Y-85075646D01*
X150597222Y-84849755D01*
X150597221Y-84849751D01*
X150597221Y-84849750D01*
X150526549Y-84632244D01*
X150524015Y-84627271D01*
X150422717Y-84428462D01*
X150288286Y-84243434D01*
X150126566Y-84081714D01*
X149941538Y-83947283D01*
X149872982Y-83912352D01*
X149737755Y-83843450D01*
X149520248Y-83772778D01*
X149350826Y-83745944D01*
X149294354Y-83737000D01*
X149065646Y-83737000D01*
X148990349Y-83748926D01*
X148839753Y-83772778D01*
X148839750Y-83772778D01*
X148622244Y-83843450D01*
X148418461Y-83947283D01*
X148312896Y-84023980D01*
X148233434Y-84081714D01*
X148233432Y-84081716D01*
X148233431Y-84081716D01*
X148071715Y-84243432D01*
X148010318Y-84327938D01*
X147954987Y-84370603D01*
X147885374Y-84376582D01*
X147823579Y-84343976D01*
X147809682Y-84327938D01*
X147798773Y-84312923D01*
X147748286Y-84243434D01*
X147586566Y-84081714D01*
X147401538Y-83947283D01*
X147332982Y-83912352D01*
X147197755Y-83843450D01*
X146980248Y-83772778D01*
X146810826Y-83745944D01*
X146754354Y-83737000D01*
X146525646Y-83737000D01*
X146450349Y-83748926D01*
X146299753Y-83772778D01*
X146299750Y-83772778D01*
X146082244Y-83843450D01*
X145878461Y-83947283D01*
X145772896Y-84023980D01*
X145693434Y-84081714D01*
X145693432Y-84081716D01*
X145693431Y-84081716D01*
X145531715Y-84243432D01*
X145470318Y-84327938D01*
X145414987Y-84370603D01*
X145345374Y-84376582D01*
X145283579Y-84343976D01*
X145269682Y-84327938D01*
X145258773Y-84312923D01*
X145208286Y-84243434D01*
X145046566Y-84081714D01*
X144861538Y-83947283D01*
X144792982Y-83912352D01*
X144657755Y-83843450D01*
X144440248Y-83772778D01*
X144270826Y-83745944D01*
X144214354Y-83737000D01*
X143985646Y-83737000D01*
X143910349Y-83748926D01*
X143759753Y-83772778D01*
X143759750Y-83772778D01*
X143542244Y-83843450D01*
X143338461Y-83947283D01*
X143232896Y-84023980D01*
X143153434Y-84081714D01*
X143153432Y-84081716D01*
X143153431Y-84081716D01*
X142991715Y-84243432D01*
X142930318Y-84327938D01*
X142874987Y-84370603D01*
X142805374Y-84376582D01*
X142743579Y-84343976D01*
X142729682Y-84327938D01*
X142718773Y-84312923D01*
X142668286Y-84243434D01*
X142506566Y-84081714D01*
X142321538Y-83947283D01*
X142252982Y-83912352D01*
X142117755Y-83843450D01*
X141900248Y-83772778D01*
X141730826Y-83745944D01*
X141674354Y-83737000D01*
X141445646Y-83737000D01*
X141370349Y-83748926D01*
X141219753Y-83772778D01*
X141219750Y-83772778D01*
X141002244Y-83843450D01*
X140798461Y-83947283D01*
X140692896Y-84023980D01*
X140613434Y-84081714D01*
X140613432Y-84081716D01*
X140613431Y-84081716D01*
X140451715Y-84243432D01*
X140390318Y-84327938D01*
X140334987Y-84370603D01*
X140265374Y-84376582D01*
X140203579Y-84343976D01*
X140189682Y-84327938D01*
X140178773Y-84312923D01*
X140128286Y-84243434D01*
X139966566Y-84081714D01*
X139781538Y-83947283D01*
X139712982Y-83912352D01*
X139577755Y-83843450D01*
X139360248Y-83772778D01*
X139190826Y-83745944D01*
X139134354Y-83737000D01*
X138905646Y-83737000D01*
X138830349Y-83748926D01*
X138679753Y-83772778D01*
X138679750Y-83772778D01*
X138462244Y-83843450D01*
X138258461Y-83947283D01*
X138152896Y-84023980D01*
X138073434Y-84081714D01*
X138073432Y-84081716D01*
X138073431Y-84081716D01*
X137911715Y-84243432D01*
X137850318Y-84327938D01*
X137794987Y-84370603D01*
X137725374Y-84376582D01*
X137663579Y-84343976D01*
X137649682Y-84327938D01*
X137638773Y-84312923D01*
X137588286Y-84243434D01*
X137426566Y-84081714D01*
X137241538Y-83947283D01*
X137172982Y-83912352D01*
X137037755Y-83843450D01*
X136820248Y-83772778D01*
X136650826Y-83745944D01*
X136594354Y-83737000D01*
X136365646Y-83737000D01*
X136290349Y-83748926D01*
X136139753Y-83772778D01*
X136139750Y-83772778D01*
X135922244Y-83843450D01*
X135718461Y-83947283D01*
X135612896Y-84023980D01*
X135533434Y-84081714D01*
X135533432Y-84081716D01*
X135533431Y-84081716D01*
X135371716Y-84243431D01*
X135371709Y-84243440D01*
X135310007Y-84328364D01*
X135254677Y-84371030D01*
X135185063Y-84377008D01*
X135145710Y-84356242D01*
X135128651Y-84354899D01*
X134529560Y-84953990D01*
X134502729Y-84889215D01*
X134433236Y-84785211D01*
X134344789Y-84696764D01*
X134240785Y-84627271D01*
X134176006Y-84600438D01*
X134775099Y-84001347D01*
X134701276Y-83947711D01*
X134497568Y-83843917D01*
X134280124Y-83773265D01*
X134054313Y-83737500D01*
X133825687Y-83737500D01*
X133599875Y-83773265D01*
X133599874Y-83773265D01*
X133382431Y-83843917D01*
X133178719Y-83947713D01*
X133104900Y-84001346D01*
X133104899Y-84001347D01*
X133703991Y-84600439D01*
X133639215Y-84627271D01*
X133535211Y-84696764D01*
X133446764Y-84785211D01*
X133377271Y-84889215D01*
X133350439Y-84953991D01*
X132751347Y-84354899D01*
X132734490Y-84356226D01*
X132715293Y-84371029D01*
X132645679Y-84377007D01*
X132583885Y-84344399D01*
X132569990Y-84328362D01*
X132508288Y-84243437D01*
X132508283Y-84243431D01*
X132346568Y-84081716D01*
X132346566Y-84081714D01*
X132161538Y-83947283D01*
X132092982Y-83912352D01*
X131957755Y-83843450D01*
X131740248Y-83772778D01*
X131570826Y-83745944D01*
X131514354Y-83737000D01*
X131285646Y-83737000D01*
X131210349Y-83748926D01*
X131059753Y-83772778D01*
X131059750Y-83772778D01*
X130842244Y-83843450D01*
X130638461Y-83947283D01*
X130532896Y-84023980D01*
X130453434Y-84081714D01*
X130453432Y-84081716D01*
X130453431Y-84081716D01*
X130291716Y-84243431D01*
X130291716Y-84243432D01*
X130291714Y-84243434D01*
X130233980Y-84322896D01*
X130157283Y-84428461D01*
X130053450Y-84632244D01*
X129982778Y-84849750D01*
X129982778Y-84849753D01*
X129977319Y-84884219D01*
X129947000Y-85075646D01*
X128493588Y-85075646D01*
X132122416Y-81446819D01*
X132183739Y-81413334D01*
X132210097Y-81410500D01*
X145193331Y-81410500D01*
X145193347Y-81410501D01*
X145200943Y-81410501D01*
X145359054Y-81410501D01*
X145359057Y-81410501D01*
X145511785Y-81369577D01*
X145561904Y-81340639D01*
X145648716Y-81290520D01*
X145760520Y-81178716D01*
X145760520Y-81178714D01*
X145770728Y-81168507D01*
X145770729Y-81168504D01*
X153632417Y-73306819D01*
X153693740Y-73273334D01*
X153720098Y-73270500D01*
X155630398Y-73270500D01*
X155697437Y-73290185D01*
X155740883Y-73338205D01*
X155747715Y-73351614D01*
X155868028Y-73517213D01*
X156012786Y-73661971D01*
X156137189Y-73752353D01*
X156178390Y-73782287D01*
X156266517Y-73827190D01*
X156360776Y-73875218D01*
X156360778Y-73875218D01*
X156360781Y-73875220D01*
X156450400Y-73904339D01*
X156555465Y-73938477D01*
X156598613Y-73945311D01*
X156757648Y-73970500D01*
X156757649Y-73970500D01*
X156962351Y-73970500D01*
X156962352Y-73970500D01*
X157164534Y-73938477D01*
X157359219Y-73875220D01*
X157541610Y-73782287D01*
X157638234Y-73712086D01*
X157707213Y-73661971D01*
X157707215Y-73661968D01*
X157707219Y-73661966D01*
X157851966Y-73517219D01*
X157851968Y-73517215D01*
X157851971Y-73517213D01*
X157954358Y-73376287D01*
X157972287Y-73351610D01*
X158065220Y-73169219D01*
X158128477Y-72974534D01*
X158131768Y-72953757D01*
X158148322Y-72849240D01*
X158160500Y-72772351D01*
X158160500Y-72567648D01*
X158128477Y-72365465D01*
X158087675Y-72239890D01*
X158065220Y-72170781D01*
X158065218Y-72170778D01*
X158065218Y-72170776D01*
X158031503Y-72104607D01*
X157972287Y-71988390D01*
X157964556Y-71977749D01*
X157851971Y-71822786D01*
X157707213Y-71678028D01*
X157541614Y-71557715D01*
X157528400Y-71550982D01*
X157448917Y-71510483D01*
X157398123Y-71462511D01*
X157381328Y-71394690D01*
X157403865Y-71328555D01*
X157448917Y-71289516D01*
X157541610Y-71242287D01*
X157582812Y-71212352D01*
X157707213Y-71121971D01*
X157707215Y-71121968D01*
X157707219Y-71121966D01*
X157851966Y-70977219D01*
X157851968Y-70977215D01*
X157851971Y-70977213D01*
X157954358Y-70836287D01*
X157972287Y-70811610D01*
X158065220Y-70629219D01*
X158128477Y-70434534D01*
X158160500Y-70232352D01*
X158160500Y-70027648D01*
X158132396Y-69850208D01*
X158128477Y-69825465D01*
X158087675Y-69699890D01*
X158065220Y-69630781D01*
X158065218Y-69630778D01*
X158065218Y-69630776D01*
X158031503Y-69564607D01*
X157972287Y-69448390D01*
X157935307Y-69397491D01*
X157851971Y-69282786D01*
X157707213Y-69138028D01*
X157541614Y-69017715D01*
X157535006Y-69014348D01*
X157448917Y-68970483D01*
X157398123Y-68922511D01*
X157381328Y-68854690D01*
X157403865Y-68788555D01*
X157448917Y-68749516D01*
X157541610Y-68702287D01*
X157582812Y-68672352D01*
X157707213Y-68581971D01*
X157707215Y-68581968D01*
X157707219Y-68581966D01*
X157851966Y-68437219D01*
X157851968Y-68437215D01*
X157851971Y-68437213D01*
X157954358Y-68296287D01*
X157972287Y-68271610D01*
X158065220Y-68089219D01*
X158128477Y-67894534D01*
X158160500Y-67692352D01*
X158160500Y-67487648D01*
X158128477Y-67285466D01*
X158065220Y-67090781D01*
X158065218Y-67090778D01*
X158065218Y-67090776D01*
X157996819Y-66956537D01*
X157972287Y-66908390D01*
X157946396Y-66872754D01*
X157851971Y-66742786D01*
X157707213Y-66598028D01*
X157541614Y-66477715D01*
X157535006Y-66474348D01*
X157448917Y-66430483D01*
X157398123Y-66382511D01*
X157381328Y-66314690D01*
X157403865Y-66248555D01*
X157448917Y-66209516D01*
X157541610Y-66162287D01*
X157582812Y-66132352D01*
X157707213Y-66041971D01*
X157707215Y-66041968D01*
X157707219Y-66041966D01*
X157851966Y-65897219D01*
X157851968Y-65897215D01*
X157851971Y-65897213D01*
X157904732Y-65824590D01*
X157972287Y-65731610D01*
X158065220Y-65549219D01*
X158128477Y-65354534D01*
X158160500Y-65152352D01*
X158160500Y-64947648D01*
X158128477Y-64745466D01*
X158065220Y-64550781D01*
X158065218Y-64550778D01*
X158065218Y-64550776D01*
X158031503Y-64484607D01*
X157972287Y-64368390D01*
X157964556Y-64357749D01*
X157851971Y-64202786D01*
X157707213Y-64058028D01*
X157541614Y-63937715D01*
X157535006Y-63934348D01*
X157448917Y-63890483D01*
X157398123Y-63842511D01*
X157381328Y-63774690D01*
X157403865Y-63708555D01*
X157448917Y-63669516D01*
X157541610Y-63622287D01*
X157582812Y-63592352D01*
X157707213Y-63501971D01*
X157707215Y-63501968D01*
X157707219Y-63501966D01*
X157851966Y-63357219D01*
X157851968Y-63357215D01*
X157851971Y-63357213D01*
X157904732Y-63284590D01*
X157972287Y-63191610D01*
X158065220Y-63009219D01*
X158128477Y-62814534D01*
X158160500Y-62612352D01*
X158160500Y-62407648D01*
X158138362Y-62267876D01*
X158128477Y-62205465D01*
X158069586Y-62024219D01*
X158065220Y-62010781D01*
X158065218Y-62010778D01*
X158065218Y-62010776D01*
X158031503Y-61944607D01*
X157972287Y-61828390D01*
X157937202Y-61780099D01*
X157851971Y-61662786D01*
X157707213Y-61518028D01*
X157541614Y-61397715D01*
X157535006Y-61394348D01*
X157448917Y-61350483D01*
X157398123Y-61302511D01*
X157381328Y-61234690D01*
X157403865Y-61168555D01*
X157448917Y-61129516D01*
X157541610Y-61082287D01*
X157582812Y-61052352D01*
X157707213Y-60961971D01*
X157707215Y-60961968D01*
X157707219Y-60961966D01*
X157851966Y-60817219D01*
X157851968Y-60817215D01*
X157851971Y-60817213D01*
X157904732Y-60744590D01*
X157972287Y-60651610D01*
X158065220Y-60469219D01*
X158128477Y-60274534D01*
X158160500Y-60072352D01*
X158160500Y-59867648D01*
X158147317Y-59784417D01*
X158128477Y-59665465D01*
X158069586Y-59484219D01*
X158065220Y-59470781D01*
X158065218Y-59470778D01*
X158065218Y-59470776D01*
X158031503Y-59404607D01*
X157972287Y-59288390D01*
X157933057Y-59234394D01*
X157851971Y-59122786D01*
X157707213Y-58978028D01*
X157541614Y-58857715D01*
X157535006Y-58854348D01*
X157448917Y-58810483D01*
X157398123Y-58762511D01*
X157381328Y-58694690D01*
X157403865Y-58628555D01*
X157448917Y-58589516D01*
X157541610Y-58542287D01*
X157582812Y-58512352D01*
X157707213Y-58421971D01*
X157707215Y-58421968D01*
X157707219Y-58421966D01*
X157851966Y-58277219D01*
X157851968Y-58277215D01*
X157851971Y-58277213D01*
X157905090Y-58204100D01*
X157972287Y-58111610D01*
X158065220Y-57929219D01*
X158128477Y-57734534D01*
X158160500Y-57532352D01*
X158160500Y-57327648D01*
X158141535Y-57207912D01*
X158128477Y-57125465D01*
X158069586Y-56944219D01*
X158065220Y-56930781D01*
X158065218Y-56930778D01*
X158065218Y-56930776D01*
X157993530Y-56790082D01*
X157972287Y-56748390D01*
X157964556Y-56737749D01*
X157851971Y-56582786D01*
X157707213Y-56438028D01*
X157541614Y-56317715D01*
X157506636Y-56299893D01*
X157448917Y-56270483D01*
X157398123Y-56222511D01*
X157381328Y-56154690D01*
X157403865Y-56088555D01*
X157448917Y-56049516D01*
X157541610Y-56002287D01*
X157577451Y-55976247D01*
X157707213Y-55881971D01*
X157707215Y-55881968D01*
X157707219Y-55881966D01*
X157851966Y-55737219D01*
X157851968Y-55737215D01*
X157851971Y-55737213D01*
X157958298Y-55590864D01*
X157972287Y-55571610D01*
X158065220Y-55389219D01*
X158128477Y-55194534D01*
X158160500Y-54992352D01*
X158160500Y-54787648D01*
X168259500Y-54787648D01*
X168259500Y-54992351D01*
X168291522Y-55194534D01*
X168354781Y-55389223D01*
X168408421Y-55494496D01*
X168438233Y-55553005D01*
X168447715Y-55571613D01*
X168568028Y-55737213D01*
X168712786Y-55881971D01*
X168867749Y-55994556D01*
X168878390Y-56002287D01*
X168950424Y-56038990D01*
X168971629Y-56049795D01*
X169022425Y-56097770D01*
X169039220Y-56165591D01*
X169016682Y-56231726D01*
X168971629Y-56270765D01*
X168878650Y-56318140D01*
X168713105Y-56438417D01*
X168713104Y-56438417D01*
X168568417Y-56583104D01*
X168568417Y-56583105D01*
X168448140Y-56748650D01*
X168355244Y-56930970D01*
X168292009Y-57125586D01*
X168283391Y-57180000D01*
X169244314Y-57180000D01*
X169239920Y-57184394D01*
X169187259Y-57275606D01*
X169160000Y-57377339D01*
X169160000Y-57482661D01*
X169187259Y-57584394D01*
X169239920Y-57675606D01*
X169244314Y-57680000D01*
X168283391Y-57680000D01*
X168292009Y-57734413D01*
X168355244Y-57929029D01*
X168448140Y-58111349D01*
X168568417Y-58276894D01*
X168568417Y-58276895D01*
X168713104Y-58421582D01*
X168878652Y-58541861D01*
X168971628Y-58589234D01*
X169022425Y-58637208D01*
X169039220Y-58705029D01*
X169016683Y-58771164D01*
X168971630Y-58810203D01*
X168878388Y-58857713D01*
X168712786Y-58978028D01*
X168568028Y-59122786D01*
X168447715Y-59288386D01*
X168354781Y-59470776D01*
X168291522Y-59665465D01*
X168270202Y-59800080D01*
X168259500Y-59867648D01*
X168259500Y-60072352D01*
X168263878Y-60099995D01*
X168291522Y-60274534D01*
X168354781Y-60469223D01*
X168400767Y-60559474D01*
X168438366Y-60633266D01*
X168447715Y-60651613D01*
X168568028Y-60817213D01*
X168712786Y-60961971D01*
X168837189Y-61052353D01*
X168878390Y-61082287D01*
X168969840Y-61128883D01*
X168971080Y-61129515D01*
X169021876Y-61177490D01*
X169038671Y-61245311D01*
X169016134Y-61311446D01*
X168971080Y-61350485D01*
X168878386Y-61397715D01*
X168712786Y-61518028D01*
X168568028Y-61662786D01*
X168447715Y-61828386D01*
X168354781Y-62010776D01*
X168291522Y-62205465D01*
X168259500Y-62407648D01*
X168259500Y-62612351D01*
X168291522Y-62814534D01*
X168354781Y-63009223D01*
X168418691Y-63134653D01*
X168438366Y-63173266D01*
X168447715Y-63191613D01*
X168568028Y-63357213D01*
X168712786Y-63501971D01*
X168837189Y-63592353D01*
X168878390Y-63622287D01*
X168969840Y-63668883D01*
X168971080Y-63669515D01*
X169021876Y-63717490D01*
X169038671Y-63785311D01*
X169016134Y-63851446D01*
X168971080Y-63890485D01*
X168878386Y-63937715D01*
X168712786Y-64058028D01*
X168568028Y-64202786D01*
X168447715Y-64368386D01*
X168354781Y-64550776D01*
X168291522Y-64745465D01*
X168259500Y-64947648D01*
X168259500Y-65152351D01*
X168291522Y-65354534D01*
X168354781Y-65549223D01*
X168418691Y-65674653D01*
X168438366Y-65713266D01*
X168447715Y-65731613D01*
X168568028Y-65897213D01*
X168712786Y-66041971D01*
X168837189Y-66132353D01*
X168878390Y-66162287D01*
X168969840Y-66208883D01*
X168971080Y-66209515D01*
X169021876Y-66257490D01*
X169038671Y-66325311D01*
X169016134Y-66391446D01*
X168971080Y-66430485D01*
X168878386Y-66477715D01*
X168712786Y-66598028D01*
X168568028Y-66742786D01*
X168447715Y-66908386D01*
X168354781Y-67090776D01*
X168291522Y-67285465D01*
X168259500Y-67487648D01*
X168259500Y-67692351D01*
X168291522Y-67894534D01*
X168354781Y-68089223D01*
X168418691Y-68214653D01*
X168438366Y-68253266D01*
X168447715Y-68271613D01*
X168568028Y-68437213D01*
X168712786Y-68581971D01*
X168837189Y-68672353D01*
X168878390Y-68702287D01*
X168969840Y-68748883D01*
X168971080Y-68749515D01*
X169021876Y-68797490D01*
X169038671Y-68865311D01*
X169016134Y-68931446D01*
X168971080Y-68970485D01*
X168878386Y-69017715D01*
X168712786Y-69138028D01*
X168568028Y-69282786D01*
X168447715Y-69448386D01*
X168354781Y-69630776D01*
X168291522Y-69825465D01*
X168259500Y-70027648D01*
X168259500Y-70232351D01*
X168291522Y-70434534D01*
X168354781Y-70629223D01*
X168406385Y-70730500D01*
X168438366Y-70793266D01*
X168447715Y-70811613D01*
X168568028Y-70977213D01*
X168568034Y-70977219D01*
X168712781Y-71121966D01*
X168712788Y-71121971D01*
X168749674Y-71148770D01*
X168792340Y-71204100D01*
X168798319Y-71273714D01*
X168765714Y-71335509D01*
X168704875Y-71369866D01*
X168690046Y-71372378D01*
X168652626Y-71376401D01*
X168652620Y-71376403D01*
X168517913Y-71426645D01*
X168517906Y-71426649D01*
X168402812Y-71512809D01*
X168402809Y-71512812D01*
X168316649Y-71627906D01*
X168316645Y-71627913D01*
X168266403Y-71762620D01*
X168266401Y-71762627D01*
X168260000Y-71822155D01*
X168260000Y-72420000D01*
X169244314Y-72420000D01*
X169239920Y-72424394D01*
X169187259Y-72515606D01*
X169160000Y-72617339D01*
X169160000Y-72722661D01*
X169187259Y-72824394D01*
X169239920Y-72915606D01*
X169244314Y-72920000D01*
X168260000Y-72920000D01*
X168260000Y-73517844D01*
X168266401Y-73577372D01*
X168266403Y-73577379D01*
X168316645Y-73712086D01*
X168316649Y-73712093D01*
X168402809Y-73827187D01*
X168402812Y-73827190D01*
X168517906Y-73913350D01*
X168517913Y-73913354D01*
X168652620Y-73963596D01*
X168652627Y-73963598D01*
X168712155Y-73969999D01*
X168712172Y-73970000D01*
X169310000Y-73970000D01*
X169310000Y-72985686D01*
X169314394Y-72990080D01*
X169405606Y-73042741D01*
X169507339Y-73070000D01*
X169612661Y-73070000D01*
X169714394Y-73042741D01*
X169805606Y-72990080D01*
X169810000Y-72985686D01*
X169810000Y-73970000D01*
X170407828Y-73970000D01*
X170407844Y-73969999D01*
X170467372Y-73963598D01*
X170467379Y-73963596D01*
X170602086Y-73913354D01*
X170602093Y-73913350D01*
X170717187Y-73827190D01*
X170717190Y-73827187D01*
X170803350Y-73712093D01*
X170803354Y-73712086D01*
X170853596Y-73577379D01*
X170853598Y-73577372D01*
X170859999Y-73517844D01*
X170860000Y-73517827D01*
X170860000Y-72920000D01*
X169875686Y-72920000D01*
X169880080Y-72915606D01*
X169932741Y-72824394D01*
X169960000Y-72722661D01*
X169960000Y-72617339D01*
X169932741Y-72515606D01*
X169880080Y-72424394D01*
X169875686Y-72420000D01*
X170860000Y-72420000D01*
X170860000Y-71822172D01*
X170859999Y-71822155D01*
X170853598Y-71762627D01*
X170853596Y-71762620D01*
X170803354Y-71627913D01*
X170803350Y-71627906D01*
X170717190Y-71512812D01*
X170717187Y-71512809D01*
X170602093Y-71426649D01*
X170602086Y-71426645D01*
X170467379Y-71376403D01*
X170467373Y-71376401D01*
X170429953Y-71372378D01*
X170365402Y-71345639D01*
X170325555Y-71288246D01*
X170323062Y-71218421D01*
X170358716Y-71158333D01*
X170370326Y-71148770D01*
X170407215Y-71121969D01*
X170407215Y-71121968D01*
X170407219Y-71121966D01*
X170551966Y-70977219D01*
X170551968Y-70977215D01*
X170551971Y-70977213D01*
X170654358Y-70836287D01*
X170672287Y-70811610D01*
X170765220Y-70629219D01*
X170828477Y-70434534D01*
X170860500Y-70232352D01*
X170860500Y-70094782D01*
X170880185Y-70027743D01*
X170932989Y-69981988D01*
X171002147Y-69972044D01*
X171065703Y-70001069D01*
X171072181Y-70007101D01*
X174969735Y-73904655D01*
X174969764Y-73904686D01*
X175112214Y-74047136D01*
X175112218Y-74047139D01*
X175276079Y-74156628D01*
X175276092Y-74156635D01*
X175404833Y-74209961D01*
X175458159Y-74232049D01*
X175458164Y-74232051D01*
X175489746Y-74238333D01*
X175651459Y-74270500D01*
X175651460Y-74270500D01*
X175708258Y-74270500D01*
X175717284Y-74271835D01*
X175741058Y-74282808D01*
X175766179Y-74290185D01*
X175772271Y-74297215D01*
X175780721Y-74301116D01*
X175794790Y-74323204D01*
X175811934Y-74342989D01*
X175813258Y-74352197D01*
X175818258Y-74360047D01*
X175818151Y-74386233D01*
X175821878Y-74412147D01*
X175818012Y-74420610D01*
X175817975Y-74429916D01*
X175803729Y-74451885D01*
X175792853Y-74475703D01*
X175784548Y-74481468D01*
X175779963Y-74488541D01*
X175763928Y-74495785D01*
X175742473Y-74510682D01*
X175727671Y-74516202D01*
X175727664Y-74516206D01*
X175612455Y-74602452D01*
X175612452Y-74602455D01*
X175526206Y-74717664D01*
X175526202Y-74717671D01*
X175475908Y-74852517D01*
X175469501Y-74912116D01*
X175469501Y-74912123D01*
X175469500Y-74912135D01*
X175469500Y-76707870D01*
X175469501Y-76707876D01*
X175475908Y-76767483D01*
X175526202Y-76902328D01*
X175526206Y-76902335D01*
X175612452Y-77017544D01*
X175612455Y-77017547D01*
X175727664Y-77103793D01*
X175727671Y-77103797D01*
X175862517Y-77154091D01*
X175862516Y-77154091D01*
X175869444Y-77154835D01*
X175922127Y-77160500D01*
X177717872Y-77160499D01*
X177777483Y-77154091D01*
X177912331Y-77103796D01*
X178027546Y-77017546D01*
X178113796Y-76902331D01*
X178164091Y-76767483D01*
X178170500Y-76707873D01*
X178170499Y-74912128D01*
X178164091Y-74852517D01*
X178116238Y-74724217D01*
X178113797Y-74717671D01*
X178113793Y-74717664D01*
X178027547Y-74602455D01*
X178027544Y-74602452D01*
X177912335Y-74516206D01*
X177912328Y-74516202D01*
X177780917Y-74467189D01*
X177724983Y-74425318D01*
X177700566Y-74359853D01*
X177715418Y-74291580D01*
X177736563Y-74263332D01*
X177850104Y-74149792D01*
X177975051Y-73977816D01*
X178071557Y-73788412D01*
X178137246Y-73586243D01*
X178170500Y-73376287D01*
X178170500Y-73163713D01*
X178137246Y-72953757D01*
X178071557Y-72751588D01*
X177975051Y-72562184D01*
X177975049Y-72562181D01*
X177975048Y-72562179D01*
X177850109Y-72390213D01*
X177699786Y-72239890D01*
X177527820Y-72114951D01*
X177527115Y-72114591D01*
X177519054Y-72110485D01*
X177468259Y-72062512D01*
X177451463Y-71994692D01*
X177473999Y-71928556D01*
X177519054Y-71889515D01*
X177527816Y-71885051D01*
X177613524Y-71822781D01*
X177699786Y-71760109D01*
X177699788Y-71760106D01*
X177699792Y-71760104D01*
X177850104Y-71609792D01*
X177850106Y-71609788D01*
X177850109Y-71609786D01*
X177975048Y-71437820D01*
X177975047Y-71437820D01*
X177975051Y-71437816D01*
X178071557Y-71248412D01*
X178137246Y-71046243D01*
X178170500Y-70836287D01*
X178170500Y-70623713D01*
X178137246Y-70413757D01*
X178071557Y-70211588D01*
X177975051Y-70022184D01*
X177975049Y-70022181D01*
X177975048Y-70022179D01*
X177850109Y-69850213D01*
X177699786Y-69699890D01*
X177527820Y-69574951D01*
X177527115Y-69574591D01*
X177519054Y-69570485D01*
X177468259Y-69522512D01*
X177451463Y-69454692D01*
X177473999Y-69388556D01*
X177519054Y-69349515D01*
X177527816Y-69345051D01*
X177613524Y-69282781D01*
X177699786Y-69220109D01*
X177699788Y-69220106D01*
X177699792Y-69220104D01*
X177850104Y-69069792D01*
X177850106Y-69069788D01*
X177850109Y-69069786D01*
X177975048Y-68897820D01*
X177975047Y-68897820D01*
X177975051Y-68897816D01*
X178071557Y-68708412D01*
X178137246Y-68506243D01*
X178170500Y-68296287D01*
X178170500Y-68083713D01*
X178137246Y-67873757D01*
X178071557Y-67671588D01*
X177975051Y-67482184D01*
X177975049Y-67482181D01*
X177975048Y-67482179D01*
X177850109Y-67310213D01*
X177699786Y-67159890D01*
X177527820Y-67034951D01*
X177338414Y-66938444D01*
X177338413Y-66938443D01*
X177338412Y-66938443D01*
X177136243Y-66872754D01*
X177136241Y-66872753D01*
X177136240Y-66872753D01*
X176974957Y-66847208D01*
X176926287Y-66839500D01*
X176713713Y-66839500D01*
X176665042Y-66847208D01*
X176503760Y-66872753D01*
X176503757Y-66872754D01*
X176394094Y-66908386D01*
X176301585Y-66938444D01*
X176112179Y-67034951D01*
X175940213Y-67159890D01*
X175789890Y-67310213D01*
X175664951Y-67482179D01*
X175568444Y-67671585D01*
X175568443Y-67671587D01*
X175568443Y-67671588D01*
X175561697Y-67692351D01*
X175502753Y-67873760D01*
X175469500Y-68083713D01*
X175469500Y-68296286D01*
X175491821Y-68437219D01*
X175502754Y-68506243D01*
X175556726Y-68672352D01*
X175568444Y-68708414D01*
X175664951Y-68897820D01*
X175789890Y-69069786D01*
X175940213Y-69220109D01*
X176112182Y-69345050D01*
X176120946Y-69349516D01*
X176171742Y-69397491D01*
X176188536Y-69465312D01*
X176165998Y-69531447D01*
X176120946Y-69570484D01*
X176112182Y-69574949D01*
X175940213Y-69699890D01*
X175789890Y-69850213D01*
X175664951Y-70022179D01*
X175568444Y-70211585D01*
X175568443Y-70211587D01*
X175568443Y-70211588D01*
X175561697Y-70232351D01*
X175502753Y-70413760D01*
X175469500Y-70623713D01*
X175469500Y-70836286D01*
X175491821Y-70977219D01*
X175502754Y-71046243D01*
X175558698Y-71218421D01*
X175568444Y-71248414D01*
X175654634Y-71417572D01*
X175667530Y-71486241D01*
X175641254Y-71550982D01*
X175584147Y-71591239D01*
X175514342Y-71594231D01*
X175456468Y-71561548D01*
X170851479Y-66956559D01*
X170851459Y-66956537D01*
X170707785Y-66812863D01*
X170707781Y-66812860D01*
X170543920Y-66703371D01*
X170543914Y-66703368D01*
X170513162Y-66690630D01*
X170472935Y-66663750D01*
X170407213Y-66598028D01*
X170241614Y-66477715D01*
X170235006Y-66474348D01*
X170148917Y-66430483D01*
X170098123Y-66382511D01*
X170081328Y-66314690D01*
X170103865Y-66248555D01*
X170148917Y-66209516D01*
X170241610Y-66162287D01*
X170282812Y-66132352D01*
X170407213Y-66041971D01*
X170407215Y-66041968D01*
X170407219Y-66041966D01*
X170551966Y-65897219D01*
X170551968Y-65897215D01*
X170551971Y-65897213D01*
X170604732Y-65824590D01*
X170672287Y-65731610D01*
X170765220Y-65549219D01*
X170828477Y-65354534D01*
X170860500Y-65152352D01*
X170860500Y-64947648D01*
X170828477Y-64745466D01*
X170765220Y-64550781D01*
X170765218Y-64550778D01*
X170765218Y-64550776D01*
X170731503Y-64484607D01*
X170672287Y-64368390D01*
X170664556Y-64357749D01*
X170551971Y-64202786D01*
X170407213Y-64058028D01*
X170241614Y-63937715D01*
X170235006Y-63934348D01*
X170148917Y-63890483D01*
X170098123Y-63842511D01*
X170081328Y-63774690D01*
X170103865Y-63708555D01*
X170148917Y-63669516D01*
X170241610Y-63622287D01*
X170282812Y-63592352D01*
X170407213Y-63501971D01*
X170407215Y-63501968D01*
X170407219Y-63501966D01*
X170551966Y-63357219D01*
X170551968Y-63357215D01*
X170551971Y-63357213D01*
X170604732Y-63284590D01*
X170672287Y-63191610D01*
X170765220Y-63009219D01*
X170828477Y-62814534D01*
X170860500Y-62612352D01*
X170860500Y-62407648D01*
X170838362Y-62267876D01*
X170828477Y-62205465D01*
X170769586Y-62024219D01*
X170765220Y-62010781D01*
X170765218Y-62010778D01*
X170765218Y-62010776D01*
X170731503Y-61944607D01*
X170672287Y-61828390D01*
X170637202Y-61780099D01*
X170551971Y-61662786D01*
X170407213Y-61518028D01*
X170241614Y-61397715D01*
X170235006Y-61394348D01*
X170148917Y-61350483D01*
X170098123Y-61302511D01*
X170081328Y-61234690D01*
X170103865Y-61168555D01*
X170148917Y-61129516D01*
X170241610Y-61082287D01*
X170282812Y-61052352D01*
X170407213Y-60961971D01*
X170407215Y-60961968D01*
X170407219Y-60961966D01*
X170551966Y-60817219D01*
X170551968Y-60817215D01*
X170551971Y-60817213D01*
X170604732Y-60744590D01*
X170672287Y-60651610D01*
X170765220Y-60469219D01*
X170828477Y-60274534D01*
X170860500Y-60072352D01*
X170860500Y-59867648D01*
X170847317Y-59784417D01*
X170828477Y-59665465D01*
X170769586Y-59484219D01*
X170765220Y-59470781D01*
X170765218Y-59470778D01*
X170765218Y-59470776D01*
X170743988Y-59429111D01*
X170743085Y-59427339D01*
X170672287Y-59288390D01*
X170672285Y-59288387D01*
X170672284Y-59288385D01*
X170551971Y-59122786D01*
X170407213Y-58978028D01*
X170241611Y-58857713D01*
X170148369Y-58810203D01*
X170097574Y-58762229D01*
X170080779Y-58694407D01*
X170103317Y-58628273D01*
X170148371Y-58589234D01*
X170241347Y-58541861D01*
X170406894Y-58421582D01*
X170406895Y-58421582D01*
X170551582Y-58276895D01*
X170551582Y-58276894D01*
X170671859Y-58111349D01*
X170764755Y-57929029D01*
X170827990Y-57734413D01*
X170836609Y-57680000D01*
X169875686Y-57680000D01*
X169880080Y-57675606D01*
X169932741Y-57584394D01*
X169960000Y-57482661D01*
X169960000Y-57377339D01*
X169932741Y-57275606D01*
X169880080Y-57184394D01*
X169875686Y-57180000D01*
X170836609Y-57180000D01*
X170827990Y-57125586D01*
X170764755Y-56930970D01*
X170671859Y-56748650D01*
X170551582Y-56583105D01*
X170551582Y-56583104D01*
X170406895Y-56438417D01*
X170326468Y-56379983D01*
X175909500Y-56379983D01*
X175909500Y-57580001D01*
X175909501Y-57580018D01*
X175920000Y-57682796D01*
X175920001Y-57682799D01*
X175965717Y-57820758D01*
X175975186Y-57849334D01*
X176067288Y-57998656D01*
X176191344Y-58122712D01*
X176340666Y-58214814D01*
X176402440Y-58235284D01*
X176459884Y-58275055D01*
X176486707Y-58339571D01*
X176487053Y-58362719D01*
X176484077Y-58400524D01*
X177163554Y-59080000D01*
X177157339Y-59080000D01*
X177055606Y-59107259D01*
X176964394Y-59159920D01*
X176889920Y-59234394D01*
X176837259Y-59325606D01*
X176810000Y-59427339D01*
X176810000Y-59433553D01*
X176130524Y-58754077D01*
X176130523Y-58754077D01*
X176098143Y-58798644D01*
X176005244Y-58980968D01*
X175942009Y-59175582D01*
X175910000Y-59377682D01*
X175910000Y-59582317D01*
X175942009Y-59784417D01*
X176005244Y-59979031D01*
X176098141Y-60161350D01*
X176098147Y-60161359D01*
X176130523Y-60205921D01*
X176130524Y-60205922D01*
X176810000Y-59526446D01*
X176810000Y-59532661D01*
X176837259Y-59634394D01*
X176889920Y-59725606D01*
X176964394Y-59800080D01*
X177055606Y-59852741D01*
X177157339Y-59880000D01*
X177163553Y-59880000D01*
X176484076Y-60559474D01*
X176528650Y-60591859D01*
X176710968Y-60684755D01*
X176905582Y-60747990D01*
X177107683Y-60780000D01*
X177312317Y-60780000D01*
X177514417Y-60747990D01*
X177709031Y-60684755D01*
X177891349Y-60591859D01*
X177935921Y-60559474D01*
X177256447Y-59880000D01*
X177262661Y-59880000D01*
X177364394Y-59852741D01*
X177455606Y-59800080D01*
X177530080Y-59725606D01*
X177582741Y-59634394D01*
X177610000Y-59532661D01*
X177610000Y-59526447D01*
X178289474Y-60205921D01*
X178321859Y-60161349D01*
X178414755Y-59979031D01*
X178477990Y-59784417D01*
X178510000Y-59582317D01*
X178510000Y-59377682D01*
X178477990Y-59175582D01*
X178414755Y-58980968D01*
X178321859Y-58798650D01*
X178289474Y-58754077D01*
X178289474Y-58754076D01*
X177610000Y-59433551D01*
X177610000Y-59427339D01*
X177582741Y-59325606D01*
X177530080Y-59234394D01*
X177455606Y-59159920D01*
X177364394Y-59107259D01*
X177262661Y-59080000D01*
X177256446Y-59080000D01*
X177935921Y-58400525D01*
X177932946Y-58362719D01*
X177947310Y-58294341D01*
X177996361Y-58244584D01*
X178017555Y-58235285D01*
X178079334Y-58214814D01*
X178228656Y-58122712D01*
X178352712Y-57998656D01*
X178444814Y-57849334D01*
X178499999Y-57682797D01*
X178510500Y-57580009D01*
X178510499Y-56379992D01*
X178499999Y-56277203D01*
X178444814Y-56110666D01*
X178352712Y-55961344D01*
X178228656Y-55837288D01*
X178107377Y-55762483D01*
X178079336Y-55745187D01*
X178079331Y-55745185D01*
X178049156Y-55735186D01*
X177912797Y-55690001D01*
X177912795Y-55690000D01*
X177810010Y-55679500D01*
X176609998Y-55679500D01*
X176609981Y-55679501D01*
X176507203Y-55690000D01*
X176507200Y-55690001D01*
X176340668Y-55745185D01*
X176340663Y-55745187D01*
X176191342Y-55837289D01*
X176067289Y-55961342D01*
X175975187Y-56110663D01*
X175975185Y-56110668D01*
X175957078Y-56165311D01*
X175920001Y-56277203D01*
X175920001Y-56277204D01*
X175920000Y-56277204D01*
X175909500Y-56379983D01*
X170326468Y-56379983D01*
X170241349Y-56318140D01*
X170148370Y-56270765D01*
X170097574Y-56222790D01*
X170080779Y-56154969D01*
X170103316Y-56088835D01*
X170148370Y-56049795D01*
X170149471Y-56049234D01*
X170241610Y-56002287D01*
X170277451Y-55976247D01*
X170407213Y-55881971D01*
X170407215Y-55881968D01*
X170407219Y-55881966D01*
X170551966Y-55737219D01*
X170551968Y-55737215D01*
X170551971Y-55737213D01*
X170658298Y-55590864D01*
X170672287Y-55571610D01*
X170765220Y-55389219D01*
X170828477Y-55194534D01*
X170860500Y-54992352D01*
X170860500Y-54787648D01*
X170841121Y-54665293D01*
X170828477Y-54585465D01*
X170794826Y-54481898D01*
X170765220Y-54390781D01*
X170765218Y-54390778D01*
X170765218Y-54390776D01*
X170725164Y-54312167D01*
X170672287Y-54208390D01*
X170658297Y-54189134D01*
X170551971Y-54042786D01*
X170407213Y-53898028D01*
X170241613Y-53777715D01*
X170241612Y-53777714D01*
X170241610Y-53777713D01*
X170184653Y-53748691D01*
X170059223Y-53684781D01*
X169864534Y-53621522D01*
X169689995Y-53593878D01*
X169662352Y-53589500D01*
X169457648Y-53589500D01*
X169433329Y-53593351D01*
X169255465Y-53621522D01*
X169060776Y-53684781D01*
X168878386Y-53777715D01*
X168712786Y-53898028D01*
X168568028Y-54042786D01*
X168447715Y-54208386D01*
X168354781Y-54390776D01*
X168291522Y-54585465D01*
X168259500Y-54787648D01*
X158160500Y-54787648D01*
X158141121Y-54665293D01*
X158128477Y-54585465D01*
X158094826Y-54481898D01*
X158065220Y-54390781D01*
X158065218Y-54390778D01*
X158065218Y-54390776D01*
X158025164Y-54312167D01*
X157972287Y-54208390D01*
X157958297Y-54189134D01*
X157851971Y-54042786D01*
X157707213Y-53898028D01*
X157541613Y-53777715D01*
X157541612Y-53777714D01*
X157541610Y-53777713D01*
X157484653Y-53748691D01*
X157359223Y-53684781D01*
X157164534Y-53621522D01*
X156989995Y-53593878D01*
X156962352Y-53589500D01*
X156757648Y-53589500D01*
X156733329Y-53593351D01*
X156555465Y-53621522D01*
X156360776Y-53684781D01*
X156178386Y-53777715D01*
X156012786Y-53898028D01*
X155868028Y-54042786D01*
X155747715Y-54208386D01*
X155654781Y-54390776D01*
X155591522Y-54585465D01*
X155559500Y-54787648D01*
X155559500Y-54992351D01*
X155591522Y-55194534D01*
X155654781Y-55389223D01*
X155708421Y-55494496D01*
X155738233Y-55553005D01*
X155747715Y-55571613D01*
X155868028Y-55737213D01*
X156012786Y-55881971D01*
X156167749Y-55994556D01*
X156178390Y-56002287D01*
X156269840Y-56048883D01*
X156271080Y-56049515D01*
X156321876Y-56097490D01*
X156338671Y-56165311D01*
X156316134Y-56231446D01*
X156271080Y-56270485D01*
X156178386Y-56317715D01*
X156012786Y-56438028D01*
X155868028Y-56582786D01*
X155747715Y-56748386D01*
X155654781Y-56930776D01*
X155591522Y-57125465D01*
X155559500Y-57327648D01*
X155559500Y-57532351D01*
X155591522Y-57734534D01*
X155654781Y-57929223D01*
X155718691Y-58054653D01*
X155738366Y-58093266D01*
X155747715Y-58111613D01*
X155868028Y-58277213D01*
X156012786Y-58421971D01*
X156137189Y-58512353D01*
X156178390Y-58542287D01*
X156269840Y-58588883D01*
X156271080Y-58589515D01*
X156321876Y-58637490D01*
X156338671Y-58705311D01*
X156316134Y-58771446D01*
X156271080Y-58810485D01*
X156178386Y-58857715D01*
X156012786Y-58978028D01*
X155868028Y-59122786D01*
X155747715Y-59288386D01*
X155654781Y-59470776D01*
X155591522Y-59665465D01*
X155570202Y-59800080D01*
X155559500Y-59867648D01*
X155559500Y-60072352D01*
X155563878Y-60099995D01*
X155591522Y-60274534D01*
X155654781Y-60469223D01*
X155700767Y-60559474D01*
X155738366Y-60633266D01*
X155747715Y-60651613D01*
X155868028Y-60817213D01*
X156012786Y-60961971D01*
X156137189Y-61052353D01*
X156178390Y-61082287D01*
X156269840Y-61128883D01*
X156271080Y-61129515D01*
X156321876Y-61177490D01*
X156338671Y-61245311D01*
X156316134Y-61311446D01*
X156271080Y-61350485D01*
X156178386Y-61397715D01*
X156012786Y-61518028D01*
X155868028Y-61662786D01*
X155747715Y-61828386D01*
X155654781Y-62010776D01*
X155591522Y-62205465D01*
X155559500Y-62407648D01*
X155559500Y-62612351D01*
X155591522Y-62814534D01*
X155654781Y-63009223D01*
X155718691Y-63134653D01*
X155738366Y-63173266D01*
X155747715Y-63191613D01*
X155868028Y-63357213D01*
X156012786Y-63501971D01*
X156137189Y-63592353D01*
X156178390Y-63622287D01*
X156269840Y-63668883D01*
X156271080Y-63669515D01*
X156321876Y-63717490D01*
X156338671Y-63785311D01*
X156316134Y-63851446D01*
X156271080Y-63890485D01*
X156178386Y-63937715D01*
X156012786Y-64058028D01*
X155868028Y-64202786D01*
X155747715Y-64368386D01*
X155654781Y-64550776D01*
X155591522Y-64745465D01*
X155559500Y-64947648D01*
X155559500Y-65152351D01*
X155591522Y-65354534D01*
X155654781Y-65549223D01*
X155718691Y-65674653D01*
X155738366Y-65713266D01*
X155747715Y-65731613D01*
X155868028Y-65897213D01*
X156012786Y-66041971D01*
X156137189Y-66132353D01*
X156178390Y-66162287D01*
X156269840Y-66208883D01*
X156271080Y-66209515D01*
X156321876Y-66257490D01*
X156338671Y-66325311D01*
X156316134Y-66391446D01*
X156271080Y-66430485D01*
X156178386Y-66477715D01*
X156012786Y-66598028D01*
X155868028Y-66742786D01*
X155747715Y-66908386D01*
X155654781Y-67090776D01*
X155591522Y-67285465D01*
X155559500Y-67487648D01*
X155559500Y-67692351D01*
X155591522Y-67894534D01*
X155654781Y-68089223D01*
X155718691Y-68214653D01*
X155738366Y-68253266D01*
X155747715Y-68271613D01*
X155868028Y-68437213D01*
X156012786Y-68581971D01*
X156137189Y-68672353D01*
X156178390Y-68702287D01*
X156269840Y-68748883D01*
X156271080Y-68749515D01*
X156321876Y-68797490D01*
X156338671Y-68865311D01*
X156316134Y-68931446D01*
X156271080Y-68970485D01*
X156178386Y-69017715D01*
X156012786Y-69138028D01*
X155868028Y-69282786D01*
X155747715Y-69448385D01*
X155740883Y-69461795D01*
X155692909Y-69512591D01*
X155630398Y-69529500D01*
X144096670Y-69529500D01*
X144096654Y-69529499D01*
X144089058Y-69529499D01*
X143930943Y-69529499D01*
X143854579Y-69549961D01*
X143778214Y-69570423D01*
X143778209Y-69570426D01*
X143641290Y-69649475D01*
X143641282Y-69649481D01*
X134687584Y-78603181D01*
X134626261Y-78636666D01*
X134599903Y-78639500D01*
X131019057Y-78639500D01*
X130860943Y-78639500D01*
X130708215Y-78680423D01*
X130708214Y-78680423D01*
X130708212Y-78680424D01*
X130708209Y-78680425D01*
X130658096Y-78709359D01*
X130658095Y-78709360D01*
X130614689Y-78734420D01*
X130571285Y-78759479D01*
X130571282Y-78759481D01*
X130459478Y-78871286D01*
X126284066Y-83046697D01*
X126222743Y-83080182D01*
X126153051Y-83075198D01*
X126097118Y-83033326D01*
X126072701Y-82967862D01*
X126073912Y-82939618D01*
X126075500Y-82929597D01*
X126075500Y-82730403D01*
X126044339Y-82533661D01*
X126044338Y-82533657D01*
X126044338Y-82533656D01*
X125982786Y-82344219D01*
X125892352Y-82166733D01*
X125775269Y-82005582D01*
X125634418Y-81864731D01*
X125473266Y-81747647D01*
X125321827Y-81670485D01*
X125271031Y-81622510D01*
X125254236Y-81554689D01*
X125276773Y-81488554D01*
X125321827Y-81449515D01*
X125331116Y-81444781D01*
X125473266Y-81372353D01*
X125634418Y-81255269D01*
X125775269Y-81114418D01*
X125892353Y-80953266D01*
X125982785Y-80775783D01*
X126006914Y-80701522D01*
X126044338Y-80586343D01*
X126044338Y-80586342D01*
X126044339Y-80586339D01*
X126075500Y-80389597D01*
X126075500Y-80190403D01*
X126044339Y-79993661D01*
X126044338Y-79993657D01*
X126044338Y-79993656D01*
X125982786Y-79804219D01*
X125892352Y-79626733D01*
X125879260Y-79608713D01*
X125775269Y-79465582D01*
X125634418Y-79324731D01*
X125473266Y-79207647D01*
X125321827Y-79130485D01*
X125271031Y-79082510D01*
X125254236Y-79014689D01*
X125276773Y-78948554D01*
X125321827Y-78909515D01*
X125331116Y-78904781D01*
X125473266Y-78832353D01*
X125634418Y-78715269D01*
X125775269Y-78574418D01*
X125892353Y-78413266D01*
X125982785Y-78235783D01*
X126044339Y-78046339D01*
X126075500Y-77849597D01*
X126075500Y-77650403D01*
X126044339Y-77453661D01*
X126044338Y-77453657D01*
X126044338Y-77453656D01*
X125982786Y-77264219D01*
X125982785Y-77264217D01*
X125892353Y-77086734D01*
X125775269Y-76925582D01*
X125634418Y-76784731D01*
X125473266Y-76667647D01*
X125321827Y-76590485D01*
X125271031Y-76542510D01*
X125254236Y-76474689D01*
X125276773Y-76408554D01*
X125321827Y-76369515D01*
X125331116Y-76364781D01*
X125473266Y-76292353D01*
X125634418Y-76175269D01*
X125775269Y-76034418D01*
X125892353Y-75873266D01*
X125982785Y-75695783D01*
X126044339Y-75506339D01*
X126075500Y-75309597D01*
X126075500Y-75110403D01*
X126044339Y-74913661D01*
X126044338Y-74913657D01*
X126044338Y-74913656D01*
X125982786Y-74724219D01*
X125946367Y-74652743D01*
X125892353Y-74546734D01*
X125775269Y-74385582D01*
X125634418Y-74244731D01*
X125473266Y-74127647D01*
X125321827Y-74050485D01*
X125271031Y-74002510D01*
X125254236Y-73934689D01*
X125276773Y-73868554D01*
X125321827Y-73829515D01*
X125395868Y-73791789D01*
X125473266Y-73752353D01*
X125634418Y-73635269D01*
X125775269Y-73494418D01*
X125892353Y-73333266D01*
X125904864Y-73308711D01*
X130379500Y-73308711D01*
X130379500Y-73551288D01*
X130411161Y-73791785D01*
X130473947Y-74026104D01*
X130566773Y-74250205D01*
X130566776Y-74250212D01*
X130688064Y-74460289D01*
X130688066Y-74460292D01*
X130688067Y-74460293D01*
X130835733Y-74652736D01*
X130835739Y-74652743D01*
X131007256Y-74824260D01*
X131007262Y-74824265D01*
X131199711Y-74971936D01*
X131409788Y-75093224D01*
X131633900Y-75186054D01*
X131868211Y-75248838D01*
X132048586Y-75272584D01*
X132108711Y-75280500D01*
X132108712Y-75280500D01*
X132351289Y-75280500D01*
X132399388Y-75274167D01*
X132591789Y-75248838D01*
X132826100Y-75186054D01*
X133050212Y-75093224D01*
X133260289Y-74971936D01*
X133452738Y-74824265D01*
X133624265Y-74652738D01*
X133771936Y-74460289D01*
X133893224Y-74250212D01*
X133986054Y-74026100D01*
X134048838Y-73791789D01*
X134080500Y-73551288D01*
X134080500Y-73308712D01*
X134075842Y-73273334D01*
X134060366Y-73155780D01*
X134048838Y-73068211D01*
X133986054Y-72833900D01*
X133982116Y-72824394D01*
X133939977Y-72722661D01*
X133893224Y-72609788D01*
X133771936Y-72399711D01*
X133696415Y-72301290D01*
X133624266Y-72207263D01*
X133624260Y-72207256D01*
X133452743Y-72035739D01*
X133452736Y-72035733D01*
X133260293Y-71888067D01*
X133260292Y-71888066D01*
X133260289Y-71888064D01*
X133050212Y-71766776D01*
X133050205Y-71766773D01*
X132826104Y-71673947D01*
X132591785Y-71611161D01*
X132351289Y-71579500D01*
X132351288Y-71579500D01*
X132108712Y-71579500D01*
X132108711Y-71579500D01*
X131868214Y-71611161D01*
X131633895Y-71673947D01*
X131409794Y-71766773D01*
X131409785Y-71766777D01*
X131199706Y-71888067D01*
X131007263Y-72035733D01*
X131007256Y-72035739D01*
X130835739Y-72207256D01*
X130835733Y-72207263D01*
X130688067Y-72399706D01*
X130566777Y-72609785D01*
X130566773Y-72609794D01*
X130473947Y-72833895D01*
X130411161Y-73068214D01*
X130379500Y-73308711D01*
X125904864Y-73308711D01*
X125982785Y-73155783D01*
X126036625Y-72990080D01*
X126044338Y-72966343D01*
X126044338Y-72966342D01*
X126044339Y-72966339D01*
X126075500Y-72769597D01*
X126075500Y-72570403D01*
X126044339Y-72373661D01*
X126044338Y-72373657D01*
X126044338Y-72373656D01*
X125982786Y-72184219D01*
X125945217Y-72110486D01*
X125892353Y-72006734D01*
X125775269Y-71845582D01*
X125634418Y-71704731D01*
X125473266Y-71587647D01*
X125422044Y-71561548D01*
X125321277Y-71510204D01*
X125270481Y-71462229D01*
X125253686Y-71394408D01*
X125276224Y-71328273D01*
X125321277Y-71289234D01*
X125473005Y-71211924D01*
X125510863Y-71184418D01*
X125510863Y-71184417D01*
X124947574Y-70621128D01*
X125006853Y-70605245D01*
X125123147Y-70538102D01*
X125218102Y-70443147D01*
X125285245Y-70326853D01*
X125301128Y-70267574D01*
X125864417Y-70830863D01*
X125864418Y-70830863D01*
X125891924Y-70793005D01*
X125982320Y-70615594D01*
X126043852Y-70426222D01*
X126075000Y-70229563D01*
X126075000Y-70030436D01*
X126043852Y-69833777D01*
X125982320Y-69644405D01*
X125891924Y-69466994D01*
X125864417Y-69429135D01*
X125864417Y-69429134D01*
X125301128Y-69992424D01*
X125285245Y-69933147D01*
X125218102Y-69816853D01*
X125123147Y-69721898D01*
X125006853Y-69654755D01*
X124947574Y-69638871D01*
X125510864Y-69075581D01*
X125510863Y-69075580D01*
X125473008Y-69048077D01*
X125321277Y-68970765D01*
X125270481Y-68922790D01*
X125253686Y-68854969D01*
X125276224Y-68788834D01*
X125321277Y-68749795D01*
X125321827Y-68749515D01*
X125473266Y-68672353D01*
X125634418Y-68555269D01*
X125775269Y-68414418D01*
X125892353Y-68253266D01*
X125982785Y-68075783D01*
X125982786Y-68075780D01*
X126044338Y-67886343D01*
X126044338Y-67886342D01*
X126044339Y-67886339D01*
X126075500Y-67689597D01*
X126075500Y-67490403D01*
X126044339Y-67293661D01*
X126044338Y-67293657D01*
X126044338Y-67293656D01*
X125982786Y-67104219D01*
X125947491Y-67034949D01*
X125892353Y-66926734D01*
X125775269Y-66765582D01*
X125634418Y-66624731D01*
X125473266Y-66507647D01*
X125321827Y-66430485D01*
X125271031Y-66382510D01*
X125254236Y-66314689D01*
X125276773Y-66248554D01*
X125321827Y-66209515D01*
X125331116Y-66204781D01*
X125473266Y-66132353D01*
X125634418Y-66015269D01*
X125775269Y-65874418D01*
X125892353Y-65713266D01*
X125982785Y-65535783D01*
X125982786Y-65535780D01*
X126044338Y-65346343D01*
X126044338Y-65346342D01*
X126044339Y-65346339D01*
X126075500Y-65149597D01*
X126075500Y-64950403D01*
X126044339Y-64753661D01*
X126044338Y-64753657D01*
X126044338Y-64753656D01*
X125982786Y-64564219D01*
X125892352Y-64386733D01*
X125879022Y-64368386D01*
X125775269Y-64225582D01*
X125634418Y-64084731D01*
X125473266Y-63967647D01*
X125321827Y-63890485D01*
X125271031Y-63842510D01*
X125254236Y-63774689D01*
X125276773Y-63708554D01*
X125321827Y-63669515D01*
X125331116Y-63664781D01*
X125473266Y-63592353D01*
X125634418Y-63475269D01*
X125775269Y-63334418D01*
X125892353Y-63173266D01*
X125982785Y-62995783D01*
X125982786Y-62995780D01*
X126044338Y-62806343D01*
X126044338Y-62806342D01*
X126044339Y-62806339D01*
X126075500Y-62609597D01*
X126075500Y-62410403D01*
X126044339Y-62213661D01*
X126044338Y-62213657D01*
X126044338Y-62213656D01*
X125982786Y-62024219D01*
X125975936Y-62010776D01*
X125892353Y-61846734D01*
X125775269Y-61685582D01*
X125634418Y-61544731D01*
X125473266Y-61427647D01*
X125321827Y-61350485D01*
X125271031Y-61302510D01*
X125254236Y-61234689D01*
X125276773Y-61168554D01*
X125321827Y-61129515D01*
X125331116Y-61124781D01*
X125473266Y-61052353D01*
X125634418Y-60935269D01*
X125775269Y-60794418D01*
X125892353Y-60633266D01*
X125969348Y-60482155D01*
X134550000Y-60482155D01*
X134550000Y-61130000D01*
X135466988Y-61130000D01*
X135434075Y-61187007D01*
X135400000Y-61314174D01*
X135400000Y-61445826D01*
X135434075Y-61572993D01*
X135466988Y-61630000D01*
X134550000Y-61630000D01*
X134550000Y-62277844D01*
X134556401Y-62337372D01*
X134556403Y-62337379D01*
X134606645Y-62472086D01*
X134606649Y-62472093D01*
X134692809Y-62587187D01*
X134692812Y-62587190D01*
X134807906Y-62673350D01*
X134807913Y-62673354D01*
X134942620Y-62723596D01*
X134942627Y-62723598D01*
X135002155Y-62729999D01*
X135002172Y-62730000D01*
X135650000Y-62730000D01*
X135650000Y-61813012D01*
X135707007Y-61845925D01*
X135834174Y-61880000D01*
X135965826Y-61880000D01*
X136092993Y-61845925D01*
X136150000Y-61813012D01*
X136150000Y-62730000D01*
X136797828Y-62730000D01*
X136797844Y-62729999D01*
X136857372Y-62723598D01*
X136857379Y-62723596D01*
X136992086Y-62673354D01*
X136992093Y-62673350D01*
X137107187Y-62587190D01*
X137107190Y-62587187D01*
X137193350Y-62472093D01*
X137193354Y-62472086D01*
X137243596Y-62337379D01*
X137243598Y-62337372D01*
X137249999Y-62277844D01*
X137250000Y-62277824D01*
X137250000Y-61630000D01*
X136333012Y-61630000D01*
X136365925Y-61572993D01*
X136400000Y-61445826D01*
X136400000Y-61314174D01*
X136365925Y-61187007D01*
X136333012Y-61130000D01*
X137250000Y-61130000D01*
X137250000Y-60482164D01*
X137249997Y-60482135D01*
X138199500Y-60482135D01*
X138199500Y-62277870D01*
X138199501Y-62277876D01*
X138205908Y-62337483D01*
X138256202Y-62472328D01*
X138256206Y-62472335D01*
X138342452Y-62587544D01*
X138342455Y-62587547D01*
X138457664Y-62673793D01*
X138457671Y-62673797D01*
X138592517Y-62724091D01*
X138592516Y-62724091D01*
X138599444Y-62724835D01*
X138652127Y-62730500D01*
X140447872Y-62730499D01*
X140507483Y-62724091D01*
X140642331Y-62673796D01*
X140757546Y-62587546D01*
X140843796Y-62472331D01*
X140894091Y-62337483D01*
X140900500Y-62277873D01*
X140900499Y-60482135D01*
X141879500Y-60482135D01*
X141879500Y-62277870D01*
X141879501Y-62277876D01*
X141885908Y-62337483D01*
X141936202Y-62472328D01*
X141936206Y-62472335D01*
X142022452Y-62587544D01*
X142022455Y-62587547D01*
X142137664Y-62673793D01*
X142137671Y-62673797D01*
X142272517Y-62724091D01*
X142272516Y-62724091D01*
X142279444Y-62724835D01*
X142332127Y-62730500D01*
X144127872Y-62730499D01*
X144187483Y-62724091D01*
X144322331Y-62673796D01*
X144437546Y-62587546D01*
X144523796Y-62472331D01*
X144574091Y-62337483D01*
X144580500Y-62277873D01*
X144580499Y-60482128D01*
X144579424Y-60472135D01*
X145559500Y-60472135D01*
X145559500Y-62267870D01*
X145559501Y-62267876D01*
X145565908Y-62327483D01*
X145616202Y-62462328D01*
X145616206Y-62462335D01*
X145702452Y-62577544D01*
X145702455Y-62577547D01*
X145817664Y-62663793D01*
X145817671Y-62663797D01*
X145952517Y-62714091D01*
X145952516Y-62714091D01*
X145959444Y-62714835D01*
X146012127Y-62720500D01*
X147807872Y-62720499D01*
X147867483Y-62714091D01*
X148002331Y-62663796D01*
X148117546Y-62577546D01*
X148203796Y-62462331D01*
X148254091Y-62327483D01*
X148260500Y-62267873D01*
X148260499Y-60472128D01*
X148254091Y-60412517D01*
X148203796Y-60277669D01*
X148203795Y-60277668D01*
X148203793Y-60277664D01*
X148117547Y-60162455D01*
X148117544Y-60162452D01*
X148002335Y-60076206D01*
X148002328Y-60076202D01*
X147867482Y-60025908D01*
X147867483Y-60025908D01*
X147807883Y-60019501D01*
X147807881Y-60019500D01*
X147807873Y-60019500D01*
X147807864Y-60019500D01*
X146012129Y-60019500D01*
X146012123Y-60019501D01*
X145952516Y-60025908D01*
X145817671Y-60076202D01*
X145817664Y-60076206D01*
X145702455Y-60162452D01*
X145702452Y-60162455D01*
X145616206Y-60277664D01*
X145616202Y-60277671D01*
X145565908Y-60412517D01*
X145559812Y-60469223D01*
X145559501Y-60472123D01*
X145559500Y-60472135D01*
X144579424Y-60472135D01*
X144579423Y-60472123D01*
X144577667Y-60455783D01*
X144574091Y-60422517D01*
X144523887Y-60287913D01*
X144523797Y-60287671D01*
X144523793Y-60287664D01*
X144437547Y-60172455D01*
X144437544Y-60172452D01*
X144322335Y-60086206D01*
X144322328Y-60086202D01*
X144187482Y-60035908D01*
X144187483Y-60035908D01*
X144127883Y-60029501D01*
X144127881Y-60029500D01*
X144127873Y-60029500D01*
X144127864Y-60029500D01*
X142332129Y-60029500D01*
X142332123Y-60029501D01*
X142272516Y-60035908D01*
X142137671Y-60086202D01*
X142137664Y-60086206D01*
X142022455Y-60172452D01*
X142022452Y-60172455D01*
X141936206Y-60287664D01*
X141936202Y-60287671D01*
X141885908Y-60422517D01*
X141879501Y-60482116D01*
X141879500Y-60482135D01*
X140900499Y-60482135D01*
X140900499Y-60482128D01*
X140894091Y-60422517D01*
X140890361Y-60412517D01*
X140843797Y-60287671D01*
X140843793Y-60287664D01*
X140757547Y-60172455D01*
X140757544Y-60172452D01*
X140642335Y-60086206D01*
X140642328Y-60086202D01*
X140507482Y-60035908D01*
X140507483Y-60035908D01*
X140447883Y-60029501D01*
X140447881Y-60029500D01*
X140447873Y-60029500D01*
X140447864Y-60029500D01*
X138652129Y-60029500D01*
X138652123Y-60029501D01*
X138592516Y-60035908D01*
X138457671Y-60086202D01*
X138457664Y-60086206D01*
X138342455Y-60172452D01*
X138342452Y-60172455D01*
X138256206Y-60287664D01*
X138256202Y-60287671D01*
X138205908Y-60422517D01*
X138199501Y-60482116D01*
X138199500Y-60482135D01*
X137249997Y-60482135D01*
X137243598Y-60422627D01*
X137243596Y-60422620D01*
X137193354Y-60287913D01*
X137193350Y-60287906D01*
X137107190Y-60172812D01*
X137107187Y-60172809D01*
X136992093Y-60086649D01*
X136992086Y-60086645D01*
X136857379Y-60036403D01*
X136857372Y-60036401D01*
X136797844Y-60030000D01*
X136150000Y-60030000D01*
X136150000Y-60946988D01*
X136092993Y-60914075D01*
X135965826Y-60880000D01*
X135834174Y-60880000D01*
X135707007Y-60914075D01*
X135650000Y-60946988D01*
X135650000Y-60030000D01*
X135002155Y-60030000D01*
X134942627Y-60036401D01*
X134942620Y-60036403D01*
X134807913Y-60086645D01*
X134807906Y-60086649D01*
X134692812Y-60172809D01*
X134692809Y-60172812D01*
X134606649Y-60287906D01*
X134606645Y-60287913D01*
X134556403Y-60422620D01*
X134556401Y-60422627D01*
X134550000Y-60482155D01*
X125969348Y-60482155D01*
X125982785Y-60455783D01*
X125982787Y-60455777D01*
X125987742Y-60440531D01*
X126044338Y-60266343D01*
X126044338Y-60266342D01*
X126044339Y-60266339D01*
X126075500Y-60069597D01*
X126075500Y-59870403D01*
X126044339Y-59673661D01*
X126044338Y-59673657D01*
X126044338Y-59673656D01*
X125982786Y-59484219D01*
X125953804Y-59427339D01*
X125892353Y-59306734D01*
X125775269Y-59145582D01*
X125634418Y-59004731D01*
X125473266Y-58887647D01*
X125321827Y-58810485D01*
X125271031Y-58762510D01*
X125254236Y-58694689D01*
X125276773Y-58628554D01*
X125321827Y-58589515D01*
X125331116Y-58584781D01*
X125473266Y-58512353D01*
X125634418Y-58395269D01*
X125775269Y-58254418D01*
X125892353Y-58093266D01*
X125982785Y-57915783D01*
X126013657Y-57820770D01*
X126044338Y-57726343D01*
X126044338Y-57726342D01*
X126044339Y-57726339D01*
X126075500Y-57529597D01*
X126075500Y-57330403D01*
X126044339Y-57133661D01*
X126044338Y-57133657D01*
X126044338Y-57133656D01*
X125982786Y-56944219D01*
X125904249Y-56790082D01*
X125892353Y-56766734D01*
X125775269Y-56605582D01*
X125634418Y-56464731D01*
X125473266Y-56347647D01*
X125427812Y-56324487D01*
X125321277Y-56270204D01*
X125312691Y-56262095D01*
X125301697Y-56257795D01*
X125287759Y-56238547D01*
X125270481Y-56222229D01*
X125267642Y-56210767D01*
X125260718Y-56201205D01*
X125259398Y-56177476D01*
X125253686Y-56154408D01*
X125257494Y-56143232D01*
X125256839Y-56131443D01*
X125268558Y-56110766D01*
X125276224Y-56088273D01*
X125286340Y-56079393D01*
X125291292Y-56070658D01*
X125318189Y-56051439D01*
X125319878Y-56049958D01*
X125485221Y-55963048D01*
X125510863Y-55944418D01*
X125510863Y-55944417D01*
X124947574Y-55381128D01*
X125006853Y-55365245D01*
X125123147Y-55298102D01*
X125218102Y-55203147D01*
X125285245Y-55086853D01*
X125301128Y-55027574D01*
X125864417Y-55590863D01*
X125864418Y-55590863D01*
X125891924Y-55553005D01*
X125982320Y-55375594D01*
X126043852Y-55186222D01*
X126075000Y-54989563D01*
X126075000Y-54790436D01*
X126057865Y-54682249D01*
X126055177Y-54665280D01*
X136280000Y-54665280D01*
X136280000Y-55620000D01*
X137352769Y-55620000D01*
X137330000Y-55763753D01*
X137330000Y-55976247D01*
X137352769Y-56120000D01*
X136280000Y-56120000D01*
X136280000Y-57074719D01*
X136290482Y-57207906D01*
X136290483Y-57207912D01*
X136345898Y-57427829D01*
X136345899Y-57427832D01*
X136439695Y-57634330D01*
X136439698Y-57634336D01*
X136568851Y-57820758D01*
X136568861Y-57820770D01*
X136729229Y-57981138D01*
X136729241Y-57981148D01*
X136915663Y-58110301D01*
X136915669Y-58110304D01*
X137122167Y-58204100D01*
X137122170Y-58204101D01*
X137342087Y-58259516D01*
X137342093Y-58259517D01*
X137475280Y-58269999D01*
X137475294Y-58270000D01*
X138430000Y-58270000D01*
X138430000Y-57197231D01*
X138573753Y-57220000D01*
X138786247Y-57220000D01*
X138930000Y-57197231D01*
X138930000Y-58270000D01*
X139884706Y-58270000D01*
X139884719Y-58269999D01*
X140017906Y-58259517D01*
X140017912Y-58259516D01*
X140237829Y-58204101D01*
X140237832Y-58204100D01*
X140444330Y-58110304D01*
X140444336Y-58110301D01*
X140630758Y-57981148D01*
X140630770Y-57981138D01*
X140791138Y-57820770D01*
X140791148Y-57820758D01*
X140920301Y-57634336D01*
X140920304Y-57634330D01*
X141014100Y-57427832D01*
X141014101Y-57427829D01*
X141069516Y-57207912D01*
X141069517Y-57207906D01*
X141079999Y-57074719D01*
X141080000Y-57074706D01*
X141080000Y-56366932D01*
X141099685Y-56299893D01*
X141152489Y-56254138D01*
X141221647Y-56244194D01*
X141285203Y-56273219D01*
X141322977Y-56331997D01*
X141324890Y-56339336D01*
X141326787Y-56347647D01*
X141369683Y-56535590D01*
X141369687Y-56535602D01*
X141458734Y-56790082D01*
X141575714Y-57032994D01*
X141575716Y-57032997D01*
X141719162Y-57261289D01*
X141887266Y-57472085D01*
X142077915Y-57662734D01*
X142288711Y-57830838D01*
X142517003Y-57974284D01*
X142759921Y-58091267D01*
X142951049Y-58158145D01*
X143014397Y-58180312D01*
X143014405Y-58180315D01*
X143014408Y-58180315D01*
X143014409Y-58180316D01*
X143277268Y-58240312D01*
X143545187Y-58270499D01*
X143545188Y-58270500D01*
X143545191Y-58270500D01*
X143814812Y-58270500D01*
X143814812Y-58270499D01*
X144082732Y-58240312D01*
X144345591Y-58180316D01*
X144600079Y-58091267D01*
X144842997Y-57974284D01*
X145071289Y-57830838D01*
X145282085Y-57662734D01*
X145472734Y-57472085D01*
X145640838Y-57261289D01*
X145784284Y-57032997D01*
X145901267Y-56790079D01*
X145990316Y-56535591D01*
X146050312Y-56272732D01*
X146080500Y-56004809D01*
X146080500Y-55735191D01*
X146050312Y-55467268D01*
X145990316Y-55204409D01*
X145989874Y-55203147D01*
X145916114Y-54992352D01*
X145901267Y-54949921D01*
X145784284Y-54707003D01*
X145640838Y-54478711D01*
X145472734Y-54267915D01*
X145282085Y-54077266D01*
X145071289Y-53909162D01*
X144842997Y-53765716D01*
X144842994Y-53765714D01*
X144600082Y-53648734D01*
X144345602Y-53559687D01*
X144345594Y-53559684D01*
X144148446Y-53514687D01*
X144082732Y-53499688D01*
X144082728Y-53499687D01*
X144082719Y-53499686D01*
X143814813Y-53469500D01*
X143814809Y-53469500D01*
X143545191Y-53469500D01*
X143545186Y-53469500D01*
X143277280Y-53499686D01*
X143277268Y-53499688D01*
X143014405Y-53559684D01*
X143014397Y-53559687D01*
X142759917Y-53648734D01*
X142517005Y-53765714D01*
X142288712Y-53909161D01*
X142077915Y-54077265D01*
X141887265Y-54267915D01*
X141719161Y-54478712D01*
X141575714Y-54707005D01*
X141458734Y-54949917D01*
X141369687Y-55204397D01*
X141369684Y-55204405D01*
X141324891Y-55400660D01*
X141290782Y-55461638D01*
X141229121Y-55494496D01*
X141159484Y-55488801D01*
X141103980Y-55446361D01*
X141080232Y-55380651D01*
X141080000Y-55373067D01*
X141080000Y-54665293D01*
X141079999Y-54665280D01*
X141069517Y-54532093D01*
X141069516Y-54532087D01*
X141014101Y-54312170D01*
X141014100Y-54312167D01*
X140920304Y-54105669D01*
X140920301Y-54105663D01*
X140791148Y-53919241D01*
X140791138Y-53919229D01*
X140630770Y-53758861D01*
X140630758Y-53758851D01*
X140444336Y-53629698D01*
X140444330Y-53629695D01*
X140237832Y-53535899D01*
X140237829Y-53535898D01*
X140017912Y-53480483D01*
X140017906Y-53480482D01*
X139884719Y-53470000D01*
X138930000Y-53470000D01*
X138930000Y-54542768D01*
X138786247Y-54520000D01*
X138573753Y-54520000D01*
X138430000Y-54542768D01*
X138430000Y-53470000D01*
X137475280Y-53470000D01*
X137342093Y-53480482D01*
X137342087Y-53480483D01*
X137122170Y-53535898D01*
X137122167Y-53535899D01*
X136915669Y-53629695D01*
X136915663Y-53629698D01*
X136729241Y-53758851D01*
X136729229Y-53758861D01*
X136568861Y-53919229D01*
X136568851Y-53919241D01*
X136439698Y-54105663D01*
X136439695Y-54105669D01*
X136345899Y-54312167D01*
X136345898Y-54312170D01*
X136290483Y-54532087D01*
X136290482Y-54532093D01*
X136280000Y-54665280D01*
X126055177Y-54665280D01*
X126043852Y-54593777D01*
X125982320Y-54404405D01*
X125891924Y-54226994D01*
X125864417Y-54189135D01*
X125864417Y-54189134D01*
X125301128Y-54752424D01*
X125285245Y-54693147D01*
X125218102Y-54576853D01*
X125123147Y-54481898D01*
X125006853Y-54414755D01*
X124947574Y-54398871D01*
X125510864Y-53835581D01*
X125510863Y-53835580D01*
X125473008Y-53808077D01*
X125295594Y-53717679D01*
X125106222Y-53656147D01*
X124909563Y-53625000D01*
X124710437Y-53625000D01*
X124513777Y-53656147D01*
X124324405Y-53717679D01*
X124146990Y-53808077D01*
X124109135Y-53835580D01*
X124109135Y-53835581D01*
X124672425Y-54398871D01*
X124613147Y-54414755D01*
X124496853Y-54481898D01*
X124401898Y-54576853D01*
X124334755Y-54693147D01*
X124318871Y-54752425D01*
X123755581Y-54189135D01*
X123755580Y-54189135D01*
X123728077Y-54226990D01*
X123637679Y-54404405D01*
X123576147Y-54593777D01*
X123545000Y-54790436D01*
X123545000Y-54989563D01*
X123576147Y-55186222D01*
X123637679Y-55375594D01*
X123728077Y-55553008D01*
X123755580Y-55590863D01*
X123755581Y-55590864D01*
X124318871Y-55027574D01*
X124334755Y-55086853D01*
X124401898Y-55203147D01*
X124496853Y-55298102D01*
X124613147Y-55365245D01*
X124672425Y-55381128D01*
X124109134Y-55944417D01*
X124146994Y-55971924D01*
X124298722Y-56049234D01*
X124349518Y-56097209D01*
X124366313Y-56165030D01*
X124343776Y-56231165D01*
X124298723Y-56270203D01*
X124146735Y-56347645D01*
X124033997Y-56429555D01*
X123985582Y-56464731D01*
X123985580Y-56464733D01*
X123985579Y-56464733D01*
X123844733Y-56605579D01*
X123844733Y-56605580D01*
X123844731Y-56605582D01*
X123794447Y-56674790D01*
X123727647Y-56766733D01*
X123637213Y-56944219D01*
X123575661Y-57133656D01*
X123575661Y-57133659D01*
X123567251Y-57186758D01*
X123544500Y-57330403D01*
X123544500Y-57529597D01*
X123552483Y-57580001D01*
X123575661Y-57726340D01*
X123575661Y-57726343D01*
X123637213Y-57915780D01*
X123679441Y-57998656D01*
X123727647Y-58093266D01*
X123844731Y-58254418D01*
X123985582Y-58395269D01*
X124146734Y-58512353D01*
X124204647Y-58541861D01*
X124298172Y-58589515D01*
X124348968Y-58637490D01*
X124365763Y-58705311D01*
X124343225Y-58771446D01*
X124298172Y-58810485D01*
X124146733Y-58887647D01*
X124054790Y-58954447D01*
X123985582Y-59004731D01*
X123985580Y-59004733D01*
X123985579Y-59004733D01*
X123844733Y-59145579D01*
X123844733Y-59145580D01*
X123844731Y-59145582D01*
X123834314Y-59159920D01*
X123727647Y-59306733D01*
X123637213Y-59484219D01*
X123575661Y-59673656D01*
X123575661Y-59673659D01*
X123558119Y-59784417D01*
X123544500Y-59870403D01*
X123544500Y-60069597D01*
X123545547Y-60076206D01*
X123575661Y-60266340D01*
X123575661Y-60266343D01*
X123637213Y-60455780D01*
X123690048Y-60559474D01*
X123727647Y-60633266D01*
X123844731Y-60794418D01*
X123985582Y-60935269D01*
X124146734Y-61052353D01*
X124205477Y-61082284D01*
X124298172Y-61129515D01*
X124348968Y-61177490D01*
X124365763Y-61245311D01*
X124343225Y-61311446D01*
X124298172Y-61350485D01*
X124146733Y-61427647D01*
X124054790Y-61494447D01*
X123985582Y-61544731D01*
X123985580Y-61544733D01*
X123985579Y-61544733D01*
X123844733Y-61685579D01*
X123844733Y-61685580D01*
X123844731Y-61685582D01*
X123843696Y-61687007D01*
X123727647Y-61846733D01*
X123637213Y-62024219D01*
X123575661Y-62213656D01*
X123575661Y-62213659D01*
X123556049Y-62337483D01*
X123544500Y-62410403D01*
X123544500Y-62609597D01*
X123554598Y-62673350D01*
X123575661Y-62806340D01*
X123575661Y-62806343D01*
X123637213Y-62995780D01*
X123637215Y-62995783D01*
X123727647Y-63173266D01*
X123844731Y-63334418D01*
X123985582Y-63475269D01*
X124146734Y-63592353D01*
X124205477Y-63622284D01*
X124298172Y-63669515D01*
X124348968Y-63717490D01*
X124365763Y-63785311D01*
X124343225Y-63851446D01*
X124298172Y-63890485D01*
X124146733Y-63967647D01*
X124054790Y-64034447D01*
X123985582Y-64084731D01*
X123985580Y-64084733D01*
X123985579Y-64084733D01*
X123844733Y-64225579D01*
X123844733Y-64225580D01*
X123844731Y-64225582D01*
X123794447Y-64294790D01*
X123727647Y-64386733D01*
X123637213Y-64564219D01*
X123575661Y-64753656D01*
X123575661Y-64753659D01*
X123575661Y-64753661D01*
X123544500Y-64950403D01*
X123544500Y-65149597D01*
X123560080Y-65247968D01*
X123575661Y-65346340D01*
X123575661Y-65346343D01*
X123637213Y-65535780D01*
X123637215Y-65535783D01*
X123727647Y-65713266D01*
X123844731Y-65874418D01*
X123985582Y-66015269D01*
X124146734Y-66132353D01*
X124205477Y-66162284D01*
X124298172Y-66209515D01*
X124348968Y-66257490D01*
X124365763Y-66325311D01*
X124343225Y-66391446D01*
X124298172Y-66430485D01*
X124146733Y-66507647D01*
X124054790Y-66574447D01*
X123985582Y-66624731D01*
X123985580Y-66624733D01*
X123985579Y-66624733D01*
X123844733Y-66765579D01*
X123844733Y-66765580D01*
X123844731Y-66765582D01*
X123810381Y-66812861D01*
X123727647Y-66926733D01*
X123637213Y-67104219D01*
X123575661Y-67293656D01*
X123575661Y-67293659D01*
X123575661Y-67293661D01*
X123544500Y-67490403D01*
X123544500Y-67689597D01*
X123560080Y-67787968D01*
X123575661Y-67886340D01*
X123575661Y-67886343D01*
X123637213Y-68075780D01*
X123644061Y-68089219D01*
X123727647Y-68253266D01*
X123844731Y-68414418D01*
X123985582Y-68555269D01*
X124146734Y-68672353D01*
X124205477Y-68702284D01*
X124298722Y-68749795D01*
X124349518Y-68797770D01*
X124366313Y-68865591D01*
X124343776Y-68931726D01*
X124298723Y-68970764D01*
X124146993Y-69048075D01*
X124109135Y-69075580D01*
X124109135Y-69075581D01*
X124672425Y-69638871D01*
X124613147Y-69654755D01*
X124496853Y-69721898D01*
X124401898Y-69816853D01*
X124334755Y-69933147D01*
X124318871Y-69992425D01*
X123755581Y-69429135D01*
X123755580Y-69429135D01*
X123728077Y-69466990D01*
X123637679Y-69644405D01*
X123576147Y-69833777D01*
X123545000Y-70030436D01*
X123545000Y-70229563D01*
X123576147Y-70426222D01*
X123637679Y-70615594D01*
X123728077Y-70793008D01*
X123755580Y-70830863D01*
X123755581Y-70830864D01*
X124318871Y-70267574D01*
X124334755Y-70326853D01*
X124401898Y-70443147D01*
X124496853Y-70538102D01*
X124613147Y-70605245D01*
X124672425Y-70621128D01*
X124109134Y-71184417D01*
X124146994Y-71211924D01*
X124298722Y-71289234D01*
X124349518Y-71337209D01*
X124366313Y-71405030D01*
X124343776Y-71471165D01*
X124298723Y-71510203D01*
X124146735Y-71587645D01*
X124033997Y-71669555D01*
X123985582Y-71704731D01*
X123985580Y-71704733D01*
X123985579Y-71704733D01*
X123844733Y-71845579D01*
X123844733Y-71845580D01*
X123844731Y-71845582D01*
X123794447Y-71914790D01*
X123727647Y-72006733D01*
X123637213Y-72184219D01*
X123575661Y-72373656D01*
X123575661Y-72373659D01*
X123565436Y-72438216D01*
X123544500Y-72570403D01*
X123544500Y-72769597D01*
X123553179Y-72824394D01*
X123575661Y-72966340D01*
X123575661Y-72966343D01*
X123637213Y-73155780D01*
X123644061Y-73169219D01*
X123727647Y-73333266D01*
X123844731Y-73494418D01*
X123985582Y-73635269D01*
X124146734Y-73752353D01*
X124205477Y-73782284D01*
X124298172Y-73829515D01*
X124348968Y-73877490D01*
X124365763Y-73945311D01*
X124343225Y-74011446D01*
X124298172Y-74050485D01*
X124146733Y-74127647D01*
X124054790Y-74194447D01*
X123985582Y-74244731D01*
X123985580Y-74244733D01*
X123985579Y-74244733D01*
X123844733Y-74385579D01*
X123844733Y-74385580D01*
X123844731Y-74385582D01*
X123796559Y-74451885D01*
X123727647Y-74546733D01*
X123637213Y-74724219D01*
X123575661Y-74913656D01*
X123575661Y-74913659D01*
X123544500Y-75110403D01*
X123544500Y-75309596D01*
X123575661Y-75506340D01*
X123575661Y-75506343D01*
X123637213Y-75695780D01*
X123637215Y-75695783D01*
X123727647Y-75873266D01*
X123844731Y-76034418D01*
X123985582Y-76175269D01*
X124146734Y-76292353D01*
X124216453Y-76327877D01*
X124298172Y-76369515D01*
X124348968Y-76417490D01*
X124365763Y-76485311D01*
X124343225Y-76551446D01*
X124298172Y-76590485D01*
X124146733Y-76667647D01*
X124091354Y-76707883D01*
X123985582Y-76784731D01*
X123985580Y-76784733D01*
X123985579Y-76784733D01*
X123844733Y-76925579D01*
X123844733Y-76925580D01*
X123844731Y-76925582D01*
X123794447Y-76994790D01*
X123727647Y-77086733D01*
X123637213Y-77264219D01*
X123575661Y-77453656D01*
X123575661Y-77453659D01*
X123544500Y-77650403D01*
X123544500Y-77849596D01*
X123575661Y-78046340D01*
X123575661Y-78046343D01*
X123637213Y-78235780D01*
X123637215Y-78235783D01*
X123727647Y-78413266D01*
X123844731Y-78574418D01*
X123985582Y-78715269D01*
X124146734Y-78832353D01*
X124216453Y-78867877D01*
X124298172Y-78909515D01*
X124348968Y-78957490D01*
X124365763Y-79025311D01*
X124343225Y-79091446D01*
X124298172Y-79130485D01*
X124146733Y-79207647D01*
X124054790Y-79274447D01*
X123985582Y-79324731D01*
X123985580Y-79324733D01*
X123985579Y-79324733D01*
X123844733Y-79465579D01*
X123844733Y-79465580D01*
X123844731Y-79465582D01*
X123794447Y-79534790D01*
X123727647Y-79626733D01*
X123637213Y-79804219D01*
X123575661Y-79993656D01*
X123575661Y-79993659D01*
X123575661Y-79993661D01*
X123544500Y-80190403D01*
X123544500Y-80389597D01*
X123552687Y-80441286D01*
X123575661Y-80586340D01*
X123575661Y-80586343D01*
X123637213Y-80775780D01*
X123637215Y-80775783D01*
X123727647Y-80953266D01*
X123844731Y-81114418D01*
X123985582Y-81255269D01*
X124146734Y-81372353D01*
X124216453Y-81407877D01*
X124298172Y-81449515D01*
X124348968Y-81497490D01*
X124365763Y-81565311D01*
X124343225Y-81631446D01*
X124298172Y-81670485D01*
X124146733Y-81747647D01*
X124054790Y-81814447D01*
X123985582Y-81864731D01*
X123985580Y-81864733D01*
X123985579Y-81864733D01*
X123844733Y-82005579D01*
X123844733Y-82005580D01*
X123844731Y-82005582D01*
X123796220Y-82072351D01*
X123727647Y-82166733D01*
X123637213Y-82344219D01*
X123575661Y-82533656D01*
X123575661Y-82533659D01*
X123575661Y-82533661D01*
X123544500Y-82730403D01*
X123544500Y-82929597D01*
X123549627Y-82961966D01*
X123575661Y-83126340D01*
X123575661Y-83126343D01*
X123637213Y-83315780D01*
X123655039Y-83350765D01*
X123727647Y-83493266D01*
X123844731Y-83654418D01*
X123985582Y-83795269D01*
X124146734Y-83912353D01*
X124215288Y-83947283D01*
X124298172Y-83989515D01*
X124348968Y-84037490D01*
X124365763Y-84105311D01*
X124343225Y-84171446D01*
X124298172Y-84210485D01*
X124146733Y-84287647D01*
X124090692Y-84328364D01*
X123985582Y-84404731D01*
X123985580Y-84404733D01*
X123985579Y-84404733D01*
X123844733Y-84545579D01*
X123844733Y-84545580D01*
X123844731Y-84545582D01*
X123820159Y-84579403D01*
X123727647Y-84706733D01*
X123637213Y-84884219D01*
X123575661Y-85073656D01*
X123575661Y-85073659D01*
X123557235Y-85189999D01*
X123544500Y-85270403D01*
X123544500Y-85469597D01*
X123547856Y-85490785D01*
X123575661Y-85666340D01*
X123575661Y-85666343D01*
X123637213Y-85855780D01*
X123708805Y-85996286D01*
X123727647Y-86033266D01*
X123844731Y-86194418D01*
X123985582Y-86335269D01*
X124146734Y-86452353D01*
X124216453Y-86487877D01*
X124298172Y-86529515D01*
X124348968Y-86577490D01*
X124365763Y-86645311D01*
X124343225Y-86711446D01*
X124298172Y-86750485D01*
X124146733Y-86827647D01*
X124108286Y-86855581D01*
X123985582Y-86944731D01*
X123985580Y-86944733D01*
X123985579Y-86944733D01*
X123844733Y-87085579D01*
X123844733Y-87085580D01*
X123844731Y-87085582D01*
X123836079Y-87097491D01*
X123727647Y-87246733D01*
X123637213Y-87424219D01*
X123575661Y-87613656D01*
X123575661Y-87613659D01*
X123544500Y-87810403D01*
X123544500Y-88009596D01*
X123575661Y-88206340D01*
X123575661Y-88206343D01*
X123637213Y-88395780D01*
X123678960Y-88477713D01*
X123727647Y-88573266D01*
X123844731Y-88734418D01*
X123985582Y-88875269D01*
X124146734Y-88992353D01*
X124216453Y-89027877D01*
X124298172Y-89069515D01*
X124348968Y-89117490D01*
X124365763Y-89185311D01*
X124343225Y-89251446D01*
X124298172Y-89290485D01*
X124146733Y-89367647D01*
X124054790Y-89434447D01*
X123985582Y-89484731D01*
X123985580Y-89484733D01*
X123985579Y-89484733D01*
X123844733Y-89625579D01*
X123844733Y-89625580D01*
X123844731Y-89625582D01*
X123836079Y-89637491D01*
X123727647Y-89786733D01*
X123637213Y-89964219D01*
X123575661Y-90153656D01*
X123575661Y-90153659D01*
X123544500Y-90350403D01*
X123544500Y-90549596D01*
X123575661Y-90746340D01*
X123575661Y-90746343D01*
X123637213Y-90935780D01*
X123678960Y-91017713D01*
X123727647Y-91113266D01*
X123844731Y-91274418D01*
X123985582Y-91415269D01*
X124146734Y-91532353D01*
X124216453Y-91567877D01*
X124298172Y-91609515D01*
X124348968Y-91657490D01*
X124365763Y-91725311D01*
X124343225Y-91791446D01*
X124298172Y-91830485D01*
X124146733Y-91907647D01*
X124070100Y-91963325D01*
X123985582Y-92024731D01*
X123985580Y-92024733D01*
X123985579Y-92024733D01*
X123844733Y-92165579D01*
X123844733Y-92165580D01*
X123844731Y-92165582D01*
X123796220Y-92232351D01*
X123727647Y-92326733D01*
X123637213Y-92504219D01*
X123575661Y-92693656D01*
X123575661Y-92693659D01*
X123544500Y-92890403D01*
X123544500Y-93089596D01*
X123575661Y-93286340D01*
X123575661Y-93286343D01*
X123637213Y-93475780D01*
X123678960Y-93557713D01*
X123727647Y-93653266D01*
X123844731Y-93814418D01*
X123985582Y-93955269D01*
X124146734Y-94072353D01*
X124216453Y-94107877D01*
X124298172Y-94149515D01*
X124348968Y-94197490D01*
X124365763Y-94265311D01*
X124343225Y-94331446D01*
X124298172Y-94370485D01*
X124146733Y-94447647D01*
X124090992Y-94488146D01*
X123985582Y-94564731D01*
X123985580Y-94564733D01*
X123985579Y-94564733D01*
X123844733Y-94705579D01*
X123844733Y-94705580D01*
X123844731Y-94705582D01*
X123796220Y-94772351D01*
X123727647Y-94866733D01*
X123637213Y-95044219D01*
X123575661Y-95233656D01*
X123575661Y-95233659D01*
X123565042Y-95300706D01*
X123544500Y-95430403D01*
X123544500Y-95629597D01*
X123554729Y-95694182D01*
X123575661Y-95826340D01*
X123575661Y-95826343D01*
X123637213Y-96015780D01*
X123711745Y-96162057D01*
X123727647Y-96193266D01*
X123844731Y-96354418D01*
X123985582Y-96495269D01*
X124146734Y-96612353D01*
X124211265Y-96645233D01*
X124298172Y-96689515D01*
X124348968Y-96737490D01*
X124365763Y-96805311D01*
X124343225Y-96871446D01*
X124298172Y-96910485D01*
X124146733Y-96987647D01*
X124110451Y-97014008D01*
X123985582Y-97104731D01*
X123985580Y-97104733D01*
X123985579Y-97104733D01*
X123844733Y-97245579D01*
X123844733Y-97245580D01*
X123844731Y-97245582D01*
X123815669Y-97285582D01*
X123727647Y-97406733D01*
X123637213Y-97584219D01*
X123575661Y-97773656D01*
X123575661Y-97773659D01*
X123569888Y-97810110D01*
X123544500Y-97970403D01*
X123544500Y-98169597D01*
X123549627Y-98201965D01*
X123575661Y-98366340D01*
X123575661Y-98366343D01*
X123637213Y-98555780D01*
X123675155Y-98630245D01*
X123727647Y-98733266D01*
X123844731Y-98894418D01*
X123985582Y-99035269D01*
X124146734Y-99152353D01*
X124216453Y-99187877D01*
X124298172Y-99229515D01*
X124348968Y-99277490D01*
X124365763Y-99345311D01*
X124343225Y-99411446D01*
X124298172Y-99450485D01*
X124146733Y-99527647D01*
X124095607Y-99564793D01*
X123985582Y-99644731D01*
X123985580Y-99644733D01*
X123985579Y-99644733D01*
X123844733Y-99785579D01*
X123844733Y-99785580D01*
X123844731Y-99785582D01*
X123797435Y-99850679D01*
X123727647Y-99946733D01*
X123637213Y-100124219D01*
X123575661Y-100313656D01*
X123575661Y-100313659D01*
X123544500Y-100510403D01*
X123544500Y-100709596D01*
X123575661Y-100906340D01*
X123575661Y-100906343D01*
X123637213Y-101095780D01*
X123718443Y-101255203D01*
X123727647Y-101273266D01*
X123844731Y-101434418D01*
X123844733Y-101434420D01*
X123958132Y-101547819D01*
X123991617Y-101609142D01*
X123986633Y-101678834D01*
X123944761Y-101734767D01*
X123879297Y-101759184D01*
X123870451Y-101759500D01*
X104388720Y-101759500D01*
X104292077Y-101778724D01*
X104195432Y-101797947D01*
X104195426Y-101797949D01*
X104142099Y-101820037D01*
X104142099Y-101820038D01*
X104098813Y-101837968D01*
X104013352Y-101873367D01*
X104013348Y-101873369D01*
X103916699Y-101937947D01*
X103916700Y-101937948D01*
X103849481Y-101982861D01*
X103849478Y-101982864D01*
X102179162Y-103653181D01*
X102117839Y-103686666D01*
X102091481Y-103689500D01*
X101779999Y-103689500D01*
X101779980Y-103689501D01*
X101677203Y-103700000D01*
X101677200Y-103700001D01*
X101510668Y-103755185D01*
X101510663Y-103755187D01*
X101361342Y-103847289D01*
X101237289Y-103971342D01*
X101145187Y-104120663D01*
X101145186Y-104120666D01*
X101090001Y-104287203D01*
X101090001Y-104287204D01*
X101090000Y-104287204D01*
X101079500Y-104389983D01*
X101079500Y-104858770D01*
X101059815Y-104925809D01*
X101007011Y-104971564D01*
X100937853Y-104981508D01*
X100874297Y-104952483D01*
X100867819Y-104946451D01*
X97406819Y-101485451D01*
X97373334Y-101424128D01*
X97370500Y-101397770D01*
X97370500Y-58042229D01*
X97390185Y-57975190D01*
X97406815Y-57954552D01*
X97932819Y-57428547D01*
X97994142Y-57395063D01*
X98063834Y-57400047D01*
X98119767Y-57441919D01*
X98144184Y-57507383D01*
X98144500Y-57516229D01*
X98144500Y-57529597D01*
X98152483Y-57580001D01*
X98175661Y-57726340D01*
X98175661Y-57726343D01*
X98237213Y-57915780D01*
X98279441Y-57998656D01*
X98327647Y-58093266D01*
X98444731Y-58254418D01*
X98585582Y-58395269D01*
X98746734Y-58512353D01*
X98804647Y-58541861D01*
X98898172Y-58589515D01*
X98948968Y-58637490D01*
X98965763Y-58705311D01*
X98943225Y-58771446D01*
X98898172Y-58810485D01*
X98746733Y-58887647D01*
X98654790Y-58954447D01*
X98585582Y-59004731D01*
X98585580Y-59004733D01*
X98585579Y-59004733D01*
X98444733Y-59145579D01*
X98444733Y-59145580D01*
X98444731Y-59145582D01*
X98434314Y-59159920D01*
X98327647Y-59306733D01*
X98237213Y-59484219D01*
X98175661Y-59673656D01*
X98175661Y-59673659D01*
X98158119Y-59784417D01*
X98144500Y-59870403D01*
X98144500Y-60069597D01*
X98145547Y-60076206D01*
X98175661Y-60266340D01*
X98175661Y-60266343D01*
X98237213Y-60455780D01*
X98290048Y-60559474D01*
X98327647Y-60633266D01*
X98444731Y-60794418D01*
X98585582Y-60935269D01*
X98746734Y-61052353D01*
X98805477Y-61082284D01*
X98898172Y-61129515D01*
X98948968Y-61177490D01*
X98965763Y-61245311D01*
X98943225Y-61311446D01*
X98898172Y-61350485D01*
X98746733Y-61427647D01*
X98654790Y-61494447D01*
X98585582Y-61544731D01*
X98585580Y-61544733D01*
X98585579Y-61544733D01*
X98444733Y-61685579D01*
X98444733Y-61685580D01*
X98444731Y-61685582D01*
X98443696Y-61687007D01*
X98327647Y-61846733D01*
X98237213Y-62024219D01*
X98175661Y-62213656D01*
X98175661Y-62213659D01*
X98156049Y-62337483D01*
X98144500Y-62410403D01*
X98144500Y-62609597D01*
X98154598Y-62673350D01*
X98175661Y-62806340D01*
X98175661Y-62806343D01*
X98237213Y-62995780D01*
X98237215Y-62995783D01*
X98327647Y-63173266D01*
X98444731Y-63334418D01*
X98585582Y-63475269D01*
X98746734Y-63592353D01*
X98805477Y-63622284D01*
X98898172Y-63669515D01*
X98948968Y-63717490D01*
X98965763Y-63785311D01*
X98943225Y-63851446D01*
X98898172Y-63890485D01*
X98746733Y-63967647D01*
X98654790Y-64034447D01*
X98585582Y-64084731D01*
X98585580Y-64084733D01*
X98585579Y-64084733D01*
X98444733Y-64225579D01*
X98444733Y-64225580D01*
X98444731Y-64225582D01*
X98394447Y-64294790D01*
X98327647Y-64386733D01*
X98237213Y-64564219D01*
X98175661Y-64753656D01*
X98175661Y-64753659D01*
X98175661Y-64753661D01*
X98144500Y-64950403D01*
X98144500Y-65149597D01*
X98160080Y-65247968D01*
X98175661Y-65346340D01*
X98175661Y-65346343D01*
X98237213Y-65535780D01*
X98237215Y-65535783D01*
X98327647Y-65713266D01*
X98444731Y-65874418D01*
X98585582Y-66015269D01*
X98746734Y-66132353D01*
X98805477Y-66162284D01*
X98898172Y-66209515D01*
X98948968Y-66257490D01*
X98965763Y-66325311D01*
X98943225Y-66391446D01*
X98898172Y-66430485D01*
X98746733Y-66507647D01*
X98654790Y-66574447D01*
X98585582Y-66624731D01*
X98585580Y-66624733D01*
X98585579Y-66624733D01*
X98444733Y-66765579D01*
X98444733Y-66765580D01*
X98444731Y-66765582D01*
X98410381Y-66812861D01*
X98327647Y-66926733D01*
X98237213Y-67104219D01*
X98175661Y-67293656D01*
X98175661Y-67293659D01*
X98175661Y-67293661D01*
X98144500Y-67490403D01*
X98144500Y-67689597D01*
X98160080Y-67787968D01*
X98175661Y-67886340D01*
X98175661Y-67886343D01*
X98237213Y-68075780D01*
X98244061Y-68089219D01*
X98327647Y-68253266D01*
X98444731Y-68414418D01*
X98585582Y-68555269D01*
X98746734Y-68672353D01*
X98805477Y-68702284D01*
X98898172Y-68749515D01*
X98948968Y-68797490D01*
X98965763Y-68865311D01*
X98943225Y-68931446D01*
X98898172Y-68970485D01*
X98746733Y-69047647D01*
X98708286Y-69075581D01*
X98585582Y-69164731D01*
X98585580Y-69164733D01*
X98585579Y-69164733D01*
X98444733Y-69305579D01*
X98444733Y-69305580D01*
X98444731Y-69305582D01*
X98412811Y-69349516D01*
X98327647Y-69466733D01*
X98237213Y-69644219D01*
X98175661Y-69833656D01*
X98175661Y-69833659D01*
X98173040Y-69850208D01*
X98144500Y-70030403D01*
X98144500Y-70229597D01*
X98159904Y-70326853D01*
X98175661Y-70426340D01*
X98175661Y-70426343D01*
X98237213Y-70615780D01*
X98244061Y-70629219D01*
X98327647Y-70793266D01*
X98444731Y-70954418D01*
X98585582Y-71095269D01*
X98746734Y-71212353D01*
X98805477Y-71242284D01*
X98898172Y-71289515D01*
X98948968Y-71337490D01*
X98965763Y-71405311D01*
X98943225Y-71471446D01*
X98898172Y-71510485D01*
X98746733Y-71587647D01*
X98654790Y-71654447D01*
X98585582Y-71704731D01*
X98585580Y-71704733D01*
X98585579Y-71704733D01*
X98444733Y-71845579D01*
X98444733Y-71845580D01*
X98444731Y-71845582D01*
X98394447Y-71914790D01*
X98327647Y-72006733D01*
X98237213Y-72184219D01*
X98175661Y-72373656D01*
X98175661Y-72373659D01*
X98165436Y-72438216D01*
X98144500Y-72570403D01*
X98144500Y-72769597D01*
X98153179Y-72824394D01*
X98175661Y-72966340D01*
X98175661Y-72966343D01*
X98237213Y-73155780D01*
X98244061Y-73169219D01*
X98327647Y-73333266D01*
X98444731Y-73494418D01*
X98585582Y-73635269D01*
X98746734Y-73752353D01*
X98805477Y-73782284D01*
X98898172Y-73829515D01*
X98948968Y-73877490D01*
X98965763Y-73945311D01*
X98943225Y-74011446D01*
X98898172Y-74050485D01*
X98746733Y-74127647D01*
X98654790Y-74194447D01*
X98585582Y-74244731D01*
X98585580Y-74244733D01*
X98585579Y-74244733D01*
X98444733Y-74385579D01*
X98444733Y-74385580D01*
X98444731Y-74385582D01*
X98396559Y-74451885D01*
X98327647Y-74546733D01*
X98237213Y-74724219D01*
X98175661Y-74913656D01*
X98175661Y-74913659D01*
X98144500Y-75110403D01*
X98144500Y-75309596D01*
X98175661Y-75506340D01*
X98175661Y-75506343D01*
X98237213Y-75695780D01*
X98237215Y-75695783D01*
X98327647Y-75873266D01*
X98444731Y-76034418D01*
X98585582Y-76175269D01*
X98746734Y-76292353D01*
X98816453Y-76327877D01*
X98898172Y-76369515D01*
X98948968Y-76417490D01*
X98965763Y-76485311D01*
X98943225Y-76551446D01*
X98898172Y-76590485D01*
X98746733Y-76667647D01*
X98691354Y-76707883D01*
X98585582Y-76784731D01*
X98585580Y-76784733D01*
X98585579Y-76784733D01*
X98444733Y-76925579D01*
X98444733Y-76925580D01*
X98444731Y-76925582D01*
X98394447Y-76994790D01*
X98327647Y-77086733D01*
X98237213Y-77264219D01*
X98175661Y-77453656D01*
X98175661Y-77453659D01*
X98144500Y-77650403D01*
X98144500Y-77849596D01*
X98175661Y-78046340D01*
X98175661Y-78046343D01*
X98237213Y-78235780D01*
X98237215Y-78235783D01*
X98327647Y-78413266D01*
X98444731Y-78574418D01*
X98585582Y-78715269D01*
X98746734Y-78832353D01*
X98816453Y-78867877D01*
X98898172Y-78909515D01*
X98948968Y-78957490D01*
X98965763Y-79025311D01*
X98943225Y-79091446D01*
X98898172Y-79130485D01*
X98746733Y-79207647D01*
X98654790Y-79274447D01*
X98585582Y-79324731D01*
X98585580Y-79324733D01*
X98585579Y-79324733D01*
X98444733Y-79465579D01*
X98444733Y-79465580D01*
X98444731Y-79465582D01*
X98394447Y-79534790D01*
X98327647Y-79626733D01*
X98237213Y-79804219D01*
X98175661Y-79993656D01*
X98175661Y-79993659D01*
X98175661Y-79993661D01*
X98144500Y-80190403D01*
X98144500Y-80389597D01*
X98152687Y-80441286D01*
X98175661Y-80586340D01*
X98175661Y-80586343D01*
X98237213Y-80775780D01*
X98237215Y-80775783D01*
X98327647Y-80953266D01*
X98444731Y-81114418D01*
X98585582Y-81255269D01*
X98746734Y-81372353D01*
X98816453Y-81407877D01*
X98898172Y-81449515D01*
X98948968Y-81497490D01*
X98965763Y-81565311D01*
X98943225Y-81631446D01*
X98898172Y-81670485D01*
X98746733Y-81747647D01*
X98654790Y-81814447D01*
X98585582Y-81864731D01*
X98585580Y-81864733D01*
X98585579Y-81864733D01*
X98444733Y-82005579D01*
X98444733Y-82005580D01*
X98444731Y-82005582D01*
X98396220Y-82072351D01*
X98327647Y-82166733D01*
X98237213Y-82344219D01*
X98175661Y-82533656D01*
X98175661Y-82533659D01*
X98175661Y-82533661D01*
X98144500Y-82730403D01*
X98144500Y-82929597D01*
X98149627Y-82961966D01*
X98175661Y-83126340D01*
X98175661Y-83126343D01*
X98237213Y-83315780D01*
X98255039Y-83350765D01*
X98327647Y-83493266D01*
X98444731Y-83654418D01*
X98585582Y-83795269D01*
X98746734Y-83912353D01*
X98815288Y-83947283D01*
X98898172Y-83989515D01*
X98948968Y-84037490D01*
X98965763Y-84105311D01*
X98943225Y-84171446D01*
X98898172Y-84210485D01*
X98746733Y-84287647D01*
X98690692Y-84328364D01*
X98585582Y-84404731D01*
X98585580Y-84404733D01*
X98585579Y-84404733D01*
X98444733Y-84545579D01*
X98444733Y-84545580D01*
X98444731Y-84545582D01*
X98420159Y-84579403D01*
X98327647Y-84706733D01*
X98237213Y-84884219D01*
X98175661Y-85073656D01*
X98175661Y-85073659D01*
X98157235Y-85189999D01*
X98144500Y-85270403D01*
X98144500Y-85469597D01*
X98147856Y-85490785D01*
X98175661Y-85666340D01*
X98175661Y-85666343D01*
X98237213Y-85855780D01*
X98308805Y-85996286D01*
X98327647Y-86033266D01*
X98444731Y-86194418D01*
X98585582Y-86335269D01*
X98746734Y-86452353D01*
X98836909Y-86498299D01*
X98898722Y-86529795D01*
X98949518Y-86577770D01*
X98966313Y-86645591D01*
X98943776Y-86711726D01*
X98898723Y-86750764D01*
X98746993Y-86828075D01*
X98709135Y-86855580D01*
X98709135Y-86855581D01*
X99272425Y-87418871D01*
X99213147Y-87434755D01*
X99096853Y-87501898D01*
X99001898Y-87596853D01*
X98934755Y-87713147D01*
X98918871Y-87772425D01*
X98355581Y-87209135D01*
X98355580Y-87209135D01*
X98328077Y-87246990D01*
X98237679Y-87424405D01*
X98176147Y-87613777D01*
X98145000Y-87810436D01*
X98145000Y-88009563D01*
X98176147Y-88206222D01*
X98237679Y-88395594D01*
X98328077Y-88573008D01*
X98355580Y-88610863D01*
X98355581Y-88610864D01*
X98918871Y-88047574D01*
X98934755Y-88106853D01*
X99001898Y-88223147D01*
X99096853Y-88318102D01*
X99213147Y-88385245D01*
X99272425Y-88401128D01*
X98709134Y-88964417D01*
X98746994Y-88991924D01*
X98898722Y-89069234D01*
X98949518Y-89117209D01*
X98966313Y-89185030D01*
X98943776Y-89251165D01*
X98898723Y-89290203D01*
X98746735Y-89367645D01*
X98633997Y-89449555D01*
X98585582Y-89484731D01*
X98585580Y-89484733D01*
X98585579Y-89484733D01*
X98444733Y-89625579D01*
X98444733Y-89625580D01*
X98444731Y-89625582D01*
X98436079Y-89637491D01*
X98327647Y-89786733D01*
X98237213Y-89964219D01*
X98175661Y-90153656D01*
X98175661Y-90153659D01*
X98144500Y-90350403D01*
X98144500Y-90549596D01*
X98175661Y-90746340D01*
X98175661Y-90746343D01*
X98237213Y-90935780D01*
X98278960Y-91017713D01*
X98327647Y-91113266D01*
X98444731Y-91274418D01*
X98585582Y-91415269D01*
X98746734Y-91532353D01*
X98816453Y-91567877D01*
X98898172Y-91609515D01*
X98948968Y-91657490D01*
X98965763Y-91725311D01*
X98943225Y-91791446D01*
X98898172Y-91830485D01*
X98746733Y-91907647D01*
X98670100Y-91963325D01*
X98585582Y-92024731D01*
X98585580Y-92024733D01*
X98585579Y-92024733D01*
X98444733Y-92165579D01*
X98444733Y-92165580D01*
X98444731Y-92165582D01*
X98396220Y-92232351D01*
X98327647Y-92326733D01*
X98237213Y-92504219D01*
X98175661Y-92693656D01*
X98175661Y-92693659D01*
X98144500Y-92890403D01*
X98144500Y-93089596D01*
X98175661Y-93286340D01*
X98175661Y-93286343D01*
X98237213Y-93475780D01*
X98278960Y-93557713D01*
X98327647Y-93653266D01*
X98444731Y-93814418D01*
X98585582Y-93955269D01*
X98746734Y-94072353D01*
X98816453Y-94107877D01*
X98898172Y-94149515D01*
X98948968Y-94197490D01*
X98965763Y-94265311D01*
X98943225Y-94331446D01*
X98898172Y-94370485D01*
X98746733Y-94447647D01*
X98690992Y-94488146D01*
X98585582Y-94564731D01*
X98585580Y-94564733D01*
X98585579Y-94564733D01*
X98444733Y-94705579D01*
X98444733Y-94705580D01*
X98444731Y-94705582D01*
X98396220Y-94772351D01*
X98327647Y-94866733D01*
X98237213Y-95044219D01*
X98175661Y-95233656D01*
X98175661Y-95233659D01*
X98165042Y-95300706D01*
X98144500Y-95430403D01*
X98144500Y-95629597D01*
X98154729Y-95694182D01*
X98175661Y-95826340D01*
X98175661Y-95826343D01*
X98237213Y-96015780D01*
X98311745Y-96162057D01*
X98327647Y-96193266D01*
X98444731Y-96354418D01*
X98585582Y-96495269D01*
X98746734Y-96612353D01*
X98811265Y-96645233D01*
X98898172Y-96689515D01*
X98948968Y-96737490D01*
X98965763Y-96805311D01*
X98943225Y-96871446D01*
X98898172Y-96910485D01*
X98746733Y-96987647D01*
X98710451Y-97014008D01*
X98585582Y-97104731D01*
X98585580Y-97104733D01*
X98585579Y-97104733D01*
X98444733Y-97245579D01*
X98444733Y-97245580D01*
X98444731Y-97245582D01*
X98415669Y-97285582D01*
X98327647Y-97406733D01*
X98237213Y-97584219D01*
X98175661Y-97773656D01*
X98175661Y-97773659D01*
X98169888Y-97810110D01*
X98144500Y-97970403D01*
X98144500Y-98169597D01*
X98149627Y-98201965D01*
X98175661Y-98366340D01*
X98175661Y-98366343D01*
X98237213Y-98555780D01*
X98275155Y-98630245D01*
X98327647Y-98733266D01*
X98444731Y-98894418D01*
X98585582Y-99035269D01*
X98746734Y-99152353D01*
X98816453Y-99187877D01*
X98898172Y-99229515D01*
X98948968Y-99277490D01*
X98965763Y-99345311D01*
X98943225Y-99411446D01*
X98898172Y-99450485D01*
X98746733Y-99527647D01*
X98695607Y-99564793D01*
X98585582Y-99644731D01*
X98585580Y-99644733D01*
X98585579Y-99644733D01*
X98444733Y-99785579D01*
X98444733Y-99785580D01*
X98444731Y-99785582D01*
X98397435Y-99850679D01*
X98327647Y-99946733D01*
X98237213Y-100124219D01*
X98175661Y-100313656D01*
X98175661Y-100313659D01*
X98144500Y-100510403D01*
X98144500Y-100709596D01*
X98175661Y-100906340D01*
X98175661Y-100906343D01*
X98237213Y-101095780D01*
X98318443Y-101255203D01*
X98327647Y-101273266D01*
X98444731Y-101434418D01*
X98585582Y-101575269D01*
X98746734Y-101692353D01*
X98878518Y-101759500D01*
X98924219Y-101782786D01*
X99113657Y-101844338D01*
X99113658Y-101844338D01*
X99113661Y-101844339D01*
X99310403Y-101875500D01*
X99310404Y-101875500D01*
X99509596Y-101875500D01*
X99509597Y-101875500D01*
X99706339Y-101844339D01*
X99706342Y-101844338D01*
X99706343Y-101844338D01*
X99895780Y-101782786D01*
X99895780Y-101782785D01*
X99895783Y-101782785D01*
X100073266Y-101692353D01*
X100234418Y-101575269D01*
X100375269Y-101434418D01*
X100492353Y-101273266D01*
X100582785Y-101095783D01*
X100616066Y-100993354D01*
X100644338Y-100906343D01*
X100644338Y-100906342D01*
X100644339Y-100906339D01*
X100675500Y-100709597D01*
X100675500Y-100510403D01*
X100644339Y-100313661D01*
X100644338Y-100313657D01*
X100644338Y-100313656D01*
X100582786Y-100124219D01*
X100547271Y-100054517D01*
X100492353Y-99946734D01*
X100375269Y-99785582D01*
X100234418Y-99644731D01*
X100073266Y-99527647D01*
X99921827Y-99450485D01*
X99871031Y-99402510D01*
X99854236Y-99334689D01*
X99876773Y-99268554D01*
X99921827Y-99229515D01*
X99931116Y-99224781D01*
X100073266Y-99152353D01*
X100234418Y-99035269D01*
X100375269Y-98894418D01*
X100492353Y-98733266D01*
X100582785Y-98555783D01*
X100614123Y-98459334D01*
X100644338Y-98366343D01*
X100644338Y-98366342D01*
X100644339Y-98366339D01*
X100675500Y-98169597D01*
X100675500Y-97970403D01*
X100644339Y-97773661D01*
X100644338Y-97773657D01*
X100644338Y-97773656D01*
X100582786Y-97584219D01*
X100525813Y-97472403D01*
X100492353Y-97406734D01*
X100375269Y-97245582D01*
X100234418Y-97104731D01*
X100073266Y-96987647D01*
X99921827Y-96910485D01*
X99871031Y-96862510D01*
X99854236Y-96794689D01*
X99876773Y-96728554D01*
X99921827Y-96689515D01*
X99985996Y-96656819D01*
X100073266Y-96612353D01*
X100234418Y-96495269D01*
X100375269Y-96354418D01*
X100492353Y-96193266D01*
X100582785Y-96015783D01*
X100609134Y-95934690D01*
X100644338Y-95826343D01*
X100644338Y-95826342D01*
X100644339Y-95826339D01*
X100675500Y-95629597D01*
X100675500Y-95430403D01*
X100644339Y-95233661D01*
X100644338Y-95233657D01*
X100644338Y-95233656D01*
X100582786Y-95044219D01*
X100492352Y-94866733D01*
X100375269Y-94705582D01*
X100234418Y-94564731D01*
X100073266Y-94447647D01*
X99921827Y-94370485D01*
X99871031Y-94322510D01*
X99854236Y-94254689D01*
X99876773Y-94188554D01*
X99921827Y-94149515D01*
X99945443Y-94137482D01*
X100073266Y-94072353D01*
X100234418Y-93955269D01*
X100375269Y-93814418D01*
X100492353Y-93653266D01*
X100582785Y-93475783D01*
X100584194Y-93471446D01*
X100644338Y-93286343D01*
X100644338Y-93286342D01*
X100644339Y-93286339D01*
X100675500Y-93089597D01*
X100675500Y-92890403D01*
X100644339Y-92693661D01*
X100644338Y-92693657D01*
X100644338Y-92693656D01*
X100582786Y-92504219D01*
X100547280Y-92434534D01*
X100492353Y-92326734D01*
X100375269Y-92165582D01*
X100234418Y-92024731D01*
X100073266Y-91907647D01*
X99921827Y-91830485D01*
X99871031Y-91782510D01*
X99854236Y-91714689D01*
X99876773Y-91648554D01*
X99921827Y-91609515D01*
X99931116Y-91604781D01*
X100073266Y-91532353D01*
X100234418Y-91415269D01*
X100375269Y-91274418D01*
X100492353Y-91113266D01*
X100582785Y-90935783D01*
X100644339Y-90746339D01*
X100675500Y-90549597D01*
X100675500Y-90350403D01*
X100644339Y-90153661D01*
X100644338Y-90153657D01*
X100644338Y-90153656D01*
X100582786Y-89964219D01*
X100492352Y-89786733D01*
X100481246Y-89771447D01*
X100375269Y-89625582D01*
X100234418Y-89484731D01*
X100073266Y-89367647D01*
X100073262Y-89367645D01*
X99921277Y-89290204D01*
X99870481Y-89242229D01*
X99853686Y-89174408D01*
X99876224Y-89108273D01*
X99921277Y-89069234D01*
X100073005Y-88991924D01*
X100110863Y-88964418D01*
X100110863Y-88964417D01*
X99547574Y-88401128D01*
X99606853Y-88385245D01*
X99723147Y-88318102D01*
X99818102Y-88223147D01*
X99885245Y-88106853D01*
X99901128Y-88047574D01*
X100464417Y-88610863D01*
X100464418Y-88610863D01*
X100491924Y-88573005D01*
X100582320Y-88395594D01*
X100643852Y-88206222D01*
X100675000Y-88009563D01*
X100675000Y-87810436D01*
X100643852Y-87613777D01*
X100582320Y-87424405D01*
X100491924Y-87246994D01*
X100464417Y-87209135D01*
X100464417Y-87209134D01*
X99901128Y-87772424D01*
X99885245Y-87713147D01*
X99818102Y-87596853D01*
X99723147Y-87501898D01*
X99606853Y-87434755D01*
X99547574Y-87418871D01*
X100110864Y-86855581D01*
X100110863Y-86855580D01*
X100073008Y-86828077D01*
X99921277Y-86750765D01*
X99870481Y-86702790D01*
X99853686Y-86634969D01*
X99876224Y-86568834D01*
X99921277Y-86529795D01*
X99961428Y-86509337D01*
X100073266Y-86452353D01*
X100234418Y-86335269D01*
X100375269Y-86194418D01*
X100492353Y-86033266D01*
X100582785Y-85855783D01*
X100616269Y-85752729D01*
X100644338Y-85666343D01*
X100644338Y-85666342D01*
X100644339Y-85666339D01*
X100675500Y-85469597D01*
X100675500Y-85270403D01*
X100644339Y-85073661D01*
X100644338Y-85073657D01*
X100644338Y-85073656D01*
X100582786Y-84884219D01*
X100492352Y-84706733D01*
X100442737Y-84638444D01*
X100375269Y-84545582D01*
X100234418Y-84404731D01*
X100073266Y-84287647D01*
X99921827Y-84210485D01*
X99871031Y-84162510D01*
X99854236Y-84094689D01*
X99876773Y-84028554D01*
X99921827Y-83989515D01*
X99961428Y-83969337D01*
X100073266Y-83912353D01*
X100234418Y-83795269D01*
X100375269Y-83654418D01*
X100492353Y-83493266D01*
X100582785Y-83315783D01*
X100644339Y-83126339D01*
X100675500Y-82929597D01*
X100675500Y-82730403D01*
X100644339Y-82533661D01*
X100644338Y-82533657D01*
X100644338Y-82533656D01*
X100582786Y-82344219D01*
X100492352Y-82166733D01*
X100375269Y-82005582D01*
X100234418Y-81864731D01*
X100073266Y-81747647D01*
X99921827Y-81670485D01*
X99871031Y-81622510D01*
X99854236Y-81554689D01*
X99876773Y-81488554D01*
X99921827Y-81449515D01*
X99931116Y-81444781D01*
X100073266Y-81372353D01*
X100234418Y-81255269D01*
X100375269Y-81114418D01*
X100492353Y-80953266D01*
X100582785Y-80775783D01*
X100606914Y-80701522D01*
X100644338Y-80586343D01*
X100644338Y-80586342D01*
X100644339Y-80586339D01*
X100675500Y-80389597D01*
X100675500Y-80190403D01*
X100644339Y-79993661D01*
X100644338Y-79993657D01*
X100644338Y-79993656D01*
X100582786Y-79804219D01*
X100492352Y-79626733D01*
X100479260Y-79608713D01*
X100375269Y-79465582D01*
X100234418Y-79324731D01*
X100073266Y-79207647D01*
X99921827Y-79130485D01*
X99871031Y-79082510D01*
X99854236Y-79014689D01*
X99876773Y-78948554D01*
X99921827Y-78909515D01*
X99931116Y-78904781D01*
X100073266Y-78832353D01*
X100234418Y-78715269D01*
X100375269Y-78574418D01*
X100492353Y-78413266D01*
X100582785Y-78235783D01*
X100644339Y-78046339D01*
X100675500Y-77849597D01*
X100675500Y-77650403D01*
X100644339Y-77453661D01*
X100644338Y-77453657D01*
X100644338Y-77453656D01*
X100582786Y-77264219D01*
X100582785Y-77264217D01*
X100492353Y-77086734D01*
X100375269Y-76925582D01*
X100234418Y-76784731D01*
X100073266Y-76667647D01*
X99921827Y-76590485D01*
X99871031Y-76542510D01*
X99854236Y-76474689D01*
X99876773Y-76408554D01*
X99921827Y-76369515D01*
X99931116Y-76364781D01*
X100073266Y-76292353D01*
X100234418Y-76175269D01*
X100375269Y-76034418D01*
X100492353Y-75873266D01*
X100582785Y-75695783D01*
X100644339Y-75506339D01*
X100675500Y-75309597D01*
X100675500Y-75110403D01*
X100644339Y-74913661D01*
X100644338Y-74913657D01*
X100644338Y-74913656D01*
X100582786Y-74724219D01*
X100546367Y-74652743D01*
X100492353Y-74546734D01*
X100375269Y-74385582D01*
X100234418Y-74244731D01*
X100073266Y-74127647D01*
X99921827Y-74050485D01*
X99871031Y-74002510D01*
X99854236Y-73934689D01*
X99876773Y-73868554D01*
X99921827Y-73829515D01*
X99995868Y-73791789D01*
X100073266Y-73752353D01*
X100234418Y-73635269D01*
X100375269Y-73494418D01*
X100492353Y-73333266D01*
X100582785Y-73155783D01*
X100636625Y-72990080D01*
X100644338Y-72966343D01*
X100644338Y-72966342D01*
X100644339Y-72966339D01*
X100675500Y-72769597D01*
X100675500Y-72570403D01*
X100644339Y-72373661D01*
X100644338Y-72373657D01*
X100644338Y-72373656D01*
X100582786Y-72184219D01*
X100545217Y-72110486D01*
X100492353Y-72006734D01*
X100375269Y-71845582D01*
X100234418Y-71704731D01*
X100073266Y-71587647D01*
X99921827Y-71510485D01*
X99871031Y-71462510D01*
X99854236Y-71394689D01*
X99876773Y-71328554D01*
X99921827Y-71289515D01*
X99952838Y-71273714D01*
X100073266Y-71212353D01*
X100234418Y-71095269D01*
X100375269Y-70954418D01*
X100492353Y-70793266D01*
X100582785Y-70615783D01*
X100638878Y-70443147D01*
X100644338Y-70426343D01*
X100644338Y-70426342D01*
X100644339Y-70426339D01*
X100675500Y-70229597D01*
X100675500Y-70030403D01*
X100644339Y-69833661D01*
X100644338Y-69833657D01*
X100644338Y-69833656D01*
X100582786Y-69644219D01*
X100545216Y-69570484D01*
X100492353Y-69466734D01*
X100375269Y-69305582D01*
X100234418Y-69164731D01*
X100073266Y-69047647D01*
X100014517Y-69017713D01*
X99921827Y-68970485D01*
X99871031Y-68922510D01*
X99854236Y-68854689D01*
X99876773Y-68788554D01*
X99921827Y-68749515D01*
X99931116Y-68744781D01*
X100073266Y-68672353D01*
X100234418Y-68555269D01*
X100375269Y-68414418D01*
X100492353Y-68253266D01*
X100582785Y-68075783D01*
X100582786Y-68075780D01*
X100644338Y-67886343D01*
X100644338Y-67886342D01*
X100644339Y-67886339D01*
X100675500Y-67689597D01*
X100675500Y-67490403D01*
X100644339Y-67293661D01*
X100644338Y-67293657D01*
X100644338Y-67293656D01*
X100582786Y-67104219D01*
X100547491Y-67034949D01*
X100492353Y-66926734D01*
X100375269Y-66765582D01*
X100234418Y-66624731D01*
X100073266Y-66507647D01*
X99921827Y-66430485D01*
X99871031Y-66382510D01*
X99854236Y-66314689D01*
X99876773Y-66248554D01*
X99921827Y-66209515D01*
X99931116Y-66204781D01*
X100073266Y-66132353D01*
X100234418Y-66015269D01*
X100375269Y-65874418D01*
X100492353Y-65713266D01*
X100582785Y-65535783D01*
X100582786Y-65535780D01*
X100644338Y-65346343D01*
X100644338Y-65346342D01*
X100644339Y-65346339D01*
X100675500Y-65149597D01*
X100675500Y-64950403D01*
X100644339Y-64753661D01*
X100644338Y-64753657D01*
X100644338Y-64753656D01*
X100582786Y-64564219D01*
X100492352Y-64386733D01*
X100479022Y-64368386D01*
X100375269Y-64225582D01*
X100234418Y-64084731D01*
X100073266Y-63967647D01*
X99921827Y-63890485D01*
X99871031Y-63842510D01*
X99854236Y-63774689D01*
X99876773Y-63708554D01*
X99921827Y-63669515D01*
X99931116Y-63664781D01*
X100073266Y-63592353D01*
X100234418Y-63475269D01*
X100375269Y-63334418D01*
X100492353Y-63173266D01*
X100582785Y-62995783D01*
X100582786Y-62995780D01*
X100644338Y-62806343D01*
X100644338Y-62806342D01*
X100644339Y-62806339D01*
X100675500Y-62609597D01*
X100675500Y-62410403D01*
X100644339Y-62213661D01*
X100644338Y-62213657D01*
X100644338Y-62213656D01*
X100582786Y-62024219D01*
X100575936Y-62010776D01*
X100492353Y-61846734D01*
X100375269Y-61685582D01*
X100234418Y-61544731D01*
X100073266Y-61427647D01*
X99921827Y-61350485D01*
X99871031Y-61302510D01*
X99854236Y-61234689D01*
X99876773Y-61168554D01*
X99921827Y-61129515D01*
X99931116Y-61124781D01*
X100073266Y-61052353D01*
X100234418Y-60935269D01*
X100375269Y-60794418D01*
X100492353Y-60633266D01*
X100582785Y-60455783D01*
X100637329Y-60287913D01*
X100644338Y-60266343D01*
X100644338Y-60266342D01*
X100644339Y-60266339D01*
X100675500Y-60069597D01*
X100675500Y-59870403D01*
X100644339Y-59673661D01*
X100644338Y-59673657D01*
X100644338Y-59673656D01*
X100582786Y-59484219D01*
X100553804Y-59427339D01*
X100492353Y-59306734D01*
X100375269Y-59145582D01*
X100234418Y-59004731D01*
X100073266Y-58887647D01*
X99921827Y-58810485D01*
X99871031Y-58762510D01*
X99854236Y-58694689D01*
X99876773Y-58628554D01*
X99921827Y-58589515D01*
X99931116Y-58584781D01*
X100073266Y-58512353D01*
X100234418Y-58395269D01*
X100375269Y-58254418D01*
X100492353Y-58093266D01*
X100582785Y-57915783D01*
X100613657Y-57820770D01*
X100644338Y-57726343D01*
X100644338Y-57726342D01*
X100644339Y-57726339D01*
X100675500Y-57529597D01*
X100675500Y-57330403D01*
X100644339Y-57133661D01*
X100644338Y-57133657D01*
X100644338Y-57133656D01*
X100582786Y-56944219D01*
X100504249Y-56790082D01*
X100492353Y-56766734D01*
X100375269Y-56605582D01*
X100234418Y-56464731D01*
X100117543Y-56379816D01*
X100074879Y-56324487D01*
X100068900Y-56254873D01*
X100101506Y-56193078D01*
X100162345Y-56158721D01*
X100190430Y-56155499D01*
X100222871Y-56155499D01*
X100222872Y-56155499D01*
X100282483Y-56149091D01*
X100417331Y-56098796D01*
X100532546Y-56012546D01*
X100618796Y-55897331D01*
X100669091Y-55762483D01*
X100675500Y-55702873D01*
X100675499Y-54077128D01*
X100669091Y-54017517D01*
X100624525Y-53898028D01*
X100618798Y-53882673D01*
X100618793Y-53882664D01*
X100532547Y-53767455D01*
X100532544Y-53767452D01*
X100417335Y-53681206D01*
X100417328Y-53681202D01*
X100282482Y-53630908D01*
X100282483Y-53630908D01*
X100222883Y-53624501D01*
X100222881Y-53624500D01*
X100222873Y-53624500D01*
X100222864Y-53624500D01*
X98597129Y-53624500D01*
X98597123Y-53624501D01*
X98537516Y-53630908D01*
X98402671Y-53681202D01*
X98402664Y-53681206D01*
X98287455Y-53767452D01*
X98287452Y-53767455D01*
X98201206Y-53882664D01*
X98201202Y-53882671D01*
X98150908Y-54017517D01*
X98148192Y-54042786D01*
X98144501Y-54077123D01*
X98144500Y-54077135D01*
X98144500Y-55042769D01*
X98124815Y-55109808D01*
X98108181Y-55130450D01*
X96037049Y-57201582D01*
X96009598Y-57242667D01*
X96009597Y-57242668D01*
X95954919Y-57324498D01*
X95954912Y-57324511D01*
X95898343Y-57461082D01*
X95898340Y-57461092D01*
X95869500Y-57606079D01*
X95869500Y-57606082D01*
X95869500Y-101833918D01*
X95869500Y-101833920D01*
X95869499Y-101833920D01*
X94877923Y-101833920D01*
X94862362Y-48890527D01*
X94862462Y-48888711D01*
X96759500Y-48888711D01*
X96759500Y-49131288D01*
X96791161Y-49371785D01*
X96853947Y-49606104D01*
X96946773Y-49830205D01*
X96946776Y-49830212D01*
X97068064Y-50040289D01*
X97068066Y-50040292D01*
X97068067Y-50040293D01*
X97215733Y-50232736D01*
X97215739Y-50232743D01*
X97387256Y-50404260D01*
X97387262Y-50404265D01*
X97579711Y-50551936D01*
X97789788Y-50673224D01*
X98013900Y-50766054D01*
X98248211Y-50828838D01*
X98428586Y-50852584D01*
X98488711Y-50860500D01*
X98488712Y-50860500D01*
X98731289Y-50860500D01*
X98779388Y-50854167D01*
X98971789Y-50828838D01*
X99206100Y-50766054D01*
X99430212Y-50673224D01*
X99640289Y-50551936D01*
X99832738Y-50404265D01*
X100004265Y-50232738D01*
X100151936Y-50040289D01*
X100273224Y-49830212D01*
X100366054Y-49606100D01*
X100428838Y-49371789D01*
X100460500Y-49131288D01*
X100460500Y-48888712D01*
X100458346Y-48872354D01*
X100440922Y-48740000D01*
X100428838Y-48648211D01*
X100366054Y-48413900D01*
X100351618Y-48379049D01*
X100336328Y-48342135D01*
X126199500Y-48342135D01*
X126199500Y-50137870D01*
X126199501Y-50137876D01*
X126205908Y-50197483D01*
X126256202Y-50332328D01*
X126256206Y-50332335D01*
X126342452Y-50447544D01*
X126342455Y-50447547D01*
X126457664Y-50533793D01*
X126457671Y-50533797D01*
X126592517Y-50584091D01*
X126592516Y-50584091D01*
X126599444Y-50584835D01*
X126652127Y-50590500D01*
X128447872Y-50590499D01*
X128507483Y-50584091D01*
X128642331Y-50533796D01*
X128757546Y-50447546D01*
X128843796Y-50332331D01*
X128894091Y-50197483D01*
X128900500Y-50137873D01*
X128900499Y-50113979D01*
X128903330Y-50100963D01*
X128913940Y-50081525D01*
X128920179Y-50060275D01*
X128936803Y-50039643D01*
X128936808Y-50039636D01*
X128936811Y-50039634D01*
X128936818Y-50039626D01*
X129607037Y-49369408D01*
X129624075Y-49432993D01*
X129689901Y-49547007D01*
X129782993Y-49640099D01*
X129897007Y-49705925D01*
X129960590Y-49722962D01*
X129328282Y-50355269D01*
X129328282Y-50355270D01*
X129382449Y-50394624D01*
X129571782Y-50491095D01*
X129773870Y-50556757D01*
X129983754Y-50590000D01*
X130196246Y-50590000D01*
X130406127Y-50556757D01*
X130406130Y-50556757D01*
X130608217Y-50491095D01*
X130797554Y-50394622D01*
X130851716Y-50355270D01*
X130851717Y-50355270D01*
X130219408Y-49722962D01*
X130282993Y-49705925D01*
X130397007Y-49640099D01*
X130490099Y-49547007D01*
X130555925Y-49432993D01*
X130572962Y-49369409D01*
X131205270Y-50001717D01*
X131205270Y-50001716D01*
X131244622Y-49947554D01*
X131341095Y-49758217D01*
X131406757Y-49556130D01*
X131406757Y-49556127D01*
X131440000Y-49346246D01*
X131440000Y-49133753D01*
X131428960Y-49064051D01*
X131426530Y-49048711D01*
X179829500Y-49048711D01*
X179829500Y-49291288D01*
X179861161Y-49531785D01*
X179923947Y-49766104D01*
X180016773Y-49990205D01*
X180016776Y-49990212D01*
X180138064Y-50200289D01*
X180138066Y-50200292D01*
X180138067Y-50200293D01*
X180285733Y-50392736D01*
X180285739Y-50392743D01*
X180457256Y-50564260D01*
X180457263Y-50564266D01*
X180491451Y-50590499D01*
X180649711Y-50711936D01*
X180859788Y-50833224D01*
X181083900Y-50926054D01*
X181318211Y-50988838D01*
X181498586Y-51012584D01*
X181558711Y-51020500D01*
X181558712Y-51020500D01*
X181801289Y-51020500D01*
X181849388Y-51014167D01*
X182041789Y-50988838D01*
X182276100Y-50926054D01*
X182500212Y-50833224D01*
X182710289Y-50711936D01*
X182902738Y-50564265D01*
X183074265Y-50392738D01*
X183221936Y-50200289D01*
X183343224Y-49990212D01*
X183436054Y-49766100D01*
X183498838Y-49531789D01*
X183530500Y-49291288D01*
X183530500Y-49048712D01*
X183498838Y-48808211D01*
X183436054Y-48573900D01*
X183343224Y-48349788D01*
X183221936Y-48139711D01*
X183139635Y-48032454D01*
X183074266Y-47947263D01*
X183074260Y-47947256D01*
X182902743Y-47775739D01*
X182902736Y-47775733D01*
X182710293Y-47628067D01*
X182710292Y-47628066D01*
X182710289Y-47628064D01*
X182500212Y-47506776D01*
X182500205Y-47506773D01*
X182276104Y-47413947D01*
X182041785Y-47351161D01*
X181801289Y-47319500D01*
X181801288Y-47319500D01*
X181558712Y-47319500D01*
X181558711Y-47319500D01*
X181318214Y-47351161D01*
X181083895Y-47413947D01*
X180859794Y-47506773D01*
X180859785Y-47506777D01*
X180783392Y-47550883D01*
X180671066Y-47615735D01*
X180649706Y-47628067D01*
X180457263Y-47775733D01*
X180457256Y-47775739D01*
X180285739Y-47947256D01*
X180285733Y-47947263D01*
X180138067Y-48139706D01*
X180138064Y-48139710D01*
X180138064Y-48139711D01*
X180133468Y-48147671D01*
X180016777Y-48349785D01*
X180016773Y-48349794D01*
X179923947Y-48573895D01*
X179861161Y-48808214D01*
X179829500Y-49048711D01*
X131426530Y-49048711D01*
X131406757Y-48923872D01*
X131406757Y-48923869D01*
X131341095Y-48721782D01*
X131244624Y-48532449D01*
X131205270Y-48478282D01*
X131205269Y-48478282D01*
X130572962Y-49110590D01*
X130555925Y-49047007D01*
X130490099Y-48932993D01*
X130397007Y-48839901D01*
X130282993Y-48774075D01*
X130219409Y-48757037D01*
X130851716Y-48124728D01*
X130797550Y-48085375D01*
X130608217Y-47988904D01*
X130406129Y-47923242D01*
X130196246Y-47890000D01*
X129983754Y-47890000D01*
X129773872Y-47923242D01*
X129773869Y-47923242D01*
X129571782Y-47988904D01*
X129382439Y-48085380D01*
X129328282Y-48124727D01*
X129328282Y-48124728D01*
X129960591Y-48757037D01*
X129897007Y-48774075D01*
X129782993Y-48839901D01*
X129689901Y-48932993D01*
X129624075Y-49047007D01*
X129607037Y-49110591D01*
X128936818Y-48440372D01*
X128903333Y-48379049D01*
X128903330Y-48379036D01*
X128900499Y-48366015D01*
X128900499Y-48342128D01*
X128894091Y-48282517D01*
X128859508Y-48189794D01*
X128843798Y-48147673D01*
X128843793Y-48147664D01*
X128757547Y-48032455D01*
X128757544Y-48032452D01*
X128642335Y-47946206D01*
X128642328Y-47946202D01*
X128507482Y-47895908D01*
X128507483Y-47895908D01*
X128447883Y-47889501D01*
X128447881Y-47889500D01*
X128447873Y-47889500D01*
X128447864Y-47889500D01*
X126652129Y-47889500D01*
X126652123Y-47889501D01*
X126592516Y-47895908D01*
X126457671Y-47946202D01*
X126457664Y-47946206D01*
X126342455Y-48032452D01*
X126342452Y-48032455D01*
X126256206Y-48147664D01*
X126256202Y-48147671D01*
X126205908Y-48282517D01*
X126199501Y-48342116D01*
X126199500Y-48342135D01*
X100336328Y-48342135D01*
X100327028Y-48319684D01*
X100273224Y-48189788D01*
X100151936Y-47979711D01*
X100004265Y-47787262D01*
X100004260Y-47787256D01*
X99832743Y-47615739D01*
X99832736Y-47615733D01*
X99640293Y-47468067D01*
X99640292Y-47468066D01*
X99640289Y-47468064D01*
X99430212Y-47346776D01*
X99430205Y-47346773D01*
X99206104Y-47253947D01*
X98971785Y-47191161D01*
X98731289Y-47159500D01*
X98731288Y-47159500D01*
X98488712Y-47159500D01*
X98488711Y-47159500D01*
X98248214Y-47191161D01*
X98013895Y-47253947D01*
X97789794Y-47346773D01*
X97789785Y-47346777D01*
X97579706Y-47468067D01*
X97387263Y-47615733D01*
X97387256Y-47615739D01*
X97215739Y-47787256D01*
X97215733Y-47787263D01*
X97068067Y-47979706D01*
X96946777Y-48189785D01*
X96946773Y-48189794D01*
X96853947Y-48413895D01*
X96791161Y-48648214D01*
X96759500Y-48888711D01*
X94862462Y-48888711D01*
X94863112Y-48876885D01*
X94863611Y-48872364D01*
X94863614Y-48872354D01*
X94862364Y-48812865D01*
X94862338Y-48810419D01*
X94862337Y-48805088D01*
X94862400Y-48801145D01*
X94863263Y-48774075D01*
X94873154Y-48463571D01*
X94874262Y-48450527D01*
X94875668Y-48440372D01*
X94920389Y-48117200D01*
X94922866Y-48104342D01*
X94927572Y-48085375D01*
X95003900Y-47777711D01*
X95007719Y-47765191D01*
X95040106Y-47676148D01*
X95122747Y-47448937D01*
X95127853Y-47436916D01*
X95275606Y-47134535D01*
X95281952Y-47123118D01*
X95460772Y-46838011D01*
X95468291Y-46827322D01*
X95676181Y-46562667D01*
X95684782Y-46552834D01*
X95919425Y-46311585D01*
X95929023Y-46302706D01*
X96187813Y-46087541D01*
X96198275Y-46079739D01*
X96478300Y-45893079D01*
X96489551Y-45886409D01*
X96787692Y-45730329D01*
X96799598Y-45724877D01*
X96829508Y-45713048D01*
X97112544Y-45601109D01*
X97124938Y-45596951D01*
X97449197Y-45506880D01*
X97461949Y-45504053D01*
X97793900Y-45448684D01*
X97806888Y-45447217D01*
X98145517Y-45427007D01*
X98152838Y-45426788D01*
X181797002Y-45426527D01*
X181804596Y-45426760D01*
G37*
%TD.AperFunction*%
%TD*%
M02*
