M48
; DRILL file {KiCad 9.0.2} date 2026-07-07T18:49:57+0700
; FORMAT={-:-/ absolute / metric / decimal}
; #@! TF.CreationDate,2026-07-07T18:49:57+07:00
; #@! TF.GenerationSoftware,Kicad,Pcbnew,9.0.2
; #@! TF.FileFunction,Plated,1,2,PTH
FMAT,2
METRIC
; #@! TA.AperFunction,Plated,PTH,ComponentDrill
T1C0.800
; #@! TA.AperFunction,Plated,PTH,ComponentDrill
T2C0.900
; #@! TA.AperFunction,Plated,PTH,ComponentDrill
T3C1.000
; #@! TA.AperFunction,Plated,PTH,ComponentDrill
T4C1.020
; #@! TA.AperFunction,Plated,PTH,ComponentDrill
T5C1.100
; #@! TA.AperFunction,Plated,PTH,ComponentDrill
T6C1.270
; #@! TA.AperFunction,Plated,PTH,ComponentDrill
T7C2.700
%
G90
G05
T1
X102.38Y-104.99
X104.38Y-104.99
X130.505Y-97.5
X132.505Y-97.5
X140.67Y-107.68
X148.29Y-107.68
X148.745Y-97.59
X150.745Y-97.59
X151.56Y-107.57
X156.64Y-81.97
X156.64Y-84.51
X156.64Y-87.05
X156.64Y-89.59
X156.64Y-92.13
X156.64Y-94.67
X156.64Y-97.21
X156.64Y-99.75
X156.86Y-54.89
X156.86Y-57.43
X156.86Y-59.97
X156.86Y-62.51
X156.86Y-65.05
X156.86Y-67.59
X156.86Y-70.13
X156.86Y-72.67
X161.72Y-107.57
X169.34Y-81.97
X169.34Y-84.51
X169.34Y-87.05
X169.34Y-89.59
X169.34Y-92.13
X169.34Y-94.67
X169.34Y-97.21
X169.34Y-99.75
X169.56Y-54.89
X169.56Y-57.43
X169.56Y-59.97
X169.56Y-62.51
X169.56Y-65.05
X169.56Y-67.59
X169.56Y-70.13
X169.56Y-72.67
X175.65Y-98.638
X175.65Y-101.138
X177.21Y-56.98
X177.21Y-59.48
T2
X140.94Y-102.9
X143.48Y-102.9
T3
X127.55Y-49.24
X128.53Y-107.68
X130.09Y-49.24
X131.07Y-107.68
X133.61Y-107.68
X135.9Y-61.38
X136.15Y-107.68
X139.55Y-61.38
X143.23Y-61.38
X146.91Y-61.37
X166.28Y-107.49
X168.82Y-107.49
X171.36Y-107.49
X173.9Y-107.49
X176.82Y-68.19
X176.82Y-70.73
X176.82Y-73.27
X176.82Y-75.81
X177.25Y-85.89
X177.25Y-88.43
X177.25Y-90.97
X177.25Y-93.51
T4
X99.41Y-54.89
X99.41Y-57.43
X99.41Y-59.97
X99.41Y-62.51
X99.41Y-65.05
X99.41Y-67.59
X99.41Y-70.13
X99.41Y-72.67
X99.41Y-75.21
X99.41Y-77.75
X99.41Y-80.29
X99.41Y-82.83
X99.41Y-85.37
X99.41Y-87.91
X99.41Y-90.45
X99.41Y-92.99
X99.41Y-95.53
X99.41Y-98.07
X99.41Y-100.61
X124.81Y-54.89
X124.81Y-57.43
X124.81Y-59.97
X124.81Y-62.51
X124.81Y-65.05
X124.81Y-67.59
X124.81Y-70.13
X124.81Y-72.67
X124.81Y-75.21
X124.81Y-77.75
X124.81Y-80.29
X124.81Y-82.83
X124.81Y-85.37
X124.81Y-87.91
X124.81Y-90.45
X124.81Y-92.99
X124.81Y-95.53
X124.81Y-98.07
X124.81Y-100.61
T5
X138.19Y-94.65
X140.73Y-94.65
X143.27Y-94.65
T6
X131.4Y-85.19
X133.94Y-85.19
X136.48Y-85.19
X139.02Y-85.19
X141.56Y-85.19
X144.1Y-85.19
X146.64Y-85.19
X149.18Y-85.19
T7
X138.68Y-55.87
X143.68Y-55.87
M30
