M48
; DRILL file KiCad 10.0.4 date 2026-09-19T09:10:37
; FORMAT={-:-/ absolute / metric / decimal}
; #@! TF.CreationDate,2026-09-19T09:10:37+08:00
; #@! TF.GenerationSoftware,Kicad,Pcbnew,10.0.4
; #@! TF.FileFunction,Plated,1,2,PTH
FMAT,2
METRIC
; #@! TA.AperFunction,Plated,PTH,ComponentDrill
T1C0.800
; #@! TA.AperFunction,Plated,PTH,ComponentDrill
T2C0.900
; #@! TA.AperFunction,Plated,PTH,ComponentDrill
T3C1.000
; #@! TA.AperFunction,Plated,PTH,ComponentDrill
T4C1.016
; #@! TA.AperFunction,Plated,PTH,ComponentDrill
T5C1.020
; #@! TA.AperFunction,Plated,PTH,ComponentDrill
T6C1.270
; #@! TA.AperFunction,Plated,PTH,ComponentDrill
T7C2.700
%
G90
G05
T1
X102.38Y-104.99
X104.38Y-104.99
X130.505Y-97.5
X132.505Y-97.5
X140.67Y-107.68
X148.29Y-107.68
X148.745Y-97.59
X150.745Y-97.59
X151.56Y-107.57
X161.72Y-107.57
X175.818Y-98.5
X175.818Y-101.0
X177.318Y-57.0
X177.318Y-59.5
T2
X140.94Y-102.9
X143.48Y-102.9
T3
X127.55Y-49.24
X128.53Y-107.68
X130.09Y-49.24
X131.07Y-107.68
X133.61Y-107.68
X135.9Y-61.38
X136.15Y-107.68
X137.0Y-93.0
X139.55Y-61.38
X140.58Y-93.0
X143.23Y-61.38
X144.17Y-93.01
X146.91Y-61.37
X166.28Y-107.49
X168.82Y-107.49
X171.36Y-107.49
X173.9Y-107.49
X177.0Y-68.0
X177.0Y-70.54
X177.0Y-73.08
X177.0Y-75.62
X177.5Y-86.19
X177.5Y-88.73
X177.5Y-91.27
X177.5Y-93.81
T4
X156.5Y-82.0
X156.5Y-84.54
X156.5Y-87.08
X156.5Y-89.62
X156.5Y-92.16
X156.5Y-94.7
X156.5Y-97.24
X156.5Y-99.78
X157.15Y-55.11
X157.15Y-57.65
X157.15Y-60.19
X157.15Y-62.73
X157.15Y-65.27
X157.15Y-67.81
X157.15Y-70.35
X157.15Y-72.89
X159.04Y-82.0
X159.69Y-55.11
X160.31Y-83.651
X160.96Y-56.761
X161.58Y-82.0
X162.23Y-55.11
X169.2Y-82.0
X169.2Y-84.54
X169.2Y-87.08
X169.2Y-89.62
X169.2Y-92.16
X169.2Y-94.7
X169.2Y-97.24
X169.2Y-99.78
X169.85Y-55.11
X169.85Y-57.65
X169.85Y-60.19
X169.85Y-62.73
X169.85Y-65.27
X169.85Y-67.81
X169.85Y-70.35
X169.85Y-72.89
T5
X99.41Y-54.89
X99.41Y-57.43
X99.41Y-59.97
X99.41Y-62.51
X99.41Y-65.05
X99.41Y-67.59
X99.41Y-70.13
X99.41Y-72.67
X99.41Y-75.21
X99.41Y-77.75
X99.41Y-80.29
X99.41Y-82.83
X99.41Y-85.37
X99.41Y-87.91
X99.41Y-90.45
X99.41Y-92.99
X99.41Y-95.53
X99.41Y-98.07
X99.41Y-100.61
X124.81Y-54.89
X124.81Y-57.43
X124.81Y-59.97
X124.81Y-62.51
X124.81Y-65.05
X124.81Y-67.59
X124.81Y-70.13
X124.81Y-72.67
X124.81Y-75.21
X124.81Y-77.75
X124.81Y-80.29
X124.81Y-82.83
X124.81Y-85.37
X124.81Y-87.91
X124.81Y-90.45
X124.81Y-92.99
X124.81Y-95.53
X124.81Y-98.07
X124.81Y-100.61
T6
X131.4Y-85.19
X133.94Y-85.19
X136.48Y-85.19
X139.02Y-85.19
X141.56Y-85.19
X144.1Y-85.19
X146.64Y-85.19
X149.18Y-85.19
T7
X138.68Y-55.87
X143.68Y-55.87
M30
