%TF.GenerationSoftware,KiCad,Pcbnew,10.0.4*%
%TF.CreationDate,2026-09-19T09:10:32+08:00*%
%TF.ProjectId,Self Balancing Robot,53656c66-2042-4616-9c61-6e63696e6720,rev?*%
%TF.SameCoordinates,Original*%
%TF.FileFunction,Soldermask,Bot*%
%TF.FilePolarity,Negative*%
%FSLAX46Y46*%
G04 Gerber Fmt 4.6, Leading zero omitted, Abs format (unit mm)*
G04 Created by KiCad (PCBNEW 10.0.4) date 2026-09-19 09:10:32*
%MOMM*%
%LPD*%
G01*
G04 APERTURE LIST*
G04 Aperture macros list*
%AMRoundRect*
0 Rectangle with rounded corners*
0 $1 Rounding radius*
0 $2 $3 $4 $5 $6 $7 $8 $9 X,Y pos of 4 corners*
0 Add a 4 corners polygon primitive as box body*
4,1,4,$2,$3,$4,$5,$6,$7,$8,$9,$2,$3,0*
0 Add four circle primitives for the rounded corners*
1,1,$1+$1,$2,$3*
1,1,$1+$1,$4,$5*
1,1,$1+$1,$6,$7*
1,1,$1+$1,$8,$9*
0 Add four rect primitives between the rounded corners*
20,1,$1+$1,$2,$3,$4,$5,0*
20,1,$1+$1,$4,$5,$6,$7,0*
20,1,$1+$1,$6,$7,$8,$9,0*
20,1,$1+$1,$8,$9,$2,$3,0*%
G04 Aperture macros list end*
%ADD10R,1.700000X1.700000*%
%ADD11C,1.700000*%
%ADD12RoundRect,0.250000X-0.550000X0.550000X-0.550000X-0.550000X0.550000X-0.550000X0.550000X0.550000X0*%
%ADD13C,1.600000*%
%ADD14RoundRect,0.760000X-1.140000X-1.140000X1.140000X-1.140000X1.140000X1.140000X-1.140000X1.140000X0*%
%ADD15C,3.800000*%
%ADD16R,1.800000X1.800000*%
%ADD17C,1.800000*%
%ADD18C,3.200000*%
%ADD19RoundRect,0.102000X-0.765000X-0.765000X0.765000X-0.765000X0.765000X0.765000X-0.765000X0.765000X0*%
%ADD20C,1.734000*%
%ADD21RoundRect,0.102000X0.762000X0.762000X-0.762000X0.762000X-0.762000X-0.762000X0.762000X-0.762000X0*%
%ADD22C,1.728000*%
%ADD23RoundRect,0.250000X-0.550000X-0.550000X0.550000X-0.550000X0.550000X0.550000X-0.550000X0.550000X0*%
%ADD24RoundRect,0.250000X0.550000X0.550000X-0.550000X0.550000X-0.550000X-0.550000X0.550000X-0.550000X0*%
%ADD25C,2.109000*%
G04 APERTURE END LIST*
D10*
%TO.C,J5*%
X166280000Y-107490000D03*
D11*
X168820000Y-107490000D03*
X171360000Y-107490000D03*
X173900000Y-107490000D03*
%TD*%
D12*
%TO.C,C7*%
X175817621Y-98500000D03*
D13*
X175817621Y-101000000D03*
%TD*%
D14*
%TO.C,J3*%
X138680000Y-55870000D03*
D15*
X143680000Y-55870000D03*
%TD*%
D16*
%TO.C,D2*%
X140940000Y-102900000D03*
D17*
X143480000Y-102900000D03*
%TD*%
D10*
%TO.C,GND*%
X140580000Y-93000000D03*
%TD*%
%TO.C,J8*%
X139550000Y-61380000D03*
%TD*%
%TO.C,J10*%
X127550000Y-49240000D03*
D11*
X130090000Y-49240000D03*
%TD*%
D10*
%TO.C,15V*%
X144170000Y-93010000D03*
%TD*%
D18*
%TO.C,H2*%
X98610000Y-49010000D03*
%TD*%
D19*
%TO.C,U2*%
X99410000Y-54890000D03*
D20*
X99410000Y-57430000D03*
X99410000Y-59970000D03*
X99410000Y-62510000D03*
X99410000Y-65050000D03*
X99410000Y-67590000D03*
X99410000Y-70130000D03*
X99410000Y-72670000D03*
X99410000Y-75210000D03*
X99410000Y-77750000D03*
X99410000Y-80290000D03*
X99410000Y-82830000D03*
X99410000Y-85370000D03*
X99410000Y-87910000D03*
X99410000Y-90450000D03*
X99410000Y-92990000D03*
X99410000Y-95530000D03*
X99410000Y-98070000D03*
X99410000Y-100610000D03*
X124810000Y-100610000D03*
X124810000Y-98070000D03*
X124810000Y-95530000D03*
X124810000Y-92990000D03*
X124810000Y-90450000D03*
X124810000Y-87910000D03*
X124810000Y-85370000D03*
X124810000Y-82830000D03*
X124810000Y-80290000D03*
X124810000Y-77750000D03*
X124810000Y-75210000D03*
X124810000Y-72670000D03*
X124810000Y-70130000D03*
X124810000Y-67590000D03*
X124810000Y-65050000D03*
X124810000Y-62510000D03*
X124810000Y-59970000D03*
X124810000Y-57430000D03*
X124810000Y-54890000D03*
%TD*%
D21*
%TO.C,U3*%
X157150000Y-72890000D03*
D22*
X157150000Y-70350000D03*
X157150000Y-67810000D03*
X157150000Y-65270000D03*
X157150000Y-62730000D03*
X157150000Y-60190000D03*
X157150000Y-57650000D03*
X157150000Y-55110000D03*
D21*
X169850000Y-55110000D03*
D22*
X169850000Y-57650000D03*
X169850000Y-60190000D03*
X169850000Y-62730000D03*
X169850000Y-65270000D03*
X169850000Y-67810000D03*
X169850000Y-70350000D03*
X169850000Y-72890000D03*
X162230000Y-55110000D03*
X159690000Y-55110000D03*
X160960000Y-56761000D03*
%TD*%
D10*
%TO.C,J6*%
X128530000Y-107680000D03*
D11*
X131070000Y-107680000D03*
X133610000Y-107680000D03*
X136150000Y-107680000D03*
%TD*%
D23*
%TO.C,C2*%
X102380000Y-104990000D03*
D13*
X104380000Y-104990000D03*
%TD*%
D10*
%TO.C,J7*%
X146910000Y-61370000D03*
%TD*%
D21*
%TO.C,U4*%
X156500000Y-99780000D03*
D22*
X156500000Y-97240000D03*
X156500000Y-94700000D03*
X156500000Y-92160000D03*
X156500000Y-89620000D03*
X156500000Y-87080000D03*
X156500000Y-84540000D03*
X156500000Y-82000000D03*
D21*
X169200000Y-82000000D03*
D22*
X169200000Y-84540000D03*
X169200000Y-87080000D03*
X169200000Y-89620000D03*
X169200000Y-92160000D03*
X169200000Y-94700000D03*
X169200000Y-97240000D03*
X169200000Y-99780000D03*
X161580000Y-82000000D03*
X159040000Y-82000000D03*
X160310000Y-83651000D03*
%TD*%
D13*
%TO.C,R3*%
X148290000Y-107680000D03*
X140670000Y-107680000D03*
%TD*%
D18*
%TO.C,H4*%
X181960000Y-108110000D03*
%TD*%
%TO.C,H3*%
X181680000Y-49170000D03*
%TD*%
%TO.C,H1*%
X98110000Y-109270000D03*
%TD*%
D24*
%TO.C,C6*%
X150745113Y-97590000D03*
D13*
X148745113Y-97590000D03*
%TD*%
D10*
%TO.C,J14*%
X177500000Y-86190000D03*
D11*
X177500000Y-88730000D03*
X177500000Y-91270000D03*
X177500000Y-93810000D03*
%TD*%
D10*
%TO.C,J13*%
X177000000Y-68000000D03*
D11*
X177000000Y-70540000D03*
X177000000Y-73080000D03*
X177000000Y-75620000D03*
%TD*%
D24*
%TO.C,D1*%
X161720000Y-107570000D03*
D13*
X151560000Y-107570000D03*
%TD*%
D12*
%TO.C,C8*%
X177317621Y-57000000D03*
D13*
X177317621Y-59500000D03*
%TD*%
D10*
%TO.C,5V*%
X137000000Y-93000000D03*
%TD*%
D23*
%TO.C,C5*%
X130504888Y-97500000D03*
D13*
X132504888Y-97500000D03*
%TD*%
D10*
%TO.C,J9*%
X135900000Y-61380000D03*
%TD*%
D18*
%TO.C,U1*%
X132230000Y-73430000D03*
X148350000Y-73430000D03*
D25*
X146640000Y-85190000D03*
X133940000Y-85190000D03*
X149180000Y-85190000D03*
X136480000Y-85190000D03*
X139020000Y-85190000D03*
X131400000Y-85190000D03*
X144100000Y-85190000D03*
X141560000Y-85190000D03*
%TD*%
D10*
%TO.C,J4*%
X143230000Y-61380000D03*
%TD*%
M02*
