%TF.GenerationSoftware,KiCad,Pcbnew,9.0.2*%
%TF.CreationDate,2026-07-07T18:50:56+07:00*%
%TF.ProjectId,Self Balancing Robot,53656c66-2042-4616-9c61-6e63696e6720,rev?*%
%TF.SameCoordinates,Original*%
%TF.FileFunction,Legend,Top*%
%TF.FilePolarity,Positive*%
%FSLAX46Y46*%
G04 Gerber Fmt 4.6, Leading zero omitted, Abs format (unit mm)*
G04 Created by KiCad (PCBNEW 9.0.2) date 2026-07-07 18:50:56*
%MOMM*%
%LPD*%
G01*
G04 APERTURE LIST*
%ADD10C,0.075000*%
%ADD11C,0.100000*%
%ADD12C,0.150000*%
%ADD13C,0.125000*%
%ADD14C,0.120000*%
%ADD15C,0.127000*%
%ADD16C,0.200000*%
G04 APERTURE END LIST*
D10*
X146466484Y-59542671D02*
X146123627Y-59542671D01*
X146295056Y-59542671D02*
X146295056Y-58942671D01*
X146295056Y-58942671D02*
X146237913Y-59028385D01*
X146237913Y-59028385D02*
X146180770Y-59085528D01*
X146180770Y-59085528D02*
X146123627Y-59114100D01*
X147009342Y-58942671D02*
X146723628Y-58942671D01*
X146723628Y-58942671D02*
X146695056Y-59228385D01*
X146695056Y-59228385D02*
X146723628Y-59199814D01*
X146723628Y-59199814D02*
X146780771Y-59171242D01*
X146780771Y-59171242D02*
X146923628Y-59171242D01*
X146923628Y-59171242D02*
X146980771Y-59199814D01*
X146980771Y-59199814D02*
X147009342Y-59228385D01*
X147009342Y-59228385D02*
X147037913Y-59285528D01*
X147037913Y-59285528D02*
X147037913Y-59428385D01*
X147037913Y-59428385D02*
X147009342Y-59485528D01*
X147009342Y-59485528D02*
X146980771Y-59514100D01*
X146980771Y-59514100D02*
X146923628Y-59542671D01*
X146923628Y-59542671D02*
X146780771Y-59542671D01*
X146780771Y-59542671D02*
X146723628Y-59514100D01*
X146723628Y-59514100D02*
X146695056Y-59485528D01*
X147209342Y-58942671D02*
X147409342Y-59542671D01*
X147409342Y-59542671D02*
X147609342Y-58942671D01*
X135316484Y-58941242D02*
X135259342Y-58912671D01*
X135259342Y-58912671D02*
X135173627Y-58912671D01*
X135173627Y-58912671D02*
X135087913Y-58941242D01*
X135087913Y-58941242D02*
X135030770Y-58998385D01*
X135030770Y-58998385D02*
X135002199Y-59055528D01*
X135002199Y-59055528D02*
X134973627Y-59169814D01*
X134973627Y-59169814D02*
X134973627Y-59255528D01*
X134973627Y-59255528D02*
X135002199Y-59369814D01*
X135002199Y-59369814D02*
X135030770Y-59426957D01*
X135030770Y-59426957D02*
X135087913Y-59484100D01*
X135087913Y-59484100D02*
X135173627Y-59512671D01*
X135173627Y-59512671D02*
X135230770Y-59512671D01*
X135230770Y-59512671D02*
X135316484Y-59484100D01*
X135316484Y-59484100D02*
X135345056Y-59455528D01*
X135345056Y-59455528D02*
X135345056Y-59255528D01*
X135345056Y-59255528D02*
X135230770Y-59255528D01*
X135602199Y-59512671D02*
X135602199Y-58912671D01*
X135602199Y-58912671D02*
X135945056Y-59512671D01*
X135945056Y-59512671D02*
X135945056Y-58912671D01*
X136230770Y-59512671D02*
X136230770Y-58912671D01*
X136230770Y-58912671D02*
X136373627Y-58912671D01*
X136373627Y-58912671D02*
X136459341Y-58941242D01*
X136459341Y-58941242D02*
X136516484Y-58998385D01*
X136516484Y-58998385D02*
X136545055Y-59055528D01*
X136545055Y-59055528D02*
X136573627Y-59169814D01*
X136573627Y-59169814D02*
X136573627Y-59255528D01*
X136573627Y-59255528D02*
X136545055Y-59369814D01*
X136545055Y-59369814D02*
X136516484Y-59426957D01*
X136516484Y-59426957D02*
X136459341Y-59484100D01*
X136459341Y-59484100D02*
X136373627Y-59512671D01*
X136373627Y-59512671D02*
X136230770Y-59512671D01*
X139507913Y-59042671D02*
X139222199Y-59042671D01*
X139222199Y-59042671D02*
X139193627Y-59328385D01*
X139193627Y-59328385D02*
X139222199Y-59299814D01*
X139222199Y-59299814D02*
X139279342Y-59271242D01*
X139279342Y-59271242D02*
X139422199Y-59271242D01*
X139422199Y-59271242D02*
X139479342Y-59299814D01*
X139479342Y-59299814D02*
X139507913Y-59328385D01*
X139507913Y-59328385D02*
X139536484Y-59385528D01*
X139536484Y-59385528D02*
X139536484Y-59528385D01*
X139536484Y-59528385D02*
X139507913Y-59585528D01*
X139507913Y-59585528D02*
X139479342Y-59614100D01*
X139479342Y-59614100D02*
X139422199Y-59642671D01*
X139422199Y-59642671D02*
X139279342Y-59642671D01*
X139279342Y-59642671D02*
X139222199Y-59614100D01*
X139222199Y-59614100D02*
X139193627Y-59585528D01*
X139707913Y-59042671D02*
X139907913Y-59642671D01*
X139907913Y-59642671D02*
X140107913Y-59042671D01*
D11*
X138542857Y-125937419D02*
X138733333Y-125937419D01*
X138733333Y-125937419D02*
X138828571Y-125889800D01*
X138828571Y-125889800D02*
X138876190Y-125842180D01*
X138876190Y-125842180D02*
X138971428Y-125699323D01*
X138971428Y-125699323D02*
X139019047Y-125508847D01*
X139019047Y-125508847D02*
X139019047Y-125127895D01*
X139019047Y-125127895D02*
X138971428Y-125032657D01*
X138971428Y-125032657D02*
X138923809Y-124985038D01*
X138923809Y-124985038D02*
X138828571Y-124937419D01*
X138828571Y-124937419D02*
X138638095Y-124937419D01*
X138638095Y-124937419D02*
X138542857Y-124985038D01*
X138542857Y-124985038D02*
X138495238Y-125032657D01*
X138495238Y-125032657D02*
X138447619Y-125127895D01*
X138447619Y-125127895D02*
X138447619Y-125365990D01*
X138447619Y-125365990D02*
X138495238Y-125461228D01*
X138495238Y-125461228D02*
X138542857Y-125508847D01*
X138542857Y-125508847D02*
X138638095Y-125556466D01*
X138638095Y-125556466D02*
X138828571Y-125556466D01*
X138828571Y-125556466D02*
X138923809Y-125508847D01*
X138923809Y-125508847D02*
X138971428Y-125461228D01*
X138971428Y-125461228D02*
X139019047Y-125365990D01*
X139971428Y-125937419D02*
X139400000Y-125937419D01*
X139685714Y-125937419D02*
X139685714Y-124937419D01*
X139685714Y-124937419D02*
X139590476Y-125080276D01*
X139590476Y-125080276D02*
X139495238Y-125175514D01*
X139495238Y-125175514D02*
X139400000Y-125223133D01*
X140400000Y-125842180D02*
X140447619Y-125889800D01*
X140447619Y-125889800D02*
X140400000Y-125937419D01*
X140400000Y-125937419D02*
X140352381Y-125889800D01*
X140352381Y-125889800D02*
X140400000Y-125842180D01*
X140400000Y-125842180D02*
X140400000Y-125937419D01*
X141019047Y-125365990D02*
X140923809Y-125318371D01*
X140923809Y-125318371D02*
X140876190Y-125270752D01*
X140876190Y-125270752D02*
X140828571Y-125175514D01*
X140828571Y-125175514D02*
X140828571Y-125127895D01*
X140828571Y-125127895D02*
X140876190Y-125032657D01*
X140876190Y-125032657D02*
X140923809Y-124985038D01*
X140923809Y-124985038D02*
X141019047Y-124937419D01*
X141019047Y-124937419D02*
X141209523Y-124937419D01*
X141209523Y-124937419D02*
X141304761Y-124985038D01*
X141304761Y-124985038D02*
X141352380Y-125032657D01*
X141352380Y-125032657D02*
X141399999Y-125127895D01*
X141399999Y-125127895D02*
X141399999Y-125175514D01*
X141399999Y-125175514D02*
X141352380Y-125270752D01*
X141352380Y-125270752D02*
X141304761Y-125318371D01*
X141304761Y-125318371D02*
X141209523Y-125365990D01*
X141209523Y-125365990D02*
X141019047Y-125365990D01*
X141019047Y-125365990D02*
X140923809Y-125413609D01*
X140923809Y-125413609D02*
X140876190Y-125461228D01*
X140876190Y-125461228D02*
X140828571Y-125556466D01*
X140828571Y-125556466D02*
X140828571Y-125746942D01*
X140828571Y-125746942D02*
X140876190Y-125842180D01*
X140876190Y-125842180D02*
X140923809Y-125889800D01*
X140923809Y-125889800D02*
X141019047Y-125937419D01*
X141019047Y-125937419D02*
X141209523Y-125937419D01*
X141209523Y-125937419D02*
X141304761Y-125889800D01*
X141304761Y-125889800D02*
X141352380Y-125842180D01*
X141352380Y-125842180D02*
X141399999Y-125746942D01*
X141399999Y-125746942D02*
X141399999Y-125556466D01*
X141399999Y-125556466D02*
X141352380Y-125461228D01*
X141352380Y-125461228D02*
X141304761Y-125413609D01*
X141304761Y-125413609D02*
X141209523Y-125365990D01*
X142257142Y-125270752D02*
X142257142Y-125937419D01*
X142019047Y-124889800D02*
X141780952Y-125604085D01*
X141780952Y-125604085D02*
X142399999Y-125604085D01*
X186320000Y-103780000D02*
X186320000Y-127166420D01*
X94480000Y-127166420D02*
X94480000Y-104010000D01*
X186320000Y-126580000D02*
X94480000Y-126580000D01*
X186320000Y-126580000D02*
X185193496Y-127166421D01*
X186320000Y-126580000D02*
X185193496Y-125993579D01*
X94480000Y-126580000D02*
X95606504Y-125993579D01*
X94480000Y-126580000D02*
X95606504Y-127166421D01*
X218437419Y-80431190D02*
X218437419Y-80621666D01*
X218437419Y-80621666D02*
X218485038Y-80716904D01*
X218485038Y-80716904D02*
X218532657Y-80764523D01*
X218532657Y-80764523D02*
X218675514Y-80859761D01*
X218675514Y-80859761D02*
X218865990Y-80907380D01*
X218865990Y-80907380D02*
X219246942Y-80907380D01*
X219246942Y-80907380D02*
X219342180Y-80859761D01*
X219342180Y-80859761D02*
X219389800Y-80812142D01*
X219389800Y-80812142D02*
X219437419Y-80716904D01*
X219437419Y-80716904D02*
X219437419Y-80526428D01*
X219437419Y-80526428D02*
X219389800Y-80431190D01*
X219389800Y-80431190D02*
X219342180Y-80383571D01*
X219342180Y-80383571D02*
X219246942Y-80335952D01*
X219246942Y-80335952D02*
X219008847Y-80335952D01*
X219008847Y-80335952D02*
X218913609Y-80383571D01*
X218913609Y-80383571D02*
X218865990Y-80431190D01*
X218865990Y-80431190D02*
X218818371Y-80526428D01*
X218818371Y-80526428D02*
X218818371Y-80716904D01*
X218818371Y-80716904D02*
X218865990Y-80812142D01*
X218865990Y-80812142D02*
X218913609Y-80859761D01*
X218913609Y-80859761D02*
X219008847Y-80907380D01*
X218437419Y-80002618D02*
X218437419Y-79335952D01*
X218437419Y-79335952D02*
X219437419Y-79764523D01*
X219342180Y-78954999D02*
X219389800Y-78907380D01*
X219389800Y-78907380D02*
X219437419Y-78954999D01*
X219437419Y-78954999D02*
X219389800Y-79002618D01*
X219389800Y-79002618D02*
X219342180Y-78954999D01*
X219342180Y-78954999D02*
X219437419Y-78954999D01*
X218865990Y-78335952D02*
X218818371Y-78431190D01*
X218818371Y-78431190D02*
X218770752Y-78478809D01*
X218770752Y-78478809D02*
X218675514Y-78526428D01*
X218675514Y-78526428D02*
X218627895Y-78526428D01*
X218627895Y-78526428D02*
X218532657Y-78478809D01*
X218532657Y-78478809D02*
X218485038Y-78431190D01*
X218485038Y-78431190D02*
X218437419Y-78335952D01*
X218437419Y-78335952D02*
X218437419Y-78145476D01*
X218437419Y-78145476D02*
X218485038Y-78050238D01*
X218485038Y-78050238D02*
X218532657Y-78002619D01*
X218532657Y-78002619D02*
X218627895Y-77955000D01*
X218627895Y-77955000D02*
X218675514Y-77955000D01*
X218675514Y-77955000D02*
X218770752Y-78002619D01*
X218770752Y-78002619D02*
X218818371Y-78050238D01*
X218818371Y-78050238D02*
X218865990Y-78145476D01*
X218865990Y-78145476D02*
X218865990Y-78335952D01*
X218865990Y-78335952D02*
X218913609Y-78431190D01*
X218913609Y-78431190D02*
X218961228Y-78478809D01*
X218961228Y-78478809D02*
X219056466Y-78526428D01*
X219056466Y-78526428D02*
X219246942Y-78526428D01*
X219246942Y-78526428D02*
X219342180Y-78478809D01*
X219342180Y-78478809D02*
X219389800Y-78431190D01*
X219389800Y-78431190D02*
X219437419Y-78335952D01*
X219437419Y-78335952D02*
X219437419Y-78145476D01*
X219437419Y-78145476D02*
X219389800Y-78050238D01*
X219389800Y-78050238D02*
X219342180Y-78002619D01*
X219342180Y-78002619D02*
X219246942Y-77955000D01*
X219246942Y-77955000D02*
X219056466Y-77955000D01*
X219056466Y-77955000D02*
X218961228Y-78002619D01*
X218961228Y-78002619D02*
X218913609Y-78050238D01*
X218913609Y-78050238D02*
X218865990Y-78145476D01*
X218437419Y-77050238D02*
X218437419Y-77526428D01*
X218437419Y-77526428D02*
X218913609Y-77574047D01*
X218913609Y-77574047D02*
X218865990Y-77526428D01*
X218865990Y-77526428D02*
X218818371Y-77431190D01*
X218818371Y-77431190D02*
X218818371Y-77193095D01*
X218818371Y-77193095D02*
X218865990Y-77097857D01*
X218865990Y-77097857D02*
X218913609Y-77050238D01*
X218913609Y-77050238D02*
X219008847Y-77002619D01*
X219008847Y-77002619D02*
X219246942Y-77002619D01*
X219246942Y-77002619D02*
X219342180Y-77050238D01*
X219342180Y-77050238D02*
X219389800Y-77097857D01*
X219389800Y-77097857D02*
X219437419Y-77193095D01*
X219437419Y-77193095D02*
X219437419Y-77431190D01*
X219437419Y-77431190D02*
X219389800Y-77526428D01*
X219389800Y-77526428D02*
X219342180Y-77574047D01*
X169220000Y-112880000D02*
X220666420Y-112880000D01*
X220666420Y-45030000D02*
X169470000Y-45030000D01*
X220080000Y-112880000D02*
X220080000Y-45030000D01*
X220080000Y-112880000D02*
X219493579Y-111753496D01*
X220080000Y-112880000D02*
X220666421Y-111753496D01*
X220080000Y-45030000D02*
X220666421Y-46156504D01*
X220080000Y-45030000D02*
X219493579Y-46156504D01*
D12*
X163354819Y-107823333D02*
X164069104Y-107823333D01*
X164069104Y-107823333D02*
X164211961Y-107870952D01*
X164211961Y-107870952D02*
X164307200Y-107966190D01*
X164307200Y-107966190D02*
X164354819Y-108109047D01*
X164354819Y-108109047D02*
X164354819Y-108204285D01*
X163354819Y-106870952D02*
X163354819Y-107347142D01*
X163354819Y-107347142D02*
X163831009Y-107394761D01*
X163831009Y-107394761D02*
X163783390Y-107347142D01*
X163783390Y-107347142D02*
X163735771Y-107251904D01*
X163735771Y-107251904D02*
X163735771Y-107013809D01*
X163735771Y-107013809D02*
X163783390Y-106918571D01*
X163783390Y-106918571D02*
X163831009Y-106870952D01*
X163831009Y-106870952D02*
X163926247Y-106823333D01*
X163926247Y-106823333D02*
X164164342Y-106823333D01*
X164164342Y-106823333D02*
X164259580Y-106870952D01*
X164259580Y-106870952D02*
X164307200Y-106918571D01*
X164307200Y-106918571D02*
X164354819Y-107013809D01*
X164354819Y-107013809D02*
X164354819Y-107251904D01*
X164354819Y-107251904D02*
X164307200Y-107347142D01*
X164307200Y-107347142D02*
X164259580Y-107394761D01*
X139968095Y-98204819D02*
X139968095Y-99014342D01*
X139968095Y-99014342D02*
X140015714Y-99109580D01*
X140015714Y-99109580D02*
X140063333Y-99157200D01*
X140063333Y-99157200D02*
X140158571Y-99204819D01*
X140158571Y-99204819D02*
X140349047Y-99204819D01*
X140349047Y-99204819D02*
X140444285Y-99157200D01*
X140444285Y-99157200D02*
X140491904Y-99109580D01*
X140491904Y-99109580D02*
X140539523Y-99014342D01*
X140539523Y-99014342D02*
X140539523Y-98204819D01*
X141491904Y-98204819D02*
X141015714Y-98204819D01*
X141015714Y-98204819D02*
X140968095Y-98681009D01*
X140968095Y-98681009D02*
X141015714Y-98633390D01*
X141015714Y-98633390D02*
X141110952Y-98585771D01*
X141110952Y-98585771D02*
X141349047Y-98585771D01*
X141349047Y-98585771D02*
X141444285Y-98633390D01*
X141444285Y-98633390D02*
X141491904Y-98681009D01*
X141491904Y-98681009D02*
X141539523Y-98776247D01*
X141539523Y-98776247D02*
X141539523Y-99014342D01*
X141539523Y-99014342D02*
X141491904Y-99109580D01*
X141491904Y-99109580D02*
X141444285Y-99157200D01*
X141444285Y-99157200D02*
X141349047Y-99204819D01*
X141349047Y-99204819D02*
X141110952Y-99204819D01*
X141110952Y-99204819D02*
X141015714Y-99157200D01*
X141015714Y-99157200D02*
X140968095Y-99109580D01*
X141471905Y-100394819D02*
X141471905Y-99394819D01*
X141471905Y-99394819D02*
X141710000Y-99394819D01*
X141710000Y-99394819D02*
X141852857Y-99442438D01*
X141852857Y-99442438D02*
X141948095Y-99537676D01*
X141948095Y-99537676D02*
X141995714Y-99632914D01*
X141995714Y-99632914D02*
X142043333Y-99823390D01*
X142043333Y-99823390D02*
X142043333Y-99966247D01*
X142043333Y-99966247D02*
X141995714Y-100156723D01*
X141995714Y-100156723D02*
X141948095Y-100251961D01*
X141948095Y-100251961D02*
X141852857Y-100347200D01*
X141852857Y-100347200D02*
X141710000Y-100394819D01*
X141710000Y-100394819D02*
X141471905Y-100394819D01*
X142424286Y-99490057D02*
X142471905Y-99442438D01*
X142471905Y-99442438D02*
X142567143Y-99394819D01*
X142567143Y-99394819D02*
X142805238Y-99394819D01*
X142805238Y-99394819D02*
X142900476Y-99442438D01*
X142900476Y-99442438D02*
X142948095Y-99490057D01*
X142948095Y-99490057D02*
X142995714Y-99585295D01*
X142995714Y-99585295D02*
X142995714Y-99680533D01*
X142995714Y-99680533D02*
X142948095Y-99823390D01*
X142948095Y-99823390D02*
X142376667Y-100394819D01*
X142376667Y-100394819D02*
X142995714Y-100394819D01*
X162495714Y-75379104D02*
X162971904Y-75379104D01*
X162400476Y-75664819D02*
X162733809Y-74664819D01*
X162733809Y-74664819D02*
X163067142Y-75664819D01*
X163924285Y-75664819D02*
X163352857Y-75664819D01*
X163638571Y-75664819D02*
X163638571Y-74664819D01*
X163638571Y-74664819D02*
X163543333Y-74807676D01*
X163543333Y-74807676D02*
X163448095Y-74902914D01*
X163448095Y-74902914D02*
X163352857Y-74950533D01*
X124624819Y-50049523D02*
X125339104Y-50049523D01*
X125339104Y-50049523D02*
X125481961Y-50097142D01*
X125481961Y-50097142D02*
X125577200Y-50192380D01*
X125577200Y-50192380D02*
X125624819Y-50335237D01*
X125624819Y-50335237D02*
X125624819Y-50430475D01*
X125624819Y-49049523D02*
X125624819Y-49620951D01*
X125624819Y-49335237D02*
X124624819Y-49335237D01*
X124624819Y-49335237D02*
X124767676Y-49430475D01*
X124767676Y-49430475D02*
X124862914Y-49525713D01*
X124862914Y-49525713D02*
X124910533Y-49620951D01*
X124624819Y-48430475D02*
X124624819Y-48335237D01*
X124624819Y-48335237D02*
X124672438Y-48239999D01*
X124672438Y-48239999D02*
X124720057Y-48192380D01*
X124720057Y-48192380D02*
X124815295Y-48144761D01*
X124815295Y-48144761D02*
X125005771Y-48097142D01*
X125005771Y-48097142D02*
X125243866Y-48097142D01*
X125243866Y-48097142D02*
X125434342Y-48144761D01*
X125434342Y-48144761D02*
X125529580Y-48192380D01*
X125529580Y-48192380D02*
X125577200Y-48239999D01*
X125577200Y-48239999D02*
X125624819Y-48335237D01*
X125624819Y-48335237D02*
X125624819Y-48430475D01*
X125624819Y-48430475D02*
X125577200Y-48525713D01*
X125577200Y-48525713D02*
X125529580Y-48573332D01*
X125529580Y-48573332D02*
X125434342Y-48620951D01*
X125434342Y-48620951D02*
X125243866Y-48668570D01*
X125243866Y-48668570D02*
X125005771Y-48668570D01*
X125005771Y-48668570D02*
X124815295Y-48620951D01*
X124815295Y-48620951D02*
X124720057Y-48573332D01*
X124720057Y-48573332D02*
X124672438Y-48525713D01*
X124672438Y-48525713D02*
X124624819Y-48430475D01*
X176486666Y-77644819D02*
X176486666Y-78359104D01*
X176486666Y-78359104D02*
X176439047Y-78501961D01*
X176439047Y-78501961D02*
X176343809Y-78597200D01*
X176343809Y-78597200D02*
X176200952Y-78644819D01*
X176200952Y-78644819D02*
X176105714Y-78644819D01*
X177486666Y-78644819D02*
X176915238Y-78644819D01*
X177200952Y-78644819D02*
X177200952Y-77644819D01*
X177200952Y-77644819D02*
X177105714Y-77787676D01*
X177105714Y-77787676D02*
X177010476Y-77882914D01*
X177010476Y-77882914D02*
X176915238Y-77930533D01*
X100553095Y-45444819D02*
X100553095Y-46254342D01*
X100553095Y-46254342D02*
X100600714Y-46349580D01*
X100600714Y-46349580D02*
X100648333Y-46397200D01*
X100648333Y-46397200D02*
X100743571Y-46444819D01*
X100743571Y-46444819D02*
X100934047Y-46444819D01*
X100934047Y-46444819D02*
X101029285Y-46397200D01*
X101029285Y-46397200D02*
X101076904Y-46349580D01*
X101076904Y-46349580D02*
X101124523Y-46254342D01*
X101124523Y-46254342D02*
X101124523Y-45444819D01*
X101553095Y-45540057D02*
X101600714Y-45492438D01*
X101600714Y-45492438D02*
X101695952Y-45444819D01*
X101695952Y-45444819D02*
X101934047Y-45444819D01*
X101934047Y-45444819D02*
X102029285Y-45492438D01*
X102029285Y-45492438D02*
X102076904Y-45540057D01*
X102076904Y-45540057D02*
X102124523Y-45635295D01*
X102124523Y-45635295D02*
X102124523Y-45730533D01*
X102124523Y-45730533D02*
X102076904Y-45873390D01*
X102076904Y-45873390D02*
X101505476Y-46444819D01*
X101505476Y-46444819D02*
X102124523Y-46444819D01*
X162275714Y-102459104D02*
X162751904Y-102459104D01*
X162180476Y-102744819D02*
X162513809Y-101744819D01*
X162513809Y-101744819D02*
X162847142Y-102744819D01*
X163132857Y-101840057D02*
X163180476Y-101792438D01*
X163180476Y-101792438D02*
X163275714Y-101744819D01*
X163275714Y-101744819D02*
X163513809Y-101744819D01*
X163513809Y-101744819D02*
X163609047Y-101792438D01*
X163609047Y-101792438D02*
X163656666Y-101840057D01*
X163656666Y-101840057D02*
X163704285Y-101935295D01*
X163704285Y-101935295D02*
X163704285Y-102030533D01*
X163704285Y-102030533D02*
X163656666Y-102173390D01*
X163656666Y-102173390D02*
X163085238Y-102744819D01*
X163085238Y-102744819D02*
X163704285Y-102744819D01*
X125604819Y-108013333D02*
X126319104Y-108013333D01*
X126319104Y-108013333D02*
X126461961Y-108060952D01*
X126461961Y-108060952D02*
X126557200Y-108156190D01*
X126557200Y-108156190D02*
X126604819Y-108299047D01*
X126604819Y-108299047D02*
X126604819Y-108394285D01*
X125604819Y-107108571D02*
X125604819Y-107299047D01*
X125604819Y-107299047D02*
X125652438Y-107394285D01*
X125652438Y-107394285D02*
X125700057Y-107441904D01*
X125700057Y-107441904D02*
X125842914Y-107537142D01*
X125842914Y-107537142D02*
X126033390Y-107584761D01*
X126033390Y-107584761D02*
X126414342Y-107584761D01*
X126414342Y-107584761D02*
X126509580Y-107537142D01*
X126509580Y-107537142D02*
X126557200Y-107489523D01*
X126557200Y-107489523D02*
X126604819Y-107394285D01*
X126604819Y-107394285D02*
X126604819Y-107203809D01*
X126604819Y-107203809D02*
X126557200Y-107108571D01*
X126557200Y-107108571D02*
X126509580Y-107060952D01*
X126509580Y-107060952D02*
X126414342Y-107013333D01*
X126414342Y-107013333D02*
X126176247Y-107013333D01*
X126176247Y-107013333D02*
X126081009Y-107060952D01*
X126081009Y-107060952D02*
X126033390Y-107108571D01*
X126033390Y-107108571D02*
X125985771Y-107203809D01*
X125985771Y-107203809D02*
X125985771Y-107394285D01*
X125985771Y-107394285D02*
X126033390Y-107489523D01*
X126033390Y-107489523D02*
X126081009Y-107537142D01*
X126081009Y-107537142D02*
X126176247Y-107584761D01*
D13*
X106313333Y-107800880D02*
X106265714Y-107848500D01*
X106265714Y-107848500D02*
X106122857Y-107896119D01*
X106122857Y-107896119D02*
X106027619Y-107896119D01*
X106027619Y-107896119D02*
X105884762Y-107848500D01*
X105884762Y-107848500D02*
X105789524Y-107753261D01*
X105789524Y-107753261D02*
X105741905Y-107658023D01*
X105741905Y-107658023D02*
X105694286Y-107467547D01*
X105694286Y-107467547D02*
X105694286Y-107324690D01*
X105694286Y-107324690D02*
X105741905Y-107134214D01*
X105741905Y-107134214D02*
X105789524Y-107038976D01*
X105789524Y-107038976D02*
X105884762Y-106943738D01*
X105884762Y-106943738D02*
X106027619Y-106896119D01*
X106027619Y-106896119D02*
X106122857Y-106896119D01*
X106122857Y-106896119D02*
X106265714Y-106943738D01*
X106265714Y-106943738D02*
X106313333Y-106991357D01*
X106694286Y-106991357D02*
X106741905Y-106943738D01*
X106741905Y-106943738D02*
X106837143Y-106896119D01*
X106837143Y-106896119D02*
X107075238Y-106896119D01*
X107075238Y-106896119D02*
X107170476Y-106943738D01*
X107170476Y-106943738D02*
X107218095Y-106991357D01*
X107218095Y-106991357D02*
X107265714Y-107086595D01*
X107265714Y-107086595D02*
X107265714Y-107181833D01*
X107265714Y-107181833D02*
X107218095Y-107324690D01*
X107218095Y-107324690D02*
X106646667Y-107896119D01*
X106646667Y-107896119D02*
X107265714Y-107896119D01*
D12*
X144313333Y-110504819D02*
X143980000Y-110028628D01*
X143741905Y-110504819D02*
X143741905Y-109504819D01*
X143741905Y-109504819D02*
X144122857Y-109504819D01*
X144122857Y-109504819D02*
X144218095Y-109552438D01*
X144218095Y-109552438D02*
X144265714Y-109600057D01*
X144265714Y-109600057D02*
X144313333Y-109695295D01*
X144313333Y-109695295D02*
X144313333Y-109838152D01*
X144313333Y-109838152D02*
X144265714Y-109933390D01*
X144265714Y-109933390D02*
X144218095Y-109981009D01*
X144218095Y-109981009D02*
X144122857Y-110028628D01*
X144122857Y-110028628D02*
X143741905Y-110028628D01*
X144646667Y-109504819D02*
X145265714Y-109504819D01*
X145265714Y-109504819D02*
X144932381Y-109885771D01*
X144932381Y-109885771D02*
X145075238Y-109885771D01*
X145075238Y-109885771D02*
X145170476Y-109933390D01*
X145170476Y-109933390D02*
X145218095Y-109981009D01*
X145218095Y-109981009D02*
X145265714Y-110076247D01*
X145265714Y-110076247D02*
X145265714Y-110314342D01*
X145265714Y-110314342D02*
X145218095Y-110409580D01*
X145218095Y-110409580D02*
X145170476Y-110457200D01*
X145170476Y-110457200D02*
X145075238Y-110504819D01*
X145075238Y-110504819D02*
X144789524Y-110504819D01*
X144789524Y-110504819D02*
X144694286Y-110457200D01*
X144694286Y-110457200D02*
X144646667Y-110409580D01*
X181198095Y-104414819D02*
X181198095Y-103414819D01*
X181198095Y-103891009D02*
X181769523Y-103891009D01*
X181769523Y-104414819D02*
X181769523Y-103414819D01*
X182674285Y-103748152D02*
X182674285Y-104414819D01*
X182436190Y-103367200D02*
X182198095Y-104081485D01*
X182198095Y-104081485D02*
X182817142Y-104081485D01*
X180409580Y-100054287D02*
X180457200Y-100101906D01*
X180457200Y-100101906D02*
X180504819Y-100244763D01*
X180504819Y-100244763D02*
X180504819Y-100340001D01*
X180504819Y-100340001D02*
X180457200Y-100482858D01*
X180457200Y-100482858D02*
X180361961Y-100578096D01*
X180361961Y-100578096D02*
X180266723Y-100625715D01*
X180266723Y-100625715D02*
X180076247Y-100673334D01*
X180076247Y-100673334D02*
X179933390Y-100673334D01*
X179933390Y-100673334D02*
X179742914Y-100625715D01*
X179742914Y-100625715D02*
X179647676Y-100578096D01*
X179647676Y-100578096D02*
X179552438Y-100482858D01*
X179552438Y-100482858D02*
X179504819Y-100340001D01*
X179504819Y-100340001D02*
X179504819Y-100244763D01*
X179504819Y-100244763D02*
X179552438Y-100101906D01*
X179552438Y-100101906D02*
X179600057Y-100054287D01*
X179838152Y-99197144D02*
X180504819Y-99197144D01*
X179457200Y-99435239D02*
X180171485Y-99673334D01*
X180171485Y-99673334D02*
X180171485Y-99054287D01*
X97348095Y-105574819D02*
X97348095Y-104574819D01*
X97348095Y-105051009D02*
X97919523Y-105051009D01*
X97919523Y-105574819D02*
X97919523Y-104574819D01*
X98919523Y-105574819D02*
X98348095Y-105574819D01*
X98633809Y-105574819D02*
X98633809Y-104574819D01*
X98633809Y-104574819D02*
X98538571Y-104717676D01*
X98538571Y-104717676D02*
X98443333Y-104812914D01*
X98443333Y-104812914D02*
X98348095Y-104860533D01*
X149578446Y-101699580D02*
X149530827Y-101747200D01*
X149530827Y-101747200D02*
X149387970Y-101794819D01*
X149387970Y-101794819D02*
X149292732Y-101794819D01*
X149292732Y-101794819D02*
X149149875Y-101747200D01*
X149149875Y-101747200D02*
X149054637Y-101651961D01*
X149054637Y-101651961D02*
X149007018Y-101556723D01*
X149007018Y-101556723D02*
X148959399Y-101366247D01*
X148959399Y-101366247D02*
X148959399Y-101223390D01*
X148959399Y-101223390D02*
X149007018Y-101032914D01*
X149007018Y-101032914D02*
X149054637Y-100937676D01*
X149054637Y-100937676D02*
X149149875Y-100842438D01*
X149149875Y-100842438D02*
X149292732Y-100794819D01*
X149292732Y-100794819D02*
X149387970Y-100794819D01*
X149387970Y-100794819D02*
X149530827Y-100842438D01*
X149530827Y-100842438D02*
X149578446Y-100890057D01*
X150435589Y-100794819D02*
X150245113Y-100794819D01*
X150245113Y-100794819D02*
X150149875Y-100842438D01*
X150149875Y-100842438D02*
X150102256Y-100890057D01*
X150102256Y-100890057D02*
X150007018Y-101032914D01*
X150007018Y-101032914D02*
X149959399Y-101223390D01*
X149959399Y-101223390D02*
X149959399Y-101604342D01*
X149959399Y-101604342D02*
X150007018Y-101699580D01*
X150007018Y-101699580D02*
X150054637Y-101747200D01*
X150054637Y-101747200D02*
X150149875Y-101794819D01*
X150149875Y-101794819D02*
X150340351Y-101794819D01*
X150340351Y-101794819D02*
X150435589Y-101747200D01*
X150435589Y-101747200D02*
X150483208Y-101699580D01*
X150483208Y-101699580D02*
X150530827Y-101604342D01*
X150530827Y-101604342D02*
X150530827Y-101366247D01*
X150530827Y-101366247D02*
X150483208Y-101271009D01*
X150483208Y-101271009D02*
X150435589Y-101223390D01*
X150435589Y-101223390D02*
X150340351Y-101175771D01*
X150340351Y-101175771D02*
X150149875Y-101175771D01*
X150149875Y-101175771D02*
X150054637Y-101223390D01*
X150054637Y-101223390D02*
X150007018Y-101271009D01*
X150007018Y-101271009D02*
X149959399Y-101366247D01*
X155901905Y-108024819D02*
X155901905Y-107024819D01*
X155901905Y-107024819D02*
X156140000Y-107024819D01*
X156140000Y-107024819D02*
X156282857Y-107072438D01*
X156282857Y-107072438D02*
X156378095Y-107167676D01*
X156378095Y-107167676D02*
X156425714Y-107262914D01*
X156425714Y-107262914D02*
X156473333Y-107453390D01*
X156473333Y-107453390D02*
X156473333Y-107596247D01*
X156473333Y-107596247D02*
X156425714Y-107786723D01*
X156425714Y-107786723D02*
X156378095Y-107881961D01*
X156378095Y-107881961D02*
X156282857Y-107977200D01*
X156282857Y-107977200D02*
X156140000Y-108024819D01*
X156140000Y-108024819D02*
X155901905Y-108024819D01*
X157425714Y-108024819D02*
X156854286Y-108024819D01*
X157140000Y-108024819D02*
X157140000Y-107024819D01*
X157140000Y-107024819D02*
X157044762Y-107167676D01*
X157044762Y-107167676D02*
X156949524Y-107262914D01*
X156949524Y-107262914D02*
X156854286Y-107310533D01*
X161458095Y-109824819D02*
X161458095Y-108824819D01*
X162029523Y-109824819D02*
X161600952Y-109253390D01*
X162029523Y-108824819D02*
X161458095Y-109396247D01*
X181969580Y-58396666D02*
X182017200Y-58444285D01*
X182017200Y-58444285D02*
X182064819Y-58587142D01*
X182064819Y-58587142D02*
X182064819Y-58682380D01*
X182064819Y-58682380D02*
X182017200Y-58825237D01*
X182017200Y-58825237D02*
X181921961Y-58920475D01*
X181921961Y-58920475D02*
X181826723Y-58968094D01*
X181826723Y-58968094D02*
X181636247Y-59015713D01*
X181636247Y-59015713D02*
X181493390Y-59015713D01*
X181493390Y-59015713D02*
X181302914Y-58968094D01*
X181302914Y-58968094D02*
X181207676Y-58920475D01*
X181207676Y-58920475D02*
X181112438Y-58825237D01*
X181112438Y-58825237D02*
X181064819Y-58682380D01*
X181064819Y-58682380D02*
X181064819Y-58587142D01*
X181064819Y-58587142D02*
X181112438Y-58444285D01*
X181112438Y-58444285D02*
X181160057Y-58396666D01*
X181064819Y-58063332D02*
X181064819Y-57444285D01*
X181064819Y-57444285D02*
X181445771Y-57777618D01*
X181445771Y-57777618D02*
X181445771Y-57634761D01*
X181445771Y-57634761D02*
X181493390Y-57539523D01*
X181493390Y-57539523D02*
X181541009Y-57491904D01*
X181541009Y-57491904D02*
X181636247Y-57444285D01*
X181636247Y-57444285D02*
X181874342Y-57444285D01*
X181874342Y-57444285D02*
X181969580Y-57491904D01*
X181969580Y-57491904D02*
X182017200Y-57539523D01*
X182017200Y-57539523D02*
X182064819Y-57634761D01*
X182064819Y-57634761D02*
X182064819Y-57920475D01*
X182064819Y-57920475D02*
X182017200Y-58015713D01*
X182017200Y-58015713D02*
X181969580Y-58063332D01*
X131338221Y-94109580D02*
X131290602Y-94157200D01*
X131290602Y-94157200D02*
X131147745Y-94204819D01*
X131147745Y-94204819D02*
X131052507Y-94204819D01*
X131052507Y-94204819D02*
X130909650Y-94157200D01*
X130909650Y-94157200D02*
X130814412Y-94061961D01*
X130814412Y-94061961D02*
X130766793Y-93966723D01*
X130766793Y-93966723D02*
X130719174Y-93776247D01*
X130719174Y-93776247D02*
X130719174Y-93633390D01*
X130719174Y-93633390D02*
X130766793Y-93442914D01*
X130766793Y-93442914D02*
X130814412Y-93347676D01*
X130814412Y-93347676D02*
X130909650Y-93252438D01*
X130909650Y-93252438D02*
X131052507Y-93204819D01*
X131052507Y-93204819D02*
X131147745Y-93204819D01*
X131147745Y-93204819D02*
X131290602Y-93252438D01*
X131290602Y-93252438D02*
X131338221Y-93300057D01*
X132242983Y-93204819D02*
X131766793Y-93204819D01*
X131766793Y-93204819D02*
X131719174Y-93681009D01*
X131719174Y-93681009D02*
X131766793Y-93633390D01*
X131766793Y-93633390D02*
X131862031Y-93585771D01*
X131862031Y-93585771D02*
X132100126Y-93585771D01*
X132100126Y-93585771D02*
X132195364Y-93633390D01*
X132195364Y-93633390D02*
X132242983Y-93681009D01*
X132242983Y-93681009D02*
X132290602Y-93776247D01*
X132290602Y-93776247D02*
X132290602Y-94014342D01*
X132290602Y-94014342D02*
X132242983Y-94109580D01*
X132242983Y-94109580D02*
X132195364Y-94157200D01*
X132195364Y-94157200D02*
X132100126Y-94204819D01*
X132100126Y-94204819D02*
X131862031Y-94204819D01*
X131862031Y-94204819D02*
X131766793Y-94157200D01*
X131766793Y-94157200D02*
X131719174Y-94109580D01*
X127709819Y-84546904D02*
X128519342Y-84546904D01*
X128519342Y-84546904D02*
X128614580Y-84499285D01*
X128614580Y-84499285D02*
X128662200Y-84451666D01*
X128662200Y-84451666D02*
X128709819Y-84356428D01*
X128709819Y-84356428D02*
X128709819Y-84165952D01*
X128709819Y-84165952D02*
X128662200Y-84070714D01*
X128662200Y-84070714D02*
X128614580Y-84023095D01*
X128614580Y-84023095D02*
X128519342Y-83975476D01*
X128519342Y-83975476D02*
X127709819Y-83975476D01*
X128709819Y-82975476D02*
X128709819Y-83546904D01*
X128709819Y-83261190D02*
X127709819Y-83261190D01*
X127709819Y-83261190D02*
X127852676Y-83356428D01*
X127852676Y-83356428D02*
X127947914Y-83451666D01*
X127947914Y-83451666D02*
X127995533Y-83546904D01*
D14*
%TO.C,J5*%
X164900000Y-108870000D02*
X164900000Y-107490000D01*
X166280000Y-108870000D02*
X164900000Y-108870000D01*
X167550000Y-106110000D02*
X175280000Y-106110000D01*
X167550000Y-108870000D02*
X167550000Y-106110000D01*
X167550000Y-108870000D02*
X175280000Y-108870000D01*
X175280000Y-108870000D02*
X175280000Y-106110000D01*
%TO.C,U5*%
X135620000Y-97910000D02*
X135620000Y-93290000D01*
X138880000Y-97910000D02*
X138880000Y-96530000D01*
X142580000Y-97910000D02*
X142580000Y-96530000D01*
X145840000Y-93290000D02*
X135620000Y-93290000D01*
X145840000Y-96530000D02*
X135620000Y-96530000D01*
X145840000Y-97910000D02*
X135620000Y-97910000D01*
X145840000Y-97910000D02*
X145840000Y-93290000D01*
%TO.C,J3*%
X135970000Y-54460000D02*
X135970000Y-57280000D01*
X135970000Y-54460000D02*
X137670000Y-53160000D01*
X135970000Y-57280000D02*
X137670000Y-58580000D01*
X137670000Y-53160000D02*
X146390000Y-53160000D01*
X137670000Y-58580000D02*
X146390000Y-58580000D01*
X146390000Y-53160000D02*
X146390000Y-58580000D01*
%TO.C,D2*%
X140650000Y-101664000D02*
X140650000Y-101820000D01*
X140650000Y-103980000D02*
X140650000Y-104136000D01*
X140650000Y-101664484D02*
G75*
G02*
X143881437Y-101820000I1560000J-1235516D01*
G01*
X141169039Y-101820000D02*
G75*
G02*
X143250961Y-101820000I1040961J-1080000D01*
G01*
X143250961Y-103980000D02*
G75*
G02*
X141169039Y-103980000I-1040961J1080000D01*
G01*
X143881437Y-103980000D02*
G75*
G02*
X140650000Y-104135516I-1671437J1080000D01*
G01*
%TO.C,J8*%
X138170000Y-60000000D02*
X139550000Y-60000000D01*
X138170000Y-61380000D02*
X138170000Y-60000000D01*
X138170000Y-62650000D02*
X138170000Y-62760000D01*
X138170000Y-62650000D02*
X140930000Y-62650000D01*
X138170000Y-62760000D02*
X140930000Y-62760000D01*
X140930000Y-62650000D02*
X140930000Y-62760000D01*
%TO.C,A1*%
X155460000Y-53490000D02*
X155460000Y-74070000D01*
X155460000Y-74070000D02*
X168290000Y-74070000D01*
X158130000Y-74070000D02*
X158130000Y-53490000D01*
X168290000Y-71400000D02*
X168290000Y-53490000D01*
X168290000Y-71400000D02*
X170960000Y-71400000D01*
X168290000Y-74070000D02*
X168290000Y-71400000D01*
X169560000Y-74070000D02*
X170960000Y-74070000D01*
X170960000Y-53490000D02*
X155460000Y-53490000D01*
X170960000Y-71400000D02*
X170960000Y-53490000D01*
X170960000Y-74070000D02*
X170960000Y-72670000D01*
%TO.C,J10*%
X126170000Y-50620000D02*
X126170000Y-49240000D01*
X127550000Y-50620000D02*
X126170000Y-50620000D01*
X128820000Y-47860000D02*
X131470000Y-47860000D01*
X128820000Y-50620000D02*
X128820000Y-47860000D01*
X128820000Y-50620000D02*
X131470000Y-50620000D01*
X131470000Y-50620000D02*
X131470000Y-47860000D01*
%TO.C,J1*%
X175440000Y-74540000D02*
X175440000Y-66810000D01*
X178200000Y-66810000D02*
X175440000Y-66810000D01*
X178200000Y-74540000D02*
X175440000Y-74540000D01*
X178200000Y-74540000D02*
X178200000Y-66810000D01*
X178200000Y-75810000D02*
X178200000Y-77190000D01*
X178200000Y-77190000D02*
X176820000Y-77190000D01*
D15*
%TO.C,U2*%
X98160000Y-53640000D02*
X98160000Y-101840000D01*
X98160000Y-101840000D02*
X108040000Y-101840000D01*
X103110000Y-47440000D02*
X121110000Y-47440000D01*
X103110000Y-53640000D02*
X98160000Y-53640000D01*
X103110000Y-53640000D02*
X103110000Y-47440000D01*
X108040000Y-101840000D02*
X108040000Y-102740000D01*
X108040000Y-102740000D02*
X116170000Y-102740000D01*
X116170000Y-101840000D02*
X126060000Y-101840000D01*
X116170000Y-102740000D02*
X116170000Y-101840000D01*
X121110000Y-47440000D02*
X121110000Y-53640000D01*
X126060000Y-53640000D02*
X121110000Y-53640000D01*
X126060000Y-101840000D02*
X126060000Y-53640000D01*
D16*
X97640000Y-54770000D02*
G75*
G02*
X97440000Y-54770000I-100000J0D01*
G01*
X97440000Y-54770000D02*
G75*
G02*
X97640000Y-54770000I100000J0D01*
G01*
D14*
%TO.C,A2*%
X155240000Y-80570000D02*
X155240000Y-101150000D01*
X155240000Y-101150000D02*
X168070000Y-101150000D01*
X157910000Y-101150000D02*
X157910000Y-80570000D01*
X168070000Y-98480000D02*
X168070000Y-80570000D01*
X168070000Y-98480000D02*
X170740000Y-98480000D01*
X168070000Y-101150000D02*
X168070000Y-98480000D01*
X169340000Y-101150000D02*
X170740000Y-101150000D01*
X170740000Y-80570000D02*
X155240000Y-80570000D01*
X170740000Y-98480000D02*
X170740000Y-80570000D01*
X170740000Y-101150000D02*
X170740000Y-99750000D01*
%TO.C,J6*%
X127150000Y-109060000D02*
X127150000Y-107680000D01*
X128530000Y-109060000D02*
X127150000Y-109060000D01*
X129800000Y-106300000D02*
X137530000Y-106300000D01*
X129800000Y-109060000D02*
X129800000Y-106300000D01*
X129800000Y-109060000D02*
X137530000Y-109060000D01*
X137530000Y-109060000D02*
X137530000Y-106300000D01*
%TO.C,C2*%
X100575225Y-103515000D02*
X101075225Y-103515000D01*
X100825225Y-103265000D02*
X100825225Y-103765000D01*
X103380000Y-102410000D02*
X103380000Y-103950000D01*
X103380000Y-106030000D02*
X103380000Y-107570000D01*
X103420000Y-102410000D02*
X103420000Y-103950000D01*
X103420000Y-106030000D02*
X103420000Y-107570000D01*
X103460000Y-102411000D02*
X103460000Y-103950000D01*
X103460000Y-106030000D02*
X103460000Y-107569000D01*
X103500000Y-102413000D02*
X103500000Y-103950000D01*
X103500000Y-106030000D02*
X103500000Y-107567000D01*
X103540000Y-102415000D02*
X103540000Y-103950000D01*
X103540000Y-106030000D02*
X103540000Y-107565000D01*
X103580000Y-102418000D02*
X103580000Y-103950000D01*
X103580000Y-106030000D02*
X103580000Y-107562000D01*
X103620000Y-102421000D02*
X103620000Y-103950000D01*
X103620000Y-106030000D02*
X103620000Y-107559000D01*
X103660000Y-102425000D02*
X103660000Y-103950000D01*
X103660000Y-106030000D02*
X103660000Y-107555000D01*
X103700000Y-102430000D02*
X103700000Y-103950000D01*
X103700000Y-106030000D02*
X103700000Y-107550000D01*
X103740000Y-102435000D02*
X103740000Y-103950000D01*
X103740000Y-106030000D02*
X103740000Y-107545000D01*
X103780000Y-102441000D02*
X103780000Y-103950000D01*
X103780000Y-106030000D02*
X103780000Y-107539000D01*
X103820000Y-102447000D02*
X103820000Y-103950000D01*
X103820000Y-106030000D02*
X103820000Y-107533000D01*
X103860000Y-102454000D02*
X103860000Y-103950000D01*
X103860000Y-106030000D02*
X103860000Y-107526000D01*
X103900000Y-102462000D02*
X103900000Y-103950000D01*
X103900000Y-106030000D02*
X103900000Y-107518000D01*
X103940000Y-102471000D02*
X103940000Y-103950000D01*
X103940000Y-106030000D02*
X103940000Y-107509000D01*
X103980000Y-102480000D02*
X103980000Y-103950000D01*
X103980000Y-106030000D02*
X103980000Y-107500000D01*
X104020000Y-102489000D02*
X104020000Y-103950000D01*
X104020000Y-106030000D02*
X104020000Y-107491000D01*
X104060000Y-102500000D02*
X104060000Y-103950000D01*
X104060000Y-106030000D02*
X104060000Y-107480000D01*
X104100000Y-102511000D02*
X104100000Y-103950000D01*
X104100000Y-106030000D02*
X104100000Y-107469000D01*
X104140000Y-102523000D02*
X104140000Y-103950000D01*
X104140000Y-106030000D02*
X104140000Y-107457000D01*
X104180000Y-102535000D02*
X104180000Y-103950000D01*
X104180000Y-106030000D02*
X104180000Y-107445000D01*
X104220000Y-102548000D02*
X104220000Y-103950000D01*
X104220000Y-106030000D02*
X104220000Y-107432000D01*
X104260000Y-102562000D02*
X104260000Y-103950000D01*
X104260000Y-106030000D02*
X104260000Y-107418000D01*
X104300000Y-102577000D02*
X104300000Y-103950000D01*
X104300000Y-106030000D02*
X104300000Y-107403000D01*
X104340000Y-102592000D02*
X104340000Y-103950000D01*
X104340000Y-106030000D02*
X104340000Y-107388000D01*
X104380000Y-102608000D02*
X104380000Y-103950000D01*
X104380000Y-106030000D02*
X104380000Y-107372000D01*
X104420000Y-102625000D02*
X104420000Y-103950000D01*
X104420000Y-106030000D02*
X104420000Y-107355000D01*
X104460000Y-102643000D02*
X104460000Y-103950000D01*
X104460000Y-106030000D02*
X104460000Y-107337000D01*
X104500000Y-102661000D02*
X104500000Y-103950000D01*
X104500000Y-106030000D02*
X104500000Y-107319000D01*
X104540000Y-102681000D02*
X104540000Y-103950000D01*
X104540000Y-106030000D02*
X104540000Y-107299000D01*
X104580000Y-102701000D02*
X104580000Y-103950000D01*
X104580000Y-106030000D02*
X104580000Y-107279000D01*
X104620000Y-102722000D02*
X104620000Y-103950000D01*
X104620000Y-106030000D02*
X104620000Y-107258000D01*
X104660000Y-102744000D02*
X104660000Y-103950000D01*
X104660000Y-106030000D02*
X104660000Y-107236000D01*
X104700000Y-102767000D02*
X104700000Y-103950000D01*
X104700000Y-106030000D02*
X104700000Y-107213000D01*
X104740000Y-102791000D02*
X104740000Y-103950000D01*
X104740000Y-106030000D02*
X104740000Y-107189000D01*
X104780000Y-102815000D02*
X104780000Y-103950000D01*
X104780000Y-106030000D02*
X104780000Y-107165000D01*
X104820000Y-102841000D02*
X104820000Y-103950000D01*
X104820000Y-106030000D02*
X104820000Y-107139000D01*
X104860000Y-102868000D02*
X104860000Y-103950000D01*
X104860000Y-106030000D02*
X104860000Y-107112000D01*
X104900000Y-102896000D02*
X104900000Y-103950000D01*
X104900000Y-106030000D02*
X104900000Y-107084000D01*
X104940000Y-102925000D02*
X104940000Y-103950000D01*
X104940000Y-106030000D02*
X104940000Y-107055000D01*
X104980000Y-102955000D02*
X104980000Y-103950000D01*
X104980000Y-106030000D02*
X104980000Y-107025000D01*
X105020000Y-102987000D02*
X105020000Y-103950000D01*
X105020000Y-106030000D02*
X105020000Y-106993000D01*
X105060000Y-103020000D02*
X105060000Y-103950000D01*
X105060000Y-106030000D02*
X105060000Y-106960000D01*
X105100000Y-103054000D02*
X105100000Y-103950000D01*
X105100000Y-106030000D02*
X105100000Y-106926000D01*
X105140000Y-103089000D02*
X105140000Y-103950000D01*
X105140000Y-106030000D02*
X105140000Y-106891000D01*
X105180000Y-103126000D02*
X105180000Y-103950000D01*
X105180000Y-106030000D02*
X105180000Y-106854000D01*
X105220000Y-103165000D02*
X105220000Y-103950000D01*
X105220000Y-106030000D02*
X105220000Y-106815000D01*
X105260000Y-103205000D02*
X105260000Y-103950000D01*
X105260000Y-106030000D02*
X105260000Y-106775000D01*
X105300000Y-103247000D02*
X105300000Y-103950000D01*
X105300000Y-106030000D02*
X105300000Y-106733000D01*
X105340000Y-103291000D02*
X105340000Y-103950000D01*
X105340000Y-106030000D02*
X105340000Y-106689000D01*
X105380000Y-103338000D02*
X105380000Y-103950000D01*
X105380000Y-106030000D02*
X105380000Y-106642000D01*
X105420000Y-103386000D02*
X105420000Y-106594000D01*
X105460000Y-103437000D02*
X105460000Y-106543000D01*
X105500000Y-103491000D02*
X105500000Y-106489000D01*
X105540000Y-103547000D02*
X105540000Y-106433000D01*
X105580000Y-103607000D02*
X105580000Y-106373000D01*
X105620000Y-103671000D02*
X105620000Y-106309000D01*
X105660000Y-103739000D02*
X105660000Y-106241000D01*
X105700000Y-103813000D02*
X105700000Y-106167000D01*
X105740000Y-103892000D02*
X105740000Y-106088000D01*
X105780000Y-103979000D02*
X105780000Y-106001000D01*
X105820000Y-104076000D02*
X105820000Y-105904000D01*
X105860000Y-104185000D02*
X105860000Y-105795000D01*
X105900000Y-104313000D02*
X105900000Y-105667000D01*
X105940000Y-104473000D02*
X105940000Y-105507000D01*
X105980000Y-104707000D02*
X105980000Y-105273000D01*
X106000000Y-104990000D02*
G75*
G02*
X100760000Y-104990000I-2620000J0D01*
G01*
X100760000Y-104990000D02*
G75*
G02*
X106000000Y-104990000I2620000J0D01*
G01*
%TO.C,J7*%
X145530000Y-59990000D02*
X146910000Y-59990000D01*
X145530000Y-61370000D02*
X145530000Y-59990000D01*
X145530000Y-62640000D02*
X145530000Y-62750000D01*
X145530000Y-62640000D02*
X148290000Y-62640000D01*
X145530000Y-62750000D02*
X148290000Y-62750000D01*
X148290000Y-62640000D02*
X148290000Y-62750000D01*
%TO.C,R3*%
X141210000Y-106310000D02*
X141210000Y-106640000D01*
X141210000Y-109050000D02*
X141210000Y-108720000D01*
X147750000Y-106310000D02*
X141210000Y-106310000D01*
X147750000Y-106640000D02*
X147750000Y-106310000D01*
X147750000Y-108720000D02*
X147750000Y-109050000D01*
X147750000Y-109050000D02*
X141210000Y-109050000D01*
%TO.C,C4*%
X174610000Y-100127621D02*
X172429000Y-100127621D01*
X174610000Y-100167621D02*
X172432000Y-100167621D01*
X174610000Y-100207621D02*
X172436000Y-100207621D01*
X174610000Y-100247621D02*
X172440000Y-100247621D01*
X174610000Y-100287621D02*
X172445000Y-100287621D01*
X174610000Y-100327621D02*
X172450000Y-100327621D01*
X174610000Y-100367621D02*
X172455000Y-100367621D01*
X174610000Y-100407621D02*
X172462000Y-100407621D01*
X174610000Y-100447621D02*
X172468000Y-100447621D01*
X174610000Y-100487621D02*
X172476000Y-100487621D01*
X174610000Y-100527621D02*
X172483000Y-100527621D01*
X174610000Y-100567621D02*
X172491000Y-100567621D01*
X174610000Y-100607621D02*
X172500000Y-100607621D01*
X174610000Y-100647621D02*
X172510000Y-100647621D01*
X174610000Y-100687621D02*
X172519000Y-100687621D01*
X174610000Y-100727621D02*
X172530000Y-100727621D01*
X174610000Y-100767621D02*
X172541000Y-100767621D01*
X174610000Y-100807621D02*
X172552000Y-100807621D01*
X174610000Y-100847621D02*
X172564000Y-100847621D01*
X174610000Y-100887621D02*
X172577000Y-100887621D01*
X174610000Y-100927621D02*
X172590000Y-100927621D01*
X174610000Y-100967621D02*
X172603000Y-100967621D01*
X174610000Y-101007621D02*
X172618000Y-101007621D01*
X174610000Y-101047621D02*
X172633000Y-101047621D01*
X174610000Y-101087621D02*
X172648000Y-101087621D01*
X174610000Y-101127621D02*
X172664000Y-101127621D01*
X174610000Y-101167621D02*
X172681000Y-101167621D01*
X174610000Y-101207621D02*
X172698000Y-101207621D01*
X174610000Y-101247621D02*
X172716000Y-101247621D01*
X174610000Y-101287621D02*
X172735000Y-101287621D01*
X174610000Y-101327621D02*
X172754000Y-101327621D01*
X174610000Y-101367621D02*
X172774000Y-101367621D01*
X174610000Y-101407621D02*
X172795000Y-101407621D01*
X174610000Y-101447621D02*
X172816000Y-101447621D01*
X174610000Y-101487621D02*
X172838000Y-101487621D01*
X174610000Y-101527621D02*
X172861000Y-101527621D01*
X174610000Y-101567621D02*
X172885000Y-101567621D01*
X174610000Y-101607621D02*
X172909000Y-101607621D01*
X174610000Y-101647621D02*
X172934000Y-101647621D01*
X174610000Y-101687621D02*
X172960000Y-101687621D01*
X174610000Y-101727621D02*
X172987000Y-101727621D01*
X174610000Y-101767621D02*
X173014000Y-101767621D01*
X174610000Y-101807621D02*
X173043000Y-101807621D01*
X174610000Y-101847621D02*
X173073000Y-101847621D01*
X174610000Y-101887621D02*
X173103000Y-101887621D01*
X174610000Y-101927621D02*
X173134000Y-101927621D01*
X174610000Y-101967621D02*
X173167000Y-101967621D01*
X174610000Y-102007621D02*
X173200000Y-102007621D01*
X174610000Y-102047621D02*
X173235000Y-102047621D01*
X174610000Y-102087621D02*
X173271000Y-102087621D01*
X174610000Y-102127621D02*
X173308000Y-102127621D01*
X174610000Y-102167621D02*
X173346000Y-102167621D01*
X176052000Y-103127621D02*
X175248000Y-103127621D01*
X176283000Y-103087621D02*
X175017000Y-103087621D01*
X176451000Y-103047621D02*
X174849000Y-103047621D01*
X176589000Y-103007621D02*
X174711000Y-103007621D01*
X176708000Y-102967621D02*
X174592000Y-102967621D01*
X176815000Y-102927621D02*
X174485000Y-102927621D01*
X176911000Y-102887621D02*
X174389000Y-102887621D01*
X177000000Y-102847621D02*
X174300000Y-102847621D01*
X177082000Y-102807621D02*
X174218000Y-102807621D01*
X177159000Y-102767621D02*
X174141000Y-102767621D01*
X177231000Y-102727621D02*
X174069000Y-102727621D01*
X177299000Y-102687621D02*
X174001000Y-102687621D01*
X177364000Y-102647621D02*
X173936000Y-102647621D01*
X177425000Y-102607621D02*
X173875000Y-102607621D01*
X177484000Y-102567621D02*
X173816000Y-102567621D01*
X177489000Y-96387380D02*
X177489000Y-97017380D01*
X177540000Y-102527621D02*
X173760000Y-102527621D01*
X177593000Y-102487621D02*
X173707000Y-102487621D01*
X177645000Y-102447621D02*
X173655000Y-102447621D01*
X177694000Y-102407621D02*
X173606000Y-102407621D01*
X177741000Y-102367621D02*
X173559000Y-102367621D01*
X177787000Y-102327621D02*
X173513000Y-102327621D01*
X177804000Y-96702380D02*
X177174000Y-96702380D01*
X177831000Y-102287621D02*
X173469000Y-102287621D01*
X177873000Y-102247621D02*
X173427000Y-102247621D01*
X177914000Y-102207621D02*
X173386000Y-102207621D01*
X177954000Y-102167621D02*
X176690000Y-102167621D01*
X177992000Y-102127621D02*
X176690000Y-102127621D01*
X178029000Y-102087621D02*
X176690000Y-102087621D01*
X178065000Y-102047621D02*
X176690000Y-102047621D01*
X178100000Y-102007621D02*
X176690000Y-102007621D01*
X178133000Y-101967621D02*
X176690000Y-101967621D01*
X178166000Y-101927621D02*
X176690000Y-101927621D01*
X178197000Y-101887621D02*
X176690000Y-101887621D01*
X178227000Y-101847621D02*
X176690000Y-101847621D01*
X178257000Y-101807621D02*
X176690000Y-101807621D01*
X178286000Y-101767621D02*
X176690000Y-101767621D01*
X178313000Y-101727621D02*
X176690000Y-101727621D01*
X178340000Y-101687621D02*
X176690000Y-101687621D01*
X178366000Y-101647621D02*
X176690000Y-101647621D01*
X178391000Y-101607621D02*
X176690000Y-101607621D01*
X178415000Y-101567621D02*
X176690000Y-101567621D01*
X178439000Y-101527621D02*
X176690000Y-101527621D01*
X178462000Y-101487621D02*
X176690000Y-101487621D01*
X178484000Y-101447621D02*
X176690000Y-101447621D01*
X178505000Y-101407621D02*
X176690000Y-101407621D01*
X178526000Y-101367621D02*
X176690000Y-101367621D01*
X178546000Y-101327621D02*
X176690000Y-101327621D01*
X178565000Y-101287621D02*
X176690000Y-101287621D01*
X178584000Y-101247621D02*
X176690000Y-101247621D01*
X178602000Y-101207621D02*
X176690000Y-101207621D01*
X178619000Y-101167621D02*
X176690000Y-101167621D01*
X178636000Y-101127621D02*
X176690000Y-101127621D01*
X178652000Y-101087621D02*
X176690000Y-101087621D01*
X178667000Y-101047621D02*
X176690000Y-101047621D01*
X178682000Y-101007621D02*
X176690000Y-101007621D01*
X178697000Y-100967621D02*
X176690000Y-100967621D01*
X178710000Y-100927621D02*
X176690000Y-100927621D01*
X178723000Y-100887621D02*
X176690000Y-100887621D01*
X178736000Y-100847621D02*
X176690000Y-100847621D01*
X178748000Y-100807621D02*
X176690000Y-100807621D01*
X178759000Y-100767621D02*
X176690000Y-100767621D01*
X178770000Y-100727621D02*
X176690000Y-100727621D01*
X178781000Y-100687621D02*
X176690000Y-100687621D01*
X178790000Y-100647621D02*
X176690000Y-100647621D01*
X178800000Y-100607621D02*
X176690000Y-100607621D01*
X178809000Y-100567621D02*
X176690000Y-100567621D01*
X178817000Y-100527621D02*
X176690000Y-100527621D01*
X178824000Y-100487621D02*
X176690000Y-100487621D01*
X178832000Y-100447621D02*
X176690000Y-100447621D01*
X178838000Y-100407621D02*
X176690000Y-100407621D01*
X178845000Y-100367621D02*
X176690000Y-100367621D01*
X178850000Y-100327621D02*
X176690000Y-100327621D01*
X178855000Y-100287621D02*
X176690000Y-100287621D01*
X178860000Y-100247621D02*
X176690000Y-100247621D01*
X178864000Y-100207621D02*
X176690000Y-100207621D01*
X178868000Y-100167621D02*
X176690000Y-100167621D01*
X178871000Y-100127621D02*
X176690000Y-100127621D01*
X178874000Y-100087621D02*
X172426000Y-100087621D01*
X178876000Y-100047621D02*
X172424000Y-100047621D01*
X178878000Y-100007621D02*
X172422000Y-100007621D01*
X178879000Y-99967621D02*
X172421000Y-99967621D01*
X178880000Y-99887621D02*
X172420000Y-99887621D01*
X178880000Y-99927621D02*
X172420000Y-99927621D01*
X178920000Y-99887621D02*
G75*
G02*
X172380000Y-99887621I-3270000J0D01*
G01*
X172380000Y-99887621D02*
G75*
G02*
X178920000Y-99887621I3270000J0D01*
G01*
%TO.C,C6*%
X147145113Y-97873000D02*
X147145113Y-97307000D01*
X147185113Y-98107000D02*
X147185113Y-97073000D01*
X147225113Y-98267000D02*
X147225113Y-96913000D01*
X147265113Y-98395000D02*
X147265113Y-96785000D01*
X147305113Y-98504000D02*
X147305113Y-96676000D01*
X147345113Y-98601000D02*
X147345113Y-96579000D01*
X147385113Y-98688000D02*
X147385113Y-96492000D01*
X147425113Y-98767000D02*
X147425113Y-96413000D01*
X147465113Y-98841000D02*
X147465113Y-96339000D01*
X147505113Y-98909000D02*
X147505113Y-96271000D01*
X147545113Y-98973000D02*
X147545113Y-96207000D01*
X147585113Y-99033000D02*
X147585113Y-96147000D01*
X147625113Y-99089000D02*
X147625113Y-96091000D01*
X147665113Y-99143000D02*
X147665113Y-96037000D01*
X147705113Y-99194000D02*
X147705113Y-95986000D01*
X147745113Y-96550000D02*
X147745113Y-95938000D01*
X147745113Y-99242000D02*
X147745113Y-98630000D01*
X147785113Y-96550000D02*
X147785113Y-95891000D01*
X147785113Y-99289000D02*
X147785113Y-98630000D01*
X147825113Y-96550000D02*
X147825113Y-95847000D01*
X147825113Y-99333000D02*
X147825113Y-98630000D01*
X147865113Y-96550000D02*
X147865113Y-95805000D01*
X147865113Y-99375000D02*
X147865113Y-98630000D01*
X147905113Y-96550000D02*
X147905113Y-95765000D01*
X147905113Y-99415000D02*
X147905113Y-98630000D01*
X147945113Y-96550000D02*
X147945113Y-95726000D01*
X147945113Y-99454000D02*
X147945113Y-98630000D01*
X147985113Y-96550000D02*
X147985113Y-95689000D01*
X147985113Y-99491000D02*
X147985113Y-98630000D01*
X148025113Y-96550000D02*
X148025113Y-95654000D01*
X148025113Y-99526000D02*
X148025113Y-98630000D01*
X148065113Y-96550000D02*
X148065113Y-95620000D01*
X148065113Y-99560000D02*
X148065113Y-98630000D01*
X148105113Y-96550000D02*
X148105113Y-95587000D01*
X148105113Y-99593000D02*
X148105113Y-98630000D01*
X148145113Y-96550000D02*
X148145113Y-95555000D01*
X148145113Y-99625000D02*
X148145113Y-98630000D01*
X148185113Y-96550000D02*
X148185113Y-95525000D01*
X148185113Y-99655000D02*
X148185113Y-98630000D01*
X148225113Y-96550000D02*
X148225113Y-95496000D01*
X148225113Y-99684000D02*
X148225113Y-98630000D01*
X148265113Y-96550000D02*
X148265113Y-95468000D01*
X148265113Y-99712000D02*
X148265113Y-98630000D01*
X148305113Y-96550000D02*
X148305113Y-95441000D01*
X148305113Y-99739000D02*
X148305113Y-98630000D01*
X148345113Y-96550000D02*
X148345113Y-95415000D01*
X148345113Y-99765000D02*
X148345113Y-98630000D01*
X148385113Y-96550000D02*
X148385113Y-95391000D01*
X148385113Y-99789000D02*
X148385113Y-98630000D01*
X148425113Y-96550000D02*
X148425113Y-95367000D01*
X148425113Y-99813000D02*
X148425113Y-98630000D01*
X148465113Y-96550000D02*
X148465113Y-95344000D01*
X148465113Y-99836000D02*
X148465113Y-98630000D01*
X148505113Y-96550000D02*
X148505113Y-95322000D01*
X148505113Y-99858000D02*
X148505113Y-98630000D01*
X148545113Y-96550000D02*
X148545113Y-95301000D01*
X148545113Y-99879000D02*
X148545113Y-98630000D01*
X148585113Y-96550000D02*
X148585113Y-95281000D01*
X148585113Y-99899000D02*
X148585113Y-98630000D01*
X148625113Y-96550000D02*
X148625113Y-95261000D01*
X148625113Y-99919000D02*
X148625113Y-98630000D01*
X148665113Y-96550000D02*
X148665113Y-95243000D01*
X148665113Y-99937000D02*
X148665113Y-98630000D01*
X148705113Y-96550000D02*
X148705113Y-95225000D01*
X148705113Y-99955000D02*
X148705113Y-98630000D01*
X148745113Y-96550000D02*
X148745113Y-95208000D01*
X148745113Y-99972000D02*
X148745113Y-98630000D01*
X148785113Y-96550000D02*
X148785113Y-95192000D01*
X148785113Y-99988000D02*
X148785113Y-98630000D01*
X148825113Y-96550000D02*
X148825113Y-95177000D01*
X148825113Y-100003000D02*
X148825113Y-98630000D01*
X148865113Y-96550000D02*
X148865113Y-95162000D01*
X148865113Y-100018000D02*
X148865113Y-98630000D01*
X148905113Y-96550000D02*
X148905113Y-95148000D01*
X148905113Y-100032000D02*
X148905113Y-98630000D01*
X148945113Y-96550000D02*
X148945113Y-95135000D01*
X148945113Y-100045000D02*
X148945113Y-98630000D01*
X148985113Y-96550000D02*
X148985113Y-95123000D01*
X148985113Y-100057000D02*
X148985113Y-98630000D01*
X149025113Y-96550000D02*
X149025113Y-95111000D01*
X149025113Y-100069000D02*
X149025113Y-98630000D01*
X149065113Y-96550000D02*
X149065113Y-95100000D01*
X149065113Y-100080000D02*
X149065113Y-98630000D01*
X149105113Y-96550000D02*
X149105113Y-95089000D01*
X149105113Y-100091000D02*
X149105113Y-98630000D01*
X149145113Y-96550000D02*
X149145113Y-95080000D01*
X149145113Y-100100000D02*
X149145113Y-98630000D01*
X149185113Y-96550000D02*
X149185113Y-95071000D01*
X149185113Y-100109000D02*
X149185113Y-98630000D01*
X149225113Y-96550000D02*
X149225113Y-95062000D01*
X149225113Y-100118000D02*
X149225113Y-98630000D01*
X149265113Y-96550000D02*
X149265113Y-95054000D01*
X149265113Y-100126000D02*
X149265113Y-98630000D01*
X149305113Y-96550000D02*
X149305113Y-95047000D01*
X149305113Y-100133000D02*
X149305113Y-98630000D01*
X149345113Y-96550000D02*
X149345113Y-95041000D01*
X149345113Y-100139000D02*
X149345113Y-98630000D01*
X149385113Y-96550000D02*
X149385113Y-95035000D01*
X149385113Y-100145000D02*
X149385113Y-98630000D01*
X149425113Y-96550000D02*
X149425113Y-95030000D01*
X149425113Y-100150000D02*
X149425113Y-98630000D01*
X149465113Y-96550000D02*
X149465113Y-95025000D01*
X149465113Y-100155000D02*
X149465113Y-98630000D01*
X149505113Y-96550000D02*
X149505113Y-95021000D01*
X149505113Y-100159000D02*
X149505113Y-98630000D01*
X149545113Y-96550000D02*
X149545113Y-95018000D01*
X149545113Y-100162000D02*
X149545113Y-98630000D01*
X149585113Y-96550000D02*
X149585113Y-95015000D01*
X149585113Y-100165000D02*
X149585113Y-98630000D01*
X149625113Y-96550000D02*
X149625113Y-95013000D01*
X149625113Y-100167000D02*
X149625113Y-98630000D01*
X149665113Y-96550000D02*
X149665113Y-95011000D01*
X149665113Y-100169000D02*
X149665113Y-98630000D01*
X149705113Y-96550000D02*
X149705113Y-95010000D01*
X149705113Y-100170000D02*
X149705113Y-98630000D01*
X149745113Y-96550000D02*
X149745113Y-95010000D01*
X149745113Y-100170000D02*
X149745113Y-98630000D01*
X152299888Y-99315000D02*
X152299888Y-98815000D01*
X152549888Y-99065000D02*
X152049888Y-99065000D01*
X152365113Y-97590000D02*
G75*
G02*
X147125113Y-97590000I-2620000J0D01*
G01*
X147125113Y-97590000D02*
G75*
G02*
X152365113Y-97590000I2620000J0D01*
G01*
%TO.C,J2*%
X175870000Y-92240000D02*
X175870000Y-84510000D01*
X178630000Y-84510000D02*
X175870000Y-84510000D01*
X178630000Y-92240000D02*
X175870000Y-92240000D01*
X178630000Y-92240000D02*
X178630000Y-84510000D01*
X178630000Y-93510000D02*
X178630000Y-94890000D01*
X178630000Y-94890000D02*
X177250000Y-94890000D01*
%TO.C,D1*%
X152600000Y-107570000D02*
X154520000Y-107570000D01*
X157920000Y-108690000D02*
X157920000Y-106450000D01*
X158040000Y-108690000D02*
X158040000Y-106450000D01*
X158160000Y-108690000D02*
X158160000Y-106450000D01*
X160680000Y-107570000D02*
X158760000Y-107570000D01*
X158760000Y-108690000D02*
X154520000Y-108690000D01*
X154520000Y-106450000D01*
X158760000Y-106450000D01*
X158760000Y-108690000D01*
%TO.C,C3*%
X176170000Y-58470000D02*
X173989000Y-58470000D01*
X176170000Y-58510000D02*
X173992000Y-58510000D01*
X176170000Y-58550000D02*
X173996000Y-58550000D01*
X176170000Y-58590000D02*
X174000000Y-58590000D01*
X176170000Y-58630000D02*
X174005000Y-58630000D01*
X176170000Y-58670000D02*
X174010000Y-58670000D01*
X176170000Y-58710000D02*
X174015000Y-58710000D01*
X176170000Y-58750000D02*
X174022000Y-58750000D01*
X176170000Y-58790000D02*
X174028000Y-58790000D01*
X176170000Y-58830000D02*
X174036000Y-58830000D01*
X176170000Y-58870000D02*
X174043000Y-58870000D01*
X176170000Y-58910000D02*
X174051000Y-58910000D01*
X176170000Y-58950000D02*
X174060000Y-58950000D01*
X176170000Y-58990000D02*
X174070000Y-58990000D01*
X176170000Y-59030000D02*
X174079000Y-59030000D01*
X176170000Y-59070000D02*
X174090000Y-59070000D01*
X176170000Y-59110000D02*
X174101000Y-59110000D01*
X176170000Y-59150000D02*
X174112000Y-59150000D01*
X176170000Y-59190000D02*
X174124000Y-59190000D01*
X176170000Y-59230000D02*
X174137000Y-59230000D01*
X176170000Y-59270000D02*
X174150000Y-59270000D01*
X176170000Y-59310000D02*
X174163000Y-59310000D01*
X176170000Y-59350000D02*
X174178000Y-59350000D01*
X176170000Y-59390000D02*
X174193000Y-59390000D01*
X176170000Y-59430000D02*
X174208000Y-59430000D01*
X176170000Y-59470000D02*
X174224000Y-59470000D01*
X176170000Y-59510000D02*
X174241000Y-59510000D01*
X176170000Y-59550000D02*
X174258000Y-59550000D01*
X176170000Y-59590000D02*
X174276000Y-59590000D01*
X176170000Y-59630000D02*
X174295000Y-59630000D01*
X176170000Y-59670000D02*
X174314000Y-59670000D01*
X176170000Y-59710000D02*
X174334000Y-59710000D01*
X176170000Y-59750000D02*
X174355000Y-59750000D01*
X176170000Y-59790000D02*
X174376000Y-59790000D01*
X176170000Y-59830000D02*
X174398000Y-59830000D01*
X176170000Y-59870000D02*
X174421000Y-59870000D01*
X176170000Y-59910000D02*
X174445000Y-59910000D01*
X176170000Y-59950000D02*
X174469000Y-59950000D01*
X176170000Y-59990000D02*
X174494000Y-59990000D01*
X176170000Y-60030000D02*
X174520000Y-60030000D01*
X176170000Y-60070000D02*
X174547000Y-60070000D01*
X176170000Y-60110000D02*
X174574000Y-60110000D01*
X176170000Y-60150000D02*
X174603000Y-60150000D01*
X176170000Y-60190000D02*
X174633000Y-60190000D01*
X176170000Y-60230000D02*
X174663000Y-60230000D01*
X176170000Y-60270000D02*
X174694000Y-60270000D01*
X176170000Y-60310000D02*
X174727000Y-60310000D01*
X176170000Y-60350000D02*
X174760000Y-60350000D01*
X176170000Y-60390000D02*
X174795000Y-60390000D01*
X176170000Y-60430000D02*
X174831000Y-60430000D01*
X176170000Y-60470000D02*
X174868000Y-60470000D01*
X176170000Y-60510000D02*
X174906000Y-60510000D01*
X177612000Y-61470000D02*
X176808000Y-61470000D01*
X177843000Y-61430000D02*
X176577000Y-61430000D01*
X178011000Y-61390000D02*
X176409000Y-61390000D01*
X178149000Y-61350000D02*
X176271000Y-61350000D01*
X178268000Y-61310000D02*
X176152000Y-61310000D01*
X178375000Y-61270000D02*
X176045000Y-61270000D01*
X178471000Y-61230000D02*
X175949000Y-61230000D01*
X178560000Y-61190000D02*
X175860000Y-61190000D01*
X178642000Y-61150000D02*
X175778000Y-61150000D01*
X178719000Y-61110000D02*
X175701000Y-61110000D01*
X178791000Y-61070000D02*
X175629000Y-61070000D01*
X178859000Y-61030000D02*
X175561000Y-61030000D01*
X178924000Y-60990000D02*
X175496000Y-60990000D01*
X178985000Y-60950000D02*
X175435000Y-60950000D01*
X179044000Y-60910000D02*
X175376000Y-60910000D01*
X179049000Y-54729759D02*
X179049000Y-55359759D01*
X179100000Y-60870000D02*
X175320000Y-60870000D01*
X179153000Y-60830000D02*
X175267000Y-60830000D01*
X179205000Y-60790000D02*
X175215000Y-60790000D01*
X179254000Y-60750000D02*
X175166000Y-60750000D01*
X179301000Y-60710000D02*
X175119000Y-60710000D01*
X179347000Y-60670000D02*
X175073000Y-60670000D01*
X179364000Y-55044759D02*
X178734000Y-55044759D01*
X179391000Y-60630000D02*
X175029000Y-60630000D01*
X179433000Y-60590000D02*
X174987000Y-60590000D01*
X179474000Y-60550000D02*
X174946000Y-60550000D01*
X179514000Y-60510000D02*
X178250000Y-60510000D01*
X179552000Y-60470000D02*
X178250000Y-60470000D01*
X179589000Y-60430000D02*
X178250000Y-60430000D01*
X179625000Y-60390000D02*
X178250000Y-60390000D01*
X179660000Y-60350000D02*
X178250000Y-60350000D01*
X179693000Y-60310000D02*
X178250000Y-60310000D01*
X179726000Y-60270000D02*
X178250000Y-60270000D01*
X179757000Y-60230000D02*
X178250000Y-60230000D01*
X179787000Y-60190000D02*
X178250000Y-60190000D01*
X179817000Y-60150000D02*
X178250000Y-60150000D01*
X179846000Y-60110000D02*
X178250000Y-60110000D01*
X179873000Y-60070000D02*
X178250000Y-60070000D01*
X179900000Y-60030000D02*
X178250000Y-60030000D01*
X179926000Y-59990000D02*
X178250000Y-59990000D01*
X179951000Y-59950000D02*
X178250000Y-59950000D01*
X179975000Y-59910000D02*
X178250000Y-59910000D01*
X179999000Y-59870000D02*
X178250000Y-59870000D01*
X180022000Y-59830000D02*
X178250000Y-59830000D01*
X180044000Y-59790000D02*
X178250000Y-59790000D01*
X180065000Y-59750000D02*
X178250000Y-59750000D01*
X180086000Y-59710000D02*
X178250000Y-59710000D01*
X180106000Y-59670000D02*
X178250000Y-59670000D01*
X180125000Y-59630000D02*
X178250000Y-59630000D01*
X180144000Y-59590000D02*
X178250000Y-59590000D01*
X180162000Y-59550000D02*
X178250000Y-59550000D01*
X180179000Y-59510000D02*
X178250000Y-59510000D01*
X180196000Y-59470000D02*
X178250000Y-59470000D01*
X180212000Y-59430000D02*
X178250000Y-59430000D01*
X180227000Y-59390000D02*
X178250000Y-59390000D01*
X180242000Y-59350000D02*
X178250000Y-59350000D01*
X180257000Y-59310000D02*
X178250000Y-59310000D01*
X180270000Y-59270000D02*
X178250000Y-59270000D01*
X180283000Y-59230000D02*
X178250000Y-59230000D01*
X180296000Y-59190000D02*
X178250000Y-59190000D01*
X180308000Y-59150000D02*
X178250000Y-59150000D01*
X180319000Y-59110000D02*
X178250000Y-59110000D01*
X180330000Y-59070000D02*
X178250000Y-59070000D01*
X180341000Y-59030000D02*
X178250000Y-59030000D01*
X180350000Y-58990000D02*
X178250000Y-58990000D01*
X180360000Y-58950000D02*
X178250000Y-58950000D01*
X180369000Y-58910000D02*
X178250000Y-58910000D01*
X180377000Y-58870000D02*
X178250000Y-58870000D01*
X180384000Y-58830000D02*
X178250000Y-58830000D01*
X180392000Y-58790000D02*
X178250000Y-58790000D01*
X180398000Y-58750000D02*
X178250000Y-58750000D01*
X180405000Y-58710000D02*
X178250000Y-58710000D01*
X180410000Y-58670000D02*
X178250000Y-58670000D01*
X180415000Y-58630000D02*
X178250000Y-58630000D01*
X180420000Y-58590000D02*
X178250000Y-58590000D01*
X180424000Y-58550000D02*
X178250000Y-58550000D01*
X180428000Y-58510000D02*
X178250000Y-58510000D01*
X180431000Y-58470000D02*
X178250000Y-58470000D01*
X180434000Y-58430000D02*
X173986000Y-58430000D01*
X180436000Y-58390000D02*
X173984000Y-58390000D01*
X180438000Y-58350000D02*
X173982000Y-58350000D01*
X180439000Y-58310000D02*
X173981000Y-58310000D01*
X180440000Y-58230000D02*
X173980000Y-58230000D01*
X180440000Y-58270000D02*
X173980000Y-58270000D01*
X180480000Y-58230000D02*
G75*
G02*
X173940000Y-58230000I-3270000J0D01*
G01*
X173940000Y-58230000D02*
G75*
G02*
X180480000Y-58230000I3270000J0D01*
G01*
%TO.C,C5*%
X128700113Y-96025000D02*
X129200113Y-96025000D01*
X128950113Y-95775000D02*
X128950113Y-96275000D01*
X131504888Y-94920000D02*
X131504888Y-96460000D01*
X131504888Y-98540000D02*
X131504888Y-100080000D01*
X131544888Y-94920000D02*
X131544888Y-96460000D01*
X131544888Y-98540000D02*
X131544888Y-100080000D01*
X131584888Y-94921000D02*
X131584888Y-96460000D01*
X131584888Y-98540000D02*
X131584888Y-100079000D01*
X131624888Y-94923000D02*
X131624888Y-96460000D01*
X131624888Y-98540000D02*
X131624888Y-100077000D01*
X131664888Y-94925000D02*
X131664888Y-96460000D01*
X131664888Y-98540000D02*
X131664888Y-100075000D01*
X131704888Y-94928000D02*
X131704888Y-96460000D01*
X131704888Y-98540000D02*
X131704888Y-100072000D01*
X131744888Y-94931000D02*
X131744888Y-96460000D01*
X131744888Y-98540000D02*
X131744888Y-100069000D01*
X131784888Y-94935000D02*
X131784888Y-96460000D01*
X131784888Y-98540000D02*
X131784888Y-100065000D01*
X131824888Y-94940000D02*
X131824888Y-96460000D01*
X131824888Y-98540000D02*
X131824888Y-100060000D01*
X131864888Y-94945000D02*
X131864888Y-96460000D01*
X131864888Y-98540000D02*
X131864888Y-100055000D01*
X131904888Y-94951000D02*
X131904888Y-96460000D01*
X131904888Y-98540000D02*
X131904888Y-100049000D01*
X131944888Y-94957000D02*
X131944888Y-96460000D01*
X131944888Y-98540000D02*
X131944888Y-100043000D01*
X131984888Y-94964000D02*
X131984888Y-96460000D01*
X131984888Y-98540000D02*
X131984888Y-100036000D01*
X132024888Y-94972000D02*
X132024888Y-96460000D01*
X132024888Y-98540000D02*
X132024888Y-100028000D01*
X132064888Y-94981000D02*
X132064888Y-96460000D01*
X132064888Y-98540000D02*
X132064888Y-100019000D01*
X132104888Y-94990000D02*
X132104888Y-96460000D01*
X132104888Y-98540000D02*
X132104888Y-100010000D01*
X132144888Y-94999000D02*
X132144888Y-96460000D01*
X132144888Y-98540000D02*
X132144888Y-100001000D01*
X132184888Y-95010000D02*
X132184888Y-96460000D01*
X132184888Y-98540000D02*
X132184888Y-99990000D01*
X132224888Y-95021000D02*
X132224888Y-96460000D01*
X132224888Y-98540000D02*
X132224888Y-99979000D01*
X132264888Y-95033000D02*
X132264888Y-96460000D01*
X132264888Y-98540000D02*
X132264888Y-99967000D01*
X132304888Y-95045000D02*
X132304888Y-96460000D01*
X132304888Y-98540000D02*
X132304888Y-99955000D01*
X132344888Y-95058000D02*
X132344888Y-96460000D01*
X132344888Y-98540000D02*
X132344888Y-99942000D01*
X132384888Y-95072000D02*
X132384888Y-96460000D01*
X132384888Y-98540000D02*
X132384888Y-99928000D01*
X132424888Y-95087000D02*
X132424888Y-96460000D01*
X132424888Y-98540000D02*
X132424888Y-99913000D01*
X132464888Y-95102000D02*
X132464888Y-96460000D01*
X132464888Y-98540000D02*
X132464888Y-99898000D01*
X132504888Y-95118000D02*
X132504888Y-96460000D01*
X132504888Y-98540000D02*
X132504888Y-99882000D01*
X132544888Y-95135000D02*
X132544888Y-96460000D01*
X132544888Y-98540000D02*
X132544888Y-99865000D01*
X132584888Y-95153000D02*
X132584888Y-96460000D01*
X132584888Y-98540000D02*
X132584888Y-99847000D01*
X132624888Y-95171000D02*
X132624888Y-96460000D01*
X132624888Y-98540000D02*
X132624888Y-99829000D01*
X132664888Y-95191000D02*
X132664888Y-96460000D01*
X132664888Y-98540000D02*
X132664888Y-99809000D01*
X132704888Y-95211000D02*
X132704888Y-96460000D01*
X132704888Y-98540000D02*
X132704888Y-99789000D01*
X132744888Y-95232000D02*
X132744888Y-96460000D01*
X132744888Y-98540000D02*
X132744888Y-99768000D01*
X132784888Y-95254000D02*
X132784888Y-96460000D01*
X132784888Y-98540000D02*
X132784888Y-99746000D01*
X132824888Y-95277000D02*
X132824888Y-96460000D01*
X132824888Y-98540000D02*
X132824888Y-99723000D01*
X132864888Y-95301000D02*
X132864888Y-96460000D01*
X132864888Y-98540000D02*
X132864888Y-99699000D01*
X132904888Y-95325000D02*
X132904888Y-96460000D01*
X132904888Y-98540000D02*
X132904888Y-99675000D01*
X132944888Y-95351000D02*
X132944888Y-96460000D01*
X132944888Y-98540000D02*
X132944888Y-99649000D01*
X132984888Y-95378000D02*
X132984888Y-96460000D01*
X132984888Y-98540000D02*
X132984888Y-99622000D01*
X133024888Y-95406000D02*
X133024888Y-96460000D01*
X133024888Y-98540000D02*
X133024888Y-99594000D01*
X133064888Y-95435000D02*
X133064888Y-96460000D01*
X133064888Y-98540000D02*
X133064888Y-99565000D01*
X133104888Y-95465000D02*
X133104888Y-96460000D01*
X133104888Y-98540000D02*
X133104888Y-99535000D01*
X133144888Y-95497000D02*
X133144888Y-96460000D01*
X133144888Y-98540000D02*
X133144888Y-99503000D01*
X133184888Y-95530000D02*
X133184888Y-96460000D01*
X133184888Y-98540000D02*
X133184888Y-99470000D01*
X133224888Y-95564000D02*
X133224888Y-96460000D01*
X133224888Y-98540000D02*
X133224888Y-99436000D01*
X133264888Y-95599000D02*
X133264888Y-96460000D01*
X133264888Y-98540000D02*
X133264888Y-99401000D01*
X133304888Y-95636000D02*
X133304888Y-96460000D01*
X133304888Y-98540000D02*
X133304888Y-99364000D01*
X133344888Y-95675000D02*
X133344888Y-96460000D01*
X133344888Y-98540000D02*
X133344888Y-99325000D01*
X133384888Y-95715000D02*
X133384888Y-96460000D01*
X133384888Y-98540000D02*
X133384888Y-99285000D01*
X133424888Y-95757000D02*
X133424888Y-96460000D01*
X133424888Y-98540000D02*
X133424888Y-99243000D01*
X133464888Y-95801000D02*
X133464888Y-96460000D01*
X133464888Y-98540000D02*
X133464888Y-99199000D01*
X133504888Y-95848000D02*
X133504888Y-96460000D01*
X133504888Y-98540000D02*
X133504888Y-99152000D01*
X133544888Y-95896000D02*
X133544888Y-99104000D01*
X133584888Y-95947000D02*
X133584888Y-99053000D01*
X133624888Y-96001000D02*
X133624888Y-98999000D01*
X133664888Y-96057000D02*
X133664888Y-98943000D01*
X133704888Y-96117000D02*
X133704888Y-98883000D01*
X133744888Y-96181000D02*
X133744888Y-98819000D01*
X133784888Y-96249000D02*
X133784888Y-98751000D01*
X133824888Y-96323000D02*
X133824888Y-98677000D01*
X133864888Y-96402000D02*
X133864888Y-98598000D01*
X133904888Y-96489000D02*
X133904888Y-98511000D01*
X133944888Y-96586000D02*
X133944888Y-98414000D01*
X133984888Y-96695000D02*
X133984888Y-98305000D01*
X134024888Y-96823000D02*
X134024888Y-98177000D01*
X134064888Y-96983000D02*
X134064888Y-98017000D01*
X134104888Y-97217000D02*
X134104888Y-97783000D01*
X134124888Y-97500000D02*
G75*
G02*
X128884888Y-97500000I-2620000J0D01*
G01*
X128884888Y-97500000D02*
G75*
G02*
X134124888Y-97500000I2620000J0D01*
G01*
%TO.C,J9*%
X134520000Y-60000000D02*
X135900000Y-60000000D01*
X134520000Y-61380000D02*
X134520000Y-60000000D01*
X134520000Y-62650000D02*
X134520000Y-62760000D01*
X134520000Y-62650000D02*
X137280000Y-62650000D01*
X134520000Y-62760000D02*
X137280000Y-62760000D01*
X137280000Y-62650000D02*
X137280000Y-62760000D01*
D15*
%TO.C,U1*%
X130140000Y-71010000D02*
X150440000Y-71010000D01*
X130140000Y-83917500D02*
X130140000Y-71010000D01*
X150440000Y-71010000D02*
X150440000Y-83917500D01*
X150440000Y-86710000D02*
X130140000Y-86710000D01*
D14*
%TO.C,J4*%
X141850000Y-60000000D02*
X143230000Y-60000000D01*
X141850000Y-61380000D02*
X141850000Y-60000000D01*
X141850000Y-62650000D02*
X141850000Y-62760000D01*
X141850000Y-62650000D02*
X144610000Y-62650000D01*
X141850000Y-62760000D02*
X144610000Y-62760000D01*
X144610000Y-62650000D02*
X144610000Y-62760000D01*
%TD*%
M02*
