ISO-10303-21;
HEADER;
/* Generated by software containing ST-Developer
 * from STEP Tools, Inc. (www.steptools.com) 
 */

FILE_DESCRIPTION(
/* description */ (''),
/* implementation_level */ '2;1');

FILE_NAME(
/* name */ 'Head Door.step',
/* time_stamp */ '2026-07-07T18:41:51+07:00',
/* author */ (''),
/* organization */ (''),
/* preprocessor_version */ 'ST-DEVELOPER v20.1',
/* originating_system */ 'Autodesk Translation Framework v15.8.0.0',
/* authorisation */ '');

FILE_SCHEMA (('AUTOMOTIVE_DESIGN { 1 0 10303 214 3 1 1 }'));
ENDSEC;

DATA;
#10=MECHANICAL_DESIGN_GEOMETRIC_PRESENTATION_REPRESENTATION('',(#13),#479);
#11=SHAPE_REPRESENTATION_RELATIONSHIP('SRR','None',#486,#12);
#12=ADVANCED_BREP_SHAPE_REPRESENTATION('',(#14),#478);
#13=STYLED_ITEM('',(#496),#14);
#14=MANIFOLD_SOLID_BREP('Body1',#275);
#15=FACE_BOUND('',#45,.T.);
#16=FACE_BOUND('',#46,.T.);
#17=FACE_BOUND('',#47,.T.);
#18=FACE_BOUND('',#48,.T.);
#19=FACE_BOUND('',#61,.T.);
#20=FACE_BOUND('',#62,.T.);
#21=FACE_BOUND('',#63,.T.);
#22=FACE_BOUND('',#64,.T.);
#23=PLANE('',#292);
#24=PLANE('',#300);
#25=PLANE('',#305);
#26=PLANE('',#316);
#27=PLANE('',#317);
#28=PLANE('',#318);
#29=FACE_OUTER_BOUND('',#43,.T.);
#30=FACE_OUTER_BOUND('',#44,.T.);
#31=FACE_OUTER_BOUND('',#49,.T.);
#32=FACE_OUTER_BOUND('',#50,.T.);
#33=FACE_OUTER_BOUND('',#51,.T.);
#34=FACE_OUTER_BOUND('',#52,.T.);
#35=FACE_OUTER_BOUND('',#53,.T.);
#36=FACE_OUTER_BOUND('',#54,.T.);
#37=FACE_OUTER_BOUND('',#55,.T.);
#38=FACE_OUTER_BOUND('',#56,.T.);
#39=FACE_OUTER_BOUND('',#57,.T.);
#40=FACE_OUTER_BOUND('',#58,.T.);
#41=FACE_OUTER_BOUND('',#59,.T.);
#42=FACE_OUTER_BOUND('',#60,.T.);
#43=EDGE_LOOP('',(#181,#182,#183,#184));
#44=EDGE_LOOP('',(#185,#186,#187,#188,#189,#190,#191,#192));
#45=EDGE_LOOP('',(#193));
#46=EDGE_LOOP('',(#194));
#47=EDGE_LOOP('',(#195));
#48=EDGE_LOOP('',(#196));
#49=EDGE_LOOP('',(#197,#198,#199,#200));
#50=EDGE_LOOP('',(#201,#202,#203,#204));
#51=EDGE_LOOP('',(#205,#206,#207,#208));
#52=EDGE_LOOP('',(#209,#210,#211,#212));
#53=EDGE_LOOP('',(#213,#214,#215,#216));
#54=EDGE_LOOP('',(#217,#218,#219,#220));
#55=EDGE_LOOP('',(#221,#222,#223,#224));
#56=EDGE_LOOP('',(#225,#226,#227,#228));
#57=EDGE_LOOP('',(#229,#230,#231,#232));
#58=EDGE_LOOP('',(#233,#234,#235,#236));
#59=EDGE_LOOP('',(#237,#238,#239,#240));
#60=EDGE_LOOP('',(#241,#242,#243,#244,#245,#246,#247,#248));
#61=EDGE_LOOP('',(#249));
#62=EDGE_LOOP('',(#250));
#63=EDGE_LOOP('',(#251));
#64=EDGE_LOOP('',(#252));
#65=LINE('',#407,#85);
#66=LINE('',#410,#86);
#67=LINE('',#413,#87);
#68=LINE('',#417,#88);
#69=LINE('',#421,#89);
#70=LINE('',#424,#90);
#71=LINE('',#435,#91);
#72=LINE('',#436,#92);
#73=LINE('',#440,#93);
#74=LINE('',#445,#94);
#75=LINE('',#446,#95);
#76=LINE('',#449,#96);
#77=LINE('',#450,#97);
#78=LINE('',#454,#98);
#79=LINE('',#458,#99);
#80=LINE('',#462,#100);
#81=LINE('',#466,#101);
#82=LINE('',#470,#102);
#83=LINE('',#472,#103);
#84=LINE('',#474,#104);
#85=VECTOR('',#325,10.);
#86=VECTOR('',#328,10.);
#87=VECTOR('',#331,10.);
#88=VECTOR('',#334,10.);
#89=VECTOR('',#337,10.);
#90=VECTOR('',#340,10.);
#91=VECTOR('',#351,10.);
#92=VECTOR('',#352,10.);
#93=VECTOR('',#357,10.);
#94=VECTOR('',#362,10.);
#95=VECTOR('',#363,10.);
#96=VECTOR('',#366,10.);
#97=VECTOR('',#367,10.);
#98=VECTOR('',#372,10.);
#99=VECTOR('',#377,1.6);
#100=VECTOR('',#382,1.6);
#101=VECTOR('',#387,1.6);
#102=VECTOR('',#392,1.6);
#103=VECTOR('',#395,10.);
#104=VECTOR('',#398,10.);
#105=CIRCLE('',#290,6.);
#106=CIRCLE('',#291,6.);
#107=CIRCLE('',#293,6.);
#108=CIRCLE('',#294,6.);
#109=CIRCLE('',#295,6.);
#110=CIRCLE('',#296,1.6);
#111=CIRCLE('',#297,1.6);
#112=CIRCLE('',#298,1.6);
#113=CIRCLE('',#299,1.6);
#114=CIRCLE('',#302,6.);
#115=CIRCLE('',#304,6.);
#116=CIRCLE('',#307,6.);
#117=CIRCLE('',#309,1.6);
#118=CIRCLE('',#311,1.6);
#119=CIRCLE('',#313,1.6);
#120=CIRCLE('',#315,1.6);
#121=VERTEX_POINT('',#403);
#122=VERTEX_POINT('',#404);
#123=VERTEX_POINT('',#406);
#124=VERTEX_POINT('',#408);
#125=VERTEX_POINT('',#412);
#126=VERTEX_POINT('',#414);
#127=VERTEX_POINT('',#416);
#128=VERTEX_POINT('',#418);
#129=VERTEX_POINT('',#420);
#130=VERTEX_POINT('',#422);
#131=VERTEX_POINT('',#425);
#132=VERTEX_POINT('',#427);
#133=VERTEX_POINT('',#429);
#134=VERTEX_POINT('',#431);
#135=VERTEX_POINT('',#434);
#136=VERTEX_POINT('',#438);
#137=VERTEX_POINT('',#442);
#138=VERTEX_POINT('',#443);
#139=VERTEX_POINT('',#448);
#140=VERTEX_POINT('',#452);
#141=VERTEX_POINT('',#456);
#142=VERTEX_POINT('',#460);
#143=VERTEX_POINT('',#464);
#144=VERTEX_POINT('',#468);
#145=EDGE_CURVE('',#121,#122,#105,.T.);
#146=EDGE_CURVE('',#122,#123,#65,.T.);
#147=EDGE_CURVE('',#123,#124,#106,.T.);
#148=EDGE_CURVE('',#124,#121,#66,.T.);
#149=EDGE_CURVE('',#125,#123,#67,.T.);
#150=EDGE_CURVE('',#126,#125,#107,.T.);
#151=EDGE_CURVE('',#127,#126,#68,.T.);
#152=EDGE_CURVE('',#128,#127,#108,.T.);
#153=EDGE_CURVE('',#129,#128,#69,.T.);
#154=EDGE_CURVE('',#130,#129,#109,.T.);
#155=EDGE_CURVE('',#124,#130,#70,.T.);
#156=EDGE_CURVE('',#131,#131,#110,.T.);
#157=EDGE_CURVE('',#132,#132,#111,.T.);
#158=EDGE_CURVE('',#133,#133,#112,.T.);
#159=EDGE_CURVE('',#134,#134,#113,.T.);
#160=EDGE_CURVE('',#135,#122,#71,.T.);
#161=EDGE_CURVE('',#125,#135,#72,.T.);
#162=EDGE_CURVE('',#135,#136,#114,.T.);
#163=EDGE_CURVE('',#136,#126,#73,.T.);
#164=EDGE_CURVE('',#137,#138,#115,.T.);
#165=EDGE_CURVE('',#138,#130,#74,.T.);
#166=EDGE_CURVE('',#129,#137,#75,.T.);
#167=EDGE_CURVE('',#139,#128,#76,.T.);
#168=EDGE_CURVE('',#137,#139,#77,.T.);
#169=EDGE_CURVE('',#140,#139,#116,.T.);
#170=EDGE_CURVE('',#127,#140,#78,.T.);
#171=EDGE_CURVE('',#141,#141,#117,.T.);
#172=EDGE_CURVE('',#141,#134,#79,.T.);
#173=EDGE_CURVE('',#142,#142,#118,.T.);
#174=EDGE_CURVE('',#142,#133,#80,.T.);
#175=EDGE_CURVE('',#143,#143,#119,.T.);
#176=EDGE_CURVE('',#143,#132,#81,.T.);
#177=EDGE_CURVE('',#144,#144,#120,.T.);
#178=EDGE_CURVE('',#144,#131,#82,.T.);
#179=EDGE_CURVE('',#140,#136,#83,.T.);
#180=EDGE_CURVE('',#121,#138,#84,.T.);
#181=ORIENTED_EDGE('',*,*,#145,.T.);
#182=ORIENTED_EDGE('',*,*,#146,.T.);
#183=ORIENTED_EDGE('',*,*,#147,.T.);
#184=ORIENTED_EDGE('',*,*,#148,.T.);
#185=ORIENTED_EDGE('',*,*,#147,.F.);
#186=ORIENTED_EDGE('',*,*,#149,.F.);
#187=ORIENTED_EDGE('',*,*,#150,.F.);
#188=ORIENTED_EDGE('',*,*,#151,.F.);
#189=ORIENTED_EDGE('',*,*,#152,.F.);
#190=ORIENTED_EDGE('',*,*,#153,.F.);
#191=ORIENTED_EDGE('',*,*,#154,.F.);
#192=ORIENTED_EDGE('',*,*,#155,.F.);
#193=ORIENTED_EDGE('',*,*,#156,.F.);
#194=ORIENTED_EDGE('',*,*,#157,.F.);
#195=ORIENTED_EDGE('',*,*,#158,.F.);
#196=ORIENTED_EDGE('',*,*,#159,.F.);
#197=ORIENTED_EDGE('',*,*,#146,.F.);
#198=ORIENTED_EDGE('',*,*,#160,.F.);
#199=ORIENTED_EDGE('',*,*,#161,.F.);
#200=ORIENTED_EDGE('',*,*,#149,.T.);
#201=ORIENTED_EDGE('',*,*,#162,.T.);
#202=ORIENTED_EDGE('',*,*,#163,.T.);
#203=ORIENTED_EDGE('',*,*,#150,.T.);
#204=ORIENTED_EDGE('',*,*,#161,.T.);
#205=ORIENTED_EDGE('',*,*,#164,.T.);
#206=ORIENTED_EDGE('',*,*,#165,.T.);
#207=ORIENTED_EDGE('',*,*,#154,.T.);
#208=ORIENTED_EDGE('',*,*,#166,.T.);
#209=ORIENTED_EDGE('',*,*,#166,.F.);
#210=ORIENTED_EDGE('',*,*,#153,.T.);
#211=ORIENTED_EDGE('',*,*,#167,.F.);
#212=ORIENTED_EDGE('',*,*,#168,.F.);
#213=ORIENTED_EDGE('',*,*,#169,.T.);
#214=ORIENTED_EDGE('',*,*,#167,.T.);
#215=ORIENTED_EDGE('',*,*,#152,.T.);
#216=ORIENTED_EDGE('',*,*,#170,.T.);
#217=ORIENTED_EDGE('',*,*,#171,.F.);
#218=ORIENTED_EDGE('',*,*,#172,.T.);
#219=ORIENTED_EDGE('',*,*,#159,.T.);
#220=ORIENTED_EDGE('',*,*,#172,.F.);
#221=ORIENTED_EDGE('',*,*,#173,.F.);
#222=ORIENTED_EDGE('',*,*,#174,.T.);
#223=ORIENTED_EDGE('',*,*,#158,.T.);
#224=ORIENTED_EDGE('',*,*,#174,.F.);
#225=ORIENTED_EDGE('',*,*,#175,.F.);
#226=ORIENTED_EDGE('',*,*,#176,.T.);
#227=ORIENTED_EDGE('',*,*,#157,.T.);
#228=ORIENTED_EDGE('',*,*,#176,.F.);
#229=ORIENTED_EDGE('',*,*,#177,.F.);
#230=ORIENTED_EDGE('',*,*,#178,.T.);
#231=ORIENTED_EDGE('',*,*,#156,.T.);
#232=ORIENTED_EDGE('',*,*,#178,.F.);
#233=ORIENTED_EDGE('',*,*,#163,.F.);
#234=ORIENTED_EDGE('',*,*,#179,.F.);
#235=ORIENTED_EDGE('',*,*,#170,.F.);
#236=ORIENTED_EDGE('',*,*,#151,.T.);
#237=ORIENTED_EDGE('',*,*,#148,.F.);
#238=ORIENTED_EDGE('',*,*,#155,.T.);
#239=ORIENTED_EDGE('',*,*,#165,.F.);
#240=ORIENTED_EDGE('',*,*,#180,.F.);
#241=ORIENTED_EDGE('',*,*,#145,.F.);
#242=ORIENTED_EDGE('',*,*,#180,.T.);
#243=ORIENTED_EDGE('',*,*,#164,.F.);
#244=ORIENTED_EDGE('',*,*,#168,.T.);
#245=ORIENTED_EDGE('',*,*,#169,.F.);
#246=ORIENTED_EDGE('',*,*,#179,.T.);
#247=ORIENTED_EDGE('',*,*,#162,.F.);
#248=ORIENTED_EDGE('',*,*,#160,.T.);
#249=ORIENTED_EDGE('',*,*,#177,.T.);
#250=ORIENTED_EDGE('',*,*,#175,.T.);
#251=ORIENTED_EDGE('',*,*,#173,.T.);
#252=ORIENTED_EDGE('',*,*,#171,.T.);
#253=CYLINDRICAL_SURFACE('',#289,6.);
#254=CYLINDRICAL_SURFACE('',#301,6.);
#255=CYLINDRICAL_SURFACE('',#303,6.);
#256=CYLINDRICAL_SURFACE('',#306,6.);
#257=CYLINDRICAL_SURFACE('',#308,1.6);
#258=CYLINDRICAL_SURFACE('',#310,1.6);
#259=CYLINDRICAL_SURFACE('',#312,1.6);
#260=CYLINDRICAL_SURFACE('',#314,1.6);
#261=ADVANCED_FACE('',(#29),#253,.T.);
#262=ADVANCED_FACE('',(#30,#15,#16,#17,#18),#23,.F.);
#263=ADVANCED_FACE('',(#31),#24,.T.);
#264=ADVANCED_FACE('',(#32),#254,.T.);
#265=ADVANCED_FACE('',(#33),#255,.T.);
#266=ADVANCED_FACE('',(#34),#25,.T.);
#267=ADVANCED_FACE('',(#35),#256,.T.);
#268=ADVANCED_FACE('',(#36),#257,.F.);
#269=ADVANCED_FACE('',(#37),#258,.F.);
#270=ADVANCED_FACE('',(#38),#259,.F.);
#271=ADVANCED_FACE('',(#39),#260,.F.);
#272=ADVANCED_FACE('',(#40),#26,.T.);
#273=ADVANCED_FACE('',(#41),#27,.T.);
#274=ADVANCED_FACE('',(#42,#19,#20,#21,#22),#28,.T.);
#275=CLOSED_SHELL('',(#261,#262,#263,#264,#265,#266,#267,#268,#269,#270,
#271,#272,#273,#274));
#276=DERIVED_UNIT_ELEMENT(#278,1.);
#277=DERIVED_UNIT_ELEMENT(#481,-3.);
#278=(
MASS_UNIT()
NAMED_UNIT(*)
SI_UNIT(.KILO.,.GRAM.)
);
#279=DERIVED_UNIT((#276,#277));
#280=MEASURE_REPRESENTATION_ITEM('density measure',
POSITIVE_RATIO_MEASURE(7850.),#279);
#281=PROPERTY_DEFINITION_REPRESENTATION(#286,#283);
#282=PROPERTY_DEFINITION_REPRESENTATION(#287,#284);
#283=REPRESENTATION('material name',(#285),#478);
#284=REPRESENTATION('density',(#280),#478);
#285=DESCRIPTIVE_REPRESENTATION_ITEM('Steel','Steel');
#286=PROPERTY_DEFINITION('material property','material name',#488);
#287=PROPERTY_DEFINITION('material property','density of part',#488);
#288=AXIS2_PLACEMENT_3D('',#401,#319,#320);
#289=AXIS2_PLACEMENT_3D('',#402,#321,#322);
#290=AXIS2_PLACEMENT_3D('',#405,#323,#324);
#291=AXIS2_PLACEMENT_3D('',#409,#326,#327);
#292=AXIS2_PLACEMENT_3D('',#411,#329,#330);
#293=AXIS2_PLACEMENT_3D('',#415,#332,#333);
#294=AXIS2_PLACEMENT_3D('',#419,#335,#336);
#295=AXIS2_PLACEMENT_3D('',#423,#338,#339);
#296=AXIS2_PLACEMENT_3D('',#426,#341,#342);
#297=AXIS2_PLACEMENT_3D('',#428,#343,#344);
#298=AXIS2_PLACEMENT_3D('',#430,#345,#346);
#299=AXIS2_PLACEMENT_3D('',#432,#347,#348);
#300=AXIS2_PLACEMENT_3D('',#433,#349,#350);
#301=AXIS2_PLACEMENT_3D('',#437,#353,#354);
#302=AXIS2_PLACEMENT_3D('',#439,#355,#356);
#303=AXIS2_PLACEMENT_3D('',#441,#358,#359);
#304=AXIS2_PLACEMENT_3D('',#444,#360,#361);
#305=AXIS2_PLACEMENT_3D('',#447,#364,#365);
#306=AXIS2_PLACEMENT_3D('',#451,#368,#369);
#307=AXIS2_PLACEMENT_3D('',#453,#370,#371);
#308=AXIS2_PLACEMENT_3D('',#455,#373,#374);
#309=AXIS2_PLACEMENT_3D('',#457,#375,#376);
#310=AXIS2_PLACEMENT_3D('',#459,#378,#379);
#311=AXIS2_PLACEMENT_3D('',#461,#380,#381);
#312=AXIS2_PLACEMENT_3D('',#463,#383,#384);
#313=AXIS2_PLACEMENT_3D('',#465,#385,#386);
#314=AXIS2_PLACEMENT_3D('',#467,#388,#389);
#315=AXIS2_PLACEMENT_3D('',#469,#390,#391);
#316=AXIS2_PLACEMENT_3D('',#471,#393,#394);
#317=AXIS2_PLACEMENT_3D('',#473,#396,#397);
#318=AXIS2_PLACEMENT_3D('',#475,#399,#400);
#319=DIRECTION('axis',(0.,0.,1.));
#320=DIRECTION('refdir',(1.,0.,0.));
#321=DIRECTION('center_axis',(0.,0.,1.));
#322=DIRECTION('ref_axis',(-0.707106781186548,-0.707106781186548,0.));
#323=DIRECTION('center_axis',(0.,0.,-1.));
#324=DIRECTION('ref_axis',(-0.707106781186548,-0.707106781186548,0.));
#325=DIRECTION('',(0.,0.,-1.));
#326=DIRECTION('center_axis',(0.,0.,1.));
#327=DIRECTION('ref_axis',(-0.707106781186548,-0.707106781186548,0.));
#328=DIRECTION('',(0.,0.,1.));
#329=DIRECTION('center_axis',(0.,0.,1.));
#330=DIRECTION('ref_axis',(1.,0.,0.));
#331=DIRECTION('',(0.,-1.,0.));
#332=DIRECTION('center_axis',(0.,0.,1.));
#333=DIRECTION('ref_axis',(-0.707106781186548,0.707106781186547,0.));
#334=DIRECTION('',(-1.,0.,0.));
#335=DIRECTION('center_axis',(0.,0.,1.));
#336=DIRECTION('ref_axis',(0.707106781186548,0.707106781186547,0.));
#337=DIRECTION('',(0.,1.,0.));
#338=DIRECTION('center_axis',(0.,0.,1.));
#339=DIRECTION('ref_axis',(0.707106781186546,-0.707106781186549,0.));
#340=DIRECTION('',(1.,0.,0.));
#341=DIRECTION('center_axis',(0.,0.,-1.));
#342=DIRECTION('ref_axis',(1.,0.,0.));
#343=DIRECTION('center_axis',(0.,0.,-1.));
#344=DIRECTION('ref_axis',(1.,0.,0.));
#345=DIRECTION('center_axis',(0.,0.,-1.));
#346=DIRECTION('ref_axis',(1.,0.,0.));
#347=DIRECTION('center_axis',(0.,0.,-1.));
#348=DIRECTION('ref_axis',(1.,0.,0.));
#349=DIRECTION('center_axis',(-1.,0.,0.));
#350=DIRECTION('ref_axis',(0.,-1.,0.));
#351=DIRECTION('',(0.,-1.,0.));
#352=DIRECTION('',(0.,0.,1.));
#353=DIRECTION('center_axis',(0.,0.,1.));
#354=DIRECTION('ref_axis',(-0.707106781186548,0.707106781186547,0.));
#355=DIRECTION('center_axis',(0.,0.,-1.));
#356=DIRECTION('ref_axis',(-0.707106781186548,0.707106781186547,0.));
#357=DIRECTION('',(0.,0.,-1.));
#358=DIRECTION('center_axis',(0.,0.,1.));
#359=DIRECTION('ref_axis',(0.707106781186546,-0.707106781186549,0.));
#360=DIRECTION('center_axis',(0.,0.,-1.));
#361=DIRECTION('ref_axis',(0.707106781186546,-0.707106781186549,0.));
#362=DIRECTION('',(0.,0.,-1.));
#363=DIRECTION('',(0.,0.,1.));
#364=DIRECTION('center_axis',(1.,0.,0.));
#365=DIRECTION('ref_axis',(0.,1.,0.));
#366=DIRECTION('',(0.,0.,-1.));
#367=DIRECTION('',(0.,1.,0.));
#368=DIRECTION('center_axis',(0.,0.,1.));
#369=DIRECTION('ref_axis',(0.707106781186548,0.707106781186547,0.));
#370=DIRECTION('center_axis',(0.,0.,-1.));
#371=DIRECTION('ref_axis',(0.707106781186548,0.707106781186547,0.));
#372=DIRECTION('',(0.,0.,1.));
#373=DIRECTION('center_axis',(0.,0.,1.));
#374=DIRECTION('ref_axis',(1.,0.,0.));
#375=DIRECTION('center_axis',(0.,0.,-1.));
#376=DIRECTION('ref_axis',(1.,0.,0.));
#377=DIRECTION('',(0.,0.,-1.));
#378=DIRECTION('center_axis',(0.,0.,1.));
#379=DIRECTION('ref_axis',(1.,0.,0.));
#380=DIRECTION('center_axis',(0.,0.,-1.));
#381=DIRECTION('ref_axis',(1.,0.,0.));
#382=DIRECTION('',(0.,0.,-1.));
#383=DIRECTION('center_axis',(0.,0.,1.));
#384=DIRECTION('ref_axis',(1.,0.,0.));
#385=DIRECTION('center_axis',(0.,0.,-1.));
#386=DIRECTION('ref_axis',(1.,0.,0.));
#387=DIRECTION('',(0.,0.,-1.));
#388=DIRECTION('center_axis',(0.,0.,1.));
#389=DIRECTION('ref_axis',(1.,0.,0.));
#390=DIRECTION('center_axis',(0.,0.,-1.));
#391=DIRECTION('ref_axis',(1.,0.,0.));
#392=DIRECTION('',(0.,0.,-1.));
#393=DIRECTION('center_axis',(0.,1.,0.));
#394=DIRECTION('ref_axis',(-1.,0.,0.));
#395=DIRECTION('',(-1.,0.,0.));
#396=DIRECTION('center_axis',(0.,-1.,0.));
#397=DIRECTION('ref_axis',(1.,0.,0.));
#398=DIRECTION('',(1.,0.,0.));
#399=DIRECTION('center_axis',(0.,0.,1.));
#400=DIRECTION('ref_axis',(1.,0.,0.));
#401=CARTESIAN_POINT('',(0.,0.,0.));
#402=CARTESIAN_POINT('Origin',(6.,6.,0.));
#403=CARTESIAN_POINT('',(6.,0.,2.7));
#404=CARTESIAN_POINT('',(0.,6.,2.7));
#405=CARTESIAN_POINT('Origin',(6.,6.,2.7));
#406=CARTESIAN_POINT('',(0.,6.,0.));
#407=CARTESIAN_POINT('',(0.,6.,0.));
#408=CARTESIAN_POINT('',(6.,0.,0.));
#409=CARTESIAN_POINT('Origin',(6.,6.,0.));
#410=CARTESIAN_POINT('',(6.,0.,0.));
#411=CARTESIAN_POINT('Origin',(57.5,19.5,0.));
#412=CARTESIAN_POINT('',(0.,33.,0.));
#413=CARTESIAN_POINT('',(0.,39.,0.));
#414=CARTESIAN_POINT('',(6.00000000000001,39.,0.));
#415=CARTESIAN_POINT('Origin',(6.00000000000001,33.,0.));
#416=CARTESIAN_POINT('',(109.,39.,0.));
#417=CARTESIAN_POINT('',(115.,39.,0.));
#418=CARTESIAN_POINT('',(115.,33.,0.));
#419=CARTESIAN_POINT('Origin',(109.,33.,0.));
#420=CARTESIAN_POINT('',(115.,6.,0.));
#421=CARTESIAN_POINT('',(115.,0.,0.));
#422=CARTESIAN_POINT('',(109.,0.,0.));
#423=CARTESIAN_POINT('Origin',(109.,6.,0.));
#424=CARTESIAN_POINT('',(0.,0.,0.));
#425=CARTESIAN_POINT('',(3.4,5.,0.));
#426=CARTESIAN_POINT('Origin',(5.,5.,0.));
#427=CARTESIAN_POINT('',(108.4,34.,0.));
#428=CARTESIAN_POINT('Origin',(110.,34.,0.));
#429=CARTESIAN_POINT('',(3.4,34.,0.));
#430=CARTESIAN_POINT('Origin',(5.,34.,0.));
#431=CARTESIAN_POINT('',(108.4,5.,0.));
#432=CARTESIAN_POINT('Origin',(110.,5.,0.));
#433=CARTESIAN_POINT('Origin',(0.,39.,0.));
#434=CARTESIAN_POINT('',(0.,33.,2.7));
#435=CARTESIAN_POINT('',(0.,39.,2.7));
#436=CARTESIAN_POINT('',(0.,33.,0.));
#437=CARTESIAN_POINT('Origin',(6.00000000000001,33.,0.));
#438=CARTESIAN_POINT('',(6.00000000000001,39.,2.7));
#439=CARTESIAN_POINT('Origin',(6.00000000000001,33.,2.7));
#440=CARTESIAN_POINT('',(6.00000000000001,39.,0.));
#441=CARTESIAN_POINT('Origin',(109.,6.,0.));
#442=CARTESIAN_POINT('',(115.,6.,2.7));
#443=CARTESIAN_POINT('',(109.,0.,2.7));
#444=CARTESIAN_POINT('Origin',(109.,6.,2.7));
#445=CARTESIAN_POINT('',(109.,0.,0.));
#446=CARTESIAN_POINT('',(115.,6.,0.));
#447=CARTESIAN_POINT('Origin',(115.,0.,0.));
#448=CARTESIAN_POINT('',(115.,33.,2.7));
#449=CARTESIAN_POINT('',(115.,33.,0.));
#450=CARTESIAN_POINT('',(115.,0.,2.7));
#451=CARTESIAN_POINT('Origin',(109.,33.,0.));
#452=CARTESIAN_POINT('',(109.,39.,2.7));
#453=CARTESIAN_POINT('Origin',(109.,33.,2.7));
#454=CARTESIAN_POINT('',(109.,39.,0.));
#455=CARTESIAN_POINT('Origin',(110.,5.,0.));
#456=CARTESIAN_POINT('',(108.4,5.,2.7));
#457=CARTESIAN_POINT('Origin',(110.,5.,2.7));
#458=CARTESIAN_POINT('',(108.4,5.,0.));
#459=CARTESIAN_POINT('Origin',(5.,34.,0.));
#460=CARTESIAN_POINT('',(3.4,34.,2.7));
#461=CARTESIAN_POINT('Origin',(5.,34.,2.7));
#462=CARTESIAN_POINT('',(3.4,34.,0.));
#463=CARTESIAN_POINT('Origin',(110.,34.,0.));
#464=CARTESIAN_POINT('',(108.4,34.,2.7));
#465=CARTESIAN_POINT('Origin',(110.,34.,2.7));
#466=CARTESIAN_POINT('',(108.4,34.,0.));
#467=CARTESIAN_POINT('Origin',(5.,5.,0.));
#468=CARTESIAN_POINT('',(3.4,5.,2.7));
#469=CARTESIAN_POINT('Origin',(5.,5.,2.7));
#470=CARTESIAN_POINT('',(3.4,5.,0.));
#471=CARTESIAN_POINT('Origin',(115.,39.,0.));
#472=CARTESIAN_POINT('',(115.,39.,2.7));
#473=CARTESIAN_POINT('Origin',(0.,0.,0.));
#474=CARTESIAN_POINT('',(0.,0.,2.7));
#475=CARTESIAN_POINT('Origin',(57.5,19.5,2.7));
#476=UNCERTAINTY_MEASURE_WITH_UNIT(LENGTH_MEASURE(0.01),#480,
'DISTANCE_ACCURACY_VALUE',
'Maximum model space distance between geometric entities at asserted c
onnectivities');
#477=UNCERTAINTY_MEASURE_WITH_UNIT(LENGTH_MEASURE(0.01),#480,
'DISTANCE_ACCURACY_VALUE',
'Maximum model space distance between geometric entities at asserted c
onnectivities');
#478=(
GEOMETRIC_REPRESENTATION_CONTEXT(3)
GLOBAL_UNCERTAINTY_ASSIGNED_CONTEXT((#476))
GLOBAL_UNIT_ASSIGNED_CONTEXT((#480,#482,#483))
REPRESENTATION_CONTEXT('','3D')
);
#479=(
GEOMETRIC_REPRESENTATION_CONTEXT(3)
GLOBAL_UNCERTAINTY_ASSIGNED_CONTEXT((#477))
GLOBAL_UNIT_ASSIGNED_CONTEXT((#480,#482,#483))
REPRESENTATION_CONTEXT('','3D')
);
#480=(
LENGTH_UNIT()
NAMED_UNIT(*)
SI_UNIT(.MILLI.,.METRE.)
);
#481=(
LENGTH_UNIT()
NAMED_UNIT(*)
SI_UNIT($,.METRE.)
);
#482=(
NAMED_UNIT(*)
PLANE_ANGLE_UNIT()
SI_UNIT($,.RADIAN.)
);
#483=(
NAMED_UNIT(*)
SI_UNIT($,.STERADIAN.)
SOLID_ANGLE_UNIT()
);
#484=SHAPE_DEFINITION_REPRESENTATION(#485,#486);
#485=PRODUCT_DEFINITION_SHAPE('',$,#488);
#486=SHAPE_REPRESENTATION('',(#288),#478);
#487=PRODUCT_DEFINITION_CONTEXT('part definition',#492,'design');
#488=PRODUCT_DEFINITION('2026-07-07-16-47-09-751','Head Door',#489,#487);
#489=PRODUCT_DEFINITION_FORMATION('',$,#494);
#490=PRODUCT_RELATED_PRODUCT_CATEGORY('Head Door','Head Door',(#494));
#491=APPLICATION_PROTOCOL_DEFINITION('international standard',
'automotive_design',2009,#492);
#492=APPLICATION_CONTEXT(
'Core Data for Automotive Mechanical Design Process');
#493=PRODUCT_CONTEXT('part definition',#492,'mechanical');
#494=PRODUCT('2026-07-07-16-47-09-751','Head Door',$,(#493));
#495=PRESENTATION_STYLE_ASSIGNMENT((#497));
#496=PRESENTATION_STYLE_ASSIGNMENT((#498));
#497=SURFACE_STYLE_USAGE(.BOTH.,#499);
#498=SURFACE_STYLE_USAGE(.BOTH.,#500);
#499=SURFACE_SIDE_STYLE('',(#501));
#500=SURFACE_SIDE_STYLE('',(#502));
#501=SURFACE_STYLE_FILL_AREA(#503);
#502=SURFACE_STYLE_FILL_AREA(#504);
#503=FILL_AREA_STYLE('Steel - Satin',(#505));
#504=FILL_AREA_STYLE('Powder Coat (White)',(#506));
#505=FILL_AREA_STYLE_COLOUR('Steel - Satin',#507);
#506=FILL_AREA_STYLE_COLOUR('Powder Coat (White)',#508);
#507=COLOUR_RGB('Steel - Satin',0.627450980392157,0.627450980392157,0.627450980392157);
#508=COLOUR_RGB('Powder Coat (White)',0.964705882352941,0.964705882352941,
0.952941176470588);
ENDSEC;
END-ISO-10303-21;
