ISO-10303-21;
HEADER;
/* Generated by software containing ST-Developer
 * from STEP Tools, Inc. (www.steptools.com) 
 */

FILE_DESCRIPTION(
/* description */ (''),
/* implementation_level */ '2;1');

FILE_NAME(
/* name */ 'Qbot Head.step',
/* time_stamp */ '2026-07-07T18:34:25+07:00',
/* author */ (''),
/* organization */ (''),
/* preprocessor_version */ 'ST-DEVELOPER v20.1',
/* originating_system */ 'Autodesk Translation Framework v15.8.0.0',
/* authorisation */ '');

FILE_SCHEMA (('AUTOMOTIVE_DESIGN { 1 0 10303 214 3 1 1 }'));
ENDSEC;

DATA;
#10=MECHANICAL_DESIGN_GEOMETRIC_PRESENTATION_REPRESENTATION('',(#13),#1613);
#11=SHAPE_REPRESENTATION_RELATIONSHIP('SRR','None',#1620,#12);
#12=ADVANCED_BREP_SHAPE_REPRESENTATION('',(#14),#1612);
#13=STYLED_ITEM('',(#1630),#14);
#14=MANIFOLD_SOLID_BREP('Body1',#937);
#15=FACE_BOUND('',#313,.T.);
#16=FACE_BOUND('',#314,.T.);
#17=FACE_BOUND('',#315,.T.);
#18=FACE_BOUND('',#316,.T.);
#19=FACE_BOUND('',#317,.T.);
#20=FACE_BOUND('',#322,.T.);
#21=FACE_BOUND('',#323,.T.);
#22=FACE_BOUND('',#353,.T.);
#23=FACE_BOUND('',#356,.T.);
#24=FACE_BOUND('',#359,.T.);
#25=FACE_BOUND('',#362,.T.);
#26=FACE_BOUND('',#364,.T.);
#27=FACE_BOUND('',#365,.T.);
#28=FACE_BOUND('',#366,.T.);
#29=FACE_BOUND('',#367,.T.);
#30=FACE_BOUND('',#368,.T.);
#31=FACE_BOUND('',#373,.T.);
#32=FACE_BOUND('',#374,.T.);
#33=FACE_BOUND('',#377,.T.);
#34=FACE_BOUND('',#378,.T.);
#35=FACE_BOUND('',#379,.T.);
#36=FACE_BOUND('',#380,.T.);
#37=FACE_BOUND('',#381,.T.);
#38=PLANE('',#971);
#39=PLANE('',#978);
#40=PLANE('',#981);
#41=PLANE('',#984);
#42=PLANE('',#987);
#43=PLANE('',#988);
#44=PLANE('',#989);
#45=PLANE('',#990);
#46=PLANE('',#991);
#47=PLANE('',#992);
#48=PLANE('',#993);
#49=PLANE('',#994);
#50=PLANE('',#1003);
#51=PLANE('',#1004);
#52=PLANE('',#1005);
#53=PLANE('',#1006);
#54=PLANE('',#1010);
#55=PLANE('',#1014);
#56=PLANE('',#1018);
#57=PLANE('',#1022);
#58=PLANE('',#1026);
#59=PLANE('',#1030);
#60=PLANE('',#1034);
#61=PLANE('',#1038);
#62=PLANE('',#1039);
#63=PLANE('',#1040);
#64=PLANE('',#1041);
#65=PLANE('',#1042);
#66=PLANE('',#1043);
#67=PLANE('',#1044);
#68=PLANE('',#1045);
#69=LINE('',#1340,#149);
#70=LINE('',#1341,#150);
#71=LINE('',#1360,#151);
#72=LINE('',#1361,#152);
#73=LINE('',#1380,#153);
#74=LINE('',#1381,#154);
#75=LINE('',#1397,#155);
#76=LINE('',#1398,#156);
#77=LINE('',#1401,#157);
#78=LINE('',#1403,#158);
#79=LINE('',#1404,#159);
#80=LINE('',#1415,#160);
#81=LINE('',#1417,#161);
#82=LINE('',#1419,#162);
#83=LINE('',#1420,#163);
#84=LINE('',#1423,#164);
#85=LINE('',#1427,#165);
#86=LINE('',#1428,#166);
#87=LINE('',#1431,#167);
#88=LINE('',#1436,#168);
#89=LINE('',#1438,#169);
#90=LINE('',#1440,#170);
#91=LINE('',#1441,#171);
#92=LINE('',#1444,#172);
#93=LINE('',#1446,#173);
#94=LINE('',#1448,#174);
#95=LINE('',#1449,#175);
#96=LINE('',#1453,#176);
#97=LINE('',#1456,#177);
#98=LINE('',#1457,#178);
#99=LINE('',#1460,#179);
#100=LINE('',#1465,#180);
#101=LINE('',#1466,#181);
#102=LINE('',#1467,#182);
#103=LINE('',#1470,#183);
#104=LINE('',#1471,#184);
#105=LINE('',#1474,#185);
#106=LINE('',#1475,#186);
#107=LINE('',#1477,#187);
#108=LINE('',#1481,#188);
#109=LINE('',#1482,#189);
#110=LINE('',#1483,#190);
#111=LINE('',#1486,#191);
#112=LINE('',#1487,#192);
#113=LINE('',#1490,#193);
#114=LINE('',#1491,#194);
#115=LINE('',#1493,#195);
#116=LINE('',#1496,#196);
#117=LINE('',#1500,#197);
#118=LINE('',#1504,#198);
#119=LINE('',#1508,#199);
#120=LINE('',#1513,#200);
#121=LINE('',#1514,#201);
#122=LINE('',#1515,#202);
#123=LINE('',#1518,#203);
#124=LINE('',#1519,#204);
#125=LINE('',#1522,#205);
#126=LINE('',#1523,#206);
#127=LINE('',#1525,#207);
#128=LINE('',#1530,#208);
#129=LINE('',#1537,#209);
#130=LINE('',#1544,#210);
#131=LINE('',#1551,#211);
#132=LINE('',#1558,#212);
#133=LINE('',#1565,#213);
#134=LINE('',#1572,#214);
#135=LINE('',#1579,#215);
#136=LINE('',#1585,#216);
#137=LINE('',#1587,#217);
#138=LINE('',#1589,#218);
#139=LINE('',#1590,#219);
#140=LINE('',#1593,#220);
#141=LINE('',#1595,#221);
#142=LINE('',#1596,#222);
#143=LINE('',#1599,#223);
#144=LINE('',#1601,#224);
#145=LINE('',#1602,#225);
#146=LINE('',#1604,#226);
#147=LINE('',#1605,#227);
#148=LINE('',#1608,#228);
#149=VECTOR('',#1060,10.);
#150=VECTOR('',#1061,10.);
#151=VECTOR('',#1072,10.);
#152=VECTOR('',#1073,10.);
#153=VECTOR('',#1084,10.);
#154=VECTOR('',#1085,10.);
#155=VECTOR('',#1094,10.);
#156=VECTOR('',#1095,10.);
#157=VECTOR('',#1098,10.);
#158=VECTOR('',#1099,10.);
#159=VECTOR('',#1100,10.);
#160=VECTOR('',#1109,10.);
#161=VECTOR('',#1110,10.);
#162=VECTOR('',#1111,10.);
#163=VECTOR('',#1112,10.);
#164=VECTOR('',#1115,10.);
#165=VECTOR('',#1120,10.);
#166=VECTOR('',#1121,10.);
#167=VECTOR('',#1124,10.);
#168=VECTOR('',#1129,10.);
#169=VECTOR('',#1130,10.);
#170=VECTOR('',#1131,10.);
#171=VECTOR('',#1132,10.);
#172=VECTOR('',#1133,10.);
#173=VECTOR('',#1134,10.);
#174=VECTOR('',#1135,10.);
#175=VECTOR('',#1136,10.);
#176=VECTOR('',#1141,10.);
#177=VECTOR('',#1144,10.);
#178=VECTOR('',#1145,10.);
#179=VECTOR('',#1148,10.);
#180=VECTOR('',#1153,10.);
#181=VECTOR('',#1154,10.);
#182=VECTOR('',#1155,10.);
#183=VECTOR('',#1158,10.);
#184=VECTOR('',#1159,10.);
#185=VECTOR('',#1162,10.);
#186=VECTOR('',#1163,10.);
#187=VECTOR('',#1166,10.);
#188=VECTOR('',#1169,10.);
#189=VECTOR('',#1170,10.);
#190=VECTOR('',#1171,10.);
#191=VECTOR('',#1174,10.);
#192=VECTOR('',#1175,10.);
#193=VECTOR('',#1178,10.);
#194=VECTOR('',#1179,10.);
#195=VECTOR('',#1182,10.);
#196=VECTOR('',#1185,1.6);
#197=VECTOR('',#1190,1.6);
#198=VECTOR('',#1195,1.6);
#199=VECTOR('',#1200,1.6);
#200=VECTOR('',#1205,10.);
#201=VECTOR('',#1206,10.);
#202=VECTOR('',#1207,10.);
#203=VECTOR('',#1210,10.);
#204=VECTOR('',#1211,10.);
#205=VECTOR('',#1214,10.);
#206=VECTOR('',#1215,10.);
#207=VECTOR('',#1218,10.);
#208=VECTOR('',#1223,1.6);
#209=VECTOR('',#1232,1.6);
#210=VECTOR('',#1241,1.6);
#211=VECTOR('',#1250,1.6);
#212=VECTOR('',#1259,2.6);
#213=VECTOR('',#1268,2.6);
#214=VECTOR('',#1277,2.6);
#215=VECTOR('',#1286,2.60000000000002);
#216=VECTOR('',#1293,10.);
#217=VECTOR('',#1294,10.);
#218=VECTOR('',#1295,10.);
#219=VECTOR('',#1296,10.);
#220=VECTOR('',#1299,10.);
#221=VECTOR('',#1300,10.);
#222=VECTOR('',#1301,10.);
#223=VECTOR('',#1304,10.);
#224=VECTOR('',#1305,10.);
#225=VECTOR('',#1306,10.);
#226=VECTOR('',#1309,10.);
#227=VECTOR('',#1310,10.);
#228=VECTOR('',#1315,10.);
#229=CYLINDRICAL_SURFACE('',#955,3.);
#230=CYLINDRICAL_SURFACE('',#960,3.);
#231=CYLINDRICAL_SURFACE('',#965,3.);
#232=CYLINDRICAL_SURFACE('',#970,3.);
#233=CYLINDRICAL_SURFACE('',#976,6.);
#234=CYLINDRICAL_SURFACE('',#979,6.);
#235=CYLINDRICAL_SURFACE('',#982,6.);
#236=CYLINDRICAL_SURFACE('',#985,6.);
#237=CYLINDRICAL_SURFACE('',#995,1.6);
#238=CYLINDRICAL_SURFACE('',#997,1.6);
#239=CYLINDRICAL_SURFACE('',#999,1.6);
#240=CYLINDRICAL_SURFACE('',#1001,1.6);
#241=CYLINDRICAL_SURFACE('',#1007,1.6);
#242=CYLINDRICAL_SURFACE('',#1011,1.6);
#243=CYLINDRICAL_SURFACE('',#1015,1.6);
#244=CYLINDRICAL_SURFACE('',#1019,1.6);
#245=CYLINDRICAL_SURFACE('',#1023,2.6);
#246=CYLINDRICAL_SURFACE('',#1027,2.6);
#247=CYLINDRICAL_SURFACE('',#1031,2.6);
#248=CYLINDRICAL_SURFACE('',#1035,2.60000000000002);
#249=FACE_OUTER_BOUND('',#304,.T.);
#250=FACE_OUTER_BOUND('',#305,.T.);
#251=FACE_OUTER_BOUND('',#306,.T.);
#252=FACE_OUTER_BOUND('',#307,.T.);
#253=FACE_OUTER_BOUND('',#308,.T.);
#254=FACE_OUTER_BOUND('',#309,.T.);
#255=FACE_OUTER_BOUND('',#310,.T.);
#256=FACE_OUTER_BOUND('',#311,.T.);
#257=FACE_OUTER_BOUND('',#312,.T.);
#258=FACE_OUTER_BOUND('',#318,.T.);
#259=FACE_OUTER_BOUND('',#319,.T.);
#260=FACE_OUTER_BOUND('',#320,.T.);
#261=FACE_OUTER_BOUND('',#321,.T.);
#262=FACE_OUTER_BOUND('',#324,.T.);
#263=FACE_OUTER_BOUND('',#325,.T.);
#264=FACE_OUTER_BOUND('',#326,.T.);
#265=FACE_OUTER_BOUND('',#327,.T.);
#266=FACE_OUTER_BOUND('',#328,.T.);
#267=FACE_OUTER_BOUND('',#329,.T.);
#268=FACE_OUTER_BOUND('',#330,.T.);
#269=FACE_OUTER_BOUND('',#331,.T.);
#270=FACE_OUTER_BOUND('',#332,.T.);
#271=FACE_OUTER_BOUND('',#333,.T.);
#272=FACE_OUTER_BOUND('',#334,.T.);
#273=FACE_OUTER_BOUND('',#335,.T.);
#274=FACE_OUTER_BOUND('',#336,.T.);
#275=FACE_OUTER_BOUND('',#337,.T.);
#276=FACE_OUTER_BOUND('',#338,.T.);
#277=FACE_OUTER_BOUND('',#339,.T.);
#278=FACE_OUTER_BOUND('',#340,.T.);
#279=FACE_OUTER_BOUND('',#341,.T.);
#280=FACE_OUTER_BOUND('',#342,.T.);
#281=FACE_OUTER_BOUND('',#343,.T.);
#282=FACE_OUTER_BOUND('',#344,.T.);
#283=FACE_OUTER_BOUND('',#345,.T.);
#284=FACE_OUTER_BOUND('',#346,.T.);
#285=FACE_OUTER_BOUND('',#347,.T.);
#286=FACE_OUTER_BOUND('',#348,.T.);
#287=FACE_OUTER_BOUND('',#349,.T.);
#288=FACE_OUTER_BOUND('',#350,.T.);
#289=FACE_OUTER_BOUND('',#351,.T.);
#290=FACE_OUTER_BOUND('',#352,.T.);
#291=FACE_OUTER_BOUND('',#354,.T.);
#292=FACE_OUTER_BOUND('',#355,.T.);
#293=FACE_OUTER_BOUND('',#357,.T.);
#294=FACE_OUTER_BOUND('',#358,.T.);
#295=FACE_OUTER_BOUND('',#360,.T.);
#296=FACE_OUTER_BOUND('',#361,.T.);
#297=FACE_OUTER_BOUND('',#363,.T.);
#298=FACE_OUTER_BOUND('',#369,.T.);
#299=FACE_OUTER_BOUND('',#370,.T.);
#300=FACE_OUTER_BOUND('',#371,.T.);
#301=FACE_OUTER_BOUND('',#372,.T.);
#302=FACE_OUTER_BOUND('',#375,.T.);
#303=FACE_OUTER_BOUND('',#376,.T.);
#304=EDGE_LOOP('',(#630,#631,#632,#633));
#305=EDGE_LOOP('',(#634,#635,#636,#637));
#306=EDGE_LOOP('',(#638,#639,#640,#641));
#307=EDGE_LOOP('',(#642,#643,#644,#645));
#308=EDGE_LOOP('',(#646,#647,#648,#649));
#309=EDGE_LOOP('',(#650,#651,#652,#653));
#310=EDGE_LOOP('',(#654,#655,#656,#657));
#311=EDGE_LOOP('',(#658,#659,#660,#661));
#312=EDGE_LOOP('',(#662,#663,#664,#665));
#313=EDGE_LOOP('',(#666));
#314=EDGE_LOOP('',(#667));
#315=EDGE_LOOP('',(#668));
#316=EDGE_LOOP('',(#669));
#317=EDGE_LOOP('',(#670,#671,#672,#673));
#318=EDGE_LOOP('',(#674,#675,#676,#677));
#319=EDGE_LOOP('',(#678,#679,#680,#681));
#320=EDGE_LOOP('',(#682,#683,#684,#685));
#321=EDGE_LOOP('',(#686,#687,#688,#689,#690,#691,#692,#693));
#322=EDGE_LOOP('',(#694,#695,#696,#697));
#323=EDGE_LOOP('',(#698,#699,#700,#701));
#324=EDGE_LOOP('',(#702,#703,#704,#705));
#325=EDGE_LOOP('',(#706,#707,#708,#709));
#326=EDGE_LOOP('',(#710,#711,#712,#713));
#327=EDGE_LOOP('',(#714,#715,#716,#717));
#328=EDGE_LOOP('',(#718,#719,#720,#721));
#329=EDGE_LOOP('',(#722,#723,#724,#725));
#330=EDGE_LOOP('',(#726,#727,#728,#729));
#331=EDGE_LOOP('',(#730,#731,#732,#733));
#332=EDGE_LOOP('',(#734,#735,#736,#737));
#333=EDGE_LOOP('',(#738,#739,#740,#741));
#334=EDGE_LOOP('',(#742,#743,#744,#745));
#335=EDGE_LOOP('',(#746,#747,#748,#749));
#336=EDGE_LOOP('',(#750,#751,#752,#753));
#337=EDGE_LOOP('',(#754,#755,#756,#757));
#338=EDGE_LOOP('',(#758,#759,#760,#761));
#339=EDGE_LOOP('',(#762,#763,#764,#765));
#340=EDGE_LOOP('',(#766,#767,#768,#769));
#341=EDGE_LOOP('',(#770,#771,#772,#773));
#342=EDGE_LOOP('',(#774,#775,#776,#777));
#343=EDGE_LOOP('',(#778,#779,#780,#781));
#344=EDGE_LOOP('',(#782));
#345=EDGE_LOOP('',(#783,#784,#785,#786));
#346=EDGE_LOOP('',(#787));
#347=EDGE_LOOP('',(#788,#789,#790,#791));
#348=EDGE_LOOP('',(#792));
#349=EDGE_LOOP('',(#793,#794,#795,#796));
#350=EDGE_LOOP('',(#797));
#351=EDGE_LOOP('',(#798,#799,#800,#801));
#352=EDGE_LOOP('',(#802));
#353=EDGE_LOOP('',(#803));
#354=EDGE_LOOP('',(#804,#805,#806,#807));
#355=EDGE_LOOP('',(#808));
#356=EDGE_LOOP('',(#809));
#357=EDGE_LOOP('',(#810,#811,#812,#813));
#358=EDGE_LOOP('',(#814));
#359=EDGE_LOOP('',(#815));
#360=EDGE_LOOP('',(#816,#817,#818,#819));
#361=EDGE_LOOP('',(#820));
#362=EDGE_LOOP('',(#821));
#363=EDGE_LOOP('',(#822,#823,#824,#825));
#364=EDGE_LOOP('',(#826,#827,#828,#829));
#365=EDGE_LOOP('',(#830));
#366=EDGE_LOOP('',(#831));
#367=EDGE_LOOP('',(#832));
#368=EDGE_LOOP('',(#833));
#369=EDGE_LOOP('',(#834,#835,#836,#837));
#370=EDGE_LOOP('',(#838,#839,#840,#841));
#371=EDGE_LOOP('',(#842,#843,#844,#845));
#372=EDGE_LOOP('',(#846,#847,#848,#849));
#373=EDGE_LOOP('',(#850,#851,#852,#853));
#374=EDGE_LOOP('',(#854,#855,#856,#857));
#375=EDGE_LOOP('',(#858,#859,#860,#861));
#376=EDGE_LOOP('',(#862,#863,#864,#865,#866,#867,#868,#869));
#377=EDGE_LOOP('',(#870,#871,#872,#873));
#378=EDGE_LOOP('',(#874));
#379=EDGE_LOOP('',(#875));
#380=EDGE_LOOP('',(#876));
#381=EDGE_LOOP('',(#877));
#382=CIRCLE('',#951,2.99999999999999);
#383=CIRCLE('',#952,3.);
#384=CIRCLE('',#953,3.);
#385=CIRCLE('',#954,6.);
#386=CIRCLE('',#956,3.);
#387=CIRCLE('',#957,3.);
#388=CIRCLE('',#958,6.);
#389=CIRCLE('',#959,3.);
#390=CIRCLE('',#961,3.);
#391=CIRCLE('',#962,3.);
#392=CIRCLE('',#963,6.);
#393=CIRCLE('',#964,3.);
#394=CIRCLE('',#966,3.);
#395=CIRCLE('',#967,3.);
#396=CIRCLE('',#968,6.);
#397=CIRCLE('',#969,3.);
#398=CIRCLE('',#972,1.6);
#399=CIRCLE('',#973,1.6);
#400=CIRCLE('',#974,1.6);
#401=CIRCLE('',#975,1.6);
#402=CIRCLE('',#977,6.);
#403=CIRCLE('',#980,6.);
#404=CIRCLE('',#983,6.);
#405=CIRCLE('',#986,6.);
#406=CIRCLE('',#996,1.6);
#407=CIRCLE('',#998,1.6);
#408=CIRCLE('',#1000,1.6);
#409=CIRCLE('',#1002,1.6);
#410=CIRCLE('',#1008,1.6);
#411=CIRCLE('',#1009,1.6);
#412=CIRCLE('',#1012,1.6);
#413=CIRCLE('',#1013,1.6);
#414=CIRCLE('',#1016,1.6);
#415=CIRCLE('',#1017,1.6);
#416=CIRCLE('',#1020,1.6);
#417=CIRCLE('',#1021,1.6);
#418=CIRCLE('',#1024,2.6);
#419=CIRCLE('',#1025,2.6);
#420=CIRCLE('',#1028,2.6);
#421=CIRCLE('',#1029,2.6);
#422=CIRCLE('',#1032,2.6);
#423=CIRCLE('',#1033,2.6);
#424=CIRCLE('',#1036,2.60000000000002);
#425=CIRCLE('',#1037,2.60000000000002);
#426=VERTEX_POINT('',#1328);
#427=VERTEX_POINT('',#1329);
#428=VERTEX_POINT('',#1331);
#429=VERTEX_POINT('',#1333);
#430=VERTEX_POINT('',#1337);
#431=VERTEX_POINT('',#1338);
#432=VERTEX_POINT('',#1351);
#433=VERTEX_POINT('',#1352);
#434=VERTEX_POINT('',#1357);
#435=VERTEX_POINT('',#1358);
#436=VERTEX_POINT('',#1371);
#437=VERTEX_POINT('',#1372);
#438=VERTEX_POINT('',#1377);
#439=VERTEX_POINT('',#1378);
#440=VERTEX_POINT('',#1391);
#441=VERTEX_POINT('',#1392);
#442=VERTEX_POINT('',#1400);
#443=VERTEX_POINT('',#1402);
#444=VERTEX_POINT('',#1405);
#445=VERTEX_POINT('',#1407);
#446=VERTEX_POINT('',#1409);
#447=VERTEX_POINT('',#1411);
#448=VERTEX_POINT('',#1413);
#449=VERTEX_POINT('',#1414);
#450=VERTEX_POINT('',#1416);
#451=VERTEX_POINT('',#1418);
#452=VERTEX_POINT('',#1422);
#453=VERTEX_POINT('',#1426);
#454=VERTEX_POINT('',#1430);
#455=VERTEX_POINT('',#1434);
#456=VERTEX_POINT('',#1435);
#457=VERTEX_POINT('',#1437);
#458=VERTEX_POINT('',#1439);
#459=VERTEX_POINT('',#1442);
#460=VERTEX_POINT('',#1443);
#461=VERTEX_POINT('',#1445);
#462=VERTEX_POINT('',#1447);
#463=VERTEX_POINT('',#1451);
#464=VERTEX_POINT('',#1455);
#465=VERTEX_POINT('',#1459);
#466=VERTEX_POINT('',#1463);
#467=VERTEX_POINT('',#1464);
#468=VERTEX_POINT('',#1469);
#469=VERTEX_POINT('',#1473);
#470=VERTEX_POINT('',#1479);
#471=VERTEX_POINT('',#1480);
#472=VERTEX_POINT('',#1485);
#473=VERTEX_POINT('',#1489);
#474=VERTEX_POINT('',#1495);
#475=VERTEX_POINT('',#1499);
#476=VERTEX_POINT('',#1503);
#477=VERTEX_POINT('',#1507);
#478=VERTEX_POINT('',#1511);
#479=VERTEX_POINT('',#1512);
#480=VERTEX_POINT('',#1517);
#481=VERTEX_POINT('',#1521);
#482=VERTEX_POINT('',#1527);
#483=VERTEX_POINT('',#1529);
#484=VERTEX_POINT('',#1534);
#485=VERTEX_POINT('',#1536);
#486=VERTEX_POINT('',#1541);
#487=VERTEX_POINT('',#1543);
#488=VERTEX_POINT('',#1548);
#489=VERTEX_POINT('',#1550);
#490=VERTEX_POINT('',#1555);
#491=VERTEX_POINT('',#1557);
#492=VERTEX_POINT('',#1562);
#493=VERTEX_POINT('',#1564);
#494=VERTEX_POINT('',#1569);
#495=VERTEX_POINT('',#1571);
#496=VERTEX_POINT('',#1576);
#497=VERTEX_POINT('',#1578);
#498=VERTEX_POINT('',#1583);
#499=VERTEX_POINT('',#1584);
#500=VERTEX_POINT('',#1586);
#501=VERTEX_POINT('',#1588);
#502=VERTEX_POINT('',#1592);
#503=VERTEX_POINT('',#1594);
#504=VERTEX_POINT('',#1598);
#505=VERTEX_POINT('',#1600);
#506=EDGE_CURVE('',#426,#427,#382,.T.);
#507=EDGE_CURVE('',#427,#428,#383,.T.);
#508=EDGE_CURVE('',#428,#429,#384,.T.);
#509=EDGE_CURVE('',#429,#426,#385,.T.);
#510=EDGE_CURVE('',#430,#431,#386,.T.);
#511=EDGE_CURVE('',#431,#429,#69,.T.);
#512=EDGE_CURVE('',#428,#430,#70,.T.);
#513=EDGE_CURVE('',#432,#433,#387,.T.);
#514=EDGE_CURVE('',#433,#431,#388,.T.);
#515=EDGE_CURVE('',#430,#432,#389,.T.);
#516=EDGE_CURVE('',#434,#435,#390,.T.);
#517=EDGE_CURVE('',#435,#433,#71,.T.);
#518=EDGE_CURVE('',#432,#434,#72,.T.);
#519=EDGE_CURVE('',#436,#437,#391,.T.);
#520=EDGE_CURVE('',#437,#435,#392,.T.);
#521=EDGE_CURVE('',#434,#436,#393,.T.);
#522=EDGE_CURVE('',#438,#439,#394,.T.);
#523=EDGE_CURVE('',#439,#437,#73,.T.);
#524=EDGE_CURVE('',#436,#438,#74,.T.);
#525=EDGE_CURVE('',#440,#441,#395,.T.);
#526=EDGE_CURVE('',#441,#439,#396,.T.);
#527=EDGE_CURVE('',#438,#440,#397,.T.);
#528=EDGE_CURVE('',#440,#427,#75,.T.);
#529=EDGE_CURVE('',#426,#441,#76,.T.);
#530=EDGE_CURVE('',#442,#439,#77,.T.);
#531=EDGE_CURVE('',#443,#442,#78,.T.);
#532=EDGE_CURVE('',#437,#443,#79,.T.);
#533=EDGE_CURVE('',#444,#444,#398,.T.);
#534=EDGE_CURVE('',#445,#445,#399,.T.);
#535=EDGE_CURVE('',#446,#446,#400,.T.);
#536=EDGE_CURVE('',#447,#447,#401,.T.);
#537=EDGE_CURVE('',#448,#449,#80,.T.);
#538=EDGE_CURVE('',#449,#450,#81,.T.);
#539=EDGE_CURVE('',#450,#451,#82,.T.);
#540=EDGE_CURVE('',#451,#448,#83,.T.);
#541=EDGE_CURVE('',#441,#452,#84,.T.);
#542=EDGE_CURVE('',#452,#442,#402,.T.);
#543=EDGE_CURVE('',#453,#426,#85,.T.);
#544=EDGE_CURVE('',#452,#453,#86,.T.);
#545=EDGE_CURVE('',#429,#454,#87,.T.);
#546=EDGE_CURVE('',#454,#453,#403,.T.);
#547=EDGE_CURVE('',#455,#456,#88,.T.);
#548=EDGE_CURVE('',#456,#457,#89,.T.);
#549=EDGE_CURVE('',#457,#458,#90,.T.);
#550=EDGE_CURVE('',#458,#455,#91,.T.);
#551=EDGE_CURVE('',#459,#460,#92,.T.);
#552=EDGE_CURVE('',#460,#461,#93,.T.);
#553=EDGE_CURVE('',#461,#462,#94,.T.);
#554=EDGE_CURVE('',#462,#459,#95,.T.);
#555=EDGE_CURVE('',#443,#463,#404,.T.);
#556=EDGE_CURVE('',#463,#435,#96,.T.);
#557=EDGE_CURVE('',#464,#431,#97,.T.);
#558=EDGE_CURVE('',#454,#464,#98,.T.);
#559=EDGE_CURVE('',#433,#465,#99,.T.);
#560=EDGE_CURVE('',#465,#464,#405,.T.);
#561=EDGE_CURVE('',#466,#467,#100,.T.);
#562=EDGE_CURVE('',#462,#466,#101,.T.);
#563=EDGE_CURVE('',#461,#467,#102,.T.);
#564=EDGE_CURVE('',#467,#468,#103,.T.);
#565=EDGE_CURVE('',#460,#468,#104,.T.);
#566=EDGE_CURVE('',#468,#469,#105,.T.);
#567=EDGE_CURVE('',#459,#469,#106,.T.);
#568=EDGE_CURVE('',#469,#466,#107,.T.);
#569=EDGE_CURVE('',#470,#471,#108,.T.);
#570=EDGE_CURVE('',#458,#470,#109,.T.);
#571=EDGE_CURVE('',#457,#471,#110,.T.);
#572=EDGE_CURVE('',#471,#472,#111,.T.);
#573=EDGE_CURVE('',#456,#472,#112,.T.);
#574=EDGE_CURVE('',#472,#473,#113,.T.);
#575=EDGE_CURVE('',#455,#473,#114,.T.);
#576=EDGE_CURVE('',#473,#470,#115,.T.);
#577=EDGE_CURVE('',#444,#474,#116,.T.);
#578=EDGE_CURVE('',#474,#474,#406,.T.);
#579=EDGE_CURVE('',#445,#475,#117,.T.);
#580=EDGE_CURVE('',#475,#475,#407,.T.);
#581=EDGE_CURVE('',#446,#476,#118,.T.);
#582=EDGE_CURVE('',#476,#476,#408,.T.);
#583=EDGE_CURVE('',#447,#477,#119,.T.);
#584=EDGE_CURVE('',#477,#477,#409,.T.);
#585=EDGE_CURVE('',#478,#479,#120,.T.);
#586=EDGE_CURVE('',#451,#478,#121,.T.);
#587=EDGE_CURVE('',#450,#479,#122,.T.);
#588=EDGE_CURVE('',#479,#480,#123,.T.);
#589=EDGE_CURVE('',#449,#480,#124,.T.);
#590=EDGE_CURVE('',#480,#481,#125,.T.);
#591=EDGE_CURVE('',#448,#481,#126,.T.);
#592=EDGE_CURVE('',#481,#478,#127,.T.);
#593=EDGE_CURVE('',#482,#482,#410,.T.);
#594=EDGE_CURVE('',#482,#483,#128,.T.);
#595=EDGE_CURVE('',#483,#483,#411,.T.);
#596=EDGE_CURVE('',#484,#484,#412,.T.);
#597=EDGE_CURVE('',#484,#485,#129,.T.);
#598=EDGE_CURVE('',#485,#485,#413,.T.);
#599=EDGE_CURVE('',#486,#486,#414,.T.);
#600=EDGE_CURVE('',#486,#487,#130,.T.);
#601=EDGE_CURVE('',#487,#487,#415,.T.);
#602=EDGE_CURVE('',#488,#488,#416,.T.);
#603=EDGE_CURVE('',#488,#489,#131,.T.);
#604=EDGE_CURVE('',#489,#489,#417,.T.);
#605=EDGE_CURVE('',#490,#490,#418,.T.);
#606=EDGE_CURVE('',#490,#491,#132,.T.);
#607=EDGE_CURVE('',#491,#491,#419,.T.);
#608=EDGE_CURVE('',#492,#492,#420,.T.);
#609=EDGE_CURVE('',#492,#493,#133,.T.);
#610=EDGE_CURVE('',#493,#493,#421,.T.);
#611=EDGE_CURVE('',#494,#494,#422,.T.);
#612=EDGE_CURVE('',#494,#495,#134,.T.);
#613=EDGE_CURVE('',#495,#495,#423,.T.);
#614=EDGE_CURVE('',#496,#496,#424,.T.);
#615=EDGE_CURVE('',#496,#497,#135,.T.);
#616=EDGE_CURVE('',#497,#497,#425,.T.);
#617=EDGE_CURVE('',#498,#499,#136,.T.);
#618=EDGE_CURVE('',#498,#500,#137,.T.);
#619=EDGE_CURVE('',#500,#501,#138,.T.);
#620=EDGE_CURVE('',#499,#501,#139,.T.);
#621=EDGE_CURVE('',#502,#498,#140,.T.);
#622=EDGE_CURVE('',#502,#503,#141,.T.);
#623=EDGE_CURVE('',#503,#500,#142,.T.);
#624=EDGE_CURVE('',#504,#502,#143,.T.);
#625=EDGE_CURVE('',#504,#505,#144,.T.);
#626=EDGE_CURVE('',#505,#503,#145,.T.);
#627=EDGE_CURVE('',#499,#504,#146,.T.);
#628=EDGE_CURVE('',#501,#505,#147,.T.);
#629=EDGE_CURVE('',#465,#463,#148,.T.);
#630=ORIENTED_EDGE('',*,*,#506,.T.);
#631=ORIENTED_EDGE('',*,*,#507,.T.);
#632=ORIENTED_EDGE('',*,*,#508,.T.);
#633=ORIENTED_EDGE('',*,*,#509,.T.);
#634=ORIENTED_EDGE('',*,*,#510,.T.);
#635=ORIENTED_EDGE('',*,*,#511,.T.);
#636=ORIENTED_EDGE('',*,*,#508,.F.);
#637=ORIENTED_EDGE('',*,*,#512,.T.);
#638=ORIENTED_EDGE('',*,*,#513,.T.);
#639=ORIENTED_EDGE('',*,*,#514,.T.);
#640=ORIENTED_EDGE('',*,*,#510,.F.);
#641=ORIENTED_EDGE('',*,*,#515,.T.);
#642=ORIENTED_EDGE('',*,*,#516,.T.);
#643=ORIENTED_EDGE('',*,*,#517,.T.);
#644=ORIENTED_EDGE('',*,*,#513,.F.);
#645=ORIENTED_EDGE('',*,*,#518,.T.);
#646=ORIENTED_EDGE('',*,*,#519,.T.);
#647=ORIENTED_EDGE('',*,*,#520,.T.);
#648=ORIENTED_EDGE('',*,*,#516,.F.);
#649=ORIENTED_EDGE('',*,*,#521,.T.);
#650=ORIENTED_EDGE('',*,*,#522,.T.);
#651=ORIENTED_EDGE('',*,*,#523,.T.);
#652=ORIENTED_EDGE('',*,*,#519,.F.);
#653=ORIENTED_EDGE('',*,*,#524,.T.);
#654=ORIENTED_EDGE('',*,*,#525,.T.);
#655=ORIENTED_EDGE('',*,*,#526,.T.);
#656=ORIENTED_EDGE('',*,*,#522,.F.);
#657=ORIENTED_EDGE('',*,*,#527,.T.);
#658=ORIENTED_EDGE('',*,*,#525,.F.);
#659=ORIENTED_EDGE('',*,*,#528,.T.);
#660=ORIENTED_EDGE('',*,*,#506,.F.);
#661=ORIENTED_EDGE('',*,*,#529,.T.);
#662=ORIENTED_EDGE('',*,*,#523,.F.);
#663=ORIENTED_EDGE('',*,*,#530,.F.);
#664=ORIENTED_EDGE('',*,*,#531,.F.);
#665=ORIENTED_EDGE('',*,*,#532,.F.);
#666=ORIENTED_EDGE('',*,*,#533,.T.);
#667=ORIENTED_EDGE('',*,*,#534,.T.);
#668=ORIENTED_EDGE('',*,*,#535,.T.);
#669=ORIENTED_EDGE('',*,*,#536,.T.);
#670=ORIENTED_EDGE('',*,*,#537,.T.);
#671=ORIENTED_EDGE('',*,*,#538,.T.);
#672=ORIENTED_EDGE('',*,*,#539,.T.);
#673=ORIENTED_EDGE('',*,*,#540,.T.);
#674=ORIENTED_EDGE('',*,*,#526,.F.);
#675=ORIENTED_EDGE('',*,*,#541,.T.);
#676=ORIENTED_EDGE('',*,*,#542,.T.);
#677=ORIENTED_EDGE('',*,*,#530,.T.);
#678=ORIENTED_EDGE('',*,*,#529,.F.);
#679=ORIENTED_EDGE('',*,*,#543,.F.);
#680=ORIENTED_EDGE('',*,*,#544,.F.);
#681=ORIENTED_EDGE('',*,*,#541,.F.);
#682=ORIENTED_EDGE('',*,*,#509,.F.);
#683=ORIENTED_EDGE('',*,*,#545,.T.);
#684=ORIENTED_EDGE('',*,*,#546,.T.);
#685=ORIENTED_EDGE('',*,*,#543,.T.);
#686=ORIENTED_EDGE('',*,*,#507,.F.);
#687=ORIENTED_EDGE('',*,*,#528,.F.);
#688=ORIENTED_EDGE('',*,*,#527,.F.);
#689=ORIENTED_EDGE('',*,*,#524,.F.);
#690=ORIENTED_EDGE('',*,*,#521,.F.);
#691=ORIENTED_EDGE('',*,*,#518,.F.);
#692=ORIENTED_EDGE('',*,*,#515,.F.);
#693=ORIENTED_EDGE('',*,*,#512,.F.);
#694=ORIENTED_EDGE('',*,*,#547,.T.);
#695=ORIENTED_EDGE('',*,*,#548,.T.);
#696=ORIENTED_EDGE('',*,*,#549,.T.);
#697=ORIENTED_EDGE('',*,*,#550,.T.);
#698=ORIENTED_EDGE('',*,*,#551,.T.);
#699=ORIENTED_EDGE('',*,*,#552,.T.);
#700=ORIENTED_EDGE('',*,*,#553,.T.);
#701=ORIENTED_EDGE('',*,*,#554,.T.);
#702=ORIENTED_EDGE('',*,*,#520,.F.);
#703=ORIENTED_EDGE('',*,*,#532,.T.);
#704=ORIENTED_EDGE('',*,*,#555,.T.);
#705=ORIENTED_EDGE('',*,*,#556,.T.);
#706=ORIENTED_EDGE('',*,*,#511,.F.);
#707=ORIENTED_EDGE('',*,*,#557,.F.);
#708=ORIENTED_EDGE('',*,*,#558,.F.);
#709=ORIENTED_EDGE('',*,*,#545,.F.);
#710=ORIENTED_EDGE('',*,*,#514,.F.);
#711=ORIENTED_EDGE('',*,*,#559,.T.);
#712=ORIENTED_EDGE('',*,*,#560,.T.);
#713=ORIENTED_EDGE('',*,*,#557,.T.);
#714=ORIENTED_EDGE('',*,*,#561,.F.);
#715=ORIENTED_EDGE('',*,*,#562,.F.);
#716=ORIENTED_EDGE('',*,*,#553,.F.);
#717=ORIENTED_EDGE('',*,*,#563,.T.);
#718=ORIENTED_EDGE('',*,*,#564,.F.);
#719=ORIENTED_EDGE('',*,*,#563,.F.);
#720=ORIENTED_EDGE('',*,*,#552,.F.);
#721=ORIENTED_EDGE('',*,*,#565,.T.);
#722=ORIENTED_EDGE('',*,*,#566,.F.);
#723=ORIENTED_EDGE('',*,*,#565,.F.);
#724=ORIENTED_EDGE('',*,*,#551,.F.);
#725=ORIENTED_EDGE('',*,*,#567,.T.);
#726=ORIENTED_EDGE('',*,*,#568,.F.);
#727=ORIENTED_EDGE('',*,*,#567,.F.);
#728=ORIENTED_EDGE('',*,*,#554,.F.);
#729=ORIENTED_EDGE('',*,*,#562,.T.);
#730=ORIENTED_EDGE('',*,*,#569,.F.);
#731=ORIENTED_EDGE('',*,*,#570,.F.);
#732=ORIENTED_EDGE('',*,*,#549,.F.);
#733=ORIENTED_EDGE('',*,*,#571,.T.);
#734=ORIENTED_EDGE('',*,*,#572,.F.);
#735=ORIENTED_EDGE('',*,*,#571,.F.);
#736=ORIENTED_EDGE('',*,*,#548,.F.);
#737=ORIENTED_EDGE('',*,*,#573,.T.);
#738=ORIENTED_EDGE('',*,*,#574,.F.);
#739=ORIENTED_EDGE('',*,*,#573,.F.);
#740=ORIENTED_EDGE('',*,*,#547,.F.);
#741=ORIENTED_EDGE('',*,*,#575,.T.);
#742=ORIENTED_EDGE('',*,*,#576,.F.);
#743=ORIENTED_EDGE('',*,*,#575,.F.);
#744=ORIENTED_EDGE('',*,*,#550,.F.);
#745=ORIENTED_EDGE('',*,*,#570,.T.);
#746=ORIENTED_EDGE('',*,*,#533,.F.);
#747=ORIENTED_EDGE('',*,*,#577,.T.);
#748=ORIENTED_EDGE('',*,*,#578,.F.);
#749=ORIENTED_EDGE('',*,*,#577,.F.);
#750=ORIENTED_EDGE('',*,*,#534,.F.);
#751=ORIENTED_EDGE('',*,*,#579,.T.);
#752=ORIENTED_EDGE('',*,*,#580,.F.);
#753=ORIENTED_EDGE('',*,*,#579,.F.);
#754=ORIENTED_EDGE('',*,*,#535,.F.);
#755=ORIENTED_EDGE('',*,*,#581,.T.);
#756=ORIENTED_EDGE('',*,*,#582,.F.);
#757=ORIENTED_EDGE('',*,*,#581,.F.);
#758=ORIENTED_EDGE('',*,*,#536,.F.);
#759=ORIENTED_EDGE('',*,*,#583,.T.);
#760=ORIENTED_EDGE('',*,*,#584,.F.);
#761=ORIENTED_EDGE('',*,*,#583,.F.);
#762=ORIENTED_EDGE('',*,*,#585,.F.);
#763=ORIENTED_EDGE('',*,*,#586,.F.);
#764=ORIENTED_EDGE('',*,*,#539,.F.);
#765=ORIENTED_EDGE('',*,*,#587,.T.);
#766=ORIENTED_EDGE('',*,*,#588,.F.);
#767=ORIENTED_EDGE('',*,*,#587,.F.);
#768=ORIENTED_EDGE('',*,*,#538,.F.);
#769=ORIENTED_EDGE('',*,*,#589,.T.);
#770=ORIENTED_EDGE('',*,*,#590,.F.);
#771=ORIENTED_EDGE('',*,*,#589,.F.);
#772=ORIENTED_EDGE('',*,*,#537,.F.);
#773=ORIENTED_EDGE('',*,*,#591,.T.);
#774=ORIENTED_EDGE('',*,*,#592,.F.);
#775=ORIENTED_EDGE('',*,*,#591,.F.);
#776=ORIENTED_EDGE('',*,*,#540,.F.);
#777=ORIENTED_EDGE('',*,*,#586,.T.);
#778=ORIENTED_EDGE('',*,*,#593,.T.);
#779=ORIENTED_EDGE('',*,*,#594,.T.);
#780=ORIENTED_EDGE('',*,*,#595,.T.);
#781=ORIENTED_EDGE('',*,*,#594,.F.);
#782=ORIENTED_EDGE('',*,*,#595,.F.);
#783=ORIENTED_EDGE('',*,*,#596,.T.);
#784=ORIENTED_EDGE('',*,*,#597,.T.);
#785=ORIENTED_EDGE('',*,*,#598,.T.);
#786=ORIENTED_EDGE('',*,*,#597,.F.);
#787=ORIENTED_EDGE('',*,*,#598,.F.);
#788=ORIENTED_EDGE('',*,*,#599,.T.);
#789=ORIENTED_EDGE('',*,*,#600,.T.);
#790=ORIENTED_EDGE('',*,*,#601,.T.);
#791=ORIENTED_EDGE('',*,*,#600,.F.);
#792=ORIENTED_EDGE('',*,*,#601,.F.);
#793=ORIENTED_EDGE('',*,*,#602,.T.);
#794=ORIENTED_EDGE('',*,*,#603,.T.);
#795=ORIENTED_EDGE('',*,*,#604,.T.);
#796=ORIENTED_EDGE('',*,*,#603,.F.);
#797=ORIENTED_EDGE('',*,*,#604,.F.);
#798=ORIENTED_EDGE('',*,*,#605,.F.);
#799=ORIENTED_EDGE('',*,*,#606,.T.);
#800=ORIENTED_EDGE('',*,*,#607,.T.);
#801=ORIENTED_EDGE('',*,*,#606,.F.);
#802=ORIENTED_EDGE('',*,*,#607,.F.);
#803=ORIENTED_EDGE('',*,*,#599,.F.);
#804=ORIENTED_EDGE('',*,*,#608,.F.);
#805=ORIENTED_EDGE('',*,*,#609,.T.);
#806=ORIENTED_EDGE('',*,*,#610,.T.);
#807=ORIENTED_EDGE('',*,*,#609,.F.);
#808=ORIENTED_EDGE('',*,*,#610,.F.);
#809=ORIENTED_EDGE('',*,*,#596,.F.);
#810=ORIENTED_EDGE('',*,*,#611,.F.);
#811=ORIENTED_EDGE('',*,*,#612,.T.);
#812=ORIENTED_EDGE('',*,*,#613,.T.);
#813=ORIENTED_EDGE('',*,*,#612,.F.);
#814=ORIENTED_EDGE('',*,*,#613,.F.);
#815=ORIENTED_EDGE('',*,*,#593,.F.);
#816=ORIENTED_EDGE('',*,*,#614,.F.);
#817=ORIENTED_EDGE('',*,*,#615,.T.);
#818=ORIENTED_EDGE('',*,*,#616,.T.);
#819=ORIENTED_EDGE('',*,*,#615,.F.);
#820=ORIENTED_EDGE('',*,*,#616,.F.);
#821=ORIENTED_EDGE('',*,*,#602,.F.);
#822=ORIENTED_EDGE('',*,*,#617,.F.);
#823=ORIENTED_EDGE('',*,*,#618,.T.);
#824=ORIENTED_EDGE('',*,*,#619,.T.);
#825=ORIENTED_EDGE('',*,*,#620,.F.);
#826=ORIENTED_EDGE('',*,*,#590,.T.);
#827=ORIENTED_EDGE('',*,*,#592,.T.);
#828=ORIENTED_EDGE('',*,*,#585,.T.);
#829=ORIENTED_EDGE('',*,*,#588,.T.);
#830=ORIENTED_EDGE('',*,*,#584,.T.);
#831=ORIENTED_EDGE('',*,*,#582,.T.);
#832=ORIENTED_EDGE('',*,*,#580,.T.);
#833=ORIENTED_EDGE('',*,*,#578,.T.);
#834=ORIENTED_EDGE('',*,*,#621,.F.);
#835=ORIENTED_EDGE('',*,*,#622,.T.);
#836=ORIENTED_EDGE('',*,*,#623,.T.);
#837=ORIENTED_EDGE('',*,*,#618,.F.);
#838=ORIENTED_EDGE('',*,*,#624,.F.);
#839=ORIENTED_EDGE('',*,*,#625,.T.);
#840=ORIENTED_EDGE('',*,*,#626,.T.);
#841=ORIENTED_EDGE('',*,*,#622,.F.);
#842=ORIENTED_EDGE('',*,*,#627,.F.);
#843=ORIENTED_EDGE('',*,*,#620,.T.);
#844=ORIENTED_EDGE('',*,*,#628,.T.);
#845=ORIENTED_EDGE('',*,*,#625,.F.);
#846=ORIENTED_EDGE('',*,*,#628,.F.);
#847=ORIENTED_EDGE('',*,*,#619,.F.);
#848=ORIENTED_EDGE('',*,*,#623,.F.);
#849=ORIENTED_EDGE('',*,*,#626,.F.);
#850=ORIENTED_EDGE('',*,*,#566,.T.);
#851=ORIENTED_EDGE('',*,*,#568,.T.);
#852=ORIENTED_EDGE('',*,*,#561,.T.);
#853=ORIENTED_EDGE('',*,*,#564,.T.);
#854=ORIENTED_EDGE('',*,*,#574,.T.);
#855=ORIENTED_EDGE('',*,*,#576,.T.);
#856=ORIENTED_EDGE('',*,*,#569,.T.);
#857=ORIENTED_EDGE('',*,*,#572,.T.);
#858=ORIENTED_EDGE('',*,*,#517,.F.);
#859=ORIENTED_EDGE('',*,*,#556,.F.);
#860=ORIENTED_EDGE('',*,*,#629,.F.);
#861=ORIENTED_EDGE('',*,*,#559,.F.);
#862=ORIENTED_EDGE('',*,*,#542,.F.);
#863=ORIENTED_EDGE('',*,*,#544,.T.);
#864=ORIENTED_EDGE('',*,*,#546,.F.);
#865=ORIENTED_EDGE('',*,*,#558,.T.);
#866=ORIENTED_EDGE('',*,*,#560,.F.);
#867=ORIENTED_EDGE('',*,*,#629,.T.);
#868=ORIENTED_EDGE('',*,*,#555,.F.);
#869=ORIENTED_EDGE('',*,*,#531,.T.);
#870=ORIENTED_EDGE('',*,*,#617,.T.);
#871=ORIENTED_EDGE('',*,*,#627,.T.);
#872=ORIENTED_EDGE('',*,*,#624,.T.);
#873=ORIENTED_EDGE('',*,*,#621,.T.);
#874=ORIENTED_EDGE('',*,*,#614,.T.);
#875=ORIENTED_EDGE('',*,*,#611,.T.);
#876=ORIENTED_EDGE('',*,*,#608,.T.);
#877=ORIENTED_EDGE('',*,*,#605,.T.);
#878=(
BOUNDED_SURFACE()
B_SPLINE_SURFACE(2,2,((#1319,#1320,#1321),(#1322,#1323,#1324),(#1325,#1326,
#1327)),.UNSPECIFIED.,.F.,.F.,.F.)
B_SPLINE_SURFACE_WITH_KNOTS((3,3),(3,3),(-1.5707963267949,0.),(0.,1.5707963267949),
 .UNSPECIFIED.)
GEOMETRIC_REPRESENTATION_ITEM()
RATIONAL_B_SPLINE_SURFACE(((1.,0.707106781186548,1.),(0.707106781186541,
0.499999999999995,0.707106781186541),(1.,0.707106781186548,1.)))
REPRESENTATION_ITEM('')
SURFACE()
);
#879=(
BOUNDED_SURFACE()
B_SPLINE_SURFACE(2,2,((#1342,#1343,#1344),(#1345,#1346,#1347),(#1348,#1349,
#1350)),.UNSPECIFIED.,.F.,.F.,.F.)
B_SPLINE_SURFACE_WITH_KNOTS((3,3),(3,3),(-1.5707963267949,0.),(1.5707963267949,
3.14159265358979),.UNSPECIFIED.)
GEOMETRIC_REPRESENTATION_ITEM()
RATIONAL_B_SPLINE_SURFACE(((1.,0.707106781186548,1.),(0.707106781186553,
0.500000000000004,0.707106781186553),(1.,0.707106781186548,1.)))
REPRESENTATION_ITEM('')
SURFACE()
);
#880=(
BOUNDED_SURFACE()
B_SPLINE_SURFACE(2,2,((#1362,#1363,#1364),(#1365,#1366,#1367),(#1368,#1369,
#1370)),.UNSPECIFIED.,.F.,.F.,.F.)
B_SPLINE_SURFACE_WITH_KNOTS((3,3),(3,3),(-1.5707963267949,0.),(-3.14159265358979,
-1.5707963267949),.UNSPECIFIED.)
GEOMETRIC_REPRESENTATION_ITEM()
RATIONAL_B_SPLINE_SURFACE(((1.,0.707106781186548,1.),(0.707106781186553,
0.500000000000004,0.707106781186553),(1.,0.707106781186548,1.)))
REPRESENTATION_ITEM('')
SURFACE()
);
#881=(
BOUNDED_SURFACE()
B_SPLINE_SURFACE(2,2,((#1382,#1383,#1384),(#1385,#1386,#1387),(#1388,#1389,
#1390)),.UNSPECIFIED.,.F.,.F.,.F.)
B_SPLINE_SURFACE_WITH_KNOTS((3,3),(3,3),(-1.5707963267949,0.),(-1.5707963267949,
0.),.UNSPECIFIED.)
GEOMETRIC_REPRESENTATION_ITEM()
RATIONAL_B_SPLINE_SURFACE(((1.,0.707106781186548,1.),(0.707106781186544,
0.499999999999998,0.707106781186544),(1.,0.707106781186548,1.)))
REPRESENTATION_ITEM('')
SURFACE()
);
#882=ADVANCED_FACE('',(#249),#878,.F.);
#883=ADVANCED_FACE('',(#250),#229,.T.);
#884=ADVANCED_FACE('',(#251),#879,.F.);
#885=ADVANCED_FACE('',(#252),#230,.T.);
#886=ADVANCED_FACE('',(#253),#880,.F.);
#887=ADVANCED_FACE('',(#254),#231,.T.);
#888=ADVANCED_FACE('',(#255),#881,.F.);
#889=ADVANCED_FACE('',(#256),#232,.T.);
#890=ADVANCED_FACE('',(#257,#15,#16,#17,#18,#19),#38,.T.);
#891=ADVANCED_FACE('',(#258),#233,.T.);
#892=ADVANCED_FACE('',(#259),#39,.T.);
#893=ADVANCED_FACE('',(#260),#234,.T.);
#894=ADVANCED_FACE('',(#261,#20,#21),#40,.T.);
#895=ADVANCED_FACE('',(#262),#235,.T.);
#896=ADVANCED_FACE('',(#263),#41,.T.);
#897=ADVANCED_FACE('',(#264),#236,.T.);
#898=ADVANCED_FACE('',(#265),#42,.F.);
#899=ADVANCED_FACE('',(#266),#43,.F.);
#900=ADVANCED_FACE('',(#267),#44,.F.);
#901=ADVANCED_FACE('',(#268),#45,.F.);
#902=ADVANCED_FACE('',(#269),#46,.F.);
#903=ADVANCED_FACE('',(#270),#47,.F.);
#904=ADVANCED_FACE('',(#271),#48,.F.);
#905=ADVANCED_FACE('',(#272),#49,.F.);
#906=ADVANCED_FACE('',(#273),#237,.F.);
#907=ADVANCED_FACE('',(#274),#238,.F.);
#908=ADVANCED_FACE('',(#275),#239,.F.);
#909=ADVANCED_FACE('',(#276),#240,.F.);
#910=ADVANCED_FACE('',(#277),#50,.F.);
#911=ADVANCED_FACE('',(#278),#51,.F.);
#912=ADVANCED_FACE('',(#279),#52,.F.);
#913=ADVANCED_FACE('',(#280),#53,.F.);
#914=ADVANCED_FACE('',(#281),#241,.F.);
#915=ADVANCED_FACE('',(#282),#54,.F.);
#916=ADVANCED_FACE('',(#283),#242,.F.);
#917=ADVANCED_FACE('',(#284),#55,.F.);
#918=ADVANCED_FACE('',(#285),#243,.F.);
#919=ADVANCED_FACE('',(#286),#56,.F.);
#920=ADVANCED_FACE('',(#287),#244,.F.);
#921=ADVANCED_FACE('',(#288),#57,.F.);
#922=ADVANCED_FACE('',(#289),#245,.F.);
#923=ADVANCED_FACE('',(#290,#22),#58,.F.);
#924=ADVANCED_FACE('',(#291),#246,.F.);
#925=ADVANCED_FACE('',(#292,#23),#59,.F.);
#926=ADVANCED_FACE('',(#293),#247,.F.);
#927=ADVANCED_FACE('',(#294,#24),#60,.F.);
#928=ADVANCED_FACE('',(#295),#248,.F.);
#929=ADVANCED_FACE('',(#296,#25),#61,.F.);
#930=ADVANCED_FACE('',(#297,#26,#27,#28,#29,#30),#62,.F.);
#931=ADVANCED_FACE('',(#298),#63,.F.);
#932=ADVANCED_FACE('',(#299),#64,.F.);
#933=ADVANCED_FACE('',(#300),#65,.F.);
#934=ADVANCED_FACE('',(#301,#31,#32),#66,.F.);
#935=ADVANCED_FACE('',(#302),#67,.T.);
#936=ADVANCED_FACE('',(#303,#33,#34,#35,#36,#37),#68,.F.);
#937=CLOSED_SHELL('',(#882,#883,#884,#885,#886,#887,#888,#889,#890,#891,
#892,#893,#894,#895,#896,#897,#898,#899,#900,#901,#902,#903,#904,#905,#906,
#907,#908,#909,#910,#911,#912,#913,#914,#915,#916,#917,#918,#919,#920,#921,
#922,#923,#924,#925,#926,#927,#928,#929,#930,#931,#932,#933,#934,#935,#936));
#938=DERIVED_UNIT_ELEMENT(#940,1.);
#939=DERIVED_UNIT_ELEMENT(#1615,-3.);
#940=(
MASS_UNIT()
NAMED_UNIT(*)
SI_UNIT(.KILO.,.GRAM.)
);
#941=DERIVED_UNIT((#938,#939));
#942=MEASURE_REPRESENTATION_ITEM('density measure',
POSITIVE_RATIO_MEASURE(7850.),#941);
#943=PROPERTY_DEFINITION_REPRESENTATION(#948,#945);
#944=PROPERTY_DEFINITION_REPRESENTATION(#949,#946);
#945=REPRESENTATION('material name',(#947),#1612);
#946=REPRESENTATION('density',(#942),#1612);
#947=DESCRIPTIVE_REPRESENTATION_ITEM('Steel','Steel');
#948=PROPERTY_DEFINITION('material property','material name',#1622);
#949=PROPERTY_DEFINITION('material property','density of part',#1622);
#950=AXIS2_PLACEMENT_3D('',#1318,#1046,#1047);
#951=AXIS2_PLACEMENT_3D('',#1330,#1048,#1049);
#952=AXIS2_PLACEMENT_3D('',#1332,#1050,#1051);
#953=AXIS2_PLACEMENT_3D('',#1334,#1052,#1053);
#954=AXIS2_PLACEMENT_3D('',#1335,#1054,#1055);
#955=AXIS2_PLACEMENT_3D('',#1336,#1056,#1057);
#956=AXIS2_PLACEMENT_3D('',#1339,#1058,#1059);
#957=AXIS2_PLACEMENT_3D('',#1353,#1062,#1063);
#958=AXIS2_PLACEMENT_3D('',#1354,#1064,#1065);
#959=AXIS2_PLACEMENT_3D('',#1355,#1066,#1067);
#960=AXIS2_PLACEMENT_3D('',#1356,#1068,#1069);
#961=AXIS2_PLACEMENT_3D('',#1359,#1070,#1071);
#962=AXIS2_PLACEMENT_3D('',#1373,#1074,#1075);
#963=AXIS2_PLACEMENT_3D('',#1374,#1076,#1077);
#964=AXIS2_PLACEMENT_3D('',#1375,#1078,#1079);
#965=AXIS2_PLACEMENT_3D('',#1376,#1080,#1081);
#966=AXIS2_PLACEMENT_3D('',#1379,#1082,#1083);
#967=AXIS2_PLACEMENT_3D('',#1393,#1086,#1087);
#968=AXIS2_PLACEMENT_3D('',#1394,#1088,#1089);
#969=AXIS2_PLACEMENT_3D('',#1395,#1090,#1091);
#970=AXIS2_PLACEMENT_3D('',#1396,#1092,#1093);
#971=AXIS2_PLACEMENT_3D('',#1399,#1096,#1097);
#972=AXIS2_PLACEMENT_3D('',#1406,#1101,#1102);
#973=AXIS2_PLACEMENT_3D('',#1408,#1103,#1104);
#974=AXIS2_PLACEMENT_3D('',#1410,#1105,#1106);
#975=AXIS2_PLACEMENT_3D('',#1412,#1107,#1108);
#976=AXIS2_PLACEMENT_3D('',#1421,#1113,#1114);
#977=AXIS2_PLACEMENT_3D('',#1424,#1116,#1117);
#978=AXIS2_PLACEMENT_3D('',#1425,#1118,#1119);
#979=AXIS2_PLACEMENT_3D('',#1429,#1122,#1123);
#980=AXIS2_PLACEMENT_3D('',#1432,#1125,#1126);
#981=AXIS2_PLACEMENT_3D('',#1433,#1127,#1128);
#982=AXIS2_PLACEMENT_3D('',#1450,#1137,#1138);
#983=AXIS2_PLACEMENT_3D('',#1452,#1139,#1140);
#984=AXIS2_PLACEMENT_3D('',#1454,#1142,#1143);
#985=AXIS2_PLACEMENT_3D('',#1458,#1146,#1147);
#986=AXIS2_PLACEMENT_3D('',#1461,#1149,#1150);
#987=AXIS2_PLACEMENT_3D('',#1462,#1151,#1152);
#988=AXIS2_PLACEMENT_3D('',#1468,#1156,#1157);
#989=AXIS2_PLACEMENT_3D('',#1472,#1160,#1161);
#990=AXIS2_PLACEMENT_3D('',#1476,#1164,#1165);
#991=AXIS2_PLACEMENT_3D('',#1478,#1167,#1168);
#992=AXIS2_PLACEMENT_3D('',#1484,#1172,#1173);
#993=AXIS2_PLACEMENT_3D('',#1488,#1176,#1177);
#994=AXIS2_PLACEMENT_3D('',#1492,#1180,#1181);
#995=AXIS2_PLACEMENT_3D('',#1494,#1183,#1184);
#996=AXIS2_PLACEMENT_3D('',#1497,#1186,#1187);
#997=AXIS2_PLACEMENT_3D('',#1498,#1188,#1189);
#998=AXIS2_PLACEMENT_3D('',#1501,#1191,#1192);
#999=AXIS2_PLACEMENT_3D('',#1502,#1193,#1194);
#1000=AXIS2_PLACEMENT_3D('',#1505,#1196,#1197);
#1001=AXIS2_PLACEMENT_3D('',#1506,#1198,#1199);
#1002=AXIS2_PLACEMENT_3D('',#1509,#1201,#1202);
#1003=AXIS2_PLACEMENT_3D('',#1510,#1203,#1204);
#1004=AXIS2_PLACEMENT_3D('',#1516,#1208,#1209);
#1005=AXIS2_PLACEMENT_3D('',#1520,#1212,#1213);
#1006=AXIS2_PLACEMENT_3D('',#1524,#1216,#1217);
#1007=AXIS2_PLACEMENT_3D('',#1526,#1219,#1220);
#1008=AXIS2_PLACEMENT_3D('',#1528,#1221,#1222);
#1009=AXIS2_PLACEMENT_3D('',#1531,#1224,#1225);
#1010=AXIS2_PLACEMENT_3D('',#1532,#1226,#1227);
#1011=AXIS2_PLACEMENT_3D('',#1533,#1228,#1229);
#1012=AXIS2_PLACEMENT_3D('',#1535,#1230,#1231);
#1013=AXIS2_PLACEMENT_3D('',#1538,#1233,#1234);
#1014=AXIS2_PLACEMENT_3D('',#1539,#1235,#1236);
#1015=AXIS2_PLACEMENT_3D('',#1540,#1237,#1238);
#1016=AXIS2_PLACEMENT_3D('',#1542,#1239,#1240);
#1017=AXIS2_PLACEMENT_3D('',#1545,#1242,#1243);
#1018=AXIS2_PLACEMENT_3D('',#1546,#1244,#1245);
#1019=AXIS2_PLACEMENT_3D('',#1547,#1246,#1247);
#1020=AXIS2_PLACEMENT_3D('',#1549,#1248,#1249);
#1021=AXIS2_PLACEMENT_3D('',#1552,#1251,#1252);
#1022=AXIS2_PLACEMENT_3D('',#1553,#1253,#1254);
#1023=AXIS2_PLACEMENT_3D('',#1554,#1255,#1256);
#1024=AXIS2_PLACEMENT_3D('',#1556,#1257,#1258);
#1025=AXIS2_PLACEMENT_3D('',#1559,#1260,#1261);
#1026=AXIS2_PLACEMENT_3D('',#1560,#1262,#1263);
#1027=AXIS2_PLACEMENT_3D('',#1561,#1264,#1265);
#1028=AXIS2_PLACEMENT_3D('',#1563,#1266,#1267);
#1029=AXIS2_PLACEMENT_3D('',#1566,#1269,#1270);
#1030=AXIS2_PLACEMENT_3D('',#1567,#1271,#1272);
#1031=AXIS2_PLACEMENT_3D('',#1568,#1273,#1274);
#1032=AXIS2_PLACEMENT_3D('',#1570,#1275,#1276);
#1033=AXIS2_PLACEMENT_3D('',#1573,#1278,#1279);
#1034=AXIS2_PLACEMENT_3D('',#1574,#1280,#1281);
#1035=AXIS2_PLACEMENT_3D('',#1575,#1282,#1283);
#1036=AXIS2_PLACEMENT_3D('',#1577,#1284,#1285);
#1037=AXIS2_PLACEMENT_3D('',#1580,#1287,#1288);
#1038=AXIS2_PLACEMENT_3D('',#1581,#1289,#1290);
#1039=AXIS2_PLACEMENT_3D('',#1582,#1291,#1292);
#1040=AXIS2_PLACEMENT_3D('',#1591,#1297,#1298);
#1041=AXIS2_PLACEMENT_3D('',#1597,#1302,#1303);
#1042=AXIS2_PLACEMENT_3D('',#1603,#1307,#1308);
#1043=AXIS2_PLACEMENT_3D('',#1606,#1311,#1312);
#1044=AXIS2_PLACEMENT_3D('',#1607,#1313,#1314);
#1045=AXIS2_PLACEMENT_3D('',#1609,#1316,#1317);
#1046=DIRECTION('axis',(0.,0.,1.));
#1047=DIRECTION('refdir',(1.,0.,0.));
#1048=DIRECTION('center_axis',(0.,1.,0.));
#1049=DIRECTION('ref_axis',(-1.,0.,0.));
#1050=DIRECTION('center_axis',(0.,0.,-1.));
#1051=DIRECTION('ref_axis',(-0.707106781186547,0.707106781186548,0.));
#1052=DIRECTION('center_axis',(-1.,0.,0.));
#1053=DIRECTION('ref_axis',(0.,0.,1.));
#1054=DIRECTION('center_axis',(0.,0.,1.));
#1055=DIRECTION('ref_axis',(-0.707106781186547,0.707106781186548,0.));
#1056=DIRECTION('center_axis',(-1.,0.,0.));
#1057=DIRECTION('ref_axis',(0.,0.707106781186548,0.707106781186547));
#1058=DIRECTION('center_axis',(-1.,0.,0.));
#1059=DIRECTION('ref_axis',(0.,0.,1.));
#1060=DIRECTION('',(-1.,0.,0.));
#1061=DIRECTION('',(1.,0.,0.));
#1062=DIRECTION('center_axis',(0.,1.,0.));
#1063=DIRECTION('ref_axis',(0.,0.,1.));
#1064=DIRECTION('center_axis',(0.,0.,1.));
#1065=DIRECTION('ref_axis',(0.707106781186548,0.707106781186547,0.));
#1066=DIRECTION('center_axis',(0.,0.,-1.));
#1067=DIRECTION('ref_axis',(0.707106781186548,0.707106781186547,0.));
#1068=DIRECTION('center_axis',(7.90125105389635E-34,1.,0.));
#1069=DIRECTION('ref_axis',(0.707106781186549,0.,0.707106781186546));
#1070=DIRECTION('center_axis',(0.,1.,0.));
#1071=DIRECTION('ref_axis',(0.,0.,1.));
#1072=DIRECTION('',(7.90125105389635E-34,1.,0.));
#1073=DIRECTION('',(-7.90125105389635E-34,-1.,0.));
#1074=DIRECTION('center_axis',(1.,0.,0.));
#1075=DIRECTION('ref_axis',(0.,0.,1.));
#1076=DIRECTION('center_axis',(0.,0.,1.));
#1077=DIRECTION('ref_axis',(0.707106781186547,-0.707106781186547,0.));
#1078=DIRECTION('center_axis',(0.,0.,-1.));
#1079=DIRECTION('ref_axis',(0.707106781186547,-0.707106781186547,0.));
#1080=DIRECTION('center_axis',(1.,3.75137658732818E-33,0.));
#1081=DIRECTION('ref_axis',(0.,-0.707106781186549,0.707106781186546));
#1082=DIRECTION('center_axis',(1.,0.,0.));
#1083=DIRECTION('ref_axis',(0.,0.,1.));
#1084=DIRECTION('',(1.,3.75137658732818E-33,0.));
#1085=DIRECTION('',(-1.,-3.75137658732818E-33,0.));
#1086=DIRECTION('center_axis',(0.,-1.,0.));
#1087=DIRECTION('ref_axis',(0.,0.,1.));
#1088=DIRECTION('center_axis',(0.,0.,1.));
#1089=DIRECTION('ref_axis',(-0.707106781186548,-0.707106781186547,0.));
#1090=DIRECTION('center_axis',(0.,0.,-1.));
#1091=DIRECTION('ref_axis',(-0.707106781186548,-0.707106781186547,0.));
#1092=DIRECTION('center_axis',(0.,-1.,0.));
#1093=DIRECTION('ref_axis',(-0.70710678118655,0.,0.707106781186545));
#1094=DIRECTION('',(0.,1.,0.));
#1095=DIRECTION('',(0.,-1.,0.));
#1096=DIRECTION('center_axis',(3.75137658732818E-33,-1.,0.));
#1097=DIRECTION('ref_axis',(1.,3.75137658732818E-33,0.));
#1098=DIRECTION('',(0.,0.,1.));
#1099=DIRECTION('',(-1.,-3.75137658732818E-33,0.));
#1100=DIRECTION('',(0.,0.,-1.));
#1101=DIRECTION('center_axis',(-3.75137658732818E-33,1.,0.));
#1102=DIRECTION('ref_axis',(1.,0.,0.));
#1103=DIRECTION('center_axis',(-3.75137658732818E-33,1.,0.));
#1104=DIRECTION('ref_axis',(1.,0.,0.));
#1105=DIRECTION('center_axis',(-3.75137658732818E-33,1.,0.));
#1106=DIRECTION('ref_axis',(1.,0.,0.));
#1107=DIRECTION('center_axis',(-3.75137658732818E-33,1.,0.));
#1108=DIRECTION('ref_axis',(1.,0.,0.));
#1109=DIRECTION('',(1.,3.75137658732818E-33,0.));
#1110=DIRECTION('',(0.,0.,-1.));
#1111=DIRECTION('',(-1.,-3.75137658732818E-33,0.));
#1112=DIRECTION('',(0.,0.,1.));
#1113=DIRECTION('center_axis',(0.,0.,1.));
#1114=DIRECTION('ref_axis',(-0.707106781186548,-0.707106781186547,0.));
#1115=DIRECTION('',(0.,0.,-1.));
#1116=DIRECTION('center_axis',(0.,0.,1.));
#1117=DIRECTION('ref_axis',(-0.707106781186548,-0.707106781186547,0.));
#1118=DIRECTION('center_axis',(-1.,0.,0.));
#1119=DIRECTION('ref_axis',(0.,-1.,0.));
#1120=DIRECTION('',(0.,0.,1.));
#1121=DIRECTION('',(0.,1.,0.));
#1122=DIRECTION('center_axis',(0.,0.,1.));
#1123=DIRECTION('ref_axis',(-0.707106781186547,0.707106781186548,0.));
#1124=DIRECTION('',(0.,0.,-1.));
#1125=DIRECTION('center_axis',(0.,0.,1.));
#1126=DIRECTION('ref_axis',(-0.707106781186547,0.707106781186548,0.));
#1127=DIRECTION('center_axis',(0.,0.,1.));
#1128=DIRECTION('ref_axis',(1.,0.,0.));
#1129=DIRECTION('',(0.,-1.,0.));
#1130=DIRECTION('',(-1.,0.,0.));
#1131=DIRECTION('',(0.,1.,0.));
#1132=DIRECTION('',(1.,0.,0.));
#1133=DIRECTION('',(0.,-1.,0.));
#1134=DIRECTION('',(-1.,8.88178419700125E-17,0.));
#1135=DIRECTION('',(0.,1.,0.));
#1136=DIRECTION('',(1.,0.,0.));
#1137=DIRECTION('center_axis',(0.,0.,1.));
#1138=DIRECTION('ref_axis',(0.707106781186548,-0.707106781186547,0.));
#1139=DIRECTION('center_axis',(0.,0.,1.));
#1140=DIRECTION('ref_axis',(0.707106781186548,-0.707106781186547,0.));
#1141=DIRECTION('',(0.,0.,1.));
#1142=DIRECTION('center_axis',(0.,1.,0.));
#1143=DIRECTION('ref_axis',(-1.,0.,0.));
#1144=DIRECTION('',(0.,0.,1.));
#1145=DIRECTION('',(1.,0.,0.));
#1146=DIRECTION('center_axis',(0.,0.,1.));
#1147=DIRECTION('ref_axis',(0.707106781186547,0.707106781186548,0.));
#1148=DIRECTION('',(0.,0.,-1.));
#1149=DIRECTION('center_axis',(0.,0.,1.));
#1150=DIRECTION('ref_axis',(0.707106781186547,0.707106781186548,0.));
#1151=DIRECTION('center_axis',(-1.,0.,0.));
#1152=DIRECTION('ref_axis',(0.,1.,0.));
#1153=DIRECTION('',(0.,-1.,0.));
#1154=DIRECTION('',(0.,0.,-1.));
#1155=DIRECTION('',(0.,0.,-1.));
#1156=DIRECTION('center_axis',(-8.88178419700125E-17,-1.,0.));
#1157=DIRECTION('ref_axis',(-1.,8.88178419700125E-17,0.));
#1158=DIRECTION('',(1.,-8.88178419700125E-17,0.));
#1159=DIRECTION('',(0.,0.,-1.));
#1160=DIRECTION('center_axis',(1.,0.,0.));
#1161=DIRECTION('ref_axis',(0.,-1.,0.));
#1162=DIRECTION('',(0.,1.,0.));
#1163=DIRECTION('',(0.,0.,-1.));
#1164=DIRECTION('center_axis',(0.,1.,0.));
#1165=DIRECTION('ref_axis',(1.,0.,0.));
#1166=DIRECTION('',(-1.,0.,0.));
#1167=DIRECTION('center_axis',(-1.,0.,0.));
#1168=DIRECTION('ref_axis',(0.,1.,0.));
#1169=DIRECTION('',(0.,-1.,0.));
#1170=DIRECTION('',(0.,0.,-1.));
#1171=DIRECTION('',(0.,0.,-1.));
#1172=DIRECTION('center_axis',(0.,-1.,0.));
#1173=DIRECTION('ref_axis',(-1.,0.,0.));
#1174=DIRECTION('',(1.,0.,0.));
#1175=DIRECTION('',(0.,0.,-1.));
#1176=DIRECTION('center_axis',(1.,0.,0.));
#1177=DIRECTION('ref_axis',(0.,-1.,0.));
#1178=DIRECTION('',(0.,1.,0.));
#1179=DIRECTION('',(0.,0.,-1.));
#1180=DIRECTION('center_axis',(0.,1.,0.));
#1181=DIRECTION('ref_axis',(1.,0.,0.));
#1182=DIRECTION('',(-1.,0.,0.));
#1183=DIRECTION('center_axis',(0.,1.,0.));
#1184=DIRECTION('ref_axis',(1.,0.,0.));
#1185=DIRECTION('',(0.,1.,0.));
#1186=DIRECTION('center_axis',(0.,-1.,0.));
#1187=DIRECTION('ref_axis',(1.,0.,0.));
#1188=DIRECTION('center_axis',(0.,1.,0.));
#1189=DIRECTION('ref_axis',(1.,0.,0.));
#1190=DIRECTION('',(0.,1.,0.));
#1191=DIRECTION('center_axis',(0.,-1.,0.));
#1192=DIRECTION('ref_axis',(1.,0.,0.));
#1193=DIRECTION('center_axis',(0.,1.,0.));
#1194=DIRECTION('ref_axis',(1.,0.,0.));
#1195=DIRECTION('',(0.,1.,0.));
#1196=DIRECTION('center_axis',(0.,-1.,0.));
#1197=DIRECTION('ref_axis',(1.,0.,0.));
#1198=DIRECTION('center_axis',(0.,1.,0.));
#1199=DIRECTION('ref_axis',(1.,0.,0.));
#1200=DIRECTION('',(0.,1.,0.));
#1201=DIRECTION('center_axis',(0.,-1.,0.));
#1202=DIRECTION('ref_axis',(1.,0.,0.));
#1203=DIRECTION('center_axis',(0.,0.,-1.));
#1204=DIRECTION('ref_axis',(-1.,0.,0.));
#1205=DIRECTION('',(1.,0.,0.));
#1206=DIRECTION('',(0.,1.,0.));
#1207=DIRECTION('',(0.,1.,0.));
#1208=DIRECTION('center_axis',(1.,0.,0.));
#1209=DIRECTION('ref_axis',(0.,0.,-1.));
#1210=DIRECTION('',(0.,0.,1.));
#1211=DIRECTION('',(0.,1.,0.));
#1212=DIRECTION('center_axis',(0.,0.,1.));
#1213=DIRECTION('ref_axis',(1.,0.,0.));
#1214=DIRECTION('',(-1.,0.,0.));
#1215=DIRECTION('',(0.,1.,0.));
#1216=DIRECTION('center_axis',(-1.,0.,0.));
#1217=DIRECTION('ref_axis',(0.,0.,1.));
#1218=DIRECTION('',(0.,0.,-1.));
#1219=DIRECTION('center_axis',(0.,0.,1.));
#1220=DIRECTION('ref_axis',(1.,0.,0.));
#1221=DIRECTION('center_axis',(0.,0.,-1.));
#1222=DIRECTION('ref_axis',(1.,0.,0.));
#1223=DIRECTION('',(0.,0.,1.));
#1224=DIRECTION('center_axis',(0.,0.,1.));
#1225=DIRECTION('ref_axis',(1.,0.,0.));
#1226=DIRECTION('center_axis',(0.,0.,1.));
#1227=DIRECTION('ref_axis',(1.,0.,0.));
#1228=DIRECTION('center_axis',(0.,0.,1.));
#1229=DIRECTION('ref_axis',(1.,0.,0.));
#1230=DIRECTION('center_axis',(0.,0.,-1.));
#1231=DIRECTION('ref_axis',(1.,0.,0.));
#1232=DIRECTION('',(0.,0.,1.));
#1233=DIRECTION('center_axis',(0.,0.,1.));
#1234=DIRECTION('ref_axis',(1.,0.,0.));
#1235=DIRECTION('center_axis',(0.,0.,1.));
#1236=DIRECTION('ref_axis',(1.,0.,0.));
#1237=DIRECTION('center_axis',(0.,0.,1.));
#1238=DIRECTION('ref_axis',(1.,0.,0.));
#1239=DIRECTION('center_axis',(0.,0.,-1.));
#1240=DIRECTION('ref_axis',(1.,0.,0.));
#1241=DIRECTION('',(0.,0.,1.));
#1242=DIRECTION('center_axis',(0.,0.,1.));
#1243=DIRECTION('ref_axis',(1.,0.,0.));
#1244=DIRECTION('center_axis',(0.,0.,1.));
#1245=DIRECTION('ref_axis',(1.,0.,0.));
#1246=DIRECTION('center_axis',(0.,0.,1.));
#1247=DIRECTION('ref_axis',(1.,0.,0.));
#1248=DIRECTION('center_axis',(0.,0.,-1.));
#1249=DIRECTION('ref_axis',(1.,0.,0.));
#1250=DIRECTION('',(0.,0.,1.));
#1251=DIRECTION('center_axis',(0.,0.,1.));
#1252=DIRECTION('ref_axis',(1.,0.,0.));
#1253=DIRECTION('center_axis',(0.,0.,1.));
#1254=DIRECTION('ref_axis',(1.,0.,0.));
#1255=DIRECTION('center_axis',(0.,0.,1.));
#1256=DIRECTION('ref_axis',(1.,0.,0.));
#1257=DIRECTION('center_axis',(0.,0.,1.));
#1258=DIRECTION('ref_axis',(1.,0.,0.));
#1259=DIRECTION('',(0.,0.,1.));
#1260=DIRECTION('center_axis',(0.,0.,1.));
#1261=DIRECTION('ref_axis',(1.,0.,0.));
#1262=DIRECTION('center_axis',(0.,0.,1.));
#1263=DIRECTION('ref_axis',(1.,0.,0.));
#1264=DIRECTION('center_axis',(0.,0.,1.));
#1265=DIRECTION('ref_axis',(1.,0.,0.));
#1266=DIRECTION('center_axis',(0.,0.,1.));
#1267=DIRECTION('ref_axis',(1.,0.,0.));
#1268=DIRECTION('',(0.,0.,1.));
#1269=DIRECTION('center_axis',(0.,0.,1.));
#1270=DIRECTION('ref_axis',(1.,0.,0.));
#1271=DIRECTION('center_axis',(0.,0.,1.));
#1272=DIRECTION('ref_axis',(1.,0.,0.));
#1273=DIRECTION('center_axis',(0.,0.,1.));
#1274=DIRECTION('ref_axis',(1.,0.,0.));
#1275=DIRECTION('center_axis',(0.,0.,1.));
#1276=DIRECTION('ref_axis',(1.,0.,0.));
#1277=DIRECTION('',(0.,0.,1.));
#1278=DIRECTION('center_axis',(0.,0.,1.));
#1279=DIRECTION('ref_axis',(1.,0.,0.));
#1280=DIRECTION('center_axis',(0.,0.,1.));
#1281=DIRECTION('ref_axis',(1.,0.,0.));
#1282=DIRECTION('center_axis',(0.,0.,1.));
#1283=DIRECTION('ref_axis',(1.,0.,0.));
#1284=DIRECTION('center_axis',(0.,0.,1.));
#1285=DIRECTION('ref_axis',(1.,0.,0.));
#1286=DIRECTION('',(0.,0.,1.));
#1287=DIRECTION('center_axis',(0.,0.,1.));
#1288=DIRECTION('ref_axis',(1.,0.,0.));
#1289=DIRECTION('center_axis',(0.,0.,1.));
#1290=DIRECTION('ref_axis',(1.,0.,0.));
#1291=DIRECTION('center_axis',(0.,-1.,0.));
#1292=DIRECTION('ref_axis',(1.,0.,0.));
#1293=DIRECTION('',(1.,0.,0.));
#1294=DIRECTION('',(0.,0.,1.));
#1295=DIRECTION('',(1.,0.,0.));
#1296=DIRECTION('',(0.,0.,1.));
#1297=DIRECTION('center_axis',(-1.,-5.55111512312578E-16,0.));
#1298=DIRECTION('ref_axis',(5.55111512312578E-16,-1.,0.));
#1299=DIRECTION('',(5.55111512312578E-16,-1.,0.));
#1300=DIRECTION('',(0.,0.,1.));
#1301=DIRECTION('',(5.55111512312578E-16,-1.,0.));
#1302=DIRECTION('center_axis',(0.,1.,0.));
#1303=DIRECTION('ref_axis',(-1.,0.,0.));
#1304=DIRECTION('',(-1.,0.,0.));
#1305=DIRECTION('',(0.,0.,1.));
#1306=DIRECTION('',(-1.,0.,0.));
#1307=DIRECTION('center_axis',(1.,0.,0.));
#1308=DIRECTION('ref_axis',(0.,1.,0.));
#1309=DIRECTION('',(0.,1.,0.));
#1310=DIRECTION('',(0.,1.,0.));
#1311=DIRECTION('center_axis',(0.,0.,1.));
#1312=DIRECTION('ref_axis',(1.,0.,0.));
#1313=DIRECTION('center_axis',(1.,-7.90125105389635E-34,0.));
#1314=DIRECTION('ref_axis',(7.90125105389635E-34,1.,0.));
#1315=DIRECTION('',(-7.90125105389635E-34,-1.,0.));
#1316=DIRECTION('center_axis',(0.,0.,1.));
#1317=DIRECTION('ref_axis',(1.,0.,0.));
#1318=CARTESIAN_POINT('',(0.,0.,0.));
#1319=CARTESIAN_POINT('Ctrl Pts',(-112.,33.,55.));
#1320=CARTESIAN_POINT('Ctrl Pts',(-112.,36.,55.));
#1321=CARTESIAN_POINT('Ctrl Pts',(-109.,36.,55.));
#1322=CARTESIAN_POINT('Ctrl Pts',(-115.,33.,55.));
#1323=CARTESIAN_POINT('Ctrl Pts',(-115.,39.,55.));
#1324=CARTESIAN_POINT('Ctrl Pts',(-109.,39.,55.));
#1325=CARTESIAN_POINT('Ctrl Pts',(-115.,33.,52.));
#1326=CARTESIAN_POINT('Ctrl Pts',(-115.,39.,52.));
#1327=CARTESIAN_POINT('Ctrl Pts',(-109.,39.,52.));
#1328=CARTESIAN_POINT('',(-115.,33.,52.));
#1329=CARTESIAN_POINT('',(-112.,33.,55.));
#1330=CARTESIAN_POINT('Origin',(-112.,33.,52.));
#1331=CARTESIAN_POINT('',(-109.,36.,55.));
#1332=CARTESIAN_POINT('Origin',(-109.,33.,55.));
#1333=CARTESIAN_POINT('',(-109.,39.,52.));
#1334=CARTESIAN_POINT('Origin',(-109.,36.,52.));
#1335=CARTESIAN_POINT('Origin',(-109.,33.,52.));
#1336=CARTESIAN_POINT('Origin',(-28.75,36.,52.));
#1337=CARTESIAN_POINT('',(-6.,36.,55.));
#1338=CARTESIAN_POINT('',(-6.,39.,52.));
#1339=CARTESIAN_POINT('Origin',(-6.,36.,52.));
#1340=CARTESIAN_POINT('',(-28.75,39.,52.));
#1341=CARTESIAN_POINT('',(-28.75,36.,55.));
#1342=CARTESIAN_POINT('Ctrl Pts',(-6.,36.,55.));
#1343=CARTESIAN_POINT('Ctrl Pts',(-3.,36.,55.));
#1344=CARTESIAN_POINT('Ctrl Pts',(-3.,33.,55.));
#1345=CARTESIAN_POINT('Ctrl Pts',(-6.,39.,55.));
#1346=CARTESIAN_POINT('Ctrl Pts',(-1.11022302462516E-15,39.,55.));
#1347=CARTESIAN_POINT('Ctrl Pts',(0.,33.,55.));
#1348=CARTESIAN_POINT('Ctrl Pts',(-6.,39.,52.));
#1349=CARTESIAN_POINT('Ctrl Pts',(-1.11022302462516E-15,39.,52.));
#1350=CARTESIAN_POINT('Ctrl Pts',(0.,33.,52.));
#1351=CARTESIAN_POINT('',(-3.,33.,55.));
#1352=CARTESIAN_POINT('',(0.,33.,52.));
#1353=CARTESIAN_POINT('Origin',(-3.,33.,52.));
#1354=CARTESIAN_POINT('Origin',(-6.,33.,52.));
#1355=CARTESIAN_POINT('Origin',(-6.,33.,55.));
#1356=CARTESIAN_POINT('Origin',(-3.,9.75,52.));
#1357=CARTESIAN_POINT('',(-3.,6.,55.));
#1358=CARTESIAN_POINT('',(0.,6.,52.));
#1359=CARTESIAN_POINT('Origin',(-3.,6.,52.));
#1360=CARTESIAN_POINT('',(0.,9.75,52.));
#1361=CARTESIAN_POINT('',(-3.,9.75,55.));
#1362=CARTESIAN_POINT('Ctrl Pts',(-3.,6.,55.));
#1363=CARTESIAN_POINT('Ctrl Pts',(-3.00000000000001,3.,55.));
#1364=CARTESIAN_POINT('Ctrl Pts',(-6.00000000000001,3.,55.));
#1365=CARTESIAN_POINT('Ctrl Pts',(-4.44089209850063E-15,6.,55.));
#1366=CARTESIAN_POINT('Ctrl Pts',(-5.55111512312578E-15,1.11022302462516E-15,
55.));
#1367=CARTESIAN_POINT('Ctrl Pts',(-6.00000000000001,0.,55.));
#1368=CARTESIAN_POINT('Ctrl Pts',(-4.44089209850063E-15,6.,52.));
#1369=CARTESIAN_POINT('Ctrl Pts',(-5.55111512312578E-15,1.11022302462516E-15,
52.));
#1370=CARTESIAN_POINT('Ctrl Pts',(-6.00000000000001,0.,52.));
#1371=CARTESIAN_POINT('',(-6.00000000000001,3.,55.));
#1372=CARTESIAN_POINT('',(-6.00000000000001,0.,52.));
#1373=CARTESIAN_POINT('Origin',(-6.00000000000001,3.,52.));
#1374=CARTESIAN_POINT('Origin',(-6.00000000000001,6.,52.));
#1375=CARTESIAN_POINT('Origin',(-6.00000000000001,6.,55.));
#1376=CARTESIAN_POINT('Origin',(-86.25,3.,52.));
#1377=CARTESIAN_POINT('',(-109.,3.,55.));
#1378=CARTESIAN_POINT('',(-109.,0.,52.));
#1379=CARTESIAN_POINT('Origin',(-109.,3.,52.));
#1380=CARTESIAN_POINT('',(-86.25,0.,52.));
#1381=CARTESIAN_POINT('',(-86.25,3.,55.));
#1382=CARTESIAN_POINT('Ctrl Pts',(-109.,2.99999999999999,55.));
#1383=CARTESIAN_POINT('Ctrl Pts',(-112.,2.99999999999999,55.));
#1384=CARTESIAN_POINT('Ctrl Pts',(-112.,6.,55.));
#1385=CARTESIAN_POINT('Ctrl Pts',(-109.,-1.33226762955019E-14,55.));
#1386=CARTESIAN_POINT('Ctrl Pts',(-115.,-1.22124532708767E-14,55.));
#1387=CARTESIAN_POINT('Ctrl Pts',(-115.,6.,55.));
#1388=CARTESIAN_POINT('Ctrl Pts',(-109.,-1.33226762955019E-14,52.));
#1389=CARTESIAN_POINT('Ctrl Pts',(-115.,-1.22124532708767E-14,52.));
#1390=CARTESIAN_POINT('Ctrl Pts',(-115.,6.,52.));
#1391=CARTESIAN_POINT('',(-112.,6.,55.));
#1392=CARTESIAN_POINT('',(-115.,6.,52.));
#1393=CARTESIAN_POINT('Origin',(-112.,6.,52.));
#1394=CARTESIAN_POINT('Origin',(-109.,6.,52.));
#1395=CARTESIAN_POINT('Origin',(-109.,6.,55.));
#1396=CARTESIAN_POINT('Origin',(-112.,29.25,52.));
#1397=CARTESIAN_POINT('',(-112.,29.25,55.));
#1398=CARTESIAN_POINT('',(-115.,29.25,52.));
#1399=CARTESIAN_POINT('Origin',(-115.,-4.31408307542741E-31,0.));
#1400=CARTESIAN_POINT('',(-109.,-4.08900048018772E-31,0.));
#1401=CARTESIAN_POINT('',(-109.,0.,0.));
#1402=CARTESIAN_POINT('',(-6.00000000000001,-2.25082595239691E-32,0.));
#1403=CARTESIAN_POINT('',(0.,0.,0.));
#1404=CARTESIAN_POINT('',(-6.00000000000001,0.,0.));
#1405=CARTESIAN_POINT('',(-79.1,0.,15.));
#1406=CARTESIAN_POINT('Origin',(-77.5,-4.31408307542741E-31,15.));
#1407=CARTESIAN_POINT('',(-34.1,0.,15.));
#1408=CARTESIAN_POINT('Origin',(-32.5,-4.31408307542741E-31,15.));
#1409=CARTESIAN_POINT('',(-79.1,0.,40.));
#1410=CARTESIAN_POINT('Origin',(-77.5,-4.31408307542741E-31,40.));
#1411=CARTESIAN_POINT('',(-34.1,0.,40.));
#1412=CARTESIAN_POINT('Origin',(-32.5,-4.31408307542741E-31,40.));
#1413=CARTESIAN_POINT('',(-72.5,0.,40.));
#1414=CARTESIAN_POINT('',(-37.5,0.,40.));
#1415=CARTESIAN_POINT('',(-93.75,-3.51691555062017E-31,40.));
#1416=CARTESIAN_POINT('',(-37.5,0.,15.));
#1417=CARTESIAN_POINT('',(-37.5,-1.40676622024807E-31,20.));
#1418=CARTESIAN_POINT('',(-72.5,0.,15.));
#1419=CARTESIAN_POINT('',(-76.25,-2.86042464783774E-31,15.));
#1420=CARTESIAN_POINT('',(-72.5,-2.71974802581293E-31,7.5));
#1421=CARTESIAN_POINT('Origin',(-109.,6.,0.));
#1422=CARTESIAN_POINT('',(-115.,6.,0.));
#1423=CARTESIAN_POINT('',(-115.,6.,0.));
#1424=CARTESIAN_POINT('Origin',(-109.,6.,0.));
#1425=CARTESIAN_POINT('Origin',(-115.,39.,0.));
#1426=CARTESIAN_POINT('',(-115.,33.,0.));
#1427=CARTESIAN_POINT('',(-115.,33.,0.));
#1428=CARTESIAN_POINT('',(-115.,-4.31408307542741E-31,0.));
#1429=CARTESIAN_POINT('Origin',(-109.,33.,0.));
#1430=CARTESIAN_POINT('',(-109.,39.,0.));
#1431=CARTESIAN_POINT('',(-109.,39.,0.));
#1432=CARTESIAN_POINT('Origin',(-109.,33.,0.));
#1433=CARTESIAN_POINT('Origin',(-57.5,19.5,55.));
#1434=CARTESIAN_POINT('',(-17.,23.2,55.));
#1435=CARTESIAN_POINT('',(-17.,12.,55.));
#1436=CARTESIAN_POINT('',(-17.,21.35,55.));
#1437=CARTESIAN_POINT('',(-42.,12.,55.));
#1438=CARTESIAN_POINT('',(-37.25,12.,55.));
#1439=CARTESIAN_POINT('',(-42.,23.2,55.));
#1440=CARTESIAN_POINT('',(-42.,15.75,55.));
#1441=CARTESIAN_POINT('',(-49.75,23.2,55.));
#1442=CARTESIAN_POINT('',(-73.,23.2,55.));
#1443=CARTESIAN_POINT('',(-73.,12.,55.));
#1444=CARTESIAN_POINT('',(-73.,21.35,55.));
#1445=CARTESIAN_POINT('',(-98.,12.,55.));
#1446=CARTESIAN_POINT('',(-65.25,12.,55.));
#1447=CARTESIAN_POINT('',(-98.,23.2,55.));
#1448=CARTESIAN_POINT('',(-98.,15.75,55.));
#1449=CARTESIAN_POINT('',(-77.75,23.2,55.));
#1450=CARTESIAN_POINT('Origin',(-6.00000000000001,6.,0.));
#1451=CARTESIAN_POINT('',(4.74075063233781E-33,6.,0.));
#1452=CARTESIAN_POINT('Origin',(-6.00000000000001,6.,0.));
#1453=CARTESIAN_POINT('',(0.,6.,0.));
#1454=CARTESIAN_POINT('Origin',(0.,39.,0.));
#1455=CARTESIAN_POINT('',(-6.,39.,0.));
#1456=CARTESIAN_POINT('',(-6.,39.,0.));
#1457=CARTESIAN_POINT('',(-115.,39.,0.));
#1458=CARTESIAN_POINT('Origin',(-6.,33.,0.));
#1459=CARTESIAN_POINT('',(2.6074128477858E-32,33.,0.));
#1460=CARTESIAN_POINT('',(0.,33.,0.));
#1461=CARTESIAN_POINT('Origin',(-6.,33.,0.));
#1462=CARTESIAN_POINT('Origin',(-98.,12.,60.));
#1463=CARTESIAN_POINT('',(-98.,23.2,52.5));
#1464=CARTESIAN_POINT('',(-98.,12.,52.5));
#1465=CARTESIAN_POINT('',(-98.,15.75,52.5));
#1466=CARTESIAN_POINT('',(-98.,23.2,60.));
#1467=CARTESIAN_POINT('',(-98.,12.,60.));
#1468=CARTESIAN_POINT('Origin',(-73.,12.,60.));
#1469=CARTESIAN_POINT('',(-73.,12.,52.5));
#1470=CARTESIAN_POINT('',(-65.25,12.,52.5));
#1471=CARTESIAN_POINT('',(-73.,12.,60.));
#1472=CARTESIAN_POINT('Origin',(-73.,23.2,60.));
#1473=CARTESIAN_POINT('',(-73.,23.2,52.5));
#1474=CARTESIAN_POINT('',(-73.,21.35,52.5));
#1475=CARTESIAN_POINT('',(-73.,23.2,60.));
#1476=CARTESIAN_POINT('Origin',(-98.,23.2,60.));
#1477=CARTESIAN_POINT('',(-77.75,23.2,52.5));
#1478=CARTESIAN_POINT('Origin',(-42.,12.,60.));
#1479=CARTESIAN_POINT('',(-42.,23.2,52.5));
#1480=CARTESIAN_POINT('',(-42.,12.,52.5));
#1481=CARTESIAN_POINT('',(-42.,15.75,52.5));
#1482=CARTESIAN_POINT('',(-42.,23.2,60.));
#1483=CARTESIAN_POINT('',(-42.,12.,60.));
#1484=CARTESIAN_POINT('Origin',(-17.,12.,60.));
#1485=CARTESIAN_POINT('',(-17.,12.,52.5));
#1486=CARTESIAN_POINT('',(-37.25,12.,52.5));
#1487=CARTESIAN_POINT('',(-17.,12.,60.));
#1488=CARTESIAN_POINT('Origin',(-17.,23.2,60.));
#1489=CARTESIAN_POINT('',(-17.,23.2,52.5));
#1490=CARTESIAN_POINT('',(-17.,21.35,52.5));
#1491=CARTESIAN_POINT('',(-17.,23.2,60.));
#1492=CARTESIAN_POINT('Origin',(-42.,23.2,60.));
#1493=CARTESIAN_POINT('',(-49.75,23.2,52.5));
#1494=CARTESIAN_POINT('Origin',(-77.5,0.,15.));
#1495=CARTESIAN_POINT('',(-79.1,3.5,15.));
#1496=CARTESIAN_POINT('',(-79.1,0.,15.));
#1497=CARTESIAN_POINT('Origin',(-77.5,3.5,15.));
#1498=CARTESIAN_POINT('Origin',(-32.5,0.,15.));
#1499=CARTESIAN_POINT('',(-34.1,3.5,15.));
#1500=CARTESIAN_POINT('',(-34.1,0.,15.));
#1501=CARTESIAN_POINT('Origin',(-32.5,3.5,15.));
#1502=CARTESIAN_POINT('Origin',(-77.5,0.,40.));
#1503=CARTESIAN_POINT('',(-79.1,3.5,40.));
#1504=CARTESIAN_POINT('',(-79.1,0.,40.));
#1505=CARTESIAN_POINT('Origin',(-77.5,3.5,40.));
#1506=CARTESIAN_POINT('Origin',(-32.5,0.,40.));
#1507=CARTESIAN_POINT('',(-34.1,3.5,40.));
#1508=CARTESIAN_POINT('',(-34.1,0.,40.));
#1509=CARTESIAN_POINT('Origin',(-32.5,3.5,40.));
#1510=CARTESIAN_POINT('Origin',(-37.5,0.,15.));
#1511=CARTESIAN_POINT('',(-72.5,3.5,15.));
#1512=CARTESIAN_POINT('',(-37.5,3.5,15.));
#1513=CARTESIAN_POINT('',(-71.25,3.5,15.));
#1514=CARTESIAN_POINT('',(-72.5,0.,15.));
#1515=CARTESIAN_POINT('',(-37.5,0.,15.));
#1516=CARTESIAN_POINT('Origin',(-37.5,0.,40.));
#1517=CARTESIAN_POINT('',(-37.5,3.5,40.));
#1518=CARTESIAN_POINT('',(-37.5,3.5,20.));
#1519=CARTESIAN_POINT('',(-37.5,0.,40.));
#1520=CARTESIAN_POINT('Origin',(-72.5,0.,40.));
#1521=CARTESIAN_POINT('',(-72.5,3.5,40.));
#1522=CARTESIAN_POINT('',(-88.75,3.5,40.));
#1523=CARTESIAN_POINT('',(-72.5,0.,40.));
#1524=CARTESIAN_POINT('Origin',(-72.5,0.,15.));
#1525=CARTESIAN_POINT('',(-72.5,3.5,7.5));
#1526=CARTESIAN_POINT('Origin',(-5.,34.,0.));
#1527=CARTESIAN_POINT('',(-6.6,34.,5.));
#1528=CARTESIAN_POINT('Origin',(-5.,34.,5.));
#1529=CARTESIAN_POINT('',(-6.6,34.,15.));
#1530=CARTESIAN_POINT('',(-6.6,34.,0.));
#1531=CARTESIAN_POINT('Origin',(-5.,34.,15.));
#1532=CARTESIAN_POINT('Origin',(-5.,34.,15.));
#1533=CARTESIAN_POINT('Origin',(-110.,34.,0.));
#1534=CARTESIAN_POINT('',(-111.6,34.,5.));
#1535=CARTESIAN_POINT('Origin',(-110.,34.,5.));
#1536=CARTESIAN_POINT('',(-111.6,34.,15.));
#1537=CARTESIAN_POINT('',(-111.6,34.,0.));
#1538=CARTESIAN_POINT('Origin',(-110.,34.,15.));
#1539=CARTESIAN_POINT('Origin',(-110.,34.,15.));
#1540=CARTESIAN_POINT('Origin',(-5.,5.,0.));
#1541=CARTESIAN_POINT('',(-6.6,5.,5.));
#1542=CARTESIAN_POINT('Origin',(-5.,5.,5.));
#1543=CARTESIAN_POINT('',(-6.6,5.,15.));
#1544=CARTESIAN_POINT('',(-6.6,5.,0.));
#1545=CARTESIAN_POINT('Origin',(-5.,5.,15.));
#1546=CARTESIAN_POINT('Origin',(-5.,5.,15.));
#1547=CARTESIAN_POINT('Origin',(-110.,5.,0.));
#1548=CARTESIAN_POINT('',(-111.6,5.,5.));
#1549=CARTESIAN_POINT('Origin',(-110.,5.,5.));
#1550=CARTESIAN_POINT('',(-111.6,5.,15.));
#1551=CARTESIAN_POINT('',(-111.6,5.,0.));
#1552=CARTESIAN_POINT('Origin',(-110.,5.,15.));
#1553=CARTESIAN_POINT('Origin',(-110.,5.,15.));
#1554=CARTESIAN_POINT('Origin',(-5.,5.,0.));
#1555=CARTESIAN_POINT('',(-7.6,5.,0.));
#1556=CARTESIAN_POINT('Origin',(-5.,5.,0.));
#1557=CARTESIAN_POINT('',(-7.6,5.,5.));
#1558=CARTESIAN_POINT('',(-7.6,5.,0.));
#1559=CARTESIAN_POINT('Origin',(-5.,5.,5.));
#1560=CARTESIAN_POINT('Origin',(-5.,5.,5.));
#1561=CARTESIAN_POINT('Origin',(-110.,34.,0.));
#1562=CARTESIAN_POINT('',(-112.6,34.,0.));
#1563=CARTESIAN_POINT('Origin',(-110.,34.,0.));
#1564=CARTESIAN_POINT('',(-112.6,34.,5.));
#1565=CARTESIAN_POINT('',(-112.6,34.,0.));
#1566=CARTESIAN_POINT('Origin',(-110.,34.,5.));
#1567=CARTESIAN_POINT('Origin',(-110.,34.,5.));
#1568=CARTESIAN_POINT('Origin',(-5.,34.,0.));
#1569=CARTESIAN_POINT('',(-7.6,34.,0.));
#1570=CARTESIAN_POINT('Origin',(-5.,34.,0.));
#1571=CARTESIAN_POINT('',(-7.6,34.,5.));
#1572=CARTESIAN_POINT('',(-7.6,34.,0.));
#1573=CARTESIAN_POINT('Origin',(-5.,34.,5.));
#1574=CARTESIAN_POINT('Origin',(-5.,34.,5.));
#1575=CARTESIAN_POINT('Origin',(-110.,5.,0.));
#1576=CARTESIAN_POINT('',(-112.6,5.,0.));
#1577=CARTESIAN_POINT('Origin',(-110.,5.,0.));
#1578=CARTESIAN_POINT('',(-112.6,5.,5.));
#1579=CARTESIAN_POINT('',(-112.6,5.,0.));
#1580=CARTESIAN_POINT('Origin',(-110.,5.,5.));
#1581=CARTESIAN_POINT('Origin',(-110.,5.,5.));
#1582=CARTESIAN_POINT('Origin',(-105.,3.5,0.));
#1583=CARTESIAN_POINT('',(-105.,3.5,0.));
#1584=CARTESIAN_POINT('',(-10.,3.5,0.));
#1585=CARTESIAN_POINT('',(-81.25,3.5,0.));
#1586=CARTESIAN_POINT('',(-105.,3.5,52.5));
#1587=CARTESIAN_POINT('',(-105.,3.5,0.));
#1588=CARTESIAN_POINT('',(-10.,3.5,52.5));
#1589=CARTESIAN_POINT('',(-105.,3.5,52.5));
#1590=CARTESIAN_POINT('',(-10.,3.5,0.));
#1591=CARTESIAN_POINT('Origin',(-105.,35.5,0.));
#1592=CARTESIAN_POINT('',(-105.,35.5,0.));
#1593=CARTESIAN_POINT('',(-105.,27.5,0.));
#1594=CARTESIAN_POINT('',(-105.,35.5,52.5));
#1595=CARTESIAN_POINT('',(-105.,35.5,0.));
#1596=CARTESIAN_POINT('',(-105.,35.5,52.5));
#1597=CARTESIAN_POINT('Origin',(-10.,35.5,0.));
#1598=CARTESIAN_POINT('',(-10.,35.5,0.));
#1599=CARTESIAN_POINT('',(-33.75,35.5,0.));
#1600=CARTESIAN_POINT('',(-10.,35.5,52.5));
#1601=CARTESIAN_POINT('',(-10.,35.5,0.));
#1602=CARTESIAN_POINT('',(-10.,35.5,52.5));
#1603=CARTESIAN_POINT('Origin',(-10.,3.5,0.));
#1604=CARTESIAN_POINT('',(-10.,11.5,0.));
#1605=CARTESIAN_POINT('',(-10.,3.5,52.5));
#1606=CARTESIAN_POINT('Origin',(-57.5,19.5,52.5));
#1607=CARTESIAN_POINT('Origin',(0.,0.,0.));
#1608=CARTESIAN_POINT('',(3.08148791101958E-32,39.,0.));
#1609=CARTESIAN_POINT('Origin',(-57.5,19.5,0.));
#1610=UNCERTAINTY_MEASURE_WITH_UNIT(LENGTH_MEASURE(0.01),#1614,
'DISTANCE_ACCURACY_VALUE',
'Maximum model space distance between geometric entities at asserted c
onnectivities');
#1611=UNCERTAINTY_MEASURE_WITH_UNIT(LENGTH_MEASURE(0.01),#1614,
'DISTANCE_ACCURACY_VALUE',
'Maximum model space distance between geometric entities at asserted c
onnectivities');
#1612=(
GEOMETRIC_REPRESENTATION_CONTEXT(3)
GLOBAL_UNCERTAINTY_ASSIGNED_CONTEXT((#1610))
GLOBAL_UNIT_ASSIGNED_CONTEXT((#1614,#1616,#1617))
REPRESENTATION_CONTEXT('','3D')
);
#1613=(
GEOMETRIC_REPRESENTATION_CONTEXT(3)
GLOBAL_UNCERTAINTY_ASSIGNED_CONTEXT((#1611))
GLOBAL_UNIT_ASSIGNED_CONTEXT((#1614,#1616,#1617))
REPRESENTATION_CONTEXT('','3D')
);
#1614=(
LENGTH_UNIT()
NAMED_UNIT(*)
SI_UNIT(.MILLI.,.METRE.)
);
#1615=(
LENGTH_UNIT()
NAMED_UNIT(*)
SI_UNIT($,.METRE.)
);
#1616=(
NAMED_UNIT(*)
PLANE_ANGLE_UNIT()
SI_UNIT($,.RADIAN.)
);
#1617=(
NAMED_UNIT(*)
SI_UNIT($,.STERADIAN.)
SOLID_ANGLE_UNIT()
);
#1618=SHAPE_DEFINITION_REPRESENTATION(#1619,#1620);
#1619=PRODUCT_DEFINITION_SHAPE('',$,#1622);
#1620=SHAPE_REPRESENTATION('',(#950),#1612);
#1621=PRODUCT_DEFINITION_CONTEXT('part definition',#1626,'design');
#1622=PRODUCT_DEFINITION('2026-07-07-13-50-28-448','Qbot Head',#1623,#1621);
#1623=PRODUCT_DEFINITION_FORMATION('',$,#1628);
#1624=PRODUCT_RELATED_PRODUCT_CATEGORY('Qbot Head','Qbot Head',(#1628));
#1625=APPLICATION_PROTOCOL_DEFINITION('international standard',
'automotive_design',2009,#1626);
#1626=APPLICATION_CONTEXT(
'Core Data for Automotive Mechanical Design Process');
#1627=PRODUCT_CONTEXT('part definition',#1626,'mechanical');
#1628=PRODUCT('2026-07-07-13-50-28-448','Qbot Head',$,(#1627));
#1629=PRESENTATION_STYLE_ASSIGNMENT((#1631));
#1630=PRESENTATION_STYLE_ASSIGNMENT((#1632));
#1631=SURFACE_STYLE_USAGE(.BOTH.,#1633);
#1632=SURFACE_STYLE_USAGE(.BOTH.,#1634);
#1633=SURFACE_SIDE_STYLE('',(#1635));
#1634=SURFACE_SIDE_STYLE('',(#1636));
#1635=SURFACE_STYLE_FILL_AREA(#1637);
#1636=SURFACE_STYLE_FILL_AREA(#1638);
#1637=FILL_AREA_STYLE('Steel - Satin',(#1639));
#1638=FILL_AREA_STYLE('Powder Coat (White)',(#1640));
#1639=FILL_AREA_STYLE_COLOUR('Steel - Satin',#1641);
#1640=FILL_AREA_STYLE_COLOUR('Powder Coat (White)',#1642);
#1641=COLOUR_RGB('Steel - Satin',0.627450980392157,0.627450980392157,0.627450980392157);
#1642=COLOUR_RGB('Powder Coat (White)',0.964705882352941,0.964705882352941,
0.952941176470588);
ENDSEC;
END-ISO-10303-21;
